<?xml version="1.0" encoding="UTF-8" standalone="no"?><svg xmlns="http://www.w3.org/2000/svg" xmlns:xlink="http://www.w3.org/1999/xlink" contentScriptType="application/ecmascript" contentStyleType="text/css" height="402px" preserveAspectRatio="none" style="width:987px;height:402px;" version="1.1" viewBox="0 0 987 402" width="987px" zoomAndPan="magnify"><defs><filter height="300%" id="f1coqi5jovk1jb" width="300%" x="-1" y="-1"><feGaussianBlur result="blurOut" stdDeviation="2.0"/><feColorMatrix in="blurOut" result="blurOut2" type="matrix" values="0 0 0 0 0 0 0 0 0 0 0 0 0 0 0 0 0 0 .4 0"/><feOffset dx="4.0" dy="4.0" in="blurOut2" result="blurOut3"/><feBlend in="SourceGraphic" in2="blurOut3" mode="normal"/></filter></defs><g><!--MD5=[9be0839337cfdab5d118a2e29cf0a8c4]
cluster usantatecla.mastermind--><polygon fill="#FFFFFF" filter="url(#f1coqi5jovk1jb)" points="16,6,223,6,230,28.2969,390,28.2969,390,277,16,277,16,6" style="stroke:#000000;stroke-width:1.5;"/><line style="stroke:#000000;stroke-width:1.5;" x1="16" x2="230" y1="28.2969" y2="28.2969"/><text fill="#000000" font-family="sans-serif" font-size="14" font-weight="bold" lengthAdjust="spacingAndGlyphs" textLength="201" x="20" y="20.9951">usantatecla.mastermind</text><!--MD5=[315b8ca9da34f9ebf61c511bec4164b0]
class usantatecla.mastermind.ConsoleMastermind--><rect codeLine="8" fill="#FEFECE" filter="url(#f1coqi5jovk1jb)" height="73.6094" id="usantatecla.mastermind.ConsoleMastermind" style="stroke:#A80036;stroke-width:1.5;" width="151" x="32.5" y="187"/><ellipse cx="47.5" cy="203" fill="#ADD1B2" rx="11" ry="11" style="stroke:#A80036;stroke-width:1.0;"/><path d="M49.8438,198.6719 C48.9063,198.2344 48.3125,198.0938 47.4375,198.0938 C44.8125,198.0938 42.8125,200.1719 42.8125,202.8906 L42.8125,204.0156 C42.8125,206.5938 44.9219,208.4844 47.8125,208.4844 C49.0313,208.4844 50.1875,208.1875 50.9375,207.6406 C51.5156,207.2344 51.8438,206.7813 51.8438,206.3906 C51.8438,205.9375 51.4531,205.5469 50.9844,205.5469 C50.7656,205.5469 50.5625,205.625 50.375,205.8125 C49.9219,206.2969 49.9219,206.2969 49.7344,206.3906 C49.3125,206.6563 48.625,206.7813 47.8594,206.7813 C45.8125,206.7813 44.5156,205.6875 44.5156,203.9844 L44.5156,202.8906 C44.5156,201.1094 45.7656,199.7969 47.5,199.7969 C48.0781,199.7969 48.6875,199.9531 49.1563,200.2031 C49.6406,200.4844 49.8125,200.7031 49.9063,201.1094 C49.9688,201.5156 50,201.6406 50.1406,201.7656 C50.2813,201.9063 50.5156,202.0156 50.7344,202.0156 C51,202.0156 51.2656,201.875 51.4375,201.6563 C51.5469,201.5 51.5781,201.3125 51.5781,200.8906 L51.5781,199.4688 C51.5781,199.0313 51.5625,198.9063 51.4688,198.75 C51.3125,198.4844 51.0313,198.3438 50.7344,198.3438 C50.4375,198.3438 50.2344,198.4375 50.0156,198.75 L49.8438,198.6719 Z " fill="#000000"/><text fill="#000000" font-family="sans-serif" font-size="12" lengthAdjust="spacingAndGlyphs" textLength="119" x="61.5" y="207.1543">ConsoleMastermind</text><line style="stroke:#A80036;stroke-width:1.5;" x1="33.5" x2="182.5" y1="219" y2="219"/><line style="stroke:#A80036;stroke-width:1.5;" x1="33.5" x2="182.5" y1="227" y2="227"/><ellipse cx="43.5" cy="238" fill="#84BE84" rx="3" ry="3" style="stroke:#038048;stroke-width:1.0;"/><text fill="#000000" font-family="sans-serif" font-size="11" lengthAdjust="spacingAndGlyphs" text-decoration="underline" textLength="77" x="52.5" y="241.2104">main(String[])</text><polygon fill="#FFFF44" points="43.5,245.8047,47.5,249.8047,43.5,253.8047,39.5,249.8047" style="stroke:#B38D22;stroke-width:1.0;"/><text fill="#000000" font-family="sans-serif" font-size="11" lengthAdjust="spacingAndGlyphs" textLength="108" x="52.5" y="254.0151">createView(): View</text><!--MD5=[904099970a9cea29a476bd38c8d887ee]
class usantatecla.mastermind.Mastermind--><rect codeLine="22" fill="#FEFECE" filter="url(#f1coqi5jovk1jb)" height="86.4141" id="usantatecla.mastermind.Mastermind" style="stroke:#A80036;stroke-width:1.5;" width="132" x="242" y="41"/><ellipse cx="270.05" cy="57" fill="#A9DCDF" rx="11" ry="11" style="stroke:#A80036;stroke-width:1.0;"/><path d="M272.1281,58.8125 L272.5188,59.7969 L272.1281,59.7969 C271.675,59.7969 271.5656,59.8125 271.4094,59.9219 C271.1594,60.0781 271.0031,60.3594 271.0031,60.6563 C271.0031,60.9219 271.1438,61.1719 271.3625,61.3281 C271.5031,61.4531 271.7063,61.5 272.1281,61.5 L274.4875,61.5 C274.8469,61.5 275.0656,61.4688 275.2063,61.375 C275.4563,61.2344 275.6125,60.9375 275.6125,60.6563 C275.6125,60.375 275.4719,60.125 275.2531,59.9688 C275.0813,59.8281 274.925,59.7969 274.4563,59.7969 L271.0656,51.5938 L267.3938,51.5938 C266.9406,51.5938 266.8156,51.6094 266.6594,51.7031 C266.4094,51.875 266.2531,52.1563 266.2531,52.4375 C266.2531,52.7188 266.3938,52.9688 266.6125,53.1406 C266.7844,53.25 266.9563,53.2813 267.3938,53.2813 L268.4719,53.2813 L265.8313,59.7969 C265.4094,59.7969 265.2531,59.8125 265.0969,59.9219 C264.8469,60.0781 264.6906,60.3594 264.6906,60.6563 C264.6906,61.2188 265.0656,61.5 265.8156,61.5 L268.0813,61.5 C268.4406,61.5 268.6594,61.4688 268.7844,61.375 C269.05,61.2344 269.1906,60.9375 269.1906,60.6563 C269.1906,60.375 269.0656,60.125 268.8469,59.9531 C268.675,59.8281 268.5344,59.7969 268.0813,59.7969 L267.6906,59.7969 L268.0813,58.8125 L272.1281,58.8125 Z M271.425,57.1094 L268.7531,57.1094 L270.0969,53.8438 L271.425,57.1094 Z " fill="#000000"/><text fill="#000000" font-family="sans-serif" font-size="12" font-style="italic" lengthAdjust="spacingAndGlyphs" textLength="71" x="286.95" y="61.1543">Mastermind</text><line style="stroke:#A80036;stroke-width:1.5;" x1="243" x2="373" y1="73" y2="73"/><line style="stroke:#A80036;stroke-width:1.5;" x1="243" x2="373" y1="81" y2="81"/><polygon fill="#FFFF44" points="253,87,257,91,253,95,249,91" style="stroke:#B38D22;stroke-width:1.0;"/><text fill="#000000" font-family="sans-serif" font-size="11" lengthAdjust="spacingAndGlyphs" textLength="74" x="262" y="95.2104">Mastermind()</text><polygon fill="#FFFF44" points="253,99.8047,257,103.8047,253,107.8047,249,103.8047" style="stroke:#B38D22;stroke-width:1.0;"/><text fill="#000000" font-family="sans-serif" font-size="11" font-style="italic" lengthAdjust="spacingAndGlyphs" textLength="106" x="262" y="108.0151">createView(): View</text><polygon fill="#FFFF44" points="253,112.6094,257,116.6094,253,120.6094,249,116.6094" style="stroke:#B38D22;stroke-width:1.0;"/><text fill="#000000" font-family="sans-serif" font-size="11" lengthAdjust="spacingAndGlyphs" textLength="32" x="262" y="120.8198">play()</text><!--MD5=[e3ccb0142e457ddb33bd230b9167ec6f]
class usantatecla.mastermind.GraphicsMastermind--><rect codeLine="15" fill="#FEFECE" filter="url(#f1coqi5jovk1jb)" height="73.6094" id="usantatecla.mastermind.GraphicsMastermind" style="stroke:#A80036;stroke-width:1.5;" width="155" x="218.5" y="187"/><ellipse cx="233.5" cy="203" fill="#ADD1B2" rx="11" ry="11" style="stroke:#A80036;stroke-width:1.0;"/><path d="M235.8438,198.6719 C234.9063,198.2344 234.3125,198.0938 233.4375,198.0938 C230.8125,198.0938 228.8125,200.1719 228.8125,202.8906 L228.8125,204.0156 C228.8125,206.5938 230.9219,208.4844 233.8125,208.4844 C235.0313,208.4844 236.1875,208.1875 236.9375,207.6406 C237.5156,207.2344 237.8438,206.7813 237.8438,206.3906 C237.8438,205.9375 237.4531,205.5469 236.9844,205.5469 C236.7656,205.5469 236.5625,205.625 236.375,205.8125 C235.9219,206.2969 235.9219,206.2969 235.7344,206.3906 C235.3125,206.6563 234.625,206.7813 233.8594,206.7813 C231.8125,206.7813 230.5156,205.6875 230.5156,203.9844 L230.5156,202.8906 C230.5156,201.1094 231.7656,199.7969 233.5,199.7969 C234.0781,199.7969 234.6875,199.9531 235.1563,200.2031 C235.6406,200.4844 235.8125,200.7031 235.9063,201.1094 C235.9688,201.5156 236,201.6406 236.1406,201.7656 C236.2813,201.9063 236.5156,202.0156 236.7344,202.0156 C237,202.0156 237.2656,201.875 237.4375,201.6563 C237.5469,201.5 237.5781,201.3125 237.5781,200.8906 L237.5781,199.4688 C237.5781,199.0313 237.5625,198.9063 237.4688,198.75 C237.3125,198.4844 237.0313,198.3438 236.7344,198.3438 C236.4375,198.3438 236.2344,198.4375 236.0156,198.75 L235.8438,198.6719 Z " fill="#000000"/><text fill="#000000" font-family="sans-serif" font-size="12" lengthAdjust="spacingAndGlyphs" textLength="123" x="247.5" y="207.1543">GraphicsMastermind</text><line style="stroke:#A80036;stroke-width:1.5;" x1="219.5" x2="372.5" y1="219" y2="219"/><line style="stroke:#A80036;stroke-width:1.5;" x1="219.5" x2="372.5" y1="227" y2="227"/><ellipse cx="229.5" cy="238" fill="#84BE84" rx="3" ry="3" style="stroke:#038048;stroke-width:1.0;"/><text fill="#000000" font-family="sans-serif" font-size="11" lengthAdjust="spacingAndGlyphs" text-decoration="underline" textLength="77" x="238.5" y="241.2104">main(String[])</text><polygon fill="#FFFF44" points="229.5,245.8047,233.5,249.8047,229.5,253.8047,225.5,249.8047" style="stroke:#B38D22;stroke-width:1.0;"/><text fill="#000000" font-family="sans-serif" font-size="11" lengthAdjust="spacingAndGlyphs" textLength="108" x="238.5" y="254.0151">createView(): View</text><!--MD5=[c045e12321b83266d36d22b9096c24ea]
class View--><rect codeLine="1" fill="#FEFECE" filter="url(#f1coqi5jovk1jb)" height="67.9063" id="View" style="stroke:#A80036;stroke-width:1.5;" width="144" x="409" y="190"/><ellipse cx="424" cy="215.9531" fill="#ADD1B2" rx="11" ry="11" style="stroke:#A80036;stroke-width:1.0;"/><path d="M426.3438,211.625 C425.4063,211.1875 424.8125,211.0469 423.9375,211.0469 C421.3125,211.0469 419.3125,213.125 419.3125,215.8438 L419.3125,216.9688 C419.3125,219.5469 421.4219,221.4375 424.3125,221.4375 C425.5313,221.4375 426.6875,221.1406 427.4375,220.5938 C428.0156,220.1875 428.3438,219.7344 428.3438,219.3438 C428.3438,218.8906 427.9531,218.5 427.4844,218.5 C427.2656,218.5 427.0625,218.5781 426.875,218.7656 C426.4219,219.25 426.4219,219.25 426.2344,219.3438 C425.8125,219.6094 425.125,219.7344 424.3594,219.7344 C422.3125,219.7344 421.0156,218.6406 421.0156,216.9375 L421.0156,215.8438 C421.0156,214.0625 422.2656,212.75 424,212.75 C424.5781,212.75 425.1875,212.9063 425.6563,213.1563 C426.1406,213.4375 426.3125,213.6563 426.4063,214.0625 C426.4688,214.4688 426.5,214.5938 426.6406,214.7188 C426.7813,214.8594 427.0156,214.9688 427.2344,214.9688 C427.5,214.9688 427.7656,214.8281 427.9375,214.6094 C428.0469,214.4531 428.0781,214.2656 428.0781,213.8438 L428.0781,212.4219 C428.0781,211.9844 428.0625,211.8594 427.9688,211.7031 C427.8125,211.4375 427.5313,211.2969 427.2344,211.2969 C426.9375,211.2969 426.7344,211.3906 426.5156,211.7031 L426.3438,211.625 Z " fill="#000000"/><text fill="#000000" font-family="sans-serif" font-size="12" lengthAdjust="spacingAndGlyphs" textLength="71" x="458.5" y="206.1387">usantatecla.</text><text fill="#000000" font-family="sans-serif" font-size="12" lengthAdjust="spacingAndGlyphs" textLength="112" x="438" y="220.1074">mastermind.views.</text><text fill="#000000" font-family="sans-serif" font-size="12" lengthAdjust="spacingAndGlyphs" textLength="29" x="479.5" y="234.0762">View</text><line style="stroke:#A80036;stroke-width:1.5;" x1="410" x2="552" y1="241.9063" y2="241.9063"/><line style="stroke:#A80036;stroke-width:1.5;" x1="410" x2="552" y1="249.9063" y2="249.9063"/><!--MD5=[51d729737bd84a4c43136dd336c2eea1]
class ConsoleView--><rect codeLine="2" fill="#FEFECE" filter="url(#f1coqi5jovk1jb)" height="67.9063" id="ConsoleView" style="stroke:#A80036;stroke-width:1.5;" width="161" x="22.5" y="321"/><ellipse cx="37.5" cy="346.9531" fill="#ADD1B2" rx="11" ry="11" style="stroke:#A80036;stroke-width:1.0;"/><path d="M39.8438,342.625 C38.9063,342.1875 38.3125,342.0469 37.4375,342.0469 C34.8125,342.0469 32.8125,344.125 32.8125,346.8438 L32.8125,347.9688 C32.8125,350.5469 34.9219,352.4375 37.8125,352.4375 C39.0313,352.4375 40.1875,352.1406 40.9375,351.5938 C41.5156,351.1875 41.8438,350.7344 41.8438,350.3438 C41.8438,349.8906 41.4531,349.5 40.9844,349.5 C40.7656,349.5 40.5625,349.5781 40.375,349.7656 C39.9219,350.25 39.9219,350.25 39.7344,350.3438 C39.3125,350.6094 38.625,350.7344 37.8594,350.7344 C35.8125,350.7344 34.5156,349.6406 34.5156,347.9375 L34.5156,346.8438 C34.5156,345.0625 35.7656,343.75 37.5,343.75 C38.0781,343.75 38.6875,343.9063 39.1563,344.1563 C39.6406,344.4375 39.8125,344.6563 39.9063,345.0625 C39.9688,345.4688 40,345.5938 40.1406,345.7188 C40.2813,345.8594 40.5156,345.9688 40.7344,345.9688 C41,345.9688 41.2656,345.8281 41.4375,345.6094 C41.5469,345.4531 41.5781,345.2656 41.5781,344.8438 L41.5781,343.4219 C41.5781,342.9844 41.5625,342.8594 41.4688,342.7031 C41.3125,342.4375 41.0313,342.2969 40.7344,342.2969 C40.4375,342.2969 40.2344,342.3906 40.0156,342.7031 L39.8438,342.625 Z " fill="#000000"/><text fill="#000000" font-family="sans-serif" font-size="12" lengthAdjust="spacingAndGlyphs" textLength="71" x="80.5" y="337.1387">usantatecla.</text><text fill="#000000" font-family="sans-serif" font-size="12" lengthAdjust="spacingAndGlyphs" textLength="112" x="60" y="351.1074">mastermind.views.</text><text fill="#000000" font-family="sans-serif" font-size="12" lengthAdjust="spacingAndGlyphs" textLength="129" x="51.5" y="365.0762">console.ConsoleView</text><line style="stroke:#A80036;stroke-width:1.5;" x1="23.5" x2="182.5" y1="372.9063" y2="372.9063"/><line style="stroke:#A80036;stroke-width:1.5;" x1="23.5" x2="182.5" y1="380.9063" y2="380.9063"/><!--MD5=[10250df365dc999637be629d910c1f35]
class GraphicsView--><rect codeLine="3" fill="#FEFECE" filter="url(#f1coqi5jovk1jb)" height="67.9063" id="GraphicsView" style="stroke:#A80036;stroke-width:1.5;" width="165" x="218.5" y="321"/><ellipse cx="233.5" cy="346.9531" fill="#ADD1B2" rx="11" ry="11" style="stroke:#A80036;stroke-width:1.0;"/><path d="M235.8438,342.625 C234.9063,342.1875 234.3125,342.0469 233.4375,342.0469 C230.8125,342.0469 228.8125,344.125 228.8125,346.8438 L228.8125,347.9688 C228.8125,350.5469 230.9219,352.4375 233.8125,352.4375 C235.0313,352.4375 236.1875,352.1406 236.9375,351.5938 C237.5156,351.1875 237.8438,350.7344 237.8438,350.3438 C237.8438,349.8906 237.4531,349.5 236.9844,349.5 C236.7656,349.5 236.5625,349.5781 236.375,349.7656 C235.9219,350.25 235.9219,350.25 235.7344,350.3438 C235.3125,350.6094 234.625,350.7344 233.8594,350.7344 C231.8125,350.7344 230.5156,349.6406 230.5156,347.9375 L230.5156,346.8438 C230.5156,345.0625 231.7656,343.75 233.5,343.75 C234.0781,343.75 234.6875,343.9063 235.1563,344.1563 C235.6406,344.4375 235.8125,344.6563 235.9063,345.0625 C235.9688,345.4688 236,345.5938 236.1406,345.7188 C236.2813,345.8594 236.5156,345.9688 236.7344,345.9688 C237,345.9688 237.2656,345.8281 237.4375,345.6094 C237.5469,345.4531 237.5781,345.2656 237.5781,344.8438 L237.5781,343.4219 C237.5781,342.9844 237.5625,342.8594 237.4688,342.7031 C237.3125,342.4375 237.0313,342.2969 236.7344,342.2969 C236.4375,342.2969 236.2344,342.3906 236.0156,342.7031 L235.8438,342.625 Z " fill="#000000"/><text fill="#000000" font-family="sans-serif" font-size="12" lengthAdjust="spacingAndGlyphs" textLength="71" x="278.5" y="337.1387">usantatecla.</text><text fill="#000000" font-family="sans-serif" font-size="12" lengthAdjust="spacingAndGlyphs" textLength="112" x="258" y="351.1074">mastermind.views.</text><text fill="#000000" font-family="sans-serif" font-size="12" lengthAdjust="spacingAndGlyphs" textLength="133" x="247.5" y="365.0762">console.GraphicsView</text><line style="stroke:#A80036;stroke-width:1.5;" x1="219.5" x2="382.5" y1="372.9063" y2="372.9063"/><line style="stroke:#A80036;stroke-width:1.5;" x1="219.5" x2="382.5" y1="380.9063" y2="380.9063"/><!--MD5=[42fa18dda7351a0ae87d9497de925436]
class Logic--><rect codeLine="4" fill="#FEFECE" filter="url(#f1coqi5jovk1jb)" height="67.9063" id="Logic" style="stroke:#A80036;stroke-width:1.5;" width="174" x="588" y="190"/><ellipse cx="603" cy="215.9531" fill="#ADD1B2" rx="11" ry="11" style="stroke:#A80036;stroke-width:1.0;"/><path d="M605.3438,211.625 C604.4063,211.1875 603.8125,211.0469 602.9375,211.0469 C600.3125,211.0469 598.3125,213.125 598.3125,215.8438 L598.3125,216.9688 C598.3125,219.5469 600.4219,221.4375 603.3125,221.4375 C604.5313,221.4375 605.6875,221.1406 606.4375,220.5938 C607.0156,220.1875 607.3438,219.7344 607.3438,219.3438 C607.3438,218.8906 606.9531,218.5 606.4844,218.5 C606.2656,218.5 606.0625,218.5781 605.875,218.7656 C605.4219,219.25 605.4219,219.25 605.2344,219.3438 C604.8125,219.6094 604.125,219.7344 603.3594,219.7344 C601.3125,219.7344 600.0156,218.6406 600.0156,216.9375 L600.0156,215.8438 C600.0156,214.0625 601.2656,212.75 603,212.75 C603.5781,212.75 604.1875,212.9063 604.6563,213.1563 C605.1406,213.4375 605.3125,213.6563 605.4063,214.0625 C605.4688,214.4688 605.5,214.5938 605.6406,214.7188 C605.7813,214.8594 606.0156,214.9688 606.2344,214.9688 C606.5,214.9688 606.7656,214.8281 606.9375,214.6094 C607.0469,214.4531 607.0781,214.2656 607.0781,213.8438 L607.0781,212.4219 C607.0781,211.9844 607.0625,211.8594 606.9688,211.7031 C606.8125,211.4375 606.5313,211.2969 606.2344,211.2969 C605.9375,211.2969 605.7344,211.3906 605.5156,211.7031 L605.3438,211.625 Z " fill="#000000"/><text fill="#000000" font-family="sans-serif" font-size="12" lengthAdjust="spacingAndGlyphs" textLength="71" x="652.5" y="206.1387">usantatecla.</text><text fill="#000000" font-family="sans-serif" font-size="12" lengthAdjust="spacingAndGlyphs" textLength="142" x="617" y="220.1074">mastermind.controllers.</text><text fill="#000000" font-family="sans-serif" font-size="12" lengthAdjust="spacingAndGlyphs" textLength="32" x="672" y="234.0762">Logic</text><line style="stroke:#A80036;stroke-width:1.5;" x1="589" x2="761" y1="241.9063" y2="241.9063"/><line style="stroke:#A80036;stroke-width:1.5;" x1="589" x2="761" y1="249.9063" y2="249.9063"/><!--MD5=[1d7ba1c7002d54515419844fbd155368]
class Controller--><rect codeLine="5" fill="#FEFECE" filter="url(#f1coqi5jovk1jb)" height="67.9063" id="Controller" style="stroke:#A80036;stroke-width:1.5;" width="176" x="797" y="190"/><ellipse cx="812" cy="215.9531" fill="#A9DCDF" rx="11" ry="11" style="stroke:#A80036;stroke-width:1.0;"/><path d="M814.0781,217.7656 L814.4688,218.75 L814.0781,218.75 C813.625,218.75 813.5156,218.7656 813.3594,218.875 C813.1094,219.0313 812.9531,219.3125 812.9531,219.6094 C812.9531,219.875 813.0938,220.125 813.3125,220.2813 C813.4531,220.4063 813.6563,220.4531 814.0781,220.4531 L816.4375,220.4531 C816.7969,220.4531 817.0156,220.4219 817.1563,220.3281 C817.4063,220.1875 817.5625,219.8906 817.5625,219.6094 C817.5625,219.3281 817.4219,219.0781 817.2031,218.9219 C817.0313,218.7813 816.875,218.75 816.4063,218.75 L813.0156,210.5469 L809.3438,210.5469 C808.8906,210.5469 808.7656,210.5625 808.6094,210.6563 C808.3594,210.8281 808.2031,211.1094 808.2031,211.3906 C808.2031,211.6719 808.3438,211.9219 808.5625,212.0938 C808.7344,212.2031 808.9063,212.2344 809.3438,212.2344 L810.4219,212.2344 L807.7813,218.75 C807.3594,218.75 807.2031,218.7656 807.0469,218.875 C806.7969,219.0313 806.6406,219.3125 806.6406,219.6094 C806.6406,220.1719 807.0156,220.4531 807.7656,220.4531 L810.0313,220.4531 C810.3906,220.4531 810.6094,220.4219 810.7344,220.3281 C811,220.1875 811.1406,219.8906 811.1406,219.6094 C811.1406,219.3281 811.0156,219.0781 810.7969,218.9063 C810.625,218.7813 810.4844,218.75 810.0313,218.75 L809.6406,218.75 L810.0313,217.7656 L814.0781,217.7656 Z M813.375,216.0625 L810.7031,216.0625 L812.0469,212.7969 L813.375,216.0625 Z " fill="#000000"/><text fill="#000000" font-family="sans-serif" font-size="12" font-style="italic" lengthAdjust="spacingAndGlyphs" textLength="74" x="861" y="206.1387">usantatecla.</text><text fill="#000000" font-family="sans-serif" font-size="12" font-style="italic" lengthAdjust="spacingAndGlyphs" textLength="144" x="826" y="220.1074">mastermind.controllers.</text><text fill="#000000" font-family="sans-serif" font-size="12" font-style="italic" lengthAdjust="spacingAndGlyphs" textLength="58" x="869" y="234.0762">Controller</text><line style="stroke:#A80036;stroke-width:1.5;" x1="798" x2="972" y1="241.9063" y2="241.9063"/><line style="stroke:#A80036;stroke-width:1.5;" x1="798" x2="972" y1="249.9063" y2="249.9063"/><!--MD5=[f77977e4d8b9d032efd72e44c024e507]
reverse link usantatecla.mastermind.Mastermind to usantatecla.mastermind.ConsoleMastermind--><path codeLine="12" d="M230.224,138.665 C206.789,154.835 181.639,172.189 160.282,186.925 " fill="none" id="usantatecla.mastermind.Mastermind-backto-usantatecla.mastermind.ConsoleMastermind" style="stroke:#A80036;stroke-width:1.0;"/><polygon fill="none" points="226.47,132.751,246.907,127.154,234.421,144.275,226.47,132.751" style="stroke:#A80036;stroke-width:1.0;"/><!--MD5=[86660d01f18f2f4aaa6ae1176c50cf28]
link usantatecla.mastermind.ConsoleMastermind to ConsoleView--><path codeLine="13" d="M106.594,261.277 C105.94,278.161 105.161,298.2584 104.495,315.4195 " fill="none" id="usantatecla.mastermind.ConsoleMastermind-to-ConsoleView" style="stroke:#A80036;stroke-width:1.0;stroke-dasharray:7.0,7.0;"/><polygon fill="#A80036" points="104.293,320.6443,108.6387,311.806,104.4867,315.6481,100.6447,311.4961,104.293,320.6443" style="stroke:#A80036;stroke-width:1.0;"/><!--MD5=[75be7b6274e25c7c9339f824ef8f543e]
reverse link usantatecla.mastermind.Mastermind to usantatecla.mastermind.GraphicsMastermind--><path codeLine="19" d="M302.596,147.145 C301.419,160.677 300.212,174.564 299.157,186.697 " fill="none" id="usantatecla.mastermind.Mastermind-backto-usantatecla.mastermind.GraphicsMastermind" style="stroke:#A80036;stroke-width:1.0;"/><polygon fill="none" points="295.628,146.473,304.334,127.154,309.575,147.686,295.628,146.473" style="stroke:#A80036;stroke-width:1.0;"/><!--MD5=[0a501c15156d4559f00f932bd01623b3]
link usantatecla.mastermind.GraphicsMastermind to GraphicsView--><path codeLine="20" d="M297.406,261.277 C298.06,278.161 298.839,298.2584 299.505,315.4195 " fill="none" id="usantatecla.mastermind.GraphicsMastermind-to-GraphicsView" style="stroke:#A80036;stroke-width:1.0;stroke-dasharray:7.0,7.0;"/><polygon fill="#A80036" points="299.707,320.6443,303.3553,311.4961,299.5133,315.6481,295.3613,311.806,299.707,320.6443" style="stroke:#A80036;stroke-width:1.0;"/><!--MD5=[a5f8ce13268a0ab6e1eb93d1cfb2a7ef]
link usantatecla.mastermind.Mastermind to View--><path codeLine="27" d="M370.2268,134.6373 C370.2268,134.6373 410.812,167.012 429.032,181.545 " fill="none" id="usantatecla.mastermind.Mastermind-View" style="stroke:#A80036;stroke-width:1.0;"/><polygon fill="#A80036" points="439.445,189.852,434.9038,181.1126,435.5363,186.734,429.9149,187.3665,439.445,189.852" style="stroke:#A80036;stroke-width:1.0;"/><line style="stroke:#A80036;stroke-width:1.0;" x1="435.5363" x2="429.2825" y1="186.734" y2="181.746"/><polygon fill="#A80036" points="360.846,127.154,363.042,134.0226,370.2268,134.6373,368.0309,127.7687,360.846,127.154" style="stroke:#A80036;stroke-width:1.0;"/><!--MD5=[247e47791acc2ed78b9d73006ffb100f]
link usantatecla.mastermind.Mastermind to Logic--><path codeLine="28" d="M385.268,114.055 C385.268,114.055 515.86,163.16 575.293,185.508 " fill="none" id="usantatecla.mastermind.Mastermind-Logic" style="stroke:#A80036;stroke-width:1.0;"/><polygon fill="#A80036" points="587.736,190.187,580.7198,183.2753,583.0559,188.4272,577.904,190.7634,587.736,190.187" style="stroke:#A80036;stroke-width:1.0;"/><line style="stroke:#A80036;stroke-width:1.0;" x1="583.0559" x2="575.5675" y1="188.4272" y2="185.611"/><polygon fill="#A80036" points="374.036,109.831,378.244,115.687,385.268,114.055,381.06,108.199,374.036,109.831" style="stroke:#A80036;stroke-width:1.0;"/><!--MD5=[dc4dcb436adb9fc20d728b0453ad3dc6]
link usantatecla.mastermind.Mastermind to Controller--><path codeLine="29" d="M374.264,96.774 C466.136,113.673 637.048,147.196 780,187 C783.851,188.072 787.767,189.207 791.712,190.387 " fill="none" id="usantatecla.mastermind.Mastermind-to-Controller" style="stroke:#A80036;stroke-width:1.0;stroke-dasharray:7.0,7.0;"/><polygon fill="#A80036" points="796.723,191.905,789.2701,185.4665,791.9379,190.4548,786.9497,193.1226,796.723,191.905" style="stroke:#A80036;stroke-width:1.0;"/><!--MD5=[486df0e0979a39bfda2eaa7c0bff32c8]
@startuml
class View as "usantatecla.\nmastermind.views.\nView"
class ConsoleView as "usantatecla.\nmastermind.views.\nconsole.ConsoleView"
class GraphicsView as "usantatecla.\nmastermind.views.\nconsole.GraphicsView"
class Logic as "usantatecla.\nmastermind.controllers.\nLogic"
abstract class Controller as "usantatecla.\nmastermind.controllers.\nController"


class  usantatecla.mastermind.ConsoleMastermind{
    + {static} main(String[])
    # createView(): View
}
usantatecla.mastermind.Mastermind <|-down- usantatecla.mastermind.ConsoleMastermind
usantatecla.mastermind.ConsoleMastermind .down.> ConsoleView

class  usantatecla.mastermind.GraphicsMastermind{
    + {static} main(String[])
    # createView(): View
}
usantatecla.mastermind.Mastermind <|-down- usantatecla.mastermind.GraphicsMastermind
usantatecla.mastermind.GraphicsMastermind .down.> GraphicsView

abstract class  usantatecla.mastermind.Mastermind{
    # Mastermind()
    # {abstract} createView(): View
    # play()
}
usantatecla.mastermind.Mastermind *-down-> View
usantatecla.mastermind.Mastermind *-down-> Logic
usantatecla.mastermind.Mastermind .down.> Controller
@enduml

PlantUML version 1.2020.23beta3(Unknown compile time)
(GPL source distribution)
Java Runtime: Java(TM) SE Runtime Environment
JVM: Java HotSpot(TM) 64-Bit Server VM
Default Encoding: UTF-8
Language: en
Country: US
--></g></svg>