<?xml version="1.0" encoding="UTF-8" standalone="no"?><svg xmlns="http://www.w3.org/2000/svg" xmlns:xlink="http://www.w3.org/1999/xlink" contentScriptType="application/ecmascript" contentStyleType="text/css" height="702px" preserveAspectRatio="none" style="width:781px;height:702px;" version="1.1" viewBox="0 0 781 702" width="781px" zoomAndPan="magnify"><defs><filter height="300%" id="fx35lbe2uw2ud" width="300%" x="-1" y="-1"><feGaussianBlur result="blurOut" stdDeviation="2.0"/><feColorMatrix in="blurOut" result="blurOut2" type="matrix" values="0 0 0 0 0 0 0 0 0 0 0 0 0 0 0 0 0 0 .4 0"/><feOffset dx="4.0" dy="4.0" in="blurOut2" result="blurOut3"/><feBlend in="SourceGraphic" in2="blurOut3" mode="normal"/></filter></defs><g><!--MD5=[073ce8cb2fd2a0b2556785fe35fbd544]
cluster usantatecla.mastermind.models--><polygon fill="#FFFFFF" filter="url(#fx35lbe2uw2ud)" points="16,6,286,6,293,28.2969,734,28.2969,734,577,16,577,16,6" style="stroke:#000000;stroke-width:1.5;"/><line style="stroke:#000000;stroke-width:1.5;" x1="16" x2="293" y1="28.2969" y2="28.2969"/><text fill="#000000" font-family="sans-serif" font-size="14" font-weight="bold" lengthAdjust="spacingAndGlyphs" textLength="264" x="20" y="20.9951">usantatecla.mastermind.models</text><!--MD5=[fb9f5a10625edc9f9448ff88fc48054a]
class usantatecla.mastermind.models.State--><rect codeLine="3" fill="#FEFECE" filter="url(#fx35lbe2uw2ud)" height="112.0234" id="usantatecla.mastermind.models.State" style="stroke:#A80036;stroke-width:1.5;" width="188" x="530" y="73"/><ellipse cx="604.25" cy="89" fill="#ADD1B2" rx="11" ry="11" style="stroke:#A80036;stroke-width:1.0;"/><path d="M606.5938,84.6719 C605.6563,84.2344 605.0625,84.0938 604.1875,84.0938 C601.5625,84.0938 599.5625,86.1719 599.5625,88.8906 L599.5625,90.0156 C599.5625,92.5938 601.6719,94.4844 604.5625,94.4844 C605.7813,94.4844 606.9375,94.1875 607.6875,93.6406 C608.2656,93.2344 608.5938,92.7813 608.5938,92.3906 C608.5938,91.9375 608.2031,91.5469 607.7344,91.5469 C607.5156,91.5469 607.3125,91.625 607.125,91.8125 C606.6719,92.2969 606.6719,92.2969 606.4844,92.3906 C606.0625,92.6563 605.375,92.7813 604.6094,92.7813 C602.5625,92.7813 601.2656,91.6875 601.2656,89.9844 L601.2656,88.8906 C601.2656,87.1094 602.5156,85.7969 604.25,85.7969 C604.8281,85.7969 605.4375,85.9531 605.9063,86.2031 C606.3906,86.4844 606.5625,86.7031 606.6563,87.1094 C606.7188,87.5156 606.75,87.6406 606.8906,87.7656 C607.0313,87.9063 607.2656,88.0156 607.4844,88.0156 C607.75,88.0156 608.0156,87.875 608.1875,87.6563 C608.2969,87.5 608.3281,87.3125 608.3281,86.8906 L608.3281,85.4688 C608.3281,85.0313 608.3125,84.9063 608.2188,84.75 C608.0625,84.4844 607.7813,84.3438 607.4844,84.3438 C607.1875,84.3438 606.9844,84.4375 606.7656,84.75 L606.5938,84.6719 Z " fill="#000000"/><text fill="#000000" font-family="sans-serif" font-size="12" lengthAdjust="spacingAndGlyphs" textLength="31" x="624.75" y="93.1543">State</text><line style="stroke:#A80036;stroke-width:1.5;" x1="531" x2="717" y1="105" y2="105"/><rect fill="none" height="6" style="stroke:#C82930;stroke-width:1.0;" width="6" x="538" y="113"/><text fill="#000000" font-family="sans-serif" font-size="11" lengthAdjust="spacingAndGlyphs" textLength="133" x="550" y="119.2104">stateValue: StateValue</text><line style="stroke:#A80036;stroke-width:1.5;" x1="531" x2="717" y1="125.8047" y2="125.8047"/><ellipse cx="541" cy="136.8047" fill="#84BE84" rx="3" ry="3" style="stroke:#038048;stroke-width:1.0;"/><text fill="#000000" font-family="sans-serif" font-size="11" lengthAdjust="spacingAndGlyphs" textLength="37" x="550" y="140.0151">state()</text><ellipse cx="541" cy="149.6094" fill="#84BE84" rx="3" ry="3" style="stroke:#038048;stroke-width:1.0;"/><text fill="#000000" font-family="sans-serif" font-size="11" lengthAdjust="spacingAndGlyphs" textLength="34" x="550" y="152.8198">next()</text><ellipse cx="541" cy="162.4141" fill="#84BE84" rx="3" ry="3" style="stroke:#038048;stroke-width:1.0;"/><text fill="#000000" font-family="sans-serif" font-size="11" lengthAdjust="spacingAndGlyphs" textLength="38" x="550" y="165.6245">reset()</text><ellipse cx="541" cy="175.2188" fill="#84BE84" rx="3" ry="3" style="stroke:#038048;stroke-width:1.0;"/><text fill="#000000" font-family="sans-serif" font-size="11" lengthAdjust="spacingAndGlyphs" textLength="162" x="550" y="178.4292">getValueState(): StateValue</text><!--MD5=[d053cbc18720e45a198f4fc3b35f8a19]
class usantatecla.mastermind.models.StateValue--><rect codeLine="12" fill="#FEFECE" filter="url(#fx35lbe2uw2ud)" height="99.2188" id="usantatecla.mastermind.models.StateValue" style="stroke:#A80036;stroke-width:1.5;" width="96" x="583" y="277"/><ellipse cx="598" cy="293" fill="#EB937F" rx="11" ry="11" style="stroke:#A80036;stroke-width:1.0;"/><path d="M596.7969,293.875 L598.25,293.875 L598.25,293.9844 C598.25,294.3906 598.2813,294.5469 598.3594,294.7031 C598.5156,294.9531 598.7969,295.1094 599.0938,295.1094 C599.3438,295.1094 599.6094,294.9688 599.7656,294.75 C599.8906,294.5938 599.9219,294.4375 599.9219,293.9844 L599.9219,292.0625 C599.9219,291.9063 599.9219,291.8594 599.9063,291.7031 C599.8438,291.2344 599.5313,290.9219 599.0781,290.9219 C598.8281,290.9219 598.5625,291.0625 598.3906,291.2813 C598.2813,291.4531 598.25,291.6094 598.25,292.0625 L598.25,292.1875 L596.7969,292.1875 L596.7969,289.7813 L600.7813,289.7813 L600.7813,290.6406 C600.7813,291.0469 600.8125,291.2188 600.8906,291.375 C601.0625,291.625 601.3438,291.7813 601.625,291.7813 C601.8906,291.7813 602.1563,291.6406 602.3281,291.4219 C602.4375,291.25 602.4688,291.1094 602.4688,290.6406 L602.4688,288.0938 L594.8438,288.0938 C594.4063,288.0938 594.2813,288.1094 594.125,288.2031 C593.875,288.3594 593.7188,288.6563 593.7188,288.9375 C593.7188,289.2188 593.8594,289.4688 594.0781,289.6406 C594.2344,289.75 594.4219,289.7813 594.8438,289.7813 L595.0938,289.7813 L595.0938,296.2969 L594.8438,296.2969 C594.4375,296.2969 594.2813,296.3125 594.125,296.4219 C593.875,296.5938 593.7188,296.8594 593.7188,297.1563 C593.7188,297.4219 593.8594,297.6719 594.0781,297.8281 C594.2188,297.9531 594.4531,298 594.8438,298 L602.8438,298 L602.8438,295.4219 C602.8438,294.9844 602.8125,294.8438 602.7344,294.6875 C602.5625,294.4375 602.2813,294.2813 602,294.2813 C601.7344,294.2813 601.4688,294.3906 601.2969,294.6406 C601.1875,294.7969 601.1563,294.9375 601.1563,295.4219 L601.1563,296.2969 L596.7969,296.2969 L596.7969,293.875 Z " fill="#000000"/><text fill="#000000" font-family="sans-serif" font-size="12" lengthAdjust="spacingAndGlyphs" textLength="64" x="612" y="297.1543">StateValue</text><line style="stroke:#A80036;stroke-width:1.5;" x1="584" x2="678" y1="309" y2="309"/><ellipse cx="594" cy="320" fill="none" rx="3" ry="3" style="stroke:#038048;stroke-width:1.0;"/><text fill="#000000" font-family="sans-serif" font-size="11" lengthAdjust="spacingAndGlyphs" textLength="38" x="603" y="323.2104">INITIAL</text><ellipse cx="594" cy="332.8047" fill="none" rx="3" ry="3" style="stroke:#038048;stroke-width:1.0;"/><text fill="#000000" font-family="sans-serif" font-size="11" lengthAdjust="spacingAndGlyphs" textLength="50" x="603" y="336.0151">IN_GAME</text><ellipse cx="594" cy="345.6094" fill="none" rx="3" ry="3" style="stroke:#038048;stroke-width:1.0;"/><text fill="#000000" font-family="sans-serif" font-size="11" lengthAdjust="spacingAndGlyphs" textLength="31" x="603" y="348.8198">FINAL</text><ellipse cx="594" cy="358.4141" fill="none" rx="3" ry="3" style="stroke:#038048;stroke-width:1.0;"/><text fill="#000000" font-family="sans-serif" font-size="11" lengthAdjust="spacingAndGlyphs" textLength="25" x="603" y="361.6245">EXIT</text><line style="stroke:#A80036;stroke-width:1.5;" x1="584" x2="678" y1="368.2188" y2="368.2188"/><!--MD5=[9e09d6096b99d1406435ac08840c9240]
class usantatecla.mastermind.models.Combination--><rect codeLine="19" fill="#FEFECE" filter="url(#fx35lbe2uw2ud)" height="86.4141" id="usantatecla.mastermind.models.Combination" style="stroke:#A80036;stroke-width:1.5;" width="108" x="387" y="86"/><ellipse cx="402" cy="102" fill="#A9DCDF" rx="11" ry="11" style="stroke:#A80036;stroke-width:1.0;"/><path d="M404.0781,103.8125 L404.4688,104.7969 L404.0781,104.7969 C403.625,104.7969 403.5156,104.8125 403.3594,104.9219 C403.1094,105.0781 402.9531,105.3594 402.9531,105.6563 C402.9531,105.9219 403.0938,106.1719 403.3125,106.3281 C403.4531,106.4531 403.6563,106.5 404.0781,106.5 L406.4375,106.5 C406.7969,106.5 407.0156,106.4688 407.1563,106.375 C407.4063,106.2344 407.5625,105.9375 407.5625,105.6563 C407.5625,105.375 407.4219,105.125 407.2031,104.9688 C407.0313,104.8281 406.875,104.7969 406.4063,104.7969 L403.0156,96.5938 L399.3438,96.5938 C398.8906,96.5938 398.7656,96.6094 398.6094,96.7031 C398.3594,96.875 398.2031,97.1563 398.2031,97.4375 C398.2031,97.7188 398.3438,97.9688 398.5625,98.1406 C398.7344,98.25 398.9063,98.2813 399.3438,98.2813 L400.4219,98.2813 L397.7813,104.7969 C397.3594,104.7969 397.2031,104.8125 397.0469,104.9219 C396.7969,105.0781 396.6406,105.3594 396.6406,105.6563 C396.6406,106.2188 397.0156,106.5 397.7656,106.5 L400.0313,106.5 C400.3906,106.5 400.6094,106.4688 400.7344,106.375 C401,106.2344 401.1406,105.9375 401.1406,105.6563 C401.1406,105.375 401.0156,105.125 400.7969,104.9531 C400.625,104.8281 400.4844,104.7969 400.0313,104.7969 L399.6406,104.7969 L400.0313,103.8125 L404.0781,103.8125 Z M403.375,102.1094 L400.7031,102.1094 L402.0469,98.8438 L403.375,102.1094 Z " fill="#000000"/><text fill="#000000" font-family="sans-serif" font-size="12" font-style="italic" lengthAdjust="spacingAndGlyphs" textLength="76" x="416" y="106.1543">Combination</text><line style="stroke:#A80036;stroke-width:1.5;" x1="388" x2="494" y1="118" y2="118"/><rect fill="none" height="6" style="stroke:#C82930;stroke-width:1.0;" width="6" x="395" y="126"/><text fill="#000000" font-family="sans-serif" font-size="11" lengthAdjust="spacingAndGlyphs" text-decoration="underline" textLength="59" x="407" y="132.2104">WIDTH: int</text><line style="stroke:#A80036;stroke-width:1.5;" x1="388" x2="494" y1="138.8047" y2="138.8047"/><polygon fill="#FFFF44" points="398,144.8047,402,148.8047,398,152.8047,394,148.8047" style="stroke:#B38D22;stroke-width:1.0;"/><text fill="#000000" font-family="sans-serif" font-size="11" lengthAdjust="spacingAndGlyphs" textLength="79" x="407" y="153.0151">Combination()</text><ellipse cx="398" cy="162.6094" fill="#84BE84" rx="3" ry="3" style="stroke:#038048;stroke-width:1.0;"/><text fill="#000000" font-family="sans-serif" font-size="11" lengthAdjust="spacingAndGlyphs" text-decoration="underline" textLength="80" x="407" y="165.8198">getWidth(): int</text><!--MD5=[133b2a20d5a8d4980692cee85e8c0684]
class usantatecla.mastermind.models.Game--><rect codeLine="26" fill="#FEFECE" filter="url(#fx35lbe2uw2ud)" height="176.0469" id="usantatecla.mastermind.models.Game" style="stroke:#A80036;stroke-width:1.5;" width="320" x="32" y="41"/><ellipse cx="170.25" cy="57" fill="#ADD1B2" rx="11" ry="11" style="stroke:#A80036;stroke-width:1.0;"/><path d="M172.5938,52.6719 C171.6563,52.2344 171.0625,52.0938 170.1875,52.0938 C167.5625,52.0938 165.5625,54.1719 165.5625,56.8906 L165.5625,58.0156 C165.5625,60.5938 167.6719,62.4844 170.5625,62.4844 C171.7813,62.4844 172.9375,62.1875 173.6875,61.6406 C174.2656,61.2344 174.5938,60.7813 174.5938,60.3906 C174.5938,59.9375 174.2031,59.5469 173.7344,59.5469 C173.5156,59.5469 173.3125,59.625 173.125,59.8125 C172.6719,60.2969 172.6719,60.2969 172.4844,60.3906 C172.0625,60.6563 171.375,60.7813 170.6094,60.7813 C168.5625,60.7813 167.2656,59.6875 167.2656,57.9844 L167.2656,56.8906 C167.2656,55.1094 168.5156,53.7969 170.25,53.7969 C170.8281,53.7969 171.4375,53.9531 171.9063,54.2031 C172.3906,54.4844 172.5625,54.7031 172.6563,55.1094 C172.7188,55.5156 172.75,55.6406 172.8906,55.7656 C173.0313,55.9063 173.2656,56.0156 173.4844,56.0156 C173.75,56.0156 174.0156,55.875 174.1875,55.6563 C174.2969,55.5 174.3281,55.3125 174.3281,54.8906 L174.3281,53.4688 C174.3281,53.0313 174.3125,52.9063 174.2188,52.75 C174.0625,52.4844 173.7813,52.3438 173.4844,52.3438 C173.1875,52.3438 172.9844,52.4375 172.7656,52.75 L172.5938,52.6719 Z " fill="#000000"/><text fill="#000000" font-family="sans-serif" font-size="12" lengthAdjust="spacingAndGlyphs" textLength="35" x="190.75" y="61.1543">Game</text><line style="stroke:#A80036;stroke-width:1.5;" x1="33" x2="351" y1="73" y2="73"/><rect fill="none" height="6" style="stroke:#C82930;stroke-width:1.0;" width="6" x="40" y="81"/><text fill="#000000" font-family="sans-serif" font-size="11" lengthAdjust="spacingAndGlyphs" text-decoration="underline" textLength="84" x="52" y="87.2104">MAX_LONG: int</text><rect fill="none" height="6" style="stroke:#C82930;stroke-width:1.0;" width="6" x="40" y="93.8047"/><text fill="#000000" font-family="sans-serif" font-size="11" lengthAdjust="spacingAndGlyphs" textLength="72" x="52" y="100.0151">attempts: int</text><line style="stroke:#A80036;stroke-width:1.5;" x1="33" x2="351" y1="106.6094" y2="106.6094"/><ellipse cx="43" cy="117.6094" fill="#84BE84" rx="3" ry="3" style="stroke:#038048;stroke-width:1.0;"/><text fill="#000000" font-family="sans-serif" font-size="11" lengthAdjust="spacingAndGlyphs" textLength="43" x="52" y="120.8198">Game()</text><ellipse cx="43" cy="130.4141" fill="#84BE84" rx="3" ry="3" style="stroke:#038048;stroke-width:1.0;"/><text fill="#000000" font-family="sans-serif" font-size="11" lengthAdjust="spacingAndGlyphs" textLength="36" x="52" y="133.6245">clear()</text><ellipse cx="43" cy="143.2188" fill="#84BE84" rx="3" ry="3" style="stroke:#038048;stroke-width:1.0;"/><text fill="#000000" font-family="sans-serif" font-size="11" lengthAdjust="spacingAndGlyphs" textLength="268" x="52" y="146.4292">addProposeCombination(ProposedCombination)</text><ellipse cx="43" cy="156.0234" fill="#84BE84" rx="3" ry="3" style="stroke:#038048;stroke-width:1.0;"/><text fill="#000000" font-family="sans-serif" font-size="11" lengthAdjust="spacingAndGlyphs" textLength="108" x="52" y="159.2339">isLooser(): boolean</text><ellipse cx="43" cy="168.8281" fill="#84BE84" rx="3" ry="3" style="stroke:#038048;stroke-width:1.0;"/><text fill="#000000" font-family="sans-serif" font-size="11" lengthAdjust="spacingAndGlyphs" textLength="110" x="52" y="172.0386">isWinner(): boolean</text><ellipse cx="43" cy="181.6328" fill="#84BE84" rx="3" ry="3" style="stroke:#038048;stroke-width:1.0;"/><text fill="#000000" font-family="sans-serif" font-size="11" lengthAdjust="spacingAndGlyphs" textLength="100" x="52" y="184.8433">getAttempts(): int</text><ellipse cx="43" cy="194.4375" fill="#84BE84" rx="3" ry="3" style="stroke:#038048;stroke-width:1.0;"/><text fill="#000000" font-family="sans-serif" font-size="11" lengthAdjust="spacingAndGlyphs" textLength="294" x="52" y="197.6479">getProposedCombination(int): ProposedCombination</text><ellipse cx="43" cy="207.2422" fill="#84BE84" rx="3" ry="3" style="stroke:#038048;stroke-width:1.0;"/><text fill="#000000" font-family="sans-serif" font-size="11" lengthAdjust="spacingAndGlyphs" textLength="118" x="52" y="210.4526">getResult(int): Result</text><!--MD5=[a212aeeb69ab78e602f8fa1f3e5ba19f]
class usantatecla.mastermind.models.SecretCombination--><rect codeLine="50" fill="#FEFECE" filter="url(#fx35lbe2uw2ud)" height="73.6094" id="usantatecla.mastermind.models.SecretCombination" style="stroke:#A80036;stroke-width:1.5;" width="253" x="257.5" y="289.5"/><ellipse cx="322.75" cy="305.5" fill="#ADD1B2" rx="11" ry="11" style="stroke:#A80036;stroke-width:1.0;"/><path d="M325.0938,301.1719 C324.1563,300.7344 323.5625,300.5938 322.6875,300.5938 C320.0625,300.5938 318.0625,302.6719 318.0625,305.3906 L318.0625,306.5156 C318.0625,309.0938 320.1719,310.9844 323.0625,310.9844 C324.2813,310.9844 325.4375,310.6875 326.1875,310.1406 C326.7656,309.7344 327.0938,309.2813 327.0938,308.8906 C327.0938,308.4375 326.7031,308.0469 326.2344,308.0469 C326.0156,308.0469 325.8125,308.125 325.625,308.3125 C325.1719,308.7969 325.1719,308.7969 324.9844,308.8906 C324.5625,309.1563 323.875,309.2813 323.1094,309.2813 C321.0625,309.2813 319.7656,308.1875 319.7656,306.4844 L319.7656,305.3906 C319.7656,303.6094 321.0156,302.2969 322.75,302.2969 C323.3281,302.2969 323.9375,302.4531 324.4063,302.7031 C324.8906,302.9844 325.0625,303.2031 325.1563,303.6094 C325.2188,304.0156 325.25,304.1406 325.3906,304.2656 C325.5313,304.4063 325.7656,304.5156 325.9844,304.5156 C326.25,304.5156 326.5156,304.375 326.6875,304.1563 C326.7969,304 326.8281,303.8125 326.8281,303.3906 L326.8281,301.9688 C326.8281,301.5313 326.8125,301.4063 326.7188,301.25 C326.5625,300.9844 326.2813,300.8438 325.9844,300.8438 C325.6875,300.8438 325.4844,300.9375 325.2656,301.25 L325.0938,301.1719 Z " fill="#000000"/><text fill="#000000" font-family="sans-serif" font-size="12" lengthAdjust="spacingAndGlyphs" textLength="114" x="343.25" y="309.6543">SecretCombination</text><line style="stroke:#A80036;stroke-width:1.5;" x1="258.5" x2="509.5" y1="321.5" y2="321.5"/><line style="stroke:#A80036;stroke-width:1.5;" x1="258.5" x2="509.5" y1="329.5" y2="329.5"/><polygon fill="#4177AF" points="268.5,336.5,264.5,342.5,272.5,342.5" style="stroke:#1963A0;stroke-width:1.0;"/><text fill="#000000" font-family="sans-serif" font-size="11" lengthAdjust="spacingAndGlyphs" textLength="117" x="277.5" y="343.7104">SecretCombination()</text><polygon fill="#4177AF" points="268.5,349.3047,264.5,355.3047,272.5,355.3047" style="stroke:#1963A0;stroke-width:1.0;"/><text fill="#000000" font-family="sans-serif" font-size="11" lengthAdjust="spacingAndGlyphs" textLength="227" x="277.5" y="356.5151">getResult(ProposedCombination): Result</text><!--MD5=[f33d10797af0f3b71126f0e937fc2775]
class usantatecla.mastermind.models.Result--><rect codeLine="59" fill="#FEFECE" filter="url(#fx35lbe2uw2ud)" height="124.8281" id="usantatecla.mastermind.models.Result" style="stroke:#A80036;stroke-width:1.5;" width="136" x="137" y="436"/><ellipse cx="182.75" cy="452" fill="#ADD1B2" rx="11" ry="11" style="stroke:#A80036;stroke-width:1.0;"/><path d="M185.0938,447.6719 C184.1563,447.2344 183.5625,447.0938 182.6875,447.0938 C180.0625,447.0938 178.0625,449.1719 178.0625,451.8906 L178.0625,453.0156 C178.0625,455.5938 180.1719,457.4844 183.0625,457.4844 C184.2813,457.4844 185.4375,457.1875 186.1875,456.6406 C186.7656,456.2344 187.0938,455.7813 187.0938,455.3906 C187.0938,454.9375 186.7031,454.5469 186.2344,454.5469 C186.0156,454.5469 185.8125,454.625 185.625,454.8125 C185.1719,455.2969 185.1719,455.2969 184.9844,455.3906 C184.5625,455.6563 183.875,455.7813 183.1094,455.7813 C181.0625,455.7813 179.7656,454.6875 179.7656,452.9844 L179.7656,451.8906 C179.7656,450.1094 181.0156,448.7969 182.75,448.7969 C183.3281,448.7969 183.9375,448.9531 184.4063,449.2031 C184.8906,449.4844 185.0625,449.7031 185.1563,450.1094 C185.2188,450.5156 185.25,450.6406 185.3906,450.7656 C185.5313,450.9063 185.7656,451.0156 185.9844,451.0156 C186.25,451.0156 186.5156,450.875 186.6875,450.6563 C186.7969,450.5 186.8281,450.3125 186.8281,449.8906 L186.8281,448.4688 C186.8281,448.0313 186.8125,447.9063 186.7188,447.75 C186.5625,447.4844 186.2813,447.3438 185.9844,447.3438 C185.6875,447.3438 185.4844,447.4375 185.2656,447.75 L185.0938,447.6719 Z " fill="#000000"/><text fill="#000000" font-family="sans-serif" font-size="12" lengthAdjust="spacingAndGlyphs" textLength="36" x="203.25" y="456.1543">Result</text><line style="stroke:#A80036;stroke-width:1.5;" x1="138" x2="272" y1="468" y2="468"/><rect fill="none" height="6" style="stroke:#C82930;stroke-width:1.0;" width="6" x="145" y="476"/><text fill="#000000" font-family="sans-serif" font-size="11" lengthAdjust="spacingAndGlyphs" textLength="56" x="157" y="482.2104">blacks: int</text><rect fill="none" height="6" style="stroke:#C82930;stroke-width:1.0;" width="6" x="145" y="488.8047"/><text fill="#000000" font-family="sans-serif" font-size="11" lengthAdjust="spacingAndGlyphs" textLength="58" x="157" y="495.0151">whites: int</text><line style="stroke:#A80036;stroke-width:1.5;" x1="138" x2="272" y1="501.6094" y2="501.6094"/><polygon fill="#4177AF" points="148,508.6094,144,514.6094,152,514.6094" style="stroke:#1963A0;stroke-width:1.0;"/><text fill="#000000" font-family="sans-serif" font-size="11" lengthAdjust="spacingAndGlyphs" textLength="78" x="157" y="515.8198">Result(int, int)</text><polygon fill="#4177AF" points="148,521.4141,144,527.4141,152,527.4141" style="stroke:#1963A0;stroke-width:1.0;"/><text fill="#000000" font-family="sans-serif" font-size="11" lengthAdjust="spacingAndGlyphs" textLength="110" x="157" y="528.6245">isWinner(): boolean</text><ellipse cx="148" cy="538.2188" fill="#84BE84" rx="3" ry="3" style="stroke:#038048;stroke-width:1.0;"/><text fill="#000000" font-family="sans-serif" font-size="11" lengthAdjust="spacingAndGlyphs" textLength="84" x="157" y="541.4292">getBlacks(): int</text><ellipse cx="148" cy="551.0234" fill="#84BE84" rx="3" ry="3" style="stroke:#038048;stroke-width:1.0;"/><text fill="#000000" font-family="sans-serif" font-size="11" lengthAdjust="spacingAndGlyphs" textLength="87" x="157" y="554.2339">getWhites(): int</text><!--MD5=[29c0d014c840bf5e3383a02197df5a5a]
class usantatecla.mastermind.models.ProposedCombination--><rect codeLine="42" fill="#FEFECE" filter="url(#fx35lbe2uw2ud)" height="86.4141" id="usantatecla.mastermind.models.ProposedCombination" style="stroke:#A80036;stroke-width:1.5;" width="184" x="308" y="455.5"/><ellipse cx="332" cy="471.5" fill="#ADD1B2" rx="11" ry="11" style="stroke:#A80036;stroke-width:1.0;"/><path d="M334.3438,467.1719 C333.4063,466.7344 332.8125,466.5938 331.9375,466.5938 C329.3125,466.5938 327.3125,468.6719 327.3125,471.3906 L327.3125,472.5156 C327.3125,475.0938 329.4219,476.9844 332.3125,476.9844 C333.5313,476.9844 334.6875,476.6875 335.4375,476.1406 C336.0156,475.7344 336.3438,475.2813 336.3438,474.8906 C336.3438,474.4375 335.9531,474.0469 335.4844,474.0469 C335.2656,474.0469 335.0625,474.125 334.875,474.3125 C334.4219,474.7969 334.4219,474.7969 334.2344,474.8906 C333.8125,475.1563 333.125,475.2813 332.3594,475.2813 C330.3125,475.2813 329.0156,474.1875 329.0156,472.4844 L329.0156,471.3906 C329.0156,469.6094 330.2656,468.2969 332,468.2969 C332.5781,468.2969 333.1875,468.4531 333.6563,468.7031 C334.1406,468.9844 334.3125,469.2031 334.4063,469.6094 C334.4688,470.0156 334.5,470.1406 334.6406,470.2656 C334.7813,470.4063 335.0156,470.5156 335.2344,470.5156 C335.5,470.5156 335.7656,470.375 335.9375,470.1563 C336.0469,470 336.0781,469.8125 336.0781,469.3906 L336.0781,467.9688 C336.0781,467.5313 336.0625,467.4063 335.9688,467.25 C335.8125,466.9844 335.5313,466.8438 335.2344,466.8438 C334.9375,466.8438 334.7344,466.9375 334.5156,467.25 L334.3438,467.1719 Z " fill="#000000"/><text fill="#000000" font-family="sans-serif" font-size="12" lengthAdjust="spacingAndGlyphs" textLength="132" x="348" y="475.6543">ProposedCombination</text><line style="stroke:#A80036;stroke-width:1.5;" x1="309" x2="491" y1="487.5" y2="487.5"/><line style="stroke:#A80036;stroke-width:1.5;" x1="309" x2="491" y1="495.5" y2="495.5"/><polygon fill="#4177AF" points="319,502.5,315,508.5,323,508.5" style="stroke:#1963A0;stroke-width:1.0;"/><text fill="#000000" font-family="sans-serif" font-size="11" lengthAdjust="spacingAndGlyphs" textLength="158" x="328" y="509.7104">contains(Color, int): boolean</text><polygon fill="#4177AF" points="319,515.3047,315,521.3047,323,521.3047" style="stroke:#1963A0;stroke-width:1.0;"/><text fill="#000000" font-family="sans-serif" font-size="11" lengthAdjust="spacingAndGlyphs" textLength="137" x="328" y="522.5151">contains(Color): boolean</text><ellipse cx="319" cy="532.1094" fill="#84BE84" rx="3" ry="3" style="stroke:#038048;stroke-width:1.0;"/><text fill="#000000" font-family="sans-serif" font-size="11" lengthAdjust="spacingAndGlyphs" textLength="135" x="328" y="535.3198">getColors(): List&lt;Color&gt;</text><!--MD5=[18eee71c88ab61f27581b8cbdd3ef5ee]
class Color--><rect codeLine="1" fill="#FEFECE" filter="url(#fx35lbe2uw2ud)" height="67.9063" id="Color" style="stroke:#A80036;stroke-width:1.5;" width="143" x="473.5" y="621"/><ellipse cx="488.5" cy="646.9531" fill="#EB937F" rx="11" ry="11" style="stroke:#A80036;stroke-width:1.0;"/><path d="M487.2969,647.8281 L488.75,647.8281 L488.75,647.9375 C488.75,648.3438 488.7813,648.5 488.8594,648.6563 C489.0156,648.9063 489.2969,649.0625 489.5938,649.0625 C489.8438,649.0625 490.1094,648.9219 490.2656,648.7031 C490.3906,648.5469 490.4219,648.3906 490.4219,647.9375 L490.4219,646.0156 C490.4219,645.8594 490.4219,645.8125 490.4063,645.6563 C490.3438,645.1875 490.0313,644.875 489.5781,644.875 C489.3281,644.875 489.0625,645.0156 488.8906,645.2344 C488.7813,645.4063 488.75,645.5625 488.75,646.0156 L488.75,646.1406 L487.2969,646.1406 L487.2969,643.7344 L491.2813,643.7344 L491.2813,644.5938 C491.2813,645 491.3125,645.1719 491.3906,645.3281 C491.5625,645.5781 491.8438,645.7344 492.125,645.7344 C492.3906,645.7344 492.6563,645.5938 492.8281,645.375 C492.9375,645.2031 492.9688,645.0625 492.9688,644.5938 L492.9688,642.0469 L485.3438,642.0469 C484.9063,642.0469 484.7813,642.0625 484.625,642.1563 C484.375,642.3125 484.2188,642.6094 484.2188,642.8906 C484.2188,643.1719 484.3594,643.4219 484.5781,643.5938 C484.7344,643.7031 484.9219,643.7344 485.3438,643.7344 L485.5938,643.7344 L485.5938,650.25 L485.3438,650.25 C484.9375,650.25 484.7813,650.2656 484.625,650.375 C484.375,650.5469 484.2188,650.8125 484.2188,651.1094 C484.2188,651.375 484.3594,651.625 484.5781,651.7813 C484.7188,651.9063 484.9531,651.9531 485.3438,651.9531 L493.3438,651.9531 L493.3438,649.375 C493.3438,648.9375 493.3125,648.7969 493.2344,648.6406 C493.0625,648.3906 492.7813,648.2344 492.5,648.2344 C492.2344,648.2344 491.9688,648.3438 491.7969,648.5938 C491.6875,648.75 491.6563,648.8906 491.6563,649.375 L491.6563,650.25 L487.2969,650.25 L487.2969,647.8281 Z " fill="#000000"/><text fill="#000000" font-family="sans-serif" font-size="12" lengthAdjust="spacingAndGlyphs" textLength="71" x="522.5" y="637.1387">usantatecla.</text><text fill="#000000" font-family="sans-serif" font-size="12" lengthAdjust="spacingAndGlyphs" textLength="111" x="502.5" y="651.1074">mastermind.types.</text><text fill="#000000" font-family="sans-serif" font-size="12" lengthAdjust="spacingAndGlyphs" textLength="32" x="542" y="665.0762">Color</text><line style="stroke:#A80036;stroke-width:1.5;" x1="474.5" x2="615.5" y1="672.9063" y2="672.9063"/><line style="stroke:#A80036;stroke-width:1.5;" x1="474.5" x2="615.5" y1="680.9063" y2="680.9063"/><!--MD5=[9023905e33852f54aab14668064e9227]
link usantatecla.mastermind.models.State to usantatecla.mastermind.models.StateValue--><path codeLine="10" d="M626.4079,197.2313 C626.4079,197.2313 628.039,242.799 628.781,263.514 " fill="none" id="usantatecla.mastermind.models.State-usantatecla.mastermind.models.StateValue" style="stroke:#A80036;stroke-width:1.0;"/><polygon fill="#A80036" points="629.253,276.722,632.929,267.5849,629.0744,271.7252,624.9341,267.8706,629.253,276.722" style="stroke:#A80036;stroke-width:1.0;"/><line style="stroke:#A80036;stroke-width:1.0;" x1="629.0744" x2="628.788" y1="271.7252" y2="263.7305"/><polygon fill="#A80036" points="625.978,185.239,622.1955,191.3784,626.4079,197.2313,630.1904,191.0918,625.978,185.239" style="stroke:#A80036;stroke-width:1.0;"/><!--MD5=[7a35cd41e558152cf7fe37e82b6d55e9]
link usantatecla.mastermind.models.Combination to Color--><path codeLine="24" d="M475.0551,181.5903 C475.0551,181.5903 498.549,207.798 512,217 C583.342,265.805 646.174,207.084 697,277 C774.976,384.264 656.581,537.185 588.086,610.9427 " fill="none" id="usantatecla.mastermind.models.Combination-Color" style="stroke:#A80036;stroke-width:1.0;"/><polygon fill="#A80036" points="578.778,620.8118,587.8631,617.0091,582.2087,617.1744,582.0433,611.52,578.778,620.8118" style="stroke:#A80036;stroke-width:1.0;"/><line style="stroke:#A80036;stroke-width:1.0;" x1="582.2087" x2="587.697" y1="617.1744" y2="611.3546"/><polygon fill="#A80036" points="467.661,172.139,468.2076,179.3294,475.0551,181.5903,474.5085,174.4,467.661,172.139" style="stroke:#A80036;stroke-width:1.0;"/><text fill="#000000" font-family="sans-serif" font-size="13" lengthAdjust="spacingAndGlyphs" textLength="7" x="577.5497" y="609.9535">*</text><!--MD5=[12c828a60891e76557ccb918ce156a05]
link usantatecla.mastermind.models.Game to usantatecla.mastermind.models.SecretCombination--><path codeLine="38" d="M286.0211,225.7328 C286.0211,225.7328 323.366,263.76 339.123,279.805 " fill="none" id="usantatecla.mastermind.models.Game-usantatecla.mastermind.models.SecretCombination" style="stroke:#A80036;stroke-width:1.0;"/><polygon fill="#A80036" points="348.575,289.43,345.1225,280.2061,345.0715,285.8627,339.4149,285.8118,348.575,289.43" style="stroke:#A80036;stroke-width:1.0;"/><line style="stroke:#A80036;stroke-width:1.0;" x1="345.0715" x2="339.4665" y1="285.8627" y2="280.1545"/><polygon fill="#A80036" points="277.612,217.172,278.963,224.2554,286.0211,225.7328,284.6701,218.6493,277.612,217.172" style="stroke:#A80036;stroke-width:1.0;"/><!--MD5=[280ea308128396330f7bbc2193cef62d]
link usantatecla.mastermind.models.Game to usantatecla.mastermind.models.Result--><path codeLine="39" d="M176.6175,228.9431 C176.6175,228.9431 169.178,328.135 175,376 C176.875,391.418 180.042,407.699 183.634,423.159 " fill="none" id="usantatecla.mastermind.models.Game-usantatecla.mastermind.models.Result" style="stroke:#A80036;stroke-width:1.0;"/><polygon fill="#A80036" points="186.731,435.916,188.4946,426.2263,185.5513,431.0572,180.7205,428.1138,186.731,435.916" style="stroke:#A80036;stroke-width:1.0;"/><line style="stroke:#A80036;stroke-width:1.0;" x1="185.5513" x2="183.6635" y1="431.0572" y2="423.2825"/><polygon fill="#A80036" points="177.956,217.018,173.3117,222.5344,176.6175,228.9431,181.2618,223.4267,177.956,217.018" style="stroke:#A80036;stroke-width:1.0;"/><text fill="#000000" font-family="sans-serif" font-size="13" lengthAdjust="spacingAndGlyphs" textLength="23" x="160.289" y="424.897">0..*</text><!--MD5=[e6a772672154e2b4215389ae3fc2764d]
link usantatecla.mastermind.models.Game to usantatecla.mastermind.models.ProposedCombination--><path codeLine="40" d="M195.1325,229.1854 C195.1325,229.1854 213.033,332.7 240,376 C257.665,404.363 284.515,428.514 311.202,447.632 " fill="none" id="usantatecla.mastermind.models.Game-usantatecla.mastermind.models.ProposedCombination" style="stroke:#A80036;stroke-width:1.0;"/><polygon fill="#A80036" points="322.199,455.245,317.0762,446.8333,318.0881,452.3989,312.5225,453.4107,322.199,455.245" style="stroke:#A80036;stroke-width:1.0;"/><line style="stroke:#A80036;stroke-width:1.0;" x1="318.0881" x2="311.511" y1="452.3989" y2="447.845"/><polygon fill="#A80036" points="193.889,217.25,190.5323,223.6322,195.1325,229.1854,198.4892,222.8032,193.889,217.25" style="stroke:#A80036;stroke-width:1.0;"/><text fill="#000000" font-family="sans-serif" font-size="13" lengthAdjust="spacingAndGlyphs" textLength="23" x="285.5248" y="444.5185">0..*</text><!--MD5=[c8e3115d06e825a18a556418b72e64a9]
reverse link usantatecla.mastermind.models.Combination to usantatecla.mastermind.models.ProposedCombination--><path codeLine="47" d="M487.003,189.206 C520.211,239.563 554.869,313.449 528,376 C514.456,407.53 488.263,434.727 463.081,455.348 " fill="none" id="usantatecla.mastermind.models.Combination-backto-usantatecla.mastermind.models.ProposedCombination" style="stroke:#A80036;stroke-width:1.0;"/><polygon fill="none" points="481.025,192.867,475.421,172.432,492.546,184.912,481.025,192.867" style="stroke:#A80036;stroke-width:1.0;"/><!--MD5=[f29c4a14d129a58d848eec9cd947b4db]
link usantatecla.mastermind.models.ProposedCombination to Color--><path codeLine="48" d="M439.622,541.718 C461.737,565.282 489.03,594.3633 510.299,617.0251 " fill="none" id="usantatecla.mastermind.models.ProposedCombination-to-Color" style="stroke:#A80036;stroke-width:1.0;stroke-dasharray:7.0,7.0;"/><polygon fill="#A80036" points="513.927,620.8914,510.6863,611.591,510.506,617.245,504.852,617.0647,513.927,620.8914" style="stroke:#A80036;stroke-width:1.0;"/><!--MD5=[c1581850849ed6ede223799cd35a067f]
reverse link usantatecla.mastermind.models.Combination to usantatecla.mastermind.models.SecretCombination--><path codeLine="54" d="M422.93,191.978 C413.572,224.073 402.474,262.136 394.527,289.395 " fill="none" id="usantatecla.mastermind.models.Combination-backto-usantatecla.mastermind.models.SecretCombination" style="stroke:#A80036;stroke-width:1.0;"/><polygon fill="none" points="416.313,189.662,428.632,172.421,429.754,193.581,416.313,189.662" style="stroke:#A80036;stroke-width:1.0;"/><!--MD5=[37df5b907d636f1fcade6857244b0a7e]
link usantatecla.mastermind.models.SecretCombination to usantatecla.mastermind.models.Result--><path codeLine="55" d="M346.039,363.553 C325.095,383.443 298.439,408.759 273.952,432.014 " fill="none" id="usantatecla.mastermind.models.SecretCombination-to-usantatecla.mastermind.models.Result" style="stroke:#A80036;stroke-width:1.0;stroke-dasharray:7.0,7.0;"/><polygon fill="#A80036" points="270.042,435.728,279.3227,432.4314,273.6678,432.2851,273.8141,426.6301,270.042,435.728" style="stroke:#A80036;stroke-width:1.0;"/><!--MD5=[be5e6334e25a1733719410e897fbe715]
link usantatecla.mastermind.models.SecretCombination to usantatecla.mastermind.models.ProposedCombination--><path codeLine="56" d="M387.393,363.553 C389.768,388.785 392.964,422.747 395.544,450.159 " fill="none" id="usantatecla.mastermind.models.SecretCombination-to-usantatecla.mastermind.models.ProposedCombination" style="stroke:#A80036;stroke-width:1.0;stroke-dasharray:7.0,7.0;"/><polygon fill="#A80036" points="396.019,455.198,399.1578,445.8627,395.5503,450.22,391.193,446.6125,396.019,455.198" style="stroke:#A80036;stroke-width:1.0;"/><!--MD5=[e41eb31a07e3391b118b54a8a827bca8]
link usantatecla.mastermind.models.SecretCombination to Color--><path codeLine="57" d="M441.312,363.735 C466.01,382.331 492.873,407.155 509,436 C540.724,492.742 546.223,569.892 546.315,615.5652 " fill="none" id="usantatecla.mastermind.models.SecretCombination-to-Color" style="stroke:#A80036;stroke-width:1.0;stroke-dasharray:7.0,7.0;"/><polygon fill="#A80036" points="546.303,620.7026,550.3243,611.7121,546.3149,615.7026,542.3244,611.6931,546.303,620.7026" style="stroke:#A80036;stroke-width:1.0;"/><!--MD5=[6f6994a70a46872d34bd35a5dd21f76b]
link usantatecla.mastermind.models.Result to usantatecla.mastermind.models.Combination--><path codeLine="67" d="M199.959,435.864 C199.278,387.987 205.797,322.327 240,277 C278.087,226.526 318.947,255.639 369,217 C383.753,205.611 397.478,190.684 408.903,176.417 " fill="none" id="usantatecla.mastermind.models.Result-to-usantatecla.mastermind.models.Combination" style="stroke:#A80036;stroke-width:1.0;stroke-dasharray:7.0,7.0;"/><polygon fill="#A80036" points="412.064,172.413,403.3473,176.9978,408.9655,176.3372,409.6261,181.9553,412.064,172.413" style="stroke:#A80036;stroke-width:1.0;"/><!--MD5=[ff585df7b4e7a9ca64d6bebb00a5b94c]
@startuml
enum Color as "usantatecla.\nmastermind.types.\nColor"

class usantatecla.mastermind.models.State {
    - stateValue: StateValue
    + state()
    + next()
    + reset()
    + getValueState(): StateValue
}
usantatecla.mastermind.models.State *-down-> usantatecla.mastermind.models.StateValue

enum usantatecla.mastermind.models.StateValue {
    + INITIAL
    + IN_GAME
    + FINAL
    + EXIT
}

abstract class usantatecla.mastermind.models.Combination {
    - {static} WIDTH: int
    # Combination()
    + {static} getWidth(): int
}
usantatecla.mastermind.models.Combination *-down-> "*" Color

class usantatecla.mastermind.models.Game {
    - {static} MAX_LONG: int
    - attempts: int
    + Game()
    + clear()
    + addProposeCombination(ProposedCombination)
    + isLooser(): boolean
    + isWinner(): boolean
    + getAttempts(): int
    + getProposedCombination(int): ProposedCombination
    + getResult(int): Result
}
usantatecla.mastermind.models.Game *-down-> usantatecla.mastermind.models.SecretCombination
usantatecla.mastermind.models.Game *-down-> "0..*" usantatecla.mastermind.models.Result
usantatecla.mastermind.models.Game *-down-> "0..*" usantatecla.mastermind.models.ProposedCombination

class usantatecla.mastermind.models.ProposedCombination {
    ~ contains(Color, int): boolean
    ~ contains(Color): boolean
    + getColors(): List<Color>
}
usantatecla.mastermind.models.Combination <|-down- usantatecla.mastermind.models.ProposedCombination
usantatecla.mastermind.models.ProposedCombination .down.> Color

class usantatecla.mastermind.models.SecretCombination {
    ~ SecretCombination()
    ~ getResult(ProposedCombination): Result
}
usantatecla.mastermind.models.Combination <|-down- usantatecla.mastermind.models.SecretCombination
usantatecla.mastermind.models.SecretCombination .down.> usantatecla.mastermind.models.Result
usantatecla.mastermind.models.SecretCombination .down.> usantatecla.mastermind.models.ProposedCombination
usantatecla.mastermind.models.SecretCombination .down.> Color

class usantatecla.mastermind.models.Result {
    - blacks: int
    - whites: int
    ~ Result(int, int)
    ~ isWinner(): boolean
    + getBlacks(): int
    + getWhites(): int
}
usantatecla.mastermind.models.Result .down.> usantatecla.mastermind.models.Combination
@enduml

PlantUML version 1.2020.23beta3(Unknown compile time)
(GPL source distribution)
Java Runtime: Java(TM) SE Runtime Environment
JVM: Java HotSpot(TM) 64-Bit Server VM
Default Encoding: UTF-8
Language: en
Country: US
--></g></svg>