<?xml version="1.0" encoding="UTF-8" standalone="no"?><svg xmlns="http://www.w3.org/2000/svg" xmlns:xlink="http://www.w3.org/1999/xlink" contentScriptType="application/ecmascript" contentStyleType="text/css" height="371px" preserveAspectRatio="none" style="width:791px;height:371px;" version="1.1" viewBox="0 0 791 371" width="791px" zoomAndPan="magnify"><defs><filter height="300%" id="fto9n58i58brf" width="300%" x="-1" y="-1"><feGaussianBlur result="blurOut" stdDeviation="2.0"/><feColorMatrix in="blurOut" result="blurOut2" type="matrix" values="0 0 0 0 0 0 0 0 0 0 0 0 0 0 0 0 0 0 .4 0"/><feOffset dx="4.0" dy="4.0" in="blurOut2" result="blurOut3"/><feBlend in="SourceGraphic" in2="blurOut3" mode="normal"/></filter></defs><g><!--MD5=[29d5d00c8f272934fcfbf235a28c504f]
cluster usantatecla.mastermind.views--><polygon fill="#FFFFFF" filter="url(#fto9n58i58brf)" points="16,6,273,6,280,28.2969,760,28.2969,760,246,16,246,16,6" style="stroke:#000000;stroke-width:1.5;"/><line style="stroke:#000000;stroke-width:1.5;" x1="16" x2="280" y1="28.2969" y2="28.2969"/><text fill="#000000" font-family="sans-serif" font-size="14" font-weight="bold" lengthAdjust="spacingAndGlyphs" textLength="251" x="20" y="20.9951">usantatecla.mastermind.views</text><!--MD5=[dab5b8162ddba5d4d249ad537ad64188]
class usantatecla.mastermind.views.ColorView--><rect codeLine="5" fill="#FEFECE" filter="url(#fto9n58i58brf)" height="124.8281" id="usantatecla.mastermind.views.ColorView" style="stroke:#A80036;stroke-width:1.5;" width="161" x="32.5" y="73"/><ellipse cx="79.75" cy="89" fill="#A9DCDF" rx="11" ry="11" style="stroke:#A80036;stroke-width:1.0;"/><path d="M81.8281,90.8125 L82.2188,91.7969 L81.8281,91.7969 C81.375,91.7969 81.2656,91.8125 81.1094,91.9219 C80.8594,92.0781 80.7031,92.3594 80.7031,92.6563 C80.7031,92.9219 80.8438,93.1719 81.0625,93.3281 C81.2031,93.4531 81.4063,93.5 81.8281,93.5 L84.1875,93.5 C84.5469,93.5 84.7656,93.4688 84.9063,93.375 C85.1563,93.2344 85.3125,92.9375 85.3125,92.6563 C85.3125,92.375 85.1719,92.125 84.9531,91.9688 C84.7813,91.8281 84.625,91.7969 84.1563,91.7969 L80.7656,83.5938 L77.0938,83.5938 C76.6406,83.5938 76.5156,83.6094 76.3594,83.7031 C76.1094,83.875 75.9531,84.1563 75.9531,84.4375 C75.9531,84.7188 76.0938,84.9688 76.3125,85.1406 C76.4844,85.25 76.6563,85.2813 77.0938,85.2813 L78.1719,85.2813 L75.5313,91.7969 C75.1094,91.7969 74.9531,91.8125 74.7969,91.9219 C74.5469,92.0781 74.3906,92.3594 74.3906,92.6563 C74.3906,93.2188 74.7656,93.5 75.5156,93.5 L77.7813,93.5 C78.1406,93.5 78.3594,93.4688 78.4844,93.375 C78.75,93.2344 78.8906,92.9375 78.8906,92.6563 C78.8906,92.375 78.7656,92.125 78.5469,91.9531 C78.375,91.8281 78.2344,91.7969 77.7813,91.7969 L77.3906,91.7969 L77.7813,90.8125 L81.8281,90.8125 Z M81.125,89.1094 L78.4531,89.1094 L79.7969,85.8438 L81.125,89.1094 Z " fill="#000000"/><text fill="#000000" font-family="sans-serif" font-size="12" font-style="italic" lengthAdjust="spacingAndGlyphs" textLength="58" x="100.25" y="93.1543">ColorView</text><line style="stroke:#A80036;stroke-width:1.5;" x1="33.5" x2="192.5" y1="105" y2="105"/><ellipse cx="43.5" cy="116" fill="none" rx="3" ry="3" style="stroke:#038048;stroke-width:1.0;"/><text fill="#000000" font-family="sans-serif" font-size="11" lengthAdjust="spacingAndGlyphs" text-decoration="underline" textLength="85" x="52.5" y="119.2104">INITIALS: char[]</text><line style="stroke:#A80036;stroke-width:1.5;" x1="33.5" x2="192.5" y1="125.8047" y2="125.8047"/><polygon fill="#FFFF44" points="43.5,131.8047,47.5,135.8047,43.5,139.8047,39.5,135.8047" style="stroke:#B38D22;stroke-width:1.0;"/><text fill="#000000" font-family="sans-serif" font-size="11" lengthAdjust="spacingAndGlyphs" textLength="65" x="52.5" y="140.0151">ColorView()</text><polygon fill="#FFFF44" points="43.5,144.6094,47.5,148.6094,43.5,152.6094,39.5,148.6094" style="stroke:#B38D22;stroke-width:1.0;"/><text fill="#000000" font-family="sans-serif" font-size="11" lengthAdjust="spacingAndGlyphs" textLength="94" x="52.5" y="152.8198">ColorView(Color)</text><ellipse cx="43.5" cy="162.4141" fill="#84BE84" rx="3" ry="3" style="stroke:#038048;stroke-width:1.0;"/><text fill="#000000" font-family="sans-serif" font-size="11" lengthAdjust="spacingAndGlyphs" text-decoration="underline" textLength="135" x="52.5" y="165.6245">getInstance(char): Color</text><ellipse cx="43.5" cy="175.2188" fill="#84BE84" rx="3" ry="3" style="stroke:#038048;stroke-width:1.0;"/><text fill="#000000" font-family="sans-serif" font-size="11" lengthAdjust="spacingAndGlyphs" textLength="97" x="52.5" y="178.4292">allInitials(): String</text><polygon fill="#FFFF44" points="43.5,183.0234,47.5,187.0234,43.5,191.0234,39.5,187.0234" style="stroke:#B38D22;stroke-width:1.0;"/><text fill="#000000" font-family="sans-serif" font-size="11" font-style="italic" lengthAdjust="spacingAndGlyphs" textLength="131" x="52.5" y="191.2339">resultInitials(int): String</text><!--MD5=[bd953d99961dd365a3924fc1e98cf727]
class usantatecla.mastermind.views.ErrorView--><rect codeLine="15" fill="#FEFECE" filter="url(#fto9n58i58brf)" height="99.2188" id="usantatecla.mastermind.views.ErrorView" style="stroke:#A80036;stroke-width:1.5;" width="139" x="436.5" y="86"/><ellipse cx="473.55" cy="102" fill="#A9DCDF" rx="11" ry="11" style="stroke:#A80036;stroke-width:1.0;"/><path d="M475.6281,103.8125 L476.0188,104.7969 L475.6281,104.7969 C475.175,104.7969 475.0656,104.8125 474.9094,104.9219 C474.6594,105.0781 474.5031,105.3594 474.5031,105.6563 C474.5031,105.9219 474.6438,106.1719 474.8625,106.3281 C475.0031,106.4531 475.2063,106.5 475.6281,106.5 L477.9875,106.5 C478.3469,106.5 478.5656,106.4688 478.7063,106.375 C478.9563,106.2344 479.1125,105.9375 479.1125,105.6563 C479.1125,105.375 478.9719,105.125 478.7531,104.9688 C478.5813,104.8281 478.425,104.7969 477.9563,104.7969 L474.5656,96.5938 L470.8938,96.5938 C470.4406,96.5938 470.3156,96.6094 470.1594,96.7031 C469.9094,96.875 469.7531,97.1563 469.7531,97.4375 C469.7531,97.7188 469.8938,97.9688 470.1125,98.1406 C470.2844,98.25 470.4563,98.2813 470.8938,98.2813 L471.9719,98.2813 L469.3313,104.7969 C468.9094,104.7969 468.7531,104.8125 468.5969,104.9219 C468.3469,105.0781 468.1906,105.3594 468.1906,105.6563 C468.1906,106.2188 468.5656,106.5 469.3156,106.5 L471.5813,106.5 C471.9406,106.5 472.1594,106.4688 472.2844,106.375 C472.55,106.2344 472.6906,105.9375 472.6906,105.6563 C472.6906,105.375 472.5656,105.125 472.3469,104.9531 C472.175,104.8281 472.0344,104.7969 471.5813,104.7969 L471.1906,104.7969 L471.5813,103.8125 L475.6281,103.8125 Z M474.925,102.1094 L472.2531,102.1094 L473.5969,98.8438 L474.925,102.1094 Z " fill="#000000"/><text fill="#000000" font-family="sans-serif" font-size="12" font-style="italic" lengthAdjust="spacingAndGlyphs" textLength="58" x="492.45" y="106.1543">ErrorView</text><line style="stroke:#A80036;stroke-width:1.5;" x1="437.5" x2="574.5" y1="118" y2="118"/><ellipse cx="447.5" cy="129" fill="none" rx="3" ry="3" style="stroke:#038048;stroke-width:1.0;"/><text fill="#000000" font-family="sans-serif" font-size="11" lengthAdjust="spacingAndGlyphs" textLength="112" x="456.5" y="132.2104">MESSAGES: String[]</text><line style="stroke:#A80036;stroke-width:1.5;" x1="437.5" x2="574.5" y1="138.8047" y2="138.8047"/><polygon fill="#FFFF44" points="447.5,144.8047,451.5,148.8047,447.5,152.8047,443.5,148.8047" style="stroke:#B38D22;stroke-width:1.0;"/><text fill="#000000" font-family="sans-serif" font-size="11" lengthAdjust="spacingAndGlyphs" textLength="62" x="456.5" y="153.0151">ErrorView()</text><ellipse cx="447.5" cy="162.6094" fill="#84BE84" rx="3" ry="3" style="stroke:#038048;stroke-width:1.0;"/><text fill="#000000" font-family="sans-serif" font-size="11" lengthAdjust="spacingAndGlyphs" textLength="88" x="456.5" y="165.8198">ErrorView(Error)</text><polygon fill="#FFFF44" points="447.5,170.4141,451.5,174.4141,447.5,178.4141,443.5,174.4141" style="stroke:#B38D22;stroke-width:1.0;"/><text fill="#000000" font-family="sans-serif" font-size="11" font-style="italic" lengthAdjust="spacingAndGlyphs" textLength="113" x="456.5" y="178.6245">colorInitials(): String</text><!--MD5=[694a802c67fd6ffa81f3d338cafa51c2]
class usantatecla.mastermind.views.Message--><rect codeLine="23" fill="#FEFECE" filter="url(#fto9n58i58brf)" height="188.8516" id="usantatecla.mastermind.views.Message" style="stroke:#A80036;stroke-width:1.5;" width="173" x="228.5" y="41"/><ellipse cx="283.25" cy="57" fill="#EB937F" rx="11" ry="11" style="stroke:#A80036;stroke-width:1.0;"/><path d="M282.0469,57.875 L283.5,57.875 L283.5,57.9844 C283.5,58.3906 283.5313,58.5469 283.6094,58.7031 C283.7656,58.9531 284.0469,59.1094 284.3438,59.1094 C284.5938,59.1094 284.8594,58.9688 285.0156,58.75 C285.1406,58.5938 285.1719,58.4375 285.1719,57.9844 L285.1719,56.0625 C285.1719,55.9063 285.1719,55.8594 285.1563,55.7031 C285.0938,55.2344 284.7813,54.9219 284.3281,54.9219 C284.0781,54.9219 283.8125,55.0625 283.6406,55.2813 C283.5313,55.4531 283.5,55.6094 283.5,56.0625 L283.5,56.1875 L282.0469,56.1875 L282.0469,53.7813 L286.0313,53.7813 L286.0313,54.6406 C286.0313,55.0469 286.0625,55.2188 286.1406,55.375 C286.3125,55.625 286.5938,55.7813 286.875,55.7813 C287.1406,55.7813 287.4063,55.6406 287.5781,55.4219 C287.6875,55.25 287.7188,55.1094 287.7188,54.6406 L287.7188,52.0938 L280.0938,52.0938 C279.6563,52.0938 279.5313,52.1094 279.375,52.2031 C279.125,52.3594 278.9688,52.6563 278.9688,52.9375 C278.9688,53.2188 279.1094,53.4688 279.3281,53.6406 C279.4844,53.75 279.6719,53.7813 280.0938,53.7813 L280.3438,53.7813 L280.3438,60.2969 L280.0938,60.2969 C279.6875,60.2969 279.5313,60.3125 279.375,60.4219 C279.125,60.5938 278.9688,60.8594 278.9688,61.1563 C278.9688,61.4219 279.1094,61.6719 279.3281,61.8281 C279.4688,61.9531 279.7031,62 280.0938,62 L288.0938,62 L288.0938,59.4219 C288.0938,58.9844 288.0625,58.8438 287.9844,58.6875 C287.8125,58.4375 287.5313,58.2813 287.25,58.2813 C286.9844,58.2813 286.7188,58.3906 286.5469,58.6406 C286.4375,58.7969 286.4063,58.9375 286.4063,59.4219 L286.4063,60.2969 L282.0469,60.2969 L282.0469,57.875 Z " fill="#000000"/><text fill="#000000" font-family="sans-serif" font-size="12" lengthAdjust="spacingAndGlyphs" textLength="55" x="303.75" y="61.1543">Message</text><line style="stroke:#A80036;stroke-width:1.5;" x1="229.5" x2="400.5" y1="73" y2="73"/><ellipse cx="239.5" cy="84" fill="none" rx="3" ry="3" style="stroke:#038048;stroke-width:1.0;"/><text fill="#000000" font-family="sans-serif" font-size="11" lengthAdjust="spacingAndGlyphs" textLength="59" x="248.5" y="87.2104">ATTEMPTS</text><ellipse cx="239.5" cy="96.8047" fill="none" rx="3" ry="3" style="stroke:#038048;stroke-width:1.0;"/><text fill="#000000" font-family="sans-serif" font-size="11" lengthAdjust="spacingAndGlyphs" textLength="44" x="248.5" y="100.0151">SECRET</text><ellipse cx="239.5" cy="109.6094" fill="none" rx="3" ry="3" style="stroke:#038048;stroke-width:1.0;"/><text fill="#000000" font-family="sans-serif" font-size="11" lengthAdjust="spacingAndGlyphs" textLength="46" x="248.5" y="112.8198">RESUME</text><ellipse cx="239.5" cy="122.4141" fill="none" rx="3" ry="3" style="stroke:#038048;stroke-width:1.0;"/><text fill="#000000" font-family="sans-serif" font-size="11" lengthAdjust="spacingAndGlyphs" textLength="43" x="248.5" y="125.6245">RESULT</text><ellipse cx="239.5" cy="135.2188" fill="none" rx="3" ry="3" style="stroke:#038048;stroke-width:1.0;"/><text fill="#000000" font-family="sans-serif" font-size="11" lengthAdjust="spacingAndGlyphs" textLength="147" x="248.5" y="138.4292">PROPOSED_COMBINATION</text><ellipse cx="239.5" cy="148.0234" fill="none" rx="3" ry="3" style="stroke:#038048;stroke-width:1.0;"/><text fill="#000000" font-family="sans-serif" font-size="11" lengthAdjust="spacingAndGlyphs" textLength="30" x="248.5" y="151.2339">TITLE</text><ellipse cx="239.5" cy="160.8281" fill="none" rx="3" ry="3" style="stroke:#038048;stroke-width:1.0;"/><text fill="#000000" font-family="sans-serif" font-size="11" lengthAdjust="spacingAndGlyphs" textLength="44" x="248.5" y="164.0386">WINNER</text><ellipse cx="239.5" cy="173.6328" fill="none" rx="3" ry="3" style="stroke:#038048;stroke-width:1.0;"/><text fill="#000000" font-family="sans-serif" font-size="11" lengthAdjust="spacingAndGlyphs" textLength="46" x="248.5" y="176.8433">LOOSER</text><rect fill="none" height="6" style="stroke:#C82930;stroke-width:1.0;" width="6" x="236.5" y="183.4375"/><text fill="#000000" font-family="sans-serif" font-size="11" lengthAdjust="spacingAndGlyphs" textLength="93" x="248.5" y="189.6479">message: String</text><line style="stroke:#A80036;stroke-width:1.5;" x1="229.5" x2="400.5" y1="196.2422" y2="196.2422"/><polygon fill="#4177AF" points="239.5,203.2422,235.5,209.2422,243.5,209.2422" style="stroke:#1963A0;stroke-width:1.0;"/><text fill="#000000" font-family="sans-serif" font-size="11" lengthAdjust="spacingAndGlyphs" textLength="120" x="248.5" y="210.4526">MessageView(String)</text><ellipse cx="239.5" cy="220.0469" fill="#84BE84" rx="3" ry="3" style="stroke:#038048;stroke-width:1.0;"/><text fill="#000000" font-family="sans-serif" font-size="11" lengthAdjust="spacingAndGlyphs" textLength="118" x="248.5" y="223.2573">getMessage(): String</text><!--MD5=[f5534db0476bcf0d5af6a596dc954aba]
class usantatecla.mastermind.views.View--><rect codeLine="37" fill="#FEFECE" filter="url(#fto9n58i58brf)" height="60.8047" id="usantatecla.mastermind.views.View" style="stroke:#A80036;stroke-width:1.5;" width="133" x="610.5" y="105"/><ellipse cx="658.75" cy="121" fill="#A9DCDF" rx="11" ry="11" style="stroke:#A80036;stroke-width:1.0;"/><path d="M660.8281,122.8125 L661.2188,123.7969 L660.8281,123.7969 C660.375,123.7969 660.2656,123.8125 660.1094,123.9219 C659.8594,124.0781 659.7031,124.3594 659.7031,124.6563 C659.7031,124.9219 659.8438,125.1719 660.0625,125.3281 C660.2031,125.4531 660.4063,125.5 660.8281,125.5 L663.1875,125.5 C663.5469,125.5 663.7656,125.4688 663.9063,125.375 C664.1563,125.2344 664.3125,124.9375 664.3125,124.6563 C664.3125,124.375 664.1719,124.125 663.9531,123.9688 C663.7813,123.8281 663.625,123.7969 663.1563,123.7969 L659.7656,115.5938 L656.0938,115.5938 C655.6406,115.5938 655.5156,115.6094 655.3594,115.7031 C655.1094,115.875 654.9531,116.1563 654.9531,116.4375 C654.9531,116.7188 655.0938,116.9688 655.3125,117.1406 C655.4844,117.25 655.6563,117.2813 656.0938,117.2813 L657.1719,117.2813 L654.5313,123.7969 C654.1094,123.7969 653.9531,123.8125 653.7969,123.9219 C653.5469,124.0781 653.3906,124.3594 653.3906,124.6563 C653.3906,125.2188 653.7656,125.5 654.5156,125.5 L656.7813,125.5 C657.1406,125.5 657.3594,125.4688 657.4844,125.375 C657.75,125.2344 657.8906,124.9375 657.8906,124.6563 C657.8906,124.375 657.7656,124.125 657.5469,123.9531 C657.375,123.8281 657.2344,123.7969 656.7813,123.7969 L656.3906,123.7969 L656.7813,122.8125 L660.8281,122.8125 Z M660.125,121.1094 L657.4531,121.1094 L658.7969,117.8438 L660.125,121.1094 Z " fill="#000000"/><text fill="#000000" font-family="sans-serif" font-size="12" font-style="italic" lengthAdjust="spacingAndGlyphs" textLength="28" x="679.25" y="125.1543">View</text><line style="stroke:#A80036;stroke-width:1.5;" x1="611.5" x2="742.5" y1="137" y2="137"/><line style="stroke:#A80036;stroke-width:1.5;" x1="611.5" x2="742.5" y1="145" y2="145"/><ellipse cx="621.5" cy="156" fill="#84BE84" rx="3" ry="3" style="stroke:#038048;stroke-width:1.0;"/><text fill="#000000" font-family="sans-serif" font-size="11" font-style="italic" lengthAdjust="spacingAndGlyphs" textLength="107" x="630.5" y="159.2104">interact(Controller)</text><!--MD5=[1d7ba1c7002d54515419844fbd155368]
class Controller--><rect codeLine="1" fill="#FEFECE" filter="url(#fto9n58i58brf)" height="67.9063" id="Controller" style="stroke:#A80036;stroke-width:1.5;" width="176" x="601" y="290"/><ellipse cx="616" cy="315.9531" fill="#A9DCDF" rx="11" ry="11" style="stroke:#A80036;stroke-width:1.0;"/><path d="M618.0781,317.7656 L618.4688,318.75 L618.0781,318.75 C617.625,318.75 617.5156,318.7656 617.3594,318.875 C617.1094,319.0313 616.9531,319.3125 616.9531,319.6094 C616.9531,319.875 617.0938,320.125 617.3125,320.2813 C617.4531,320.4063 617.6563,320.4531 618.0781,320.4531 L620.4375,320.4531 C620.7969,320.4531 621.0156,320.4219 621.1563,320.3281 C621.4063,320.1875 621.5625,319.8906 621.5625,319.6094 C621.5625,319.3281 621.4219,319.0781 621.2031,318.9219 C621.0313,318.7813 620.875,318.75 620.4063,318.75 L617.0156,310.5469 L613.3438,310.5469 C612.8906,310.5469 612.7656,310.5625 612.6094,310.6563 C612.3594,310.8281 612.2031,311.1094 612.2031,311.3906 C612.2031,311.6719 612.3438,311.9219 612.5625,312.0938 C612.7344,312.2031 612.9063,312.2344 613.3438,312.2344 L614.4219,312.2344 L611.7813,318.75 C611.3594,318.75 611.2031,318.7656 611.0469,318.875 C610.7969,319.0313 610.6406,319.3125 610.6406,319.6094 C610.6406,320.1719 611.0156,320.4531 611.7656,320.4531 L614.0313,320.4531 C614.3906,320.4531 614.6094,320.4219 614.7344,320.3281 C615,320.1875 615.1406,319.8906 615.1406,319.6094 C615.1406,319.3281 615.0156,319.0781 614.7969,318.9063 C614.625,318.7813 614.4844,318.75 614.0313,318.75 L613.6406,318.75 L614.0313,317.7656 L618.0781,317.7656 Z M617.375,316.0625 L614.7031,316.0625 L616.0469,312.7969 L617.375,316.0625 Z " fill="#000000"/><text fill="#000000" font-family="sans-serif" font-size="12" font-style="italic" lengthAdjust="spacingAndGlyphs" textLength="74" x="665" y="306.1387">usantatecla.</text><text fill="#000000" font-family="sans-serif" font-size="12" font-style="italic" lengthAdjust="spacingAndGlyphs" textLength="144" x="630" y="320.1074">mastermind.controllers.</text><text fill="#000000" font-family="sans-serif" font-size="12" font-style="italic" lengthAdjust="spacingAndGlyphs" textLength="58" x="673" y="334.0762">Controller</text><line style="stroke:#A80036;stroke-width:1.5;" x1="602" x2="776" y1="341.9063" y2="341.9063"/><line style="stroke:#A80036;stroke-width:1.5;" x1="602" x2="776" y1="349.9063" y2="349.9063"/><!--MD5=[18eee71c88ab61f27581b8cbdd3ef5ee]
class Color--><rect codeLine="2" fill="#FEFECE" filter="url(#fto9n58i58brf)" height="67.9063" id="Color" style="stroke:#A80036;stroke-width:1.5;" width="143" x="41.5" y="290"/><ellipse cx="56.5" cy="315.9531" fill="#EB937F" rx="11" ry="11" style="stroke:#A80036;stroke-width:1.0;"/><path d="M55.2969,316.8281 L56.75,316.8281 L56.75,316.9375 C56.75,317.3438 56.7813,317.5 56.8594,317.6563 C57.0156,317.9063 57.2969,318.0625 57.5938,318.0625 C57.8438,318.0625 58.1094,317.9219 58.2656,317.7031 C58.3906,317.5469 58.4219,317.3906 58.4219,316.9375 L58.4219,315.0156 C58.4219,314.8594 58.4219,314.8125 58.4063,314.6563 C58.3438,314.1875 58.0313,313.875 57.5781,313.875 C57.3281,313.875 57.0625,314.0156 56.8906,314.2344 C56.7813,314.4063 56.75,314.5625 56.75,315.0156 L56.75,315.1406 L55.2969,315.1406 L55.2969,312.7344 L59.2813,312.7344 L59.2813,313.5938 C59.2813,314 59.3125,314.1719 59.3906,314.3281 C59.5625,314.5781 59.8438,314.7344 60.125,314.7344 C60.3906,314.7344 60.6563,314.5938 60.8281,314.375 C60.9375,314.2031 60.9688,314.0625 60.9688,313.5938 L60.9688,311.0469 L53.3438,311.0469 C52.9063,311.0469 52.7813,311.0625 52.625,311.1563 C52.375,311.3125 52.2188,311.6094 52.2188,311.8906 C52.2188,312.1719 52.3594,312.4219 52.5781,312.5938 C52.7344,312.7031 52.9219,312.7344 53.3438,312.7344 L53.5938,312.7344 L53.5938,319.25 L53.3438,319.25 C52.9375,319.25 52.7813,319.2656 52.625,319.375 C52.375,319.5469 52.2188,319.8125 52.2188,320.1094 C52.2188,320.375 52.3594,320.625 52.5781,320.7813 C52.7188,320.9063 52.9531,320.9531 53.3438,320.9531 L61.3438,320.9531 L61.3438,318.375 C61.3438,317.9375 61.3125,317.7969 61.2344,317.6406 C61.0625,317.3906 60.7813,317.2344 60.5,317.2344 C60.2344,317.2344 59.9688,317.3438 59.7969,317.5938 C59.6875,317.75 59.6563,317.8906 59.6563,318.375 L59.6563,319.25 L55.2969,319.25 L55.2969,316.8281 Z " fill="#000000"/><text fill="#000000" font-family="sans-serif" font-size="12" lengthAdjust="spacingAndGlyphs" textLength="71" x="90.5" y="306.1387">usantatecla.</text><text fill="#000000" font-family="sans-serif" font-size="12" lengthAdjust="spacingAndGlyphs" textLength="111" x="70.5" y="320.1074">mastermind.types.</text><text fill="#000000" font-family="sans-serif" font-size="12" lengthAdjust="spacingAndGlyphs" textLength="32" x="110" y="334.0762">Color</text><line style="stroke:#A80036;stroke-width:1.5;" x1="42.5" x2="183.5" y1="341.9063" y2="341.9063"/><line style="stroke:#A80036;stroke-width:1.5;" x1="42.5" x2="183.5" y1="349.9063" y2="349.9063"/><!--MD5=[b8cfd8c4119a3b0a7a46bfc5fc780f85]
class Error--><rect codeLine="3" fill="#FEFECE" filter="url(#fto9n58i58brf)" height="67.9063" id="Error" style="stroke:#A80036;stroke-width:1.5;" width="143" x="422.5" y="290"/><ellipse cx="437.5" cy="315.9531" fill="#EB937F" rx="11" ry="11" style="stroke:#A80036;stroke-width:1.0;"/><path d="M436.2969,316.8281 L437.75,316.8281 L437.75,316.9375 C437.75,317.3438 437.7813,317.5 437.8594,317.6563 C438.0156,317.9063 438.2969,318.0625 438.5938,318.0625 C438.8438,318.0625 439.1094,317.9219 439.2656,317.7031 C439.3906,317.5469 439.4219,317.3906 439.4219,316.9375 L439.4219,315.0156 C439.4219,314.8594 439.4219,314.8125 439.4063,314.6563 C439.3438,314.1875 439.0313,313.875 438.5781,313.875 C438.3281,313.875 438.0625,314.0156 437.8906,314.2344 C437.7813,314.4063 437.75,314.5625 437.75,315.0156 L437.75,315.1406 L436.2969,315.1406 L436.2969,312.7344 L440.2813,312.7344 L440.2813,313.5938 C440.2813,314 440.3125,314.1719 440.3906,314.3281 C440.5625,314.5781 440.8438,314.7344 441.125,314.7344 C441.3906,314.7344 441.6563,314.5938 441.8281,314.375 C441.9375,314.2031 441.9688,314.0625 441.9688,313.5938 L441.9688,311.0469 L434.3438,311.0469 C433.9063,311.0469 433.7813,311.0625 433.625,311.1563 C433.375,311.3125 433.2188,311.6094 433.2188,311.8906 C433.2188,312.1719 433.3594,312.4219 433.5781,312.5938 C433.7344,312.7031 433.9219,312.7344 434.3438,312.7344 L434.5938,312.7344 L434.5938,319.25 L434.3438,319.25 C433.9375,319.25 433.7813,319.2656 433.625,319.375 C433.375,319.5469 433.2188,319.8125 433.2188,320.1094 C433.2188,320.375 433.3594,320.625 433.5781,320.7813 C433.7188,320.9063 433.9531,320.9531 434.3438,320.9531 L442.3438,320.9531 L442.3438,318.375 C442.3438,317.9375 442.3125,317.7969 442.2344,317.6406 C442.0625,317.3906 441.7813,317.2344 441.5,317.2344 C441.2344,317.2344 440.9688,317.3438 440.7969,317.5938 C440.6875,317.75 440.6563,317.8906 440.6563,318.375 L440.6563,319.25 L436.2969,319.25 L436.2969,316.8281 Z " fill="#000000"/><text fill="#000000" font-family="sans-serif" font-size="12" lengthAdjust="spacingAndGlyphs" textLength="71" x="471.5" y="306.1387">usantatecla.</text><text fill="#000000" font-family="sans-serif" font-size="12" lengthAdjust="spacingAndGlyphs" textLength="111" x="451.5" y="320.1074">mastermind.types.</text><text fill="#000000" font-family="sans-serif" font-size="12" lengthAdjust="spacingAndGlyphs" textLength="30" x="492" y="334.0762">Error</text><line style="stroke:#A80036;stroke-width:1.5;" x1="423.5" x2="564.5" y1="341.9063" y2="341.9063"/><line style="stroke:#A80036;stroke-width:1.5;" x1="423.5" x2="564.5" y1="349.9063" y2="349.9063"/><!--MD5=[037b2a79b64666ba83d382cd2f7d163f]
link usantatecla.mastermind.views.ColorView to Color--><path codeLine="13" d="M113,210.084 C113,210.084 113,256.954 113,276.7248 " fill="none" id="usantatecla.mastermind.views.ColorView-Color" style="stroke:#A80036;stroke-width:1.0;"/><polygon fill="#A80036" points="113,289.7382,117,280.7382,113,284.7382,109,280.7382,113,289.7382" style="stroke:#A80036;stroke-width:1.0;"/><line style="stroke:#A80036;stroke-width:1.0;" x1="113" x2="113" y1="284.7382" y2="276.7382"/><polygon fill="#A80036" points="113,198.084,109,204.084,113,210.084,117,204.084,113,198.084" style="stroke:#A80036;stroke-width:1.0;"/><!--MD5=[41b24afec43bb3213296ed92b425fcbe]
link usantatecla.mastermind.views.ErrorView to Error--><path codeLine="21" d="M502.1079,196.9893 C502.1079,196.9893 498.517,252.793 496.994,276.4692 " fill="none" id="usantatecla.mastermind.views.ErrorView-Error" style="stroke:#A80036;stroke-width:1.0;"/><polygon fill="#A80036" points="496.142,289.7155,500.7117,280.991,496.4631,284.7258,492.7282,280.4772,496.142,289.7155" style="stroke:#A80036;stroke-width:1.0;"/><line style="stroke:#A80036;stroke-width:1.0;" x1="496.4631" x2="496.9765" y1="284.7258" y2="276.7423"/><polygon fill="#A80036" points="502.878,185.014,498.5012,190.7449,502.1079,196.9893,506.4847,191.2583,502.878,185.014" style="stroke:#A80036;stroke-width:1.0;"/><!--MD5=[b764df6f99f98900cdeb381840b9372d]
link usantatecla.mastermind.views.View to Controller--><path codeLine="40" d="M678.901,166.051 C680.967,198.161 684.276,249.574 686.539,284.7449 " fill="none" id="usantatecla.mastermind.views.View-to-Controller" style="stroke:#A80036;stroke-width:1.0;stroke-dasharray:7.0,7.0;"/><polygon fill="#A80036" points="686.865,289.812,690.2787,280.5737,686.5439,284.8223,682.2952,281.0875,686.865,289.812" style="stroke:#A80036;stroke-width:1.0;"/><!--MD5=[458a70f28b5ea4333f2f2bf26321846a]
@startuml
abstract class Controller as "usantatecla.\nmastermind.controllers.\nController"
enum Color as "usantatecla.\nmastermind.types.\nColor"
enum Error as "usantatecla.\nmastermind.types.\nError"

abstract class  usantatecla.mastermind.views.ColorView{
    + {static} INITIALS: char[]
    # ColorView()
    # ColorView(Color)
    + {static} getInstance(char): Color
    + allInitials(): String
    # {abstract} resultInitials(int): String
}
usantatecla.mastermind.views.ColorView *-down-> Color

abstract class  usantatecla.mastermind.views.ErrorView{
    + MESSAGES: String[]
    # ErrorView()
    + ErrorView(Error)
    # {abstract} colorInitials(): String
}
usantatecla.mastermind.views.ErrorView *-down-> Error

enum  usantatecla.mastermind.views.Message{
    + ATTEMPTS
    + SECRET
    + RESUME
    + RESULT
    + PROPOSED_COMBINATION
    + TITLE
    + WINNER
    + LOOSER
    - message: String
    ~ MessageView(String)
    + getMessage(): String
}

abstract class  usantatecla.mastermind.views.View{
    + {abstract} interact(Controller)
}
usantatecla.mastermind.views.View .down.> Controller
@enduml

PlantUML version 1.2020.23beta3(Unknown compile time)
(GPL source distribution)
Java Runtime: Java(TM) SE Runtime Environment
JVM: Java HotSpot(TM) 64-Bit Server VM
Default Encoding: UTF-8
Language: en
Country: US
--></g></svg>