<?xml version="1.0" encoding="UTF-8" standalone="no"?><svg xmlns="http://www.w3.org/2000/svg" xmlns:xlink="http://www.w3.org/1999/xlink" contentScriptType="application/ecmascript" contentStyleType="text/css" height="600px" preserveAspectRatio="none" style="width:1257px;height:600px;" version="1.1" viewBox="0 0 1257 600" width="1257px" zoomAndPan="magnify"><defs><filter height="300%" id="f1d5jtb3wyi7xo" width="300%" x="-1" y="-1"><feGaussianBlur result="blurOut" stdDeviation="2.0"/><feColorMatrix in="blurOut" result="blurOut2" type="matrix" values="0 0 0 0 0 0 0 0 0 0 0 0 0 0 0 0 0 0 .4 0"/><feOffset dx="4.0" dy="4.0" in="blurOut2" result="blurOut3"/><feBlend in="SourceGraphic" in2="blurOut3" mode="normal"/></filter></defs><g><!--MD5=[45607799a901819e6cc4b6d8cd00ce6c]
cluster usantatecla.mastermind.controllers--><polygon fill="#FFFFFF" filter="url(#f1d5jtb3wyi7xo)" points="174,6,475,6,482,28.2969,952,28.2969,952,475,174,475,174,6" style="stroke:#000000;stroke-width:1.5;"/><line style="stroke:#000000;stroke-width:1.5;" x1="174" x2="482" y1="28.2969" y2="28.2969"/><text fill="#000000" font-family="sans-serif" font-size="14" font-weight="bold" lengthAdjust="spacingAndGlyphs" textLength="295" x="178" y="20.9951">usantatecla.mastermind.controllers</text><!--MD5=[e0d21a3c8ca66756a771586930837509]
class usantatecla.mastermind.controllers.Controller--><rect codeLine="9" fill="#FEFECE" filter="url(#f1d5jtb3wyi7xo)" height="73.6094" id="usantatecla.mastermind.controllers.Controller" style="stroke:#A80036;stroke-width:1.5;" width="162" x="648" y="175"/><ellipse cx="695.75" cy="191" fill="#A9DCDF" rx="11" ry="11" style="stroke:#A80036;stroke-width:1.0;"/><path d="M697.8281,192.8125 L698.2188,193.7969 L697.8281,193.7969 C697.375,193.7969 697.2656,193.8125 697.1094,193.9219 C696.8594,194.0781 696.7031,194.3594 696.7031,194.6563 C696.7031,194.9219 696.8438,195.1719 697.0625,195.3281 C697.2031,195.4531 697.4063,195.5 697.8281,195.5 L700.1875,195.5 C700.5469,195.5 700.7656,195.4688 700.9063,195.375 C701.1563,195.2344 701.3125,194.9375 701.3125,194.6563 C701.3125,194.375 701.1719,194.125 700.9531,193.9688 C700.7813,193.8281 700.625,193.7969 700.1563,193.7969 L696.7656,185.5938 L693.0938,185.5938 C692.6406,185.5938 692.5156,185.6094 692.3594,185.7031 C692.1094,185.875 691.9531,186.1563 691.9531,186.4375 C691.9531,186.7188 692.0938,186.9688 692.3125,187.1406 C692.4844,187.25 692.6563,187.2813 693.0938,187.2813 L694.1719,187.2813 L691.5313,193.7969 C691.1094,193.7969 690.9531,193.8125 690.7969,193.9219 C690.5469,194.0781 690.3906,194.3594 690.3906,194.6563 C690.3906,195.2188 690.7656,195.5 691.5156,195.5 L693.7813,195.5 C694.1406,195.5 694.3594,195.4688 694.4844,195.375 C694.75,195.2344 694.8906,194.9375 694.8906,194.6563 C694.8906,194.375 694.7656,194.125 694.5469,193.9531 C694.375,193.8281 694.2344,193.7969 693.7813,193.7969 L693.3906,193.7969 L693.7813,192.8125 L697.8281,192.8125 Z M697.125,191.1094 L694.4531,191.1094 L695.7969,187.8438 L697.125,191.1094 Z " fill="#000000"/><text fill="#000000" font-family="sans-serif" font-size="12" font-style="italic" lengthAdjust="spacingAndGlyphs" textLength="58" x="716.25" y="195.1543">Controller</text><line style="stroke:#A80036;stroke-width:1.5;" x1="649" x2="809" y1="207" y2="207"/><line style="stroke:#A80036;stroke-width:1.5;" x1="649" x2="809" y1="215" y2="215"/><polygon fill="#4177AF" points="659,222,655,228,663,228" style="stroke:#1963A0;stroke-width:1.0;"/><text fill="#000000" font-family="sans-serif" font-size="11" lengthAdjust="spacingAndGlyphs" textLength="136" x="668" y="229.2104">Controller(Game, State)</text><ellipse cx="659" cy="238.8047" fill="#84BE84" rx="3" ry="3" style="stroke:#038048;stroke-width:1.0;"/><text fill="#000000" font-family="sans-serif" font-size="11" lengthAdjust="spacingAndGlyphs" textLength="80" x="668" y="242.0151">getWidth(): int</text><!--MD5=[94a6d75594c4867cc1b5bdf8bdcd38a2]
class usantatecla.mastermind.controllers.Logic--><rect codeLine="17" fill="#FEFECE" filter="url(#f1d5jtb3wyi7xo)" height="73.6094" id="usantatecla.mastermind.controllers.Logic" style="stroke:#A80036;stroke-width:1.5;" width="170" x="761" y="41"/><ellipse cx="825.75" cy="57" fill="#ADD1B2" rx="11" ry="11" style="stroke:#A80036;stroke-width:1.0;"/><path d="M828.0938,52.6719 C827.1563,52.2344 826.5625,52.0938 825.6875,52.0938 C823.0625,52.0938 821.0625,54.1719 821.0625,56.8906 L821.0625,58.0156 C821.0625,60.5938 823.1719,62.4844 826.0625,62.4844 C827.2813,62.4844 828.4375,62.1875 829.1875,61.6406 C829.7656,61.2344 830.0938,60.7813 830.0938,60.3906 C830.0938,59.9375 829.7031,59.5469 829.2344,59.5469 C829.0156,59.5469 828.8125,59.625 828.625,59.8125 C828.1719,60.2969 828.1719,60.2969 827.9844,60.3906 C827.5625,60.6563 826.875,60.7813 826.1094,60.7813 C824.0625,60.7813 822.7656,59.6875 822.7656,57.9844 L822.7656,56.8906 C822.7656,55.1094 824.0156,53.7969 825.75,53.7969 C826.3281,53.7969 826.9375,53.9531 827.4063,54.2031 C827.8906,54.4844 828.0625,54.7031 828.1563,55.1094 C828.2188,55.5156 828.25,55.6406 828.3906,55.7656 C828.5313,55.9063 828.7656,56.0156 828.9844,56.0156 C829.25,56.0156 829.5156,55.875 829.6875,55.6563 C829.7969,55.5 829.8281,55.3125 829.8281,54.8906 L829.8281,53.4688 C829.8281,53.0313 829.8125,52.9063 829.7188,52.75 C829.5625,52.4844 829.2813,52.3438 828.9844,52.3438 C828.6875,52.3438 828.4844,52.4375 828.2656,52.75 L828.0938,52.6719 Z " fill="#000000"/><text fill="#000000" font-family="sans-serif" font-size="12" lengthAdjust="spacingAndGlyphs" textLength="32" x="846.25" y="61.1543">Logic</text><line style="stroke:#A80036;stroke-width:1.5;" x1="762" x2="930" y1="73" y2="73"/><line style="stroke:#A80036;stroke-width:1.5;" x1="762" x2="930" y1="81" y2="81"/><ellipse cx="772" cy="92" fill="#84BE84" rx="3" ry="3" style="stroke:#038048;stroke-width:1.0;"/><text fill="#000000" font-family="sans-serif" font-size="11" lengthAdjust="spacingAndGlyphs" textLength="37" x="781" y="95.2104">Logic()</text><ellipse cx="772" cy="104.8047" fill="#84BE84" rx="3" ry="3" style="stroke:#038048;stroke-width:1.0;"/><text fill="#000000" font-family="sans-serif" font-size="11" lengthAdjust="spacingAndGlyphs" textLength="144" x="781" y="108.0151">getController(): Controller</text><!--MD5=[ba414607f34a8f1ff5e5377db4b3dfd8]
class usantatecla.mastermind.controllers.ResumeController--><rect codeLine="47" fill="#FEFECE" filter="url(#f1d5jtb3wyi7xo)" height="73.6094" id="usantatecla.mastermind.controllers.ResumeController" style="stroke:#A80036;stroke-width:1.5;" width="209" x="726.5" y="347"/><ellipse cx="773.25" cy="363" fill="#ADD1B2" rx="11" ry="11" style="stroke:#A80036;stroke-width:1.0;"/><path d="M775.5938,358.6719 C774.6563,358.2344 774.0625,358.0938 773.1875,358.0938 C770.5625,358.0938 768.5625,360.1719 768.5625,362.8906 L768.5625,364.0156 C768.5625,366.5938 770.6719,368.4844 773.5625,368.4844 C774.7813,368.4844 775.9375,368.1875 776.6875,367.6406 C777.2656,367.2344 777.5938,366.7813 777.5938,366.3906 C777.5938,365.9375 777.2031,365.5469 776.7344,365.5469 C776.5156,365.5469 776.3125,365.625 776.125,365.8125 C775.6719,366.2969 775.6719,366.2969 775.4844,366.3906 C775.0625,366.6563 774.375,366.7813 773.6094,366.7813 C771.5625,366.7813 770.2656,365.6875 770.2656,363.9844 L770.2656,362.8906 C770.2656,361.1094 771.5156,359.7969 773.25,359.7969 C773.8281,359.7969 774.4375,359.9531 774.9063,360.2031 C775.3906,360.4844 775.5625,360.7031 775.6563,361.1094 C775.7188,361.5156 775.75,361.6406 775.8906,361.7656 C776.0313,361.9063 776.2656,362.0156 776.4844,362.0156 C776.75,362.0156 777.0156,361.875 777.1875,361.6563 C777.2969,361.5 777.3281,361.3125 777.3281,360.8906 L777.3281,359.4688 C777.3281,359.0313 777.3125,358.9063 777.2188,358.75 C777.0625,358.4844 776.7813,358.3438 776.4844,358.3438 C776.1875,358.3438 775.9844,358.4375 775.7656,358.75 L775.5938,358.6719 Z " fill="#000000"/><text fill="#000000" font-family="sans-serif" font-size="12" lengthAdjust="spacingAndGlyphs" textLength="107" x="793.75" y="367.1543">ResumeController</text><line style="stroke:#A80036;stroke-width:1.5;" x1="727.5" x2="934.5" y1="379" y2="379"/><line style="stroke:#A80036;stroke-width:1.5;" x1="727.5" x2="934.5" y1="387" y2="387"/><ellipse cx="737.5" cy="398" fill="#84BE84" rx="3" ry="3" style="stroke:#038048;stroke-width:1.0;"/><text fill="#000000" font-family="sans-serif" font-size="11" lengthAdjust="spacingAndGlyphs" textLength="183" x="746.5" y="401.2104">ResumeController(Game, State)</text><ellipse cx="737.5" cy="410.8047" fill="#84BE84" rx="3" ry="3" style="stroke:#038048;stroke-width:1.0;"/><text fill="#000000" font-family="sans-serif" font-size="11" lengthAdjust="spacingAndGlyphs" textLength="98" x="746.5" y="414.0151">resume(boolean)</text><!--MD5=[c20948aa6f904689435480ad9a30530a]
class usantatecla.mastermind.controllers.StartController--><rect codeLine="55" fill="#FEFECE" filter="url(#f1d5jtb3wyi7xo)" height="73.6094" id="usantatecla.mastermind.controllers.StartController" style="stroke:#A80036;stroke-width:1.5;" width="189" x="502.5" y="347"/><ellipse cx="549.25" cy="363" fill="#ADD1B2" rx="11" ry="11" style="stroke:#A80036;stroke-width:1.0;"/><path d="M551.5938,358.6719 C550.6563,358.2344 550.0625,358.0938 549.1875,358.0938 C546.5625,358.0938 544.5625,360.1719 544.5625,362.8906 L544.5625,364.0156 C544.5625,366.5938 546.6719,368.4844 549.5625,368.4844 C550.7813,368.4844 551.9375,368.1875 552.6875,367.6406 C553.2656,367.2344 553.5938,366.7813 553.5938,366.3906 C553.5938,365.9375 553.2031,365.5469 552.7344,365.5469 C552.5156,365.5469 552.3125,365.625 552.125,365.8125 C551.6719,366.2969 551.6719,366.2969 551.4844,366.3906 C551.0625,366.6563 550.375,366.7813 549.6094,366.7813 C547.5625,366.7813 546.2656,365.6875 546.2656,363.9844 L546.2656,362.8906 C546.2656,361.1094 547.5156,359.7969 549.25,359.7969 C549.8281,359.7969 550.4375,359.9531 550.9063,360.2031 C551.3906,360.4844 551.5625,360.7031 551.6563,361.1094 C551.7188,361.5156 551.75,361.6406 551.8906,361.7656 C552.0313,361.9063 552.2656,362.0156 552.4844,362.0156 C552.75,362.0156 553.0156,361.875 553.1875,361.6563 C553.2969,361.5 553.3281,361.3125 553.3281,360.8906 L553.3281,359.4688 C553.3281,359.0313 553.3125,358.9063 553.2188,358.75 C553.0625,358.4844 552.7813,358.3438 552.4844,358.3438 C552.1875,358.3438 551.9844,358.4375 551.7656,358.75 L551.5938,358.6719 Z " fill="#000000"/><text fill="#000000" font-family="sans-serif" font-size="12" lengthAdjust="spacingAndGlyphs" textLength="87" x="569.75" y="367.1543">StartController</text><line style="stroke:#A80036;stroke-width:1.5;" x1="503.5" x2="690.5" y1="379" y2="379"/><line style="stroke:#A80036;stroke-width:1.5;" x1="503.5" x2="690.5" y1="387" y2="387"/><ellipse cx="513.5" cy="398" fill="#84BE84" rx="3" ry="3" style="stroke:#038048;stroke-width:1.0;"/><text fill="#000000" font-family="sans-serif" font-size="11" lengthAdjust="spacingAndGlyphs" textLength="163" x="522.5" y="401.2104">StartController(Game, State)</text><ellipse cx="513.5" cy="410.8047" fill="#84BE84" rx="3" ry="3" style="stroke:#038048;stroke-width:1.0;"/><text fill="#000000" font-family="sans-serif" font-size="11" lengthAdjust="spacingAndGlyphs" textLength="33" x="522.5" y="414.0151">start()</text><!--MD5=[71ea1457370bc7d349149836b00bab29]
class usantatecla.mastermind.controllers.PlayController--><rect codeLine="29" fill="#FEFECE" filter="url(#f1d5jtb3wyi7xo)" height="150.4375" id="usantatecla.mastermind.controllers.PlayController" style="stroke:#A80036;stroke-width:1.5;" width="277" x="190.5" y="309"/><ellipse cx="269.25" cy="325" fill="#ADD1B2" rx="11" ry="11" style="stroke:#A80036;stroke-width:1.0;"/><path d="M271.5938,320.6719 C270.6563,320.2344 270.0625,320.0938 269.1875,320.0938 C266.5625,320.0938 264.5625,322.1719 264.5625,324.8906 L264.5625,326.0156 C264.5625,328.5938 266.6719,330.4844 269.5625,330.4844 C270.7813,330.4844 271.9375,330.1875 272.6875,329.6406 C273.2656,329.2344 273.5938,328.7813 273.5938,328.3906 C273.5938,327.9375 273.2031,327.5469 272.7344,327.5469 C272.5156,327.5469 272.3125,327.625 272.125,327.8125 C271.6719,328.2969 271.6719,328.2969 271.4844,328.3906 C271.0625,328.6563 270.375,328.7813 269.6094,328.7813 C267.5625,328.7813 266.2656,327.6875 266.2656,325.9844 L266.2656,324.8906 C266.2656,323.1094 267.5156,321.7969 269.25,321.7969 C269.8281,321.7969 270.4375,321.9531 270.9063,322.2031 C271.3906,322.4844 271.5625,322.7031 271.6563,323.1094 C271.7188,323.5156 271.75,323.6406 271.8906,323.7656 C272.0313,323.9063 272.2656,324.0156 272.4844,324.0156 C272.75,324.0156 273.0156,323.875 273.1875,323.6563 C273.2969,323.5 273.3281,323.3125 273.3281,322.8906 L273.3281,321.4688 C273.3281,321.0313 273.3125,320.9063 273.2188,320.75 C273.0625,320.4844 272.7813,320.3438 272.4844,320.3438 C272.1875,320.3438 271.9844,320.4375 271.7656,320.75 L271.5938,320.6719 Z " fill="#000000"/><text fill="#000000" font-family="sans-serif" font-size="12" lengthAdjust="spacingAndGlyphs" textLength="111" x="289.75" y="329.1543">ProposalController</text><line style="stroke:#A80036;stroke-width:1.5;" x1="191.5" x2="466.5" y1="341" y2="341"/><line style="stroke:#A80036;stroke-width:1.5;" x1="191.5" x2="466.5" y1="349" y2="349"/><ellipse cx="201.5" cy="360" fill="#84BE84" rx="3" ry="3" style="stroke:#038048;stroke-width:1.0;"/><text fill="#000000" font-family="sans-serif" font-size="11" lengthAdjust="spacingAndGlyphs" textLength="183" x="210.5" y="363.2104">ProposalController(Game, State)</text><ellipse cx="201.5" cy="372.8047" fill="#84BE84" rx="3" ry="3" style="stroke:#038048;stroke-width:1.0;"/><text fill="#000000" font-family="sans-serif" font-size="11" lengthAdjust="spacingAndGlyphs" textLength="251" x="210.5" y="376.0151">addProposedCombination(List&lt;Color&gt;): Error</text><ellipse cx="201.5" cy="385.6094" fill="#84BE84" rx="3" ry="3" style="stroke:#038048;stroke-width:1.0;"/><text fill="#000000" font-family="sans-serif" font-size="11" lengthAdjust="spacingAndGlyphs" textLength="110" x="210.5" y="388.8198">isWinner(): boolean</text><ellipse cx="201.5" cy="398.4141" fill="#84BE84" rx="3" ry="3" style="stroke:#038048;stroke-width:1.0;"/><text fill="#000000" font-family="sans-serif" font-size="11" lengthAdjust="spacingAndGlyphs" textLength="108" x="210.5" y="401.6245">isLooser(): boolean</text><ellipse cx="201.5" cy="411.2188" fill="#84BE84" rx="3" ry="3" style="stroke:#038048;stroke-width:1.0;"/><text fill="#000000" font-family="sans-serif" font-size="11" lengthAdjust="spacingAndGlyphs" textLength="100" x="210.5" y="414.4292">getAttempts(): int</text><ellipse cx="201.5" cy="424.0234" fill="#84BE84" rx="3" ry="3" style="stroke:#038048;stroke-width:1.0;"/><text fill="#000000" font-family="sans-serif" font-size="11" lengthAdjust="spacingAndGlyphs" textLength="149" x="210.5" y="427.2339">getColors(int): List&lt;Color&gt;</text><ellipse cx="201.5" cy="436.8281" fill="#84BE84" rx="3" ry="3" style="stroke:#038048;stroke-width:1.0;"/><text fill="#000000" font-family="sans-serif" font-size="11" lengthAdjust="spacingAndGlyphs" textLength="98" x="210.5" y="440.0386">getBlacks(int): int</text><ellipse cx="201.5" cy="449.6328" fill="#84BE84" rx="3" ry="3" style="stroke:#038048;stroke-width:1.0;"/><text fill="#000000" font-family="sans-serif" font-size="11" lengthAdjust="spacingAndGlyphs" textLength="101" x="210.5" y="452.8433">getWhites(int): int</text><!--MD5=[28491d17d5ee38c9c116625a5ffc259a]
class Combination--><rect codeLine="1" fill="#FEFECE" filter="url(#f1d5jtb3wyi7xo)" height="67.9063" id="Combination" style="stroke:#A80036;stroke-width:1.5;" width="156" x="7" y="519"/><ellipse cx="22" cy="544.9531" fill="#A9DCDF" rx="11" ry="11" style="stroke:#A80036;stroke-width:1.0;"/><path d="M24.0781,546.7656 L24.4688,547.75 L24.0781,547.75 C23.625,547.75 23.5156,547.7656 23.3594,547.875 C23.1094,548.0313 22.9531,548.3125 22.9531,548.6094 C22.9531,548.875 23.0938,549.125 23.3125,549.2813 C23.4531,549.4063 23.6563,549.4531 24.0781,549.4531 L26.4375,549.4531 C26.7969,549.4531 27.0156,549.4219 27.1563,549.3281 C27.4063,549.1875 27.5625,548.8906 27.5625,548.6094 C27.5625,548.3281 27.4219,548.0781 27.2031,547.9219 C27.0313,547.7813 26.875,547.75 26.4063,547.75 L23.0156,539.5469 L19.3438,539.5469 C18.8906,539.5469 18.7656,539.5625 18.6094,539.6563 C18.3594,539.8281 18.2031,540.1094 18.2031,540.3906 C18.2031,540.6719 18.3438,540.9219 18.5625,541.0938 C18.7344,541.2031 18.9063,541.2344 19.3438,541.2344 L20.4219,541.2344 L17.7813,547.75 C17.3594,547.75 17.2031,547.7656 17.0469,547.875 C16.7969,548.0313 16.6406,548.3125 16.6406,548.6094 C16.6406,549.1719 17.0156,549.4531 17.7656,549.4531 L20.0313,549.4531 C20.3906,549.4531 20.6094,549.4219 20.7344,549.3281 C21,549.1875 21.1406,548.8906 21.1406,548.6094 C21.1406,548.3281 21.0156,548.0781 20.7969,547.9063 C20.625,547.7813 20.4844,547.75 20.0313,547.75 L19.6406,547.75 L20.0313,546.7656 L24.0781,546.7656 Z M23.375,545.0625 L20.7031,545.0625 L22.0469,541.7969 L23.375,545.0625 Z " fill="#000000"/><text fill="#000000" font-family="sans-serif" font-size="12" font-style="italic" lengthAdjust="spacingAndGlyphs" textLength="74" x="61" y="535.1387">usantatecla.</text><text fill="#000000" font-family="sans-serif" font-size="12" font-style="italic" lengthAdjust="spacingAndGlyphs" textLength="124" x="36" y="549.1074">mastermind.models.</text><text fill="#000000" font-family="sans-serif" font-size="12" font-style="italic" lengthAdjust="spacingAndGlyphs" textLength="76" x="60" y="563.0762">Combination</text><line style="stroke:#A80036;stroke-width:1.5;" x1="8" x2="162" y1="570.9063" y2="570.9063"/><line style="stroke:#A80036;stroke-width:1.5;" x1="8" x2="162" y1="578.9063" y2="578.9063"/><!--MD5=[b6dcce5e5ef3c84b0b048d11301373dd]
class Game--><rect codeLine="2" fill="#FEFECE" filter="url(#f1d5jtb3wyi7xo)" height="67.9063" id="Game" style="stroke:#A80036;stroke-width:1.5;" width="154" x="754" y="519"/><ellipse cx="769" cy="544.9531" fill="#ADD1B2" rx="11" ry="11" style="stroke:#A80036;stroke-width:1.0;"/><path d="M771.3438,540.625 C770.4063,540.1875 769.8125,540.0469 768.9375,540.0469 C766.3125,540.0469 764.3125,542.125 764.3125,544.8438 L764.3125,545.9688 C764.3125,548.5469 766.4219,550.4375 769.3125,550.4375 C770.5313,550.4375 771.6875,550.1406 772.4375,549.5938 C773.0156,549.1875 773.3438,548.7344 773.3438,548.3438 C773.3438,547.8906 772.9531,547.5 772.4844,547.5 C772.2656,547.5 772.0625,547.5781 771.875,547.7656 C771.4219,548.25 771.4219,548.25 771.2344,548.3438 C770.8125,548.6094 770.125,548.7344 769.3594,548.7344 C767.3125,548.7344 766.0156,547.6406 766.0156,545.9375 L766.0156,544.8438 C766.0156,543.0625 767.2656,541.75 769,541.75 C769.5781,541.75 770.1875,541.9063 770.6563,542.1563 C771.1406,542.4375 771.3125,542.6563 771.4063,543.0625 C771.4688,543.4688 771.5,543.5938 771.6406,543.7188 C771.7813,543.8594 772.0156,543.9688 772.2344,543.9688 C772.5,543.9688 772.7656,543.8281 772.9375,543.6094 C773.0469,543.4531 773.0781,543.2656 773.0781,542.8438 L773.0781,541.4219 C773.0781,540.9844 773.0625,540.8594 772.9688,540.7031 C772.8125,540.4375 772.5313,540.2969 772.2344,540.2969 C771.9375,540.2969 771.7344,540.3906 771.5156,540.7031 L771.3438,540.625 Z " fill="#000000"/><text fill="#000000" font-family="sans-serif" font-size="12" lengthAdjust="spacingAndGlyphs" textLength="71" x="808.5" y="535.1387">usantatecla.</text><text fill="#000000" font-family="sans-serif" font-size="12" lengthAdjust="spacingAndGlyphs" textLength="122" x="783" y="549.1074">mastermind.models.</text><text fill="#000000" font-family="sans-serif" font-size="12" lengthAdjust="spacingAndGlyphs" textLength="35" x="826.5" y="563.0762">Game</text><line style="stroke:#A80036;stroke-width:1.5;" x1="755" x2="907" y1="570.9063" y2="570.9063"/><line style="stroke:#A80036;stroke-width:1.5;" x1="755" x2="907" y1="578.9063" y2="578.9063"/><!--MD5=[60d6b92408f98aed8df94d5c6e04aa63]
class State--><rect codeLine="3" fill="#FEFECE" filter="url(#f1d5jtb3wyi7xo)" height="67.9063" id="State" style="stroke:#A80036;stroke-width:1.5;" width="154" x="943" y="519"/><ellipse cx="958" cy="544.9531" fill="#ADD1B2" rx="11" ry="11" style="stroke:#A80036;stroke-width:1.0;"/><path d="M960.3438,540.625 C959.4063,540.1875 958.8125,540.0469 957.9375,540.0469 C955.3125,540.0469 953.3125,542.125 953.3125,544.8438 L953.3125,545.9688 C953.3125,548.5469 955.4219,550.4375 958.3125,550.4375 C959.5313,550.4375 960.6875,550.1406 961.4375,549.5938 C962.0156,549.1875 962.3438,548.7344 962.3438,548.3438 C962.3438,547.8906 961.9531,547.5 961.4844,547.5 C961.2656,547.5 961.0625,547.5781 960.875,547.7656 C960.4219,548.25 960.4219,548.25 960.2344,548.3438 C959.8125,548.6094 959.125,548.7344 958.3594,548.7344 C956.3125,548.7344 955.0156,547.6406 955.0156,545.9375 L955.0156,544.8438 C955.0156,543.0625 956.2656,541.75 958,541.75 C958.5781,541.75 959.1875,541.9063 959.6563,542.1563 C960.1406,542.4375 960.3125,542.6563 960.4063,543.0625 C960.4688,543.4688 960.5,543.5938 960.6406,543.7188 C960.7813,543.8594 961.0156,543.9688 961.2344,543.9688 C961.5,543.9688 961.7656,543.8281 961.9375,543.6094 C962.0469,543.4531 962.0781,543.2656 962.0781,542.8438 L962.0781,541.4219 C962.0781,540.9844 962.0625,540.8594 961.9688,540.7031 C961.8125,540.4375 961.5313,540.2969 961.2344,540.2969 C960.9375,540.2969 960.7344,540.3906 960.5156,540.7031 L960.3438,540.625 Z " fill="#000000"/><text fill="#000000" font-family="sans-serif" font-size="12" lengthAdjust="spacingAndGlyphs" textLength="71" x="997.5" y="535.1387">usantatecla.</text><text fill="#000000" font-family="sans-serif" font-size="12" lengthAdjust="spacingAndGlyphs" textLength="122" x="972" y="549.1074">mastermind.models.</text><text fill="#000000" font-family="sans-serif" font-size="12" lengthAdjust="spacingAndGlyphs" textLength="31" x="1017.5" y="563.0762">State</text><line style="stroke:#A80036;stroke-width:1.5;" x1="944" x2="1096" y1="570.9063" y2="570.9063"/><line style="stroke:#A80036;stroke-width:1.5;" x1="944" x2="1096" y1="578.9063" y2="578.9063"/><!--MD5=[cf489b19c51ee25e76ddca093e62e620]
class ProposedCombination--><rect codeLine="4" fill="#FEFECE" filter="url(#f1d5jtb3wyi7xo)" height="67.9063" id="ProposedCombination" style="stroke:#A80036;stroke-width:1.5;" width="164" x="198" y="519"/><ellipse cx="213" cy="544.9531" fill="#ADD1B2" rx="11" ry="11" style="stroke:#A80036;stroke-width:1.0;"/><path d="M215.3438,540.625 C214.4063,540.1875 213.8125,540.0469 212.9375,540.0469 C210.3125,540.0469 208.3125,542.125 208.3125,544.8438 L208.3125,545.9688 C208.3125,548.5469 210.4219,550.4375 213.3125,550.4375 C214.5313,550.4375 215.6875,550.1406 216.4375,549.5938 C217.0156,549.1875 217.3438,548.7344 217.3438,548.3438 C217.3438,547.8906 216.9531,547.5 216.4844,547.5 C216.2656,547.5 216.0625,547.5781 215.875,547.7656 C215.4219,548.25 215.4219,548.25 215.2344,548.3438 C214.8125,548.6094 214.125,548.7344 213.3594,548.7344 C211.3125,548.7344 210.0156,547.6406 210.0156,545.9375 L210.0156,544.8438 C210.0156,543.0625 211.2656,541.75 213,541.75 C213.5781,541.75 214.1875,541.9063 214.6563,542.1563 C215.1406,542.4375 215.3125,542.6563 215.4063,543.0625 C215.4688,543.4688 215.5,543.5938 215.6406,543.7188 C215.7813,543.8594 216.0156,543.9688 216.2344,543.9688 C216.5,543.9688 216.7656,543.8281 216.9375,543.6094 C217.0469,543.4531 217.0781,543.2656 217.0781,542.8438 L217.0781,541.4219 C217.0781,540.9844 217.0625,540.8594 216.9688,540.7031 C216.8125,540.4375 216.5313,540.2969 216.2344,540.2969 C215.9375,540.2969 215.7344,540.3906 215.5156,540.7031 L215.3438,540.625 Z " fill="#000000"/><text fill="#000000" font-family="sans-serif" font-size="12" lengthAdjust="spacingAndGlyphs" textLength="71" x="257.5" y="535.1387">usantatecla.</text><text fill="#000000" font-family="sans-serif" font-size="12" lengthAdjust="spacingAndGlyphs" textLength="122" x="232" y="549.1074">mastermind.models.</text><text fill="#000000" font-family="sans-serif" font-size="12" lengthAdjust="spacingAndGlyphs" textLength="132" x="227" y="563.0762">ProposedCombination</text><line style="stroke:#A80036;stroke-width:1.5;" x1="199" x2="361" y1="570.9063" y2="570.9063"/><line style="stroke:#A80036;stroke-width:1.5;" x1="199" x2="361" y1="578.9063" y2="578.9063"/><!--MD5=[167506e288131cdf3986fedef83acd94]
class StateValue--><rect codeLine="5" fill="#FEFECE" filter="url(#f1d5jtb3wyi7xo)" height="67.9063" id="StateValue" style="stroke:#A80036;stroke-width:1.5;" width="154" x="968" y="178"/><ellipse cx="983" cy="203.9531" fill="#EB937F" rx="11" ry="11" style="stroke:#A80036;stroke-width:1.0;"/><path d="M981.7969,204.8281 L983.25,204.8281 L983.25,204.9375 C983.25,205.3438 983.2813,205.5 983.3594,205.6563 C983.5156,205.9063 983.7969,206.0625 984.0938,206.0625 C984.3438,206.0625 984.6094,205.9219 984.7656,205.7031 C984.8906,205.5469 984.9219,205.3906 984.9219,204.9375 L984.9219,203.0156 C984.9219,202.8594 984.9219,202.8125 984.9063,202.6563 C984.8438,202.1875 984.5313,201.875 984.0781,201.875 C983.8281,201.875 983.5625,202.0156 983.3906,202.2344 C983.2813,202.4063 983.25,202.5625 983.25,203.0156 L983.25,203.1406 L981.7969,203.1406 L981.7969,200.7344 L985.7813,200.7344 L985.7813,201.5938 C985.7813,202 985.8125,202.1719 985.8906,202.3281 C986.0625,202.5781 986.3438,202.7344 986.625,202.7344 C986.8906,202.7344 987.1563,202.5938 987.3281,202.375 C987.4375,202.2031 987.4688,202.0625 987.4688,201.5938 L987.4688,199.0469 L979.8438,199.0469 C979.4063,199.0469 979.2813,199.0625 979.125,199.1563 C978.875,199.3125 978.7188,199.6094 978.7188,199.8906 C978.7188,200.1719 978.8594,200.4219 979.0781,200.5938 C979.2344,200.7031 979.4219,200.7344 979.8438,200.7344 L980.0938,200.7344 L980.0938,207.25 L979.8438,207.25 C979.4375,207.25 979.2813,207.2656 979.125,207.375 C978.875,207.5469 978.7188,207.8125 978.7188,208.1094 C978.7188,208.375 978.8594,208.625 979.0781,208.7813 C979.2188,208.9063 979.4531,208.9531 979.8438,208.9531 L987.8438,208.9531 L987.8438,206.375 C987.8438,205.9375 987.8125,205.7969 987.7344,205.6406 C987.5625,205.3906 987.2813,205.2344 987,205.2344 C986.7344,205.2344 986.4688,205.3438 986.2969,205.5938 C986.1875,205.75 986.1563,205.8906 986.1563,206.375 L986.1563,207.25 L981.7969,207.25 L981.7969,204.8281 Z " fill="#000000"/><text fill="#000000" font-family="sans-serif" font-size="12" lengthAdjust="spacingAndGlyphs" textLength="71" x="1022.5" y="194.1387">usantatecla.</text><text fill="#000000" font-family="sans-serif" font-size="12" lengthAdjust="spacingAndGlyphs" textLength="122" x="997" y="208.1074">mastermind.models.</text><text fill="#000000" font-family="sans-serif" font-size="12" lengthAdjust="spacingAndGlyphs" textLength="64" x="1026" y="222.0762">StateValue</text><line style="stroke:#A80036;stroke-width:1.5;" x1="969" x2="1121" y1="229.9063" y2="229.9063"/><line style="stroke:#A80036;stroke-width:1.5;" x1="969" x2="1121" y1="237.9063" y2="237.9063"/><!--MD5=[b8cfd8c4119a3b0a7a46bfc5fc780f85]
class Error--><rect codeLine="6" fill="#FEFECE" filter="url(#f1d5jtb3wyi7xo)" height="67.9063" id="Error" style="stroke:#A80036;stroke-width:1.5;" width="143" x="397.5" y="519"/><ellipse cx="412.5" cy="544.9531" fill="#EB937F" rx="11" ry="11" style="stroke:#A80036;stroke-width:1.0;"/><path d="M411.2969,545.8281 L412.75,545.8281 L412.75,545.9375 C412.75,546.3438 412.7813,546.5 412.8594,546.6563 C413.0156,546.9063 413.2969,547.0625 413.5938,547.0625 C413.8438,547.0625 414.1094,546.9219 414.2656,546.7031 C414.3906,546.5469 414.4219,546.3906 414.4219,545.9375 L414.4219,544.0156 C414.4219,543.8594 414.4219,543.8125 414.4063,543.6563 C414.3438,543.1875 414.0313,542.875 413.5781,542.875 C413.3281,542.875 413.0625,543.0156 412.8906,543.2344 C412.7813,543.4063 412.75,543.5625 412.75,544.0156 L412.75,544.1406 L411.2969,544.1406 L411.2969,541.7344 L415.2813,541.7344 L415.2813,542.5938 C415.2813,543 415.3125,543.1719 415.3906,543.3281 C415.5625,543.5781 415.8438,543.7344 416.125,543.7344 C416.3906,543.7344 416.6563,543.5938 416.8281,543.375 C416.9375,543.2031 416.9688,543.0625 416.9688,542.5938 L416.9688,540.0469 L409.3438,540.0469 C408.9063,540.0469 408.7813,540.0625 408.625,540.1563 C408.375,540.3125 408.2188,540.6094 408.2188,540.8906 C408.2188,541.1719 408.3594,541.4219 408.5781,541.5938 C408.7344,541.7031 408.9219,541.7344 409.3438,541.7344 L409.5938,541.7344 L409.5938,548.25 L409.3438,548.25 C408.9375,548.25 408.7813,548.2656 408.625,548.375 C408.375,548.5469 408.2188,548.8125 408.2188,549.1094 C408.2188,549.375 408.3594,549.625 408.5781,549.7813 C408.7188,549.9063 408.9531,549.9531 409.3438,549.9531 L417.3438,549.9531 L417.3438,547.375 C417.3438,546.9375 417.3125,546.7969 417.2344,546.6406 C417.0625,546.3906 416.7813,546.2344 416.5,546.2344 C416.2344,546.2344 415.9688,546.3438 415.7969,546.5938 C415.6875,546.75 415.6563,546.8906 415.6563,547.375 L415.6563,548.25 L411.2969,548.25 L411.2969,545.8281 Z " fill="#000000"/><text fill="#000000" font-family="sans-serif" font-size="12" lengthAdjust="spacingAndGlyphs" textLength="71" x="446.5" y="535.1387">usantatecla.</text><text fill="#000000" font-family="sans-serif" font-size="12" lengthAdjust="spacingAndGlyphs" textLength="111" x="426.5" y="549.1074">mastermind.types.</text><text fill="#000000" font-family="sans-serif" font-size="12" lengthAdjust="spacingAndGlyphs" textLength="30" x="467" y="563.0762">Error</text><line style="stroke:#A80036;stroke-width:1.5;" x1="398.5" x2="539.5" y1="570.9063" y2="570.9063"/><line style="stroke:#A80036;stroke-width:1.5;" x1="398.5" x2="539.5" y1="578.9063" y2="578.9063"/><!--MD5=[18eee71c88ab61f27581b8cbdd3ef5ee]
class Color--><rect codeLine="7" fill="#FEFECE" filter="url(#f1d5jtb3wyi7xo)" height="67.9063" id="Color" style="stroke:#A80036;stroke-width:1.5;" width="143" x="575.5" y="519"/><ellipse cx="590.5" cy="544.9531" fill="#EB937F" rx="11" ry="11" style="stroke:#A80036;stroke-width:1.0;"/><path d="M589.2969,545.8281 L590.75,545.8281 L590.75,545.9375 C590.75,546.3438 590.7813,546.5 590.8594,546.6563 C591.0156,546.9063 591.2969,547.0625 591.5938,547.0625 C591.8438,547.0625 592.1094,546.9219 592.2656,546.7031 C592.3906,546.5469 592.4219,546.3906 592.4219,545.9375 L592.4219,544.0156 C592.4219,543.8594 592.4219,543.8125 592.4063,543.6563 C592.3438,543.1875 592.0313,542.875 591.5781,542.875 C591.3281,542.875 591.0625,543.0156 590.8906,543.2344 C590.7813,543.4063 590.75,543.5625 590.75,544.0156 L590.75,544.1406 L589.2969,544.1406 L589.2969,541.7344 L593.2813,541.7344 L593.2813,542.5938 C593.2813,543 593.3125,543.1719 593.3906,543.3281 C593.5625,543.5781 593.8438,543.7344 594.125,543.7344 C594.3906,543.7344 594.6563,543.5938 594.8281,543.375 C594.9375,543.2031 594.9688,543.0625 594.9688,542.5938 L594.9688,540.0469 L587.3438,540.0469 C586.9063,540.0469 586.7813,540.0625 586.625,540.1563 C586.375,540.3125 586.2188,540.6094 586.2188,540.8906 C586.2188,541.1719 586.3594,541.4219 586.5781,541.5938 C586.7344,541.7031 586.9219,541.7344 587.3438,541.7344 L587.5938,541.7344 L587.5938,548.25 L587.3438,548.25 C586.9375,548.25 586.7813,548.2656 586.625,548.375 C586.375,548.5469 586.2188,548.8125 586.2188,549.1094 C586.2188,549.375 586.3594,549.625 586.5781,549.7813 C586.7188,549.9063 586.9531,549.9531 587.3438,549.9531 L595.3438,549.9531 L595.3438,547.375 C595.3438,546.9375 595.3125,546.7969 595.2344,546.6406 C595.0625,546.3906 594.7813,546.2344 594.5,546.2344 C594.2344,546.2344 593.9688,546.3438 593.7969,546.5938 C593.6875,546.75 593.6563,546.8906 593.6563,547.375 L593.6563,548.25 L589.2969,548.25 L589.2969,545.8281 Z " fill="#000000"/><text fill="#000000" font-family="sans-serif" font-size="12" lengthAdjust="spacingAndGlyphs" textLength="71" x="624.5" y="535.1387">usantatecla.</text><text fill="#000000" font-family="sans-serif" font-size="12" lengthAdjust="spacingAndGlyphs" textLength="111" x="604.5" y="549.1074">mastermind.types.</text><text fill="#000000" font-family="sans-serif" font-size="12" lengthAdjust="spacingAndGlyphs" textLength="32" x="644" y="563.0762">Color</text><line style="stroke:#A80036;stroke-width:1.5;" x1="576.5" x2="717.5" y1="570.9063" y2="570.9063"/><line style="stroke:#A80036;stroke-width:1.5;" x1="576.5" x2="717.5" y1="578.9063" y2="578.9063"/><!--MD5=[b1534f62db7bd0c312bb47cb18cac355]
link usantatecla.mastermind.controllers.Controller to Game--><path codeLine="13" d="M821.814,227.9532 C821.814,227.9532 924.091,265.158 953,309 C995.571,373.561 991.964,416.2 953,483 C944.874,496.9318 932.777,508.2748 919.311,517.4356 " fill="none" id="usantatecla.mastermind.controllers.Controller-Game" style="stroke:#A80036;stroke-width:1.0;"/><polygon fill="#A80036" points="908.268,524.3224,918.0214,522.9545,912.5107,521.6768,913.7884,516.1661,908.268,524.3224" style="stroke:#A80036;stroke-width:1.0;"/><line style="stroke:#A80036;stroke-width:1.0;" x1="912.5107" x2="919.2985" y1="521.6768" y2="517.4435"/><polygon fill="#A80036" points="810.19,224.973,815.0086,230.3378,821.814,227.9532,816.9954,222.5884,810.19,224.973" style="stroke:#A80036;stroke-width:1.0;"/><!--MD5=[e38476471b755b5fe78a9c6017ac6ee4]
link usantatecla.mastermind.controllers.Controller to State--><path codeLine="14" d="M822.1316,221.7867 C822.1316,221.7867 954.099,256.677 995,309 C1038.97,365.249 1035.92,452.602 1028.68,505.8265 " fill="none" id="usantatecla.mastermind.controllers.Controller-State" style="stroke:#A80036;stroke-width:1.0;"/><polygon fill="#A80036" points="1026.72,518.9071,1032.0086,510.5986,1027.4604,513.9622,1024.0967,509.414,1026.72,518.9071" style="stroke:#A80036;stroke-width:1.0;"/><line style="stroke:#A80036;stroke-width:1.0;" x1="1027.4604" x2="1028.65" y1="513.9622" y2="506.0504"/><polygon fill="#A80036" points="810.304,219.76,815.5423,224.7159,822.1316,221.7867,816.8934,216.8308,810.304,219.76" style="stroke:#A80036;stroke-width:1.0;"/><!--MD5=[bcb04731f9fe2ebc3bb43e51b61da32e]
link usantatecla.mastermind.controllers.Controller to Combination--><path codeLine="15" d="M647.911,217.157 C511.422,225.724 243.735,249.763 173,309 C111.35,360.629 92.89,459.065 87.3625,513.4674 " fill="none" id="usantatecla.mastermind.controllers.Controller-to-Combination" style="stroke:#A80036;stroke-width:1.0;stroke-dasharray:7.0,7.0;"/><polygon fill="#A80036" points="86.8669,518.5917,91.7149,510.0187,87.3483,513.6149,83.752,509.2484,86.8669,518.5917" style="stroke:#A80036;stroke-width:1.0;"/><!--MD5=[98406596dc34fe0c5d6413d1091d84c2]
link usantatecla.mastermind.controllers.Logic to usantatecla.mastermind.controllers.Controller--><path codeLine="21" d="M806.0694,124.0503 C806.0694,124.0503 781.329,151.962 769.87,164.89 " fill="none" id="usantatecla.mastermind.controllers.Logic-usantatecla.mastermind.controllers.Controller" style="stroke:#A80036;stroke-width:1.0;"/><polygon fill="#A80036" points="760.932,174.974,769.8954,170.8927,764.2488,171.2325,763.909,165.5859,760.932,174.974" style="stroke:#A80036;stroke-width:1.0;"/><line style="stroke:#A80036;stroke-width:1.0;" x1="764.2488" x2="769.555" y1="171.2325" y2="165.2455"/><polygon fill="#A80036" points="814.029,115.07,807.0558,116.9069,806.0694,124.0503,813.0426,122.2133,814.029,115.07" style="stroke:#A80036;stroke-width:1.0;"/><!--MD5=[0ff8f89650a05932e406ed8572c4f29f]
link usantatecla.mastermind.controllers.Logic to Game--><path codeLine="22" d="M943.1361,82.6886 C943.1361,82.6886 1094.9,114.148 1139,175 C1158.3,201.631 1147.96,217.354 1139,249 C1105.74,366.499 1087.71,403.522 995,483 C982.526,493.6934 952.1,507.4143 920.796,519.8001 " fill="none" id="usantatecla.mastermind.controllers.Logic-Game" style="stroke:#A80036;stroke-width:1.0;"/><polygon fill="#A80036" points="908.323,524.6517,918.1608,525.1179,912.9831,522.8395,915.2614,517.6618,908.323,524.6517" style="stroke:#A80036;stroke-width:1.0;"/><line style="stroke:#A80036;stroke-width:1.0;" x1="912.9831" x2="920.439" y1="522.8395" y2="519.9389"/><polygon fill="#A80036" points="931.212,81.341,936.7248,85.9895,943.1361,82.6886,937.6232,78.0401,931.212,81.341" style="stroke:#A80036;stroke-width:1.0;"/><!--MD5=[f1f29f0dfa0e00be085894473cdc58fa]
link usantatecla.mastermind.controllers.Logic to State--><path codeLine="23" d="M943.1563,94.6223 C943.1563,94.6223 1143.61,138.355 1171,175 C1250.41,281.262 1131.53,434.971 1062.93,508.9838 " fill="none" id="usantatecla.mastermind.controllers.Logic-State" style="stroke:#A80036;stroke-width:1.0;"/><polygon fill="#A80036" points="1053.61,518.8851,1062.6902,515.0706,1057.0359,515.2433,1056.8633,509.5891,1053.61,518.8851" style="stroke:#A80036;stroke-width:1.0;"/><line style="stroke:#A80036;stroke-width:1.0;" x1="1057.0359" x2="1062.525" y1="515.2433" y2="509.4188"/><polygon fill="#A80036" points="931.354,92.453,936.5321,97.4717,943.1563,94.6223,937.9782,89.6035,931.354,92.453" style="stroke:#A80036;stroke-width:1.0;"/><!--MD5=[d4e971768f4879fedf61c3b3dae7f6ab]
link usantatecla.mastermind.controllers.Logic to StateValue--><path codeLine="24" d="M910.378,121.7033 C910.378,121.7033 961.091,155.342 984.11,170.61 " fill="none" id="usantatecla.mastermind.controllers.Logic-StateValue" style="stroke:#A80036;stroke-width:1.0;"/><polygon fill="#A80036" points="995.121,177.914,989.8328,169.6052,990.9546,175.1498,985.4101,176.2715,995.121,177.914" style="stroke:#A80036;stroke-width:1.0;"/><line style="stroke:#A80036;stroke-width:1.0;" x1="990.9546" x2="984.2875" y1="175.1498" y2="170.7285"/><polygon fill="#A80036" points="900.378,115.07,903.1669,121.72,910.378,121.7033,907.5891,115.0533,900.378,115.07" style="stroke:#A80036;stroke-width:1.0;"/><!--MD5=[07f4f2174253deef40735c6f426cde58]
link usantatecla.mastermind.controllers.Logic to usantatecla.mastermind.controllers.ResumeController--><path codeLine="25" d="M844.22,115.067 C841.418,171.86 835.993,281.817 833.038,341.698 " fill="none" id="usantatecla.mastermind.controllers.Logic-to-usantatecla.mastermind.controllers.ResumeController" style="stroke:#A80036;stroke-width:1.0;stroke-dasharray:7.0,7.0;"/><polygon fill="#A80036" points="832.777,346.98,837.2169,338.1887,833.0241,341.9861,829.2267,337.7933,832.777,346.98" style="stroke:#A80036;stroke-width:1.0;"/><!--MD5=[7b4d3b9373751c5d43acf45bd3655ae0]
link usantatecla.mastermind.controllers.Logic to usantatecla.mastermind.controllers.StartController--><path codeLine="26" d="M760.917,96.077 C715.153,109.718 661.746,133.667 630,175 C593.115,223.024 590.143,295.966 592.643,341.485 " fill="none" id="usantatecla.mastermind.controllers.Logic-to-usantatecla.mastermind.controllers.StartController" style="stroke:#A80036;stroke-width:1.0;stroke-dasharray:7.0,7.0;"/><polygon fill="#A80036" points="592.954,346.622,596.4014,337.3962,592.6511,341.6312,588.4161,337.8809,592.954,346.622" style="stroke:#A80036;stroke-width:1.0;"/><!--MD5=[088f8298878c55cb33bba93d6bb32650]
link usantatecla.mastermind.controllers.Logic to usantatecla.mastermind.controllers.PlayController--><path codeLine="27" d="M760.958,103.652 C709.924,120.214 644.709,144.566 591,175 C526.734,211.416 461.655,262.989 412.434,305.669 " fill="none" id="usantatecla.mastermind.controllers.Logic-to-usantatecla.mastermind.controllers.PlayController" style="stroke:#A80036;stroke-width:1.0;stroke-dasharray:7.0,7.0;"/><polygon fill="#A80036" points="408.62,308.986,418.0365,306.0999,412.3934,305.7055,412.7877,300.0624,408.62,308.986" style="stroke:#A80036;stroke-width:1.0;"/><!--MD5=[355b9902740da4b2ec85e8089918fd93]
reverse link usantatecla.mastermind.controllers.Controller to usantatecla.mastermind.controllers.PlayController--><path codeLine="39" d="M629.13,250.526 C584.712,267.669 531.951,288.656 485,309 C479.361,311.443 473.626,313.97 467.844,316.55 " fill="none" id="usantatecla.mastermind.controllers.Controller-backto-usantatecla.mastermind.controllers.PlayController" style="stroke:#A80036;stroke-width:1.0;"/><polygon fill="none" points="626.754,243.941,647.934,243.306,631.773,257.01,626.754,243.941" style="stroke:#A80036;stroke-width:1.0;"/><!--MD5=[765bda7c14cd5ed1cc66a669d2aefa21]
link usantatecla.mastermind.controllers.PlayController to Combination--><path codeLine="40" d="M220.557,459.221 C191.681,478.985 161.779,499.4505 137.43,516.1155 " fill="none" id="usantatecla.mastermind.controllers.PlayController-to-Combination" style="stroke:#A80036;stroke-width:1.0;stroke-dasharray:7.0,7.0;"/><polygon fill="#A80036" points="133.261,518.9688,142.9471,517.1859,137.387,516.1445,138.4283,510.5844,133.261,518.9688" style="stroke:#A80036;stroke-width:1.0;"/><!--MD5=[3031187462b747cbd09689bb5fb1dcf3]
link usantatecla.mastermind.controllers.PlayController to Game--><path codeLine="41" d="M434.216,459.204 C450.658,468.378 467.885,476.72 485,483 C590.8,521.8212 626.49,492.3877 736,519 C740.207,520.0224 744.49,521.1563 748.796,522.3706 " fill="none" id="usantatecla.mastermind.controllers.PlayController-to-Game" style="stroke:#A80036;stroke-width:1.0;stroke-dasharray:7.0,7.0;"/><polygon fill="#A80036" points="753.857,523.8311,746.3182,517.4934,749.0529,522.4453,744.101,525.1801,753.857,523.8311" style="stroke:#A80036;stroke-width:1.0;"/><!--MD5=[ec680f51ba52a3c26de014fa2ed0d831]
link usantatecla.mastermind.controllers.PlayController to State--><path codeLine="42" d="M432.152,459.197 C449.157,468.624 467.095,477.041 485,483 C671.17,544.957 733.019,478.486 925,519 C929.236,519.894 933.543,520.9244 937.867,522.0564 " fill="none" id="usantatecla.mastermind.controllers.PlayController-to-State" style="stroke:#A80036;stroke-width:1.0;stroke-dasharray:7.0,7.0;"/><polygon fill="#A80036" points="942.948,523.4299,935.3048,517.2185,938.1215,522.1242,933.2157,524.9409,942.948,523.4299" style="stroke:#A80036;stroke-width:1.0;"/><!--MD5=[87e0934b81fc2a23f4913978547fcb00]
link usantatecla.mastermind.controllers.PlayController to ProposedCombination--><path codeLine="43" d="M307.223,459.221 C301.663,478.168 295.915,497.7604 291.141,514.0305 " fill="none" id="usantatecla.mastermind.controllers.PlayController-to-ProposedCombination" style="stroke:#A80036;stroke-width:1.0;stroke-dasharray:7.0,7.0;"/><polygon fill="#A80036" points="289.692,518.9688,296.0637,511.4587,291.0995,514.171,288.3872,509.2068,289.692,518.9688" style="stroke:#A80036;stroke-width:1.0;"/><!--MD5=[aec0234761dc3837780669c056a8373c]
link usantatecla.mastermind.controllers.PlayController to Error--><path codeLine="44" d="M391.221,459.221 C407.379,478.495 424.096,498.4361 437.872,514.869 " fill="none" id="usantatecla.mastermind.controllers.PlayController-to-Error" style="stroke:#A80036;stroke-width:1.0;stroke-dasharray:7.0,7.0;"/><polygon fill="#A80036" points="441.309,518.9688,438.5922,509.5021,438.0967,515.1372,432.4616,514.6417,441.309,518.9688" style="stroke:#A80036;stroke-width:1.0;"/><!--MD5=[69852a3216d5517651367a7065e7f1c9]
link usantatecla.mastermind.controllers.PlayController to Color--><path codeLine="45" d="M442.371,459.105 C456.533,467.501 470.97,475.664 485,483 C512.273,497.2604 543.15,510.976 570.577,522.3697 " fill="none" id="usantatecla.mastermind.controllers.PlayController-to-Color" style="stroke:#A80036;stroke-width:1.0;stroke-dasharray:7.0,7.0;"/><polygon fill="#A80036" points="575.302,524.3234,568.5146,517.1868,570.6817,522.412,565.4565,524.5792,575.302,524.3234" style="stroke:#A80036;stroke-width:1.0;"/><!--MD5=[933c3a87fb1e2f64e4c2436935a9c1c3]
reverse link usantatecla.mastermind.controllers.Controller to usantatecla.mastermind.controllers.ResumeController--><path codeLine="51" d="M761,266.334 C776.759,292.599 795.342,323.57 809.4,346.999 " fill="none" id="usantatecla.mastermind.controllers.Controller-backto-usantatecla.mastermind.controllers.ResumeController" style="stroke:#A80036;stroke-width:1.0;"/><polygon fill="none" points="754.919,269.804,750.632,249.053,766.924,262.601,754.919,269.804" style="stroke:#A80036;stroke-width:1.0;"/><!--MD5=[5463db7e495f29b5e5c71a16eed29f43]
link usantatecla.mastermind.controllers.ResumeController to Game--><path codeLine="52" d="M831,421.237 C831,448.6 831,486.061 831,513.875 " fill="none" id="usantatecla.mastermind.controllers.ResumeController-to-Game" style="stroke:#A80036;stroke-width:1.0;stroke-dasharray:7.0,7.0;"/><polygon fill="#A80036" points="831,518.9516,835,509.9516,831,513.9516,827,509.9516,831,518.9516" style="stroke:#A80036;stroke-width:1.0;"/><!--MD5=[a3d4593b829ad58c8f522129e7a78997]
link usantatecla.mastermind.controllers.ResumeController to State--><path codeLine="53" d="M872.01,421.237 C903.621,449.168 947.138,487.6197 978.797,515.5935 " fill="none" id="usantatecla.mastermind.controllers.ResumeController-to-State" style="stroke:#A80036;stroke-width:1.0;stroke-dasharray:7.0,7.0;"/><polygon fill="#A80036" points="982.598,518.9516,978.503,509.9944,978.8514,515.6405,973.2053,515.989,982.598,518.9516" style="stroke:#A80036;stroke-width:1.0;"/><!--MD5=[c885998b8df824bd1b8bf3ae6c5e9a62]
reverse link usantatecla.mastermind.controllers.Controller to usantatecla.mastermind.controllers.StartController--><path codeLine="59" d="M688.468,265.2 C667.889,291.704 643.408,323.232 624.953,346.999 " fill="none" id="usantatecla.mastermind.controllers.Controller-backto-usantatecla.mastermind.controllers.StartController" style="stroke:#A80036;stroke-width:1.0;"/><polygon fill="none" points="683.211,260.557,701.006,249.053,694.269,269.143,683.211,260.557" style="stroke:#A80036;stroke-width:1.0;"/><!--MD5=[70753de5d77fa864ad706701913b855c]
link usantatecla.mastermind.controllers.StartController to Game--><path codeLine="60" d="M634.272,421.048 C655.334,440.517 682.654,464.319 709,483 C725.652,494.8073 744.492,506.2858 762.297,516.383 " fill="none" id="usantatecla.mastermind.controllers.StartController-to-Game" style="stroke:#A80036;stroke-width:1.0;stroke-dasharray:7.0,7.0;"/><polygon fill="#A80036" points="766.799,518.9197,760.9213,511.017,762.4428,516.4654,756.9944,517.9869,766.799,518.9197" style="stroke:#A80036;stroke-width:1.0;"/><!--MD5=[51fde01f54ec802bc6f8a9b5df200d4d]
link usantatecla.mastermind.controllers.StartController to State--><path codeLine="61" d="M628.678,421.436 C649.358,442.813 678.172,468.412 709,483 C796.972,524.6293 830.695,494.9463 925,519 C929.195,520.07 933.469,521.2424 937.767,522.4872 " fill="none" id="usantatecla.mastermind.controllers.StartController-to-State" style="stroke:#A80036;stroke-width:1.0;stroke-dasharray:7.0,7.0;"/><polygon fill="#A80036" points="942.82,523.98,935.3227,517.5932,938.025,522.5629,933.0554,525.2652,942.82,523.98" style="stroke:#A80036;stroke-width:1.0;"/><!--MD5=[8490596174a0ebb884f8720bcd3c8c7e]
@startuml
abstract class Combination as "usantatecla.\nmastermind.models.\nCombination"
class Game as "usantatecla.\nmastermind.models.\nGame"
class State as "usantatecla.\nmastermind.models.\nState"
class ProposedCombination as "usantatecla.\nmastermind.models.\nProposedCombination"
enum StateValue as "usantatecla.\nmastermind.models.\nStateValue"
enum Error as "usantatecla.\nmastermind.types.\nError"
enum Color as "usantatecla.\nmastermind.types.\nColor"

abstract class  usantatecla.mastermind.controllers.Controller{
    ~ Controller(Game, State)
    + getWidth(): int
}
usantatecla.mastermind.controllers.Controller *-down-> Game
usantatecla.mastermind.controllers.Controller *-down-> State
usantatecla.mastermind.controllers.Controller .down.> Combination

class  usantatecla.mastermind.controllers.Logic{
    + Logic()
    + getController(): Controller
}
usantatecla.mastermind.controllers.Logic *-down-> usantatecla.mastermind.controllers.Controller
usantatecla.mastermind.controllers.Logic *-down-> Game
usantatecla.mastermind.controllers.Logic *-down-> State
usantatecla.mastermind.controllers.Logic *-down-> StateValue
usantatecla.mastermind.controllers.Logic .down.> usantatecla.mastermind.controllers.ResumeController
usantatecla.mastermind.controllers.Logic .down.> usantatecla.mastermind.controllers.StartController
usantatecla.mastermind.controllers.Logic .down.> usantatecla.mastermind.controllers.PlayController

class  usantatecla.mastermind.controllers.PlayController{
    + ProposalController(Game, State)
    + addProposedCombination(List<Color>): Error
    + isWinner(): boolean
    + isLooser(): boolean
    + getAttempts(): int
    + getColors(int): List<Color>
    + getBlacks(int): int
    + getWhites(int): int
}
usantatecla.mastermind.controllers.Controller <|-down- usantatecla.mastermind.controllers.PlayController
usantatecla.mastermind.controllers.PlayController .down.> Combination
usantatecla.mastermind.controllers.PlayController .down.> Game
usantatecla.mastermind.controllers.PlayController .down.> State
usantatecla.mastermind.controllers.PlayController .down.> ProposedCombination
usantatecla.mastermind.controllers.PlayController .down.> Error
usantatecla.mastermind.controllers.PlayController .down.> Color

class  usantatecla.mastermind.controllers.ResumeController{
    + ResumeController(Game, State)
    + resume(boolean)
}
usantatecla.mastermind.controllers.Controller <|-down- usantatecla.mastermind.controllers.ResumeController
usantatecla.mastermind.controllers.ResumeController .down.> Game
usantatecla.mastermind.controllers.ResumeController .down.> State

class  usantatecla.mastermind.controllers.StartController{
    + StartController(Game, State)
    + start()
}
usantatecla.mastermind.controllers.Controller <|-down- usantatecla.mastermind.controllers.StartController
usantatecla.mastermind.controllers.StartController .down.> Game
usantatecla.mastermind.controllers.StartController .down.> State
@enduml

PlantUML version 1.2020.23beta3(Unknown compile time)
(GPL source distribution)
Java Runtime: Java(TM) SE Runtime Environment
JVM: Java HotSpot(TM) 64-Bit Server VM
Default Encoding: UTF-8
Language: en
Country: US
--></g></svg>