<?xml version="1.0" encoding="UTF-8" standalone="no"?><svg xmlns="http://www.w3.org/2000/svg" xmlns:xlink="http://www.w3.org/1999/xlink" contentScriptType="application/ecmascript" contentStyleType="text/css" height="159px" preserveAspectRatio="none" style="width:1866px;height:159px;" version="1.1" viewBox="0 0 1866 159" width="1866px" zoomAndPan="magnify"><defs><filter height="300%" id="fnvdturun5wdb" width="300%" x="-1" y="-1"><feGaussianBlur result="blurOut" stdDeviation="2.0"/><feColorMatrix in="blurOut" result="blurOut2" type="matrix" values="0 0 0 0 0 0 0 0 0 0 0 0 0 0 0 0 0 0 .4 0"/><feOffset dx="4.0" dy="4.0" in="blurOut2" result="blurOut3"/><feBlend in="SourceGraphic" in2="blurOut3" mode="normal"/></filter></defs><g><!--MD5=[6a8eef24a865597df0dc119d71c20fa1]
entity usantatecla.mastermind--><polygon fill="#FFFFFF" filter="url(#fnvdturun5wdb)" points="16,113,223,113,230,135.2969,247,135.2969,247,152.2969,16,152.2969,16,113" style="stroke:#000000;stroke-width:1.5;"/><line style="stroke:#000000;stroke-width:1.5;" x1="16" x2="230" y1="135.2969" y2="135.2969"/><text fill="#000000" font-family="sans-serif" font-size="14" font-weight="bold" lengthAdjust="spacingAndGlyphs" textLength="201" x="20" y="128.9951">usantatecla.mastermind</text><!--MD5=[d4e593d76a1ee4330d2b2843b37cc7bc]
entity usantatecla.mastermind.controllers--><polygon fill="#FFFFFF" filter="url(#fnvdturun5wdb)" points="282,113,583,113,590,135.2969,607,135.2969,607,152.2969,282,152.2969,282,113" style="stroke:#000000;stroke-width:1.5;"/><line style="stroke:#000000;stroke-width:1.5;" x1="282" x2="590" y1="135.2969" y2="135.2969"/><text fill="#000000" font-family="sans-serif" font-size="14" font-weight="bold" lengthAdjust="spacingAndGlyphs" textLength="295" x="286" y="128.9951">usantatecla.mastermind.controllers</text><!--MD5=[a18a8a1618c58d11a8fd222203fd8af2]
entity usantatecla.mastermind.models--><polygon fill="#FFFFFF" filter="url(#fnvdturun5wdb)" points="642.5,113,912.5,113,919.5,135.2969,936.5,135.2969,936.5,152.2969,642.5,152.2969,642.5,113" style="stroke:#000000;stroke-width:1.5;"/><line style="stroke:#000000;stroke-width:1.5;" x1="642.5" x2="919.5" y1="135.2969" y2="135.2969"/><text fill="#000000" font-family="sans-serif" font-size="14" font-weight="bold" lengthAdjust="spacingAndGlyphs" textLength="264" x="646.5" y="128.9951">usantatecla.mastermind.models</text><!--MD5=[d9d3a2b7fd30791a054c299cd80fb2ef]
entity usantatecla.mastermind.views--><polygon fill="#FFFFFF" filter="url(#fnvdturun5wdb)" points="972,113,1229,113,1236,135.2969,1253,135.2969,1253,152.2969,972,152.2969,972,113" style="stroke:#000000;stroke-width:1.5;"/><line style="stroke:#000000;stroke-width:1.5;" x1="972" x2="1236" y1="135.2969" y2="135.2969"/><text fill="#000000" font-family="sans-serif" font-size="14" font-weight="bold" lengthAdjust="spacingAndGlyphs" textLength="251" x="976" y="128.9951">usantatecla.mastermind.views</text><!--MD5=[612a536d1c85efa17c7d118cc1e7b020]
entity usantatecla.utils--><polygon fill="#FFFFFF" filter="url(#fnvdturun5wdb)" points="1288.5,113,1434.5,113,1441.5,135.2969,1458.5,135.2969,1458.5,152.2969,1288.5,152.2969,1288.5,113" style="stroke:#000000;stroke-width:1.5;"/><line style="stroke:#000000;stroke-width:1.5;" x1="1288.5" x2="1441.5" y1="135.2969" y2="135.2969"/><text fill="#000000" font-family="sans-serif" font-size="14" font-weight="bold" lengthAdjust="spacingAndGlyphs" textLength="140" x="1292.5" y="128.9951">usantatecla.utils</text><!--MD5=[48fa9072fd51d9920e6db8484beec696]
entity java.io--><polygon fill="#FFFFFF" filter="url(#fnvdturun5wdb)" points="1493.5,113,1553.5,113,1560.5,135.2969,1577.5,135.2969,1577.5,152.2969,1493.5,152.2969,1493.5,113" style="stroke:#000000;stroke-width:1.5;"/><line style="stroke:#000000;stroke-width:1.5;" x1="1493.5" x2="1560.5" y1="135.2969" y2="135.2969"/><text fill="#000000" font-family="sans-serif" font-size="14" font-weight="bold" lengthAdjust="spacingAndGlyphs" textLength="54" x="1497.5" y="128.9951">java.io</text><!--MD5=[034f0f7ed136bf78fc117f7e41f76e93]
entity java.util--><polygon fill="#FFFFFF" filter="url(#fnvdturun5wdb)" points="1613,113,1686,113,1693,135.2969,1710,135.2969,1710,152.2969,1613,152.2969,1613,113" style="stroke:#000000;stroke-width:1.5;"/><line style="stroke:#000000;stroke-width:1.5;" x1="1613" x2="1693" y1="135.2969" y2="135.2969"/><text fill="#000000" font-family="sans-serif" font-size="14" font-weight="bold" lengthAdjust="spacingAndGlyphs" textLength="67" x="1617" y="128.9951">java.util</text><!--MD5=[5fb961f6b473c9fb6d84812d19aee554]
entity java.lang--><polygon fill="#FFFFFF" filter="url(#fnvdturun5wdb)" points="1745.5,113,1825.5,113,1832.5,135.2969,1849.5,135.2969,1849.5,152.2969,1745.5,152.2969,1745.5,113" style="stroke:#000000;stroke-width:1.5;"/><line style="stroke:#000000;stroke-width:1.5;" x1="1745.5" x2="1832.5" y1="135.2969" y2="135.2969"/><text fill="#000000" font-family="sans-serif" font-size="14" font-weight="bold" lengthAdjust="spacingAndGlyphs" textLength="74" x="1749.5" y="128.9951">java.lang</text><!--MD5=[c2796faf4134bd8b5f3bc71f44d02e74]
entity jar--><rect fill="#FEFECE" filter="url(#fnvdturun5wdb)" height="46.2969" style="stroke:#A80036;stroke-width:1.5;" width="150" x="1167.5" y="7"/><rect fill="#FEFECE" height="10" style="stroke:#A80036;stroke-width:1.5;" width="15" x="1297.5" y="12"/><rect fill="#FEFECE" height="2" style="stroke:#A80036;stroke-width:1.5;" width="4" x="1295.5" y="14"/><rect fill="#FEFECE" height="2" style="stroke:#A80036;stroke-width:1.5;" width="4" x="1295.5" y="18"/><text fill="#000000" font-family="sans-serif" font-size="14" lengthAdjust="spacingAndGlyphs" textLength="110" x="1182.5" y="39.9951">mastermind.jar</text><!--MD5=[33871d850b885cae0f32fcf5f82e5a8f]
link jar to usantatecla.mastermind--><path d="M1155.237,36.7104 C1155.237,36.7104 591.735,76.5502 264.5,113 C263.081,113.1581 261.654,113.3192 260.219,113.4831 " fill="none" id="jar-usantatecla.mastermind" style="stroke:#A80036;stroke-width:1.0;"/><polygon fill="#A80036" points="247.153,115.0271,256.5603,117.9432,252.1184,114.4403,255.6214,109.9985,247.153,115.0271" style="stroke:#A80036;stroke-width:1.0;"/><line style="stroke:#A80036;stroke-width:1.0;" x1="252.1184" x2="260.063" y1="114.4403" y2="113.5015"/><polygon fill="#A80036" points="1167.21,35.906,1160.9553,32.3172,1155.237,36.7104,1161.4916,40.2992,1167.21,35.906" style="stroke:#A80036;stroke-width:1.0;"/><!--MD5=[f1af4d068a3921898a2ee622d8d8541e]
link jar to usantatecla.mastermind.controllers--><path d="M1155.5245,41.9582 C1155.5245,41.9582 770.257,90.4742 604.9,111.2992 " fill="none" id="jar-usantatecla.mastermind.controllers" style="stroke:#A80036;stroke-width:1.0;"/><polygon fill="#A80036" points="591.66,112.9667,601.0893,115.8109,596.6208,112.342,600.0897,107.8735,591.66,112.9667" style="stroke:#A80036;stroke-width:1.0;"/><line style="stroke:#A80036;stroke-width:1.0;" x1="596.6208" x2="604.5585" y1="112.342" y2="111.3423"/><polygon fill="#A80036" points="1167.43,40.455,1160.9762,37.2381,1155.5245,41.9582,1161.9783,45.1751,1167.43,40.455" style="stroke:#A80036;stroke-width:1.0;"/><!--MD5=[2390947b1b119a53a88c2001f23d7e65]
link jar to usantatecla.mastermind.models--><path d="M1155.7246,50.25 C1155.7246,50.25 965.755,92.3972 886.152,110.0572 " fill="none" id="jar-usantatecla.mastermind.models" style="stroke:#A80036;stroke-width:1.0;"/><polygon fill="#A80036" points="873.17,112.9374,882.8227,114.8931,878.0513,111.8544,881.09,107.083,873.17,112.9374" style="stroke:#A80036;stroke-width:1.0;"/><line style="stroke:#A80036;stroke-width:1.0;" x1="878.0513" x2="885.8615" y1="111.8544" y2="110.1217"/><polygon fill="#A80036" points="1167.44,47.652,1160.7163,45.0459,1155.7246,50.25,1162.4483,52.8561,1167.44,47.652" style="stroke:#A80036;stroke-width:1.0;"/><!--MD5=[9b931e9ad5c3902361053e698395b79d]
link jar to usantatecla.mastermind.views--><path d="M1204.4789,60.3981 C1204.4789,60.3981 1164.65,91.1859 1147.36,104.5483 " fill="none" id="jar-usantatecla.mastermind.views" style="stroke:#A80036;stroke-width:1.0;"/><polygon fill="#A80036" points="1136.6,112.868,1146.166,110.5245,1140.5546,109.8084,1141.2707,104.1971,1136.6,112.868" style="stroke:#A80036;stroke-width:1.0;"/><line style="stroke:#A80036;stroke-width:1.0;" x1="1140.5546" x2="1146.885" y1="109.8084" y2="104.917"/><polygon fill="#A80036" points="1213.97,53.0552,1206.7768,53.563,1204.4789,60.3981,1211.6721,59.8904,1213.97,53.0552" style="stroke:#A80036;stroke-width:1.0;"/><!--MD5=[8059cd5737844cbfa7541e4ee98eb909]
link jar to usantatecla.utils--><path d="M1280.7703,60.3603 C1280.7703,60.3603 1321.22,91.3893 1338.82,104.8911 " fill="none" id="jar-usantatecla.utils" style="stroke:#A80036;stroke-width:1.0;"/><polygon fill="#A80036" points="1349.21,112.868,1344.5048,104.2158,1345.2432,109.8242,1339.6348,110.5626,1349.21,112.868" style="stroke:#A80036;stroke-width:1.0;"/><line style="stroke:#A80036;stroke-width:1.0;" x1="1345.2432" x2="1338.9" y1="109.8242" y2="104.9551"/><polygon fill="#A80036" points="1271.25,53.0552,1273.5751,59.8812,1280.7703,60.3603,1278.4452,53.5343,1271.25,53.0552" style="stroke:#A80036;stroke-width:1.0;"/><!--MD5=[f17a38c250a1605cd3da9b9fac2ef94b]
link jar to java.io--><path d="M1318.1518,56.9457 C1318.1518,56.9457 1435.07,97.0523 1480.51,112.6388 " fill="none" id="jar-java.io" style="stroke:#A80036;stroke-width:1.0;"/><polygon fill="#A80036" points="1493.07,116.9468,1485.8529,110.245,1488.3401,115.3258,1483.2593,117.8129,1493.07,116.9468" style="stroke:#A80036;stroke-width:1.0;"/><line style="stroke:#A80036;stroke-width:1.0;" x1="1488.3401" x2="1480.775" y1="115.3258" y2="112.729"/><polygon fill="#A80036" points="1306.8,53.0552,1311.1791,58.7844,1318.1518,56.9457,1313.7727,51.2165,1306.8,53.0552" style="stroke:#A80036;stroke-width:1.0;"/><!--MD5=[a929e6d2b54380e4c3e4c2b17ce7cd9b]
link jar to java.util--><path d="M1329.5126,50.0708 C1329.5126,50.0708 1505.7,89.9979 1595.5,113 C1597.09,113.407 1598.7,113.8237 1600.32,114.248 " fill="none" id="jar-java.util" style="stroke:#A80036;stroke-width:1.0;"/><polygon fill="#A80036" points="1612.91,117.612,1605.2482,111.4235,1608.0796,116.3208,1603.1823,119.1522,1612.91,117.612" style="stroke:#A80036;stroke-width:1.0;"/><line style="stroke:#A80036;stroke-width:1.0;" x1="1608.0796" x2="1600.345" y1="116.3208" y2="114.2557"/><polygon fill="#A80036" points="1317.8,47.46,1322.786,52.6696,1329.5126,50.0708,1324.5265,44.8612,1317.8,47.46" style="stroke:#A80036;stroke-width:1.0;"/><!--MD5=[751ae5f16816c18b2927ba8f0f5e3e50]
link jar to java.lang--><path d="M1329.555,43.2727 C1329.555,43.2727 1589.85,83.2376 1727.5,113 C1729.12,113.3511 1730.77,113.7153 1732.42,114.0903 " fill="none" id="jar-java.lang" style="stroke:#A80036;stroke-width:1.0;"/><polygon fill="#A80036" points="1745.26,117.1382,1737.4261,111.1691,1740.395,115.9843,1735.5798,118.9532,1745.26,117.1382" style="stroke:#A80036;stroke-width:1.0;"/><line style="stroke:#A80036;stroke-width:1.0;" x1="1740.395" x2="1732.61" y1="115.9843" y2="114.1348"/><polygon fill="#A80036" points="1317.68,41.545,1323.0416,46.3672,1329.555,43.2727,1324.1934,38.4505,1317.68,41.545" style="stroke:#A80036;stroke-width:1.0;"/><!--MD5=[bdec5c5786eb922d1e0fdbf35a5d78c2]
@startuml
package "  "  as usantatecla.mastermind {
}
package "  "  as usantatecla.mastermind.controllers {
}
package "  "  as usantatecla.mastermind.models {
}
package "  "  as usantatecla.mastermind.views {
}
package "  "  as usantatecla.utils {
}
package "  "  as java.io {
}
package "  "  as java.util {
}
package "  "  as java.lang {
}

[mastermind.jar] as jar

jar *- -> usantatecla.mastermind
jar *- -> usantatecla.mastermind.controllers
jar *- -> usantatecla.mastermind.models
jar *- -> usantatecla.mastermind.views
jar *- -> usantatecla.utils
jar *- -> java.io
jar *- -> java.util
jar *- -> java.lang
@enduml

PlantUML version 1.2020.22(Sun Dec 06 09:36:27 UTC 2020)
(GPL source distribution)
Java Runtime: Java(TM) SE Runtime Environment
JVM: Java HotSpot(TM) 64-Bit Server VM
Default Encoding: UTF-8
Language: en
Country: US
--></g></svg>