<?xml version="1.0" encoding="UTF-8" standalone="no"?><svg xmlns="http://www.w3.org/2000/svg" xmlns:xlink="http://www.w3.org/1999/xlink" contentScriptType="application/ecmascript" contentStyleType="text/css" height="159px" preserveAspectRatio="none" style="width:2817px;height:159px;" version="1.1" viewBox="0 0 2817 159" width="2817px" zoomAndPan="magnify"><defs><filter height="300%" id="fa7qw1dnthyl7" width="300%" x="-1" y="-1"><feGaussianBlur result="blurOut" stdDeviation="2.0"/><feColorMatrix in="blurOut" result="blurOut2" type="matrix" values="0 0 0 0 0 0 0 0 0 0 0 0 0 0 0 0 0 0 .4 0"/><feOffset dx="4.0" dy="4.0" in="blurOut2" result="blurOut3"/><feBlend in="SourceGraphic" in2="blurOut3" mode="normal"/></filter></defs><g><!--MD5=[6a8eef24a865597df0dc119d71c20fa1]
entity usantatecla.mastermind--><polygon fill="#FFFFFF" filter="url(#fa7qw1dnthyl7)" points="16,113,223,113,230,135.2969,247,135.2969,247,152.2969,16,152.2969,16,113" style="stroke:#000000;stroke-width:1.5;"/><line style="stroke:#000000;stroke-width:1.5;" x1="16" x2="230" y1="135.2969" y2="135.2969"/><text fill="#000000" font-family="sans-serif" font-size="14" font-weight="bold" lengthAdjust="spacingAndGlyphs" textLength="201" x="20" y="128.9951">usantatecla.mastermind</text><!--MD5=[a18a8a1618c58d11a8fd222203fd8af2]
entity usantatecla.mastermind.models--><polygon fill="#FFFFFF" filter="url(#fa7qw1dnthyl7)" points="282.5,113,552.5,113,559.5,135.2969,576.5,135.2969,576.5,152.2969,282.5,152.2969,282.5,113" style="stroke:#000000;stroke-width:1.5;"/><line style="stroke:#000000;stroke-width:1.5;" x1="282.5" x2="559.5" y1="135.2969" y2="135.2969"/><text fill="#000000" font-family="sans-serif" font-size="14" font-weight="bold" lengthAdjust="spacingAndGlyphs" textLength="264" x="286.5" y="128.9951">usantatecla.mastermind.models</text><!--MD5=[a2f5bc19a32728c49bfc87935a3608a8]
entity usantatecla.mastermind.types--><polygon fill="#FFFFFF" filter="url(#fa7qw1dnthyl7)" points="612,113,869,113,876,135.2969,893,135.2969,893,152.2969,612,152.2969,612,113" style="stroke:#000000;stroke-width:1.5;"/><line style="stroke:#000000;stroke-width:1.5;" x1="612" x2="876" y1="135.2969" y2="135.2969"/><text fill="#000000" font-family="sans-serif" font-size="14" font-weight="bold" lengthAdjust="spacingAndGlyphs" textLength="251" x="616" y="128.9951">usantatecla.mastermind.types</text><!--MD5=[d4e593d76a1ee4330d2b2843b37cc7bc]
entity usantatecla.mastermind.controllers--><polygon fill="#FFFFFF" filter="url(#fa7qw1dnthyl7)" points="928,113,1229,113,1236,135.2969,1253,135.2969,1253,152.2969,928,152.2969,928,113" style="stroke:#000000;stroke-width:1.5;"/><line style="stroke:#000000;stroke-width:1.5;" x1="928" x2="1236" y1="135.2969" y2="135.2969"/><text fill="#000000" font-family="sans-serif" font-size="14" font-weight="bold" lengthAdjust="spacingAndGlyphs" textLength="295" x="932" y="128.9951">usantatecla.mastermind.controllers</text><!--MD5=[d9d3a2b7fd30791a054c299cd80fb2ef]
entity usantatecla.mastermind.views--><polygon fill="#FFFFFF" filter="url(#fa7qw1dnthyl7)" points="1288,113,1545,113,1552,135.2969,1569,135.2969,1569,152.2969,1288,152.2969,1288,113" style="stroke:#000000;stroke-width:1.5;"/><line style="stroke:#000000;stroke-width:1.5;" x1="1288" x2="1552" y1="135.2969" y2="135.2969"/><text fill="#000000" font-family="sans-serif" font-size="14" font-weight="bold" lengthAdjust="spacingAndGlyphs" textLength="251" x="1292" y="128.9951">usantatecla.mastermind.views</text><!--MD5=[4f1fdb516a2d9f9a754f02a50bc85008]
entity usantatecla.mastermind.views.console--><polygon fill="#FFFFFF" filter="url(#fa7qw1dnthyl7)" points="1604.5,113,1928.5,113,1935.5,135.2969,1952.5,135.2969,1952.5,152.2969,1604.5,152.2969,1604.5,113" style="stroke:#000000;stroke-width:1.5;"/><line style="stroke:#000000;stroke-width:1.5;" x1="1604.5" x2="1935.5" y1="135.2969" y2="135.2969"/><text fill="#000000" font-family="sans-serif" font-size="14" font-weight="bold" lengthAdjust="spacingAndGlyphs" textLength="318" x="1608.5" y="128.9951">usantatecla.mastermind.views.console</text><!--MD5=[78a8e49b09f83bc73057eebba2fb097f]
entity usantatecla.mastermind.views.graphics--><polygon fill="#FFFFFF" filter="url(#fa7qw1dnthyl7)" points="1987.5,113,2319.5,113,2326.5,135.2969,2343.5,135.2969,2343.5,152.2969,1987.5,152.2969,1987.5,113" style="stroke:#000000;stroke-width:1.5;"/><line style="stroke:#000000;stroke-width:1.5;" x1="1987.5" x2="2326.5" y1="135.2969" y2="135.2969"/><text fill="#000000" font-family="sans-serif" font-size="14" font-weight="bold" lengthAdjust="spacingAndGlyphs" textLength="326" x="1991.5" y="128.9951">usantatecla.mastermind.views.graphics</text><!--MD5=[612a536d1c85efa17c7d118cc1e7b020]
entity usantatecla.utils--><polygon fill="#FFFFFF" filter="url(#fa7qw1dnthyl7)" points="2378.5,113,2524.5,113,2531.5,135.2969,2548.5,135.2969,2548.5,152.2969,2378.5,152.2969,2378.5,113" style="stroke:#000000;stroke-width:1.5;"/><line style="stroke:#000000;stroke-width:1.5;" x1="2378.5" x2="2531.5" y1="135.2969" y2="135.2969"/><text fill="#000000" font-family="sans-serif" font-size="14" font-weight="bold" lengthAdjust="spacingAndGlyphs" textLength="140" x="2382.5" y="128.9951">usantatecla.utils</text><!--MD5=[48fa9072fd51d9920e6db8484beec696]
entity java.io--><polygon fill="#FFFFFF" filter="url(#fa7qw1dnthyl7)" points="2583.5,113,2643.5,113,2650.5,135.2969,2667.5,135.2969,2667.5,152.2969,2583.5,152.2969,2583.5,113" style="stroke:#000000;stroke-width:1.5;"/><line style="stroke:#000000;stroke-width:1.5;" x1="2583.5" x2="2650.5" y1="135.2969" y2="135.2969"/><text fill="#000000" font-family="sans-serif" font-size="14" font-weight="bold" lengthAdjust="spacingAndGlyphs" textLength="54" x="2587.5" y="128.9951">java.io</text><!--MD5=[034f0f7ed136bf78fc117f7e41f76e93]
entity java.util--><polygon fill="#FFFFFF" filter="url(#fa7qw1dnthyl7)" points="2703,113,2776,113,2783,135.2969,2800,135.2969,2800,152.2969,2703,152.2969,2703,113" style="stroke:#000000;stroke-width:1.5;"/><line style="stroke:#000000;stroke-width:1.5;" x1="2703" x2="2783" y1="135.2969" y2="135.2969"/><text fill="#000000" font-family="sans-serif" font-size="14" font-weight="bold" lengthAdjust="spacingAndGlyphs" textLength="67" x="2707" y="128.9951">java.util</text><!--MD5=[c2796faf4134bd8b5f3bc71f44d02e74]
entity jar--><rect fill="#FEFECE" filter="url(#fa7qw1dnthyl7)" height="46.2969" style="stroke:#A80036;stroke-width:1.5;" width="150" x="1528.5" y="7"/><rect fill="#FEFECE" height="10" style="stroke:#A80036;stroke-width:1.5;" width="15" x="1658.5" y="12"/><rect fill="#FEFECE" height="2" style="stroke:#A80036;stroke-width:1.5;" width="4" x="1656.5" y="14"/><rect fill="#FEFECE" height="2" style="stroke:#A80036;stroke-width:1.5;" width="4" x="1656.5" y="18"/><text fill="#000000" font-family="sans-serif" font-size="14" lengthAdjust="spacingAndGlyphs" textLength="110" x="1543.5" y="39.9951">mastermind.jar</text><!--MD5=[33871d850b885cae0f32fcf5f82e5a8f]
link jar to usantatecla.mastermind--><path d="M1516.2179,34.0112 C1516.2179,34.0112 734.657,65.9755 264.5,113 C263.079,113.1421 261.65,113.288 260.214,113.4374 " fill="none" id="jar-usantatecla.mastermind" style="stroke:#A80036;stroke-width:1.0;"/><polygon fill="#A80036" points="247.136,114.8704,256.5184,117.8655,252.1062,114.3254,255.6463,109.9132,247.136,114.8704" style="stroke:#A80036;stroke-width:1.0;"/><line style="stroke:#A80036;stroke-width:1.0;" x1="252.1062" x2="260.059" y1="114.3254" y2="113.4544"/><polygon fill="#A80036" points="1528.21,33.576,1522.0689,29.7962,1516.2179,34.0112,1522.359,37.791,1528.21,33.576" style="stroke:#A80036;stroke-width:1.0;"/><!--MD5=[2390947b1b119a53a88c2001f23d7e65]
link jar to usantatecla.mastermind.models--><path d="M1516.4607,37.1692 C1516.4607,37.1692 934.592,80.1225 594.5,113 C592.846,113.1599 591.182,113.322 589.511,113.4861 " fill="none" id="jar-usantatecla.mastermind.models" style="stroke:#A80036;stroke-width:1.0;"/><polygon fill="#A80036" points="576.563,114.7804,585.9162,117.8655,581.5382,114.2831,585.1206,109.9052,576.563,114.7804" style="stroke:#A80036;stroke-width:1.0;"/><line style="stroke:#A80036;stroke-width:1.0;" x1="581.5382" x2="589.4985" y1="114.2831" y2="113.4873"/><polygon fill="#A80036" points="1528.43,36.312,1522.1596,32.7508,1516.4607,37.1692,1522.7311,40.7304,1528.43,36.312" style="stroke:#A80036;stroke-width:1.0;"/><!--MD5=[3b50c1040abfe22fa16b3ebf3d2adaac]
link jar to usantatecla.mastermind.types--><path d="M1516.4332,41.286 C1516.4332,41.286 1084.51,92.2906 906.439,113.3204 " fill="none" id="jar-usantatecla.mastermind.types" style="stroke:#A80036;stroke-width:1.0;"/><polygon fill="#A80036" points="893.279,114.8746,902.6862,117.7907,898.2444,114.2878,901.7474,109.846,893.279,114.8746" style="stroke:#A80036;stroke-width:1.0;"/><line style="stroke:#A80036;stroke-width:1.0;" x1="898.2444" x2="906.189" y1="114.2878" y2="113.3498"/><polygon fill="#A80036" points="1528.35,39.875,1521.9213,36.6082,1516.4332,41.286,1522.8619,44.5527,1528.35,39.875" style="stroke:#A80036;stroke-width:1.0;"/><!--MD5=[f1af4d068a3921898a2ee622d8d8541e]
link jar to usantatecla.mastermind.controllers--><path d="M1516.584,48.0286 C1516.584,48.0286 1292.27,91.9711 1198.05,110.4293 " fill="none" id="jar-usantatecla.mastermind.controllers" style="stroke:#A80036;stroke-width:1.0;"/><polygon fill="#A80036" points="1185.04,112.9787,1194.6412,115.1733,1189.9467,112.0172,1193.1028,107.3226,1185.04,112.9787" style="stroke:#A80036;stroke-width:1.0;"/><line style="stroke:#A80036;stroke-width:1.0;" x1="1189.9467" x2="1197.795" y1="112.0172" y2="110.4794"/><polygon fill="#A80036" points="1528.36,45.721,1521.7028,42.9494,1516.584,48.0286,1523.2412,50.8001,1528.36,45.721" style="stroke:#A80036;stroke-width:1.0;"/><!--MD5=[9b931e9ad5c3902361053e698395b79d]
link jar to usantatecla.mastermind.views--><path d="M1554.6929,59.0294 C1554.6929,59.0294 1497.21,92.0432 1472.52,106.2221 " fill="none" id="jar-usantatecla.mastermind.views" style="stroke:#A80036;stroke-width:1.0;"/><polygon fill="#A80036" points="1460.94,112.868,1470.7368,111.8564,1465.2763,110.3787,1466.754,104.9183,1460.94,112.868" style="stroke:#A80036;stroke-width:1.0;"/><line style="stroke:#A80036;stroke-width:1.0;" x1="1465.2763" x2="1472.215" y1="110.3787" y2="106.3939"/><polygon fill="#A80036" points="1565.1,53.0552,1557.905,52.5733,1554.6929,59.0294,1561.8878,59.5114,1565.1,53.0552" style="stroke:#A80036;stroke-width:1.0;"/><!--MD5=[dc33a4fde77d4230156989d15f1199a0]
link jar to usantatecla.mastermind.views.console--><path d="M1652.3071,59.0294 C1652.3071,59.0294 1709.79,92.0432 1734.48,106.2221 " fill="none" id="jar-usantatecla.mastermind.views.console" style="stroke:#A80036;stroke-width:1.0;"/><polygon fill="#A80036" points="1746.06,112.868,1740.246,104.9183,1741.7237,110.3787,1736.2632,111.8564,1746.06,112.868" style="stroke:#A80036;stroke-width:1.0;"/><line style="stroke:#A80036;stroke-width:1.0;" x1="1741.7237" x2="1734.785" y1="110.3787" y2="106.3939"/><polygon fill="#A80036" points="1641.9,53.0552,1645.1122,59.5114,1652.3071,59.0294,1649.095,52.5733,1641.9,53.0552" style="stroke:#A80036;stroke-width:1.0;"/><!--MD5=[478778a62fbb913535b45914106db0eb]
link jar to usantatecla.mastermind.views.graphics--><path d="M1690.523,46.5599 C1690.523,46.5599 1942.5,91.6213 2048.82,110.6347 " fill="none" id="jar-usantatecla.mastermind.views.graphics" style="stroke:#A80036;stroke-width:1.0;"/><polygon fill="#A80036" points="2061.86,112.9672,2053.7035,107.447,2056.9379,112.088,2052.2969,115.3224,2061.86,112.9672" style="stroke:#A80036;stroke-width:1.0;"/><line style="stroke:#A80036;stroke-width:1.0;" x1="2056.9379" x2="2049.07" y1="112.088" y2="110.6787"/><polygon fill="#A80036" points="1678.71,44.45,1683.9132,49.4427,1690.523,46.5599,1685.3198,41.5673,1678.71,44.45" style="stroke:#A80036;stroke-width:1.0;"/><!--MD5=[8059cd5737844cbfa7541e4ee98eb909]
link jar to usantatecla.utils--><path d="M1690.7247,38.3828 C1690.7247,38.3828 2120.21,78.1134 2361.5,113 C2362.79,113.1871 2364.1,113.3785 2365.41,113.5738 " fill="none" id="jar-usantatecla.utils" style="stroke:#A80036;stroke-width:1.0;"/><polygon fill="#A80036" points="2378.42,115.5983,2370.1367,110.2703,2373.4787,114.8345,2368.9146,118.1764,2378.42,115.5983" style="stroke:#A80036;stroke-width:1.0;"/><line style="stroke:#A80036;stroke-width:1.0;" x1="2373.4787" x2="2365.575" y1="114.8345" y2="113.6"/><polygon fill="#A80036" points="1678.77,37.341,1684.4001,41.8468,1690.7247,38.3828,1685.0946,33.877,1678.77,37.341" style="stroke:#A80036;stroke-width:1.0;"/><!--MD5=[f17a38c250a1605cd3da9b9fac2ef94b]
link jar to java.io--><path d="M1690.5777,32.0634 C1690.5777,32.0634 2248.56,50.403 2566.5,113 C2567.78,113.2527 2569.08,113.5233 2570.38,113.8095 " fill="none" id="jar-java.io" style="stroke:#A80036;stroke-width:1.0;"/><polygon fill="#A80036" points="2583.25,117.0341,2575.491,110.968,2578.3997,115.8197,2573.548,118.7285,2583.25,117.0341" style="stroke:#A80036;stroke-width:1.0;"/><line style="stroke:#A80036;stroke-width:1.0;" x1="2578.3997" x2="2570.635" y1="115.8197" y2="113.8737"/><polygon fill="#A80036" points="1678.58,31.826,1684.4997,35.9439,1690.5777,32.0634,1684.6579,27.9455,1678.58,31.826" style="stroke:#A80036;stroke-width:1.0;"/><!--MD5=[a929e6d2b54380e4c3e4c2b17ce7cd9b]
link jar to java.util--><path d="M1690.5786,31.7876 C1690.5786,31.7876 2320.38,48.645 2685.5,113 C2686.99,113.2634 2688.5,113.5464 2690.02,113.8465 " fill="none" id="jar-java.util" style="stroke:#A80036;stroke-width:1.0;"/><polygon fill="#A80036" points="2702.73,116.6709,2694.8158,110.8087,2697.8498,115.5831,2693.0753,118.6171,2702.73,116.6709" style="stroke:#A80036;stroke-width:1.0;"/><line style="stroke:#A80036;stroke-width:1.0;" x1="2697.8498" x2="2690.04" y1="115.5831" y2="113.8506"/><polygon fill="#A80036" points="1678.58,31.603,1684.5178,35.6948,1690.5786,31.7876,1684.6408,27.6958,1678.58,31.603" style="stroke:#A80036;stroke-width:1.0;"/><!--MD5=[935df4e03264b511dfdb8a4f011c34b3]
@startuml
package "  "  as usantatecla.mastermind {
}
package "  "  as usantatecla.mastermind.models {
}
package "  "  as usantatecla.mastermind.types {
}
package "  "  as usantatecla.mastermind.controllers{
}
package "  "  as usantatecla.mastermind.views {
}
package "  "  as usantatecla.mastermind.views.console {
}
package "  "  as usantatecla.mastermind.views.graphics {
}
package "  "  as usantatecla.utils {
}
package "  "  as java.io {
}
package "  "  as java.util {
}

[mastermind.jar] as jar

jar *- -> usantatecla.mastermind
jar *- -> usantatecla.mastermind.models
jar *- -> usantatecla.mastermind.types
jar *- -> usantatecla.mastermind.controllers
jar *- -> usantatecla.mastermind.views
jar *- -> usantatecla.mastermind.views.console
jar *- -> usantatecla.mastermind.views.graphics
jar *- -> usantatecla.utils
jar *- -> java.io
jar *- -> java.util
@enduml

PlantUML version 1.2020.22beta3(Unknown compile time)
(GPL source distribution)
Java Runtime: Java(TM) SE Runtime Environment
JVM: Java HotSpot(TM) 64-Bit Server VM
Default Encoding: UTF-8
Language: en
Country: US
--></g></svg>