<?xml version="1.0" encoding="UTF-8" standalone="no"?><svg xmlns="http://www.w3.org/2000/svg" xmlns:xlink="http://www.w3.org/1999/xlink" contentScriptType="application/ecmascript" contentStyleType="text/css" height="159px" preserveAspectRatio="none" style="width:2664px;height:159px;" version="1.1" viewBox="0 0 2664 159" width="2664px" zoomAndPan="magnify"><defs><filter height="300%" id="f1ag73unga9eie" width="300%" x="-1" y="-1"><feGaussianBlur result="blurOut" stdDeviation="2.0"/><feColorMatrix in="blurOut" result="blurOut2" type="matrix" values="0 0 0 0 0 0 0 0 0 0 0 0 0 0 0 0 0 0 .4 0"/><feOffset dx="4.0" dy="4.0" in="blurOut2" result="blurOut3"/><feBlend in="SourceGraphic" in2="blurOut3" mode="normal"/></filter></defs><g><!--MD5=[6a8eef24a865597df0dc119d71c20fa1]
entity usantatecla.mastermind--><polygon fill="#FFFFFF" filter="url(#f1ag73unga9eie)" points="16,113,235,113,242,135.2969,259,135.2969,259,152.2969,16,152.2969,16,113" style="stroke:#000000;stroke-width:1.5;"/><line style="stroke:#000000;stroke-width:1.5;" x1="16" x2="242" y1="135.2969" y2="135.2969"/><text fill="#000000" font-family="sans-serif" font-size="14" font-weight="bold" lengthAdjust="spacingAndGlyphs" textLength="201" x="26" y="128.9951">usantatecla.mastermind</text><!--MD5=[d4e593d76a1ee4330d2b2843b37cc7bc]
entity usantatecla.mastermind.controllers--><polygon fill="#FFFFFF" filter="url(#f1ag73unga9eie)" points="294,113,607,113,614,135.2969,631,135.2969,631,152.2969,294,152.2969,294,113" style="stroke:#000000;stroke-width:1.5;"/><line style="stroke:#000000;stroke-width:1.5;" x1="294" x2="614" y1="135.2969" y2="135.2969"/><text fill="#000000" font-family="sans-serif" font-size="14" font-weight="bold" lengthAdjust="spacingAndGlyphs" textLength="295" x="304" y="128.9951">usantatecla.mastermind.controllers</text><!--MD5=[a18a8a1618c58d11a8fd222203fd8af2]
entity usantatecla.mastermind.models--><polygon fill="#FFFFFF" filter="url(#f1ag73unga9eie)" points="666.5,113,948.5,113,955.5,135.2969,972.5,135.2969,972.5,152.2969,666.5,152.2969,666.5,113" style="stroke:#000000;stroke-width:1.5;"/><line style="stroke:#000000;stroke-width:1.5;" x1="666.5" x2="955.5" y1="135.2969" y2="135.2969"/><text fill="#000000" font-family="sans-serif" font-size="14" font-weight="bold" lengthAdjust="spacingAndGlyphs" textLength="264" x="676.5" y="128.9951">usantatecla.mastermind.models</text><!--MD5=[d9d3a2b7fd30791a054c299cd80fb2ef]
entity usantatecla.mastermind.views--><polygon fill="#FFFFFF" filter="url(#f1ag73unga9eie)" points="1008,113,1277,113,1284,135.2969,1301,135.2969,1301,152.2969,1008,152.2969,1008,113" style="stroke:#000000;stroke-width:1.5;"/><line style="stroke:#000000;stroke-width:1.5;" x1="1008" x2="1284" y1="135.2969" y2="135.2969"/><text fill="#000000" font-family="sans-serif" font-size="14" font-weight="bold" lengthAdjust="spacingAndGlyphs" textLength="251" x="1018" y="128.9951">usantatecla.mastermind.views</text><!--MD5=[a2f5bc19a32728c49bfc87935a3608a8]
entity usantatecla.mastermind.types--><polygon fill="#FFFFFF" filter="url(#f1ag73unga9eie)" points="1336,113,1605,113,1612,135.2969,1629,135.2969,1629,152.2969,1336,152.2969,1336,113" style="stroke:#000000;stroke-width:1.5;"/><line style="stroke:#000000;stroke-width:1.5;" x1="1336" x2="1612" y1="135.2969" y2="135.2969"/><text fill="#000000" font-family="sans-serif" font-size="14" font-weight="bold" lengthAdjust="spacingAndGlyphs" textLength="251" x="1346" y="128.9951">usantatecla.mastermind.types</text><!--MD5=[f8c835f99f60c892cc49b75ca68c8779]
entity usantatecla.mastermind.distributed--><polygon fill="#FFFFFF" filter="url(#f1ag73unga9eie)" points="1664,113,1979,113,1986,135.2969,2003,135.2969,2003,152.2969,1664,152.2969,1664,113" style="stroke:#000000;stroke-width:1.5;"/><line style="stroke:#000000;stroke-width:1.5;" x1="1664" x2="1986" y1="135.2969" y2="135.2969"/><text fill="#000000" font-family="sans-serif" font-size="14" font-weight="bold" lengthAdjust="spacingAndGlyphs" textLength="297" x="1674" y="128.9951">usantatecla.mastermind.distributed</text><!--MD5=[612a536d1c85efa17c7d118cc1e7b020]
entity usantatecla.utils--><polygon fill="#FFFFFF" filter="url(#f1ag73unga9eie)" points="2038.5,113,2196.5,113,2203.5,135.2969,2220.5,135.2969,2220.5,152.2969,2038.5,152.2969,2038.5,113" style="stroke:#000000;stroke-width:1.5;"/><line style="stroke:#000000;stroke-width:1.5;" x1="2038.5" x2="2203.5" y1="135.2969" y2="135.2969"/><text fill="#000000" font-family="sans-serif" font-size="14" font-weight="bold" lengthAdjust="spacingAndGlyphs" textLength="140" x="2048.5" y="128.9951">usantatecla.utils</text><!--MD5=[48fa9072fd51d9920e6db8484beec696]
entity java.io--><polygon fill="#FFFFFF" filter="url(#f1ag73unga9eie)" points="2255.5,113,2327.5,113,2334.5,135.2969,2351.5,135.2969,2351.5,152.2969,2255.5,152.2969,2255.5,113" style="stroke:#000000;stroke-width:1.5;"/><line style="stroke:#000000;stroke-width:1.5;" x1="2255.5" x2="2334.5" y1="135.2969" y2="135.2969"/><text fill="#000000" font-family="sans-serif" font-size="14" font-weight="bold" lengthAdjust="spacingAndGlyphs" textLength="54" x="2265.5" y="128.9951">java.io</text><!--MD5=[034f0f7ed136bf78fc117f7e41f76e93]
entity java.util--><polygon fill="#FFFFFF" filter="url(#f1ag73unga9eie)" points="2387,113,2472,113,2479,135.2969,2496,135.2969,2496,152.2969,2387,152.2969,2387,113" style="stroke:#000000;stroke-width:1.5;"/><line style="stroke:#000000;stroke-width:1.5;" x1="2387" x2="2479" y1="135.2969" y2="135.2969"/><text fill="#000000" font-family="sans-serif" font-size="14" font-weight="bold" lengthAdjust="spacingAndGlyphs" textLength="67" x="2397" y="128.9951">java.util</text><!--MD5=[5fb961f6b473c9fb6d84812d19aee554]
entity java.lang--><polygon fill="#FFFFFF" filter="url(#f1ag73unga9eie)" points="2531.5,113,2623.5,113,2630.5,135.2969,2647.5,135.2969,2647.5,152.2969,2531.5,152.2969,2531.5,113" style="stroke:#000000;stroke-width:1.5;"/><line style="stroke:#000000;stroke-width:1.5;" x1="2531.5" x2="2630.5" y1="135.2969" y2="135.2969"/><text fill="#000000" font-family="sans-serif" font-size="14" font-weight="bold" lengthAdjust="spacingAndGlyphs" textLength="74" x="2541.5" y="128.9951">java.lang</text><!--MD5=[c2796faf4134bd8b5f3bc71f44d02e74]
entity jar--><rect fill="#FEFECE" filter="url(#f1ag73unga9eie)" height="46.2969" style="stroke:#A80036;stroke-width:1.5;" width="197" x="1559" y="7"/><rect fill="#FEFECE" height="10" style="stroke:#A80036;stroke-width:1.5;" width="15" x="1736" y="12"/><rect fill="#FEFECE" height="2" style="stroke:#A80036;stroke-width:1.5;" width="4" x="1734" y="14"/><rect fill="#FEFECE" height="2" style="stroke:#A80036;stroke-width:1.5;" width="4" x="1734" y="18"/><text fill="#000000" font-family="sans-serif" font-size="14" lengthAdjust="spacingAndGlyphs" textLength="157" x="1574" y="39.9951">mastermindServer.jar</text><!--MD5=[33871d850b885cae0f32fcf5f82e5a8f]
link jar to usantatecla.mastermind--><path d="M1546.9384,34.8283 C1546.9384,34.8283 747.016,67.7806 276.5,113 C275.076,113.1368 273.645,113.2771 272.206,113.4206 " fill="none" id="jar-usantatecla.mastermind" style="stroke:#A80036;stroke-width:1.0;"/><polygon fill="#A80036" points="259.109,114.7934,268.4771,117.833,264.0817,114.272,267.6428,109.8767,259.109,114.7934" style="stroke:#A80036;stroke-width:1.0;"/><line style="stroke:#A80036;stroke-width:1.0;" x1="264.0817" x2="272.0385" y1="114.272" y2="113.4382"/><polygon fill="#A80036" points="1558.93,34.38,1552.7847,30.607,1546.9384,34.8283,1553.0836,38.6014,1558.93,34.38" style="stroke:#A80036;stroke-width:1.0;"/><!--MD5=[f1af4d068a3921898a2ee622d8d8541e]
link jar to usantatecla.mastermind.controllers--><path d="M1547.0145,39.3229 C1547.0145,39.3229 974.346,83.5572 648.5,113 C647.086,113.1278 645.666,113.2566 644.241,113.3863 " fill="none" id="jar-usantatecla.mastermind.controllers" style="stroke:#A80036;stroke-width:1.0;"/><polygon fill="#A80036" points="631.284,114.5782,640.6124,117.7376,636.263,114.1205,639.8801,109.7711,631.284,114.5782" style="stroke:#A80036;stroke-width:1.0;"/><line style="stroke:#A80036;stroke-width:1.0;" x1="636.263" x2="644.2295" y1="114.1205" y2="113.3873"/><polygon fill="#A80036" points="1558.98,38.413,1552.694,34.8794,1547.0145,39.3229,1553.3006,42.8564,1558.98,38.413" style="stroke:#A80036;stroke-width:1.0;"/><!--MD5=[2390947b1b119a53a88c2001f23d7e65]
link jar to usantatecla.mastermind.models--><path d="M1546.9948,44.2483 C1546.9948,44.2483 1152.01,91.6229 985.985,111.5338 " fill="none" id="jar-usantatecla.mastermind.models" style="stroke:#A80036;stroke-width:1.0;"/><polygon fill="#A80036" points="972.686,113.1287,982.0984,116.0281,977.6504,112.5331,981.1454,108.0851,972.686,113.1287" style="stroke:#A80036;stroke-width:1.0;"/><line style="stroke:#A80036;stroke-width:1.0;" x1="977.6504" x2="985.593" y1="112.5331" y2="111.5806"/><polygon fill="#A80036" points="1558.91,42.824,1552.4777,39.5644,1546.9948,44.2483,1553.4272,47.5079,1558.91,42.824" style="stroke:#A80036;stroke-width:1.0;"/><!--MD5=[9b931e9ad5c3902361053e698395b79d]
link jar to usantatecla.mastermind.views--><path d="M1546.9544,53.0961 C1546.9544,53.0961 1343.7,93.6966 1259.99,110.4225 " fill="none" id="jar-usantatecla.mastermind.views" style="stroke:#A80036;stroke-width:1.0;"/><polygon fill="#A80036" points="1247.11,112.9963,1256.7186,115.1585,1252.0134,112.0182,1255.1537,107.313,1247.11,112.9963" style="stroke:#A80036;stroke-width:1.0;"/><line style="stroke:#A80036;stroke-width:1.0;" x1="1252.0134" x2="1259.86" y1="112.0182" y2="110.4492"/><polygon fill="#A80036" points="1558.72,50.736,1552.0505,47.9942,1546.9544,53.0961,1553.6239,55.8379,1558.72,50.736" style="stroke:#A80036;stroke-width:1.0;"/><!--MD5=[9cf69f3da3e460c42ddf0e16621c3471]
link jar to usantatecla.mastermind.distributed--><path d="M1706.5421,59.0032 C1706.5421,59.0032 1764.68,92.2045 1789.57,106.4153 " fill="none" id="jar-usantatecla.mastermind.distributed" style="stroke:#A80036;stroke-width:1.0;"/><polygon fill="#A80036" points="1800.87,112.868,1795.0361,104.9329,1796.5274,110.3896,1791.0707,111.881,1800.87,112.868" style="stroke:#A80036;stroke-width:1.0;"/><line style="stroke:#A80036;stroke-width:1.0;" x1="1796.5274" x2="1789.585" y1="110.3896" y2="106.4216"/><polygon fill="#A80036" points="1696.12,53.0552,1699.3484,59.5033,1706.5421,59.0032,1703.3137,52.5552,1696.12,53.0552" style="stroke:#A80036;stroke-width:1.0;"/><!--MD5=[3b50c1040abfe22fa16b3ebf3d2adaac]
link jar to usantatecla.mastermind.types--><path d="M1608.6929,59.0294 C1608.6929,59.0294 1551.21,92.0432 1526.52,106.2221 " fill="none" id="jar-usantatecla.mastermind.types" style="stroke:#A80036;stroke-width:1.0;"/><polygon fill="#A80036" points="1514.94,112.868,1524.7368,111.8564,1519.2763,110.3787,1520.754,104.9183,1514.94,112.868" style="stroke:#A80036;stroke-width:1.0;"/><line style="stroke:#A80036;stroke-width:1.0;" x1="1519.2763" x2="1526.215" y1="110.3787" y2="106.3939"/><polygon fill="#A80036" points="1619.1,53.0552,1611.905,52.5733,1608.6929,59.0294,1615.8878,59.5114,1619.1,53.0552" style="stroke:#A80036;stroke-width:1.0;"/><!--MD5=[8059cd5737844cbfa7541e4ee98eb909]
link jar to usantatecla.utils--><path d="M1767.8983,54.4995 C1767.8983,54.4995 1953.22,93.9668 2029.54,110.2152 " fill="none" id="jar-usantatecla.utils" style="stroke:#A80036;stroke-width:1.0;"/><polygon fill="#A80036" points="2042.48,112.9713,2034.5072,107.1891,2037.5891,111.9327,2032.8454,115.0146,2042.48,112.9713" style="stroke:#A80036;stroke-width:1.0;"/><line style="stroke:#A80036;stroke-width:1.0;" x1="2037.5891" x2="2029.765" y1="111.9327" y2="110.2639"/><polygon fill="#A80036" points="1756.16,52.0069,1761.1983,57.166,1767.8983,54.4995,1762.86,49.3404,1756.16,52.0069" style="stroke:#A80036;stroke-width:1.0;"/><!--MD5=[f17a38c250a1605cd3da9b9fac2ef94b]
link jar to java.io--><path d="M1768.0602,42.0433 C1768.0602,42.0433 2076.93,78.7743 2238.5,113 C2239.88,113.2918 2241.27,113.5968 2242.67,113.9133 " fill="none" id="jar-java.io" style="stroke:#A80036;stroke-width:1.0;"/><polygon fill="#A80036" points="2255.41,117.0187,2247.6165,110.997,2250.5529,115.832,2245.7178,118.7684,2255.41,117.0187" style="stroke:#A80036;stroke-width:1.0;"/><line style="stroke:#A80036;stroke-width:1.0;" x1="2250.5529" x2="2242.78" y1="115.832" y2="113.9402"/><polygon fill="#A80036" points="1756.13,40.751,1761.6643,45.3739,1768.0602,42.0433,1762.5259,37.4204,1756.13,40.751" style="stroke:#A80036;stroke-width:1.0;"/><!--MD5=[a929e6d2b54380e4c3e4c2b17ce7cd9b]
link jar to java.util--><path d="M1767.9913,39.0225 C1767.9913,39.0225 2159.12,74.0462 2369.5,113 C2370.9,113.2585 2372.3,113.5289 2373.72,113.8097 " fill="none" id="jar-java.util" style="stroke:#A80036;stroke-width:1.0;"/><polygon fill="#A80036" points="2386.64,116.5787,2378.68,110.7789,2381.7514,115.5293,2377.0009,118.6007,2386.64,116.5787" style="stroke:#A80036;stroke-width:1.0;"/><line style="stroke:#A80036;stroke-width:1.0;" x1="2381.7514" x2="2373.925" y1="115.5293" y2="113.8533"/><polygon fill="#A80036" points="1756.03,38.06,1761.6898,42.5284,1767.9913,39.0225,1762.3315,34.5541,1756.03,38.06" style="stroke:#A80036;stroke-width:1.0;"/><!--MD5=[751ae5f16816c18b2927ba8f0f5e3e50]
link jar to java.lang--><path d="M1768.2904,36.5426 C1768.2904,36.5426 2248.7,68.3243 2513.5,113 C2515.12,113.2732 2516.76,113.5619 2518.4,113.864 " fill="none" id="jar-java.lang" style="stroke:#A80036;stroke-width:1.0;"/><polygon fill="#A80036" points="2531.17,116.408,2523.1262,110.7249,2526.2666,115.43,2521.5614,118.5704,2531.17,116.408" style="stroke:#A80036;stroke-width:1.0;"/><line style="stroke:#A80036;stroke-width:1.0;" x1="2526.2666" x2="2518.42" y1="115.43" y2="113.8676"/><polygon fill="#A80036" points="1756.31,35.857,1762.0716,40.1933,1768.2904,36.5426,1762.5287,32.2064,1756.31,35.857" style="stroke:#A80036;stroke-width:1.0;"/><!--MD5=[6bb69d522b6b48174613edd9de095a33]
@startuml
package "  "  as usantatecla.mastermind {
}
package "  "  as usantatecla.mastermind.controllers {
}
package "  "  as usantatecla.mastermind.models {
}
package "  "  as usantatecla.mastermind.views {
}
package "  "  as usantatecla.mastermind.types {
}
package "  "  as usantatecla.mastermind.distributed {
}
package "  "  as usantatecla.utils {
}
package "  "  as java.io {
}
package "  "  as java.util {
}
package "  "  as java.lang {
}

[mastermindServer.jar] as jar

jar *- -> usantatecla.mastermind
jar *- -> usantatecla.mastermind.controllers
jar *- -> usantatecla.mastermind.models
jar *- -> usantatecla.mastermind.views
jar *- -> usantatecla.mastermind.distributed
jar *- -> usantatecla.mastermind.types
jar *- -> usantatecla.utils
jar *- -> java.io
jar *- -> java.util
jar *- -> java.lang
@enduml

PlantUML version 1.2020.24(Fri Dec 18 17:00:36 UTC 2020)
(GPL source distribution)
Java Runtime: Java(TM) SE Runtime Environment
JVM: Java HotSpot(TM) 64-Bit Server VM
Default Encoding: UTF-8
Language: en
Country: US
--></g></svg>