<?xml version="1.0" encoding="UTF-8" standalone="no"?><svg xmlns="http://www.w3.org/2000/svg" xmlns:xlink="http://www.w3.org/1999/xlink" contentScriptType="application/ecmascript" contentStyleType="text/css" height="159px" preserveAspectRatio="none" style="width:2290px;height:159px;" version="1.1" viewBox="0 0 2290 159" width="2290px" zoomAndPan="magnify"><defs><filter height="300%" id="fe2p5wfr8hg8j" width="300%" x="-1" y="-1"><feGaussianBlur result="blurOut" stdDeviation="2.0"/><feColorMatrix in="blurOut" result="blurOut2" type="matrix" values="0 0 0 0 0 0 0 0 0 0 0 0 0 0 0 0 0 0 .4 0"/><feOffset dx="4.0" dy="4.0" in="blurOut2" result="blurOut3"/><feBlend in="SourceGraphic" in2="blurOut3" mode="normal"/></filter></defs><g><!--MD5=[6a8eef24a865597df0dc119d71c20fa1]
entity usantatecla.mastermind--><polygon fill="#FFFFFF" filter="url(#fe2p5wfr8hg8j)" points="16,113,235,113,242,135.2969,259,135.2969,259,152.2969,16,152.2969,16,113" style="stroke:#000000;stroke-width:1.5;"/><line style="stroke:#000000;stroke-width:1.5;" x1="16" x2="242" y1="135.2969" y2="135.2969"/><text fill="#000000" font-family="sans-serif" font-size="14" font-weight="bold" lengthAdjust="spacingAndGlyphs" textLength="201" x="26" y="128.9951">usantatecla.mastermind</text><!--MD5=[d4e593d76a1ee4330d2b2843b37cc7bc]
entity usantatecla.mastermind.controllers--><polygon fill="#FFFFFF" filter="url(#fe2p5wfr8hg8j)" points="294,113,607,113,614,135.2969,631,135.2969,631,152.2969,294,152.2969,294,113" style="stroke:#000000;stroke-width:1.5;"/><line style="stroke:#000000;stroke-width:1.5;" x1="294" x2="614" y1="135.2969" y2="135.2969"/><text fill="#000000" font-family="sans-serif" font-size="14" font-weight="bold" lengthAdjust="spacingAndGlyphs" textLength="295" x="304" y="128.9951">usantatecla.mastermind.controllers</text><!--MD5=[a18a8a1618c58d11a8fd222203fd8af2]
entity usantatecla.mastermind.models--><polygon fill="#FFFFFF" filter="url(#fe2p5wfr8hg8j)" points="666.5,113,948.5,113,955.5,135.2969,972.5,135.2969,972.5,152.2969,666.5,152.2969,666.5,113" style="stroke:#000000;stroke-width:1.5;"/><line style="stroke:#000000;stroke-width:1.5;" x1="666.5" x2="955.5" y1="135.2969" y2="135.2969"/><text fill="#000000" font-family="sans-serif" font-size="14" font-weight="bold" lengthAdjust="spacingAndGlyphs" textLength="264" x="676.5" y="128.9951">usantatecla.mastermind.models</text><!--MD5=[d9d3a2b7fd30791a054c299cd80fb2ef]
entity usantatecla.mastermind.views--><polygon fill="#FFFFFF" filter="url(#fe2p5wfr8hg8j)" points="1008,113,1277,113,1284,135.2969,1301,135.2969,1301,152.2969,1008,152.2969,1008,113" style="stroke:#000000;stroke-width:1.5;"/><line style="stroke:#000000;stroke-width:1.5;" x1="1008" x2="1284" y1="135.2969" y2="135.2969"/><text fill="#000000" font-family="sans-serif" font-size="14" font-weight="bold" lengthAdjust="spacingAndGlyphs" textLength="251" x="1018" y="128.9951">usantatecla.mastermind.views</text><!--MD5=[a2f5bc19a32728c49bfc87935a3608a8]
entity usantatecla.mastermind.types--><polygon fill="#FFFFFF" filter="url(#fe2p5wfr8hg8j)" points="1336,113,1605,113,1612,135.2969,1629,135.2969,1629,152.2969,1336,152.2969,1336,113" style="stroke:#000000;stroke-width:1.5;"/><line style="stroke:#000000;stroke-width:1.5;" x1="1336" x2="1612" y1="135.2969" y2="135.2969"/><text fill="#000000" font-family="sans-serif" font-size="14" font-weight="bold" lengthAdjust="spacingAndGlyphs" textLength="251" x="1346" y="128.9951">usantatecla.mastermind.types</text><!--MD5=[612a536d1c85efa17c7d118cc1e7b020]
entity usantatecla.utils--><polygon fill="#FFFFFF" filter="url(#fe2p5wfr8hg8j)" points="1664.5,113,1822.5,113,1829.5,135.2969,1846.5,135.2969,1846.5,152.2969,1664.5,152.2969,1664.5,113" style="stroke:#000000;stroke-width:1.5;"/><line style="stroke:#000000;stroke-width:1.5;" x1="1664.5" x2="1829.5" y1="135.2969" y2="135.2969"/><text fill="#000000" font-family="sans-serif" font-size="14" font-weight="bold" lengthAdjust="spacingAndGlyphs" textLength="140" x="1674.5" y="128.9951">usantatecla.utils</text><!--MD5=[48fa9072fd51d9920e6db8484beec696]
entity java.io--><polygon fill="#FFFFFF" filter="url(#fe2p5wfr8hg8j)" points="1881.5,113,1953.5,113,1960.5,135.2969,1977.5,135.2969,1977.5,152.2969,1881.5,152.2969,1881.5,113" style="stroke:#000000;stroke-width:1.5;"/><line style="stroke:#000000;stroke-width:1.5;" x1="1881.5" x2="1960.5" y1="135.2969" y2="135.2969"/><text fill="#000000" font-family="sans-serif" font-size="14" font-weight="bold" lengthAdjust="spacingAndGlyphs" textLength="54" x="1891.5" y="128.9951">java.io</text><!--MD5=[034f0f7ed136bf78fc117f7e41f76e93]
entity java.util--><polygon fill="#FFFFFF" filter="url(#fe2p5wfr8hg8j)" points="2013,113,2098,113,2105,135.2969,2122,135.2969,2122,152.2969,2013,152.2969,2013,113" style="stroke:#000000;stroke-width:1.5;"/><line style="stroke:#000000;stroke-width:1.5;" x1="2013" x2="2105" y1="135.2969" y2="135.2969"/><text fill="#000000" font-family="sans-serif" font-size="14" font-weight="bold" lengthAdjust="spacingAndGlyphs" textLength="67" x="2023" y="128.9951">java.util</text><!--MD5=[5fb961f6b473c9fb6d84812d19aee554]
entity java.lang--><polygon fill="#FFFFFF" filter="url(#fe2p5wfr8hg8j)" points="2157.5,113,2249.5,113,2256.5,135.2969,2273.5,135.2969,2273.5,152.2969,2157.5,152.2969,2157.5,113" style="stroke:#000000;stroke-width:1.5;"/><line style="stroke:#000000;stroke-width:1.5;" x1="2157.5" x2="2256.5" y1="135.2969" y2="135.2969"/><text fill="#000000" font-family="sans-serif" font-size="14" font-weight="bold" lengthAdjust="spacingAndGlyphs" textLength="74" x="2167.5" y="128.9951">java.lang</text><!--MD5=[c2796faf4134bd8b5f3bc71f44d02e74]
entity jar--><rect fill="#FEFECE" filter="url(#fe2p5wfr8hg8j)" height="46.2969" style="stroke:#A80036;stroke-width:1.5;" width="150" x="1407.5" y="7"/><rect fill="#FEFECE" height="10" style="stroke:#A80036;stroke-width:1.5;" width="15" x="1537.5" y="12"/><rect fill="#FEFECE" height="2" style="stroke:#A80036;stroke-width:1.5;" width="4" x="1535.5" y="14"/><rect fill="#FEFECE" height="2" style="stroke:#A80036;stroke-width:1.5;" width="4" x="1535.5" y="18"/><text fill="#000000" font-family="sans-serif" font-size="14" lengthAdjust="spacingAndGlyphs" textLength="110" x="1422.5" y="39.9951">mastermind.jar</text><!--MD5=[33871d850b885cae0f32fcf5f82e5a8f]
link jar to usantatecla.mastermind--><path d="M1395.2234,34.997 C1395.2234,34.997 693.874,71.0797 276.5,113 C275.077,113.1429 273.646,113.289 272.208,113.4381 " fill="none" id="jar-usantatecla.mastermind" style="stroke:#A80036;stroke-width:1.0;"/><polygon fill="#A80036" points="259.115,114.8538,268.4928,117.8634,264.086,114.3164,267.633,109.9097,259.115,114.8538" style="stroke:#A80036;stroke-width:1.0;"/><line style="stroke:#A80036;stroke-width:1.0;" x1="264.086" x2="272.04" y1="114.3164" y2="113.4563"/><polygon fill="#A80036" points="1407.21,34.43,1401.0277,30.718,1395.2234,34.997,1401.4057,38.709,1407.21,34.43" style="stroke:#A80036;stroke-width:1.0;"/><!--MD5=[f1af4d068a3921898a2ee622d8d8541e]
link jar to usantatecla.mastermind.controllers--><path d="M1395.5075,39.5235 C1395.5075,39.5235 920.273,86.1239 648.5,113 C647.087,113.1397 645.668,113.2801 644.244,113.421 " fill="none" id="jar-usantatecla.mastermind.controllers" style="stroke:#A80036;stroke-width:1.0;"/><polygon fill="#A80036" points="631.296,114.7028,640.6465,117.7962,636.2717,114.2099,639.8579,109.8351,631.296,114.7028" style="stroke:#A80036;stroke-width:1.0;"/><line style="stroke:#A80036;stroke-width:1.0;" x1="636.2717" x2="644.2325" y1="114.2099" y2="113.422"/><polygon fill="#A80036" points="1407.45,38.35,1401.0876,34.9559,1395.5075,39.5235,1401.8699,42.9176,1407.45,38.35" style="stroke:#A80036;stroke-width:1.0;"/><!--MD5=[2390947b1b119a53a88c2001f23d7e65]
link jar to usantatecla.mastermind.models--><path d="M1395.5448,44.1756 C1395.5448,44.1756 1085.93,91.1138 954.506,111.0353 " fill="none" id="jar-usantatecla.mastermind.models" style="stroke:#A80036;stroke-width:1.0;"/><polygon fill="#A80036" points="941.597,112.9922,951.0949,115.598,946.5405,112.2427,949.8958,107.6884,941.597,112.9922" style="stroke:#A80036;stroke-width:1.0;"/><line style="stroke:#A80036;stroke-width:1.0;" x1="946.5405" x2="954.45" y1="112.2427" y2="111.0437"/><polygon fill="#A80036" points="1407.41,42.382,1400.8795,39.3237,1395.5448,44.1756,1402.0753,47.2339,1407.41,42.382" style="stroke:#A80036;stroke-width:1.0;"/><!--MD5=[9b931e9ad5c3902361053e698395b79d]
link jar to usantatecla.mastermind.views--><path d="M1399.0443,56.5635 C1399.0443,56.5635 1277.88,93.6952 1227.48,109.1399 " fill="none" id="jar-usantatecla.mastermind.views" style="stroke:#A80036;stroke-width:1.0;"/><polygon fill="#A80036" points="1215.04,112.9499,1224.8162,114.1438,1219.8215,111.4881,1222.4773,106.4934,1215.04,112.9499" style="stroke:#A80036;stroke-width:1.0;"/><line style="stroke:#A80036;stroke-width:1.0;" x1="1219.8215" x2="1227.47" y1="111.4881" y2="109.1414"/><polygon fill="#A80036" points="1410.52,53.0552,1403.6127,50.9841,1399.0443,56.5635,1405.9516,58.6346,1410.52,53.0552" style="stroke:#A80036;stroke-width:1.0;"/><!--MD5=[3b50c1040abfe22fa16b3ebf3d2adaac]
link jar to usantatecla.mastermind.types--><path d="M1482.5,65.3042 C1482.5,65.3042 1482.5,89.2598 1482.5,99.9085 " fill="none" id="jar-usantatecla.mastermind.types" style="stroke:#A80036;stroke-width:1.0;"/><polygon fill="#A80036" points="1482.5,112.9606,1486.5,103.9606,1482.5,107.9606,1478.5,103.9606,1482.5,112.9606" style="stroke:#A80036;stroke-width:1.0;"/><line style="stroke:#A80036;stroke-width:1.0;" x1="1482.5" x2="1482.5" y1="107.9606" y2="99.9607"/><polygon fill="#A80036" points="1482.5,53.3042,1478.5,59.3042,1482.5,65.3042,1486.5,59.3042,1482.5,53.3042" style="stroke:#A80036;stroke-width:1.0;"/><!--MD5=[8059cd5737844cbfa7541e4ee98eb909]
link jar to usantatecla.utils--><path d="M1553.6728,57.1965 C1553.6728,57.1965 1651.44,93.1919 1692.56,108.3298 " fill="none" id="jar-usantatecla.utils" style="stroke:#A80036;stroke-width:1.0;"/><polygon fill="#A80036" points="1704.89,112.868,1697.8233,106.0078,1700.1972,111.1425,1695.0625,113.5163,1704.89,112.868" style="stroke:#A80036;stroke-width:1.0;"/><line style="stroke:#A80036;stroke-width:1.0;" x1="1700.1972" x2="1692.69" y1="111.1425" y2="108.377"/><polygon fill="#A80036" points="1542.41,53.0552,1546.661,58.8801,1553.6728,57.1965,1549.4218,51.3716,1542.41,53.0552" style="stroke:#A80036;stroke-width:1.0;"/><!--MD5=[f17a38c250a1605cd3da9b9fac2ef94b]
link jar to java.io--><path d="M1569.6256,48.0121 C1569.6256,48.0121 1764.49,88.062 1864.5,113 C1865.87,113.3406 1867.25,113.69 1868.64,114.0465 " fill="none" id="jar-java.io" style="stroke:#A80036;stroke-width:1.0;"/><polygon fill="#A80036" points="1881.32,117.4058,1873.6442,111.2348,1876.4867,116.1256,1871.5958,118.9681,1881.32,117.4058" style="stroke:#A80036;stroke-width:1.0;"/><line style="stroke:#A80036;stroke-width:1.0;" x1="1876.4867" x2="1868.755" y1="116.1256" y2="114.0771"/><polygon fill="#A80036" points="1557.86,45.652,1562.9561,50.7539,1569.6256,48.0121,1564.5295,42.9102,1557.86,45.652" style="stroke:#A80036;stroke-width:1.0;"/><!--MD5=[a929e6d2b54380e4c3e4c2b17ce7cd9b]
link jar to java.util--><path d="M1569.5499,42.4049 C1569.5499,42.4049 1847.46,82.2181 1995.5,113 C1997.01,113.314 1998.54,113.6391 2000.07,113.9734 " fill="none" id="jar-java.util" style="stroke:#A80036;stroke-width:1.0;"/><polygon fill="#A80036" points="2012.98,116.9234,2005.099,111.0166,2008.106,115.8081,2003.3145,118.8151,2012.98,116.9234" style="stroke:#A80036;stroke-width:1.0;"/><line style="stroke:#A80036;stroke-width:1.0;" x1="2008.106" x2="2000.305" y1="115.8081" y2="114.0267"/><polygon fill="#A80036" points="1557.66,40.783,1563.0643,45.5572,1569.5499,42.4049,1564.1456,37.6306,1557.66,40.783" style="stroke:#A80036;stroke-width:1.0;"/><!--MD5=[751ae5f16816c18b2927ba8f0f5e3e50]
link jar to java.lang--><path d="M1569.7575,38.6878 C1569.7575,38.6878 1937.49,75.9326 2139.5,113 C2141.12,113.2964 2142.75,113.6061 2144.39,113.9271 " fill="none" id="jar-java.lang" style="stroke:#A80036;stroke-width:1.0;"/><polygon fill="#A80036" points="2157.14,116.5792,2149.1412,110.8329,2152.2444,115.5626,2147.5147,118.6659,2157.14,116.5792" style="stroke:#A80036;stroke-width:1.0;"/><line style="stroke:#A80036;stroke-width:1.0;" x1="2152.2444" x2="2144.415" y1="115.5626" y2="113.9315"/><polygon fill="#A80036" points="1557.81,37.567,1563.4102,42.1099,1569.7575,38.6878,1564.1574,34.1449,1557.81,37.567" style="stroke:#A80036;stroke-width:1.0;"/><!--MD5=[47d7d5e733df1bbb182ee7571aeab8f6]
@startuml
package "  "  as usantatecla.mastermind {
}
package "  "  as usantatecla.mastermind.controllers {
}
package "  "  as usantatecla.mastermind.models {
}
package "  "  as usantatecla.mastermind.views {
}
package "  "  as usantatecla.mastermind.types {
}
package "  "  as usantatecla.utils {
}
package "  "  as java.io {
}
package "  "  as java.util {
}
package "  "  as java.lang {
}

[mastermind.jar] as jar

jar *- -> usantatecla.mastermind
jar *- -> usantatecla.mastermind.controllers
jar *- -> usantatecla.mastermind.models
jar *- -> usantatecla.mastermind.views
jar *- -> usantatecla.mastermind.types
jar *- -> usantatecla.utils
jar *- -> java.io
jar *- -> java.util
jar *- -> java.lang
@enduml

PlantUML version 1.2020.24(Fri Dec 18 17:00:36 UTC 2020)
(GPL source distribution)
Java Runtime: Java(TM) SE Runtime Environment
JVM: Java HotSpot(TM) 64-Bit Server VM
Default Encoding: UTF-8
Language: en
Country: US
--></g></svg>