<?xml version="1.0" encoding="UTF-8" standalone="no"?><svg xmlns="http://www.w3.org/2000/svg" xmlns:xlink="http://www.w3.org/1999/xlink" contentScriptType="application/ecmascript" contentStyleType="text/css" height="517px" preserveAspectRatio="none" style="width:1276px;height:517px;" version="1.1" viewBox="0 0 1276 517" width="1276px" zoomAndPan="magnify"><defs><filter height="300%" id="fq3qyv029suhc" width="300%" x="-1" y="-1"><feGaussianBlur result="blurOut" stdDeviation="2.0"/><feColorMatrix in="blurOut" result="blurOut2" type="matrix" values="0 0 0 0 0 0 0 0 0 0 0 0 0 0 0 0 0 0 .4 0"/><feOffset dx="4.0" dy="4.0" in="blurOut2" result="blurOut3"/><feBlend in="SourceGraphic" in2="blurOut3" mode="normal"/></filter></defs><g><polygon fill="#DDDDDD" filter="url(#fq3qyv029suhc)" points="538.7869,6,745.7869,6,752.7869,28.2969,759.7869,28.2969,759.7869,58.5938,538.7869,58.5938,538.7869,6" style="stroke:#000000;stroke-width:1.5;"/><line style="stroke:#000000;stroke-width:1.5;" x1="538.7869" x2="752.7869" y1="28.2969" y2="28.2969"/><text fill="#000000" font-family="sans-serif" font-size="14" font-weight="bold" lengthAdjust="spacingAndGlyphs" textLength="201" x="542.7869" y="20.9951">usantatecla.mastermind</text><polygon fill="#DDDDDD" filter="url(#fq3qyv029suhc)" points="253.7869,232,510.7869,232,517.7869,254.2969,524.7869,254.2969,524.7869,284.5938,253.7869,284.5938,253.7869,232" style="stroke:#000000;stroke-width:1.5;"/><line style="stroke:#000000;stroke-width:1.5;" x1="253.7869" x2="517.7869" y1="254.2969" y2="254.2969"/><text fill="#000000" font-family="sans-serif" font-size="14" font-weight="bold" lengthAdjust="spacingAndGlyphs" textLength="251" x="257.7869" y="246.9951">usantatecla.mastermind.views</text><polygon fill="#DDDDDD" filter="url(#fq3qyv029suhc)" points="448.2869,345,718.2869,345,725.2869,367.2969,732.2869,367.2969,732.2869,397.5938,448.2869,397.5938,448.2869,345" style="stroke:#000000;stroke-width:1.5;"/><line style="stroke:#000000;stroke-width:1.5;" x1="448.2869" x2="725.2869" y1="367.2969" y2="367.2969"/><text fill="#000000" font-family="sans-serif" font-size="14" font-weight="bold" lengthAdjust="spacingAndGlyphs" textLength="264" x="452.2869" y="359.9951">usantatecla.mastermind.models</text><polygon fill="#DDDDDD" filter="url(#fq3qyv029suhc)" points="253.7869,458,510.7869,458,517.7869,480.2969,524.7869,480.2969,524.7869,510.5938,253.7869,510.5938,253.7869,458" style="stroke:#000000;stroke-width:1.5;"/><line style="stroke:#000000;stroke-width:1.5;" x1="253.7869" x2="517.7869" y1="480.2969" y2="480.2969"/><text fill="#000000" font-family="sans-serif" font-size="14" font-weight="bold" lengthAdjust="spacingAndGlyphs" textLength="251" x="257.7869" y="472.9951">usantatecla.mastermind.types</text><polygon fill="#FFFFFF" filter="url(#fq3qyv029suhc)" points="559.7869,458,632.7869,458,639.7869,480.2969,646.7869,480.2969,646.7869,510.5938,559.7869,510.5938,559.7869,458" style="stroke:#000000;stroke-width:1.5;"/><line style="stroke:#000000;stroke-width:1.5;" x1="559.7869" x2="639.7869" y1="480.2969" y2="480.2969"/><text fill="#000000" font-family="sans-serif" font-size="14" font-weight="bold" lengthAdjust="spacingAndGlyphs" textLength="67" x="563.7869" y="472.9951">java.util</text><polygon fill="#DDDDDD" filter="url(#fq3qyv029suhc)" points="58.2873,232,204.2873,232,211.2873,254.2969,218.2873,254.2969,218.2873,284.5938,58.2873,284.5938,58.2873,232" style="stroke:#000000;stroke-width:1.5;"/><line style="stroke:#000000;stroke-width:1.5;" x1="58.2873" x2="211.2873" y1="254.2969" y2="254.2969"/><text fill="#000000" font-family="sans-serif" font-size="14" font-weight="bold" lengthAdjust="spacingAndGlyphs" textLength="140" x="62.2873" y="246.9951">usantatecla.utils</text><polygon fill="#FFFFFF" filter="url(#fq3qyv029suhc)" points="101.2873,345,161.2873,345,168.2873,367.2969,175.2873,367.2969,175.2873,397.5938,101.2873,397.5938,101.2873,345" style="stroke:#000000;stroke-width:1.5;"/><line style="stroke:#000000;stroke-width:1.5;" x1="101.2873" x2="168.2873" y1="367.2969" y2="367.2969"/><text fill="#000000" font-family="sans-serif" font-size="14" font-weight="bold" lengthAdjust="spacingAndGlyphs" textLength="54" x="105.2873" y="359.9951">java.io</text><polygon fill="#DDDDDD" filter="url(#fq3qyv029suhc)" points="220.2869,119,544.2869,119,551.2869,141.2969,558.2869,141.2969,558.2869,171.5938,220.2869,171.5938,220.2869,119" style="stroke:#000000;stroke-width:1.5;"/><line style="stroke:#000000;stroke-width:1.5;" x1="220.2869" x2="551.2869" y1="141.2969" y2="141.2969"/><text fill="#000000" font-family="sans-serif" font-size="14" font-weight="bold" lengthAdjust="spacingAndGlyphs" textLength="318" x="224.2869" y="133.9951">usantatecla.mastermind.views.console</text><polygon fill="#DDDDDD" filter="url(#fq3qyv029suhc)" points="702.2869,119,1034.2869,119,1041.2869,141.2969,1048.2869,141.2969,1048.2869,171.5938,702.2869,171.5938,702.2869,119" style="stroke:#000000;stroke-width:1.5;"/><line style="stroke:#000000;stroke-width:1.5;" x1="702.2869" x2="1041.2869" y1="141.2969" y2="141.2969"/><text fill="#000000" font-family="sans-serif" font-size="14" font-weight="bold" lengthAdjust="spacingAndGlyphs" textLength="326" x="706.2869" y="133.9951">usantatecla.mastermind.views.graphics</text><polygon fill="#FFFFFF" filter="url(#fq3qyv029suhc)" points="844.2869,232,920.2869,232,927.2869,254.2969,934.2869,254.2969,934.2869,284.5938,844.2869,284.5938,844.2869,232" style="stroke:#000000;stroke-width:1.5;"/><line style="stroke:#000000;stroke-width:1.5;" x1="844.2869" x2="927.2869" y1="254.2969" y2="254.2969"/><text fill="#000000" font-family="sans-serif" font-size="14" font-weight="bold" lengthAdjust="spacingAndGlyphs" textLength="70" x="848.2869" y="246.9951">java.awt</text><polygon fill="#FFFFFF" filter="url(#fq3qyv029suhc)" points="969.2869,232,1095.2869,232,1102.2869,254.2969,1109.2869,254.2969,1109.2869,284.5938,969.2869,284.5938,969.2869,232" style="stroke:#000000;stroke-width:1.5;"/><line style="stroke:#000000;stroke-width:1.5;" x1="969.2869" x2="1102.2869" y1="254.2969" y2="254.2969"/><text fill="#000000" font-family="sans-serif" font-size="14" font-weight="bold" lengthAdjust="spacingAndGlyphs" textLength="120" x="973.2869" y="246.9951">java.awt.event</text><polygon fill="#FFFFFF" filter="url(#fq3qyv029suhc)" points="1144.7889,232,1245.7889,232,1252.7889,254.2969,1259.7889,254.2969,1259.7889,284.5938,1144.7889,284.5938,1144.7889,232" style="stroke:#000000;stroke-width:1.5;"/><line style="stroke:#000000;stroke-width:1.5;" x1="1144.7889" x2="1252.7889" y1="254.2969" y2="254.2969"/><text fill="#000000" font-family="sans-serif" font-size="14" font-weight="bold" lengthAdjust="spacingAndGlyphs" textLength="95" x="1148.7889" y="246.9951">javax.swing</text><!--MD5=[154cfa84253b6c83652f8cc515248a6d]
link usantatecla.mastermind to usantatecla.mastermind.views.console--><path codeLine="2" d="M589.3119,59.105 C548.8789,76.367 495.5639,99.128 454.1449,116.811 " fill="none" id="usantatecla.mastermind-to-usantatecla.mastermind.views.console" style="stroke:#A80036;stroke-width:1.0;stroke-dasharray:7.0,7.0;"/><polygon fill="#A80036" points="449.4109,118.832,459.2587,118.9777,454.0095,116.8691,456.1181,111.62,449.4109,118.832" style="stroke:#A80036;stroke-width:1.0;"/><!--MD5=[77bfac299a9dfa14d994751e1b13d1fb]
link usantatecla.mastermind to usantatecla.mastermind.views.graphics--><path codeLine="3" d="M701.4199,59.105 C736.3519,76.262 782.3449,98.851 818.2519,116.487 " fill="none" id="usantatecla.mastermind-to-usantatecla.mastermind.views.graphics" style="stroke:#A80036;stroke-width:1.0;stroke-dasharray:7.0,7.0;"/><polygon fill="#A80036" points="823.0259,118.832,816.7116,111.2736,818.5382,116.6274,813.1843,118.4539,823.0259,118.832" style="stroke:#A80036;stroke-width:1.0;"/><!--MD5=[1b01179086f6bbc1e835b05fcb7da69a]
link usantatecla.mastermind to usantatecla.mastermind.models--><path codeLine="4" d="M644.8039,59.106 C634.1109,120.185 607.1439,274.215 595.6309,339.976 " fill="none" id="usantatecla.mastermind-to-usantatecla.mastermind.models" style="stroke:#A80036;stroke-width:1.0;stroke-dasharray:7.0,7.0;"/><polygon fill="#A80036" points="594.7639,344.933,600.2545,336.7566,595.6252,340.0078,592.3741,335.3785,594.7639,344.933" style="stroke:#A80036;stroke-width:1.0;"/><!--MD5=[49315a8911a3f054d41fa10ad9349828]
link usantatecla.mastermind.views to usantatecla.mastermind.models--><path codeLine="7" d="M435.6529,285.105 C466.5939,302.192 507.2919,324.667 539.1699,342.271 " fill="none" id="usantatecla.mastermind.views-to-usantatecla.mastermind.models" style="stroke:#A80036;stroke-width:1.0;stroke-dasharray:7.0,7.0;"/><polygon fill="#A80036" points="543.8069,344.832,537.862,336.9797,539.4299,342.415,533.9947,343.9829,543.8069,344.832" style="stroke:#A80036;stroke-width:1.0;"/><!--MD5=[ce88995476bd7b9069515bddfacf022d]
link usantatecla.mastermind.views to usantatecla.mastermind.types--><path codeLine="8" d="M389.2869,285.196 C389.2869,326.606 389.2869,407.957 389.2869,452.5137 " fill="none" id="usantatecla.mastermind.views-to-usantatecla.mastermind.types" style="stroke:#A80036;stroke-width:1.0;stroke-dasharray:7.0,7.0;"/><polygon fill="#A80036" points="389.2869,457.76,393.2869,448.76,389.2869,452.76,385.2869,448.76,389.2869,457.76" style="stroke:#A80036;stroke-width:1.0;"/><!--MD5=[b9451c71657f3a844ca4b89e92aee0a7]
link usantatecla.mastermind.models to usantatecla.mastermind.types--><path codeLine="11" d="M543.9219,398.105 C512.9809,415.1918 472.2819,437.667 440.4049,455.271 " fill="none" id="usantatecla.mastermind.models-to-usantatecla.mastermind.types" style="stroke:#A80036;stroke-width:1.0;stroke-dasharray:7.0,7.0;"/><polygon fill="#A80036" points="435.7679,457.8318,445.5801,456.9824,440.1448,455.4146,441.7126,449.9794,435.7679,457.8318" style="stroke:#A80036;stroke-width:1.0;"/><!--MD5=[58f66f5f60379dd70ef75cb976dcb215]
link usantatecla.mastermind.models to java.util--><path d="M593.3029,398.245 C595.2059,414.4958 597.6749,435.5795 599.6819,452.7139 " fill="none" id="usantatecla.mastermind.models-to-java.util" style="stroke:#A80036;stroke-width:1.0;stroke-dasharray:7.0,7.0;"/><polygon fill="#A80036" points="600.2889,457.895,603.2146,448.4907,599.7071,452.929,595.2689,449.4215,600.2889,457.895" style="stroke:#A80036;stroke-width:1.0;"/><!--MD5=[f7f372d3543268b8cc298f05137e5dac]
link usantatecla.utils to java.io--><path d="M138.2869,285.245 C138.2869,301.496 138.2869,322.579 138.2869,339.714 " fill="none" id="usantatecla.utils-to-java.io" style="stroke:#A80036;stroke-width:1.0;stroke-dasharray:7.0,7.0;"/><polygon fill="#A80036" points="138.2869,344.895,142.2869,335.895,138.2869,339.895,134.2869,335.895,138.2869,344.895" style="stroke:#A80036;stroke-width:1.0;"/><!--MD5=[da57a9a30559a1d2bbc81c15e4653a5b]
link usantatecla.mastermind.views.console to usantatecla.mastermind.models--><path d="M458.5019,172.059 C487.8059,185.897 520.2049,205.644 542.2869,232 C568.3979,263.163 580.6129,309.369 586.1069,339.707 " fill="none" id="usantatecla.mastermind.views.console-to-usantatecla.mastermind.models" style="stroke:#A80036;stroke-width:1.0;stroke-dasharray:7.0,7.0;"/><polygon fill="#A80036" points="586.9939,344.807,589.3891,335.2538,586.1353,339.8813,581.5079,336.6275,586.9939,344.807" style="stroke:#A80036;stroke-width:1.0;"/><!--MD5=[b8553bfe17af46194ef273adf9238790]
link usantatecla.mastermind.views.console to usantatecla.mastermind.types--><path d="M219.9229,167.981 C142.8259,181.582 63.5838,202.307 40.2873,232 C6,275.701 70.7812,386.585 83.2873,398 C128.2717,439.0603 191.3779,460.6065 248.6039,471.8335 " fill="none" id="usantatecla.mastermind.views.console-to-usantatecla.mastermind.types" style="stroke:#A80036;stroke-width:1.0;stroke-dasharray:7.0,7.0;"/><polygon fill="#A80036" points="253.7689,472.8221,245.6814,467.2014,248.8581,471.8821,244.1774,475.0588,253.7689,472.8221" style="stroke:#A80036;stroke-width:1.0;"/><!--MD5=[ea4ce8b53cd9ff973f1d13b2e6691e39]
link usantatecla.mastermind.views.console to usantatecla.utils--><path d="M331.3879,172.105 C292.4329,189.332 241.0939,212.036 201.1439,229.703 " fill="none" id="usantatecla.mastermind.views.console-to-usantatecla.utils" style="stroke:#A80036;stroke-width:1.0;stroke-dasharray:7.0,7.0;"/><polygon fill="#A80036" points="196.3299,231.832,206.1787,231.8491,200.9025,229.8093,202.9424,224.533,196.3299,231.832" style="stroke:#A80036;stroke-width:1.0;"/><!--MD5=[4d42c51424c2fe200638a22853989c83]
link usantatecla.mastermind.views.console to usantatecla.mastermind.views--><path d="M389.2869,172.245 C389.2869,188.496 389.2869,209.579 389.2869,226.714 " fill="none" id="usantatecla.mastermind.views.console-to-usantatecla.mastermind.views" style="stroke:#A80036;stroke-width:1.0;stroke-dasharray:7.0,7.0;"/><polygon fill="#A80036" points="389.2869,231.895,393.2869,222.895,389.2869,226.895,385.2869,222.895,389.2869,231.895" style="stroke:#A80036;stroke-width:1.0;"/><!--MD5=[d137ae07135d8e25c6268b008713226c]
link usantatecla.mastermind.views.graphics to usantatecla.mastermind.views--><path d="M763.4839,172.035 C686.4159,189.637 584.2029,212.982 506.0799,230.825 " fill="none" id="usantatecla.mastermind.views.graphics-to-usantatecla.mastermind.views" style="stroke:#A80036;stroke-width:1.0;stroke-dasharray:7.0,7.0;"/><polygon fill="#A80036" points="500.9699,231.992,510.635,233.8857,505.8442,230.8777,508.8521,226.0869,500.9699,231.992" style="stroke:#A80036;stroke-width:1.0;"/><!--MD5=[18dba7ad16ec340cecf593c9f0416640]
link usantatecla.mastermind.views.graphics to usantatecla.mastermind.models--><path d="M842.0139,172.241 C820.1659,189.173 790.9809,211.848 765.2869,232 C717.2419,269.683 662.0309,313.458 626.6849,341.543 " fill="none" id="usantatecla.mastermind.views.graphics-to-usantatecla.mastermind.models" style="stroke:#A80036;stroke-width:1.0;stroke-dasharray:7.0,7.0;"/><polygon fill="#A80036" points="622.4749,344.889,632.0093,342.42,626.389,341.7777,627.0312,336.1575,622.4749,344.889" style="stroke:#A80036;stroke-width:1.0;"/><!--MD5=[582107199350085a94e935174fbb3ba0]
link usantatecla.mastermind.views.graphics to usantatecla.mastermind.types--><path d="M859.6849,172.372 C849.7519,189.166 836.8199,211.637 826.2869,232 C788.9219,304.237 812.2779,346.556 749.2869,398 C731.4459,412.5705 620.5849,437.654 526.5409,456.8959 " fill="none" id="usantatecla.mastermind.views.graphics-to-usantatecla.mastermind.types" style="stroke:#A80036;stroke-width:1.0;stroke-dasharray:7.0,7.0;"/><polygon fill="#A80036" points="521.5099,457.9231,531.1281,460.0423,526.4089,456.9231,529.5281,452.2039,521.5099,457.9231" style="stroke:#A80036;stroke-width:1.0;"/><!--MD5=[b5df6e92d64d5bc2a940e3bece2f866a]
link usantatecla.mastermind.views.graphics to java.awt--><path d="M878.5339,172.245 C880.5839,188.496 883.2429,209.579 885.4039,226.714 " fill="none" id="usantatecla.mastermind.views.graphics-to-java.awt" style="stroke:#A80036;stroke-width:1.0;stroke-dasharray:7.0,7.0;"/><polygon fill="#A80036" points="886.0579,231.895,888.9,222.4651,885.4321,226.9343,880.9629,223.4664,886.0579,231.895" style="stroke:#A80036;stroke-width:1.0;"/><!--MD5=[a5950fc01ed17ba313e3ff9277360096]
link usantatecla.mastermind.views.graphics to java.awt.event--><path d="M913.3239,172.245 C938.3699,189.196 971.1849,211.406 997.0419,228.907 " fill="none" id="usantatecla.mastermind.views.graphics-to-java.awt.event" style="stroke:#A80036;stroke-width:1.0;stroke-dasharray:7.0,7.0;"/><polygon fill="#A80036" points="1001.4569,231.895,996.2454,223.538,997.3161,229.0926,991.7615,230.1633,1001.4569,231.895" style="stroke:#A80036;stroke-width:1.0;"/><!--MD5=[7210432fe8f598d3e6eddcbd0e4ae1e3]
link usantatecla.mastermind.views.graphics to javax.swing--><path d="M950.5499,172.021 C1000.6389,189.01 1067.8989,211.831 1127.2889,232 C1131.3089,233.367 1135.4589,234.776 1139.6389,236.196 " fill="none" id="usantatecla.mastermind.views.graphics-to-javax.swing" style="stroke:#A80036;stroke-width:1.0;stroke-dasharray:7.0,7.0;"/><polygon fill="#A80036" points="1144.5489,237.866,1137.3033,231.195,1139.8121,236.2652,1134.742,238.7739,1144.5489,237.866" style="stroke:#A80036;stroke-width:1.0;"/><!--MD5=[bfaee455d9ed67fd22267f541aad7b7b]
@startuml
package usantatecla.mastermind #DDDDDD { }
usantatecla.mastermind .down.> usantatecla.mastermind.views.console
usantatecla.mastermind .down.> usantatecla.mastermind.views.graphics
usantatecla.mastermind .down.> usantatecla.mastermind.models

package usantatecla.mastermind.views #DDDDDD { }
usantatecla.mastermind.views .down.> usantatecla.mastermind.models
usantatecla.mastermind.views .down.> usantatecla.mastermind.types

package usantatecla.mastermind.models #DDDDDD { }
usantatecla.mastermind.models .down.> usantatecla.mastermind.types
package usantatecla.mastermind.types #DDDDDD { }
package java.util{ }
usantatecla.mastermind.models .down.> java.util

package usantatecla.utils #DDDDDD { }
package java.io{ }
usantatecla.utils .down.> java.io

package usantatecla.mastermind.views.console #DDDDDD { }
usantatecla.mastermind.views.console .down.> usantatecla.mastermind.models
usantatecla.mastermind.views.console .down.> usantatecla.mastermind.types
usantatecla.mastermind.views.console .down.> usantatecla.utils
usantatecla.mastermind.views.console .down.> usantatecla.mastermind.views

package usantatecla.mastermind.views.graphics #DDDDDD { }
package java.awt{ }
package java.awt.event{ }
package javax.swing{ }
usantatecla.mastermind.views.graphics .down.> usantatecla.mastermind.views
usantatecla.mastermind.views.graphics .down.> usantatecla.mastermind.models
usantatecla.mastermind.views.graphics .down.> usantatecla.mastermind.types
usantatecla.mastermind.views.graphics .down.> java.awt
usantatecla.mastermind.views.graphics .down.> java.awt.event
usantatecla.mastermind.views.graphics .down.> javax.swing
@enduml

PlantUML version 1.2020.22beta3(Unknown compile time)
(GPL source distribution)
Java Runtime: Java(TM) SE Runtime Environment
JVM: Java HotSpot(TM) 64-Bit Server VM
Default Encoding: UTF-8
Language: en
Country: US
--></g></svg>