<?xml version="1.0" encoding="UTF-8" standalone="no"?>
<svg xmlns="http://www.w3.org/2000/svg" contentScriptType="application/ecmascript" contentStyleType="text/css"
     height="404px" preserveAspectRatio="none" style="width:620px;height:404px;" version="1.1" viewBox="0 0 620 404"
     width="620px" zoomAndPan="magnify"><defs><filter height="300%" id="foepjeoai548q" width="300%" x="-1" y="-1"><feGaussianBlur result="blurOut" stdDeviation="2.0"/><feColorMatrix in="blurOut" result="blurOut2" type="matrix" values="0 0 0 0 0 0 0 0 0 0 0 0 0 0 0 0 0 0 .4 0"/><feOffset dx="4.0" dy="4.0" in="blurOut2" result="blurOut3"/><feBlend in="SourceGraphic" in2="blurOut3" mode="normal"/></filter></defs><g><polygon fill="#DDDDDD" filter="url(#foepjeoai548q)" points="145.5,6,352.5,6,359.5,28.2969,366.5,28.2969,366.5,58.5938,145.5,58.5938,145.5,6" style="stroke:#000000;stroke-width:1.5;"/><line style="stroke:#000000;stroke-width:1.5;" x1="145.5" x2="359.5" y1="28.2969" y2="28.2969"/><text fill="#000000" font-family="sans-serif" font-size="14" font-weight="bold" lengthAdjust="spacingAndGlyphs" textLength="201" x="149.5" y="20.9951">usantatecla.mastermind</text><polygon fill="#DDDDDD" filter="url(#foepjeoai548q)" points="16,232,286,232,293,254.2969,300,254.2969,300,284.5938,16,284.5938,16,232" style="stroke:#000000;stroke-width:1.5;"/><line style="stroke:#000000;stroke-width:1.5;" x1="16" x2="293" y1="254.2969" y2="254.2969"/><text fill="#000000" font-family="sans-serif" font-size="14" font-weight="bold" lengthAdjust="spacingAndGlyphs" textLength="264" x="20" y="246.9951">usantatecla.mastermind.models</text><polygon fill="#DDDDDD" filter="url(#foepjeoai548q)" points="198.5,345,455.5,345,462.5,367.2969,469.5,367.2969,469.5,397.5938,198.5,397.5938,198.5,345" style="stroke:#000000;stroke-width:1.5;"/><line style="stroke:#000000;stroke-width:1.5;" x1="198.5" x2="462.5" y1="367.2969" y2="367.2969"/><text fill="#000000" font-family="sans-serif" font-size="14" font-weight="bold" lengthAdjust="spacingAndGlyphs" textLength="251" x="202.5" y="359.9951">usantatecla.mastermind.types</text><polygon fill="#FFFFFF" filter="url(#foepjeoai548q)" points="76.5,345,149.5,345,156.5,367.2969,163.5,367.2969,163.5,397.5938,76.5,397.5938,76.5,345" style="stroke:#000000;stroke-width:1.5;"/><line style="stroke:#000000;stroke-width:1.5;" x1="76.5" x2="156.5" y1="367.2969" y2="367.2969"/><text fill="#000000" font-family="sans-serif" font-size="14" font-weight="bold" lengthAdjust="spacingAndGlyphs" textLength="67" x="80.5" y="359.9951">java.util</text><polygon fill="#DDDDDD" filter="url(#foepjeoai548q)" points="443,232,589,232,596,254.2969,603,254.2969,603,284.5938,443,284.5938,443,232" style="stroke:#000000;stroke-width:1.5;"/><line style="stroke:#000000;stroke-width:1.5;" x1="443" x2="596" y1="254.2969" y2="254.2969"/><text fill="#000000" font-family="sans-serif" font-size="14" font-weight="bold" lengthAdjust="spacingAndGlyphs" textLength="140" x="447" y="246.9951">usantatecla.utils</text><polygon fill="#FFFFFF" filter="url(#foepjeoai548q)" points="505,345,565,345,572,367.2969,579,367.2969,579,397.5938,505,397.5938,505,345" style="stroke:#000000;stroke-width:1.5;"/><line style="stroke:#000000;stroke-width:1.5;" x1="505" x2="572" y1="367.2969" y2="367.2969"/><text fill="#000000" font-family="sans-serif" font-size="14" font-weight="bold" lengthAdjust="spacingAndGlyphs" textLength="54" x="509" y="359.9951">java.io</text><polygon fill="#DDDDDD" filter="url(#foepjeoai548q)" points="215.5,119,472.5,119,479.5,141.2969,486.5,141.2969,486.5,171.5938,215.5,171.5938,215.5,119" style="stroke:#000000;stroke-width:1.5;"/><line style="stroke:#000000;stroke-width:1.5;" x1="215.5" x2="479.5" y1="141.2969" y2="141.2969"/><text fill="#000000" font-family="sans-serif" font-size="14" font-weight="bold" lengthAdjust="spacingAndGlyphs" textLength="251" x="219.5" y="133.9951">usantatecla.mastermind.views</text><!--MD5=[4e19c524e2c69b87d36da5f0fb3d6b68]
link usantatecla.mastermind to usantatecla.mastermind.views--><path codeLine="2" d="M278.034,59.245 C292.302,75.916 310.923,97.673 325.782,115.035 " fill="none" id="usantatecla.mastermind-to-usantatecla.mastermind.views" style="stroke:#A80036;stroke-width:1.0;stroke-dasharray:7.0,7.0;"/><polygon fill="#A80036" points="329.086,118.895,326.2723,109.4566,325.8346,115.0965,320.1947,114.6588,329.086,118.895" style="stroke:#A80036;stroke-width:1.0;"/><!--MD5=[1b01179086f6bbc1e835b05fcb7da69a]
link usantatecla.mastermind to usantatecla.mastermind.models--><path codeLine="3" d="M235.436,59.159 C223.161,75.503 208.055,97.564 198,119 C181.44,154.303 170.221,197.935 163.976,226.682 " fill="none" id="usantatecla.mastermind-to-usantatecla.mastermind.models" style="stroke:#A80036;stroke-width:1.0;stroke-dasharray:7.0,7.0;"/><polygon fill="#A80036" points="162.867,231.871,168.6584,223.9048,163.9112,226.9813,160.8348,222.2341,162.867,231.871" style="stroke:#A80036;stroke-width:1.0;"/><!--MD5=[b9451c71657f3a844ca4b89e92aee0a7]
link usantatecla.mastermind.models to usantatecla.mastermind.types--><path codeLine="6" d="M198.82,285.245 C225.81,302.2663 261.205,324.5896 289.007,342.1236 " fill="none" id="usantatecla.mastermind.models-to-usantatecla.mastermind.types" style="stroke:#A80036;stroke-width:1.0;stroke-dasharray:7.0,7.0;"/><polygon fill="#A80036" points="293.401,344.895,287.9222,336.7107,289.1718,342.2278,283.6547,343.4774,293.401,344.895" style="stroke:#A80036;stroke-width:1.0;"/><!--MD5=[58f66f5f60379dd70ef75cb976dcb215]
link usantatecla.mastermind.models to java.util--><path d="M149.187,285.245 C143.575,301.6359 136.281,322.9433 130.388,340.1562 " fill="none" id="usantatecla.mastermind.models-to-java.util" style="stroke:#A80036;stroke-width:1.0;stroke-dasharray:7.0,7.0;"/><polygon fill="#A80036" points="128.766,344.895,135.4656,337.6759,130.3856,340.1646,127.8969,335.0846,128.766,344.895" style="stroke:#A80036;stroke-width:1.0;"/><!--MD5=[f7f372d3543268b8cc298f05137e5dac]
link usantatecla.utils to java.io--><path d="M527.407,285.245 C530.188,301.4958 533.797,322.5795 536.73,339.7139 " fill="none" id="usantatecla.utils-to-java.io" style="stroke:#A80036;stroke-width:1.0;stroke-dasharray:7.0,7.0;"/><polygon fill="#A80036" points="537.617,344.895,540.0409,335.3491,536.7732,339.9667,532.1556,336.6991,537.617,344.895" style="stroke:#A80036;stroke-width:1.0;"/><!--MD5=[49315a8911a3f054d41fa10ad9349828]
link usantatecla.mastermind.views to usantatecla.mastermind.models--><path d="M306.237,172.245 C276.519,189.336 237.507,211.773 206.963,229.34 " fill="none" id="usantatecla.mastermind.views-to-usantatecla.mastermind.models" style="stroke:#A80036;stroke-width:1.0;stroke-dasharray:7.0,7.0;"/><polygon fill="#A80036" points="202.52,231.895,212.3159,230.8753,206.8543,229.4022,208.3274,223.9405,202.52,231.895" style="stroke:#A80036;stroke-width:1.0;"/><!--MD5=[ce88995476bd7b9069515bddfacf022d]
link usantatecla.mastermind.views to usantatecla.mastermind.types--><path d="M349.05,172.196 C345.907,213.606 339.733,294.957 336.352,339.5137 " fill="none" id="usantatecla.mastermind.views-to-usantatecla.mastermind.types" style="stroke:#A80036;stroke-width:1.0;stroke-dasharray:7.0,7.0;"/><polygon fill="#A80036" points="335.953,344.76,340.6229,336.0887,336.3316,339.7744,332.6459,335.483,335.953,344.76" style="stroke:#A80036;stroke-width:1.0;"/><!--MD5=[4379480885f901f79907d45b42c7ea73]
link usantatecla.mastermind.views to usantatecla.utils--><path d="M390.893,172.245 C417.269,189.266 451.86,211.59 479.029,229.124 " fill="none" id="usantatecla.mastermind.views-to-usantatecla.utils" style="stroke:#A80036;stroke-width:1.0;stroke-dasharray:7.0,7.0;"/><polygon fill="#A80036" points="483.324,231.895,477.931,223.6539,479.1229,229.1838,473.593,230.3757,483.324,231.895" style="stroke:#A80036;stroke-width:1.0;"/><!--MD5=[853877bb8712feba8f6e28d5de6a5e01]
@startuml
package usantatecla.mastermind #DDDDDD { }
usantatecla.mastermind .down.> usantatecla.mastermind.views
usantatecla.mastermind .down.> usantatecla.mastermind.models

package usantatecla.mastermind.models #DDDDDD { }
usantatecla.mastermind.models .down.> usantatecla.mastermind.types
package usantatecla.mastermind.types #DDDDDD { }
package java.util{ }
usantatecla.mastermind.models .down.> java.util

package usantatecla.utils #DDDDDD { }
package java.io{ }
usantatecla.utils .down.> java.io

package usantatecla.mastermind.views #DDDDDD { }
usantatecla.mastermind.views .down.> usantatecla.mastermind.models
usantatecla.mastermind.views .down.> usantatecla.mastermind.types
usantatecla.mastermind.views .down.> usantatecla.utils
@enduml

PlantUML version 1.2020.22beta2(Unknown compile time)
(GPL source distribution)
Java Runtime: Java(TM) SE Runtime Environment
JVM: Java HotSpot(TM) 64-Bit Server VM
Default Encoding: UTF-8
Language: en
Country: US
--></g></svg>