<?xml version="1.0" encoding="UTF-8" standalone="no"?><svg xmlns="http://www.w3.org/2000/svg" xmlns:xlink="http://www.w3.org/1999/xlink" contentScriptType="application/ecmascript" contentStyleType="text/css" height="159px" preserveAspectRatio="none" style="width:2457px;height:159px;" version="1.1" viewBox="0 0 2457 159" width="2457px" zoomAndPan="magnify"><defs><filter height="300%" id="f108eu6a4bvu0r" width="300%" x="-1" y="-1"><feGaussianBlur result="blurOut" stdDeviation="2.0"/><feColorMatrix in="blurOut" result="blurOut2" type="matrix" values="0 0 0 0 0 0 0 0 0 0 0 0 0 0 0 0 0 0 .4 0"/><feOffset dx="4.0" dy="4.0" in="blurOut2" result="blurOut3"/><feBlend in="SourceGraphic" in2="blurOut3" mode="normal"/></filter></defs><g><!--MD5=[6a8eef24a865597df0dc119d71c20fa1]
entity usantatecla.mastermind--><polygon fill="#FFFFFF" filter="url(#f108eu6a4bvu0r)" points="16,113,223,113,230,135.2969,247,135.2969,247,152.2969,16,152.2969,16,113" style="stroke:#000000;stroke-width:1.5;"/><line style="stroke:#000000;stroke-width:1.5;" x1="16" x2="230" y1="135.2969" y2="135.2969"/><text fill="#000000" font-family="sans-serif" font-size="14" font-weight="bold" lengthAdjust="spacingAndGlyphs" textLength="201" x="20" y="128.9951">usantatecla.mastermind</text><!--MD5=[a18a8a1618c58d11a8fd222203fd8af2]
entity usantatecla.mastermind.models--><polygon fill="#FFFFFF" filter="url(#f108eu6a4bvu0r)" points="282.5,113,552.5,113,559.5,135.2969,576.5,135.2969,576.5,152.2969,282.5,152.2969,282.5,113" style="stroke:#000000;stroke-width:1.5;"/><line style="stroke:#000000;stroke-width:1.5;" x1="282.5" x2="559.5" y1="135.2969" y2="135.2969"/><text fill="#000000" font-family="sans-serif" font-size="14" font-weight="bold" lengthAdjust="spacingAndGlyphs" textLength="264" x="286.5" y="128.9951">usantatecla.mastermind.models</text><!--MD5=[a2f5bc19a32728c49bfc87935a3608a8]
entity usantatecla.mastermind.types--><polygon fill="#FFFFFF" filter="url(#f108eu6a4bvu0r)" points="612,113,869,113,876,135.2969,893,135.2969,893,152.2969,612,152.2969,612,113" style="stroke:#000000;stroke-width:1.5;"/><line style="stroke:#000000;stroke-width:1.5;" x1="612" x2="876" y1="135.2969" y2="135.2969"/><text fill="#000000" font-family="sans-serif" font-size="14" font-weight="bold" lengthAdjust="spacingAndGlyphs" textLength="251" x="616" y="128.9951">usantatecla.mastermind.types</text><!--MD5=[d9d3a2b7fd30791a054c299cd80fb2ef]
entity usantatecla.mastermind.views--><polygon fill="#FFFFFF" filter="url(#f108eu6a4bvu0r)" points="928,113,1185,113,1192,135.2969,1209,135.2969,1209,152.2969,928,152.2969,928,113" style="stroke:#000000;stroke-width:1.5;"/><line style="stroke:#000000;stroke-width:1.5;" x1="928" x2="1192" y1="135.2969" y2="135.2969"/><text fill="#000000" font-family="sans-serif" font-size="14" font-weight="bold" lengthAdjust="spacingAndGlyphs" textLength="251" x="932" y="128.9951">usantatecla.mastermind.views</text><!--MD5=[4f1fdb516a2d9f9a754f02a50bc85008]
entity usantatecla.mastermind.views.console--><polygon fill="#FFFFFF" filter="url(#f108eu6a4bvu0r)" points="1244.5,113,1568.5,113,1575.5,135.2969,1592.5,135.2969,1592.5,152.2969,1244.5,152.2969,1244.5,113" style="stroke:#000000;stroke-width:1.5;"/><line style="stroke:#000000;stroke-width:1.5;" x1="1244.5" x2="1575.5" y1="135.2969" y2="135.2969"/><text fill="#000000" font-family="sans-serif" font-size="14" font-weight="bold" lengthAdjust="spacingAndGlyphs" textLength="318" x="1248.5" y="128.9951">usantatecla.mastermind.views.console</text><!--MD5=[78a8e49b09f83bc73057eebba2fb097f]
entity usantatecla.mastermind.views.graphics--><polygon fill="#FFFFFF" filter="url(#f108eu6a4bvu0r)" points="1627.5,113,1959.5,113,1966.5,135.2969,1983.5,135.2969,1983.5,152.2969,1627.5,152.2969,1627.5,113" style="stroke:#000000;stroke-width:1.5;"/><line style="stroke:#000000;stroke-width:1.5;" x1="1627.5" x2="1966.5" y1="135.2969" y2="135.2969"/><text fill="#000000" font-family="sans-serif" font-size="14" font-weight="bold" lengthAdjust="spacingAndGlyphs" textLength="326" x="1631.5" y="128.9951">usantatecla.mastermind.views.graphics</text><!--MD5=[612a536d1c85efa17c7d118cc1e7b020]
entity usantatecla.utils--><polygon fill="#FFFFFF" filter="url(#f108eu6a4bvu0r)" points="2018.5,113,2164.5,113,2171.5,135.2969,2188.5,135.2969,2188.5,152.2969,2018.5,152.2969,2018.5,113" style="stroke:#000000;stroke-width:1.5;"/><line style="stroke:#000000;stroke-width:1.5;" x1="2018.5" x2="2171.5" y1="135.2969" y2="135.2969"/><text fill="#000000" font-family="sans-serif" font-size="14" font-weight="bold" lengthAdjust="spacingAndGlyphs" textLength="140" x="2022.5" y="128.9951">usantatecla.utils</text><!--MD5=[48fa9072fd51d9920e6db8484beec696]
entity java.io--><polygon fill="#FFFFFF" filter="url(#f108eu6a4bvu0r)" points="2223.5,113,2283.5,113,2290.5,135.2969,2307.5,135.2969,2307.5,152.2969,2223.5,152.2969,2223.5,113" style="stroke:#000000;stroke-width:1.5;"/><line style="stroke:#000000;stroke-width:1.5;" x1="2223.5" x2="2290.5" y1="135.2969" y2="135.2969"/><text fill="#000000" font-family="sans-serif" font-size="14" font-weight="bold" lengthAdjust="spacingAndGlyphs" textLength="54" x="2227.5" y="128.9951">java.io</text><!--MD5=[034f0f7ed136bf78fc117f7e41f76e93]
entity java.util--><polygon fill="#FFFFFF" filter="url(#f108eu6a4bvu0r)" points="2343,113,2416,113,2423,135.2969,2440,135.2969,2440,152.2969,2343,152.2969,2343,113" style="stroke:#000000;stroke-width:1.5;"/><line style="stroke:#000000;stroke-width:1.5;" x1="2343" x2="2423" y1="135.2969" y2="135.2969"/><text fill="#000000" font-family="sans-serif" font-size="14" font-weight="bold" lengthAdjust="spacingAndGlyphs" textLength="67" x="2347" y="128.9951">java.util</text><!--MD5=[c2796faf4134bd8b5f3bc71f44d02e74]
entity jar--><rect fill="#FEFECE" filter="url(#f108eu6a4bvu0r)" height="46.2969" style="stroke:#A80036;stroke-width:1.5;" width="150" x="1343.5" y="7"/><rect fill="#FEFECE" height="10" style="stroke:#A80036;stroke-width:1.5;" width="15" x="1473.5" y="12"/><rect fill="#FEFECE" height="2" style="stroke:#A80036;stroke-width:1.5;" width="4" x="1471.5" y="14"/><rect fill="#FEFECE" height="2" style="stroke:#A80036;stroke-width:1.5;" width="4" x="1471.5" y="18"/><text fill="#000000" font-family="sans-serif" font-size="14" lengthAdjust="spacingAndGlyphs" textLength="110" x="1358.5" y="39.9951">mastermind.jar</text><!--MD5=[33871d850b885cae0f32fcf5f82e5a8f]
link jar to usantatecla.mastermind--><path d="M1331.4353,35.1886 C1331.4353,35.1886 661.185,71.365 264.5,113 C263.08,113.149 261.652,113.3016 260.216,113.4573 " fill="none" id="jar-usantatecla.mastermind" style="stroke:#A80036;stroke-width:1.0;"/><polygon fill="#A80036" points="247.143,114.9385,256.5363,117.8993,252.1112,114.3753,255.6352,109.9502,247.143,114.9385" style="stroke:#A80036;stroke-width:1.0;"/><line style="stroke:#A80036;stroke-width:1.0;" x1="252.1112" x2="260.0605" y1="114.3753" y2="113.4749"/><polygon fill="#A80036" points="1343.42,34.582,1337.2255,30.8904,1331.4353,35.1886,1337.6299,38.8802,1343.42,34.582" style="stroke:#A80036;stroke-width:1.0;"/><!--MD5=[2390947b1b119a53a88c2001f23d7e65]
link jar to usantatecla.mastermind.models--><path d="M1331.535,39.2963 C1331.535,39.2963 862.337,84.6592 594.5,113 C592.847,113.1749 591.185,113.3513 589.515,113.529 " fill="none" id="jar-usantatecla.mastermind.models" style="stroke:#A80036;stroke-width:1.0;"/><polygon fill="#A80036" points="576.576,114.9155,585.9508,117.9344,581.5476,114.3831,585.0989,109.9799,576.576,114.9155" style="stroke:#A80036;stroke-width:1.0;"/><line style="stroke:#A80036;stroke-width:1.0;" x1="581.5476" x2="589.5025" y1="114.3831" y2="113.5303"/><polygon fill="#A80036" points="1343.48,38.149,1337.1251,34.741,1331.535,39.2963,1337.8899,42.7043,1343.48,38.149" style="stroke:#A80036;stroke-width:1.0;"/><!--MD5=[3b50c1040abfe22fa16b3ebf3d2adaac]
link jar to usantatecla.mastermind.types--><path d="M1331.5348,44.1264 C1331.5348,44.1264 1020.41,91.072 888.264,111.0131 " fill="none" id="jar-usantatecla.mastermind.types" style="stroke:#A80036;stroke-width:1.0;"/><polygon fill="#A80036" points="875.284,112.9718,884.7801,115.5839,880.228,112.2257,883.5863,107.6735,875.284,112.9718" style="stroke:#A80036;stroke-width:1.0;"/><line style="stroke:#A80036;stroke-width:1.0;" x1="880.228" x2="888.138" y1="112.2257" y2="111.032"/><polygon fill="#A80036" points="1343.4,42.333,1336.8696,39.2746,1331.5348,44.1264,1338.0652,47.1848,1343.4,42.333" style="stroke:#A80036;stroke-width:1.0;"/><!--MD5=[9b931e9ad5c3902361053e698395b79d]
link jar to usantatecla.mastermind.views--><path d="M1331.8855,55.8697 C1331.8855,55.8697 1200.55,93.5814 1145.93,109.2659 " fill="none" id="jar-usantatecla.mastermind.views" style="stroke:#A80036;stroke-width:1.0;"/><polygon fill="#A80036" points="1133.17,112.9297,1142.9242,114.292,1137.976,111.5505,1140.7175,106.6023,1133.17,112.9297" style="stroke:#A80036;stroke-width:1.0;"/><line style="stroke:#A80036;stroke-width:1.0;" x1="1137.976" x2="1145.665" y1="111.5505" y2="109.3418"/><polygon fill="#A80036" points="1343.42,52.5598,1336.5495,50.3699,1331.8855,55.8697,1338.756,58.0596,1343.42,52.5598" style="stroke:#A80036;stroke-width:1.0;"/><!--MD5=[dc33a4fde77d4230156989d15f1199a0]
link jar to usantatecla.mastermind.views.console--><path d="M1418.5,65.3042 C1418.5,65.3042 1418.5,89.2598 1418.5,99.9085 " fill="none" id="jar-usantatecla.mastermind.views.console" style="stroke:#A80036;stroke-width:1.0;"/><polygon fill="#A80036" points="1418.5,112.9606,1422.5,103.9606,1418.5,107.9606,1414.5,103.9606,1418.5,112.9606" style="stroke:#A80036;stroke-width:1.0;"/><line style="stroke:#A80036;stroke-width:1.0;" x1="1418.5" x2="1418.5" y1="107.9606" y2="99.9607"/><polygon fill="#A80036" points="1418.5,53.3042,1414.5,59.3042,1418.5,65.3042,1422.5,59.3042,1418.5,53.3042" style="stroke:#A80036;stroke-width:1.0;"/><!--MD5=[478778a62fbb913535b45914106db0eb]
link jar to usantatecla.mastermind.views.graphics--><path d="M1505.1971,53.5041 C1505.1971,53.5041 1657.95,93.1831 1721.45,109.6731 " fill="none" id="jar-usantatecla.mastermind.views.graphics" style="stroke:#A80036;stroke-width:1.0;"/><polygon fill="#A80036" points="1734.23,112.9907,1726.5261,106.8547,1729.3909,111.7326,1724.5131,114.5973,1734.23,112.9907" style="stroke:#A80036;stroke-width:1.0;"/><line style="stroke:#A80036;stroke-width:1.0;" x1="1729.3909" x2="1721.645" y1="111.7326" y2="109.7231"/><polygon fill="#A80036" points="1493.58,50.497,1498.3862,55.8729,1505.1971,53.5041,1500.3909,48.1282,1493.58,50.497" style="stroke:#A80036;stroke-width:1.0;"/><!--MD5=[8059cd5737844cbfa7541e4ee98eb909]
link jar to usantatecla.utils--><path d="M1505.5487,42.1559 C1505.5487,42.1559 1826.53,84.8394 2001.5,113 C2002.79,113.2078 2004.09,113.4187 2005.4,113.6323 " fill="none" id="jar-usantatecla.utils" style="stroke:#A80036;stroke-width:1.0;"/><polygon fill="#A80036" points="2018.39,115.8026,2010.1724,110.3738,2013.4584,114.9784,2008.8538,118.2644,2018.39,115.8026" style="stroke:#A80036;stroke-width:1.0;"/><line style="stroke:#A80036;stroke-width:1.0;" x1="2013.4584" x2="2005.57" y1="114.9784" y2="113.6606"/><polygon fill="#A80036" points="1493.65,40.6,1499.0807,45.3442,1505.5487,42.1559,1500.118,37.4117,1493.65,40.6" style="stroke:#A80036;stroke-width:1.0;"/><!--MD5=[f17a38c250a1605cd3da9b9fac2ef94b]
link jar to java.io--><path d="M1505.6672,34.3709 C1505.6672,34.3709 1956.03,61.2447 2206.5,113 C2207.87,113.2824 2209.25,113.5838 2210.64,113.9016 " fill="none" id="jar-java.io" style="stroke:#A80036;stroke-width:1.0;"/><polygon fill="#A80036" points="2223.23,117.1317,2215.5054,111.0218,2218.3867,115.8899,2213.5186,118.7711,2223.23,117.1317" style="stroke:#A80036;stroke-width:1.0;"/><line style="stroke:#A80036;stroke-width:1.0;" x1="2218.3867" x2="2210.64" y1="115.8899" y2="113.9017"/><polygon fill="#A80036" points="1493.68,33.817,1499.489,38.0897,1505.6672,34.3709,1499.8582,30.0982,1493.68,33.817" style="stroke:#A80036;stroke-width:1.0;"/><!--MD5=[a929e6d2b54380e4c3e4c2b17ce7cd9b]
link jar to java.util--><path d="M1505.7826,33.573 C1505.7826,33.573 2028.67,58.4561 2325.5,113 C2326.99,113.2742 2328.5,113.567 2330.02,113.8758 " fill="none" id="jar-java.util" style="stroke:#A80036;stroke-width:1.0;"/><polygon fill="#A80036" points="2342.72,116.7517,2334.8258,110.8626,2337.8435,115.6473,2333.0588,118.665,2342.72,116.7517" style="stroke:#A80036;stroke-width:1.0;"/><line style="stroke:#A80036;stroke-width:1.0;" x1="2337.8435" x2="2330.035" y1="115.6473" y2="113.8806"/><polygon fill="#A80036" points="1493.79,33.151,1499.6456,37.3595,1505.7826,33.573,1499.927,29.3645,1493.79,33.151" style="stroke:#A80036;stroke-width:1.0;"/><!--MD5=[3310bd844c761ac25f7cc682df39c75c]
@startuml
package "  "  as usantatecla.mastermind {
}
package "  "  as usantatecla.mastermind.models {
}
package "  "  as usantatecla.mastermind.types {
}
package "  "  as usantatecla.mastermind.views {
}
package "  "  as usantatecla.mastermind.views.console {
}
package "  "  as usantatecla.mastermind.views.graphics {
}
package "  "  as usantatecla.utils {
}
package "  "  as java.io {
}
package "  "  as java.util {
}

[mastermind.jar] as jar

jar *- -> usantatecla.mastermind
jar *- -> usantatecla.mastermind.models
jar *- -> usantatecla.mastermind.types
jar *- -> usantatecla.mastermind.views
jar *- -> usantatecla.mastermind.views.console
jar *- -> usantatecla.mastermind.views.graphics
jar *- -> usantatecla.utils
jar *- -> java.io
jar *- -> java.util
@enduml

PlantUML version 1.2020.22beta3(Unknown compile time)
(GPL source distribution)
Java Runtime: Java(TM) SE Runtime Environment
JVM: Java HotSpot(TM) 64-Bit Server VM
Default Encoding: UTF-8
Language: en
Country: US
--></g></svg>