<?xml version="1.0" encoding="UTF-8" standalone="no"?><svg xmlns="http://www.w3.org/2000/svg" xmlns:xlink="http://www.w3.org/1999/xlink" contentScriptType="application/ecmascript" contentStyleType="text/css" height="227px" preserveAspectRatio="none" style="width:370px;height:227px;" version="1.1" viewBox="0 0 370 227" width="370px" zoomAndPan="magnify"><defs><filter height="300%" id="fih8preo6ap8k" width="300%" x="-1" y="-1"><feGaussianBlur result="blurOut" stdDeviation="2.0"/><feColorMatrix in="blurOut" result="blurOut2" type="matrix" values="0 0 0 0 0 0 0 0 0 0 0 0 0 0 0 0 0 0 .4 0"/><feOffset dx="4.0" dy="4.0" in="blurOut2" result="blurOut3"/><feBlend in="SourceGraphic" in2="blurOut3" mode="normal"/></filter></defs><g><!--MD5=[8c0210f25e02723f65a0c6cf47cc6884]
cluster usantatecla.mastermind.types--><polygon fill="#FFFFFF" filter="url(#fih8preo6ap8k)" points="16,6,273,6,280,28.2969,353,28.2969,353,220,16,220,16,6" style="stroke:#000000;stroke-width:1.5;"/><line style="stroke:#000000;stroke-width:1.5;" x1="16" x2="280" y1="28.2969" y2="28.2969"/><text fill="#000000" font-family="sans-serif" font-size="14" font-weight="bold" lengthAdjust="spacingAndGlyphs" textLength="251" x="20" y="20.9951">usantatecla.mastermind.types</text><!--MD5=[9ba97027f3433c7bc0635c95b0f40e9e]
class usantatecla.mastermind.types.Color--><rect codeLine="1" fill="#FEFECE" filter="url(#fih8preo6ap8k)" height="163.2422" id="usantatecla.mastermind.types.Color" style="stroke:#A80036;stroke-width:1.5;" width="117" x="219.5" y="41"/><ellipse cx="258.35" cy="57" fill="#EB937F" rx="11" ry="11" style="stroke:#A80036;stroke-width:1.0;"/><path d="M257.1469,57.875 L258.6,57.875 L258.6,57.9844 C258.6,58.3906 258.6313,58.5469 258.7094,58.7031 C258.8656,58.9531 259.1469,59.1094 259.4438,59.1094 C259.6938,59.1094 259.9594,58.9688 260.1156,58.75 C260.2406,58.5938 260.2719,58.4375 260.2719,57.9844 L260.2719,56.0625 C260.2719,55.9063 260.2719,55.8594 260.2563,55.7031 C260.1938,55.2344 259.8813,54.9219 259.4281,54.9219 C259.1781,54.9219 258.9125,55.0625 258.7406,55.2813 C258.6313,55.4531 258.6,55.6094 258.6,56.0625 L258.6,56.1875 L257.1469,56.1875 L257.1469,53.7813 L261.1313,53.7813 L261.1313,54.6406 C261.1313,55.0469 261.1625,55.2188 261.2406,55.375 C261.4125,55.625 261.6938,55.7813 261.975,55.7813 C262.2406,55.7813 262.5063,55.6406 262.6781,55.4219 C262.7875,55.25 262.8188,55.1094 262.8188,54.6406 L262.8188,52.0938 L255.1938,52.0938 C254.7563,52.0938 254.6313,52.1094 254.475,52.2031 C254.225,52.3594 254.0688,52.6563 254.0688,52.9375 C254.0688,53.2188 254.2094,53.4688 254.4281,53.6406 C254.5844,53.75 254.7719,53.7813 255.1938,53.7813 L255.4438,53.7813 L255.4438,60.2969 L255.1938,60.2969 C254.7875,60.2969 254.6313,60.3125 254.475,60.4219 C254.225,60.5938 254.0688,60.8594 254.0688,61.1563 C254.0688,61.4219 254.2094,61.6719 254.4281,61.8281 C254.5688,61.9531 254.8031,62 255.1938,62 L263.1938,62 L263.1938,59.4219 C263.1938,58.9844 263.1625,58.8438 263.0844,58.6875 C262.9125,58.4375 262.6313,58.2813 262.35,58.2813 C262.0844,58.2813 261.8188,58.3906 261.6469,58.6406 C261.5375,58.7969 261.5063,58.9375 261.5063,59.4219 L261.5063,60.2969 L257.1469,60.2969 L257.1469,57.875 Z " fill="#000000"/><text fill="#000000" font-family="sans-serif" font-size="12" lengthAdjust="spacingAndGlyphs" textLength="32" x="277.65" y="61.1543">Color</text><line style="stroke:#A80036;stroke-width:1.5;" x1="220.5" x2="335.5" y1="73" y2="73"/><ellipse cx="230.5" cy="84" fill="none" rx="3" ry="3" style="stroke:#038048;stroke-width:1.0;"/><text fill="#000000" font-family="sans-serif" font-size="11" lengthAdjust="spacingAndGlyphs" textLength="23" x="239.5" y="87.2104">RED</text><ellipse cx="230.5" cy="96.8047" fill="none" rx="3" ry="3" style="stroke:#038048;stroke-width:1.0;"/><text fill="#000000" font-family="sans-serif" font-size="11" lengthAdjust="spacingAndGlyphs" textLength="29" x="239.5" y="100.0151">BLUE</text><ellipse cx="230.5" cy="109.6094" fill="none" rx="3" ry="3" style="stroke:#038048;stroke-width:1.0;"/><text fill="#000000" font-family="sans-serif" font-size="11" lengthAdjust="spacingAndGlyphs" textLength="46" x="239.5" y="112.8198">YELLOW</text><ellipse cx="230.5" cy="122.4141" fill="none" rx="3" ry="3" style="stroke:#038048;stroke-width:1.0;"/><text fill="#000000" font-family="sans-serif" font-size="11" lengthAdjust="spacingAndGlyphs" textLength="38" x="239.5" y="125.6245">GREEN</text><ellipse cx="230.5" cy="135.2188" fill="none" rx="3" ry="3" style="stroke:#038048;stroke-width:1.0;"/><text fill="#000000" font-family="sans-serif" font-size="11" lengthAdjust="spacingAndGlyphs" textLength="48" x="239.5" y="138.4292">ORANGE</text><ellipse cx="230.5" cy="148.0234" fill="none" rx="3" ry="3" style="stroke:#038048;stroke-width:1.0;"/><text fill="#000000" font-family="sans-serif" font-size="11" lengthAdjust="spacingAndGlyphs" textLength="40" x="239.5" y="151.2339">PURPLE</text><ellipse cx="230.5" cy="160.8281" fill="none" rx="3" ry="3" style="stroke:#038048;stroke-width:1.0;"/><text fill="#000000" font-family="sans-serif" font-size="11" lengthAdjust="spacingAndGlyphs" textLength="28" x="239.5" y="164.0386">NULL</text><line style="stroke:#A80036;stroke-width:1.5;" x1="220.5" x2="335.5" y1="170.6328" y2="170.6328"/><polygon fill="#4177AF" points="230.5,177.6328,226.5,183.6328,234.5,183.6328" style="stroke:#1963A0;stroke-width:1.0;"/><text fill="#000000" font-family="sans-serif" font-size="11" lengthAdjust="spacingAndGlyphs" text-decoration="underline" textLength="65" x="239.5" y="184.8433">length(): int</text><ellipse cx="230.5" cy="194.4375" fill="#84BE84" rx="3" ry="3" style="stroke:#038048;stroke-width:1.0;"/><text fill="#000000" font-family="sans-serif" font-size="11" lengthAdjust="spacingAndGlyphs" textLength="91" x="239.5" y="197.6479">isNull(): boolean</text><!--MD5=[361325273302787e4c8f3934acbb17be]
class usantatecla.mastermind.types.Error--><rect codeLine="13" fill="#FEFECE" filter="url(#fih8preo6ap8k)" height="112.0234" id="usantatecla.mastermind.types.Error" style="stroke:#A80036;stroke-width:1.5;" width="152" x="32" y="66.5"/><ellipse cx="88.75" cy="82.5" fill="#EB937F" rx="11" ry="11" style="stroke:#A80036;stroke-width:1.0;"/><path d="M87.5469,83.375 L89,83.375 L89,83.4844 C89,83.8906 89.0313,84.0469 89.1094,84.2031 C89.2656,84.4531 89.5469,84.6094 89.8438,84.6094 C90.0938,84.6094 90.3594,84.4688 90.5156,84.25 C90.6406,84.0938 90.6719,83.9375 90.6719,83.4844 L90.6719,81.5625 C90.6719,81.4063 90.6719,81.3594 90.6563,81.2031 C90.5938,80.7344 90.2813,80.4219 89.8281,80.4219 C89.5781,80.4219 89.3125,80.5625 89.1406,80.7813 C89.0313,80.9531 89,81.1094 89,81.5625 L89,81.6875 L87.5469,81.6875 L87.5469,79.2813 L91.5313,79.2813 L91.5313,80.1406 C91.5313,80.5469 91.5625,80.7188 91.6406,80.875 C91.8125,81.125 92.0938,81.2813 92.375,81.2813 C92.6406,81.2813 92.9063,81.1406 93.0781,80.9219 C93.1875,80.75 93.2188,80.6094 93.2188,80.1406 L93.2188,77.5938 L85.5938,77.5938 C85.1563,77.5938 85.0313,77.6094 84.875,77.7031 C84.625,77.8594 84.4688,78.1563 84.4688,78.4375 C84.4688,78.7188 84.6094,78.9688 84.8281,79.1406 C84.9844,79.25 85.1719,79.2813 85.5938,79.2813 L85.8438,79.2813 L85.8438,85.7969 L85.5938,85.7969 C85.1875,85.7969 85.0313,85.8125 84.875,85.9219 C84.625,86.0938 84.4688,86.3594 84.4688,86.6563 C84.4688,86.9219 84.6094,87.1719 84.8281,87.3281 C84.9688,87.4531 85.2031,87.5 85.5938,87.5 L93.5938,87.5 L93.5938,84.9219 C93.5938,84.4844 93.5625,84.3438 93.4844,84.1875 C93.3125,83.9375 93.0313,83.7813 92.75,83.7813 C92.4844,83.7813 92.2188,83.8906 92.0469,84.1406 C91.9375,84.2969 91.9063,84.4375 91.9063,84.9219 L91.9063,85.7969 L87.5469,85.7969 L87.5469,83.375 Z " fill="#000000"/><text fill="#000000" font-family="sans-serif" font-size="12" lengthAdjust="spacingAndGlyphs" textLength="30" x="109.25" y="86.6543">Error</text><line style="stroke:#A80036;stroke-width:1.5;" x1="33" x2="183" y1="98.5" y2="98.5"/><ellipse cx="43" cy="109.5" fill="none" rx="3" ry="3" style="stroke:#038048;stroke-width:1.0;"/><text fill="#000000" font-family="sans-serif" font-size="11" lengthAdjust="spacingAndGlyphs" textLength="71" x="52" y="112.7104">DUPLICATED</text><ellipse cx="43" cy="122.3047" fill="none" rx="3" ry="3" style="stroke:#038048;stroke-width:1.0;"/><text fill="#000000" font-family="sans-serif" font-size="11" lengthAdjust="spacingAndGlyphs" textLength="126" x="52" y="125.5151">WRONG_CHARACTERS</text><ellipse cx="43" cy="135.1094" fill="none" rx="3" ry="3" style="stroke:#038048;stroke-width:1.0;"/><text fill="#000000" font-family="sans-serif" font-size="11" lengthAdjust="spacingAndGlyphs" textLength="95" x="52" y="138.3198">WRONG_LENGTH</text><ellipse cx="43" cy="147.9141" fill="none" rx="3" ry="3" style="stroke:#038048;stroke-width:1.0;"/><text fill="#000000" font-family="sans-serif" font-size="11" lengthAdjust="spacingAndGlyphs" textLength="28" x="52" y="151.1245">NULL</text><line style="stroke:#A80036;stroke-width:1.5;" x1="33" x2="183" y1="157.7188" y2="157.7188"/><ellipse cx="43" cy="168.7188" fill="#84BE84" rx="3" ry="3" style="stroke:#038048;stroke-width:1.0;"/><text fill="#000000" font-family="sans-serif" font-size="11" lengthAdjust="spacingAndGlyphs" textLength="91" x="52" y="171.9292">isNull(): boolean</text><!--MD5=[64ae748a8a42f3575cf6a4e49ead7698]
@startuml
enum usantatecla.mastermind.types.Color {
    + RED
    + BLUE
    + YELLOW
    + GREEN
    + ORANGE
    + PURPLE
    + NULL
    ~ {static} length(): int
    + isNull(): boolean
}

enum usantatecla.mastermind.types.Error {
    + DUPLICATED
    + WRONG_CHARACTERS
    + WRONG_LENGTH
    + NULL
    + isNull(): boolean
}
@enduml

PlantUML version 1.2020.23beta3(Unknown compile time)
(GPL source distribution)
Java Runtime: Java(TM) SE Runtime Environment
JVM: Java HotSpot(TM) 64-Bit Server VM
Default Encoding: UTF-8
Language: en
Country: US
--></g></svg>