<?xml version="1.0" encoding="UTF-8" standalone="no"?><svg xmlns="http://www.w3.org/2000/svg" xmlns:xlink="http://www.w3.org/1999/xlink" contentScriptType="application/ecmascript" contentStyleType="text/css" height="967px" preserveAspectRatio="none" style="width:2566px;height:967px;" version="1.1" viewBox="0 0 2566 967" width="2566px" zoomAndPan="magnify"><defs><filter height="300%" id="f1551r1okbqake" width="300%" x="-1" y="-1"><feGaussianBlur result="blurOut" stdDeviation="2.0"/><feColorMatrix in="blurOut" result="blurOut2" type="matrix" values="0 0 0 0 0 0 0 0 0 0 0 0 0 0 0 0 0 0 .4 0"/><feOffset dx="4.0" dy="4.0" in="blurOut2" result="blurOut3"/><feBlend in="SourceGraphic" in2="blurOut3" mode="normal"/></filter></defs><g><!--MD5=[870a69ce9634146fd8c5498968cba5fd]
cluster usantatecla.mastermind.views.console--><polygon fill="#FFFFFF" filter="url(#f1551r1okbqake)" points="871,100,1195,100,1202,122.2969,1974,122.2969,1974,842,871,842,871,100" style="stroke:#000000;stroke-width:1.5;"/><line style="stroke:#000000;stroke-width:1.5;" x1="871" x2="1202" y1="122.2969" y2="122.2969"/><text fill="#000000" font-family="sans-serif" font-size="14" font-weight="bold" lengthAdjust="spacingAndGlyphs" textLength="318" x="875" y="114.9951">usantatecla.mastermind.views.console</text><!--MD5=[dd3efb2c58b4e82c246b11a4f49b163b]
class usantatecla.mastermind.views.console.ConsoleView--><rect codeLine="15" fill="#FEFECE" filter="url(#f1551r1okbqake)" height="99.2188" id="usantatecla.mastermind.views.console.ConsoleView" style="stroke:#A80036;stroke-width:1.5;" width="159" x="960.5" y="135"/><ellipse cx="997.55" cy="151" fill="#ADD1B2" rx="11" ry="11" style="stroke:#A80036;stroke-width:1.0;"/><path d="M999.8938,146.6719 C998.9563,146.2344 998.3625,146.0938 997.4875,146.0938 C994.8625,146.0938 992.8625,148.1719 992.8625,150.8906 L992.8625,152.0156 C992.8625,154.5938 994.9719,156.4844 997.8625,156.4844 C999.0813,156.4844 1000.2375,156.1875 1000.9875,155.6406 C1001.5656,155.2344 1001.8938,154.7813 1001.8938,154.3906 C1001.8938,153.9375 1001.5031,153.5469 1001.0344,153.5469 C1000.8156,153.5469 1000.6125,153.625 1000.425,153.8125 C999.9719,154.2969 999.9719,154.2969 999.7844,154.3906 C999.3625,154.6563 998.675,154.7813 997.9094,154.7813 C995.8625,154.7813 994.5656,153.6875 994.5656,151.9844 L994.5656,150.8906 C994.5656,149.1094 995.8156,147.7969 997.55,147.7969 C998.1281,147.7969 998.7375,147.9531 999.2063,148.2031 C999.6906,148.4844 999.8625,148.7031 999.9563,149.1094 C1000.0188,149.5156 1000.05,149.6406 1000.1906,149.7656 C1000.3313,149.9063 1000.5656,150.0156 1000.7844,150.0156 C1001.05,150.0156 1001.3156,149.875 1001.4875,149.6563 C1001.5969,149.5 1001.6281,149.3125 1001.6281,148.8906 L1001.6281,147.4688 C1001.6281,147.0313 1001.6125,146.9063 1001.5188,146.75 C1001.3625,146.4844 1001.0813,146.3438 1000.7844,146.3438 C1000.4875,146.3438 1000.2844,146.4375 1000.0656,146.75 L999.8938,146.6719 Z " fill="#000000"/><text fill="#000000" font-family="sans-serif" font-size="12" lengthAdjust="spacingAndGlyphs" textLength="78" x="1016.45" y="155.1543">ConsoleView</text><line style="stroke:#A80036;stroke-width:1.5;" x1="961.5" x2="1118.5" y1="167" y2="167"/><line style="stroke:#A80036;stroke-width:1.5;" x1="961.5" x2="1118.5" y1="175" y2="175"/><ellipse cx="971.5" cy="186" fill="#84BE84" rx="3" ry="3" style="stroke:#038048;stroke-width:1.0;"/><text fill="#000000" font-family="sans-serif" font-size="11" lengthAdjust="spacingAndGlyphs" textLength="82" x="980.5" y="189.2104">ConsoleView()</text><ellipse cx="971.5" cy="198.8047" fill="#84BE84" rx="3" ry="3" style="stroke:#038048;stroke-width:1.0;"/><text fill="#000000" font-family="sans-serif" font-size="11" lengthAdjust="spacingAndGlyphs" textLength="113" x="980.5" y="202.0151">visit(StartController)</text><ellipse cx="971.5" cy="211.6094" fill="#84BE84" rx="3" ry="3" style="stroke:#038048;stroke-width:1.0;"/><text fill="#000000" font-family="sans-serif" font-size="11" lengthAdjust="spacingAndGlyphs" textLength="133" x="980.5" y="214.8198">visit(ProposalController)</text><ellipse cx="971.5" cy="224.4141" fill="#84BE84" rx="3" ry="3" style="stroke:#038048;stroke-width:1.0;"/><text fill="#000000" font-family="sans-serif" font-size="11" lengthAdjust="spacingAndGlyphs" textLength="133" x="980.5" y="227.6245">visit(ResumeController)</text><!--MD5=[0443121bcbe511df2c378d392fee4a36]
class usantatecla.mastermind.views.console.StartView--><rect codeLine="36" fill="#FEFECE" filter="url(#f1551r1okbqake)" height="60.8047" id="usantatecla.mastermind.views.console.StartView" style="stroke:#A80036;stroke-width:1.5;" width="159" x="888.5" y="441"/><ellipse cx="935.25" cy="457" fill="#ADD1B2" rx="11" ry="11" style="stroke:#A80036;stroke-width:1.0;"/><path d="M937.5938,452.6719 C936.6563,452.2344 936.0625,452.0938 935.1875,452.0938 C932.5625,452.0938 930.5625,454.1719 930.5625,456.8906 L930.5625,458.0156 C930.5625,460.5938 932.6719,462.4844 935.5625,462.4844 C936.7813,462.4844 937.9375,462.1875 938.6875,461.6406 C939.2656,461.2344 939.5938,460.7813 939.5938,460.3906 C939.5938,459.9375 939.2031,459.5469 938.7344,459.5469 C938.5156,459.5469 938.3125,459.625 938.125,459.8125 C937.6719,460.2969 937.6719,460.2969 937.4844,460.3906 C937.0625,460.6563 936.375,460.7813 935.6094,460.7813 C933.5625,460.7813 932.2656,459.6875 932.2656,457.9844 L932.2656,456.8906 C932.2656,455.1094 933.5156,453.7969 935.25,453.7969 C935.8281,453.7969 936.4375,453.9531 936.9063,454.2031 C937.3906,454.4844 937.5625,454.7031 937.6563,455.1094 C937.7188,455.5156 937.75,455.6406 937.8906,455.7656 C938.0313,455.9063 938.2656,456.0156 938.4844,456.0156 C938.75,456.0156 939.0156,455.875 939.1875,455.6563 C939.2969,455.5 939.3281,455.3125 939.3281,454.8906 L939.3281,453.4688 C939.3281,453.0313 939.3125,452.9063 939.2188,452.75 C939.0625,452.4844 938.7813,452.3438 938.4844,452.3438 C938.1875,452.3438 937.9844,452.4375 937.7656,452.75 L937.5938,452.6719 Z " fill="#000000"/><text fill="#000000" font-family="sans-serif" font-size="12" lengthAdjust="spacingAndGlyphs" textLength="57" x="955.75" y="461.1543">StartView</text><line style="stroke:#A80036;stroke-width:1.5;" x1="889.5" x2="1046.5" y1="473" y2="473"/><line style="stroke:#A80036;stroke-width:1.5;" x1="889.5" x2="1046.5" y1="481" y2="481"/><polygon fill="#4177AF" points="899.5,488,895.5,494,903.5,494" style="stroke:#1963A0;stroke-width:1.0;"/><text fill="#000000" font-family="sans-serif" font-size="11" lengthAdjust="spacingAndGlyphs" textLength="133" x="908.5" y="495.2104">interact(StartController)</text><!--MD5=[3fc381aa527804d9b0f68b14a0cbd981]
class usantatecla.mastermind.views.console.ProposalView--><rect codeLine="44" fill="#FEFECE" filter="url(#f1551r1okbqake)" height="60.8047" id="usantatecla.mastermind.views.console.ProposalView" style="stroke:#A80036;stroke-width:1.5;" width="179" x="1776.5" y="297.5"/><ellipse cx="1821.25" cy="313.5" fill="#ADD1B2" rx="11" ry="11" style="stroke:#A80036;stroke-width:1.0;"/><path d="M1823.5938,309.1719 C1822.6563,308.7344 1822.0625,308.5938 1821.1875,308.5938 C1818.5625,308.5938 1816.5625,310.6719 1816.5625,313.3906 L1816.5625,314.5156 C1816.5625,317.0938 1818.6719,318.9844 1821.5625,318.9844 C1822.7813,318.9844 1823.9375,318.6875 1824.6875,318.1406 C1825.2656,317.7344 1825.5938,317.2813 1825.5938,316.8906 C1825.5938,316.4375 1825.2031,316.0469 1824.7344,316.0469 C1824.5156,316.0469 1824.3125,316.125 1824.125,316.3125 C1823.6719,316.7969 1823.6719,316.7969 1823.4844,316.8906 C1823.0625,317.1563 1822.375,317.2813 1821.6094,317.2813 C1819.5625,317.2813 1818.2656,316.1875 1818.2656,314.4844 L1818.2656,313.3906 C1818.2656,311.6094 1819.5156,310.2969 1821.25,310.2969 C1821.8281,310.2969 1822.4375,310.4531 1822.9063,310.7031 C1823.3906,310.9844 1823.5625,311.2031 1823.6563,311.6094 C1823.7188,312.0156 1823.75,312.1406 1823.8906,312.2656 C1824.0313,312.4063 1824.2656,312.5156 1824.4844,312.5156 C1824.75,312.5156 1825.0156,312.375 1825.1875,312.1563 C1825.2969,312 1825.3281,311.8125 1825.3281,311.3906 L1825.3281,309.9688 C1825.3281,309.5313 1825.3125,309.4063 1825.2188,309.25 C1825.0625,308.9844 1824.7813,308.8438 1824.4844,308.8438 C1824.1875,308.8438 1823.9844,308.9375 1823.7656,309.25 L1823.5938,309.1719 Z " fill="#000000"/><text fill="#000000" font-family="sans-serif" font-size="12" lengthAdjust="spacingAndGlyphs" textLength="81" x="1841.75" y="317.6543">ProposalView</text><line style="stroke:#A80036;stroke-width:1.5;" x1="1777.5" x2="1954.5" y1="329.5" y2="329.5"/><line style="stroke:#A80036;stroke-width:1.5;" x1="1777.5" x2="1954.5" y1="337.5" y2="337.5"/><polygon fill="#4177AF" points="1787.5,344.5,1783.5,350.5,1791.5,350.5" style="stroke:#1963A0;stroke-width:1.0;"/><text fill="#000000" font-family="sans-serif" font-size="11" lengthAdjust="spacingAndGlyphs" textLength="153" x="1796.5" y="351.7104">interact(ProposalController)</text><!--MD5=[9bc3463fd80c6188f2068243b6359e84]
class usantatecla.mastermind.views.console.ResumeView--><rect codeLine="29" fill="#FEFECE" filter="url(#f1551r1okbqake)" height="60.8047" id="usantatecla.mastermind.views.console.ResumeView" style="stroke:#A80036;stroke-width:1.5;" width="179" x="887.5" y="297.5"/><ellipse cx="934.25" cy="313.5" fill="#ADD1B2" rx="11" ry="11" style="stroke:#A80036;stroke-width:1.0;"/><path d="M936.5938,309.1719 C935.6563,308.7344 935.0625,308.5938 934.1875,308.5938 C931.5625,308.5938 929.5625,310.6719 929.5625,313.3906 L929.5625,314.5156 C929.5625,317.0938 931.6719,318.9844 934.5625,318.9844 C935.7813,318.9844 936.9375,318.6875 937.6875,318.1406 C938.2656,317.7344 938.5938,317.2813 938.5938,316.8906 C938.5938,316.4375 938.2031,316.0469 937.7344,316.0469 C937.5156,316.0469 937.3125,316.125 937.125,316.3125 C936.6719,316.7969 936.6719,316.7969 936.4844,316.8906 C936.0625,317.1563 935.375,317.2813 934.6094,317.2813 C932.5625,317.2813 931.2656,316.1875 931.2656,314.4844 L931.2656,313.3906 C931.2656,311.6094 932.5156,310.2969 934.25,310.2969 C934.8281,310.2969 935.4375,310.4531 935.9063,310.7031 C936.3906,310.9844 936.5625,311.2031 936.6563,311.6094 C936.7188,312.0156 936.75,312.1406 936.8906,312.2656 C937.0313,312.4063 937.2656,312.5156 937.4844,312.5156 C937.75,312.5156 938.0156,312.375 938.1875,312.1563 C938.2969,312 938.3281,311.8125 938.3281,311.3906 L938.3281,309.9688 C938.3281,309.5313 938.3125,309.4063 938.2188,309.25 C938.0625,308.9844 937.7813,308.8438 937.4844,308.8438 C937.1875,308.8438 936.9844,308.9375 936.7656,309.25 L936.5938,309.1719 Z " fill="#000000"/><text fill="#000000" font-family="sans-serif" font-size="12" lengthAdjust="spacingAndGlyphs" textLength="77" x="954.75" y="317.6543">ResumeView</text><line style="stroke:#A80036;stroke-width:1.5;" x1="888.5" x2="1065.5" y1="329.5" y2="329.5"/><line style="stroke:#A80036;stroke-width:1.5;" x1="888.5" x2="1065.5" y1="337.5" y2="337.5"/><polygon fill="#4177AF" points="898.5,344.5,894.5,350.5,902.5,350.5" style="stroke:#1963A0;stroke-width:1.0;"/><text fill="#000000" font-family="sans-serif" font-size="11" lengthAdjust="spacingAndGlyphs" textLength="153" x="907.5" y="351.7104">interact(ResumeController)</text><!--MD5=[6895d7787d38d293342c8d69eaf320fc]
class usantatecla.mastermind.views.console.SecretCombinationView--><rect codeLine="77" fill="#FEFECE" filter="url(#f1551r1okbqake)" height="73.6094" id="usantatecla.mastermind.views.console.SecretCombinationView" style="stroke:#A80036;stroke-width:1.5;" width="226" x="887" y="587"/><ellipse cx="924.95" cy="603" fill="#ADD1B2" rx="11" ry="11" style="stroke:#A80036;stroke-width:1.0;"/><path d="M927.2938,598.6719 C926.3563,598.2344 925.7625,598.0938 924.8875,598.0938 C922.2625,598.0938 920.2625,600.1719 920.2625,602.8906 L920.2625,604.0156 C920.2625,606.5938 922.3719,608.4844 925.2625,608.4844 C926.4813,608.4844 927.6375,608.1875 928.3875,607.6406 C928.9656,607.2344 929.2938,606.7813 929.2938,606.3906 C929.2938,605.9375 928.9031,605.5469 928.4344,605.5469 C928.2156,605.5469 928.0125,605.625 927.825,605.8125 C927.3719,606.2969 927.3719,606.2969 927.1844,606.3906 C926.7625,606.6563 926.075,606.7813 925.3094,606.7813 C923.2625,606.7813 921.9656,605.6875 921.9656,603.9844 L921.9656,602.8906 C921.9656,601.1094 923.2156,599.7969 924.95,599.7969 C925.5281,599.7969 926.1375,599.9531 926.6063,600.2031 C927.0906,600.4844 927.2625,600.7031 927.3563,601.1094 C927.4188,601.5156 927.45,601.6406 927.5906,601.7656 C927.7313,601.9063 927.9656,602.0156 928.1844,602.0156 C928.45,602.0156 928.7156,601.875 928.8875,601.6563 C928.9969,601.5 929.0281,601.3125 929.0281,600.8906 L929.0281,599.4688 C929.0281,599.0313 929.0125,598.9063 928.9188,598.75 C928.7625,598.4844 928.4813,598.3438 928.1844,598.3438 C927.8875,598.3438 927.6844,598.4375 927.4656,598.75 L927.2938,598.6719 Z " fill="#000000"/><text fill="#000000" font-family="sans-serif" font-size="12" lengthAdjust="spacingAndGlyphs" textLength="143" x="944.05" y="607.1543">SecretCombinationView</text><line style="stroke:#A80036;stroke-width:1.5;" x1="888" x2="1112" y1="619" y2="619"/><line style="stroke:#A80036;stroke-width:1.5;" x1="888" x2="1112" y1="627" y2="627"/><polygon fill="#4177AF" points="898,634,894,640,902,640" style="stroke:#1963A0;stroke-width:1.0;"/><text fill="#000000" font-family="sans-serif" font-size="11" lengthAdjust="spacingAndGlyphs" textLength="200" x="907" y="641.2104">SecretCombinationView(Controller)</text><polygon fill="#4177AF" points="898,646.8047,894,652.8047,902,652.8047" style="stroke:#1963A0;stroke-width:1.0;"/><text fill="#000000" font-family="sans-serif" font-size="11" lengthAdjust="spacingAndGlyphs" textLength="46" x="907" y="654.0151">writeln()</text><!--MD5=[5d8d3b26785111685f5f40cebb1fba2a]
class usantatecla.mastermind.views.console.GameView--><rect codeLine="54" fill="#FEFECE" filter="url(#f1551r1okbqake)" height="73.6094" id="usantatecla.mastermind.views.console.GameView" style="stroke:#A80036;stroke-width:1.5;" width="199" x="1278.5" y="434.5"/><ellipse cx="1341.75" cy="450.5" fill="#ADD1B2" rx="11" ry="11" style="stroke:#A80036;stroke-width:1.0;"/><path d="M1344.0938,446.1719 C1343.1563,445.7344 1342.5625,445.5938 1341.6875,445.5938 C1339.0625,445.5938 1337.0625,447.6719 1337.0625,450.3906 L1337.0625,451.5156 C1337.0625,454.0938 1339.1719,455.9844 1342.0625,455.9844 C1343.2813,455.9844 1344.4375,455.6875 1345.1875,455.1406 C1345.7656,454.7344 1346.0938,454.2813 1346.0938,453.8906 C1346.0938,453.4375 1345.7031,453.0469 1345.2344,453.0469 C1345.0156,453.0469 1344.8125,453.125 1344.625,453.3125 C1344.1719,453.7969 1344.1719,453.7969 1343.9844,453.8906 C1343.5625,454.1563 1342.875,454.2813 1342.1094,454.2813 C1340.0625,454.2813 1338.7656,453.1875 1338.7656,451.4844 L1338.7656,450.3906 C1338.7656,448.6094 1340.0156,447.2969 1341.75,447.2969 C1342.3281,447.2969 1342.9375,447.4531 1343.4063,447.7031 C1343.8906,447.9844 1344.0625,448.2031 1344.1563,448.6094 C1344.2188,449.0156 1344.25,449.1406 1344.3906,449.2656 C1344.5313,449.4063 1344.7656,449.5156 1344.9844,449.5156 C1345.25,449.5156 1345.5156,449.375 1345.6875,449.1563 C1345.7969,449 1345.8281,448.8125 1345.8281,448.3906 L1345.8281,446.9688 C1345.8281,446.5313 1345.8125,446.4063 1345.7188,446.25 C1345.5625,445.9844 1345.2813,445.8438 1344.9844,445.8438 C1344.6875,445.8438 1344.4844,445.9375 1344.2656,446.25 L1344.0938,446.1719 Z " fill="#000000"/><text fill="#000000" font-family="sans-serif" font-size="12" lengthAdjust="spacingAndGlyphs" textLength="64" x="1362.25" y="454.6543">GameView</text><line style="stroke:#A80036;stroke-width:1.5;" x1="1279.5" x2="1476.5" y1="466.5" y2="466.5"/><line style="stroke:#A80036;stroke-width:1.5;" x1="1279.5" x2="1476.5" y1="474.5" y2="474.5"/><polygon fill="#4177AF" points="1289.5,481.5,1285.5,487.5,1293.5,487.5" style="stroke:#1963A0;stroke-width:1.0;"/><text fill="#000000" font-family="sans-serif" font-size="11" lengthAdjust="spacingAndGlyphs" textLength="173" x="1298.5" y="488.7104">GameView(ProposalController)</text><polygon fill="#4177AF" points="1289.5,494.3047,1285.5,500.3047,1293.5,500.3047" style="stroke:#1963A0;stroke-width:1.0;"/><text fill="#000000" font-family="sans-serif" font-size="11" lengthAdjust="spacingAndGlyphs" textLength="36" x="1298.5" y="501.5151">write()</text><!--MD5=[b9e96ebb3841247a1bc6f6a4b0e36cb2]
class usantatecla.mastermind.views.console.ProposedCombinationView--><rect codeLine="66" fill="#FEFECE" filter="url(#f1551r1okbqake)" height="86.4141" id="usantatecla.mastermind.views.console.ProposedCombinationView" style="stroke:#A80036;stroke-width:1.5;" width="287" x="1633.5" y="581"/><ellipse cx="1692.25" cy="597" fill="#ADD1B2" rx="11" ry="11" style="stroke:#A80036;stroke-width:1.0;"/><path d="M1694.5938,592.6719 C1693.6563,592.2344 1693.0625,592.0938 1692.1875,592.0938 C1689.5625,592.0938 1687.5625,594.1719 1687.5625,596.8906 L1687.5625,598.0156 C1687.5625,600.5938 1689.6719,602.4844 1692.5625,602.4844 C1693.7813,602.4844 1694.9375,602.1875 1695.6875,601.6406 C1696.2656,601.2344 1696.5938,600.7813 1696.5938,600.3906 C1696.5938,599.9375 1696.2031,599.5469 1695.7344,599.5469 C1695.5156,599.5469 1695.3125,599.625 1695.125,599.8125 C1694.6719,600.2969 1694.6719,600.2969 1694.4844,600.3906 C1694.0625,600.6563 1693.375,600.7813 1692.6094,600.7813 C1690.5625,600.7813 1689.2656,599.6875 1689.2656,597.9844 L1689.2656,596.8906 C1689.2656,595.1094 1690.5156,593.7969 1692.25,593.7969 C1692.8281,593.7969 1693.4375,593.9531 1693.9063,594.2031 C1694.3906,594.4844 1694.5625,594.7031 1694.6563,595.1094 C1694.7188,595.5156 1694.75,595.6406 1694.8906,595.7656 C1695.0313,595.9063 1695.2656,596.0156 1695.4844,596.0156 C1695.75,596.0156 1696.0156,595.875 1696.1875,595.6563 C1696.2969,595.5 1696.3281,595.3125 1696.3281,594.8906 L1696.3281,593.4688 C1696.3281,593.0313 1696.3125,592.9063 1696.2188,592.75 C1696.0625,592.4844 1695.7813,592.3438 1695.4844,592.3438 C1695.1875,592.3438 1694.9844,592.4375 1694.7656,592.75 L1694.5938,592.6719 Z " fill="#000000"/><text fill="#000000" font-family="sans-serif" font-size="12" lengthAdjust="spacingAndGlyphs" textLength="161" x="1712.75" y="601.1543">ProposedCombinationView</text><line style="stroke:#A80036;stroke-width:1.5;" x1="1634.5" x2="1919.5" y1="613" y2="613"/><line style="stroke:#A80036;stroke-width:1.5;" x1="1634.5" x2="1919.5" y1="621" y2="621"/><ellipse cx="1644.5" cy="632" fill="#84BE84" rx="3" ry="3" style="stroke:#038048;stroke-width:1.0;"/><text fill="#000000" font-family="sans-serif" font-size="11" lengthAdjust="spacingAndGlyphs" textLength="261" x="1653.5" y="635.2104">ProposedCombinationView(ProposalController)</text><ellipse cx="1644.5" cy="644.8047" fill="#84BE84" rx="3" ry="3" style="stroke:#038048;stroke-width:1.0;"/><text fill="#000000" font-family="sans-serif" font-size="11" lengthAdjust="spacingAndGlyphs" textLength="50" x="1653.5" y="648.0151">write(int)</text><ellipse cx="1644.5" cy="657.6094" fill="#84BE84" rx="3" ry="3" style="stroke:#038048;stroke-width:1.0;"/><text fill="#000000" font-family="sans-serif" font-size="11" lengthAdjust="spacingAndGlyphs" textLength="107" x="1653.5" y="660.8198">read(): List&lt;Color&gt;</text><!--MD5=[f95016829e4a1954e9b815203fd5b79a]
class usantatecla.mastermind.views.console.ErrorView--><rect codeLine="112" fill="#FEFECE" filter="url(#f1551r1okbqake)" height="99.2188" id="usantatecla.mastermind.views.console.ErrorView" style="stroke:#A80036;stroke-width:1.5;" width="141" x="1816.5" y="422"/><ellipse cx="1854" cy="438" fill="#ADD1B2" rx="11" ry="11" style="stroke:#A80036;stroke-width:1.0;"/><path d="M1856.3438,433.6719 C1855.4063,433.2344 1854.8125,433.0938 1853.9375,433.0938 C1851.3125,433.0938 1849.3125,435.1719 1849.3125,437.8906 L1849.3125,439.0156 C1849.3125,441.5938 1851.4219,443.4844 1854.3125,443.4844 C1855.5313,443.4844 1856.6875,443.1875 1857.4375,442.6406 C1858.0156,442.2344 1858.3438,441.7813 1858.3438,441.3906 C1858.3438,440.9375 1857.9531,440.5469 1857.4844,440.5469 C1857.2656,440.5469 1857.0625,440.625 1856.875,440.8125 C1856.4219,441.2969 1856.4219,441.2969 1856.2344,441.3906 C1855.8125,441.6563 1855.125,441.7813 1854.3594,441.7813 C1852.3125,441.7813 1851.0156,440.6875 1851.0156,438.9844 L1851.0156,437.8906 C1851.0156,436.1094 1852.2656,434.7969 1854,434.7969 C1854.5781,434.7969 1855.1875,434.9531 1855.6563,435.2031 C1856.1406,435.4844 1856.3125,435.7031 1856.4063,436.1094 C1856.4688,436.5156 1856.5,436.6406 1856.6406,436.7656 C1856.7813,436.9063 1857.0156,437.0156 1857.2344,437.0156 C1857.5,437.0156 1857.7656,436.875 1857.9375,436.6563 C1858.0469,436.5 1858.0781,436.3125 1858.0781,435.8906 L1858.0781,434.4688 C1858.0781,434.0313 1858.0625,433.9063 1857.9688,433.75 C1857.8125,433.4844 1857.5313,433.3438 1857.2344,433.3438 C1856.9375,433.3438 1856.7344,433.4375 1856.5156,433.75 L1856.3438,433.6719 Z " fill="#000000"/><text fill="#000000" font-family="sans-serif" font-size="12" lengthAdjust="spacingAndGlyphs" textLength="59" x="1873" y="442.1543">ErrorView</text><line style="stroke:#A80036;stroke-width:1.5;" x1="1817.5" x2="1956.5" y1="454" y2="454"/><line style="stroke:#A80036;stroke-width:1.5;" x1="1817.5" x2="1956.5" y1="462" y2="462"/><polygon fill="#4177AF" points="1827.5,469,1823.5,475,1831.5,475" style="stroke:#1963A0;stroke-width:1.0;"/><text fill="#000000" font-family="sans-serif" font-size="11" lengthAdjust="spacingAndGlyphs" textLength="62" x="1836.5" y="476.2104">ErrorView()</text><ellipse cx="1827.5" cy="485.8047" fill="#84BE84" rx="3" ry="3" style="stroke:#038048;stroke-width:1.0;"/><text fill="#000000" font-family="sans-serif" font-size="11" lengthAdjust="spacingAndGlyphs" textLength="88" x="1836.5" y="489.0151">ErrorView(Error)</text><ellipse cx="1827.5" cy="498.6094" fill="#84BE84" rx="3" ry="3" style="stroke:#038048;stroke-width:1.0;"/><text fill="#000000" font-family="sans-serif" font-size="11" lengthAdjust="spacingAndGlyphs" textLength="46" x="1836.5" y="501.8198">writeln()</text><polygon fill="#FFFF44" points="1827.5,506.4141,1831.5,510.4141,1827.5,514.4141,1823.5,510.4141" style="stroke:#B38D22;stroke-width:1.0;"/><text fill="#000000" font-family="sans-serif" font-size="11" lengthAdjust="spacingAndGlyphs" textLength="115" x="1836.5" y="514.6245">colorInitials() : String</text><!--MD5=[0738facfc05fd0e5380c8577e6609970]
class usantatecla.mastermind.views.console.AttemptsView--><rect codeLine="93" fill="#FEFECE" filter="url(#f1551r1okbqake)" height="73.6094" id="usantatecla.mastermind.views.console.AttemptsView" style="stroke:#A80036;stroke-width:1.5;" width="216" x="1148" y="587"/><ellipse cx="1210.25" cy="603" fill="#ADD1B2" rx="11" ry="11" style="stroke:#A80036;stroke-width:1.0;"/><path d="M1212.5938,598.6719 C1211.6563,598.2344 1211.0625,598.0938 1210.1875,598.0938 C1207.5625,598.0938 1205.5625,600.1719 1205.5625,602.8906 L1205.5625,604.0156 C1205.5625,606.5938 1207.6719,608.4844 1210.5625,608.4844 C1211.7813,608.4844 1212.9375,608.1875 1213.6875,607.6406 C1214.2656,607.2344 1214.5938,606.7813 1214.5938,606.3906 C1214.5938,605.9375 1214.2031,605.5469 1213.7344,605.5469 C1213.5156,605.5469 1213.3125,605.625 1213.125,605.8125 C1212.6719,606.2969 1212.6719,606.2969 1212.4844,606.3906 C1212.0625,606.6563 1211.375,606.7813 1210.6094,606.7813 C1208.5625,606.7813 1207.2656,605.6875 1207.2656,603.9844 L1207.2656,602.8906 C1207.2656,601.1094 1208.5156,599.7969 1210.25,599.7969 C1210.8281,599.7969 1211.4375,599.9531 1211.9063,600.2031 C1212.3906,600.4844 1212.5625,600.7031 1212.6563,601.1094 C1212.7188,601.5156 1212.75,601.6406 1212.8906,601.7656 C1213.0313,601.9063 1213.2656,602.0156 1213.4844,602.0156 C1213.75,602.0156 1214.0156,601.875 1214.1875,601.6563 C1214.2969,601.5 1214.3281,601.3125 1214.3281,600.8906 L1214.3281,599.4688 C1214.3281,599.0313 1214.3125,598.9063 1214.2188,598.75 C1214.0625,598.4844 1213.7813,598.3438 1213.4844,598.3438 C1213.1875,598.3438 1212.9844,598.4375 1212.7656,598.75 L1212.5938,598.6719 Z " fill="#000000"/><text fill="#000000" font-family="sans-serif" font-size="12" lengthAdjust="spacingAndGlyphs" textLength="83" x="1230.75" y="607.1543">AttemptsView</text><line style="stroke:#A80036;stroke-width:1.5;" x1="1149" x2="1363" y1="619" y2="619"/><line style="stroke:#A80036;stroke-width:1.5;" x1="1149" x2="1363" y1="627" y2="627"/><polygon fill="#4177AF" points="1159,634,1155,640,1163,640" style="stroke:#1963A0;stroke-width:1.0;"/><text fill="#000000" font-family="sans-serif" font-size="11" lengthAdjust="spacingAndGlyphs" textLength="190" x="1168" y="641.2104">AttemptsView(ProposalController)</text><polygon fill="#4177AF" points="1159,646.8047,1155,652.8047,1163,652.8047" style="stroke:#1963A0;stroke-width:1.0;"/><text fill="#000000" font-family="sans-serif" font-size="11" lengthAdjust="spacingAndGlyphs" textLength="46" x="1168" y="654.0151">writeln()</text><!--MD5=[f72db8a2bcbe9ab8c7a89f2fd89e6b01]
class usantatecla.mastermind.views.console.ResultView--><rect codeLine="85" fill="#FEFECE" filter="url(#f1551r1okbqake)" height="73.6094" id="usantatecla.mastermind.views.console.ResultView" style="stroke:#A80036;stroke-width:1.5;" width="199" x="1399.5" y="587"/><ellipse cx="1462.25" cy="603" fill="#ADD1B2" rx="11" ry="11" style="stroke:#A80036;stroke-width:1.0;"/><path d="M1464.5938,598.6719 C1463.6563,598.2344 1463.0625,598.0938 1462.1875,598.0938 C1459.5625,598.0938 1457.5625,600.1719 1457.5625,602.8906 L1457.5625,604.0156 C1457.5625,606.5938 1459.6719,608.4844 1462.5625,608.4844 C1463.7813,608.4844 1464.9375,608.1875 1465.6875,607.6406 C1466.2656,607.2344 1466.5938,606.7813 1466.5938,606.3906 C1466.5938,605.9375 1466.2031,605.5469 1465.7344,605.5469 C1465.5156,605.5469 1465.3125,605.625 1465.125,605.8125 C1464.6719,606.2969 1464.6719,606.2969 1464.4844,606.3906 C1464.0625,606.6563 1463.375,606.7813 1462.6094,606.7813 C1460.5625,606.7813 1459.2656,605.6875 1459.2656,603.9844 L1459.2656,602.8906 C1459.2656,601.1094 1460.5156,599.7969 1462.25,599.7969 C1462.8281,599.7969 1463.4375,599.9531 1463.9063,600.2031 C1464.3906,600.4844 1464.5625,600.7031 1464.6563,601.1094 C1464.7188,601.5156 1464.75,601.6406 1464.8906,601.7656 C1465.0313,601.9063 1465.2656,602.0156 1465.4844,602.0156 C1465.75,602.0156 1466.0156,601.875 1466.1875,601.6563 C1466.2969,601.5 1466.3281,601.3125 1466.3281,600.8906 L1466.3281,599.4688 C1466.3281,599.0313 1466.3125,598.9063 1466.2188,598.75 C1466.0625,598.4844 1465.7813,598.3438 1465.4844,598.3438 C1465.1875,598.3438 1464.9844,598.4375 1464.7656,598.75 L1464.5938,598.6719 Z " fill="#000000"/><text fill="#000000" font-family="sans-serif" font-size="12" lengthAdjust="spacingAndGlyphs" textLength="65" x="1482.75" y="607.1543">ResultView</text><line style="stroke:#A80036;stroke-width:1.5;" x1="1400.5" x2="1597.5" y1="619" y2="619"/><line style="stroke:#A80036;stroke-width:1.5;" x1="1400.5" x2="1597.5" y1="627" y2="627"/><ellipse cx="1410.5" cy="638" fill="#84BE84" rx="3" ry="3" style="stroke:#038048;stroke-width:1.0;"/><text fill="#000000" font-family="sans-serif" font-size="11" lengthAdjust="spacingAndGlyphs" textLength="173" x="1419.5" y="641.2104">ResultView(ProposalController)</text><ellipse cx="1410.5" cy="650.8047" fill="#84BE84" rx="3" ry="3" style="stroke:#038048;stroke-width:1.0;"/><text fill="#000000" font-family="sans-serif" font-size="11" lengthAdjust="spacingAndGlyphs" textLength="60" x="1419.5" y="654.0151">writeln(int)</text><!--MD5=[8568eedd71fb556356f784345d001495]
class usantatecla.mastermind.views.console.ColorView--><rect codeLine="101" fill="#FEFECE" filter="url(#f1551r1okbqake)" height="99.2188" id="usantatecla.mastermind.views.console.ColorView" style="stroke:#A80036;stroke-width:1.5;" width="160" x="1730" y="727"/><ellipse cx="1775.25" cy="743" fill="#ADD1B2" rx="11" ry="11" style="stroke:#A80036;stroke-width:1.0;"/><path d="M1777.5938,738.6719 C1776.6563,738.2344 1776.0625,738.0938 1775.1875,738.0938 C1772.5625,738.0938 1770.5625,740.1719 1770.5625,742.8906 L1770.5625,744.0156 C1770.5625,746.5938 1772.6719,748.4844 1775.5625,748.4844 C1776.7813,748.4844 1777.9375,748.1875 1778.6875,747.6406 C1779.2656,747.2344 1779.5938,746.7813 1779.5938,746.3906 C1779.5938,745.9375 1779.2031,745.5469 1778.7344,745.5469 C1778.5156,745.5469 1778.3125,745.625 1778.125,745.8125 C1777.6719,746.2969 1777.6719,746.2969 1777.4844,746.3906 C1777.0625,746.6563 1776.375,746.7813 1775.6094,746.7813 C1773.5625,746.7813 1772.2656,745.6875 1772.2656,743.9844 L1772.2656,742.8906 C1772.2656,741.1094 1773.5156,739.7969 1775.25,739.7969 C1775.8281,739.7969 1776.4375,739.9531 1776.9063,740.2031 C1777.3906,740.4844 1777.5625,740.7031 1777.6563,741.1094 C1777.7188,741.5156 1777.75,741.6406 1777.8906,741.7656 C1778.0313,741.9063 1778.2656,742.0156 1778.4844,742.0156 C1778.75,742.0156 1779.0156,741.875 1779.1875,741.6563 C1779.2969,741.5 1779.3281,741.3125 1779.3281,740.8906 L1779.3281,739.4688 C1779.3281,739.0313 1779.3125,738.9063 1779.2188,738.75 C1779.0625,738.4844 1778.7813,738.3438 1778.4844,738.3438 C1778.1875,738.3438 1777.9844,738.4375 1777.7656,738.75 L1777.5938,738.6719 Z " fill="#000000"/><text fill="#000000" font-family="sans-serif" font-size="12" lengthAdjust="spacingAndGlyphs" textLength="61" x="1795.75" y="747.1543">ColorView</text><line style="stroke:#A80036;stroke-width:1.5;" x1="1731" x2="1889" y1="759" y2="759"/><line style="stroke:#A80036;stroke-width:1.5;" x1="1731" x2="1889" y1="767" y2="767"/><ellipse cx="1741" cy="778" fill="#84BE84" rx="3" ry="3" style="stroke:#038048;stroke-width:1.0;"/><text fill="#000000" font-family="sans-serif" font-size="11" lengthAdjust="spacingAndGlyphs" textLength="65" x="1750" y="781.2104">ColorView()</text><ellipse cx="1741" cy="790.8047" fill="#84BE84" rx="3" ry="3" style="stroke:#038048;stroke-width:1.0;"/><text fill="#000000" font-family="sans-serif" font-size="11" lengthAdjust="spacingAndGlyphs" textLength="94" x="1750" y="794.0151">ColorView(Color)</text><polygon fill="#FFFF44" points="1741,798.6094,1745,802.6094,1741,806.6094,1737,802.6094" style="stroke:#B38D22;stroke-width:1.0;"/><text fill="#000000" font-family="sans-serif" font-size="11" lengthAdjust="spacingAndGlyphs" textLength="134" x="1750" y="806.8198">resultInitials(int) : String</text><ellipse cx="1741" cy="816.4141" fill="#84BE84" rx="3" ry="3" style="stroke:#038048;stroke-width:1.0;"/><text fill="#000000" font-family="sans-serif" font-size="11" lengthAdjust="spacingAndGlyphs" textLength="36" x="1750" y="819.6245">write()</text><!--MD5=[1d7ba1c7002d54515419844fbd155368]
class Controller--><rect codeLine="1" fill="#FEFECE" filter="url(#f1551r1okbqake)" height="67.9063" id="Controller" style="stroke:#A80036;stroke-width:1.5;" width="176" x="500" y="742.5"/><ellipse cx="515" cy="768.4531" fill="#A9DCDF" rx="11" ry="11" style="stroke:#A80036;stroke-width:1.0;"/><path d="M517.0781,770.2656 L517.4688,771.25 L517.0781,771.25 C516.625,771.25 516.5156,771.2656 516.3594,771.375 C516.1094,771.5313 515.9531,771.8125 515.9531,772.1094 C515.9531,772.375 516.0938,772.625 516.3125,772.7813 C516.4531,772.9063 516.6563,772.9531 517.0781,772.9531 L519.4375,772.9531 C519.7969,772.9531 520.0156,772.9219 520.1563,772.8281 C520.4063,772.6875 520.5625,772.3906 520.5625,772.1094 C520.5625,771.8281 520.4219,771.5781 520.2031,771.4219 C520.0313,771.2813 519.875,771.25 519.4063,771.25 L516.0156,763.0469 L512.3438,763.0469 C511.8906,763.0469 511.7656,763.0625 511.6094,763.1563 C511.3594,763.3281 511.2031,763.6094 511.2031,763.8906 C511.2031,764.1719 511.3438,764.4219 511.5625,764.5938 C511.7344,764.7031 511.9063,764.7344 512.3438,764.7344 L513.4219,764.7344 L510.7813,771.25 C510.3594,771.25 510.2031,771.2656 510.0469,771.375 C509.7969,771.5313 509.6406,771.8125 509.6406,772.1094 C509.6406,772.6719 510.0156,772.9531 510.7656,772.9531 L513.0313,772.9531 C513.3906,772.9531 513.6094,772.9219 513.7344,772.8281 C514,772.6875 514.1406,772.3906 514.1406,772.1094 C514.1406,771.8281 514.0156,771.5781 513.7969,771.4063 C513.625,771.2813 513.4844,771.25 513.0313,771.25 L512.6406,771.25 L513.0313,770.2656 L517.0781,770.2656 Z M516.375,768.5625 L513.7031,768.5625 L515.0469,765.2969 L516.375,768.5625 Z " fill="#000000"/><text fill="#000000" font-family="sans-serif" font-size="12" font-style="italic" lengthAdjust="spacingAndGlyphs" textLength="74" x="564" y="758.6387">usantatecla.</text><text fill="#000000" font-family="sans-serif" font-size="12" font-style="italic" lengthAdjust="spacingAndGlyphs" textLength="144" x="529" y="772.6074">mastermind.controllers.</text><text fill="#000000" font-family="sans-serif" font-size="12" font-style="italic" lengthAdjust="spacingAndGlyphs" textLength="58" x="572" y="786.5762">Controller</text><line style="stroke:#A80036;stroke-width:1.5;" x1="501" x2="675" y1="794.4063" y2="794.4063"/><line style="stroke:#A80036;stroke-width:1.5;" x1="501" x2="675" y1="802.4063" y2="802.4063"/><!--MD5=[47c371471411cfedeee61b1a5bdaee47]
class StartController--><rect codeLine="2" fill="#FEFECE" filter="url(#f1551r1okbqake)" height="67.9063" id="StartController" style="stroke:#A80036;stroke-width:1.5;" width="174" x="7" y="590"/><ellipse cx="22" cy="615.9531" fill="#ADD1B2" rx="11" ry="11" style="stroke:#A80036;stroke-width:1.0;"/><path d="M24.3438,611.625 C23.4063,611.1875 22.8125,611.0469 21.9375,611.0469 C19.3125,611.0469 17.3125,613.125 17.3125,615.8438 L17.3125,616.9688 C17.3125,619.5469 19.4219,621.4375 22.3125,621.4375 C23.5313,621.4375 24.6875,621.1406 25.4375,620.5938 C26.0156,620.1875 26.3438,619.7344 26.3438,619.3438 C26.3438,618.8906 25.9531,618.5 25.4844,618.5 C25.2656,618.5 25.0625,618.5781 24.875,618.7656 C24.4219,619.25 24.4219,619.25 24.2344,619.3438 C23.8125,619.6094 23.125,619.7344 22.3594,619.7344 C20.3125,619.7344 19.0156,618.6406 19.0156,616.9375 L19.0156,615.8438 C19.0156,614.0625 20.2656,612.75 22,612.75 C22.5781,612.75 23.1875,612.9063 23.6563,613.1563 C24.1406,613.4375 24.3125,613.6563 24.4063,614.0625 C24.4688,614.4688 24.5,614.5938 24.6406,614.7188 C24.7813,614.8594 25.0156,614.9688 25.2344,614.9688 C25.5,614.9688 25.7656,614.8281 25.9375,614.6094 C26.0469,614.4531 26.0781,614.2656 26.0781,613.8438 L26.0781,612.4219 C26.0781,611.9844 26.0625,611.8594 25.9688,611.7031 C25.8125,611.4375 25.5313,611.2969 25.2344,611.2969 C24.9375,611.2969 24.7344,611.3906 24.5156,611.7031 L24.3438,611.625 Z " fill="#000000"/><text fill="#000000" font-family="sans-serif" font-size="12" lengthAdjust="spacingAndGlyphs" textLength="71" x="71.5" y="606.1387">usantatecla.</text><text fill="#000000" font-family="sans-serif" font-size="12" lengthAdjust="spacingAndGlyphs" textLength="142" x="36" y="620.1074">mastermind.controllers.</text><text fill="#000000" font-family="sans-serif" font-size="12" lengthAdjust="spacingAndGlyphs" textLength="87" x="63.5" y="634.0762">StartController</text><line style="stroke:#A80036;stroke-width:1.5;" x1="8" x2="180" y1="641.9063" y2="641.9063"/><line style="stroke:#A80036;stroke-width:1.5;" x1="8" x2="180" y1="649.9063" y2="649.9063"/><!--MD5=[9dc2ab56716d4fbd8c61f2d17f2f3bab]
class ProposalController--><rect codeLine="3" fill="#FEFECE" filter="url(#f1551r1okbqake)" height="67.9063" id="ProposalController" style="stroke:#A80036;stroke-width:1.5;" width="174" x="2048" y="742.5"/><ellipse cx="2063" cy="768.4531" fill="#ADD1B2" rx="11" ry="11" style="stroke:#A80036;stroke-width:1.0;"/><path d="M2065.3438,764.125 C2064.4063,763.6875 2063.8125,763.5469 2062.9375,763.5469 C2060.3125,763.5469 2058.3125,765.625 2058.3125,768.3438 L2058.3125,769.4688 C2058.3125,772.0469 2060.4219,773.9375 2063.3125,773.9375 C2064.5313,773.9375 2065.6875,773.6406 2066.4375,773.0938 C2067.0156,772.6875 2067.3438,772.2344 2067.3438,771.8438 C2067.3438,771.3906 2066.9531,771 2066.4844,771 C2066.2656,771 2066.0625,771.0781 2065.875,771.2656 C2065.4219,771.75 2065.4219,771.75 2065.2344,771.8438 C2064.8125,772.1094 2064.125,772.2344 2063.3594,772.2344 C2061.3125,772.2344 2060.0156,771.1406 2060.0156,769.4375 L2060.0156,768.3438 C2060.0156,766.5625 2061.2656,765.25 2063,765.25 C2063.5781,765.25 2064.1875,765.4063 2064.6563,765.6563 C2065.1406,765.9375 2065.3125,766.1563 2065.4063,766.5625 C2065.4688,766.9688 2065.5,767.0938 2065.6406,767.2188 C2065.7813,767.3594 2066.0156,767.4688 2066.2344,767.4688 C2066.5,767.4688 2066.7656,767.3281 2066.9375,767.1094 C2067.0469,766.9531 2067.0781,766.7656 2067.0781,766.3438 L2067.0781,764.9219 C2067.0781,764.4844 2067.0625,764.3594 2066.9688,764.2031 C2066.8125,763.9375 2066.5313,763.7969 2066.2344,763.7969 C2065.9375,763.7969 2065.7344,763.8906 2065.5156,764.2031 L2065.3438,764.125 Z " fill="#000000"/><text fill="#000000" font-family="sans-serif" font-size="12" lengthAdjust="spacingAndGlyphs" textLength="71" x="2112.5" y="758.6387">usantatecla.</text><text fill="#000000" font-family="sans-serif" font-size="12" lengthAdjust="spacingAndGlyphs" textLength="142" x="2077" y="772.6074">mastermind.controllers.</text><text fill="#000000" font-family="sans-serif" font-size="12" lengthAdjust="spacingAndGlyphs" textLength="111" x="2092.5" y="786.5762">ProposalController</text><line style="stroke:#A80036;stroke-width:1.5;" x1="2049" x2="2221" y1="794.4063" y2="794.4063"/><line style="stroke:#A80036;stroke-width:1.5;" x1="2049" x2="2221" y1="802.4063" y2="802.4063"/><!--MD5=[1a47bbf44ccee225df9b18c5b6629853]
class ResumeController--><rect codeLine="4" fill="#FEFECE" filter="url(#f1551r1okbqake)" height="67.9063" id="ResumeController" style="stroke:#A80036;stroke-width:1.5;" width="174" x="323" y="437.5"/><ellipse cx="338" cy="463.4531" fill="#ADD1B2" rx="11" ry="11" style="stroke:#A80036;stroke-width:1.0;"/><path d="M340.3438,459.125 C339.4063,458.6875 338.8125,458.5469 337.9375,458.5469 C335.3125,458.5469 333.3125,460.625 333.3125,463.3438 L333.3125,464.4688 C333.3125,467.0469 335.4219,468.9375 338.3125,468.9375 C339.5313,468.9375 340.6875,468.6406 341.4375,468.0938 C342.0156,467.6875 342.3438,467.2344 342.3438,466.8438 C342.3438,466.3906 341.9531,466 341.4844,466 C341.2656,466 341.0625,466.0781 340.875,466.2656 C340.4219,466.75 340.4219,466.75 340.2344,466.8438 C339.8125,467.1094 339.125,467.2344 338.3594,467.2344 C336.3125,467.2344 335.0156,466.1406 335.0156,464.4375 L335.0156,463.3438 C335.0156,461.5625 336.2656,460.25 338,460.25 C338.5781,460.25 339.1875,460.4063 339.6563,460.6563 C340.1406,460.9375 340.3125,461.1563 340.4063,461.5625 C340.4688,461.9688 340.5,462.0938 340.6406,462.2188 C340.7813,462.3594 341.0156,462.4688 341.2344,462.4688 C341.5,462.4688 341.7656,462.3281 341.9375,462.1094 C342.0469,461.9531 342.0781,461.7656 342.0781,461.3438 L342.0781,459.9219 C342.0781,459.4844 342.0625,459.3594 341.9688,459.2031 C341.8125,458.9375 341.5313,458.7969 341.2344,458.7969 C340.9375,458.7969 340.7344,458.8906 340.5156,459.2031 L340.3438,459.125 Z " fill="#000000"/><text fill="#000000" font-family="sans-serif" font-size="12" lengthAdjust="spacingAndGlyphs" textLength="71" x="387.5" y="453.6387">usantatecla.</text><text fill="#000000" font-family="sans-serif" font-size="12" lengthAdjust="spacingAndGlyphs" textLength="142" x="352" y="467.6074">mastermind.controllers.</text><text fill="#000000" font-family="sans-serif" font-size="12" lengthAdjust="spacingAndGlyphs" textLength="107" x="369.5" y="481.5762">ResumeController</text><line style="stroke:#A80036;stroke-width:1.5;" x1="324" x2="496" y1="489.4063" y2="489.4063"/><line style="stroke:#A80036;stroke-width:1.5;" x1="324" x2="496" y1="497.4063" y2="497.4063"/><!--MD5=[b8cfd8c4119a3b0a7a46bfc5fc780f85]
class Error--><rect codeLine="5" fill="#FEFECE" filter="url(#f1551r1okbqake)" height="67.9063" id="Error" style="stroke:#A80036;stroke-width:1.5;" width="143" x="2245.5" y="590"/><ellipse cx="2260.5" cy="615.9531" fill="#EB937F" rx="11" ry="11" style="stroke:#A80036;stroke-width:1.0;"/><path d="M2259.2969,616.8281 L2260.75,616.8281 L2260.75,616.9375 C2260.75,617.3438 2260.7813,617.5 2260.8594,617.6563 C2261.0156,617.9063 2261.2969,618.0625 2261.5938,618.0625 C2261.8438,618.0625 2262.1094,617.9219 2262.2656,617.7031 C2262.3906,617.5469 2262.4219,617.3906 2262.4219,616.9375 L2262.4219,615.0156 C2262.4219,614.8594 2262.4219,614.8125 2262.4063,614.6563 C2262.3438,614.1875 2262.0313,613.875 2261.5781,613.875 C2261.3281,613.875 2261.0625,614.0156 2260.8906,614.2344 C2260.7813,614.4063 2260.75,614.5625 2260.75,615.0156 L2260.75,615.1406 L2259.2969,615.1406 L2259.2969,612.7344 L2263.2813,612.7344 L2263.2813,613.5938 C2263.2813,614 2263.3125,614.1719 2263.3906,614.3281 C2263.5625,614.5781 2263.8438,614.7344 2264.125,614.7344 C2264.3906,614.7344 2264.6563,614.5938 2264.8281,614.375 C2264.9375,614.2031 2264.9688,614.0625 2264.9688,613.5938 L2264.9688,611.0469 L2257.3438,611.0469 C2256.9063,611.0469 2256.7813,611.0625 2256.625,611.1563 C2256.375,611.3125 2256.2188,611.6094 2256.2188,611.8906 C2256.2188,612.1719 2256.3594,612.4219 2256.5781,612.5938 C2256.7344,612.7031 2256.9219,612.7344 2257.3438,612.7344 L2257.5938,612.7344 L2257.5938,619.25 L2257.3438,619.25 C2256.9375,619.25 2256.7813,619.2656 2256.625,619.375 C2256.375,619.5469 2256.2188,619.8125 2256.2188,620.1094 C2256.2188,620.375 2256.3594,620.625 2256.5781,620.7813 C2256.7188,620.9063 2256.9531,620.9531 2257.3438,620.9531 L2265.3438,620.9531 L2265.3438,618.375 C2265.3438,617.9375 2265.3125,617.7969 2265.2344,617.6406 C2265.0625,617.3906 2264.7813,617.2344 2264.5,617.2344 C2264.2344,617.2344 2263.9688,617.3438 2263.7969,617.5938 C2263.6875,617.75 2263.6563,617.8906 2263.6563,618.375 L2263.6563,619.25 L2259.2969,619.25 L2259.2969,616.8281 Z " fill="#000000"/><text fill="#000000" font-family="sans-serif" font-size="12" lengthAdjust="spacingAndGlyphs" textLength="71" x="2294.5" y="606.1387">usantatecla.</text><text fill="#000000" font-family="sans-serif" font-size="12" lengthAdjust="spacingAndGlyphs" textLength="111" x="2274.5" y="620.1074">mastermind.types.</text><text fill="#000000" font-family="sans-serif" font-size="12" lengthAdjust="spacingAndGlyphs" textLength="30" x="2315" y="634.0762">Error</text><line style="stroke:#A80036;stroke-width:1.5;" x1="2246.5" x2="2387.5" y1="641.9063" y2="641.9063"/><line style="stroke:#A80036;stroke-width:1.5;" x1="2246.5" x2="2387.5" y1="649.9063" y2="649.9063"/><!--MD5=[18eee71c88ab61f27581b8cbdd3ef5ee]
class Color--><rect codeLine="6" fill="#FEFECE" filter="url(#f1551r1okbqake)" height="67.9063" id="Color" style="stroke:#A80036;stroke-width:1.5;" width="143" x="1900.5" y="886"/><ellipse cx="1915.5" cy="911.9531" fill="#EB937F" rx="11" ry="11" style="stroke:#A80036;stroke-width:1.0;"/><path d="M1914.2969,912.8281 L1915.75,912.8281 L1915.75,912.9375 C1915.75,913.3438 1915.7813,913.5 1915.8594,913.6563 C1916.0156,913.9063 1916.2969,914.0625 1916.5938,914.0625 C1916.8438,914.0625 1917.1094,913.9219 1917.2656,913.7031 C1917.3906,913.5469 1917.4219,913.3906 1917.4219,912.9375 L1917.4219,911.0156 C1917.4219,910.8594 1917.4219,910.8125 1917.4063,910.6563 C1917.3438,910.1875 1917.0313,909.875 1916.5781,909.875 C1916.3281,909.875 1916.0625,910.0156 1915.8906,910.2344 C1915.7813,910.4063 1915.75,910.5625 1915.75,911.0156 L1915.75,911.1406 L1914.2969,911.1406 L1914.2969,908.7344 L1918.2813,908.7344 L1918.2813,909.5938 C1918.2813,910 1918.3125,910.1719 1918.3906,910.3281 C1918.5625,910.5781 1918.8438,910.7344 1919.125,910.7344 C1919.3906,910.7344 1919.6563,910.5938 1919.8281,910.375 C1919.9375,910.2031 1919.9688,910.0625 1919.9688,909.5938 L1919.9688,907.0469 L1912.3438,907.0469 C1911.9063,907.0469 1911.7813,907.0625 1911.625,907.1563 C1911.375,907.3125 1911.2188,907.6094 1911.2188,907.8906 C1911.2188,908.1719 1911.3594,908.4219 1911.5781,908.5938 C1911.7344,908.7031 1911.9219,908.7344 1912.3438,908.7344 L1912.5938,908.7344 L1912.5938,915.25 L1912.3438,915.25 C1911.9375,915.25 1911.7813,915.2656 1911.625,915.375 C1911.375,915.5469 1911.2188,915.8125 1911.2188,916.1094 C1911.2188,916.375 1911.3594,916.625 1911.5781,916.7813 C1911.7188,916.9063 1911.9531,916.9531 1912.3438,916.9531 L1920.3438,916.9531 L1920.3438,914.375 C1920.3438,913.9375 1920.3125,913.7969 1920.2344,913.6406 C1920.0625,913.3906 1919.7813,913.2344 1919.5,913.2344 C1919.2344,913.2344 1918.9688,913.3438 1918.7969,913.5938 C1918.6875,913.75 1918.6563,913.8906 1918.6563,914.375 L1918.6563,915.25 L1914.2969,915.25 L1914.2969,912.8281 Z " fill="#000000"/><text fill="#000000" font-family="sans-serif" font-size="12" lengthAdjust="spacingAndGlyphs" textLength="71" x="1949.5" y="902.1387">usantatecla.</text><text fill="#000000" font-family="sans-serif" font-size="12" lengthAdjust="spacingAndGlyphs" textLength="111" x="1929.5" y="916.1074">mastermind.types.</text><text fill="#000000" font-family="sans-serif" font-size="12" lengthAdjust="spacingAndGlyphs" textLength="32" x="1969" y="930.0762">Color</text><line style="stroke:#A80036;stroke-width:1.5;" x1="1901.5" x2="2042.5" y1="937.9063" y2="937.9063"/><line style="stroke:#A80036;stroke-width:1.5;" x1="1901.5" x2="2042.5" y1="945.9063" y2="945.9063"/><!--MD5=[c045e12321b83266d36d22b9096c24ea]
class View--><rect codeLine="7" fill="#FEFECE" filter="url(#f1551r1okbqake)" height="67.9063" id="View" style="stroke:#A80036;stroke-width:1.5;" width="146" x="967" y="7"/><ellipse cx="982" cy="32.9531" fill="#A9DCDF" rx="11" ry="11" style="stroke:#A80036;stroke-width:1.0;"/><path d="M984.0781,34.7656 L984.4688,35.75 L984.0781,35.75 C983.625,35.75 983.5156,35.7656 983.3594,35.875 C983.1094,36.0313 982.9531,36.3125 982.9531,36.6094 C982.9531,36.875 983.0938,37.125 983.3125,37.2813 C983.4531,37.4063 983.6563,37.4531 984.0781,37.4531 L986.4375,37.4531 C986.7969,37.4531 987.0156,37.4219 987.1563,37.3281 C987.4063,37.1875 987.5625,36.8906 987.5625,36.6094 C987.5625,36.3281 987.4219,36.0781 987.2031,35.9219 C987.0313,35.7813 986.875,35.75 986.4063,35.75 L983.0156,27.5469 L979.3438,27.5469 C978.8906,27.5469 978.7656,27.5625 978.6094,27.6563 C978.3594,27.8281 978.2031,28.1094 978.2031,28.3906 C978.2031,28.6719 978.3438,28.9219 978.5625,29.0938 C978.7344,29.2031 978.9063,29.2344 979.3438,29.2344 L980.4219,29.2344 L977.7813,35.75 C977.3594,35.75 977.2031,35.7656 977.0469,35.875 C976.7969,36.0313 976.6406,36.3125 976.6406,36.6094 C976.6406,37.1719 977.0156,37.4531 977.7656,37.4531 L980.0313,37.4531 C980.3906,37.4531 980.6094,37.4219 980.7344,37.3281 C981,37.1875 981.1406,36.8906 981.1406,36.6094 C981.1406,36.3281 981.0156,36.0781 980.7969,35.9063 C980.625,35.7813 980.4844,35.75 980.0313,35.75 L979.6406,35.75 L980.0313,34.7656 L984.0781,34.7656 Z M983.375,33.0625 L980.7031,33.0625 L982.0469,29.7969 L983.375,33.0625 Z " fill="#000000"/><text fill="#000000" font-family="sans-serif" font-size="12" font-style="italic" lengthAdjust="spacingAndGlyphs" textLength="74" x="1016" y="23.1387">usantatecla.</text><text fill="#000000" font-family="sans-serif" font-size="12" font-style="italic" lengthAdjust="spacingAndGlyphs" textLength="114" x="996" y="37.1074">mastermind.views.</text><text fill="#000000" font-family="sans-serif" font-size="12" font-style="italic" lengthAdjust="spacingAndGlyphs" textLength="28" x="1039" y="51.0762">View</text><line style="stroke:#A80036;stroke-width:1.5;" x1="968" x2="1112" y1="58.9063" y2="58.9063"/><line style="stroke:#A80036;stroke-width:1.5;" x1="968" x2="1112" y1="66.9063" y2="66.9063"/><!--MD5=[5c0d2bf114541dffca76af5edd55a1b5]
class ColorView--><rect codeLine="8" fill="#FEFECE" filter="url(#f1551r1okbqake)" height="67.9063" id="ColorView" style="stroke:#A80036;stroke-width:1.5;" width="146" x="1993" y="590"/><ellipse cx="2008" cy="615.9531" fill="#A9DCDF" rx="11" ry="11" style="stroke:#A80036;stroke-width:1.0;"/><path d="M2010.0781,617.7656 L2010.4688,618.75 L2010.0781,618.75 C2009.625,618.75 2009.5156,618.7656 2009.3594,618.875 C2009.1094,619.0313 2008.9531,619.3125 2008.9531,619.6094 C2008.9531,619.875 2009.0938,620.125 2009.3125,620.2813 C2009.4531,620.4063 2009.6563,620.4531 2010.0781,620.4531 L2012.4375,620.4531 C2012.7969,620.4531 2013.0156,620.4219 2013.1563,620.3281 C2013.4063,620.1875 2013.5625,619.8906 2013.5625,619.6094 C2013.5625,619.3281 2013.4219,619.0781 2013.2031,618.9219 C2013.0313,618.7813 2012.875,618.75 2012.4063,618.75 L2009.0156,610.5469 L2005.3438,610.5469 C2004.8906,610.5469 2004.7656,610.5625 2004.6094,610.6563 C2004.3594,610.8281 2004.2031,611.1094 2004.2031,611.3906 C2004.2031,611.6719 2004.3438,611.9219 2004.5625,612.0938 C2004.7344,612.2031 2004.9063,612.2344 2005.3438,612.2344 L2006.4219,612.2344 L2003.7813,618.75 C2003.3594,618.75 2003.2031,618.7656 2003.0469,618.875 C2002.7969,619.0313 2002.6406,619.3125 2002.6406,619.6094 C2002.6406,620.1719 2003.0156,620.4531 2003.7656,620.4531 L2006.0313,620.4531 C2006.3906,620.4531 2006.6094,620.4219 2006.7344,620.3281 C2007,620.1875 2007.1406,619.8906 2007.1406,619.6094 C2007.1406,619.3281 2007.0156,619.0781 2006.7969,618.9063 C2006.625,618.7813 2006.4844,618.75 2006.0313,618.75 L2005.6406,618.75 L2006.0313,617.7656 L2010.0781,617.7656 Z M2009.375,616.0625 L2006.7031,616.0625 L2008.0469,612.7969 L2009.375,616.0625 Z " fill="#000000"/><text fill="#000000" font-family="sans-serif" font-size="12" font-style="italic" lengthAdjust="spacingAndGlyphs" textLength="74" x="2042" y="606.1387">usantatecla.</text><text fill="#000000" font-family="sans-serif" font-size="12" font-style="italic" lengthAdjust="spacingAndGlyphs" textLength="114" x="2022" y="620.1074">mastermind.views.</text><text fill="#000000" font-family="sans-serif" font-size="12" font-style="italic" lengthAdjust="spacingAndGlyphs" textLength="58" x="2050" y="634.0762">ColorView</text><line style="stroke:#A80036;stroke-width:1.5;" x1="1994" x2="2138" y1="641.9063" y2="641.9063"/><line style="stroke:#A80036;stroke-width:1.5;" x1="1994" x2="2138" y1="649.9063" y2="649.9063"/><!--MD5=[86cec68673cafdfc1c204348d5b2cca6]
class ErrorView--><rect codeLine="9" fill="#FEFECE" filter="url(#f1551r1okbqake)" height="67.9063" id="ErrorView" style="stroke:#A80036;stroke-width:1.5;" width="146" x="1991" y="294"/><ellipse cx="2006" cy="319.9531" fill="#A9DCDF" rx="11" ry="11" style="stroke:#A80036;stroke-width:1.0;"/><path d="M2008.0781,321.7656 L2008.4688,322.75 L2008.0781,322.75 C2007.625,322.75 2007.5156,322.7656 2007.3594,322.875 C2007.1094,323.0313 2006.9531,323.3125 2006.9531,323.6094 C2006.9531,323.875 2007.0938,324.125 2007.3125,324.2813 C2007.4531,324.4063 2007.6563,324.4531 2008.0781,324.4531 L2010.4375,324.4531 C2010.7969,324.4531 2011.0156,324.4219 2011.1563,324.3281 C2011.4063,324.1875 2011.5625,323.8906 2011.5625,323.6094 C2011.5625,323.3281 2011.4219,323.0781 2011.2031,322.9219 C2011.0313,322.7813 2010.875,322.75 2010.4063,322.75 L2007.0156,314.5469 L2003.3438,314.5469 C2002.8906,314.5469 2002.7656,314.5625 2002.6094,314.6563 C2002.3594,314.8281 2002.2031,315.1094 2002.2031,315.3906 C2002.2031,315.6719 2002.3438,315.9219 2002.5625,316.0938 C2002.7344,316.2031 2002.9063,316.2344 2003.3438,316.2344 L2004.4219,316.2344 L2001.7813,322.75 C2001.3594,322.75 2001.2031,322.7656 2001.0469,322.875 C2000.7969,323.0313 2000.6406,323.3125 2000.6406,323.6094 C2000.6406,324.1719 2001.0156,324.4531 2001.7656,324.4531 L2004.0313,324.4531 C2004.3906,324.4531 2004.6094,324.4219 2004.7344,324.3281 C2005,324.1875 2005.1406,323.8906 2005.1406,323.6094 C2005.1406,323.3281 2005.0156,323.0781 2004.7969,322.9063 C2004.625,322.7813 2004.4844,322.75 2004.0313,322.75 L2003.6406,322.75 L2004.0313,321.7656 L2008.0781,321.7656 Z M2007.375,320.0625 L2004.7031,320.0625 L2006.0469,316.7969 L2007.375,320.0625 Z " fill="#000000"/><text fill="#000000" font-family="sans-serif" font-size="12" font-style="italic" lengthAdjust="spacingAndGlyphs" textLength="74" x="2040" y="310.1387">usantatecla.</text><text fill="#000000" font-family="sans-serif" font-size="12" font-style="italic" lengthAdjust="spacingAndGlyphs" textLength="114" x="2020" y="324.1074">mastermind.views.</text><text fill="#000000" font-family="sans-serif" font-size="12" font-style="italic" lengthAdjust="spacingAndGlyphs" textLength="58" x="2048" y="338.0762">ErrorView</text><line style="stroke:#A80036;stroke-width:1.5;" x1="1992" x2="2136" y1="345.9063" y2="345.9063"/><line style="stroke:#A80036;stroke-width:1.5;" x1="1992" x2="2136" y1="353.9063" y2="353.9063"/><!--MD5=[bea5b0d46523efab5ea1c1d339f396f0]
class Message--><rect codeLine="10" fill="#FEFECE" filter="url(#f1551r1okbqake)" height="67.9063" id="Message" style="stroke:#A80036;stroke-width:1.5;" width="144" x="711" y="742.5"/><ellipse cx="726" cy="768.4531" fill="#EB937F" rx="11" ry="11" style="stroke:#A80036;stroke-width:1.0;"/><path d="M724.7969,769.3281 L726.25,769.3281 L726.25,769.4375 C726.25,769.8438 726.2813,770 726.3594,770.1563 C726.5156,770.4063 726.7969,770.5625 727.0938,770.5625 C727.3438,770.5625 727.6094,770.4219 727.7656,770.2031 C727.8906,770.0469 727.9219,769.8906 727.9219,769.4375 L727.9219,767.5156 C727.9219,767.3594 727.9219,767.3125 727.9063,767.1563 C727.8438,766.6875 727.5313,766.375 727.0781,766.375 C726.8281,766.375 726.5625,766.5156 726.3906,766.7344 C726.2813,766.9063 726.25,767.0625 726.25,767.5156 L726.25,767.6406 L724.7969,767.6406 L724.7969,765.2344 L728.7813,765.2344 L728.7813,766.0938 C728.7813,766.5 728.8125,766.6719 728.8906,766.8281 C729.0625,767.0781 729.3438,767.2344 729.625,767.2344 C729.8906,767.2344 730.1563,767.0938 730.3281,766.875 C730.4375,766.7031 730.4688,766.5625 730.4688,766.0938 L730.4688,763.5469 L722.8438,763.5469 C722.4063,763.5469 722.2813,763.5625 722.125,763.6563 C721.875,763.8125 721.7188,764.1094 721.7188,764.3906 C721.7188,764.6719 721.8594,764.9219 722.0781,765.0938 C722.2344,765.2031 722.4219,765.2344 722.8438,765.2344 L723.0938,765.2344 L723.0938,771.75 L722.8438,771.75 C722.4375,771.75 722.2813,771.7656 722.125,771.875 C721.875,772.0469 721.7188,772.3125 721.7188,772.6094 C721.7188,772.875 721.8594,773.125 722.0781,773.2813 C722.2188,773.4063 722.4531,773.4531 722.8438,773.4531 L730.8438,773.4531 L730.8438,770.875 C730.8438,770.4375 730.8125,770.2969 730.7344,770.1406 C730.5625,769.8906 730.2813,769.7344 730,769.7344 C729.7344,769.7344 729.4688,769.8438 729.2969,770.0938 C729.1875,770.25 729.1563,770.3906 729.1563,770.875 L729.1563,771.75 L724.7969,771.75 L724.7969,769.3281 Z " fill="#000000"/><text fill="#000000" font-family="sans-serif" font-size="12" lengthAdjust="spacingAndGlyphs" textLength="71" x="760.5" y="758.6387">usantatecla.</text><text fill="#000000" font-family="sans-serif" font-size="12" lengthAdjust="spacingAndGlyphs" textLength="112" x="740" y="772.6074">mastermind.views.</text><text fill="#000000" font-family="sans-serif" font-size="12" lengthAdjust="spacingAndGlyphs" textLength="84" x="754" y="786.5762">MessageView</text><line style="stroke:#A80036;stroke-width:1.5;" x1="712" x2="854" y1="794.4063" y2="794.4063"/><line style="stroke:#A80036;stroke-width:1.5;" x1="712" x2="854" y1="802.4063" y2="802.4063"/><!--MD5=[315b61b427ec618d6861d47eee00cca3]
class Console--><rect codeLine="11" fill="#FEFECE" filter="url(#f1551r1okbqake)" height="53.9375" id="Console" style="stroke:#A80036;stroke-width:1.5;" width="130" x="699" y="893"/><ellipse cx="714" cy="911.9688" fill="#ADD1B2" rx="11" ry="11" style="stroke:#A80036;stroke-width:1.0;"/><path d="M716.3438,907.6406 C715.4063,907.2031 714.8125,907.0625 713.9375,907.0625 C711.3125,907.0625 709.3125,909.1406 709.3125,911.8594 L709.3125,912.9844 C709.3125,915.5625 711.4219,917.4531 714.3125,917.4531 C715.5313,917.4531 716.6875,917.1563 717.4375,916.6094 C718.0156,916.2031 718.3438,915.75 718.3438,915.3594 C718.3438,914.9063 717.9531,914.5156 717.4844,914.5156 C717.2656,914.5156 717.0625,914.5938 716.875,914.7813 C716.4219,915.2656 716.4219,915.2656 716.2344,915.3594 C715.8125,915.625 715.125,915.75 714.3594,915.75 C712.3125,915.75 711.0156,914.6563 711.0156,912.9531 L711.0156,911.8594 C711.0156,910.0781 712.2656,908.7656 714,908.7656 C714.5781,908.7656 715.1875,908.9219 715.6563,909.1719 C716.1406,909.4531 716.3125,909.6719 716.4063,910.0781 C716.4688,910.4844 716.5,910.6094 716.6406,910.7344 C716.7813,910.875 717.0156,910.9844 717.2344,910.9844 C717.5,910.9844 717.7656,910.8438 717.9375,910.625 C718.0469,910.4688 718.0781,910.2813 718.0781,909.8594 L718.0781,908.4375 C718.0781,908 718.0625,907.875 717.9688,907.7188 C717.8125,907.4531 717.5313,907.3125 717.2344,907.3125 C716.9375,907.3125 716.7344,907.4063 716.5156,907.7188 L716.3438,907.6406 Z " fill="#000000"/><text fill="#000000" font-family="sans-serif" font-size="12" lengthAdjust="spacingAndGlyphs" textLength="98" x="728" y="909.1387">usantatecla.utils.</text><text fill="#000000" font-family="sans-serif" font-size="12" lengthAdjust="spacingAndGlyphs" textLength="49" x="752.5" y="923.1074">Console</text><line style="stroke:#A80036;stroke-width:1.5;" x1="700" x2="828" y1="930.9375" y2="930.9375"/><line style="stroke:#A80036;stroke-width:1.5;" x1="700" x2="828" y1="938.9375" y2="938.9375"/><!--MD5=[d93cf99d2b92276f27fe8dbf15140505]
class YesNoDialog--><rect codeLine="12" fill="#FEFECE" filter="url(#f1551r1okbqake)" height="53.9375" id="YesNoDialog" style="stroke:#A80036;stroke-width:1.5;" width="130" x="723" y="444.5"/><ellipse cx="738" cy="463.4688" fill="#ADD1B2" rx="11" ry="11" style="stroke:#A80036;stroke-width:1.0;"/><path d="M740.3438,459.1406 C739.4063,458.7031 738.8125,458.5625 737.9375,458.5625 C735.3125,458.5625 733.3125,460.6406 733.3125,463.3594 L733.3125,464.4844 C733.3125,467.0625 735.4219,468.9531 738.3125,468.9531 C739.5313,468.9531 740.6875,468.6563 741.4375,468.1094 C742.0156,467.7031 742.3438,467.25 742.3438,466.8594 C742.3438,466.4063 741.9531,466.0156 741.4844,466.0156 C741.2656,466.0156 741.0625,466.0938 740.875,466.2813 C740.4219,466.7656 740.4219,466.7656 740.2344,466.8594 C739.8125,467.125 739.125,467.25 738.3594,467.25 C736.3125,467.25 735.0156,466.1563 735.0156,464.4531 L735.0156,463.3594 C735.0156,461.5781 736.2656,460.2656 738,460.2656 C738.5781,460.2656 739.1875,460.4219 739.6563,460.6719 C740.1406,460.9531 740.3125,461.1719 740.4063,461.5781 C740.4688,461.9844 740.5,462.1094 740.6406,462.2344 C740.7813,462.375 741.0156,462.4844 741.2344,462.4844 C741.5,462.4844 741.7656,462.3438 741.9375,462.125 C742.0469,461.9688 742.0781,461.7813 742.0781,461.3594 L742.0781,459.9375 C742.0781,459.5 742.0625,459.375 741.9688,459.2188 C741.8125,458.9531 741.5313,458.8125 741.2344,458.8125 C740.9375,458.8125 740.7344,458.9063 740.5156,459.2188 L740.3438,459.1406 Z " fill="#000000"/><text fill="#000000" font-family="sans-serif" font-size="12" lengthAdjust="spacingAndGlyphs" textLength="98" x="752" y="460.6387">usantatecla.utils.</text><text fill="#000000" font-family="sans-serif" font-size="12" lengthAdjust="spacingAndGlyphs" textLength="76" x="763" y="474.6074">YesNoDialog</text><line style="stroke:#A80036;stroke-width:1.5;" x1="724" x2="852" y1="482.4375" y2="482.4375"/><line style="stroke:#A80036;stroke-width:1.5;" x1="724" x2="852" y1="490.4375" y2="490.4375"/><!--MD5=[ce3aceb15685c4a66d1e1b8ea7e2c984]
class ColorCode--><rect codeLine="13" fill="#FEFECE" filter="url(#f1551r1okbqake)" height="53.9375" id="ColorCode" style="stroke:#A80036;stroke-width:1.5;" width="130" x="1735" y="893"/><ellipse cx="1750" cy="911.9688" fill="#EB937F" rx="11" ry="11" style="stroke:#A80036;stroke-width:1.0;"/><path d="M1748.7969,912.8438 L1750.25,912.8438 L1750.25,912.9531 C1750.25,913.3594 1750.2813,913.5156 1750.3594,913.6719 C1750.5156,913.9219 1750.7969,914.0781 1751.0938,914.0781 C1751.3438,914.0781 1751.6094,913.9375 1751.7656,913.7188 C1751.8906,913.5625 1751.9219,913.4063 1751.9219,912.9531 L1751.9219,911.0313 C1751.9219,910.875 1751.9219,910.8281 1751.9063,910.6719 C1751.8438,910.2031 1751.5313,909.8906 1751.0781,909.8906 C1750.8281,909.8906 1750.5625,910.0313 1750.3906,910.25 C1750.2813,910.4219 1750.25,910.5781 1750.25,911.0313 L1750.25,911.1563 L1748.7969,911.1563 L1748.7969,908.75 L1752.7813,908.75 L1752.7813,909.6094 C1752.7813,910.0156 1752.8125,910.1875 1752.8906,910.3438 C1753.0625,910.5938 1753.3438,910.75 1753.625,910.75 C1753.8906,910.75 1754.1563,910.6094 1754.3281,910.3906 C1754.4375,910.2188 1754.4688,910.0781 1754.4688,909.6094 L1754.4688,907.0625 L1746.8438,907.0625 C1746.4063,907.0625 1746.2813,907.0781 1746.125,907.1719 C1745.875,907.3281 1745.7188,907.625 1745.7188,907.9063 C1745.7188,908.1875 1745.8594,908.4375 1746.0781,908.6094 C1746.2344,908.7188 1746.4219,908.75 1746.8438,908.75 L1747.0938,908.75 L1747.0938,915.2656 L1746.8438,915.2656 C1746.4375,915.2656 1746.2813,915.2813 1746.125,915.3906 C1745.875,915.5625 1745.7188,915.8281 1745.7188,916.125 C1745.7188,916.3906 1745.8594,916.6406 1746.0781,916.7969 C1746.2188,916.9219 1746.4531,916.9688 1746.8438,916.9688 L1754.8438,916.9688 L1754.8438,914.3906 C1754.8438,913.9531 1754.8125,913.8125 1754.7344,913.6563 C1754.5625,913.4063 1754.2813,913.25 1754,913.25 C1753.7344,913.25 1753.4688,913.3594 1753.2969,913.6094 C1753.1875,913.7656 1753.1563,913.9063 1753.1563,914.3906 L1753.1563,915.2656 L1748.7969,915.2656 L1748.7969,912.8438 Z " fill="#000000"/><text fill="#000000" font-family="sans-serif" font-size="12" lengthAdjust="spacingAndGlyphs" textLength="98" x="1764" y="909.1387">usantatecla.utils.</text><text fill="#000000" font-family="sans-serif" font-size="12" lengthAdjust="spacingAndGlyphs" textLength="64" x="1781" y="923.1074">ColorCode</text><line style="stroke:#A80036;stroke-width:1.5;" x1="1736" x2="1864" y1="930.9375" y2="930.9375"/><line style="stroke:#A80036;stroke-width:1.5;" x1="1736" x2="1864" y1="938.9375" y2="938.9375"/><!--MD5=[5cc2afc7699cbb48ec3daa48200efb03]
reverse link View to usantatecla.mastermind.views.console.ConsoleView--><path codeLine="21" d="M1040,95.31 C1040,108.333 1040,122.196 1040,134.982 " fill="none" id="View-backto-usantatecla.mastermind.views.console.ConsoleView" style="stroke:#A80036;stroke-width:1.0;"/><polygon fill="none" points="1033,95.175,1040,75.175,1047,95.175,1033,95.175" style="stroke:#A80036;stroke-width:1.0;"/><!--MD5=[62b989f1b7fd9494cd0a5a3595d138cf]
link usantatecla.mastermind.views.console.ConsoleView to usantatecla.mastermind.views.console.StartView--><path codeLine="22" d="M1073.6435,245.0093 C1073.6435,245.0093 1100.08,324.942 1084,362 C1071.72,390.299 1048.02,414.584 1025.23,432.959 " fill="none" id="usantatecla.mastermind.views.console.ConsoleView-usantatecla.mastermind.views.console.StartView" style="stroke:#A80036;stroke-width:1.0;"/><polygon fill="#A80036" points="1014.87,440.979,1024.4356,438.6339,1018.8241,437.9188,1019.5392,432.3073,1014.87,440.979" style="stroke:#A80036;stroke-width:1.0;"/><line style="stroke:#A80036;stroke-width:1.0;" x1="1018.8241" x2="1025.145" y1="437.9188" y2="433.0235"/><polygon fill="#A80036" points="1068.66,234.093,1067.513,241.2123,1073.6435,245.0093,1074.7905,237.89,1068.66,234.093" style="stroke:#A80036;stroke-width:1.0;"/><!--MD5=[9e9e09f7b836be77202fb5a7c9dba601]
link usantatecla.mastermind.views.console.ConsoleView to usantatecla.mastermind.views.console.ProposalView--><path codeLine="23" d="M1131.407,201.1625 C1131.407,201.1625 1601.33,281.66 1763.43,309.43 " fill="none" id="usantatecla.mastermind.views.console.ConsoleView-usantatecla.mastermind.views.console.ProposalView" style="stroke:#A80036;stroke-width:1.0;"/><polygon fill="#A80036" points="1776.27,311.628,1768.0767,306.1627,1771.3421,310.7819,1766.7229,314.0473,1776.27,311.628" style="stroke:#A80036;stroke-width:1.0;"/><line style="stroke:#A80036;stroke-width:1.0;" x1="1771.3421" x2="1763.45" y1="310.7819" y2="309.4325"/><polygon fill="#A80036" points="1119.58,199.132,1124.8167,204.0896,1131.407,201.1625,1126.1703,196.2049,1119.58,199.132" style="stroke:#A80036;stroke-width:1.0;"/><!--MD5=[20a2805fbab39aefb16f40efe1c74efb]
link usantatecla.mastermind.views.console.ConsoleView to usantatecla.mastermind.views.console.ResumeView--><path codeLine="24" d="M1013.4428,245.1602 C1013.4428,245.1602 1001.09,272.893 995.663,285.083 " fill="none" id="usantatecla.mastermind.views.console.ConsoleView-usantatecla.mastermind.views.console.ResumeView" style="stroke:#A80036;stroke-width:1.0;"/><polygon fill="#A80036" points="990.263,297.21,997.5781,290.6153,992.2969,292.6423,990.2698,287.3611,990.263,297.21" style="stroke:#A80036;stroke-width:1.0;"/><line style="stroke:#A80036;stroke-width:1.0;" x1="992.2969" x2="995.551" y1="292.6423" y2="285.334"/><polygon fill="#A80036" points="1018.32,234.196,1012.2267,238.0523,1013.4428,245.1602,1019.5361,241.3038,1018.32,234.196" style="stroke:#A80036;stroke-width:1.0;"/><!--MD5=[af96cf0269107941f8e0369aff9fcd0a]
link usantatecla.mastermind.views.console.ConsoleView to StartController--><path codeLine="25" d="M960.223,197.75 C819.049,222.219 519.865,286.82 305,422 C232.048,467.897 162.75,541.719 124.549,585.976 " fill="none" id="usantatecla.mastermind.views.console.ConsoleView-to-StartController" style="stroke:#A80036;stroke-width:1.0;stroke-dasharray:7.0,7.0;"/><polygon fill="#A80036" points="121.176,589.9,130.075,585.6801,124.4343,586.1075,124.0069,580.4668,121.176,589.9" style="stroke:#A80036;stroke-width:1.0;"/><!--MD5=[4a4e8aa6e2d57ee20b27f027f00b433f]
link usantatecla.mastermind.views.console.ConsoleView to ProposalController--><path codeLine="26" d="M1119.51,186.315 C1342.63,189.681 1970.32,206.854 2154,294 C2342.49,383.428 2559.2,496.475 2439,667 C2391.47,734.43 2298.07,760.188 2227.28,769.903 " fill="none" id="usantatecla.mastermind.views.console.ConsoleView-to-ProposalController" style="stroke:#A80036;stroke-width:1.0;stroke-dasharray:7.0,7.0;"/><polygon fill="#A80036" points="2222.22,770.575,2231.6676,773.3576,2227.1766,769.9179,2230.6163,765.427,2222.22,770.575" style="stroke:#A80036;stroke-width:1.0;"/><!--MD5=[aba18c4a0a829771a69a2cb8ec6c6c4d]
link usantatecla.mastermind.views.console.ConsoleView to ResumeController--><path codeLine="27" d="M960.21,221.595 C838.604,276.608 608.339,380.775 487.881,435.268 " fill="none" id="usantatecla.mastermind.views.console.ConsoleView-to-ResumeController" style="stroke:#A80036;stroke-width:1.0;stroke-dasharray:7.0,7.0;"/><polygon fill="#A80036" points="483.289,437.345,493.1377,437.2816,487.8449,435.2849,489.8415,429.9922,483.289,437.345" style="stroke:#A80036;stroke-width:1.0;"/><!--MD5=[a441e6bcd859c7409e9b8b5ec6310c3e]
link usantatecla.mastermind.views.console.ResumeView to ResumeController--><path codeLine="32" d="M887.13,342.014 C794.755,356.649 647.397,383.509 524,422 C511.674,425.845 498.86,430.553 486.465,435.509 " fill="none" id="usantatecla.mastermind.views.console.ResumeView-to-ResumeController" style="stroke:#A80036;stroke-width:1.0;stroke-dasharray:7.0,7.0;"/><polygon fill="#A80036" points="481.553,437.494,491.3961,437.8314,486.189,435.621,488.3994,430.4139,481.553,437.494" style="stroke:#A80036;stroke-width:1.0;"/><!--MD5=[a725383cd7ccf4a5610b2a96a21a031d]
link usantatecla.mastermind.views.console.ResumeView to Message--><path codeLine="33" d="M887.413,333.65 C825.117,342.121 746.142,364.452 705,422 C688.652,444.867 709.795,647.904 716,667 C724.304,692.554 739.793,718.265 753.789,738.24 " fill="none" id="usantatecla.mastermind.views.console.ResumeView-to-Message" style="stroke:#A80036;stroke-width:1.0;stroke-dasharray:7.0,7.0;"/><polygon fill="#A80036" points="756.749,742.414,754.8048,732.7589,753.8563,738.3357,748.2796,737.3872,756.749,742.414" style="stroke:#A80036;stroke-width:1.0;"/><!--MD5=[11a6206d39bd673b590966d1322f3f4d]
link usantatecla.mastermind.views.console.ResumeView to YesNoDialog--><path codeLine="34" d="M937.379,358.663 C904.955,382.939 859.339,417.09 827.066,441.252 " fill="none" id="usantatecla.mastermind.views.console.ResumeView-to-YesNoDialog" style="stroke:#A80036;stroke-width:1.0;stroke-dasharray:7.0,7.0;"/><polygon fill="#A80036" points="822.802,444.444,832.4038,442.2517,826.8044,441.4472,827.6089,435.8478,822.802,444.444" style="stroke:#A80036;stroke-width:1.0;"/><!--MD5=[80869c372aff1267a2951704c8fbb83c]
link usantatecla.mastermind.views.console.StartView to usantatecla.mastermind.views.console.SecretCombinationView--><path codeLine="39" d="M976.8182,513.9715 C976.8182,513.9715 985.554,555.059 989.583,574.006 " fill="none" id="usantatecla.mastermind.views.console.StartView-usantatecla.mastermind.views.console.SecretCombinationView" style="stroke:#A80036;stroke-width:1.0;"/><polygon fill="#A80036" points="992.336,586.957,994.3763,577.3218,991.2959,582.0664,986.5513,578.986,992.336,586.957" style="stroke:#A80036;stroke-width:1.0;"/><line style="stroke:#A80036;stroke-width:1.0;" x1="991.2959" x2="989.6325" y1="582.0664" y2="574.2415"/><polygon fill="#A80036" points="974.322,502.234,971.6576,508.9348,976.8182,513.9715,979.4826,507.2707,974.322,502.234" style="stroke:#A80036;stroke-width:1.0;"/><!--MD5=[41b00bef7f8876bf10aff963cfd73488]
link usantatecla.mastermind.views.console.StartView to Console--><path codeLine="40" d="M914.082,502.122 C900.024,509.023 884.69,515.85 870,521 C607.498,613.027 428.871,492.661 279,727 C249.546,773.054 243.17,808.712 279,850 C331.798,910.8411 572.026,919.4223 693.387,919.7712 " fill="none" id="usantatecla.mastermind.views.console.StartView-to-Console" style="stroke:#A80036;stroke-width:1.0;stroke-dasharray:7.0,7.0;"/><polygon fill="#A80036" points="698.719,919.7815,689.727,915.7635,693.719,919.7715,689.711,923.7635,698.719,919.7815" style="stroke:#A80036;stroke-width:1.0;"/><!--MD5=[cab10df3f7f92ee1f0dbf00cb45822f7]
link usantatecla.mastermind.views.console.StartView to StartController--><path codeLine="41" d="M917.298,502.013 C902.494,509.397 885.987,516.49 870,521 C585.67,601.215 496.198,516.042 208,581 C198.976,583.034 189.699,585.603 180.519,588.466 " fill="none" id="usantatecla.mastermind.views.console.StartView-to-StartController" style="stroke:#A80036;stroke-width:1.0;stroke-dasharray:7.0,7.0;"/><polygon fill="#A80036" points="175.73,589.988,185.5187,591.0747,180.4952,588.4739,183.0961,583.4504,175.73,589.988" style="stroke:#A80036;stroke-width:1.0;"/><!--MD5=[cb2142cad003aa30be20e00fecfd0a1b]
link usantatecla.mastermind.views.console.StartView to Message--><path codeLine="42" d="M909.088,502.08 C896.246,508.409 882.7,514.995 870,521 C811.375,548.719 772.185,526.527 737,581 C705.847,629.23 734.185,696.372 758.124,737.828 " fill="none" id="usantatecla.mastermind.views.console.StartView-to-Message" style="stroke:#A80036;stroke-width:1.0;stroke-dasharray:7.0,7.0;"/><polygon fill="#A80036" points="760.72,742.255,759.6163,732.4682,758.1901,737.9423,752.716,736.516,760.72,742.255" style="stroke:#A80036;stroke-width:1.0;"/><!--MD5=[34f45d8eb391e863c64e9d61cdbd6cb3]
link usantatecla.mastermind.views.console.ProposalView to usantatecla.mastermind.views.console.GameView--><path codeLine="47" d="M1776.49,354.953 C1693.59,378.993 1570.26,414.754 1482.79,440.116 " fill="none" id="usantatecla.mastermind.views.console.ProposalView-to-usantatecla.mastermind.views.console.GameView" style="stroke:#A80036;stroke-width:1.0;stroke-dasharray:7.0,7.0;"/><polygon fill="#A80036" points="1477.87,441.543,1487.6298,442.8646,1482.6702,440.1438,1485.391,435.1842,1477.87,441.543" style="stroke:#A80036;stroke-width:1.0;"/><!--MD5=[7af6c83f995de445f81a1f725c5d2bc8]
link usantatecla.mastermind.views.console.ProposalView to usantatecla.mastermind.views.console.ProposedCombinationView--><path codeLine="48" d="M1838.33,358.893 C1824.1,376.062 1807.92,398.779 1799,422 C1779.81,471.968 1775.68,533.72 1775.47,575.491 " fill="none" id="usantatecla.mastermind.views.console.ProposalView-to-usantatecla.mastermind.views.console.ProposedCombinationView" style="stroke:#A80036;stroke-width:1.0;stroke-dasharray:7.0,7.0;"/><polygon fill="#A80036" points="1775.46,580.738,1779.4703,571.7426,1775.4657,575.738,1771.4703,571.7334,1775.46,580.738" style="stroke:#A80036;stroke-width:1.0;"/><!--MD5=[2727f618f40a8f936627bddbc362f055]
link usantatecla.mastermind.views.console.ProposalView to usantatecla.mastermind.views.console.ErrorView--><path codeLine="49" d="M1870.4,358.663 C1872.91,375.547 1876.12,397.209 1879.05,416.964 " fill="none" id="usantatecla.mastermind.views.console.ProposalView-to-usantatecla.mastermind.views.console.ErrorView" style="stroke:#A80036;stroke-width:1.0;stroke-dasharray:7.0,7.0;"/><polygon fill="#A80036" points="1879.79,421.941,1882.4268,412.4517,1879.0567,416.9951,1874.5133,413.625,1879.79,421.941" style="stroke:#A80036;stroke-width:1.0;"/><!--MD5=[29259fdcbd7cfab01cc80d1d1477efa6]
link usantatecla.mastermind.views.console.ProposalView to ProposalController--><path codeLine="50" d="M1955.69,357.243 C2096.11,403.544 2356.94,498.687 2406,581 C2425.57,613.832 2427.42,635.346 2406,667 C2366.28,725.683 2289.11,752.63 2227.25,765.002 " fill="none" id="usantatecla.mastermind.views.console.ProposalView-to-ProposalController" style="stroke:#A80036;stroke-width:1.0;stroke-dasharray:7.0,7.0;"/><polygon fill="#A80036" points="2222.07,766.011,2231.6692,768.2146,2226.9776,765.0541,2230.1381,760.3624,2222.07,766.011" style="stroke:#A80036;stroke-width:1.0;"/><!--MD5=[3cb9512ac0041a53ec814edc084bd1a5]
link usantatecla.mastermind.views.console.ProposalView to Color--><path codeLine="51" d="M1955.73,357.352 C1961.56,358.983 1967.35,360.548 1973,362 C2194.64,418.968 2346.09,371.865 2439,581 C2499.37,716.907 2370.67,778.995 2240,850 C2180.17,882.5108 2104.45,900.1723 2048.77,909.462 " fill="none" id="usantatecla.mastermind.views.console.ProposalView-to-Color" style="stroke:#A80036;stroke-width:1.0;stroke-dasharray:7.0,7.0;"/><polygon fill="#A80036" points="2043.78,910.2804,2053.3112,912.7615,2048.7133,909.4662,2052.0086,904.8683,2043.78,910.2804" style="stroke:#A80036;stroke-width:1.0;"/><!--MD5=[116b3b770c8904eef89988378d0d9d12]
link usantatecla.mastermind.views.console.ProposalView to Error--><path codeLine="52" d="M1911.31,358.536 C1994.64,412.861 2171.94,528.436 2262.01,587.154 " fill="none" id="usantatecla.mastermind.views.console.ProposalView-to-Error" style="stroke:#A80036;stroke-width:1.0;stroke-dasharray:7.0,7.0;"/><polygon fill="#A80036" points="2266.23,589.907,2260.8723,581.6429,2262.0405,587.1778,2256.5056,588.3461,2266.23,589.907" style="stroke:#A80036;stroke-width:1.0;"/><!--MD5=[7d44489fa2fa0bc52039d4b3663fad5e]
link usantatecla.mastermind.views.console.GameView to ProposalController--><path codeLine="58" d="M1489.5204,486.1399 C1489.5204,486.1399 2145.14,568.522 2156,581 C2191.31,621.575 2174.9,686.383 2157.24,729.913 " fill="none" id="usantatecla.mastermind.views.console.GameView-ProposalController" style="stroke:#A80036;stroke-width:1.0;"/><polygon fill="#A80036" points="2152.02,742.139,2159.2309,735.4306,2153.9821,737.5401,2151.8726,732.2912,2152.02,742.139" style="stroke:#A80036;stroke-width:1.0;"/><line style="stroke:#A80036;stroke-width:1.0;" x1="2153.9821" x2="2157.125" y1="737.5401" y2="730.1815"/><polygon fill="#A80036" points="1477.61,484.676,1483.0772,489.3781,1489.5204,486.1399,1484.0532,481.4378,1477.61,484.676" style="stroke:#A80036;stroke-width:1.0;"/><!--MD5=[b90bd2c032648a28e3be92ea37f03571]
link usantatecla.mastermind.views.console.GameView to usantatecla.mastermind.views.console.AttemptsView--><path codeLine="59" d="M1348.78,508.548 C1330.59,530.991 1307.16,559.887 1288.4,583.029 " fill="none" id="usantatecla.mastermind.views.console.GameView-to-usantatecla.mastermind.views.console.AttemptsView" style="stroke:#A80036;stroke-width:1.0;stroke-dasharray:7.0,7.0;"/><polygon fill="#A80036" points="1285.19,586.985,1293.9638,582.5107,1288.3378,583.1002,1287.7482,577.4742,1285.19,586.985" style="stroke:#A80036;stroke-width:1.0;"/><!--MD5=[6fd1f03f81fb53601a513d86ffa35878]
link usantatecla.mastermind.views.console.GameView to usantatecla.mastermind.views.console.SecretCombinationView--><path codeLine="60" d="M1287.46,508.548 C1229.46,531.64 1154.31,561.564 1095.39,585.022 " fill="none" id="usantatecla.mastermind.views.console.GameView-to-usantatecla.mastermind.views.console.SecretCombinationView" style="stroke:#A80036;stroke-width:1.0;stroke-dasharray:7.0,7.0;"/><polygon fill="#A80036" points="1090.46,586.985,1100.3018,587.3574,1095.1026,585.1285,1097.3315,579.9293,1090.46,586.985" style="stroke:#A80036;stroke-width:1.0;"/><!--MD5=[91ef064aa58798763c5d6beac2e16e0b]
link usantatecla.mastermind.views.console.GameView to usantatecla.mastermind.views.console.ProposedCombinationView--><path codeLine="61" d="M1473.57,508.548 C1529.74,529.737 1601.17,556.678 1660.61,579.098 " fill="none" id="usantatecla.mastermind.views.console.GameView-to-usantatecla.mastermind.views.console.ProposedCombinationView" style="stroke:#A80036;stroke-width:1.0;stroke-dasharray:7.0,7.0;"/><polygon fill="#A80036" points="1665.59,580.978,1658.5717,574.0683,1660.9094,579.2196,1655.7582,581.5573,1665.59,580.978" style="stroke:#A80036;stroke-width:1.0;"/><!--MD5=[455f14397b920a49ef35d70d7c28902f]
link usantatecla.mastermind.views.console.GameView to usantatecla.mastermind.views.console.ResultView--><path codeLine="62" d="M1406.98,508.548 C1425.03,530.991 1448.26,559.887 1466.86,583.029 " fill="none" id="usantatecla.mastermind.views.console.GameView-to-usantatecla.mastermind.views.console.ResultView" style="stroke:#A80036;stroke-width:1.0;stroke-dasharray:7.0,7.0;"/><polygon fill="#A80036" points="1470.04,586.985,1467.5221,577.4634,1466.9087,583.0869,1461.2852,582.4735,1470.04,586.985" style="stroke:#A80036;stroke-width:1.0;"/><!--MD5=[f178d11a365fac98d5118f34f32492a3]
link usantatecla.mastermind.views.console.GameView to Message--><path codeLine="63" d="M1278.4,488.731 C1139.38,512.137 900.558,555.363 869,581 C820.436,620.453 798.482,692.906 789.189,737.379 " fill="none" id="usantatecla.mastermind.views.console.GameView-to-Message" style="stroke:#A80036;stroke-width:1.0;stroke-dasharray:7.0,7.0;"/><polygon fill="#A80036" points="788.17,742.393,793.8821,734.3698,789.1657,737.4931,786.0423,732.7767,788.17,742.393" style="stroke:#A80036;stroke-width:1.0;"/><!--MD5=[bf5762cbc2c7de23763d98d5f8e47dc6]
link usantatecla.mastermind.views.console.GameView to Console--><path codeLine="64" d="M1278.4,487.468 C1163.27,505.659 968.513,539.171 804,581 C701.291,607.115 412.421,641.357 350,727 C317.801,771.178 314.665,808.288 350,850 C393.234,901.0355 587.37,914.3578 693.741,917.8112 " fill="none" id="usantatecla.mastermind.views.console.GameView-to-Console" style="stroke:#A80036;stroke-width:1.0;stroke-dasharray:7.0,7.0;"/><polygon fill="#A80036" points="698.739,917.9683,689.8692,913.6874,693.7415,917.8112,689.6177,921.6835,698.739,917.9683" style="stroke:#A80036;stroke-width:1.0;"/><!--MD5=[9fcf926616a88112060ccc06b3ef6bba]
link usantatecla.mastermind.views.console.ProposedCombinationView to ProposalController--><path codeLine="71" d="M1888.2607,671.7772 C1888.2607,671.7772 1997.27,717.599 2044.37,737.401 " fill="none" id="usantatecla.mastermind.views.console.ProposedCombinationView-ProposalController" style="stroke:#A80036;stroke-width:1.0;"/><polygon fill="#A80036" points="2056.41,742.463,2049.6586,735.2923,2051.7994,740.5284,2046.5633,742.6692,2056.41,742.463" style="stroke:#A80036;stroke-width:1.0;"/><line style="stroke:#A80036;stroke-width:1.0;" x1="2051.7994" x2="2044.43" y1="740.5284" y2="737.4245"/><polygon fill="#A80036" points="1877.2,667.123,1881.1789,673.137,1888.2607,671.7772,1884.2817,665.7632,1877.2,667.123" style="stroke:#A80036;stroke-width:1.0;"/><!--MD5=[44214b583fdef523f9f88d3b7a8d70b5]
link usantatecla.mastermind.views.console.ProposedCombinationView to usantatecla.mastermind.views.console.ColorView--><path codeLine="72" d="M1786.28,667.323 C1789.99,684.25 1794.31,703.946 1798.24,721.858 " fill="none" id="usantatecla.mastermind.views.console.ProposedCombinationView-to-usantatecla.mastermind.views.console.ColorView" style="stroke:#A80036;stroke-width:1.0;stroke-dasharray:7.0,7.0;"/><polygon fill="#A80036" points="1799.33,726.859,1801.312,717.2116,1798.2603,721.9748,1793.4972,718.9231,1799.33,726.859" style="stroke:#A80036;stroke-width:1.0;"/><!--MD5=[a0933519c1a055e22b8e4f80fd0a030c]
link usantatecla.mastermind.views.console.ProposedCombinationView to Color--><path codeLine="73" d="M1845.53,667.129 C1867.67,683.52 1890.67,703.936 1907,727 C1940.34,774.103 1957.64,839.644 1965.77,880.6736 " fill="none" id="usantatecla.mastermind.views.console.ProposedCombinationView-to-Color" style="stroke:#A80036;stroke-width:1.0;stroke-dasharray:7.0,7.0;"/><polygon fill="#A80036" points="1966.76,885.8002,1968.9772,876.2042,1965.81,880.8913,1961.1229,877.7241,1966.76,885.8002" style="stroke:#A80036;stroke-width:1.0;"/><!--MD5=[58593a47527012b78667630e5c48f8ef]
link usantatecla.mastermind.views.console.ProposedCombinationView to Message--><path codeLine="74" d="M1633.32,663.811 C1627.49,664.965 1621.7,666.035 1616,667 C1288.48,722.47 1189.12,631.363 871,727 C860.28,730.223 849.404,734.878 839.125,740.044 " fill="none" id="usantatecla.mastermind.views.console.ProposedCombinationView-to-Message" style="stroke:#A80036;stroke-width:1.0;stroke-dasharray:7.0,7.0;"/><polygon fill="#A80036" points="834.447,742.45,844.2799,741.8897,838.8931,740.1626,840.6201,734.7759,834.447,742.45" style="stroke:#A80036;stroke-width:1.0;"/><!--MD5=[bb135094d23d21d3527ec7eab1716e09]
link usantatecla.mastermind.views.console.ProposedCombinationView to Console--><path codeLine="75" d="M1682.23,667.079 C1565.52,717.359 1360.2,800.842 1177,850 C1058.83,881.7085 917.53,901.5478 834.589,911.4192 " fill="none" id="usantatecla.mastermind.views.console.ProposedCombinationView-to-Console" style="stroke:#A80036;stroke-width:1.0;stroke-dasharray:7.0,7.0;"/><polygon fill="#A80036" points="829.211,912.055,838.6184,914.9705,834.1764,911.4679,837.679,907.0258,829.211,912.055" style="stroke:#A80036;stroke-width:1.0;"/><!--MD5=[1af3da67e97d69997c249b0b33d6f525]
link usantatecla.mastermind.views.console.SecretCombinationView to Controller--><path codeLine="81" d="M875.2069,662.9669 C875.2069,662.9669 751.749,703.757 693,727 C685.034,730.152 676.807,733.6 668.627,737.158 " fill="none" id="usantatecla.mastermind.views.console.SecretCombinationView-Controller" style="stroke:#A80036;stroke-width:1.0;"/><polygon fill="#A80036" points="656.712,742.429,666.5608,742.4465,661.2847,740.4064,663.3247,735.1302,656.712,742.429" style="stroke:#A80036;stroke-width:1.0;"/><line style="stroke:#A80036;stroke-width:1.0;" x1="661.2847" x2="668.6005" y1="740.4064" y2="737.17"/><polygon fill="#A80036" points="886.64,659.322,879.7085,657.3334,875.2069,662.9669,882.1384,664.9555,886.64,659.322" style="stroke:#A80036;stroke-width:1.0;"/><!--MD5=[1e0a09d0f9d89e3147254c7ba510437f]
link usantatecla.mastermind.views.console.SecretCombinationView to Message--><path codeLine="82" d="M948.023,661.048 C913.805,684.781 869.18,715.73 834.964,739.461 " fill="none" id="usantatecla.mastermind.views.console.SecretCombinationView-to-Message" style="stroke:#A80036;stroke-width:1.0;stroke-dasharray:7.0,7.0;"/><polygon fill="#A80036" points="830.844,742.318,840.5189,740.475,834.9523,739.4682,835.9591,733.9016,830.844,742.318" style="stroke:#A80036;stroke-width:1.0;"/><!--MD5=[c65e49329e258f4189c1811921b7eeec]
link usantatecla.mastermind.views.console.SecretCombinationView to Console--><path codeLine="83" d="M886.877,660.339 C877.821,662.739 868.782,664.995 860,667 C777.082,685.929 537.226,662.317 482,727 C446.504,768.575 448.25,806.996 482,850 C507.83,882.9124 618.754,902.1555 693.542,911.617 " fill="none" id="usantatecla.mastermind.views.console.SecretCombinationView-to-Console" style="stroke:#A80036;stroke-width:1.0;stroke-dasharray:7.0,7.0;"/><polygon fill="#A80036" points="698.863,912.2814,690.427,907.1987,693.9014,911.6628,689.4373,915.1372,698.863,912.2814" style="stroke:#A80036;stroke-width:1.0;"/><!--MD5=[f655ef39785c162a41b70a8e597d8234]
link usantatecla.mastermind.views.console.ResultView to ProposalController--><path codeLine="89" d="M1606.8114,664.4792 C1606.8114,664.4792 1613.35,666.308 1616,667 C1772.1,707.75 1816.89,690.326 1974,727 C1993.92,731.649 2014.99,737.386 2035.09,743.267 " fill="none" id="usantatecla.mastermind.views.console.ResultView-ProposalController" style="stroke:#A80036;stroke-width:1.0;"/><polygon fill="#A80036" points="2047.81,747.04,2040.3208,740.6437,2043.0168,745.6168,2038.0437,748.3128,2047.81,747.04" style="stroke:#A80036;stroke-width:1.0;"/><line style="stroke:#A80036;stroke-width:1.0;" x1="2043.0168" x2="2035.345" y1="745.6168" y2="743.3405"/><polygon fill="#A80036" points="1595.3,661.09,1599.926,666.6218,1606.8114,664.4792,1602.1855,658.9475,1595.3,661.09" style="stroke:#A80036;stroke-width:1.0;"/><!--MD5=[cad2abc1d50cb4b224a40fb44d276e41]
link usantatecla.mastermind.views.console.ResultView to Message--><path codeLine="90" d="M1403.26,661.084 C1395.78,663.284 1388.31,665.293 1381,667 C1158.76,718.927 1088.32,657.287 871,727 C860.629,730.327 850.082,734.916 840.062,739.954 " fill="none" id="usantatecla.mastermind.views.console.ResultView-to-Message" style="stroke:#A80036;stroke-width:1.0;stroke-dasharray:7.0,7.0;"/><polygon fill="#A80036" points="835.497,742.297,845.3303,741.7429,839.9446,740.0125,841.675,734.6268,835.497,742.297" style="stroke:#A80036;stroke-width:1.0;"/><!--MD5=[fa2803cdc31af4e95d3ca8372e54d78c]
link usantatecla.mastermind.views.console.ResultView to Console--><path codeLine="91" d="M1429.45,661.132 C1335.76,708.827 1162.96,793.363 1009,850 C951.162,871.276 883.632,889.8482 834.134,902.3485 " fill="none" id="usantatecla.mastermind.views.console.ResultView-to-Console" style="stroke:#A80036;stroke-width:1.0;stroke-dasharray:7.0,7.0;"/><polygon fill="#A80036" points="829.099,903.6148,838.803,905.298,833.9479,902.3948,836.851,897.5397,829.099,903.6148" style="stroke:#A80036;stroke-width:1.0;"/><!--MD5=[1576ecd5736531811093570bd1402523]
link usantatecla.mastermind.views.console.AttemptsView to ProposalController--><path codeLine="97" d="M1369.5537,664.0941 C1369.5537,664.0941 1378.3,666.206 1382,667 C1640.57,722.486 1714.65,675.289 1974,727 C1993.94,730.975 2014.95,736.378 2034.96,742.136 " fill="none" id="usantatecla.mastermind.views.console.AttemptsView-ProposalController" style="stroke:#A80036;stroke-width:1.0;"/><polygon fill="#A80036" points="2047.61,745.858,2040.106,739.4792,2042.8135,744.446,2037.8467,747.1535,2047.61,745.858" style="stroke:#A80036;stroke-width:1.0;"/><line style="stroke:#A80036;stroke-width:1.0;" x1="2042.8135" x2="2035.145" y1="744.446" y2="742.189"/><polygon fill="#A80036" points="1357.94,661.074,1362.7401,666.4553,1369.5537,664.0941,1364.7536,658.7128,1357.94,661.074" style="stroke:#A80036;stroke-width:1.0;"/><!--MD5=[738f77d4bd907962f647ef647715b407]
link usantatecla.mastermind.views.console.AttemptsView to Console--><path codeLine="98" d="M1195.67,661.05 C1096.88,720.083 902.58,836.19 812.267,890.1573 " fill="none" id="usantatecla.mastermind.views.console.AttemptsView-to-Console" style="stroke:#A80036;stroke-width:1.0;stroke-dasharray:7.0,7.0;"/><polygon fill="#A80036" points="807.783,892.8368,817.5607,891.6548,812.0753,890.2724,813.4576,884.7871,807.783,892.8368" style="stroke:#A80036;stroke-width:1.0;"/><!--MD5=[d70cfd223097805628f7b93885746474]
link usantatecla.mastermind.views.console.AttemptsView to Message--><path codeLine="99" d="M1150.35,661.018 C1143.49,663.11 1136.66,665.124 1130,667 C1016.27,699.051 981.347,684.748 871,727 C861.48,730.645 851.721,735.154 842.328,739.941 " fill="none" id="usantatecla.mastermind.views.console.AttemptsView-to-Message" style="stroke:#A80036;stroke-width:1.0;stroke-dasharray:7.0,7.0;"/><polygon fill="#A80036" points="837.748,742.311,847.5795,741.7268,842.1886,740.0129,843.9025,734.6219,837.748,742.311" style="stroke:#A80036;stroke-width:1.0;"/><!--MD5=[4e2709992aeba74cd8a18434f41dce90]
reverse link ColorView to usantatecla.mastermind.views.console.ColorView--><path codeLine="107" d="M1992.24,668.36 C1960.35,687.113 1922.93,709.108 1890.33,728.273 " fill="none" id="ColorView-backto-usantatecla.mastermind.views.console.ColorView" style="stroke:#A80036;stroke-width:1.0;"/><polygon fill="none" points="1989.03,662.129,2009.82,658.028,1996.13,674.198,1989.03,662.129" style="stroke:#A80036;stroke-width:1.0;"/><!--MD5=[2aef66e15b01ad184c4ce0d2e2e7310c]
link usantatecla.mastermind.views.console.ColorView to ColorCode--><path codeLine="108" d="M1806.56,826.196 C1805.12,846.482 1803.5,869.455 1802.23,887.4692 " fill="none" id="usantatecla.mastermind.views.console.ColorView-to-ColorCode" style="stroke:#A80036;stroke-width:1.0;stroke-dasharray:7.0,7.0;"/><polygon fill="#A80036" points="1801.85,892.8921,1806.4749,884.1967,1802.2027,887.9046,1798.4948,883.6324,1801.85,892.8921" style="stroke:#A80036;stroke-width:1.0;"/><!--MD5=[a37bf943a63f3006ec72e7a59689964d]
link usantatecla.mastermind.views.console.ColorView to Console--><path codeLine="109" d="M1729.99,824.673 C1709.72,834.667 1687.57,843.998 1666,850 C1509.63,893.5092 1017.78,911.74 834.101,917.1489 " fill="none" id="usantatecla.mastermind.views.console.ColorView-to-Console" style="stroke:#A80036;stroke-width:1.0;stroke-dasharray:7.0,7.0;"/><polygon fill="#A80036" points="829.023,917.2975,838.1368,921.0309,834.0208,917.1504,837.9014,913.0344,829.023,917.2975" style="stroke:#A80036;stroke-width:1.0;"/><!--MD5=[69dc8072829cbbfdbc9d9a2751321cd9]
link usantatecla.mastermind.views.console.ColorView to Color--><path codeLine="110" d="M1865.75,826.196 C1886.86,844.633 1910.51,865.2901 1930.13,882.4264 " fill="none" id="usantatecla.mastermind.views.console.ColorView-to-Color" style="stroke:#A80036;stroke-width:1.0;stroke-dasharray:7.0,7.0;"/><polygon fill="#A80036" points="1934,885.805,1929.8483,876.8739,1930.2325,882.5177,1924.5887,882.9019,1934,885.805" style="stroke:#A80036;stroke-width:1.0;"/><!--MD5=[21f4368561ef8ab68eb0033a214ce281]
reverse link ErrorView to usantatecla.mastermind.views.console.ErrorView--><path codeLine="118" d="M2006.6,374.886 C1987.76,389.948 1966.77,406.732 1947.69,421.982 " fill="none" id="ErrorView-backto-usantatecla.mastermind.views.console.ErrorView" style="stroke:#A80036;stroke-width:1.0;"/><polygon fill="none" points="2002.51,369.196,2022.5,362.175,2011.25,380.132,2002.51,369.196" style="stroke:#A80036;stroke-width:1.0;"/><!--MD5=[7451bd3d087460174f80dc13e9004d7a]
link usantatecla.mastermind.views.console.ErrorView to Error--><path codeLine="119" d="M1957.66,493.762 C2025.09,514.498 2129.25,547.696 2218,581 C2225.38,583.77 2233.02,586.77 2240.64,589.847 " fill="none" id="usantatecla.mastermind.views.console.ErrorView-to-Error" style="stroke:#A80036;stroke-width:1.0;stroke-dasharray:7.0,7.0;"/><polygon fill="#A80036" points="2245.37,591.772,2238.5428,584.6734,2240.7391,589.8865,2235.526,592.0828,2245.37,591.772" style="stroke:#A80036;stroke-width:1.0;"/><!--MD5=[b6f3fff8c22bf6afa8b0a8da791006e0]
link usantatecla.mastermind.views.console.ErrorView to Console--><path codeLine="120" d="M1816.25,481.848 C1737.81,492.075 1607.47,508.655 1495,521 C1217.17,551.496 1140.67,515.315 869,581 C768.565,605.284 750.671,633.275 653,667 C563.669,697.846 505.619,651.331 449,727 C416.249,770.77 414.729,807.41 449,850 C479.093,887.3982 610.215,905.6545 693.512,913.6326 " fill="none" id="usantatecla.mastermind.views.console.ErrorView-to-Console" style="stroke:#A80036;stroke-width:1.0;stroke-dasharray:7.0,7.0;"/><polygon fill="#A80036" points="698.928,914.1433,690.3425,909.3175,693.95,913.6747,689.5928,917.2823,698.928,914.1433" style="stroke:#A80036;stroke-width:1.0;"/><!--MD5=[0144a89e07469074881e23a062c69e12]
link usantatecla.mastermind.views.console.ErrorView to usantatecla.mastermind.views.console.ColorView--><path codeLine="121" d="M1917.74,521.297 C1939,561.658 1959.86,619.804 1938,667 C1927.92,688.748 1911.1,707.725 1892.91,723.464 " fill="none" id="usantatecla.mastermind.views.console.ErrorView-to-usantatecla.mastermind.views.console.ColorView" style="stroke:#A80036;stroke-width:1.0;stroke-dasharray:7.0,7.0;"/><polygon fill="#A80036" points="1888.77,726.979,1898.2238,724.2175,1892.5864,723.7486,1893.0552,718.1113,1888.77,726.979" style="stroke:#A80036;stroke-width:1.0;"/><!--MD5=[9f5b4e419d1eba185d58da15f9755f6c]
@startuml
abstract class Controller as "usantatecla.\nmastermind.controllers.\nController"
class StartController as "usantatecla.\nmastermind.controllers.\nStartController"
class ProposalController as "usantatecla.\nmastermind.controllers.\nProposalController"
class ResumeController as "usantatecla.\nmastermind.controllers.\nResumeController"
enum Error as "usantatecla.\nmastermind.types.\nError"
enum Color as "usantatecla.\nmastermind.types.\nColor"
abstract class View as "usantatecla.\nmastermind.views.\nView"
abstract class ColorView as "usantatecla.\nmastermind.views.\nColorView"
abstract class ErrorView as "usantatecla.\nmastermind.views.\nErrorView"
enum Message as "usantatecla.\nmastermind.views.\nMessageView"
class Console as "usantatecla.utils.\nConsole"
class YesNoDialog as "usantatecla.utils.\nYesNoDialog"
enum ColorCode as "usantatecla.utils.\nColorCode"

class usantatecla.mastermind.views.console.ConsoleView {
    + ConsoleView()
    + visit(StartController)
    + visit(ProposalController)
    + visit(ResumeController)
}
usantatecla.mastermind.views.console.ConsoleView -up-|> View
usantatecla.mastermind.views.console.ConsoleView *-down-> usantatecla.mastermind.views.console.StartView
usantatecla.mastermind.views.console.ConsoleView *-down-> usantatecla.mastermind.views.console.ProposalView
usantatecla.mastermind.views.console.ConsoleView *-down-> usantatecla.mastermind.views.console.ResumeView
usantatecla.mastermind.views.console.ConsoleView .down.> StartController
usantatecla.mastermind.views.console.ConsoleView .down.> ProposalController
usantatecla.mastermind.views.console.ConsoleView .down.> ResumeController

class usantatecla.mastermind.views.console.ResumeView {
    ~ interact(ResumeController)
}
usantatecla.mastermind.views.console.ResumeView .down.> ResumeController
usantatecla.mastermind.views.console.ResumeView .down.> Message
usantatecla.mastermind.views.console.ResumeView .down.> YesNoDialog

class usantatecla.mastermind.views.console.StartView {
    ~ interact(StartController)
}
usantatecla.mastermind.views.console.StartView *-down-> usantatecla.mastermind.views.console.SecretCombinationView
usantatecla.mastermind.views.console.StartView .down.> Console
usantatecla.mastermind.views.console.StartView .down.> StartController
usantatecla.mastermind.views.console.StartView .down.> Message

class usantatecla.mastermind.views.console.ProposalView {
    ~ interact(ProposalController)
}
usantatecla.mastermind.views.console.ProposalView .down.> usantatecla.mastermind.views.console.GameView
usantatecla.mastermind.views.console.ProposalView .down.> usantatecla.mastermind.views.console.ProposedCombinationView
usantatecla.mastermind.views.console.ProposalView .down.> usantatecla.mastermind.views.console.ErrorView
usantatecla.mastermind.views.console.ProposalView .down.> ProposalController
usantatecla.mastermind.views.console.ProposalView .down.> Color
usantatecla.mastermind.views.console.ProposalView .down.> Error

class usantatecla.mastermind.views.console.GameView {
    ~ GameView(ProposalController)
    ~ write()
}
usantatecla.mastermind.views.console.GameView *-down-> ProposalController
usantatecla.mastermind.views.console.GameView .down.> usantatecla.mastermind.views.console.AttemptsView
usantatecla.mastermind.views.console.GameView .down.> usantatecla.mastermind.views.console.SecretCombinationView
usantatecla.mastermind.views.console.GameView .down.> usantatecla.mastermind.views.console.ProposedCombinationView
usantatecla.mastermind.views.console.GameView .down.> usantatecla.mastermind.views.console.ResultView
usantatecla.mastermind.views.console.GameView .down.> Message
usantatecla.mastermind.views.console.GameView .down.> Console

class usantatecla.mastermind.views.console.ProposedCombinationView {
    + ProposedCombinationView(ProposalController)
    + write(int)
    + read(): List<Color>
}
usantatecla.mastermind.views.console.ProposedCombinationView *-down-> ProposalController
usantatecla.mastermind.views.console.ProposedCombinationView .down.> usantatecla.mastermind.views.console.ColorView
usantatecla.mastermind.views.console.ProposedCombinationView .down.> Color
usantatecla.mastermind.views.console.ProposedCombinationView .down.> Message
usantatecla.mastermind.views.console.ProposedCombinationView .down.> Console

class usantatecla.mastermind.views.console.SecretCombinationView {
    ~ SecretCombinationView(Controller)
    ~ writeln()
}
usantatecla.mastermind.views.console.SecretCombinationView *-down-> Controller
usantatecla.mastermind.views.console.SecretCombinationView ..> Message
usantatecla.mastermind.views.console.SecretCombinationView ..> Console

class usantatecla.mastermind.views.console.ResultView {
    + ResultView(ProposalController)
    + writeln(int)
}
usantatecla.mastermind.views.console.ResultView *-down-> ProposalController
usantatecla.mastermind.views.console.ResultView .down.> Message
usantatecla.mastermind.views.console.ResultView .down.> Console

class usantatecla.mastermind.views.console.AttemptsView {
    ~ AttemptsView(ProposalController)
    ~ writeln()
}
usantatecla.mastermind.views.console.AttemptsView *-down-> ProposalController
usantatecla.mastermind.views.console.AttemptsView .down.> Console
usantatecla.mastermind.views.console.AttemptsView .down.> Message

class usantatecla.mastermind.views.console.ColorView {
    + ColorView()
    + ColorView(Color)
    # resultInitials(int) : String
    + write()
}
usantatecla.mastermind.views.console.ColorView -up-|> ColorView
usantatecla.mastermind.views.console.ColorView .down.> ColorCode
usantatecla.mastermind.views.console.ColorView .down.> Console
usantatecla.mastermind.views.console.ColorView .down.> Color

class usantatecla.mastermind.views.console.ErrorView {
    ~ ErrorView()
    + ErrorView(Error)
    + writeln()
    # colorInitials() : String
}
usantatecla.mastermind.views.console.ErrorView -up-|> ErrorView
usantatecla.mastermind.views.console.ErrorView .down.> Error
usantatecla.mastermind.views.console.ErrorView .down.> Console
usantatecla.mastermind.views.console.ErrorView .down.> usantatecla.mastermind.views.console.ColorView
@enduml

PlantUML version 1.2020.23beta3(Unknown compile time)
(GPL source distribution)
Java Runtime: Java(TM) SE Runtime Environment
JVM: Java HotSpot(TM) 64-Bit Server VM
Default Encoding: UTF-8
Language: en
Country: US
--></g></svg>