<?xml version="1.0" encoding="UTF-8" standalone="no"?><svg xmlns="http://www.w3.org/2000/svg" xmlns:xlink="http://www.w3.org/1999/xlink" contentScriptType="application/ecmascript" contentStyleType="text/css" height="771px" preserveAspectRatio="none" style="width:1421px;height:771px;" version="1.1" viewBox="0 0 1421 771" width="1421px" zoomAndPan="magnify"><defs><filter height="300%" id="fzerm7ovy72in" width="300%" x="-1" y="-1"><feGaussianBlur result="blurOut" stdDeviation="2.0"/><feColorMatrix in="blurOut" result="blurOut2" type="matrix" values="0 0 0 0 0 0 0 0 0 0 0 0 0 0 0 0 0 0 .4 0"/><feOffset dx="4.0" dy="4.0" in="blurOut2" result="blurOut3"/><feBlend in="SourceGraphic" in2="blurOut3" mode="normal"/></filter></defs><g><!--MD5=[45607799a901819e6cc4b6d8cd00ce6c]
cluster usantatecla.mastermind.controllers--><polygon fill="#FFFFFF" filter="url(#fzerm7ovy72in)" points="314,6,615,6,622,28.2969,1092,28.2969,1092,646,314,646,314,6" style="stroke:#000000;stroke-width:1.5;"/><line style="stroke:#000000;stroke-width:1.5;" x1="314" x2="622" y1="28.2969" y2="28.2969"/><text fill="#000000" font-family="sans-serif" font-size="14" font-weight="bold" lengthAdjust="spacingAndGlyphs" textLength="295" x="318" y="20.9951">usantatecla.mastermind.controllers</text><!--MD5=[877f7580c8bbbe21e5afc74b6ea1e072]
class usantatecla.mastermind.controllers.ControllersVisitor--><rect codeLine="9" fill="#FEFECE" filter="url(#fzerm7ovy72in)" height="86.4141" id="usantatecla.mastermind.controllers.ControllersVisitor" style="stroke:#A80036;stroke-width:1.5;" width="159" x="636.5" y="321"/><ellipse cx="663.2" cy="337" fill="#B4A7E5" rx="11" ry="11" style="stroke:#A80036;stroke-width:1.0;"/><path d="M664.1531,333.7813 L665.8719,333.7813 C666.2625,333.7813 666.45,333.75 666.575,333.6719 C666.8406,333.5156 666.9813,333.2344 666.9813,332.9375 C666.9813,332.6719 666.8719,332.4063 666.6375,332.2344 C666.4656,332.125 666.325,332.0938 665.8719,332.0938 L660.7313,332.0938 C660.2938,332.0938 660.1688,332.1094 660.0125,332.2031 C659.7625,332.3594 659.6063,332.6563 659.6063,332.9375 C659.6063,333.2188 659.7469,333.4688 659.9656,333.6406 C660.1219,333.75 660.3094,333.7813 660.7313,333.7813 L662.45,333.7813 L662.45,340.2969 L660.7313,340.2969 C660.2938,340.2969 660.1688,340.3125 660.0125,340.4219 C659.7625,340.5781 659.6063,340.8594 659.6063,341.1563 C659.6063,341.4063 659.7469,341.6719 659.9656,341.8281 C660.1219,341.9531 660.325,342 660.7313,342 L665.8719,342 C666.6219,342 666.9813,341.7188 666.9813,341.1563 C666.9813,340.875 666.8719,340.625 666.6375,340.4531 C666.4656,340.3281 666.325,340.2969 665.8719,340.2969 L664.1531,340.2969 L664.1531,333.7813 Z " fill="#000000"/><text fill="#000000" font-family="sans-serif" font-size="12" font-style="italic" lengthAdjust="spacingAndGlyphs" textLength="101" x="679.8" y="341.1543">ControllersVisitor</text><line style="stroke:#A80036;stroke-width:1.5;" x1="637.5" x2="794.5" y1="353" y2="353"/><line style="stroke:#A80036;stroke-width:1.5;" x1="637.5" x2="794.5" y1="361" y2="361"/><polygon fill="#4177AF" points="647.5,368,643.5,374,651.5,374" style="stroke:#1963A0;stroke-width:1.0;"/><text fill="#000000" font-family="sans-serif" font-size="11" lengthAdjust="spacingAndGlyphs" textLength="113" x="656.5" y="375.2104">visit(StartController)</text><polygon fill="#4177AF" points="647.5,380.8047,643.5,386.8047,651.5,386.8047" style="stroke:#1963A0;stroke-width:1.0;"/><text fill="#000000" font-family="sans-serif" font-size="11" lengthAdjust="spacingAndGlyphs" textLength="133" x="656.5" y="388.0151">visit(ProposalController)</text><polygon fill="#4177AF" points="647.5,393.6094,643.5,399.6094,651.5,399.6094" style="stroke:#1963A0;stroke-width:1.0;"/><text fill="#000000" font-family="sans-serif" font-size="11" lengthAdjust="spacingAndGlyphs" textLength="133" x="656.5" y="400.8198">visit(ResumeController)</text><!--MD5=[c20948aa6f904689435480ad9a30530a]
class usantatecla.mastermind.controllers.StartController--><rect codeLine="70" fill="#FEFECE" filter="url(#fzerm7ovy72in)" height="86.4141" id="usantatecla.mastermind.controllers.StartController" style="stroke:#A80036;stroke-width:1.5;" width="189" x="886.5" y="505.5"/><ellipse cx="933.25" cy="521.5" fill="#ADD1B2" rx="11" ry="11" style="stroke:#A80036;stroke-width:1.0;"/><path d="M935.5938,517.1719 C934.6563,516.7344 934.0625,516.5938 933.1875,516.5938 C930.5625,516.5938 928.5625,518.6719 928.5625,521.3906 L928.5625,522.5156 C928.5625,525.0938 930.6719,526.9844 933.5625,526.9844 C934.7813,526.9844 935.9375,526.6875 936.6875,526.1406 C937.2656,525.7344 937.5938,525.2813 937.5938,524.8906 C937.5938,524.4375 937.2031,524.0469 936.7344,524.0469 C936.5156,524.0469 936.3125,524.125 936.125,524.3125 C935.6719,524.7969 935.6719,524.7969 935.4844,524.8906 C935.0625,525.1563 934.375,525.2813 933.6094,525.2813 C931.5625,525.2813 930.2656,524.1875 930.2656,522.4844 L930.2656,521.3906 C930.2656,519.6094 931.5156,518.2969 933.25,518.2969 C933.8281,518.2969 934.4375,518.4531 934.9063,518.7031 C935.3906,518.9844 935.5625,519.2031 935.6563,519.6094 C935.7188,520.0156 935.75,520.1406 935.8906,520.2656 C936.0313,520.4063 936.2656,520.5156 936.4844,520.5156 C936.75,520.5156 937.0156,520.375 937.1875,520.1563 C937.2969,520 937.3281,519.8125 937.3281,519.3906 L937.3281,517.9688 C937.3281,517.5313 937.3125,517.4063 937.2188,517.25 C937.0625,516.9844 936.7813,516.8438 936.4844,516.8438 C936.1875,516.8438 935.9844,516.9375 935.7656,517.25 L935.5938,517.1719 Z " fill="#000000"/><text fill="#000000" font-family="sans-serif" font-size="12" lengthAdjust="spacingAndGlyphs" textLength="87" x="953.75" y="525.6543">StartController</text><line style="stroke:#A80036;stroke-width:1.5;" x1="887.5" x2="1074.5" y1="537.5" y2="537.5"/><line style="stroke:#A80036;stroke-width:1.5;" x1="887.5" x2="1074.5" y1="545.5" y2="545.5"/><ellipse cx="897.5" cy="556.5" fill="#84BE84" rx="3" ry="3" style="stroke:#038048;stroke-width:1.0;"/><text fill="#000000" font-family="sans-serif" font-size="11" lengthAdjust="spacingAndGlyphs" textLength="163" x="906.5" y="559.7104">StartController(Game, State)</text><ellipse cx="897.5" cy="569.3047" fill="#84BE84" rx="3" ry="3" style="stroke:#038048;stroke-width:1.0;"/><text fill="#000000" font-family="sans-serif" font-size="11" lengthAdjust="spacingAndGlyphs" textLength="33" x="906.5" y="572.5151">start()</text><ellipse cx="897.5" cy="582.1094" fill="#84BE84" rx="3" ry="3" style="stroke:#038048;stroke-width:1.0;"/><text fill="#000000" font-family="sans-serif" font-size="11" lengthAdjust="spacingAndGlyphs" textLength="142" x="906.5" y="585.3198">accept(ControllersVisitor)</text><!--MD5=[71ea1457370bc7d349149836b00bab29]
class usantatecla.mastermind.controllers.PlayController--><rect codeLine="40" fill="#FEFECE" filter="url(#fzerm7ovy72in)" height="163.2422" id="usantatecla.mastermind.controllers.PlayController" style="stroke:#A80036;stroke-width:1.5;" width="277" x="330.5" y="467"/><ellipse cx="409.25" cy="483" fill="#ADD1B2" rx="11" ry="11" style="stroke:#A80036;stroke-width:1.0;"/><path d="M411.5938,478.6719 C410.6563,478.2344 410.0625,478.0938 409.1875,478.0938 C406.5625,478.0938 404.5625,480.1719 404.5625,482.8906 L404.5625,484.0156 C404.5625,486.5938 406.6719,488.4844 409.5625,488.4844 C410.7813,488.4844 411.9375,488.1875 412.6875,487.6406 C413.2656,487.2344 413.5938,486.7813 413.5938,486.3906 C413.5938,485.9375 413.2031,485.5469 412.7344,485.5469 C412.5156,485.5469 412.3125,485.625 412.125,485.8125 C411.6719,486.2969 411.6719,486.2969 411.4844,486.3906 C411.0625,486.6563 410.375,486.7813 409.6094,486.7813 C407.5625,486.7813 406.2656,485.6875 406.2656,483.9844 L406.2656,482.8906 C406.2656,481.1094 407.5156,479.7969 409.25,479.7969 C409.8281,479.7969 410.4375,479.9531 410.9063,480.2031 C411.3906,480.4844 411.5625,480.7031 411.6563,481.1094 C411.7188,481.5156 411.75,481.6406 411.8906,481.7656 C412.0313,481.9063 412.2656,482.0156 412.4844,482.0156 C412.75,482.0156 413.0156,481.875 413.1875,481.6563 C413.2969,481.5 413.3281,481.3125 413.3281,480.8906 L413.3281,479.4688 C413.3281,479.0313 413.3125,478.9063 413.2188,478.75 C413.0625,478.4844 412.7813,478.3438 412.4844,478.3438 C412.1875,478.3438 411.9844,478.4375 411.7656,478.75 L411.5938,478.6719 Z " fill="#000000"/><text fill="#000000" font-family="sans-serif" font-size="12" lengthAdjust="spacingAndGlyphs" textLength="111" x="429.75" y="487.1543">ProposalController</text><line style="stroke:#A80036;stroke-width:1.5;" x1="331.5" x2="606.5" y1="499" y2="499"/><line style="stroke:#A80036;stroke-width:1.5;" x1="331.5" x2="606.5" y1="507" y2="507"/><ellipse cx="341.5" cy="518" fill="#84BE84" rx="3" ry="3" style="stroke:#038048;stroke-width:1.0;"/><text fill="#000000" font-family="sans-serif" font-size="11" lengthAdjust="spacingAndGlyphs" textLength="183" x="350.5" y="521.2104">ProposalController(Game, State)</text><ellipse cx="341.5" cy="530.8047" fill="#84BE84" rx="3" ry="3" style="stroke:#038048;stroke-width:1.0;"/><text fill="#000000" font-family="sans-serif" font-size="11" lengthAdjust="spacingAndGlyphs" textLength="251" x="350.5" y="534.0151">addProposedCombination(List&lt;Color&gt;): Error</text><ellipse cx="341.5" cy="543.6094" fill="#84BE84" rx="3" ry="3" style="stroke:#038048;stroke-width:1.0;"/><text fill="#000000" font-family="sans-serif" font-size="11" lengthAdjust="spacingAndGlyphs" textLength="110" x="350.5" y="546.8198">isWinner(): boolean</text><ellipse cx="341.5" cy="556.4141" fill="#84BE84" rx="3" ry="3" style="stroke:#038048;stroke-width:1.0;"/><text fill="#000000" font-family="sans-serif" font-size="11" lengthAdjust="spacingAndGlyphs" textLength="108" x="350.5" y="559.6245">isLooser(): boolean</text><ellipse cx="341.5" cy="569.2188" fill="#84BE84" rx="3" ry="3" style="stroke:#038048;stroke-width:1.0;"/><text fill="#000000" font-family="sans-serif" font-size="11" lengthAdjust="spacingAndGlyphs" textLength="100" x="350.5" y="572.4292">getAttempts(): int</text><ellipse cx="341.5" cy="582.0234" fill="#84BE84" rx="3" ry="3" style="stroke:#038048;stroke-width:1.0;"/><text fill="#000000" font-family="sans-serif" font-size="11" lengthAdjust="spacingAndGlyphs" textLength="149" x="350.5" y="585.2339">getColors(int): List&lt;Color&gt;</text><ellipse cx="341.5" cy="594.8281" fill="#84BE84" rx="3" ry="3" style="stroke:#038048;stroke-width:1.0;"/><text fill="#000000" font-family="sans-serif" font-size="11" lengthAdjust="spacingAndGlyphs" textLength="98" x="350.5" y="598.0386">getBlacks(int): int</text><ellipse cx="341.5" cy="607.6328" fill="#84BE84" rx="3" ry="3" style="stroke:#038048;stroke-width:1.0;"/><text fill="#000000" font-family="sans-serif" font-size="11" lengthAdjust="spacingAndGlyphs" textLength="101" x="350.5" y="610.8433">getWhites(int): int</text><ellipse cx="341.5" cy="620.4375" fill="#84BE84" rx="3" ry="3" style="stroke:#038048;stroke-width:1.0;"/><text fill="#000000" font-family="sans-serif" font-size="11" lengthAdjust="spacingAndGlyphs" textLength="142" x="350.5" y="623.6479">accept(ControllersVisitor)</text><!--MD5=[ba414607f34a8f1ff5e5377db4b3dfd8]
class usantatecla.mastermind.controllers.ResumeController--><rect codeLine="60" fill="#FEFECE" filter="url(#fzerm7ovy72in)" height="86.4141" id="usantatecla.mastermind.controllers.ResumeController" style="stroke:#A80036;stroke-width:1.5;" width="209" x="642.5" y="505.5"/><ellipse cx="689.25" cy="521.5" fill="#ADD1B2" rx="11" ry="11" style="stroke:#A80036;stroke-width:1.0;"/><path d="M691.5938,517.1719 C690.6563,516.7344 690.0625,516.5938 689.1875,516.5938 C686.5625,516.5938 684.5625,518.6719 684.5625,521.3906 L684.5625,522.5156 C684.5625,525.0938 686.6719,526.9844 689.5625,526.9844 C690.7813,526.9844 691.9375,526.6875 692.6875,526.1406 C693.2656,525.7344 693.5938,525.2813 693.5938,524.8906 C693.5938,524.4375 693.2031,524.0469 692.7344,524.0469 C692.5156,524.0469 692.3125,524.125 692.125,524.3125 C691.6719,524.7969 691.6719,524.7969 691.4844,524.8906 C691.0625,525.1563 690.375,525.2813 689.6094,525.2813 C687.5625,525.2813 686.2656,524.1875 686.2656,522.4844 L686.2656,521.3906 C686.2656,519.6094 687.5156,518.2969 689.25,518.2969 C689.8281,518.2969 690.4375,518.4531 690.9063,518.7031 C691.3906,518.9844 691.5625,519.2031 691.6563,519.6094 C691.7188,520.0156 691.75,520.1406 691.8906,520.2656 C692.0313,520.4063 692.2656,520.5156 692.4844,520.5156 C692.75,520.5156 693.0156,520.375 693.1875,520.1563 C693.2969,520 693.3281,519.8125 693.3281,519.3906 L693.3281,517.9688 C693.3281,517.5313 693.3125,517.4063 693.2188,517.25 C693.0625,516.9844 692.7813,516.8438 692.4844,516.8438 C692.1875,516.8438 691.9844,516.9375 691.7656,517.25 L691.5938,517.1719 Z " fill="#000000"/><text fill="#000000" font-family="sans-serif" font-size="12" lengthAdjust="spacingAndGlyphs" textLength="107" x="709.75" y="525.6543">ResumeController</text><line style="stroke:#A80036;stroke-width:1.5;" x1="643.5" x2="850.5" y1="537.5" y2="537.5"/><line style="stroke:#A80036;stroke-width:1.5;" x1="643.5" x2="850.5" y1="545.5" y2="545.5"/><ellipse cx="653.5" cy="556.5" fill="#84BE84" rx="3" ry="3" style="stroke:#038048;stroke-width:1.0;"/><text fill="#000000" font-family="sans-serif" font-size="11" lengthAdjust="spacingAndGlyphs" textLength="183" x="662.5" y="559.7104">ResumeController(Game, State)</text><ellipse cx="653.5" cy="569.3047" fill="#84BE84" rx="3" ry="3" style="stroke:#038048;stroke-width:1.0;"/><text fill="#000000" font-family="sans-serif" font-size="11" lengthAdjust="spacingAndGlyphs" textLength="98" x="662.5" y="572.5151">resume(boolean)</text><ellipse cx="653.5" cy="582.1094" fill="#84BE84" rx="3" ry="3" style="stroke:#038048;stroke-width:1.0;"/><text fill="#000000" font-family="sans-serif" font-size="11" lengthAdjust="spacingAndGlyphs" textLength="142" x="662.5" y="585.3198">accept(ControllersVisitor)</text><!--MD5=[e0d21a3c8ca66756a771586930837509]
class usantatecla.mastermind.controllers.Controller--><rect codeLine="18" fill="#FEFECE" filter="url(#fzerm7ovy72in)" height="86.4141" id="usantatecla.mastermind.controllers.Controller" style="stroke:#A80036;stroke-width:1.5;" width="169" x="666.5" y="175"/><ellipse cx="717.75" cy="191" fill="#A9DCDF" rx="11" ry="11" style="stroke:#A80036;stroke-width:1.0;"/><path d="M719.8281,192.8125 L720.2188,193.7969 L719.8281,193.7969 C719.375,193.7969 719.2656,193.8125 719.1094,193.9219 C718.8594,194.0781 718.7031,194.3594 718.7031,194.6563 C718.7031,194.9219 718.8438,195.1719 719.0625,195.3281 C719.2031,195.4531 719.4063,195.5 719.8281,195.5 L722.1875,195.5 C722.5469,195.5 722.7656,195.4688 722.9063,195.375 C723.1563,195.2344 723.3125,194.9375 723.3125,194.6563 C723.3125,194.375 723.1719,194.125 722.9531,193.9688 C722.7813,193.8281 722.625,193.7969 722.1563,193.7969 L718.7656,185.5938 L715.0938,185.5938 C714.6406,185.5938 714.5156,185.6094 714.3594,185.7031 C714.1094,185.875 713.9531,186.1563 713.9531,186.4375 C713.9531,186.7188 714.0938,186.9688 714.3125,187.1406 C714.4844,187.25 714.6563,187.2813 715.0938,187.2813 L716.1719,187.2813 L713.5313,193.7969 C713.1094,193.7969 712.9531,193.8125 712.7969,193.9219 C712.5469,194.0781 712.3906,194.3594 712.3906,194.6563 C712.3906,195.2188 712.7656,195.5 713.5156,195.5 L715.7813,195.5 C716.1406,195.5 716.3594,195.4688 716.4844,195.375 C716.75,195.2344 716.8906,194.9375 716.8906,194.6563 C716.8906,194.375 716.7656,194.125 716.5469,193.9531 C716.375,193.8281 716.2344,193.7969 715.7813,193.7969 L715.3906,193.7969 L715.7813,192.8125 L719.8281,192.8125 Z M719.125,191.1094 L716.4531,191.1094 L717.7969,187.8438 L719.125,191.1094 Z " fill="#000000"/><text fill="#000000" font-family="sans-serif" font-size="12" font-style="italic" lengthAdjust="spacingAndGlyphs" textLength="58" x="738.25" y="195.1543">Controller</text><line style="stroke:#A80036;stroke-width:1.5;" x1="667.5" x2="834.5" y1="207" y2="207"/><line style="stroke:#A80036;stroke-width:1.5;" x1="667.5" x2="834.5" y1="215" y2="215"/><polygon fill="#4177AF" points="677.5,222,673.5,228,681.5,228" style="stroke:#1963A0;stroke-width:1.0;"/><text fill="#000000" font-family="sans-serif" font-size="11" lengthAdjust="spacingAndGlyphs" textLength="136" x="686.5" y="229.2104">Controller(Game, State)</text><ellipse cx="677.5" cy="238.8047" fill="#84BE84" rx="3" ry="3" style="stroke:#038048;stroke-width:1.0;"/><text fill="#000000" font-family="sans-serif" font-size="11" lengthAdjust="spacingAndGlyphs" textLength="80" x="686.5" y="242.0151">getWidth(): int</text><ellipse cx="677.5" cy="251.6094" fill="#84BE84" rx="3" ry="3" style="stroke:#038048;stroke-width:1.0;"/><text fill="#000000" font-family="sans-serif" font-size="11" font-style="italic" lengthAdjust="spacingAndGlyphs" textLength="143" x="686.5" y="254.8198">accept(ControllersVisitor)</text><!--MD5=[94a6d75594c4867cc1b5bdf8bdcd38a2]
class usantatecla.mastermind.controllers.Logic--><rect codeLine="28" fill="#FEFECE" filter="url(#fzerm7ovy72in)" height="73.6094" id="usantatecla.mastermind.controllers.Logic" style="stroke:#A80036;stroke-width:1.5;" width="170" x="821" y="41"/><ellipse cx="885.75" cy="57" fill="#ADD1B2" rx="11" ry="11" style="stroke:#A80036;stroke-width:1.0;"/><path d="M888.0938,52.6719 C887.1563,52.2344 886.5625,52.0938 885.6875,52.0938 C883.0625,52.0938 881.0625,54.1719 881.0625,56.8906 L881.0625,58.0156 C881.0625,60.5938 883.1719,62.4844 886.0625,62.4844 C887.2813,62.4844 888.4375,62.1875 889.1875,61.6406 C889.7656,61.2344 890.0938,60.7813 890.0938,60.3906 C890.0938,59.9375 889.7031,59.5469 889.2344,59.5469 C889.0156,59.5469 888.8125,59.625 888.625,59.8125 C888.1719,60.2969 888.1719,60.2969 887.9844,60.3906 C887.5625,60.6563 886.875,60.7813 886.1094,60.7813 C884.0625,60.7813 882.7656,59.6875 882.7656,57.9844 L882.7656,56.8906 C882.7656,55.1094 884.0156,53.7969 885.75,53.7969 C886.3281,53.7969 886.9375,53.9531 887.4063,54.2031 C887.8906,54.4844 888.0625,54.7031 888.1563,55.1094 C888.2188,55.5156 888.25,55.6406 888.3906,55.7656 C888.5313,55.9063 888.7656,56.0156 888.9844,56.0156 C889.25,56.0156 889.5156,55.875 889.6875,55.6563 C889.7969,55.5 889.8281,55.3125 889.8281,54.8906 L889.8281,53.4688 C889.8281,53.0313 889.8125,52.9063 889.7188,52.75 C889.5625,52.4844 889.2813,52.3438 888.9844,52.3438 C888.6875,52.3438 888.4844,52.4375 888.2656,52.75 L888.0938,52.6719 Z " fill="#000000"/><text fill="#000000" font-family="sans-serif" font-size="12" lengthAdjust="spacingAndGlyphs" textLength="32" x="906.25" y="61.1543">Logic</text><line style="stroke:#A80036;stroke-width:1.5;" x1="822" x2="990" y1="73" y2="73"/><line style="stroke:#A80036;stroke-width:1.5;" x1="822" x2="990" y1="81" y2="81"/><ellipse cx="832" cy="92" fill="#84BE84" rx="3" ry="3" style="stroke:#038048;stroke-width:1.0;"/><text fill="#000000" font-family="sans-serif" font-size="11" lengthAdjust="spacingAndGlyphs" textLength="37" x="841" y="95.2104">Logic()</text><ellipse cx="832" cy="104.8047" fill="#84BE84" rx="3" ry="3" style="stroke:#038048;stroke-width:1.0;"/><text fill="#000000" font-family="sans-serif" font-size="11" lengthAdjust="spacingAndGlyphs" textLength="144" x="841" y="108.0151">getController(): Controller</text><!--MD5=[28491d17d5ee38c9c116625a5ffc259a]
class Combination--><rect codeLine="1" fill="#FEFECE" filter="url(#fzerm7ovy72in)" height="67.9063" id="Combination" style="stroke:#A80036;stroke-width:1.5;" width="156" x="7" y="690"/><ellipse cx="22" cy="715.9531" fill="#A9DCDF" rx="11" ry="11" style="stroke:#A80036;stroke-width:1.0;"/><path d="M24.0781,717.7656 L24.4688,718.75 L24.0781,718.75 C23.625,718.75 23.5156,718.7656 23.3594,718.875 C23.1094,719.0313 22.9531,719.3125 22.9531,719.6094 C22.9531,719.875 23.0938,720.125 23.3125,720.2813 C23.4531,720.4063 23.6563,720.4531 24.0781,720.4531 L26.4375,720.4531 C26.7969,720.4531 27.0156,720.4219 27.1563,720.3281 C27.4063,720.1875 27.5625,719.8906 27.5625,719.6094 C27.5625,719.3281 27.4219,719.0781 27.2031,718.9219 C27.0313,718.7813 26.875,718.75 26.4063,718.75 L23.0156,710.5469 L19.3438,710.5469 C18.8906,710.5469 18.7656,710.5625 18.6094,710.6563 C18.3594,710.8281 18.2031,711.1094 18.2031,711.3906 C18.2031,711.6719 18.3438,711.9219 18.5625,712.0938 C18.7344,712.2031 18.9063,712.2344 19.3438,712.2344 L20.4219,712.2344 L17.7813,718.75 C17.3594,718.75 17.2031,718.7656 17.0469,718.875 C16.7969,719.0313 16.6406,719.3125 16.6406,719.6094 C16.6406,720.1719 17.0156,720.4531 17.7656,720.4531 L20.0313,720.4531 C20.3906,720.4531 20.6094,720.4219 20.7344,720.3281 C21,720.1875 21.1406,719.8906 21.1406,719.6094 C21.1406,719.3281 21.0156,719.0781 20.7969,718.9063 C20.625,718.7813 20.4844,718.75 20.0313,718.75 L19.6406,718.75 L20.0313,717.7656 L24.0781,717.7656 Z M23.375,716.0625 L20.7031,716.0625 L22.0469,712.7969 L23.375,716.0625 Z " fill="#000000"/><text fill="#000000" font-family="sans-serif" font-size="12" font-style="italic" lengthAdjust="spacingAndGlyphs" textLength="74" x="61" y="706.1387">usantatecla.</text><text fill="#000000" font-family="sans-serif" font-size="12" font-style="italic" lengthAdjust="spacingAndGlyphs" textLength="124" x="36" y="720.1074">mastermind.models.</text><text fill="#000000" font-family="sans-serif" font-size="12" font-style="italic" lengthAdjust="spacingAndGlyphs" textLength="76" x="60" y="734.0762">Combination</text><line style="stroke:#A80036;stroke-width:1.5;" x1="8" x2="162" y1="741.9063" y2="741.9063"/><line style="stroke:#A80036;stroke-width:1.5;" x1="8" x2="162" y1="749.9063" y2="749.9063"/><!--MD5=[b6dcce5e5ef3c84b0b048d11301373dd]
class Game--><rect codeLine="2" fill="#FEFECE" filter="url(#fzerm7ovy72in)" height="67.9063" id="Game" style="stroke:#A80036;stroke-width:1.5;" width="154" x="576" y="690"/><ellipse cx="591" cy="715.9531" fill="#ADD1B2" rx="11" ry="11" style="stroke:#A80036;stroke-width:1.0;"/><path d="M593.3438,711.625 C592.4063,711.1875 591.8125,711.0469 590.9375,711.0469 C588.3125,711.0469 586.3125,713.125 586.3125,715.8438 L586.3125,716.9688 C586.3125,719.5469 588.4219,721.4375 591.3125,721.4375 C592.5313,721.4375 593.6875,721.1406 594.4375,720.5938 C595.0156,720.1875 595.3438,719.7344 595.3438,719.3438 C595.3438,718.8906 594.9531,718.5 594.4844,718.5 C594.2656,718.5 594.0625,718.5781 593.875,718.7656 C593.4219,719.25 593.4219,719.25 593.2344,719.3438 C592.8125,719.6094 592.125,719.7344 591.3594,719.7344 C589.3125,719.7344 588.0156,718.6406 588.0156,716.9375 L588.0156,715.8438 C588.0156,714.0625 589.2656,712.75 591,712.75 C591.5781,712.75 592.1875,712.9063 592.6563,713.1563 C593.1406,713.4375 593.3125,713.6563 593.4063,714.0625 C593.4688,714.4688 593.5,714.5938 593.6406,714.7188 C593.7813,714.8594 594.0156,714.9688 594.2344,714.9688 C594.5,714.9688 594.7656,714.8281 594.9375,714.6094 C595.0469,714.4531 595.0781,714.2656 595.0781,713.8438 L595.0781,712.4219 C595.0781,711.9844 595.0625,711.8594 594.9688,711.7031 C594.8125,711.4375 594.5313,711.2969 594.2344,711.2969 C593.9375,711.2969 593.7344,711.3906 593.5156,711.7031 L593.3438,711.625 Z " fill="#000000"/><text fill="#000000" font-family="sans-serif" font-size="12" lengthAdjust="spacingAndGlyphs" textLength="71" x="630.5" y="706.1387">usantatecla.</text><text fill="#000000" font-family="sans-serif" font-size="12" lengthAdjust="spacingAndGlyphs" textLength="122" x="605" y="720.1074">mastermind.models.</text><text fill="#000000" font-family="sans-serif" font-size="12" lengthAdjust="spacingAndGlyphs" textLength="35" x="648.5" y="734.0762">Game</text><line style="stroke:#A80036;stroke-width:1.5;" x1="577" x2="729" y1="741.9063" y2="741.9063"/><line style="stroke:#A80036;stroke-width:1.5;" x1="577" x2="729" y1="749.9063" y2="749.9063"/><!--MD5=[60d6b92408f98aed8df94d5c6e04aa63]
class State--><rect codeLine="3" fill="#FEFECE" filter="url(#fzerm7ovy72in)" height="67.9063" id="State" style="stroke:#A80036;stroke-width:1.5;" width="154" x="944" y="690"/><ellipse cx="959" cy="715.9531" fill="#ADD1B2" rx="11" ry="11" style="stroke:#A80036;stroke-width:1.0;"/><path d="M961.3438,711.625 C960.4063,711.1875 959.8125,711.0469 958.9375,711.0469 C956.3125,711.0469 954.3125,713.125 954.3125,715.8438 L954.3125,716.9688 C954.3125,719.5469 956.4219,721.4375 959.3125,721.4375 C960.5313,721.4375 961.6875,721.1406 962.4375,720.5938 C963.0156,720.1875 963.3438,719.7344 963.3438,719.3438 C963.3438,718.8906 962.9531,718.5 962.4844,718.5 C962.2656,718.5 962.0625,718.5781 961.875,718.7656 C961.4219,719.25 961.4219,719.25 961.2344,719.3438 C960.8125,719.6094 960.125,719.7344 959.3594,719.7344 C957.3125,719.7344 956.0156,718.6406 956.0156,716.9375 L956.0156,715.8438 C956.0156,714.0625 957.2656,712.75 959,712.75 C959.5781,712.75 960.1875,712.9063 960.6563,713.1563 C961.1406,713.4375 961.3125,713.6563 961.4063,714.0625 C961.4688,714.4688 961.5,714.5938 961.6406,714.7188 C961.7813,714.8594 962.0156,714.9688 962.2344,714.9688 C962.5,714.9688 962.7656,714.8281 962.9375,714.6094 C963.0469,714.4531 963.0781,714.2656 963.0781,713.8438 L963.0781,712.4219 C963.0781,711.9844 963.0625,711.8594 962.9688,711.7031 C962.8125,711.4375 962.5313,711.2969 962.2344,711.2969 C961.9375,711.2969 961.7344,711.3906 961.5156,711.7031 L961.3438,711.625 Z " fill="#000000"/><text fill="#000000" font-family="sans-serif" font-size="12" lengthAdjust="spacingAndGlyphs" textLength="71" x="998.5" y="706.1387">usantatecla.</text><text fill="#000000" font-family="sans-serif" font-size="12" lengthAdjust="spacingAndGlyphs" textLength="122" x="973" y="720.1074">mastermind.models.</text><text fill="#000000" font-family="sans-serif" font-size="12" lengthAdjust="spacingAndGlyphs" textLength="31" x="1018.5" y="734.0762">State</text><line style="stroke:#A80036;stroke-width:1.5;" x1="945" x2="1097" y1="741.9063" y2="741.9063"/><line style="stroke:#A80036;stroke-width:1.5;" x1="945" x2="1097" y1="749.9063" y2="749.9063"/><!--MD5=[cf489b19c51ee25e76ddca093e62e620]
class ProposedCombination--><rect codeLine="4" fill="#FEFECE" filter="url(#fzerm7ovy72in)" height="67.9063" id="ProposedCombination" style="stroke:#A80036;stroke-width:1.5;" width="164" x="198" y="690"/><ellipse cx="213" cy="715.9531" fill="#ADD1B2" rx="11" ry="11" style="stroke:#A80036;stroke-width:1.0;"/><path d="M215.3438,711.625 C214.4063,711.1875 213.8125,711.0469 212.9375,711.0469 C210.3125,711.0469 208.3125,713.125 208.3125,715.8438 L208.3125,716.9688 C208.3125,719.5469 210.4219,721.4375 213.3125,721.4375 C214.5313,721.4375 215.6875,721.1406 216.4375,720.5938 C217.0156,720.1875 217.3438,719.7344 217.3438,719.3438 C217.3438,718.8906 216.9531,718.5 216.4844,718.5 C216.2656,718.5 216.0625,718.5781 215.875,718.7656 C215.4219,719.25 215.4219,719.25 215.2344,719.3438 C214.8125,719.6094 214.125,719.7344 213.3594,719.7344 C211.3125,719.7344 210.0156,718.6406 210.0156,716.9375 L210.0156,715.8438 C210.0156,714.0625 211.2656,712.75 213,712.75 C213.5781,712.75 214.1875,712.9063 214.6563,713.1563 C215.1406,713.4375 215.3125,713.6563 215.4063,714.0625 C215.4688,714.4688 215.5,714.5938 215.6406,714.7188 C215.7813,714.8594 216.0156,714.9688 216.2344,714.9688 C216.5,714.9688 216.7656,714.8281 216.9375,714.6094 C217.0469,714.4531 217.0781,714.2656 217.0781,713.8438 L217.0781,712.4219 C217.0781,711.9844 217.0625,711.8594 216.9688,711.7031 C216.8125,711.4375 216.5313,711.2969 216.2344,711.2969 C215.9375,711.2969 215.7344,711.3906 215.5156,711.7031 L215.3438,711.625 Z " fill="#000000"/><text fill="#000000" font-family="sans-serif" font-size="12" lengthAdjust="spacingAndGlyphs" textLength="71" x="257.5" y="706.1387">usantatecla.</text><text fill="#000000" font-family="sans-serif" font-size="12" lengthAdjust="spacingAndGlyphs" textLength="122" x="232" y="720.1074">mastermind.models.</text><text fill="#000000" font-family="sans-serif" font-size="12" lengthAdjust="spacingAndGlyphs" textLength="132" x="227" y="734.0762">ProposedCombination</text><line style="stroke:#A80036;stroke-width:1.5;" x1="199" x2="361" y1="741.9063" y2="741.9063"/><line style="stroke:#A80036;stroke-width:1.5;" x1="199" x2="361" y1="749.9063" y2="749.9063"/><!--MD5=[167506e288131cdf3986fedef83acd94]
class StateValue--><rect codeLine="5" fill="#FEFECE" filter="url(#fzerm7ovy72in)" height="67.9063" id="StateValue" style="stroke:#A80036;stroke-width:1.5;" width="154" x="1253" y="184"/><ellipse cx="1268" cy="209.9531" fill="#EB937F" rx="11" ry="11" style="stroke:#A80036;stroke-width:1.0;"/><path d="M1266.7969,210.8281 L1268.25,210.8281 L1268.25,210.9375 C1268.25,211.3438 1268.2813,211.5 1268.3594,211.6563 C1268.5156,211.9063 1268.7969,212.0625 1269.0938,212.0625 C1269.3438,212.0625 1269.6094,211.9219 1269.7656,211.7031 C1269.8906,211.5469 1269.9219,211.3906 1269.9219,210.9375 L1269.9219,209.0156 C1269.9219,208.8594 1269.9219,208.8125 1269.9063,208.6563 C1269.8438,208.1875 1269.5313,207.875 1269.0781,207.875 C1268.8281,207.875 1268.5625,208.0156 1268.3906,208.2344 C1268.2813,208.4063 1268.25,208.5625 1268.25,209.0156 L1268.25,209.1406 L1266.7969,209.1406 L1266.7969,206.7344 L1270.7813,206.7344 L1270.7813,207.5938 C1270.7813,208 1270.8125,208.1719 1270.8906,208.3281 C1271.0625,208.5781 1271.3438,208.7344 1271.625,208.7344 C1271.8906,208.7344 1272.1563,208.5938 1272.3281,208.375 C1272.4375,208.2031 1272.4688,208.0625 1272.4688,207.5938 L1272.4688,205.0469 L1264.8438,205.0469 C1264.4063,205.0469 1264.2813,205.0625 1264.125,205.1563 C1263.875,205.3125 1263.7188,205.6094 1263.7188,205.8906 C1263.7188,206.1719 1263.8594,206.4219 1264.0781,206.5938 C1264.2344,206.7031 1264.4219,206.7344 1264.8438,206.7344 L1265.0938,206.7344 L1265.0938,213.25 L1264.8438,213.25 C1264.4375,213.25 1264.2813,213.2656 1264.125,213.375 C1263.875,213.5469 1263.7188,213.8125 1263.7188,214.1094 C1263.7188,214.375 1263.8594,214.625 1264.0781,214.7813 C1264.2188,214.9063 1264.4531,214.9531 1264.8438,214.9531 L1272.8438,214.9531 L1272.8438,212.375 C1272.8438,211.9375 1272.8125,211.7969 1272.7344,211.6406 C1272.5625,211.3906 1272.2813,211.2344 1272,211.2344 C1271.7344,211.2344 1271.4688,211.3438 1271.2969,211.5938 C1271.1875,211.75 1271.1563,211.8906 1271.1563,212.375 L1271.1563,213.25 L1266.7969,213.25 L1266.7969,210.8281 Z " fill="#000000"/><text fill="#000000" font-family="sans-serif" font-size="12" lengthAdjust="spacingAndGlyphs" textLength="71" x="1307.5" y="200.1387">usantatecla.</text><text fill="#000000" font-family="sans-serif" font-size="12" lengthAdjust="spacingAndGlyphs" textLength="122" x="1282" y="214.1074">mastermind.models.</text><text fill="#000000" font-family="sans-serif" font-size="12" lengthAdjust="spacingAndGlyphs" textLength="64" x="1311" y="228.0762">StateValue</text><line style="stroke:#A80036;stroke-width:1.5;" x1="1254" x2="1406" y1="235.9063" y2="235.9063"/><line style="stroke:#A80036;stroke-width:1.5;" x1="1254" x2="1406" y1="243.9063" y2="243.9063"/><!--MD5=[b8cfd8c4119a3b0a7a46bfc5fc780f85]
class Error--><rect codeLine="6" fill="#FEFECE" filter="url(#fzerm7ovy72in)" height="67.9063" id="Error" style="stroke:#A80036;stroke-width:1.5;" width="143" x="397.5" y="690"/><ellipse cx="412.5" cy="715.9531" fill="#EB937F" rx="11" ry="11" style="stroke:#A80036;stroke-width:1.0;"/><path d="M411.2969,716.8281 L412.75,716.8281 L412.75,716.9375 C412.75,717.3438 412.7813,717.5 412.8594,717.6563 C413.0156,717.9063 413.2969,718.0625 413.5938,718.0625 C413.8438,718.0625 414.1094,717.9219 414.2656,717.7031 C414.3906,717.5469 414.4219,717.3906 414.4219,716.9375 L414.4219,715.0156 C414.4219,714.8594 414.4219,714.8125 414.4063,714.6563 C414.3438,714.1875 414.0313,713.875 413.5781,713.875 C413.3281,713.875 413.0625,714.0156 412.8906,714.2344 C412.7813,714.4063 412.75,714.5625 412.75,715.0156 L412.75,715.1406 L411.2969,715.1406 L411.2969,712.7344 L415.2813,712.7344 L415.2813,713.5938 C415.2813,714 415.3125,714.1719 415.3906,714.3281 C415.5625,714.5781 415.8438,714.7344 416.125,714.7344 C416.3906,714.7344 416.6563,714.5938 416.8281,714.375 C416.9375,714.2031 416.9688,714.0625 416.9688,713.5938 L416.9688,711.0469 L409.3438,711.0469 C408.9063,711.0469 408.7813,711.0625 408.625,711.1563 C408.375,711.3125 408.2188,711.6094 408.2188,711.8906 C408.2188,712.1719 408.3594,712.4219 408.5781,712.5938 C408.7344,712.7031 408.9219,712.7344 409.3438,712.7344 L409.5938,712.7344 L409.5938,719.25 L409.3438,719.25 C408.9375,719.25 408.7813,719.2656 408.625,719.375 C408.375,719.5469 408.2188,719.8125 408.2188,720.1094 C408.2188,720.375 408.3594,720.625 408.5781,720.7813 C408.7188,720.9063 408.9531,720.9531 409.3438,720.9531 L417.3438,720.9531 L417.3438,718.375 C417.3438,717.9375 417.3125,717.7969 417.2344,717.6406 C417.0625,717.3906 416.7813,717.2344 416.5,717.2344 C416.2344,717.2344 415.9688,717.3438 415.7969,717.5938 C415.6875,717.75 415.6563,717.8906 415.6563,718.375 L415.6563,719.25 L411.2969,719.25 L411.2969,716.8281 Z " fill="#000000"/><text fill="#000000" font-family="sans-serif" font-size="12" lengthAdjust="spacingAndGlyphs" textLength="71" x="446.5" y="706.1387">usantatecla.</text><text fill="#000000" font-family="sans-serif" font-size="12" lengthAdjust="spacingAndGlyphs" textLength="111" x="426.5" y="720.1074">mastermind.types.</text><text fill="#000000" font-family="sans-serif" font-size="12" lengthAdjust="spacingAndGlyphs" textLength="30" x="467" y="734.0762">Error</text><line style="stroke:#A80036;stroke-width:1.5;" x1="398.5" x2="539.5" y1="741.9063" y2="741.9063"/><line style="stroke:#A80036;stroke-width:1.5;" x1="398.5" x2="539.5" y1="749.9063" y2="749.9063"/><!--MD5=[18eee71c88ab61f27581b8cbdd3ef5ee]
class Color--><rect codeLine="7" fill="#FEFECE" filter="url(#fzerm7ovy72in)" height="67.9063" id="Color" style="stroke:#A80036;stroke-width:1.5;" width="143" x="765.5" y="690"/><ellipse cx="780.5" cy="715.9531" fill="#EB937F" rx="11" ry="11" style="stroke:#A80036;stroke-width:1.0;"/><path d="M779.2969,716.8281 L780.75,716.8281 L780.75,716.9375 C780.75,717.3438 780.7813,717.5 780.8594,717.6563 C781.0156,717.9063 781.2969,718.0625 781.5938,718.0625 C781.8438,718.0625 782.1094,717.9219 782.2656,717.7031 C782.3906,717.5469 782.4219,717.3906 782.4219,716.9375 L782.4219,715.0156 C782.4219,714.8594 782.4219,714.8125 782.4063,714.6563 C782.3438,714.1875 782.0313,713.875 781.5781,713.875 C781.3281,713.875 781.0625,714.0156 780.8906,714.2344 C780.7813,714.4063 780.75,714.5625 780.75,715.0156 L780.75,715.1406 L779.2969,715.1406 L779.2969,712.7344 L783.2813,712.7344 L783.2813,713.5938 C783.2813,714 783.3125,714.1719 783.3906,714.3281 C783.5625,714.5781 783.8438,714.7344 784.125,714.7344 C784.3906,714.7344 784.6563,714.5938 784.8281,714.375 C784.9375,714.2031 784.9688,714.0625 784.9688,713.5938 L784.9688,711.0469 L777.3438,711.0469 C776.9063,711.0469 776.7813,711.0625 776.625,711.1563 C776.375,711.3125 776.2188,711.6094 776.2188,711.8906 C776.2188,712.1719 776.3594,712.4219 776.5781,712.5938 C776.7344,712.7031 776.9219,712.7344 777.3438,712.7344 L777.5938,712.7344 L777.5938,719.25 L777.3438,719.25 C776.9375,719.25 776.7813,719.2656 776.625,719.375 C776.375,719.5469 776.2188,719.8125 776.2188,720.1094 C776.2188,720.375 776.3594,720.625 776.5781,720.7813 C776.7188,720.9063 776.9531,720.9531 777.3438,720.9531 L785.3438,720.9531 L785.3438,718.375 C785.3438,717.9375 785.3125,717.7969 785.2344,717.6406 C785.0625,717.3906 784.7813,717.2344 784.5,717.2344 C784.2344,717.2344 783.9688,717.3438 783.7969,717.5938 C783.6875,717.75 783.6563,717.8906 783.6563,718.375 L783.6563,719.25 L779.2969,719.25 L779.2969,716.8281 Z " fill="#000000"/><text fill="#000000" font-family="sans-serif" font-size="12" lengthAdjust="spacingAndGlyphs" textLength="71" x="814.5" y="706.1387">usantatecla.</text><text fill="#000000" font-family="sans-serif" font-size="12" lengthAdjust="spacingAndGlyphs" textLength="111" x="794.5" y="720.1074">mastermind.types.</text><text fill="#000000" font-family="sans-serif" font-size="12" lengthAdjust="spacingAndGlyphs" textLength="32" x="834" y="734.0762">Color</text><line style="stroke:#A80036;stroke-width:1.5;" x1="766.5" x2="907.5" y1="741.9063" y2="741.9063"/><line style="stroke:#A80036;stroke-width:1.5;" x1="766.5" x2="907.5" y1="749.9063" y2="749.9063"/><!--MD5=[7fdf48b556a1c9826cc0cc4ec2a626dc]
link usantatecla.mastermind.controllers.ControllersVisitor to usantatecla.mastermind.controllers.StartController--><path codeLine="14" d="M764.707,407.181 C790.82,425.366 823.129,447.01 852,467 C868.334,478.31 885.845,490.744 902.633,502.386 " fill="none" id="usantatecla.mastermind.controllers.ControllersVisitor-to-usantatecla.mastermind.controllers.StartController" style="stroke:#A80036;stroke-width:1.0;stroke-dasharray:7.0,7.0;"/><polygon fill="#A80036" points="906.884,505.328,901.7582,496.9181,902.7721,502.4834,897.2068,503.4972,906.884,505.328" style="stroke:#A80036;stroke-width:1.0;"/><!--MD5=[bd475fd0ce301a7b572805ffdb34a310]
link usantatecla.mastermind.controllers.StartController to usantatecla.mastermind.controllers.ControllersVisitor--><path codeLine="78" d="M940.364,505.328 C923.822,492.86 904.719,479.268 887,467 C859.221,447.766 828.26,427.002 800.224,409.26 " fill="none" id="usantatecla.mastermind.controllers.StartController-to-usantatecla.mastermind.controllers.ControllersVisitor" style="stroke:#A80036;stroke-width:1.0;stroke-dasharray:7.0,7.0;"/><polygon fill="#A80036" points="795.751,406.439,801.2313,414.6223,799.9807,409.1054,805.4976,407.8548,795.751,406.439" style="stroke:#A80036;stroke-width:1.0;"/><!--MD5=[f9ec56cc12ee26bcec60491479aeabfa]
link usantatecla.mastermind.controllers.ControllersVisitor to usantatecla.mastermind.controllers.PlayController--><path codeLine="15" d="M648.085,407.098 C623.848,423.985 596.069,444.073 569.707,463.698 " fill="none" id="usantatecla.mastermind.controllers.ControllersVisitor-to-usantatecla.mastermind.controllers.PlayController" style="stroke:#A80036;stroke-width:1.0;stroke-dasharray:7.0,7.0;"/><polygon fill="#A80036" points="565.49,466.843,575.0962,464.6704,569.4986,463.8544,570.3146,458.2567,565.49,466.843" style="stroke:#A80036;stroke-width:1.0;"/><!--MD5=[e9fad167ed72f3bd7dcc3c8155272b19]
link usantatecla.mastermind.controllers.PlayController to usantatecla.mastermind.controllers.ControllersVisitor--><path codeLine="58" d="M591.582,466.843 C618.142,447.439 644.756,427.387 666.586,410.261 " fill="none" id="usantatecla.mastermind.controllers.PlayController-to-usantatecla.mastermind.controllers.ControllersVisitor" style="stroke:#A80036;stroke-width:1.0;stroke-dasharray:7.0,7.0;"/><polygon fill="#A80036" points="670.605,407.098,661.0588,409.5206,666.6758,410.1902,666.0063,415.8073,670.605,407.098" style="stroke:#A80036;stroke-width:1.0;"/><!--MD5=[ec7073da616e8e4af445466fbcd0dd68]
link usantatecla.mastermind.controllers.ControllersVisitor to usantatecla.mastermind.controllers.ResumeController--><path codeLine="16" d="M712.233,407.328 C714.701,435.199 720.786,471.715 727.703,500.489 " fill="none" id="usantatecla.mastermind.controllers.ControllersVisitor-to-usantatecla.mastermind.controllers.ResumeController" style="stroke:#A80036;stroke-width:1.0;stroke-dasharray:7.0,7.0;"/><polygon fill="#A80036" points="728.911,505.402,730.6457,495.7071,727.7168,500.5467,722.8772,497.6178,728.911,505.402" style="stroke:#A80036;stroke-width:1.0;"/><!--MD5=[5b5517e0bcba9fd2a01b3c4b592546c0]
link usantatecla.mastermind.controllers.ResumeController to usantatecla.mastermind.controllers.ControllersVisitor--><path codeLine="68" d="M751.431,505.402 C749.116,477.578 743.052,441.065 736.021,412.249 " fill="none" id="usantatecla.mastermind.controllers.ResumeController-to-usantatecla.mastermind.controllers.ControllersVisitor" style="stroke:#A80036;stroke-width:1.0;stroke-dasharray:7.0,7.0;"/><polygon fill="#A80036" points="734.792,407.328,733.0922,417.0291,736.0037,412.179,740.8538,415.0904,734.792,407.328" style="stroke:#A80036;stroke-width:1.0;"/><!--MD5=[b1534f62db7bd0c312bb47cb18cac355]
link usantatecla.mastermind.controllers.Controller to Game--><path codeLine="23" d="M654.7747,241.7837 C654.7747,241.7837 383.573,339.784 313,467 C272.682,539.677 258.671,591.105 313,654 C348.972,695.6439 504.55,676.9135 558,690 C559.737,690.4253 561.487,690.8693 563.246,691.33 " fill="none" id="usantatecla.mastermind.controllers.Controller-Game" style="stroke:#A80036;stroke-width:1.0;"/><polygon fill="#A80036" points="575.851,694.8537,568.2602,688.5783,571.0356,693.5075,566.1064,696.2829,575.851,694.8537" style="stroke:#A80036;stroke-width:1.0;"/><line style="stroke:#A80036;stroke-width:1.0;" x1="571.0356" x2="563.331" y1="693.5075" y2="691.3537"/><polygon fill="#A80036" points="666.313,238.487,659.445,236.2892,654.7747,241.7837,661.6427,243.9814,666.313,238.487" style="stroke:#A80036;stroke-width:1.0;"/><!--MD5=[e38476471b755b5fe78a9c6017ac6ee4]
link usantatecla.mastermind.controllers.Controller to State--><path codeLine="24" d="M846.4115,257.9434 C846.4115,257.9434 1041.94,366.899 1093,467 C1130.77,541.035 1125.62,577.558 1093,654 C1088.94,663.5171 1082.85,672.3512 1075.9,680.3025 " fill="none" id="usantatecla.mastermind.controllers.Controller-State" style="stroke:#A80036;stroke-width:1.0;"/><polygon fill="#A80036" points="1066.73,689.887,1075.844,686.1539,1070.1884,686.276,1070.0664,680.6205,1066.73,689.887" style="stroke:#A80036;stroke-width:1.0;"/><line style="stroke:#A80036;stroke-width:1.0;" x1="1070.1884" x2="1075.715" y1="686.276" y2="680.4956"/><polygon fill="#A80036" points="835.555,252.831,839.2791,259.006,846.4115,257.9434,842.6874,251.7684,835.555,252.831" style="stroke:#A80036;stroke-width:1.0;"/><!--MD5=[bcb04731f9fe2ebc3bb43e51b61da32e]
link usantatecla.mastermind.controllers.Controller to Combination--><path codeLine="25" d="M666.287,223.023 C579.84,230.898 445.337,253.942 351,321 C215.907,417.029 130.633,605.084 98.9511,685.2956 " fill="none" id="usantatecla.mastermind.controllers.Controller-to-Combination" style="stroke:#A80036;stroke-width:1.0;stroke-dasharray:7.0,7.0;"/><polygon fill="#A80036" points="97.1216,689.9592,104.1323,683.0419,98.9477,685.3046,96.685,680.12,97.1216,689.9592" style="stroke:#A80036;stroke-width:1.0;"/><!--MD5=[ce602df3a29483883a9e9ef4672793ad]
link usantatecla.mastermind.controllers.Controller to usantatecla.mastermind.controllers.ControllersVisitor--><path codeLine="26" d="M740.782,261.038 C736.614,278.187 731.775,298.096 727.485,315.746 " fill="none" id="usantatecla.mastermind.controllers.Controller-to-usantatecla.mastermind.controllers.ControllersVisitor" style="stroke:#A80036;stroke-width:1.0;stroke-dasharray:7.0,7.0;"/><polygon fill="#A80036" points="726.291,320.661,732.3021,312.8593,727.471,315.8022,724.5281,310.9712,726.291,320.661" style="stroke:#A80036;stroke-width:1.0;"/><!--MD5=[98406596dc34fe0c5d6413d1091d84c2]
link usantatecla.mastermind.controllers.Logic to usantatecla.mastermind.controllers.Controller--><path codeLine="32" d="M856.3131,123.2372 C856.3131,123.2372 823.709,152.266 808.269,166.012 " fill="none" id="usantatecla.mastermind.controllers.Logic-usantatecla.mastermind.controllers.Controller" style="stroke:#A80036;stroke-width:1.0;"/><polygon fill="#A80036" points="798.318,174.872,807.6999,171.8753,802.0525,171.5474,802.3804,165.9,798.318,174.872" style="stroke:#A80036;stroke-width:1.0;"/><line style="stroke:#A80036;stroke-width:1.0;" x1="802.0525" x2="808.0275" y1="171.5474" y2="166.2275"/><polygon fill="#A80036" points="865.276,115.258,858.1348,116.26,856.3131,123.2372,863.4543,122.2352,865.276,115.258" style="stroke:#A80036;stroke-width:1.0;"/><!--MD5=[0ff8f89650a05932e406ed8572c4f29f]
link usantatecla.mastermind.controllers.Logic to Game--><path codeLine="33" d="M809.0804,97.8165 C809.0804,97.8165 644.512,138.965 567,175 C399.141,253.037 316.381,287.793 270,467 C249.176,547.46 214.997,591.693 270,654 C312.685,702.3528 495.191,675.3372 558,690 C559.741,690.4065 561.496,690.8334 563.259,691.2782 " fill="none" id="usantatecla.mastermind.controllers.Logic-Game" style="stroke:#A80036;stroke-width:1.0;"/><polygon fill="#A80036" points="575.885,694.712,568.2501,688.4904,571.0602,693.3999,566.1507,696.2101,575.885,694.712" style="stroke:#A80036;stroke-width:1.0;"/><line style="stroke:#A80036;stroke-width:1.0;" x1="571.0602" x2="563.341" y1="693.3999" y2="691.3005"/><polygon fill="#A80036" points="820.799,95.233,814.0785,92.6185,809.0804,97.8165,815.8009,100.4309,820.799,95.233" style="stroke:#A80036;stroke-width:1.0;"/><!--MD5=[f1f29f0dfa0e00be085894473cdc58fa]
link usantatecla.mastermind.controllers.Logic to State--><path codeLine="34" d="M943.6308,124.4402 C943.6308,124.4402 1096.28,331.508 1133,467 C1154.74,547.217 1173.52,581.438 1133,654 C1126.93,664.8772 1118.35,674.2518 1108.63,682.2704 " fill="none" id="usantatecla.mastermind.controllers.Logic-State" style="stroke:#A80036;stroke-width:1.0;"/><polygon fill="#A80036" points="1098.13,690.1418,1107.7302,687.9426,1102.1303,687.1421,1102.9307,681.5422,1098.13,690.1418" style="stroke:#A80036;stroke-width:1.0;"/><line style="stroke:#A80036;stroke-width:1.0;" x1="1102.1303" x2="1108.53" y1="687.1421" y2="682.3441"/><polygon fill="#A80036" points="936.163,115.047,936.7659,122.2329,943.6308,124.4402,943.028,117.2543,936.163,115.047" style="stroke:#A80036;stroke-width:1.0;"/><!--MD5=[d4e971768f4879fedf61c3b3dae7f6ab]
link usantatecla.mastermind.controllers.Logic to StateValue--><path codeLine="35" d="M1002.7896,105.5187 C1002.7896,105.5187 1152.4,149.161 1226,175 C1230.77,176.676 1235.65,178.444 1240.55,180.268 " fill="none" id="usantatecla.mastermind.controllers.Logic-StateValue" style="stroke:#A80036;stroke-width:1.0;"/><polygon fill="#A80036" points="1252.78,184.899,1245.778,177.9728,1248.1036,183.1295,1242.9469,185.4551,1252.78,184.899" style="stroke:#A80036;stroke-width:1.0;"/><line style="stroke:#A80036;stroke-width:1.0;" x1="1248.1036" x2="1240.62" y1="183.1295" y2="180.294"/><polygon fill="#A80036" points="991.242,102.255,995.9279,107.7361,1002.7896,105.5187,998.1037,100.0376,991.242,102.255" style="stroke:#A80036;stroke-width:1.0;"/><!--MD5=[07f4f2174253deef40735c6f426cde58]
link usantatecla.mastermind.controllers.Logic to usantatecla.mastermind.controllers.ResumeController--><path codeLine="36" d="M900.463,115.418 C890.368,177.021 866.22,305.038 826,407 C813.09,439.729 793.806,474.198 777.522,500.805 " fill="none" id="usantatecla.mastermind.controllers.Logic-to-usantatecla.mastermind.controllers.ResumeController" style="stroke:#A80036;stroke-width:1.0;stroke-dasharray:7.0,7.0;"/><polygon fill="#A80036" points="774.728,505.342,782.8531,499.7757,777.3497,501.0844,776.041,495.5811,774.728,505.342" style="stroke:#A80036;stroke-width:1.0;"/><!--MD5=[7b4d3b9373751c5d43acf45bd3655ae0]
link usantatecla.mastermind.controllers.Logic to usantatecla.mastermind.controllers.StartController--><path codeLine="37" d="M911.823,115.373 C925.267,199.352 958.462,406.711 973.446,500.312 " fill="none" id="usantatecla.mastermind.controllers.Logic-to-usantatecla.mastermind.controllers.StartController" style="stroke:#A80036;stroke-width:1.0;stroke-dasharray:7.0,7.0;"/><polygon fill="#A80036" points="974.276,505.497,976.8037,495.978,973.486,500.5598,968.9042,497.2421,974.276,505.497" style="stroke:#A80036;stroke-width:1.0;"/><!--MD5=[088f8298878c55cb33bba93d6bb32650]
link usantatecla.mastermind.controllers.Logic to usantatecla.mastermind.controllers.PlayController--><path codeLine="38" d="M820.902,96.992 C767.499,111.437 699.45,135.907 649,175 C557.291,246.064 509.65,375.756 486.978,461.795 " fill="none" id="usantatecla.mastermind.controllers.Logic-to-usantatecla.mastermind.controllers.PlayController" style="stroke:#A80036;stroke-width:1.0;stroke-dasharray:7.0,7.0;"/><polygon fill="#A80036" points="485.653,466.884,491.7919,459.1825,486.913,462.0454,484.0501,457.1664,485.653,466.884" style="stroke:#A80036;stroke-width:1.0;"/><!--MD5=[355b9902740da4b2ec85e8089918fd93]
reverse link usantatecla.mastermind.controllers.Controller to usantatecla.mastermind.controllers.PlayController--><path codeLine="51" d="M672.018,273.253 C653.605,287.685 634.785,304.02 619,321 C578.057,365.044 540.69,421.399 513.492,466.878 " fill="none" id="usantatecla.mastermind.controllers.Controller-backto-usantatecla.mastermind.controllers.PlayController" style="stroke:#A80036;stroke-width:1.0;"/><polygon fill="none" points="667.852,267.627,688.009,261.091,676.327,278.77,667.852,267.627" style="stroke:#A80036;stroke-width:1.0;"/><!--MD5=[765bda7c14cd5ed1cc66a669d2aefa21]
link usantatecla.mastermind.controllers.PlayController to Combination--><path codeLine="52" d="M330.367,612.137 C273.968,637.62 210.895,666.1177 162.821,687.8387 " fill="none" id="usantatecla.mastermind.controllers.PlayController-to-Combination" style="stroke:#A80036;stroke-width:1.0;stroke-dasharray:7.0,7.0;"/><polygon fill="#A80036" points="158.216,689.9192,168.0647,689.8589,162.7725,687.8606,164.7709,682.5684,158.216,689.9192" style="stroke:#A80036;stroke-width:1.0;"/><!--MD5=[3031187462b747cbd09689bb5fb1dcf3]
link usantatecla.mastermind.controllers.PlayController to Game--><path codeLine="53" d="M554.536,630.155 C575.301,649.735 596.508,669.7319 613.897,686.1282 " fill="none" id="usantatecla.mastermind.controllers.PlayController-to-Game" style="stroke:#A80036;stroke-width:1.0;stroke-dasharray:7.0,7.0;"/><polygon fill="#A80036" points="617.775,689.7848,613.9708,680.7003,614.1371,686.3547,608.4827,686.521,617.775,689.7848" style="stroke:#A80036;stroke-width:1.0;"/><!--MD5=[ec680f51ba52a3c26de014fa2ed0d831]
link usantatecla.mastermind.controllers.PlayController to State--><path codeLine="54" d="M575.397,630.088 C591.397,639.4 608.187,647.774 625,654 C751.348,700.7841 794.716,659.7197 926,690 C930.219,690.973 934.511,692.0672 938.824,693.2499 " fill="none" id="usantatecla.mastermind.controllers.PlayController-to-State" style="stroke:#A80036;stroke-width:1.0;stroke-dasharray:7.0,7.0;"/><polygon fill="#A80036" points="943.893,694.6769,936.3147,688.3865,939.0803,693.3212,934.1456,696.0869,943.893,694.6769" style="stroke:#A80036;stroke-width:1.0;"/><!--MD5=[87e0934b81fc2a23f4913978547fcb00]
link usantatecla.mastermind.controllers.PlayController to ProposedCombination--><path codeLine="55" d="M381.14,630.155 C359.81,649.735 338.027,669.7319 320.166,686.1282 " fill="none" id="usantatecla.mastermind.controllers.PlayController-to-ProposedCombination" style="stroke:#A80036;stroke-width:1.0;stroke-dasharray:7.0,7.0;"/><polygon fill="#A80036" points="316.183,689.7848,325.518,686.6451,319.8663,686.4035,320.1079,680.7518,316.183,689.7848" style="stroke:#A80036;stroke-width:1.0;"/><!--MD5=[aec0234761dc3837780669c056a8373c]
link usantatecla.mastermind.controllers.PlayController to Error--><path codeLine="56" d="M469,630.155 C469,649.077 469,668.3881 469,684.4627 " fill="none" id="usantatecla.mastermind.controllers.PlayController-to-Error" style="stroke:#A80036;stroke-width:1.0;stroke-dasharray:7.0,7.0;"/><polygon fill="#A80036" points="469,689.7848,473,680.7848,469,684.7848,465,680.7848,469,689.7848" style="stroke:#A80036;stroke-width:1.0;"/><!--MD5=[69852a3216d5517651367a7065e7f1c9]
link usantatecla.mastermind.controllers.PlayController to Color--><path codeLine="57" d="M580.806,630.153 C595.3,638.874 610.243,647.079 625,654 C676.183,678.0072 693.322,672.2598 747,690 C751.41,691.4574 755.927,692.9891 760.477,694.5617 " fill="none" id="usantatecla.mastermind.controllers.PlayController-to-Color" style="stroke:#A80036;stroke-width:1.0;stroke-dasharray:7.0,7.0;"/><polygon fill="#A80036" points="765.423,696.2827,758.237,689.5476,760.7006,694.6398,755.6084,697.1034,765.423,696.2827" style="stroke:#A80036;stroke-width:1.0;"/><!--MD5=[933c3a87fb1e2f64e4c2436935a9c1c3]
reverse link usantatecla.mastermind.controllers.Controller to usantatecla.mastermind.controllers.ResumeController--><path codeLine="65" d="M794.535,278.585 C802.149,291.929 808.927,306.458 813,321 C823.309,357.806 821.325,369.696 813,407 C805.222,441.851 787.815,478.264 772.83,505.286 " fill="none" id="usantatecla.mastermind.controllers.Controller-backto-usantatecla.mastermind.controllers.ResumeController" style="stroke:#A80036;stroke-width:1.0;"/><polygon fill="none" points="788.371,281.926,783.812,261.233,800.28,274.566,788.371,281.926" style="stroke:#A80036;stroke-width:1.0;"/><!--MD5=[5463db7e495f29b5e5c71a16eed29f43]
link usantatecla.mastermind.controllers.ResumeController to Game--><path codeLine="66" d="M724.005,591.943 C708.54,620.488 688.334,657.783 673.433,685.2855 " fill="none" id="usantatecla.mastermind.controllers.ResumeController-to-Game" style="stroke:#A80036;stroke-width:1.0;stroke-dasharray:7.0,7.0;"/><polygon fill="#A80036" points="670.902,689.9568,678.7066,683.9495,673.2841,685.5607,671.6728,680.1382,670.902,689.9568" style="stroke:#A80036;stroke-width:1.0;"/><!--MD5=[a3d4593b829ad58c8f522129e7a78997]
link usantatecla.mastermind.controllers.ResumeController to State--><path codeLine="67" d="M790.094,591.675 C812.442,612.135 840.892,636.094 869,654 C890.769,667.8677 915.788,680.4376 939.162,690.9343 " fill="none" id="usantatecla.mastermind.controllers.ResumeController-to-State" style="stroke:#A80036;stroke-width:1.0;stroke-dasharray:7.0,7.0;"/><polygon fill="#A80036" points="943.813,693.0058,937.2189,685.6902,939.2455,690.9716,933.9641,692.9981,943.813,693.0058" style="stroke:#A80036;stroke-width:1.0;"/><!--MD5=[c885998b8df824bd1b8bf3ae6c5e9a62]
reverse link usantatecla.mastermind.controllers.Controller to usantatecla.mastermind.controllers.StartController--><path codeLine="75" d="M794.886,277.973 C805.185,292.009 816.053,306.981 826,321 C871.218,384.732 922.113,459.763 952.853,505.461 " fill="none" id="usantatecla.mastermind.controllers.Controller-backto-usantatecla.mastermind.controllers.StartController" style="stroke:#A80036;stroke-width:1.0;"/><polygon fill="none" points="788.936,281.699,782.706,261.446,800.206,273.393,788.936,281.699" style="stroke:#A80036;stroke-width:1.0;"/><!--MD5=[70753de5d77fa864ad706701913b855c]
link usantatecla.mastermind.controllers.StartController to Game--><path codeLine="76" d="M944.707,591.65 C924.351,612.989 897.387,637.748 869,654 C820.308,681.8775 801.403,672.7902 748,690 C743.729,691.3765 739.357,692.8093 734.949,694.2731 " fill="none" id="usantatecla.mastermind.controllers.StartController-to-Game" style="stroke:#A80036;stroke-width:1.0;stroke-dasharray:7.0,7.0;"/><polygon fill="#A80036" points="730.154,695.8726,739.9571,696.8206,734.8973,694.2911,737.4268,689.2313,730.154,695.8726" style="stroke:#A80036;stroke-width:1.0;"/><!--MD5=[51fde01f54ec802bc6f8a9b5df200d4d]
link usantatecla.mastermind.controllers.StartController to State--><path codeLine="77" d="M990.785,591.943 C997.339,620.37 1005.893,657.474 1012.23,684.944 " fill="none" id="usantatecla.mastermind.controllers.StartController-to-State" style="stroke:#A80036;stroke-width:1.0;stroke-dasharray:7.0,7.0;"/><polygon fill="#A80036" points="1013.38,689.9568,1015.2552,680.2881,1012.2564,685.0847,1007.4598,682.0859,1013.38,689.9568" style="stroke:#A80036;stroke-width:1.0;"/><!--MD5=[c843f982c17f09ed6397ba318df6e78e]
@startuml
abstract class Combination as "usantatecla.\nmastermind.models.\nCombination"
class Game as "usantatecla.\nmastermind.models.\nGame"
class State as "usantatecla.\nmastermind.models.\nState"
class ProposedCombination as "usantatecla.\nmastermind.models.\nProposedCombination"
enum StateValue as "usantatecla.\nmastermind.models.\nStateValue"
enum Error as "usantatecla.\nmastermind.types.\nError"
enum Color as "usantatecla.\nmastermind.types.\nColor"

interface usantatecla.mastermind.controllers.ControllersVisitor {
    ~ visit(StartController)
    ~ visit(ProposalController)
    ~ visit(ResumeController)
}
usantatecla.mastermind.controllers.ControllersVisitor .down.> usantatecla.mastermind.controllers.StartController
usantatecla.mastermind.controllers.ControllersVisitor .down.> usantatecla.mastermind.controllers.PlayController
usantatecla.mastermind.controllers.ControllersVisitor .down.> usantatecla.mastermind.controllers.ResumeController

abstract class  usantatecla.mastermind.controllers.Controller{
    ~ Controller(Game, State)
    + getWidth(): int
    + {abstract} accept(ControllersVisitor)
}
usantatecla.mastermind.controllers.Controller *-down-> Game
usantatecla.mastermind.controllers.Controller *-down-> State
usantatecla.mastermind.controllers.Controller .down.> Combination
usantatecla.mastermind.controllers.Controller .down.> usantatecla.mastermind.controllers.ControllersVisitor

class  usantatecla.mastermind.controllers.Logic{
    + Logic()
    + getController(): Controller
}
usantatecla.mastermind.controllers.Logic *-down-> usantatecla.mastermind.controllers.Controller
usantatecla.mastermind.controllers.Logic *-down-> Game
usantatecla.mastermind.controllers.Logic *-down-> State
usantatecla.mastermind.controllers.Logic *-down-> StateValue
usantatecla.mastermind.controllers.Logic .down.> usantatecla.mastermind.controllers.ResumeController
usantatecla.mastermind.controllers.Logic .down.> usantatecla.mastermind.controllers.StartController
usantatecla.mastermind.controllers.Logic .down.> usantatecla.mastermind.controllers.PlayController

class  usantatecla.mastermind.controllers.PlayController{
    + ProposalController(Game, State)
    + addProposedCombination(List<Color>): Error
    + isWinner(): boolean
    + isLooser(): boolean
    + getAttempts(): int
    + getColors(int): List<Color>
    + getBlacks(int): int
    + getWhites(int): int
    + accept(ControllersVisitor)
}
usantatecla.mastermind.controllers.Controller <|-down- usantatecla.mastermind.controllers.PlayController
usantatecla.mastermind.controllers.PlayController .down.> Combination
usantatecla.mastermind.controllers.PlayController .down.> Game
usantatecla.mastermind.controllers.PlayController .down.> State
usantatecla.mastermind.controllers.PlayController .down.> ProposedCombination
usantatecla.mastermind.controllers.PlayController .down.> Error
usantatecla.mastermind.controllers.PlayController .down.> Color
usantatecla.mastermind.controllers.PlayController .down.> usantatecla.mastermind.controllers.ControllersVisitor

class  usantatecla.mastermind.controllers.ResumeController{
    + ResumeController(Game, State)
    + resume(boolean)
    + accept(ControllersVisitor)
}
usantatecla.mastermind.controllers.Controller <|-down- usantatecla.mastermind.controllers.ResumeController
usantatecla.mastermind.controllers.ResumeController .down.> Game
usantatecla.mastermind.controllers.ResumeController .down.> State
usantatecla.mastermind.controllers.ResumeController .down.> usantatecla.mastermind.controllers.ControllersVisitor

class  usantatecla.mastermind.controllers.StartController{
    + StartController(Game, State)
    + start()
    + accept(ControllersVisitor)
}
usantatecla.mastermind.controllers.Controller <|-down- usantatecla.mastermind.controllers.StartController
usantatecla.mastermind.controllers.StartController .down.> Game
usantatecla.mastermind.controllers.StartController .down.> State
usantatecla.mastermind.controllers.StartController .down.> usantatecla.mastermind.controllers.ControllersVisitor
@enduml

PlantUML version 1.2020.23beta3(Unknown compile time)
(GPL source distribution)
Java Runtime: Java(TM) SE Runtime Environment
JVM: Java HotSpot(TM) 64-Bit Server VM
Default Encoding: UTF-8
Language: en
Country: US
--></g></svg>