<?xml version="1.0" encoding="UTF-8" standalone="no"?><svg xmlns="http://www.w3.org/2000/svg" xmlns:xlink="http://www.w3.org/1999/xlink" contentScriptType="application/ecmascript" contentStyleType="text/css" height="268px" preserveAspectRatio="none" style="width:622px;height:268px;" version="1.1" viewBox="0 0 622 268" width="622px" zoomAndPan="magnify"><defs><filter height="300%" id="f1gb6dr70eye8" width="300%" x="-1" y="-1"><feGaussianBlur result="blurOut" stdDeviation="2.0"/><feColorMatrix in="blurOut" result="blurOut2" type="matrix" values="0 0 0 0 0 0 0 0 0 0 0 0 0 0 0 0 0 0 .4 0"/><feOffset dx="4.0" dy="4.0" in="blurOut2" result="blurOut3"/><feBlend in="SourceGraphic" in2="blurOut3" mode="normal"/></filter></defs><g><!--MD5=[9be0839337cfdab5d118a2e29cf0a8c4]
cluster usantatecla.mastermind--><polygon fill="#FFFFFF" filter="url(#f1gb6dr70eye8)" points="121.5,6,328.5,6,335.5,28.2969,495.5,28.2969,495.5,143,121.5,143,121.5,6" style="stroke:#000000;stroke-width:1.5;"/><line style="stroke:#000000;stroke-width:1.5;" x1="121.5" x2="335.5" y1="28.2969" y2="28.2969"/><text fill="#000000" font-family="sans-serif" font-size="14" font-weight="bold" lengthAdjust="spacingAndGlyphs" textLength="201" x="125.5" y="20.9951">usantatecla.mastermind</text><!--MD5=[315b8ca9da34f9ebf61c511bec4164b0]
class usantatecla.mastermind.ConsoleMastermind--><rect codeLine="1" fill="#FEFECE" filter="url(#f1gb6dr70eye8)" height="86.4141" id="usantatecla.mastermind.ConsoleMastermind" style="stroke:#A80036;stroke-width:1.5;" width="151" x="138" y="41"/><ellipse cx="153" cy="57" fill="#ADD1B2" rx="11" ry="11" style="stroke:#A80036;stroke-width:1.0;"/><path d="M155.3438,52.6719 C154.4063,52.2344 153.8125,52.0938 152.9375,52.0938 C150.3125,52.0938 148.3125,54.1719 148.3125,56.8906 L148.3125,58.0156 C148.3125,60.5938 150.4219,62.4844 153.3125,62.4844 C154.5313,62.4844 155.6875,62.1875 156.4375,61.6406 C157.0156,61.2344 157.3438,60.7813 157.3438,60.3906 C157.3438,59.9375 156.9531,59.5469 156.4844,59.5469 C156.2656,59.5469 156.0625,59.625 155.875,59.8125 C155.4219,60.2969 155.4219,60.2969 155.2344,60.3906 C154.8125,60.6563 154.125,60.7813 153.3594,60.7813 C151.3125,60.7813 150.0156,59.6875 150.0156,57.9844 L150.0156,56.8906 C150.0156,55.1094 151.2656,53.7969 153,53.7969 C153.5781,53.7969 154.1875,53.9531 154.6563,54.2031 C155.1406,54.4844 155.3125,54.7031 155.4063,55.1094 C155.4688,55.5156 155.5,55.6406 155.6406,55.7656 C155.7813,55.9063 156.0156,56.0156 156.2344,56.0156 C156.5,56.0156 156.7656,55.875 156.9375,55.6563 C157.0469,55.5 157.0781,55.3125 157.0781,54.8906 L157.0781,53.4688 C157.0781,53.0313 157.0625,52.9063 156.9688,52.75 C156.8125,52.4844 156.5313,52.3438 156.2344,52.3438 C155.9375,52.3438 155.7344,52.4375 155.5156,52.75 L155.3438,52.6719 Z " fill="#000000"/><text fill="#000000" font-family="sans-serif" font-size="12" lengthAdjust="spacingAndGlyphs" textLength="119" x="167" y="61.1543">ConsoleMastermind</text><line style="stroke:#A80036;stroke-width:1.5;" x1="139" x2="288" y1="73" y2="73"/><line style="stroke:#A80036;stroke-width:1.5;" x1="139" x2="288" y1="81" y2="81"/><rect fill="#F24D5C" height="6" style="stroke:#C82930;stroke-width:1.0;" width="6" x="146" y="89"/><text fill="#000000" font-family="sans-serif" font-size="11" lengthAdjust="spacingAndGlyphs" textLength="120" x="158" y="95.2104">ConsoleMastermind()</text><ellipse cx="149" cy="104.8047" fill="#84BE84" rx="3" ry="3" style="stroke:#038048;stroke-width:1.0;"/><text fill="#000000" font-family="sans-serif" font-size="11" lengthAdjust="spacingAndGlyphs" text-decoration="underline" textLength="77" x="158" y="108.0151">main(String[])</text><rect fill="#F24D5C" height="6" style="stroke:#C82930;stroke-width:1.0;" width="6" x="146" y="114.6094"/><text fill="#000000" font-family="sans-serif" font-size="11" lengthAdjust="spacingAndGlyphs" textLength="32" x="158" y="120.8198">play()</text><!--MD5=[e3ccb0142e457ddb33bd230b9167ec6f]
class usantatecla.mastermind.GraphicsMastermind--><rect codeLine="7" fill="#FEFECE" filter="url(#f1gb6dr70eye8)" height="86.4141" id="usantatecla.mastermind.GraphicsMastermind" style="stroke:#A80036;stroke-width:1.5;" width="155" x="324" y="41"/><ellipse cx="339" cy="57" fill="#ADD1B2" rx="11" ry="11" style="stroke:#A80036;stroke-width:1.0;"/><path d="M341.3438,52.6719 C340.4063,52.2344 339.8125,52.0938 338.9375,52.0938 C336.3125,52.0938 334.3125,54.1719 334.3125,56.8906 L334.3125,58.0156 C334.3125,60.5938 336.4219,62.4844 339.3125,62.4844 C340.5313,62.4844 341.6875,62.1875 342.4375,61.6406 C343.0156,61.2344 343.3438,60.7813 343.3438,60.3906 C343.3438,59.9375 342.9531,59.5469 342.4844,59.5469 C342.2656,59.5469 342.0625,59.625 341.875,59.8125 C341.4219,60.2969 341.4219,60.2969 341.2344,60.3906 C340.8125,60.6563 340.125,60.7813 339.3594,60.7813 C337.3125,60.7813 336.0156,59.6875 336.0156,57.9844 L336.0156,56.8906 C336.0156,55.1094 337.2656,53.7969 339,53.7969 C339.5781,53.7969 340.1875,53.9531 340.6563,54.2031 C341.1406,54.4844 341.3125,54.7031 341.4063,55.1094 C341.4688,55.5156 341.5,55.6406 341.6406,55.7656 C341.7813,55.9063 342.0156,56.0156 342.2344,56.0156 C342.5,56.0156 342.7656,55.875 342.9375,55.6563 C343.0469,55.5 343.0781,55.3125 343.0781,54.8906 L343.0781,53.4688 C343.0781,53.0313 343.0625,52.9063 342.9688,52.75 C342.8125,52.4844 342.5313,52.3438 342.2344,52.3438 C341.9375,52.3438 341.7344,52.4375 341.5156,52.75 L341.3438,52.6719 Z " fill="#000000"/><text fill="#000000" font-family="sans-serif" font-size="12" lengthAdjust="spacingAndGlyphs" textLength="123" x="353" y="61.1543">GraphicsMastermind</text><line style="stroke:#A80036;stroke-width:1.5;" x1="325" x2="478" y1="73" y2="73"/><line style="stroke:#A80036;stroke-width:1.5;" x1="325" x2="478" y1="81" y2="81"/><rect fill="#F24D5C" height="6" style="stroke:#C82930;stroke-width:1.0;" width="6" x="332" y="89"/><text fill="#000000" font-family="sans-serif" font-size="11" lengthAdjust="spacingAndGlyphs" textLength="123" x="344" y="95.2104">GraphicsMastermind()</text><ellipse cx="335" cy="104.8047" fill="#84BE84" rx="3" ry="3" style="stroke:#038048;stroke-width:1.0;"/><text fill="#000000" font-family="sans-serif" font-size="11" lengthAdjust="spacingAndGlyphs" text-decoration="underline" textLength="77" x="344" y="108.0151">main(String[])</text><rect fill="#F24D5C" height="6" style="stroke:#C82930;stroke-width:1.0;" width="6" x="332" y="114.6094"/><text fill="#000000" font-family="sans-serif" font-size="11" lengthAdjust="spacingAndGlyphs" textLength="32" x="344" y="120.8198">play()</text><!--MD5=[51d729737bd84a4c43136dd336c2eea1]
class ConsoleView--><rect codeLine="13" fill="#FEFECE" filter="url(#f1gb6dr70eye8)" height="67.9063" id="ConsoleView" style="stroke:#A80036;stroke-width:1.5;" width="177" x="7" y="187"/><ellipse cx="22" cy="212.9531" fill="#ADD1B2" rx="11" ry="11" style="stroke:#A80036;stroke-width:1.0;"/><path d="M24.3438,208.625 C23.4063,208.1875 22.8125,208.0469 21.9375,208.0469 C19.3125,208.0469 17.3125,210.125 17.3125,212.8438 L17.3125,213.9688 C17.3125,216.5469 19.4219,218.4375 22.3125,218.4375 C23.5313,218.4375 24.6875,218.1406 25.4375,217.5938 C26.0156,217.1875 26.3438,216.7344 26.3438,216.3438 C26.3438,215.8906 25.9531,215.5 25.4844,215.5 C25.2656,215.5 25.0625,215.5781 24.875,215.7656 C24.4219,216.25 24.4219,216.25 24.2344,216.3438 C23.8125,216.6094 23.125,216.7344 22.3594,216.7344 C20.3125,216.7344 19.0156,215.6406 19.0156,213.9375 L19.0156,212.8438 C19.0156,211.0625 20.2656,209.75 22,209.75 C22.5781,209.75 23.1875,209.9063 23.6563,210.1563 C24.1406,210.4375 24.3125,210.6563 24.4063,211.0625 C24.4688,211.4688 24.5,211.5938 24.6406,211.7188 C24.7813,211.8594 25.0156,211.9688 25.2344,211.9688 C25.5,211.9688 25.7656,211.8281 25.9375,211.6094 C26.0469,211.4531 26.0781,211.2656 26.0781,210.8438 L26.0781,209.4219 C26.0781,208.9844 26.0625,208.8594 25.9688,208.7031 C25.8125,208.4375 25.5313,208.2969 25.2344,208.2969 C24.9375,208.2969 24.7344,208.3906 24.5156,208.7031 L24.3438,208.625 Z " fill="#000000"/><text fill="#000000" font-family="sans-serif" font-size="12" lengthAdjust="spacingAndGlyphs" textLength="145" x="36" y="203.1387">usantatecla.mastermind.</text><text fill="#000000" font-family="sans-serif" font-size="12" lengthAdjust="spacingAndGlyphs" textLength="89" x="64" y="217.1074">views.console.</text><text fill="#000000" font-family="sans-serif" font-size="12" lengthAdjust="spacingAndGlyphs" textLength="78" x="69.5" y="231.0762">ConsoleView</text><line style="stroke:#A80036;stroke-width:1.5;" x1="8" x2="183" y1="238.9063" y2="238.9063"/><line style="stroke:#A80036;stroke-width:1.5;" x1="8" x2="183" y1="246.9063" y2="246.9063"/><!--MD5=[10250df365dc999637be629d910c1f35]
class GraphicsView--><rect codeLine="14" fill="#FEFECE" filter="url(#f1gb6dr70eye8)" height="67.9063" id="GraphicsView" style="stroke:#A80036;stroke-width:1.5;" width="177" x="431" y="187"/><ellipse cx="446" cy="212.9531" fill="#ADD1B2" rx="11" ry="11" style="stroke:#A80036;stroke-width:1.0;"/><path d="M448.3438,208.625 C447.4063,208.1875 446.8125,208.0469 445.9375,208.0469 C443.3125,208.0469 441.3125,210.125 441.3125,212.8438 L441.3125,213.9688 C441.3125,216.5469 443.4219,218.4375 446.3125,218.4375 C447.5313,218.4375 448.6875,218.1406 449.4375,217.5938 C450.0156,217.1875 450.3438,216.7344 450.3438,216.3438 C450.3438,215.8906 449.9531,215.5 449.4844,215.5 C449.2656,215.5 449.0625,215.5781 448.875,215.7656 C448.4219,216.25 448.4219,216.25 448.2344,216.3438 C447.8125,216.6094 447.125,216.7344 446.3594,216.7344 C444.3125,216.7344 443.0156,215.6406 443.0156,213.9375 L443.0156,212.8438 C443.0156,211.0625 444.2656,209.75 446,209.75 C446.5781,209.75 447.1875,209.9063 447.6563,210.1563 C448.1406,210.4375 448.3125,210.6563 448.4063,211.0625 C448.4688,211.4688 448.5,211.5938 448.6406,211.7188 C448.7813,211.8594 449.0156,211.9688 449.2344,211.9688 C449.5,211.9688 449.7656,211.8281 449.9375,211.6094 C450.0469,211.4531 450.0781,211.2656 450.0781,210.8438 L450.0781,209.4219 C450.0781,208.9844 450.0625,208.8594 449.9688,208.7031 C449.8125,208.4375 449.5313,208.2969 449.2344,208.2969 C448.9375,208.2969 448.7344,208.3906 448.5156,208.7031 L448.3438,208.625 Z " fill="#000000"/><text fill="#000000" font-family="sans-serif" font-size="12" lengthAdjust="spacingAndGlyphs" textLength="145" x="460" y="203.1387">usantatecla.mastermind.</text><text fill="#000000" font-family="sans-serif" font-size="12" lengthAdjust="spacingAndGlyphs" textLength="93" x="486" y="217.1074">views.graphics.</text><text fill="#000000" font-family="sans-serif" font-size="12" lengthAdjust="spacingAndGlyphs" textLength="82" x="491.5" y="231.0762">GraphicsView</text><line style="stroke:#A80036;stroke-width:1.5;" x1="432" x2="607" y1="238.9063" y2="238.9063"/><line style="stroke:#A80036;stroke-width:1.5;" x1="432" x2="607" y1="246.9063" y2="246.9063"/><!--MD5=[b6dcce5e5ef3c84b0b048d11301373dd]
class Game--><rect codeLine="15" fill="#FEFECE" filter="url(#f1gb6dr70eye8)" height="67.9063" id="Game" style="stroke:#A80036;stroke-width:1.5;" width="177" x="219" y="187"/><ellipse cx="234" cy="212.9531" fill="#ADD1B2" rx="11" ry="11" style="stroke:#A80036;stroke-width:1.0;"/><path d="M236.3438,208.625 C235.4063,208.1875 234.8125,208.0469 233.9375,208.0469 C231.3125,208.0469 229.3125,210.125 229.3125,212.8438 L229.3125,213.9688 C229.3125,216.5469 231.4219,218.4375 234.3125,218.4375 C235.5313,218.4375 236.6875,218.1406 237.4375,217.5938 C238.0156,217.1875 238.3438,216.7344 238.3438,216.3438 C238.3438,215.8906 237.9531,215.5 237.4844,215.5 C237.2656,215.5 237.0625,215.5781 236.875,215.7656 C236.4219,216.25 236.4219,216.25 236.2344,216.3438 C235.8125,216.6094 235.125,216.7344 234.3594,216.7344 C232.3125,216.7344 231.0156,215.6406 231.0156,213.9375 L231.0156,212.8438 C231.0156,211.0625 232.2656,209.75 234,209.75 C234.5781,209.75 235.1875,209.9063 235.6563,210.1563 C236.1406,210.4375 236.3125,210.6563 236.4063,211.0625 C236.4688,211.4688 236.5,211.5938 236.6406,211.7188 C236.7813,211.8594 237.0156,211.9688 237.2344,211.9688 C237.5,211.9688 237.7656,211.8281 237.9375,211.6094 C238.0469,211.4531 238.0781,211.2656 238.0781,210.8438 L238.0781,209.4219 C238.0781,208.9844 238.0625,208.8594 237.9688,208.7031 C237.8125,208.4375 237.5313,208.2969 237.2344,208.2969 C236.9375,208.2969 236.7344,208.3906 236.5156,208.7031 L236.3438,208.625 Z " fill="#000000"/><text fill="#000000" font-family="sans-serif" font-size="12" lengthAdjust="spacingAndGlyphs" textLength="145" x="248" y="203.1387">usantatecla.mastermind.</text><text fill="#000000" font-family="sans-serif" font-size="12" lengthAdjust="spacingAndGlyphs" textLength="48" x="296.5" y="217.1074">models.</text><text fill="#000000" font-family="sans-serif" font-size="12" lengthAdjust="spacingAndGlyphs" textLength="35" x="303" y="231.0762">Game</text><line style="stroke:#A80036;stroke-width:1.5;" x1="220" x2="395" y1="238.9063" y2="238.9063"/><line style="stroke:#A80036;stroke-width:1.5;" x1="220" x2="395" y1="246.9063" y2="246.9063"/><!--MD5=[86660d01f18f2f4aaa6ae1176c50cf28]
link usantatecla.mastermind.ConsoleMastermind to ConsoleView--><path codeLine="16" d="M168.5901,136.3786 C168.5901,136.3786 144.287,164.1844 133.382,176.6604 " fill="none" id="usantatecla.mastermind.ConsoleMastermind-ConsoleView" style="stroke:#A80036;stroke-width:1.0;"/><polygon fill="#A80036" points="124.522,186.797,133.4569,182.6535,127.8127,183.0325,127.4337,177.3884,124.522,186.797" style="stroke:#A80036;stroke-width:1.0;"/><line style="stroke:#A80036;stroke-width:1.0;" x1="127.8127" x2="133.0775" y1="183.0325" y2="177.009"/><polygon fill="#A80036" points="176.488,127.344,169.5275,129.2287,168.5901,136.3786,175.5506,134.4939,176.488,127.344" style="stroke:#A80036;stroke-width:1.0;"/><!--MD5=[691abe244985a18320bde7682afcac44]
link usantatecla.mastermind.ConsoleMastermind to Game--><path codeLine="17" d="M242.984,127.344 C255.294,145.023 269.474,165.3884 281.4,182.5159 " fill="none" id="usantatecla.mastermind.ConsoleMastermind-to-Game" style="stroke:#A80036;stroke-width:1.0;stroke-dasharray:7.0,7.0;"/><polygon fill="#A80036" points="284.381,186.797,282.5203,177.1255,281.5237,182.6939,275.9553,181.6972,284.381,186.797" style="stroke:#A80036;stroke-width:1.0;"/><!--MD5=[0a501c15156d4559f00f932bd01623b3]
link usantatecla.mastermind.GraphicsMastermind to GraphicsView--><path codeLine="18" d="M446.4099,136.3786 C446.4099,136.3786 470.713,164.1844 481.618,176.6604 " fill="none" id="usantatecla.mastermind.GraphicsMastermind-GraphicsView" style="stroke:#A80036;stroke-width:1.0;"/><polygon fill="#A80036" points="490.478,186.797,487.5663,177.3884,487.1873,183.0325,481.5431,182.6535,490.478,186.797" style="stroke:#A80036;stroke-width:1.0;"/><line style="stroke:#A80036;stroke-width:1.0;" x1="487.1873" x2="481.9225" y1="183.0325" y2="177.009"/><polygon fill="#A80036" points="438.512,127.344,439.4494,134.4939,446.4099,136.3786,445.4725,129.2287,438.512,127.344" style="stroke:#A80036;stroke-width:1.0;"/><!--MD5=[4ee85ce9374a43648197be627c3539b8]
link usantatecla.mastermind.GraphicsMastermind to Game--><path codeLine="19" d="M372.016,127.344 C359.706,145.023 345.526,165.3884 333.6,182.5159 " fill="none" id="usantatecla.mastermind.GraphicsMastermind-to-Game" style="stroke:#A80036;stroke-width:1.0;stroke-dasharray:7.0,7.0;"/><polygon fill="#A80036" points="330.619,186.797,339.0447,181.6972,333.4763,182.6939,332.4797,177.1255,330.619,186.797" style="stroke:#A80036;stroke-width:1.0;"/><!--MD5=[14d627c2e2be68a2e6c2103c28ff8dc1]
@startuml
class usantatecla.mastermind.ConsoleMastermind{
    - ConsoleMastermind()
    + {static} main(String[])
    - play()
}

class usantatecla.mastermind.GraphicsMastermind{
    - GraphicsMastermind()
    + {static} main(String[])
    - play()
}

class ConsoleView as "usantatecla.mastermind.\nviews.console.\nConsoleView"{}
class GraphicsView as "usantatecla.mastermind.\nviews.graphics.\nGraphicsView"{}
class Game as "usantatecla.mastermind.\nmodels.\nGame"{}
usantatecla.mastermind.ConsoleMastermind *-down-> ConsoleView
usantatecla.mastermind.ConsoleMastermind .down.> Game
usantatecla.mastermind.GraphicsMastermind *-down-> GraphicsView
usantatecla.mastermind.GraphicsMastermind .down.> Game
@enduml

PlantUML version 1.2020.23beta3(Unknown compile time)
(GPL source distribution)
Java Runtime: Java(TM) SE Runtime Environment
JVM: Java HotSpot(TM) 64-Bit Server VM
Default Encoding: UTF-8
Language: en
Country: US
--></g></svg>