<?xml version="1.0" encoding="UTF-8" standalone="no"?><svg xmlns="http://www.w3.org/2000/svg" xmlns:xlink="http://www.w3.org/1999/xlink" contentScriptType="application/ecmascript" contentStyleType="text/css" height="159px" preserveAspectRatio="none" style="width:721px;height:159px;" version="1.1" viewBox="0 0 721 159" width="721px" zoomAndPan="magnify"><defs><filter height="300%" id="f1f91zd008whld" width="300%" x="-1" y="-1"><feGaussianBlur result="blurOut" stdDeviation="2.0"/><feColorMatrix in="blurOut" result="blurOut2" type="matrix" values="0 0 0 0 0 0 0 0 0 0 0 0 0 0 0 0 0 0 .4 0"/><feOffset dx="4.0" dy="4.0" in="blurOut2" result="blurOut3"/><feBlend in="SourceGraphic" in2="blurOut3" mode="normal"/></filter></defs><g><!--MD5=[6a8eef24a865597df0dc119d71c20fa1]
entity usantatecla.mastermind--><polygon fill="#FFFFFF" filter="url(#f1f91zd008whld)" points="16,113,223,113,230,135.2969,247,135.2969,247,152.2969,16,152.2969,16,113" style="stroke:#000000;stroke-width:1.5;"/><line style="stroke:#000000;stroke-width:1.5;" x1="16" x2="230" y1="135.2969" y2="135.2969"/><text fill="#000000" font-family="sans-serif" font-size="14" font-weight="bold" lengthAdjust="spacingAndGlyphs" textLength="201" x="20" y="128.9951">usantatecla.mastermind</text><!--MD5=[612a536d1c85efa17c7d118cc1e7b020]
entity usantatecla.utils--><polygon fill="#FFFFFF" filter="url(#f1f91zd008whld)" points="282.5,113,428.5,113,435.5,135.2969,452.5,135.2969,452.5,152.2969,282.5,152.2969,282.5,113" style="stroke:#000000;stroke-width:1.5;"/><line style="stroke:#000000;stroke-width:1.5;" x1="282.5" x2="435.5" y1="135.2969" y2="135.2969"/><text fill="#000000" font-family="sans-serif" font-size="14" font-weight="bold" lengthAdjust="spacingAndGlyphs" textLength="140" x="286.5" y="128.9951">usantatecla.utils</text><!--MD5=[48fa9072fd51d9920e6db8484beec696]
entity java.io--><polygon fill="#FFFFFF" filter="url(#f1f91zd008whld)" points="487.5,113,547.5,113,554.5,135.2969,571.5,135.2969,571.5,152.2969,487.5,152.2969,487.5,113" style="stroke:#000000;stroke-width:1.5;"/><line style="stroke:#000000;stroke-width:1.5;" x1="487.5" x2="554.5" y1="135.2969" y2="135.2969"/><text fill="#000000" font-family="sans-serif" font-size="14" font-weight="bold" lengthAdjust="spacingAndGlyphs" textLength="54" x="491.5" y="128.9951">java.io</text><!--MD5=[034f0f7ed136bf78fc117f7e41f76e93]
entity java.util--><polygon fill="#FFFFFF" filter="url(#f1f91zd008whld)" points="607,113,680,113,687,135.2969,704,135.2969,704,152.2969,607,152.2969,607,113" style="stroke:#000000;stroke-width:1.5;"/><line style="stroke:#000000;stroke-width:1.5;" x1="607" x2="687" y1="135.2969" y2="135.2969"/><text fill="#000000" font-family="sans-serif" font-size="14" font-weight="bold" lengthAdjust="spacingAndGlyphs" textLength="67" x="611" y="128.9951">java.util</text><!--MD5=[c2796faf4134bd8b5f3bc71f44d02e74]
entity jar--><rect fill="#FEFECE" filter="url(#f1f91zd008whld)" height="46.2969" style="stroke:#A80036;stroke-width:1.5;" width="150" x="373.5" y="7"/><rect fill="#FEFECE" height="10" style="stroke:#A80036;stroke-width:1.5;" width="15" x="503.5" y="12"/><rect fill="#FEFECE" height="2" style="stroke:#A80036;stroke-width:1.5;" width="4" x="501.5" y="14"/><rect fill="#FEFECE" height="2" style="stroke:#A80036;stroke-width:1.5;" width="4" x="501.5" y="18"/><text fill="#000000" font-family="sans-serif" font-size="14" lengthAdjust="spacingAndGlyphs" textLength="110" x="388.5" y="39.9951">mastermind.jar</text><!--MD5=[33871d850b885cae0f32fcf5f82e5a8f]
link jar to usantatecla.mastermind--><path d="M367.4941,56.6816 C367.4941,56.6816 251.159,93.5638 202.622,108.952 " fill="none" id="jar-usantatecla.mastermind" style="stroke:#A80036;stroke-width:1.0;"/><polygon fill="#A80036" points="190.011,112.9499,199.7991,114.0421,194.7771,111.4384,197.3807,106.4164,190.011,112.9499" style="stroke:#A80036;stroke-width:1.0;"/><line style="stroke:#A80036;stroke-width:1.0;" x1="194.7771" x2="202.4035" y1="111.4384" y2="109.0211"/><polygon fill="#A80036" points="378.933,53.0552,372.0047,51.0554,367.4941,56.6816,374.4223,58.6814,378.933,53.0552" style="stroke:#A80036;stroke-width:1.0;"/><!--MD5=[8059cd5737844cbfa7541e4ee98eb909]
link jar to usantatecla.utils--><path d="M422.9925,62.6472 C422.9925,62.6472 400.483,90.5769 390.606,102.8317 " fill="none" id="jar-usantatecla.utils" style="stroke:#A80036;stroke-width:1.0;"/><polygon fill="#A80036" points="382.442,112.9606,391.2039,108.4629,385.5794,109.0675,384.9749,103.443,382.442,112.9606" style="stroke:#A80036;stroke-width:1.0;"/><line style="stroke:#A80036;stroke-width:1.0;" x1="385.5794" x2="390.6" y1="109.0675" y2="102.8389"/><polygon fill="#A80036" points="430.523,53.3042,423.6434,55.4656,422.9925,62.6472,429.8721,60.4859,430.523,53.3042" style="stroke:#A80036;stroke-width:1.0;"/><!--MD5=[f17a38c250a1605cd3da9b9fac2ef94b]
link jar to java.io--><path d="M474.0075,62.6472 C474.0075,62.6472 496.517,90.5769 506.394,102.8317 " fill="none" id="jar-java.io" style="stroke:#A80036;stroke-width:1.0;"/><polygon fill="#A80036" points="514.558,112.9606,512.0251,103.443,511.4206,109.0675,505.7961,108.4629,514.558,112.9606" style="stroke:#A80036;stroke-width:1.0;"/><line style="stroke:#A80036;stroke-width:1.0;" x1="511.4206" x2="506.4" y1="109.0675" y2="102.8389"/><polygon fill="#A80036" points="466.477,53.3042,467.1279,60.4859,474.0075,62.6472,473.3566,55.4656,466.477,53.3042" style="stroke:#A80036;stroke-width:1.0;"/><!--MD5=[a929e6d2b54380e4c3e4c2b17ce7cd9b]
link jar to java.util--><path d="M504.7217,58.2968 C504.7217,58.2968 575.311,92.5677 605.253,107.1046 " fill="none" id="jar-java.util" style="stroke:#A80036;stroke-width:1.0;"/><polygon fill="#A80036" points="617.124,112.868,610.7744,105.3392,612.626,110.6844,607.2807,112.536,617.124,112.868" style="stroke:#A80036;stroke-width:1.0;"/><line style="stroke:#A80036;stroke-width:1.0;" x1="612.626" x2="605.429" y1="110.6844" y2="107.1902"/><polygon fill="#A80036" points="493.927,53.0552,497.5771,59.2742,504.7217,58.2968,501.0716,52.0778,493.927,53.0552" style="stroke:#A80036;stroke-width:1.0;"/><!--MD5=[69714f7adabf5b918fd194f9e0f37fa1]
@startuml
package "  "  as usantatecla.mastermind {
}
package "  "  as usantatecla.utils {
}
package "  "  as java.io {
}
package "  "  as java.util {
}

[mastermind.jar] as jar

jar *- -> usantatecla.mastermind
jar *- -> usantatecla.utils
jar *- -> java.io
jar *- -> java.util
@enduml

PlantUML version 1.2020.21beta7(Unknown compile time)
(GPL source distribution)
Java Runtime: Java(TM) SE Runtime Environment
JVM: Java HotSpot(TM) 64-Bit Server VM
Default Encoding: UTF-8
Language: en
Country: US
--></g></svg>