<?xml version="1.0" encoding="UTF-8" standalone="no"?>
<svg xmlns="http://www.w3.org/2000/svg" contentScriptType="application/ecmascript" contentStyleType="text/css"
     height="402px" preserveAspectRatio="none" style="width:867px;height:402px;" version="1.1" viewBox="0 0 867 402"
     width="867px" zoomAndPan="magnify"><defs><filter height="300%" id="f1njnbhduaev4h" width="300%" x="-1" y="-1"><feGaussianBlur result="blurOut" stdDeviation="2.0"/><feColorMatrix in="blurOut" result="blurOut2" type="matrix" values="0 0 0 0 0 0 0 0 0 0 0 0 0 0 0 0 0 0 .4 0"/><feOffset dx="4.0" dy="4.0" in="blurOut2" result="blurOut3"/><feBlend in="SourceGraphic" in2="blurOut3" mode="normal"/></filter></defs><g><!--MD5=[9be0839337cfdab5d118a2e29cf0a8c4]
cluster usantatecla.mastermind--><polygon fill="#FFFFFF" filter="url(#f1njnbhduaev4h)" points="16,6,223,6,230,28.2969,410,28.2969,410,277,16,277,16,6" style="stroke:#000000;stroke-width:1.5;"/><line style="stroke:#000000;stroke-width:1.5;" x1="16" x2="230" y1="28.2969" y2="28.2969"/><text fill="#000000" font-family="sans-serif" font-size="14" font-weight="bold" lengthAdjust="spacingAndGlyphs" textLength="201" x="20" y="20.9951">usantatecla.mastermind</text><!--MD5=[315b8ca9da34f9ebf61c511bec4164b0]
class usantatecla.mastermind.ConsoleMastermind--><rect codeLine="6" fill="#FEFECE" filter="url(#f1njnbhduaev4h)" height="73.6094" id="usantatecla.mastermind.ConsoleMastermind" style="stroke:#A80036;stroke-width:1.5;" width="163" x="32.5" y="187"/><ellipse cx="52.9" cy="203" fill="#ADD1B2" rx="11" ry="11" style="stroke:#A80036;stroke-width:1.0;"/><path d="M55.2438,198.6719 C54.3063,198.2344 53.7125,198.0938 52.8375,198.0938 C50.2125,198.0938 48.2125,200.1719 48.2125,202.8906 L48.2125,204.0156 C48.2125,206.5938 50.3219,208.4844 53.2125,208.4844 C54.4313,208.4844 55.5875,208.1875 56.3375,207.6406 C56.9156,207.2344 57.2438,206.7813 57.2438,206.3906 C57.2438,205.9375 56.8531,205.5469 56.3844,205.5469 C56.1656,205.5469 55.9625,205.625 55.775,205.8125 C55.3219,206.2969 55.3219,206.2969 55.1344,206.3906 C54.7125,206.6563 54.025,206.7813 53.2594,206.7813 C51.2125,206.7813 49.9156,205.6875 49.9156,203.9844 L49.9156,202.8906 C49.9156,201.1094 51.1656,199.7969 52.9,199.7969 C53.4781,199.7969 54.0875,199.9531 54.5563,200.2031 C55.0406,200.4844 55.2125,200.7031 55.3063,201.1094 C55.3688,201.5156 55.4,201.6406 55.5406,201.7656 C55.6813,201.9063 55.9156,202.0156 56.1344,202.0156 C56.4,202.0156 56.6656,201.875 56.8375,201.6563 C56.9469,201.5 56.9781,201.3125 56.9781,200.8906 L56.9781,199.4688 C56.9781,199.0313 56.9625,198.9063 56.8688,198.75 C56.7125,198.4844 56.4313,198.3438 56.1344,198.3438 C55.8375,198.3438 55.6344,198.4375 55.4156,198.75 L55.2438,198.6719 Z " fill="#000000"/><text fill="#000000" font-family="sans-serif" font-size="12" lengthAdjust="spacingAndGlyphs" textLength="119" x="68.1" y="207.1543">ConsoleMastermind</text><line style="stroke:#A80036;stroke-width:1.5;" x1="33.5" x2="194.5" y1="219" y2="219"/><line style="stroke:#A80036;stroke-width:1.5;" x1="33.5" x2="194.5" y1="227" y2="227"/><ellipse cx="43.5" cy="238" fill="#84BE84" rx="3" ry="3" style="stroke:#038048;stroke-width:1.0;"/><text fill="#000000" font-family="sans-serif" font-size="11" lengthAdjust="spacingAndGlyphs" text-decoration="underline" textLength="77" x="52.5" y="241.2104">main(String[])</text><polygon fill="#FFFF44" points="43.5,245.8047,47.5,249.8047,43.5,253.8047,39.5,249.8047" style="stroke:#B38D22;stroke-width:1.0;"/><text fill="#000000" font-family="sans-serif" font-size="11" lengthAdjust="spacingAndGlyphs" textLength="137" x="52.5" y="254.0151">createView(Logic): View</text><!--MD5=[904099970a9cea29a476bd38c8d887ee]
class usantatecla.mastermind.Mastermind--><rect codeLine="18" fill="#FEFECE" filter="url(#f1njnbhduaev4h)" height="86.4141" id="usantatecla.mastermind.Mastermind" style="stroke:#A80036;stroke-width:1.5;" width="161" x="231.5" y="41"/><ellipse cx="272.6" cy="57" fill="#A9DCDF" rx="11" ry="11" style="stroke:#A80036;stroke-width:1.0;"/><path d="M274.6781,58.8125 L275.0688,59.7969 L274.6781,59.7969 C274.225,59.7969 274.1156,59.8125 273.9594,59.9219 C273.7094,60.0781 273.5531,60.3594 273.5531,60.6563 C273.5531,60.9219 273.6938,61.1719 273.9125,61.3281 C274.0531,61.4531 274.2563,61.5 274.6781,61.5 L277.0375,61.5 C277.3969,61.5 277.6156,61.4688 277.7563,61.375 C278.0063,61.2344 278.1625,60.9375 278.1625,60.6563 C278.1625,60.375 278.0219,60.125 277.8031,59.9688 C277.6313,59.8281 277.475,59.7969 277.0063,59.7969 L273.6156,51.5938 L269.9438,51.5938 C269.4906,51.5938 269.3656,51.6094 269.2094,51.7031 C268.9594,51.875 268.8031,52.1563 268.8031,52.4375 C268.8031,52.7188 268.9438,52.9688 269.1625,53.1406 C269.3344,53.25 269.5063,53.2813 269.9438,53.2813 L271.0219,53.2813 L268.3813,59.7969 C267.9594,59.7969 267.8031,59.8125 267.6469,59.9219 C267.3969,60.0781 267.2406,60.3594 267.2406,60.6563 C267.2406,61.2188 267.6156,61.5 268.3656,61.5 L270.6313,61.5 C270.9906,61.5 271.2094,61.4688 271.3344,61.375 C271.6,61.2344 271.7406,60.9375 271.7406,60.6563 C271.7406,60.375 271.6156,60.125 271.3969,59.9531 C271.225,59.8281 271.0844,59.7969 270.6313,59.7969 L270.2406,59.7969 L270.6313,58.8125 L274.6781,58.8125 Z M273.975,57.1094 L271.3031,57.1094 L272.6469,53.8438 L273.975,57.1094 Z " fill="#000000"/><text fill="#000000" font-family="sans-serif" font-size="12" font-style="italic" lengthAdjust="spacingAndGlyphs" textLength="71" x="292.4" y="61.1543">Mastermind</text><line style="stroke:#A80036;stroke-width:1.5;" x1="232.5" x2="391.5" y1="73" y2="73"/><line style="stroke:#A80036;stroke-width:1.5;" x1="232.5" x2="391.5" y1="81" y2="81"/><polygon fill="#FFFF44" points="242.5,87,246.5,91,242.5,95,238.5,91" style="stroke:#B38D22;stroke-width:1.0;"/><text fill="#000000" font-family="sans-serif" font-size="11" lengthAdjust="spacingAndGlyphs" textLength="74" x="251.5" y="95.2104">Mastermind()</text><polygon fill="#FFFF44" points="242.5,99.8047,246.5,103.8047,242.5,107.8047,238.5,103.8047" style="stroke:#B38D22;stroke-width:1.0;"/><text fill="#000000" font-family="sans-serif" font-size="11" font-style="italic" lengthAdjust="spacingAndGlyphs" textLength="135" x="251.5" y="108.0151">createView(Logic): View</text><polygon fill="#FFFF44" points="242.5,112.6094,246.5,116.6094,242.5,120.6094,238.5,116.6094" style="stroke:#B38D22;stroke-width:1.0;"/><text fill="#000000" font-family="sans-serif" font-size="11" lengthAdjust="spacingAndGlyphs" textLength="32" x="251.5" y="120.8198">play()</text><!--MD5=[e3ccb0142e457ddb33bd230b9167ec6f]
class usantatecla.mastermind.GraphicsMastermind--><rect codeLine="12" fill="#FEFECE" filter="url(#f1njnbhduaev4h)" height="73.6094" id="usantatecla.mastermind.GraphicsMastermind" style="stroke:#A80036;stroke-width:1.5;" width="163" x="230.5" y="187"/><ellipse cx="249.1" cy="203" fill="#ADD1B2" rx="11" ry="11" style="stroke:#A80036;stroke-width:1.0;"/><path d="M251.4438,198.6719 C250.5063,198.2344 249.9125,198.0938 249.0375,198.0938 C246.4125,198.0938 244.4125,200.1719 244.4125,202.8906 L244.4125,204.0156 C244.4125,206.5938 246.5219,208.4844 249.4125,208.4844 C250.6313,208.4844 251.7875,208.1875 252.5375,207.6406 C253.1156,207.2344 253.4438,206.7813 253.4438,206.3906 C253.4438,205.9375 253.0531,205.5469 252.5844,205.5469 C252.3656,205.5469 252.1625,205.625 251.975,205.8125 C251.5219,206.2969 251.5219,206.2969 251.3344,206.3906 C250.9125,206.6563 250.225,206.7813 249.4594,206.7813 C247.4125,206.7813 246.1156,205.6875 246.1156,203.9844 L246.1156,202.8906 C246.1156,201.1094 247.3656,199.7969 249.1,199.7969 C249.6781,199.7969 250.2875,199.9531 250.7563,200.2031 C251.2406,200.4844 251.4125,200.7031 251.5063,201.1094 C251.5688,201.5156 251.6,201.6406 251.7406,201.7656 C251.8813,201.9063 252.1156,202.0156 252.3344,202.0156 C252.6,202.0156 252.8656,201.875 253.0375,201.6563 C253.1469,201.5 253.1781,201.3125 253.1781,200.8906 L253.1781,199.4688 C253.1781,199.0313 253.1625,198.9063 253.0688,198.75 C252.9125,198.4844 252.6313,198.3438 252.3344,198.3438 C252.0375,198.3438 251.8344,198.4375 251.6156,198.75 L251.4438,198.6719 Z " fill="#000000"/><text fill="#000000" font-family="sans-serif" font-size="12" lengthAdjust="spacingAndGlyphs" textLength="123" x="263.9" y="207.1543">GraphicsMastermind</text><line style="stroke:#A80036;stroke-width:1.5;" x1="231.5" x2="392.5" y1="219" y2="219"/><line style="stroke:#A80036;stroke-width:1.5;" x1="231.5" x2="392.5" y1="227" y2="227"/><ellipse cx="241.5" cy="238" fill="#84BE84" rx="3" ry="3" style="stroke:#038048;stroke-width:1.0;"/><text fill="#000000" font-family="sans-serif" font-size="11" lengthAdjust="spacingAndGlyphs" text-decoration="underline" textLength="77" x="250.5" y="241.2104">main(String[])</text><polygon fill="#FFFF44" points="241.5,245.8047,245.5,249.8047,241.5,253.8047,237.5,249.8047" style="stroke:#B38D22;stroke-width:1.0;"/><text fill="#000000" font-family="sans-serif" font-size="11" lengthAdjust="spacingAndGlyphs" textLength="137" x="250.5" y="254.0151">createView(Logic): View</text><!--MD5=[51d729737bd84a4c43136dd336c2eea1]
class ConsoleView--><rect codeLine="1" fill="#FEFECE" filter="url(#f1njnbhduaev4h)" height="67.9063" id="ConsoleView" style="stroke:#A80036;stroke-width:1.5;" width="161" x="33.5" y="321"/><ellipse cx="48.5" cy="346.9531" fill="#ADD1B2" rx="11" ry="11" style="stroke:#A80036;stroke-width:1.0;"/><path d="M50.8438,342.625 C49.9063,342.1875 49.3125,342.0469 48.4375,342.0469 C45.8125,342.0469 43.8125,344.125 43.8125,346.8438 L43.8125,347.9688 C43.8125,350.5469 45.9219,352.4375 48.8125,352.4375 C50.0313,352.4375 51.1875,352.1406 51.9375,351.5938 C52.5156,351.1875 52.8438,350.7344 52.8438,350.3438 C52.8438,349.8906 52.4531,349.5 51.9844,349.5 C51.7656,349.5 51.5625,349.5781 51.375,349.7656 C50.9219,350.25 50.9219,350.25 50.7344,350.3438 C50.3125,350.6094 49.625,350.7344 48.8594,350.7344 C46.8125,350.7344 45.5156,349.6406 45.5156,347.9375 L45.5156,346.8438 C45.5156,345.0625 46.7656,343.75 48.5,343.75 C49.0781,343.75 49.6875,343.9063 50.1563,344.1563 C50.6406,344.4375 50.8125,344.6563 50.9063,345.0625 C50.9688,345.4688 51,345.5938 51.1406,345.7188 C51.2813,345.8594 51.5156,345.9688 51.7344,345.9688 C52,345.9688 52.2656,345.8281 52.4375,345.6094 C52.5469,345.4531 52.5781,345.2656 52.5781,344.8438 L52.5781,343.4219 C52.5781,342.9844 52.5625,342.8594 52.4688,342.7031 C52.3125,342.4375 52.0313,342.2969 51.7344,342.2969 C51.4375,342.2969 51.2344,342.3906 51.0156,342.7031 L50.8438,342.625 Z " fill="#000000"/><text fill="#000000" font-family="sans-serif" font-size="12" lengthAdjust="spacingAndGlyphs" textLength="71" x="91.5" y="337.1387">usantatecla.</text><text fill="#000000" font-family="sans-serif" font-size="12" lengthAdjust="spacingAndGlyphs" textLength="112" x="71" y="351.1074">mastermind.views.</text><text fill="#000000" font-family="sans-serif" font-size="12" lengthAdjust="spacingAndGlyphs" textLength="129" x="62.5" y="365.0762">console.ConsoleView</text><line style="stroke:#A80036;stroke-width:1.5;" x1="34.5" x2="193.5" y1="372.9063" y2="372.9063"/><line style="stroke:#A80036;stroke-width:1.5;" x1="34.5" x2="193.5" y1="380.9063" y2="380.9063"/><!--MD5=[10250df365dc999637be629d910c1f35]
class GraphicsView--><rect codeLine="2" fill="#FEFECE" filter="url(#f1njnbhduaev4h)" height="67.9063" id="GraphicsView" style="stroke:#A80036;stroke-width:1.5;" width="165" x="229.5" y="321"/><ellipse cx="244.5" cy="346.9531" fill="#ADD1B2" rx="11" ry="11" style="stroke:#A80036;stroke-width:1.0;"/><path d="M246.8438,342.625 C245.9063,342.1875 245.3125,342.0469 244.4375,342.0469 C241.8125,342.0469 239.8125,344.125 239.8125,346.8438 L239.8125,347.9688 C239.8125,350.5469 241.9219,352.4375 244.8125,352.4375 C246.0313,352.4375 247.1875,352.1406 247.9375,351.5938 C248.5156,351.1875 248.8438,350.7344 248.8438,350.3438 C248.8438,349.8906 248.4531,349.5 247.9844,349.5 C247.7656,349.5 247.5625,349.5781 247.375,349.7656 C246.9219,350.25 246.9219,350.25 246.7344,350.3438 C246.3125,350.6094 245.625,350.7344 244.8594,350.7344 C242.8125,350.7344 241.5156,349.6406 241.5156,347.9375 L241.5156,346.8438 C241.5156,345.0625 242.7656,343.75 244.5,343.75 C245.0781,343.75 245.6875,343.9063 246.1563,344.1563 C246.6406,344.4375 246.8125,344.6563 246.9063,345.0625 C246.9688,345.4688 247,345.5938 247.1406,345.7188 C247.2813,345.8594 247.5156,345.9688 247.7344,345.9688 C248,345.9688 248.2656,345.8281 248.4375,345.6094 C248.5469,345.4531 248.5781,345.2656 248.5781,344.8438 L248.5781,343.4219 C248.5781,342.9844 248.5625,342.8594 248.4688,342.7031 C248.3125,342.4375 248.0313,342.2969 247.7344,342.2969 C247.4375,342.2969 247.2344,342.3906 247.0156,342.7031 L246.8438,342.625 Z " fill="#000000"/><text fill="#000000" font-family="sans-serif" font-size="12" lengthAdjust="spacingAndGlyphs" textLength="71" x="289.5" y="337.1387">usantatecla.</text><text fill="#000000" font-family="sans-serif" font-size="12" lengthAdjust="spacingAndGlyphs" textLength="112" x="269" y="351.1074">mastermind.views.</text><text fill="#000000" font-family="sans-serif" font-size="12" lengthAdjust="spacingAndGlyphs" textLength="133" x="258.5" y="365.0762">console.GraphicsView</text><line style="stroke:#A80036;stroke-width:1.5;" x1="230.5" x2="393.5" y1="372.9063" y2="372.9063"/><line style="stroke:#A80036;stroke-width:1.5;" x1="230.5" x2="393.5" y1="380.9063" y2="380.9063"/><!--MD5=[42fa18dda7351a0ae87d9497de925436]
class Logic--><rect codeLine="3" fill="#FEFECE" filter="url(#f1njnbhduaev4h)" height="67.9063" id="Logic" style="stroke:#A80036;stroke-width:1.5;" width="174" x="429" y="190"/><ellipse cx="444" cy="215.9531" fill="#ADD1B2" rx="11" ry="11" style="stroke:#A80036;stroke-width:1.0;"/><path d="M446.3438,211.625 C445.4063,211.1875 444.8125,211.0469 443.9375,211.0469 C441.3125,211.0469 439.3125,213.125 439.3125,215.8438 L439.3125,216.9688 C439.3125,219.5469 441.4219,221.4375 444.3125,221.4375 C445.5313,221.4375 446.6875,221.1406 447.4375,220.5938 C448.0156,220.1875 448.3438,219.7344 448.3438,219.3438 C448.3438,218.8906 447.9531,218.5 447.4844,218.5 C447.2656,218.5 447.0625,218.5781 446.875,218.7656 C446.4219,219.25 446.4219,219.25 446.2344,219.3438 C445.8125,219.6094 445.125,219.7344 444.3594,219.7344 C442.3125,219.7344 441.0156,218.6406 441.0156,216.9375 L441.0156,215.8438 C441.0156,214.0625 442.2656,212.75 444,212.75 C444.5781,212.75 445.1875,212.9063 445.6563,213.1563 C446.1406,213.4375 446.3125,213.6563 446.4063,214.0625 C446.4688,214.4688 446.5,214.5938 446.6406,214.7188 C446.7813,214.8594 447.0156,214.9688 447.2344,214.9688 C447.5,214.9688 447.7656,214.8281 447.9375,214.6094 C448.0469,214.4531 448.0781,214.2656 448.0781,213.8438 L448.0781,212.4219 C448.0781,211.9844 448.0625,211.8594 447.9688,211.7031 C447.8125,211.4375 447.5313,211.2969 447.2344,211.2969 C446.9375,211.2969 446.7344,211.3906 446.5156,211.7031 L446.3438,211.625 Z " fill="#000000"/><text fill="#000000" font-family="sans-serif" font-size="12" lengthAdjust="spacingAndGlyphs" textLength="71" x="493.5" y="206.1387">usantatecla.</text><text fill="#000000" font-family="sans-serif" font-size="12" lengthAdjust="spacingAndGlyphs" textLength="142" x="458" y="220.1074">mastermind.controllers.</text><text fill="#000000" font-family="sans-serif" font-size="12" lengthAdjust="spacingAndGlyphs" textLength="32" x="513" y="234.0762">Logic</text><line style="stroke:#A80036;stroke-width:1.5;" x1="430" x2="602" y1="241.9063" y2="241.9063"/><line style="stroke:#A80036;stroke-width:1.5;" x1="430" x2="602" y1="249.9063" y2="249.9063"/><!--MD5=[c045e12321b83266d36d22b9096c24ea]
class View--><rect codeLine="4" fill="#FEFECE" filter="url(#f1njnbhduaev4h)" height="53.9375" id="View" style="stroke:#A80036;stroke-width:1.5;" width="215" x="638.5" y="197"/><ellipse cx="653.5" cy="215.9688" fill="#ADD1B2" rx="11" ry="11" style="stroke:#A80036;stroke-width:1.0;"/><path d="M655.8438,211.6406 C654.9063,211.2031 654.3125,211.0625 653.4375,211.0625 C650.8125,211.0625 648.8125,213.1406 648.8125,215.8594 L648.8125,216.9844 C648.8125,219.5625 650.9219,221.4531 653.8125,221.4531 C655.0313,221.4531 656.1875,221.1563 656.9375,220.6094 C657.5156,220.2031 657.8438,219.75 657.8438,219.3594 C657.8438,218.9063 657.4531,218.5156 656.9844,218.5156 C656.7656,218.5156 656.5625,218.5938 656.375,218.7813 C655.9219,219.2656 655.9219,219.2656 655.7344,219.3594 C655.3125,219.625 654.625,219.75 653.8594,219.75 C651.8125,219.75 650.5156,218.6563 650.5156,216.9531 L650.5156,215.8594 C650.5156,214.0781 651.7656,212.7656 653.5,212.7656 C654.0781,212.7656 654.6875,212.9219 655.1563,213.1719 C655.6406,213.4531 655.8125,213.6719 655.9063,214.0781 C655.9688,214.4844 656,214.6094 656.1406,214.7344 C656.2813,214.875 656.5156,214.9844 656.7344,214.9844 C657,214.9844 657.2656,214.8438 657.4375,214.625 C657.5469,214.4688 657.5781,214.2813 657.5781,213.8594 L657.5781,212.4375 C657.5781,212 657.5625,211.875 657.4688,211.7188 C657.3125,211.4531 657.0313,211.3125 656.7344,211.3125 C656.4375,211.3125 656.2344,211.4063 656.0156,211.7188 L655.8438,211.6406 Z " fill="#000000"/><text fill="#000000" font-family="sans-serif" font-size="12" lengthAdjust="spacingAndGlyphs" textLength="183" x="667.5" y="213.1387">usantatecla.mastermind.views.</text><text fill="#000000" font-family="sans-serif" font-size="12" lengthAdjust="spacingAndGlyphs" textLength="29" x="744.5" y="227.1074">View</text><line style="stroke:#A80036;stroke-width:1.5;" x1="639.5" x2="852.5" y1="234.9375" y2="234.9375"/><line style="stroke:#A80036;stroke-width:1.5;" x1="639.5" x2="852.5" y1="242.9375" y2="242.9375"/><!--MD5=[f77977e4d8b9d032efd72e44c024e507]
reverse link usantatecla.mastermind.Mastermind to usantatecla.mastermind.ConsoleMastermind--><path codeLine="10" d="M235.002,138.665 C211.802,154.835 186.903,172.189 165.76,186.925 " fill="none" id="usantatecla.mastermind.Mastermind-backto-usantatecla.mastermind.ConsoleMastermind" style="stroke:#A80036;stroke-width:1.0;"/><polygon fill="none" points="231.107,132.848,251.518,127.154,239.112,144.333,231.107,132.848" style="stroke:#A80036;stroke-width:1.0;"/><!--MD5=[75be7b6274e25c7c9339f824ef8f543e]
reverse link usantatecla.mastermind.Mastermind to usantatecla.mastermind.GraphicsMastermind--><path codeLine="16" d="M312,147.623 C312,161.004 312,174.707 312,186.697 " fill="none" id="usantatecla.mastermind.Mastermind-backto-usantatecla.mastermind.GraphicsMastermind" style="stroke:#A80036;stroke-width:1.0;"/><polygon fill="none" points="305,147.154,312,127.154,319,147.154,305,147.154" style="stroke:#A80036;stroke-width:1.0;"/><!--MD5=[247e47791acc2ed78b9d73006ffb100f]
link usantatecla.mastermind.Mastermind to Logic--><path codeLine="25" d="M374.315,127.154 C402.566,146.265 435.628,168.631 462.706,186.948 " fill="none" id="usantatecla.mastermind.Mastermind-to-Logic" style="stroke:#A80036;stroke-width:1.0;stroke-dasharray:7.0,7.0;"/><polygon fill="#A80036" points="466.999,189.852,461.7855,181.4962,462.8575,187.0505,457.3032,188.1226,466.999,189.852" style="stroke:#A80036;stroke-width:1.0;"/><!--MD5=[a5f8ce13268a0ab6e1eb93d1cfb2a7ef]
link usantatecla.mastermind.Mastermind to View--><path codeLine="26" d="M404.0506,114.2699 C404.0506,114.2699 578.532,169.75 651.584,192.978 " fill="none" id="usantatecla.mastermind.Mastermind-View" style="stroke:#A80036;stroke-width:1.0;"/><polygon fill="#A80036" points="663.974,196.918,656.6089,190.3792,659.209,195.4031,654.1851,198.0032,663.974,196.918" style="stroke:#A80036;stroke-width:1.0;"/><line style="stroke:#A80036;stroke-width:1.0;" x1="659.209" x2="651.5855" y1="195.4031" y2="192.979"/><polygon fill="#A80036" points="392.615,110.633,397.1205,116.2633,404.0506,114.2699,399.5451,108.6396,392.615,110.633" style="stroke:#A80036;stroke-width:1.0;"/><!--MD5=[0a501c15156d4559f00f932bd01623b3]
link usantatecla.mastermind.GraphicsMastermind to GraphicsView--><path codeLine="27" d="M312,261.277 C312,278.161 312,298.2584 312,315.4195 " fill="none" id="usantatecla.mastermind.GraphicsMastermind-to-GraphicsView" style="stroke:#A80036;stroke-width:1.0;stroke-dasharray:7.0,7.0;"/><polygon fill="#A80036" points="312,320.6443,316,311.6443,312,315.6443,308,311.6443,312,320.6443" style="stroke:#A80036;stroke-width:1.0;"/><!--MD5=[86660d01f18f2f4aaa6ae1176c50cf28]
link usantatecla.mastermind.ConsoleMastermind to ConsoleView--><path codeLine="28" d="M114,261.277 C114,278.161 114,298.2584 114,315.4195 " fill="none" id="usantatecla.mastermind.ConsoleMastermind-to-ConsoleView" style="stroke:#A80036;stroke-width:1.0;stroke-dasharray:7.0,7.0;"/><polygon fill="#A80036" points="114,320.6443,118,311.6443,114,315.6443,110,311.6443,114,320.6443" style="stroke:#A80036;stroke-width:1.0;"/><!--MD5=[594bc38fe95237f1943aeb226ad99171]
@startuml
class ConsoleView as "usantatecla.\nmastermind.views.\nconsole.ConsoleView"
class GraphicsView as "usantatecla.\nmastermind.views.\nconsole.GraphicsView"
class Logic as "usantatecla.\nmastermind.controllers.\nLogic"
class View as "usantatecla.mastermind.views.\nView" 

class  usantatecla.mastermind.ConsoleMastermind{
    + {static} main(String[])
    # createView(Logic): View
}
usantatecla.mastermind.Mastermind <|-down- usantatecla.mastermind.ConsoleMastermind

class  usantatecla.mastermind.GraphicsMastermind{
    + {static} main(String[])
    # createView(Logic): View
}
usantatecla.mastermind.Mastermind <|-down- usantatecla.mastermind.GraphicsMastermind

abstract class  usantatecla.mastermind.Mastermind{
    # Mastermind()
    # {abstract} createView(Logic): View
    # play()
}


usantatecla.mastermind.Mastermind .down.> Logic
usantatecla.mastermind.Mastermind *-down-> View
usantatecla.mastermind.GraphicsMastermind .down.> GraphicsView
usantatecla.mastermind.ConsoleMastermind .down.> ConsoleView
@enduml

PlantUML version 1.2020.23beta3(Unknown compile time)
(GPL source distribution)
Java Runtime: Java(TM) SE Runtime Environment
JVM: Java HotSpot(TM) 64-Bit Server VM
Default Encoding: UTF-8
Language: en
Country: US
--></g></svg>