<?xml version="1.0" encoding="UTF-8" standalone="no"?>
<svg xmlns="http://www.w3.org/2000/svg" contentScriptType="application/ecmascript" contentStyleType="text/css"
     height="569px" preserveAspectRatio="none" style="width:672px;height:569px;" version="1.1" viewBox="0 0 672 569"
     width="672px" zoomAndPan="magnify"><defs><filter height="300%" id="f3wmjl986huc2" width="300%" x="-1" y="-1"><feGaussianBlur result="blurOut" stdDeviation="2.0"/><feColorMatrix in="blurOut" result="blurOut2" type="matrix" values="0 0 0 0 0 0 0 0 0 0 0 0 0 0 0 0 0 0 .4 0"/><feOffset dx="4.0" dy="4.0" in="blurOut2" result="blurOut3"/><feBlend in="SourceGraphic" in2="blurOut3" mode="normal"/></filter></defs><g><!--MD5=[29d5d00c8f272934fcfbf235a28c504f]
cluster usantatecla.mastermind.views--><polygon fill="#FFFFFF" filter="url(#f3wmjl986huc2)" points="16,6,273,6,280,28.2969,655,28.2969,655,444,16,444,16,6" style="stroke:#000000;stroke-width:1.5;"/><line style="stroke:#000000;stroke-width:1.5;" x1="16" x2="280" y1="28.2969" y2="28.2969"/><text fill="#000000" font-family="sans-serif" font-size="14" font-weight="bold" lengthAdjust="spacingAndGlyphs" textLength="251" x="20" y="20.9951">usantatecla.mastermind.views</text><!--MD5=[53644edced6652e8585f6faf594e6370]
class usantatecla.mastermind.views.WithLogicView--><rect codeLine="3" fill="#FEFECE" filter="url(#f3wmjl986huc2)" height="60.8047" id="usantatecla.mastermind.views.WithLogicView" style="stroke:#A80036;stroke-width:1.5;" width="145" x="272.5" y="79.5"/><ellipse cx="298.75" cy="95.5" fill="#A9DCDF" rx="11" ry="11" style="stroke:#A80036;stroke-width:1.0;"/><path d="M300.8281,97.3125 L301.2188,98.2969 L300.8281,98.2969 C300.375,98.2969 300.2656,98.3125 300.1094,98.4219 C299.8594,98.5781 299.7031,98.8594 299.7031,99.1563 C299.7031,99.4219 299.8438,99.6719 300.0625,99.8281 C300.2031,99.9531 300.4063,100 300.8281,100 L303.1875,100 C303.5469,100 303.7656,99.9688 303.9063,99.875 C304.1563,99.7344 304.3125,99.4375 304.3125,99.1563 C304.3125,98.875 304.1719,98.625 303.9531,98.4688 C303.7813,98.3281 303.625,98.2969 303.1563,98.2969 L299.7656,90.0938 L296.0938,90.0938 C295.6406,90.0938 295.5156,90.1094 295.3594,90.2031 C295.1094,90.375 294.9531,90.6563 294.9531,90.9375 C294.9531,91.2188 295.0938,91.4688 295.3125,91.6406 C295.4844,91.75 295.6563,91.7813 296.0938,91.7813 L297.1719,91.7813 L294.5313,98.2969 C294.1094,98.2969 293.9531,98.3125 293.7969,98.4219 C293.5469,98.5781 293.3906,98.8594 293.3906,99.1563 C293.3906,99.7188 293.7656,100 294.5156,100 L296.7813,100 C297.1406,100 297.3594,99.9688 297.4844,99.875 C297.75,99.7344 297.8906,99.4375 297.8906,99.1563 C297.8906,98.875 297.7656,98.625 297.5469,98.4531 C297.375,98.3281 297.2344,98.2969 296.7813,98.2969 L296.3906,98.2969 L296.7813,97.3125 L300.8281,97.3125 Z M300.125,95.6094 L297.4531,95.6094 L298.7969,92.3438 L300.125,95.6094 Z " fill="#000000"/><text fill="#000000" font-family="sans-serif" font-size="12" font-style="italic" lengthAdjust="spacingAndGlyphs" textLength="88" x="315.25" y="99.6543">WithLogicView</text><line style="stroke:#A80036;stroke-width:1.5;" x1="273.5" x2="416.5" y1="111.5" y2="111.5"/><line style="stroke:#A80036;stroke-width:1.5;" x1="273.5" x2="416.5" y1="119.5" y2="119.5"/><ellipse cx="283.5" cy="130.5" fill="#84BE84" rx="3" ry="3" style="stroke:#038048;stroke-width:1.0;"/><text fill="#000000" font-family="sans-serif" font-size="11" lengthAdjust="spacingAndGlyphs" textLength="119" x="292.5" y="133.7104">WithLogicView(Logic)</text><!--MD5=[dab5b8162ddba5d4d249ad537ad64188]
class usantatecla.mastermind.views.ColorView--><rect codeLine="8" fill="#FEFECE" filter="url(#f3wmjl986huc2)" height="137.6328" id="usantatecla.mastermind.views.ColorView" style="stroke:#A80036;stroke-width:1.5;" width="205" x="32.5" y="41"/><ellipse cx="101.75" cy="57" fill="#A9DCDF" rx="11" ry="11" style="stroke:#A80036;stroke-width:1.0;"/><path d="M103.8281,58.8125 L104.2188,59.7969 L103.8281,59.7969 C103.375,59.7969 103.2656,59.8125 103.1094,59.9219 C102.8594,60.0781 102.7031,60.3594 102.7031,60.6563 C102.7031,60.9219 102.8438,61.1719 103.0625,61.3281 C103.2031,61.4531 103.4063,61.5 103.8281,61.5 L106.1875,61.5 C106.5469,61.5 106.7656,61.4688 106.9063,61.375 C107.1563,61.2344 107.3125,60.9375 107.3125,60.6563 C107.3125,60.375 107.1719,60.125 106.9531,59.9688 C106.7813,59.8281 106.625,59.7969 106.1563,59.7969 L102.7656,51.5938 L99.0938,51.5938 C98.6406,51.5938 98.5156,51.6094 98.3594,51.7031 C98.1094,51.875 97.9531,52.1563 97.9531,52.4375 C97.9531,52.7188 98.0938,52.9688 98.3125,53.1406 C98.4844,53.25 98.6563,53.2813 99.0938,53.2813 L100.1719,53.2813 L97.5313,59.7969 C97.1094,59.7969 96.9531,59.8125 96.7969,59.9219 C96.5469,60.0781 96.3906,60.3594 96.3906,60.6563 C96.3906,61.2188 96.7656,61.5 97.5156,61.5 L99.7813,61.5 C100.1406,61.5 100.3594,61.4688 100.4844,61.375 C100.75,61.2344 100.8906,60.9375 100.8906,60.6563 C100.8906,60.375 100.7656,60.125 100.5469,59.9531 C100.375,59.8281 100.2344,59.7969 99.7813,59.7969 L99.3906,59.7969 L99.7813,58.8125 L103.8281,58.8125 Z M103.125,57.1094 L100.4531,57.1094 L101.7969,53.8438 L103.125,57.1094 Z " fill="#000000"/><text fill="#000000" font-family="sans-serif" font-size="12" font-style="italic" lengthAdjust="spacingAndGlyphs" textLength="58" x="122.25" y="61.1543">ColorView</text><line style="stroke:#A80036;stroke-width:1.5;" x1="33.5" x2="236.5" y1="73" y2="73"/><ellipse cx="43.5" cy="84" fill="none" rx="3" ry="3" style="stroke:#038048;stroke-width:1.0;"/><text fill="#000000" font-family="sans-serif" font-size="11" lengthAdjust="spacingAndGlyphs" text-decoration="underline" textLength="85" x="52.5" y="87.2104">INITIALS: char[]</text><polygon fill="none" points="43.5,91.8047,47.5,95.8047,43.5,99.8047,39.5,95.8047" style="stroke:#B38D22;stroke-width:1.0;"/><text fill="#000000" font-family="sans-serif" font-size="11" lengthAdjust="spacingAndGlyphs" textLength="63" x="52.5" y="100.0151">color: Color</text><line style="stroke:#A80036;stroke-width:1.5;" x1="33.5" x2="236.5" y1="106.6094" y2="106.6094"/><polygon fill="#FFFF44" points="43.5,112.6094,47.5,116.6094,43.5,120.6094,39.5,116.6094" style="stroke:#B38D22;stroke-width:1.0;"/><text fill="#000000" font-family="sans-serif" font-size="11" lengthAdjust="spacingAndGlyphs" textLength="65" x="52.5" y="120.8198">ColorView()</text><polygon fill="#FFFF44" points="43.5,125.4141,47.5,129.4141,43.5,133.4141,39.5,129.4141" style="stroke:#B38D22;stroke-width:1.0;"/><text fill="#000000" font-family="sans-serif" font-size="11" lengthAdjust="spacingAndGlyphs" textLength="94" x="52.5" y="133.6245">ColorView(Color)</text><ellipse cx="43.5" cy="143.2188" fill="#84BE84" rx="3" ry="3" style="stroke:#038048;stroke-width:1.0;"/><text fill="#000000" font-family="sans-serif" font-size="11" lengthAdjust="spacingAndGlyphs" text-decoration="underline" textLength="135" x="52.5" y="146.4292">getInstance(char): Color</text><ellipse cx="43.5" cy="156.0234" fill="#84BE84" rx="3" ry="3" style="stroke:#038048;stroke-width:1.0;"/><text fill="#000000" font-family="sans-serif" font-size="11" lengthAdjust="spacingAndGlyphs" textLength="97" x="52.5" y="159.2339">allInitials(): String</text><polygon fill="#FFFF44" points="43.5,163.8281,47.5,167.8281,43.5,171.8281,39.5,167.8281" style="stroke:#B38D22;stroke-width:1.0;"/><text fill="#000000" font-family="sans-serif" font-size="11" lengthAdjust="spacingAndGlyphs" textLength="179" x="52.5" y="172.0386">abstract resultInitials(int): String</text><!--MD5=[bd953d99961dd365a3924fc1e98cf727]
class usantatecla.mastermind.views.ErrorView--><rect codeLine="18" fill="#FEFECE" filter="url(#f3wmjl986huc2)" height="112.0234" id="usantatecla.mastermind.views.ErrorView" style="stroke:#A80036;stroke-width:1.5;" width="186" x="453" y="54"/><ellipse cx="512.75" cy="70" fill="#A9DCDF" rx="11" ry="11" style="stroke:#A80036;stroke-width:1.0;"/><path d="M514.8281,71.8125 L515.2188,72.7969 L514.8281,72.7969 C514.375,72.7969 514.2656,72.8125 514.1094,72.9219 C513.8594,73.0781 513.7031,73.3594 513.7031,73.6563 C513.7031,73.9219 513.8438,74.1719 514.0625,74.3281 C514.2031,74.4531 514.4063,74.5 514.8281,74.5 L517.1875,74.5 C517.5469,74.5 517.7656,74.4688 517.9063,74.375 C518.1563,74.2344 518.3125,73.9375 518.3125,73.6563 C518.3125,73.375 518.1719,73.125 517.9531,72.9688 C517.7813,72.8281 517.625,72.7969 517.1563,72.7969 L513.7656,64.5938 L510.0938,64.5938 C509.6406,64.5938 509.5156,64.6094 509.3594,64.7031 C509.1094,64.875 508.9531,65.1563 508.9531,65.4375 C508.9531,65.7188 509.0938,65.9688 509.3125,66.1406 C509.4844,66.25 509.6563,66.2813 510.0938,66.2813 L511.1719,66.2813 L508.5313,72.7969 C508.1094,72.7969 507.9531,72.8125 507.7969,72.9219 C507.5469,73.0781 507.3906,73.3594 507.3906,73.6563 C507.3906,74.2188 507.7656,74.5 508.5156,74.5 L510.7813,74.5 C511.1406,74.5 511.3594,74.4688 511.4844,74.375 C511.75,74.2344 511.8906,73.9375 511.8906,73.6563 C511.8906,73.375 511.7656,73.125 511.5469,72.9531 C511.375,72.8281 511.2344,72.7969 510.7813,72.7969 L510.3906,72.7969 L510.7813,71.8125 L514.8281,71.8125 Z M514.125,70.1094 L511.4531,70.1094 L512.7969,66.8438 L514.125,70.1094 Z " fill="#000000"/><text fill="#000000" font-family="sans-serif" font-size="12" font-style="italic" lengthAdjust="spacingAndGlyphs" textLength="58" x="533.25" y="74.1543">ErrorView</text><line style="stroke:#A80036;stroke-width:1.5;" x1="454" x2="638" y1="86" y2="86"/><ellipse cx="464" cy="97" fill="none" rx="3" ry="3" style="stroke:#038048;stroke-width:1.0;"/><text fill="#000000" font-family="sans-serif" font-size="11" lengthAdjust="spacingAndGlyphs" textLength="112" x="473" y="100.2104">MESSAGES: String[]</text><polygon fill="none" points="464,104.8047,468,108.8047,464,112.8047,460,108.8047" style="stroke:#B38D22;stroke-width:1.0;"/><text fill="#000000" font-family="sans-serif" font-size="11" lengthAdjust="spacingAndGlyphs" textLength="60" x="473" y="113.0151">error: Error</text><line style="stroke:#A80036;stroke-width:1.5;" x1="454" x2="638" y1="119.6094" y2="119.6094"/><polygon fill="#FFFF44" points="464,125.6094,468,129.6094,464,133.6094,460,129.6094" style="stroke:#B38D22;stroke-width:1.0;"/><text fill="#000000" font-family="sans-serif" font-size="11" lengthAdjust="spacingAndGlyphs" textLength="62" x="473" y="133.8198">ErrorView()</text><ellipse cx="464" cy="143.4141" fill="#84BE84" rx="3" ry="3" style="stroke:#038048;stroke-width:1.0;"/><text fill="#000000" font-family="sans-serif" font-size="11" lengthAdjust="spacingAndGlyphs" textLength="88" x="473" y="146.6245">ErrorView(Error)</text><polygon fill="#FFFF44" points="464,151.2188,468,155.2188,464,159.2188,460,155.2188" style="stroke:#B38D22;stroke-width:1.0;"/><text fill="#000000" font-family="sans-serif" font-size="11" lengthAdjust="spacingAndGlyphs" textLength="160" x="473" y="159.4292">abstract colorInitials(): String</text><!--MD5=[694a802c67fd6ffa81f3d338cafa51c2]
class usantatecla.mastermind.views.Message--><rect codeLine="26" fill="#FEFECE" filter="url(#f3wmjl986huc2)" height="188.8516" id="usantatecla.mastermind.views.Message" style="stroke:#A80036;stroke-width:1.5;" width="173" x="48.5" y="239"/><ellipse cx="103.25" cy="255" fill="#EB937F" rx="11" ry="11" style="stroke:#A80036;stroke-width:1.0;"/><path d="M102.0469,255.875 L103.5,255.875 L103.5,255.9844 C103.5,256.3906 103.5313,256.5469 103.6094,256.7031 C103.7656,256.9531 104.0469,257.1094 104.3438,257.1094 C104.5938,257.1094 104.8594,256.9688 105.0156,256.75 C105.1406,256.5938 105.1719,256.4375 105.1719,255.9844 L105.1719,254.0625 C105.1719,253.9063 105.1719,253.8594 105.1563,253.7031 C105.0938,253.2344 104.7813,252.9219 104.3281,252.9219 C104.0781,252.9219 103.8125,253.0625 103.6406,253.2813 C103.5313,253.4531 103.5,253.6094 103.5,254.0625 L103.5,254.1875 L102.0469,254.1875 L102.0469,251.7813 L106.0313,251.7813 L106.0313,252.6406 C106.0313,253.0469 106.0625,253.2188 106.1406,253.375 C106.3125,253.625 106.5938,253.7813 106.875,253.7813 C107.1406,253.7813 107.4063,253.6406 107.5781,253.4219 C107.6875,253.25 107.7188,253.1094 107.7188,252.6406 L107.7188,250.0938 L100.0938,250.0938 C99.6563,250.0938 99.5313,250.1094 99.375,250.2031 C99.125,250.3594 98.9688,250.6563 98.9688,250.9375 C98.9688,251.2188 99.1094,251.4688 99.3281,251.6406 C99.4844,251.75 99.6719,251.7813 100.0938,251.7813 L100.3438,251.7813 L100.3438,258.2969 L100.0938,258.2969 C99.6875,258.2969 99.5313,258.3125 99.375,258.4219 C99.125,258.5938 98.9688,258.8594 98.9688,259.1563 C98.9688,259.4219 99.1094,259.6719 99.3281,259.8281 C99.4688,259.9531 99.7031,260 100.0938,260 L108.0938,260 L108.0938,257.4219 C108.0938,256.9844 108.0625,256.8438 107.9844,256.6875 C107.8125,256.4375 107.5313,256.2813 107.25,256.2813 C106.9844,256.2813 106.7188,256.3906 106.5469,256.6406 C106.4375,256.7969 106.4063,256.9375 106.4063,257.4219 L106.4063,258.2969 L102.0469,258.2969 L102.0469,255.875 Z " fill="#000000"/><text fill="#000000" font-family="sans-serif" font-size="12" lengthAdjust="spacingAndGlyphs" textLength="55" x="123.75" y="259.1543">Message</text><line style="stroke:#A80036;stroke-width:1.5;" x1="49.5" x2="220.5" y1="271" y2="271"/><ellipse cx="59.5" cy="282" fill="none" rx="3" ry="3" style="stroke:#038048;stroke-width:1.0;"/><text fill="#000000" font-family="sans-serif" font-size="11" lengthAdjust="spacingAndGlyphs" textLength="59" x="68.5" y="285.2104">ATTEMPTS</text><ellipse cx="59.5" cy="294.8047" fill="none" rx="3" ry="3" style="stroke:#038048;stroke-width:1.0;"/><text fill="#000000" font-family="sans-serif" font-size="11" lengthAdjust="spacingAndGlyphs" textLength="44" x="68.5" y="298.0151">SECRET</text><ellipse cx="59.5" cy="307.6094" fill="none" rx="3" ry="3" style="stroke:#038048;stroke-width:1.0;"/><text fill="#000000" font-family="sans-serif" font-size="11" lengthAdjust="spacingAndGlyphs" textLength="46" x="68.5" y="310.8198">RESUME</text><ellipse cx="59.5" cy="320.4141" fill="none" rx="3" ry="3" style="stroke:#038048;stroke-width:1.0;"/><text fill="#000000" font-family="sans-serif" font-size="11" lengthAdjust="spacingAndGlyphs" textLength="43" x="68.5" y="323.6245">RESULT</text><ellipse cx="59.5" cy="333.2188" fill="none" rx="3" ry="3" style="stroke:#038048;stroke-width:1.0;"/><text fill="#000000" font-family="sans-serif" font-size="11" lengthAdjust="spacingAndGlyphs" textLength="147" x="68.5" y="336.4292">PROPOSED_COMBINATION</text><ellipse cx="59.5" cy="346.0234" fill="none" rx="3" ry="3" style="stroke:#038048;stroke-width:1.0;"/><text fill="#000000" font-family="sans-serif" font-size="11" lengthAdjust="spacingAndGlyphs" textLength="30" x="68.5" y="349.2339">TITLE</text><ellipse cx="59.5" cy="358.8281" fill="none" rx="3" ry="3" style="stroke:#038048;stroke-width:1.0;"/><text fill="#000000" font-family="sans-serif" font-size="11" lengthAdjust="spacingAndGlyphs" textLength="44" x="68.5" y="362.0386">WINNER</text><ellipse cx="59.5" cy="371.6328" fill="none" rx="3" ry="3" style="stroke:#038048;stroke-width:1.0;"/><text fill="#000000" font-family="sans-serif" font-size="11" lengthAdjust="spacingAndGlyphs" textLength="46" x="68.5" y="374.8433">LOOSER</text><rect fill="none" height="6" style="stroke:#C82930;stroke-width:1.0;" width="6" x="56.5" y="381.4375"/><text fill="#000000" font-family="sans-serif" font-size="11" lengthAdjust="spacingAndGlyphs" textLength="93" x="68.5" y="387.6479">message: String</text><line style="stroke:#A80036;stroke-width:1.5;" x1="49.5" x2="220.5" y1="394.2422" y2="394.2422"/><polygon fill="#4177AF" points="59.5,401.2422,55.5,407.2422,63.5,407.2422" style="stroke:#1963A0;stroke-width:1.0;"/><text fill="#000000" font-family="sans-serif" font-size="11" lengthAdjust="spacingAndGlyphs" textLength="120" x="68.5" y="408.4526">MessageView(String)</text><ellipse cx="59.5" cy="418.0469" fill="#84BE84" rx="3" ry="3" style="stroke:#038048;stroke-width:1.0;"/><text fill="#000000" font-family="sans-serif" font-size="11" lengthAdjust="spacingAndGlyphs" textLength="118" x="68.5" y="421.2573">getMessage(): String</text><!--MD5=[f5534db0476bcf0d5af6a596dc954aba]
class usantatecla.mastermind.views.View--><rect codeLine="40" fill="#FEFECE" filter="url(#f3wmjl986huc2)" height="112.0234" id="usantatecla.mastermind.views.View" style="stroke:#A80036;stroke-width:1.5;" width="154" x="262" y="277.5"/><ellipse cx="320.75" cy="293.5" fill="#A9DCDF" rx="11" ry="11" style="stroke:#A80036;stroke-width:1.0;"/><path d="M322.8281,295.3125 L323.2188,296.2969 L322.8281,296.2969 C322.375,296.2969 322.2656,296.3125 322.1094,296.4219 C321.8594,296.5781 321.7031,296.8594 321.7031,297.1563 C321.7031,297.4219 321.8438,297.6719 322.0625,297.8281 C322.2031,297.9531 322.4063,298 322.8281,298 L325.1875,298 C325.5469,298 325.7656,297.9688 325.9063,297.875 C326.1563,297.7344 326.3125,297.4375 326.3125,297.1563 C326.3125,296.875 326.1719,296.625 325.9531,296.4688 C325.7813,296.3281 325.625,296.2969 325.1563,296.2969 L321.7656,288.0938 L318.0938,288.0938 C317.6406,288.0938 317.5156,288.1094 317.3594,288.2031 C317.1094,288.375 316.9531,288.6563 316.9531,288.9375 C316.9531,289.2188 317.0938,289.4688 317.3125,289.6406 C317.4844,289.75 317.6563,289.7813 318.0938,289.7813 L319.1719,289.7813 L316.5313,296.2969 C316.1094,296.2969 315.9531,296.3125 315.7969,296.4219 C315.5469,296.5781 315.3906,296.8594 315.3906,297.1563 C315.3906,297.7188 315.7656,298 316.5156,298 L318.7813,298 C319.1406,298 319.3594,297.9688 319.4844,297.875 C319.75,297.7344 319.8906,297.4375 319.8906,297.1563 C319.8906,296.875 319.7656,296.625 319.5469,296.4531 C319.375,296.3281 319.2344,296.2969 318.7813,296.2969 L318.3906,296.2969 L318.7813,295.3125 L322.8281,295.3125 Z M322.125,293.6094 L319.4531,293.6094 L320.7969,290.3438 L322.125,293.6094 Z " fill="#000000"/><text fill="#000000" font-family="sans-serif" font-size="12" font-style="italic" lengthAdjust="spacingAndGlyphs" textLength="28" x="341.25" y="297.6543">View</text><line style="stroke:#A80036;stroke-width:1.5;" x1="263" x2="415" y1="309.5" y2="309.5"/><line style="stroke:#A80036;stroke-width:1.5;" x1="263" x2="415" y1="317.5" y2="317.5"/><ellipse cx="273" cy="328.5" fill="#84BE84" rx="3" ry="3" style="stroke:#038048;stroke-width:1.0;"/><text fill="#000000" font-family="sans-serif" font-size="11" lengthAdjust="spacingAndGlyphs" textLength="65" x="282" y="331.7104">View(Logic)</text><ellipse cx="273" cy="341.3047" fill="#84BE84" rx="3" ry="3" style="stroke:#038048;stroke-width:1.0;"/><text fill="#000000" font-family="sans-serif" font-size="11" lengthAdjust="spacingAndGlyphs" textLength="51" x="282" y="344.5151">interact()</text><polygon fill="#FFFF44" points="273,349.1094,277,353.1094,273,357.1094,269,353.1094" style="stroke:#B38D22;stroke-width:1.0;"/><text fill="#000000" font-family="sans-serif" font-size="11" font-style="italic" lengthAdjust="spacingAndGlyphs" textLength="34" x="282" y="357.3198">start()</text><polygon fill="#FFFF44" points="273,361.9141,277,365.9141,273,369.9141,269,365.9141" style="stroke:#B38D22;stroke-width:1.0;"/><text fill="#000000" font-family="sans-serif" font-size="11" font-style="italic" lengthAdjust="spacingAndGlyphs" textLength="107" x="282" y="370.1245">propose(): boolean</text><polygon fill="#FFFF44" points="273,374.7188,277,378.7188,273,382.7188,269,378.7188" style="stroke:#B38D22;stroke-width:1.0;"/><text fill="#000000" font-family="sans-serif" font-size="11" font-style="italic" lengthAdjust="spacingAndGlyphs" textLength="128" x="282" y="382.9292">isNewGame(): boolean</text><!--MD5=[42fa18dda7351a0ae87d9497de925436]
class Logic--><rect codeLine="1" fill="#FEFECE" filter="url(#f3wmjl986huc2)" height="67.9063" id="Logic" style="stroke:#A80036;stroke-width:1.5;" width="174" x="317" y="488"/><ellipse cx="332" cy="513.9531" fill="#ADD1B2" rx="11" ry="11" style="stroke:#A80036;stroke-width:1.0;"/><path d="M334.3438,509.625 C333.4063,509.1875 332.8125,509.0469 331.9375,509.0469 C329.3125,509.0469 327.3125,511.125 327.3125,513.8438 L327.3125,514.9688 C327.3125,517.5469 329.4219,519.4375 332.3125,519.4375 C333.5313,519.4375 334.6875,519.1406 335.4375,518.5938 C336.0156,518.1875 336.3438,517.7344 336.3438,517.3438 C336.3438,516.8906 335.9531,516.5 335.4844,516.5 C335.2656,516.5 335.0625,516.5781 334.875,516.7656 C334.4219,517.25 334.4219,517.25 334.2344,517.3438 C333.8125,517.6094 333.125,517.7344 332.3594,517.7344 C330.3125,517.7344 329.0156,516.6406 329.0156,514.9375 L329.0156,513.8438 C329.0156,512.0625 330.2656,510.75 332,510.75 C332.5781,510.75 333.1875,510.9063 333.6563,511.1563 C334.1406,511.4375 334.3125,511.6563 334.4063,512.0625 C334.4688,512.4688 334.5,512.5938 334.6406,512.7188 C334.7813,512.8594 335.0156,512.9688 335.2344,512.9688 C335.5,512.9688 335.7656,512.8281 335.9375,512.6094 C336.0469,512.4531 336.0781,512.2656 336.0781,511.8438 L336.0781,510.4219 C336.0781,509.9844 336.0625,509.8594 335.9688,509.7031 C335.8125,509.4375 335.5313,509.2969 335.2344,509.2969 C334.9375,509.2969 334.7344,509.3906 334.5156,509.7031 L334.3438,509.625 Z " fill="#000000"/><text fill="#000000" font-family="sans-serif" font-size="12" lengthAdjust="spacingAndGlyphs" textLength="71" x="381.5" y="504.1387">usantatecla.</text><text fill="#000000" font-family="sans-serif" font-size="12" lengthAdjust="spacingAndGlyphs" textLength="142" x="346" y="518.1074">mastermind.controllers.</text><text fill="#000000" font-family="sans-serif" font-size="12" lengthAdjust="spacingAndGlyphs" textLength="32" x="401" y="532.0762">Logic</text><line style="stroke:#A80036;stroke-width:1.5;" x1="318" x2="490" y1="539.9063" y2="539.9063"/><line style="stroke:#A80036;stroke-width:1.5;" x1="318" x2="490" y1="547.9063" y2="547.9063"/><!--MD5=[11509c13bec66bdef6d221ddecb6273e]
link usantatecla.mastermind.views.WithLogicView to Logic--><path codeLine="6" d="M381.4055,149.8414 C381.4055,149.8414 423.703,206.154 434,239 C462.318,329.332 453.277,359.317 434,452 C432.361,459.8781 429.774,467.9601 426.79,475.6916 " fill="none" id="usantatecla.mastermind.views.WithLogicView-Logic" style="stroke:#A80036;stroke-width:1.0;"/><polygon fill="#A80036" points="421.674,487.8698,428.8476,481.1215,423.6106,483.2601,421.4721,478.023,421.674,487.8698" style="stroke:#A80036;stroke-width:1.0;"/><line style="stroke:#A80036;stroke-width:1.0;" x1="423.6106" x2="426.709" y1="483.2601" y2="475.8846"/><polygon fill="#A80036" points="373.628,140.703,374.4706,147.8647,381.4055,149.8414,380.5629,142.6797,373.628,140.703" style="stroke:#A80036;stroke-width:1.0;"/><!--MD5=[e6917116f9d7be466510c78b88c5091c]
reverse link usantatecla.mastermind.views.WithLogicView to usantatecla.mastermind.views.View--><path codeLine="47" d="M343.64,161.209 C342.705,195.739 341.462,241.604 340.498,277.184 " fill="none" id="usantatecla.mastermind.views.WithLogicView-backto-usantatecla.mastermind.views.View" style="stroke:#A80036;stroke-width:1.0;"/><polygon fill="none" points="336.652,160.676,344.191,140.872,350.647,161.055,336.652,160.676" style="stroke:#A80036;stroke-width:1.0;"/><!--MD5=[dafc96a311a54f3c1c7cf36edc43186c]
link usantatecla.mastermind.views.View to Logic--><path codeLine="48" d="M358.238,389.699 C368.705,419.731 381.387,456.1184 390.743,482.964 " fill="none" id="usantatecla.mastermind.views.View-to-Logic" style="stroke:#A80036;stroke-width:1.0;stroke-dasharray:7.0,7.0;"/><polygon fill="#A80036" points="392.451,487.862,393.2659,478.0469,390.8053,483.1406,385.7116,480.68,392.451,487.862" style="stroke:#A80036;stroke-width:1.0;"/><!--MD5=[6cfd926ea0bbae4f43d9156786ae7a21]
link usantatecla.mastermind.views.ColorView to usantatecla.mastermind.views.ErrorView--><!--MD5=[7c82a1bc9adf46a0fe55a6309a3f2075]
link usantatecla.mastermind.views.ColorView to usantatecla.mastermind.views.Message--><!--MD5=[5ea309fabbf4d9e41bbdcb63fa7cf697]
@startuml
class Logic as "usantatecla.\nmastermind.controllers.\nLogic"

abstract class usantatecla.mastermind.views.WithLogicView {
    + WithLogicView(Logic)
}
usantatecla.mastermind.views.WithLogicView *-down-> Logic

abstract class  usantatecla.mastermind.views.ColorView{
    + {static} INITIALS: char[]
    # color: Color
    # ColorView()
    # ColorView(Color)
    + {static} getInstance(char): Color
    + allInitials(): String
    # abstract resultInitials(int): String
}

abstract class  usantatecla.mastermind.views.ErrorView{
    + MESSAGES: String[]
    # error: Error
    # ErrorView()
    + ErrorView(Error)
    # abstract colorInitials(): String
}

enum  usantatecla.mastermind.views.Message{
    + ATTEMPTS
    + SECRET
    + RESUME
    + RESULT
    + PROPOSED_COMBINATION
    + TITLE
    + WINNER
    + LOOSER
    - message: String
    ~ MessageView(String)
    + getMessage(): String
}

abstract class  usantatecla.mastermind.views.View{
    + View(Logic)
    + interact()
    # {abstract} start()
    # {abstract} propose(): boolean
    # {abstract} isNewGame(): boolean
}
usantatecla.mastermind.views.View -up-|> usantatecla.mastermind.views.WithLogicView
usantatecla.mastermind.views.View .down.> Logic
@enduml

PlantUML version 1.2020.23beta3(Unknown compile time)
(GPL source distribution)
Java Runtime: Java(TM) SE Runtime Environment
JVM: Java HotSpot(TM) 64-Bit Server VM
Default Encoding: UTF-8
Language: en
Country: US
--></g></svg>