<?xml version="1.0" encoding="UTF-8" standalone="no"?>
<svg xmlns="http://www.w3.org/2000/svg" contentScriptType="application/ecmascript" contentStyleType="text/css"
     height="973px" preserveAspectRatio="none" style="width:2098px;height:973px;" version="1.1" viewBox="0 0 2098 973"
     width="2098px" zoomAndPan="magnify"><defs><filter height="300%" id="f7d8c4ga3qaq8" width="300%" x="-1" y="-1"><feGaussianBlur result="blurOut" stdDeviation="2.0"/><feColorMatrix in="blurOut" result="blurOut2" type="matrix" values="0 0 0 0 0 0 0 0 0 0 0 0 0 0 0 0 0 0 .4 0"/><feOffset dx="4.0" dy="4.0" in="blurOut2" result="blurOut3"/><feBlend in="SourceGraphic" in2="blurOut3" mode="normal"/></filter></defs><g><!--MD5=[870a69ce9634146fd8c5498968cba5fd]
cluster usantatecla.mastermind.views.console--><polygon fill="#FFFFFF" filter="url(#f7d8c4ga3qaq8)" points="639.8033,100,963.8033,100,970.8033,122.2969,1497.8023,122.2969,1497.8023,848,639.8033,848,639.8033,100" style="stroke:#000000;stroke-width:1.5;"/><line style="stroke:#000000;stroke-width:1.5;" x1="639.8033" x2="970.8033" y1="122.2969" y2="122.2969"/><text fill="#000000" font-family="sans-serif" font-size="14" font-weight="bold" lengthAdjust="spacingAndGlyphs" textLength="318" x="643.8033" y="114.9951">usantatecla.mastermind.views.console</text><!--MD5=[dd3efb2c58b4e82c246b11a4f49b163b]
class usantatecla.mastermind.views.console.ConsoleView--><rect codeLine="13" fill="#FEFECE" filter="url(#f7d8c4ga3qaq8)" height="99.2188" id="usantatecla.mastermind.views.console.ConsoleView" style="stroke:#A80036;stroke-width:1.5;" width="160" x="736.8033" y="135"/><ellipse cx="774.3033" cy="151" fill="#ADD1B2" rx="11" ry="11" style="stroke:#A80036;stroke-width:1.0;"/><path d="M776.6471,146.6719 C775.7096,146.2344 775.1158,146.0938 774.2408,146.0938 C771.6158,146.0938 769.6158,148.1719 769.6158,150.8906 L769.6158,152.0156 C769.6158,154.5938 771.7252,156.4844 774.6158,156.4844 C775.8346,156.4844 776.9908,156.1875 777.7408,155.6406 C778.3189,155.2344 778.6471,154.7813 778.6471,154.3906 C778.6471,153.9375 778.2564,153.5469 777.7877,153.5469 C777.5689,153.5469 777.3658,153.625 777.1783,153.8125 C776.7252,154.2969 776.7252,154.2969 776.5377,154.3906 C776.1158,154.6563 775.4283,154.7813 774.6627,154.7813 C772.6158,154.7813 771.3189,153.6875 771.3189,151.9844 L771.3189,150.8906 C771.3189,149.1094 772.5689,147.7969 774.3033,147.7969 C774.8814,147.7969 775.4908,147.9531 775.9596,148.2031 C776.4439,148.4844 776.6158,148.7031 776.7096,149.1094 C776.7721,149.5156 776.8033,149.6406 776.9439,149.7656 C777.0846,149.9063 777.3189,150.0156 777.5377,150.0156 C777.8033,150.0156 778.0689,149.875 778.2408,149.6563 C778.3502,149.5 778.3814,149.3125 778.3814,148.8906 L778.3814,147.4688 C778.3814,147.0313 778.3658,146.9063 778.2721,146.75 C778.1158,146.4844 777.8346,146.3438 777.5377,146.3438 C777.2408,146.3438 777.0377,146.4375 776.8189,146.75 L776.6471,146.6719 Z " fill="#000000"/><text fill="#000000" font-family="sans-serif" font-size="12" lengthAdjust="spacingAndGlyphs" textLength="78" x="793.3033" y="155.1543">ConsoleView</text><line style="stroke:#A80036;stroke-width:1.5;" x1="737.8033" x2="895.8033" y1="167" y2="167"/><line style="stroke:#A80036;stroke-width:1.5;" x1="737.8033" x2="895.8033" y1="175" y2="175"/><ellipse cx="747.8033" cy="186" fill="#84BE84" rx="3" ry="3" style="stroke:#038048;stroke-width:1.0;"/><text fill="#000000" font-family="sans-serif" font-size="11" lengthAdjust="spacingAndGlyphs" textLength="111" x="756.8033" y="189.2104">ConsoleView(Logic)</text><polygon fill="#FFFF44" points="747.8033,193.8047,751.8033,197.8047,747.8033,201.8047,743.8033,197.8047" style="stroke:#B38D22;stroke-width:1.0;"/><text fill="#000000" font-family="sans-serif" font-size="11" lengthAdjust="spacingAndGlyphs" textLength="33" x="756.8033" y="202.0151">start()</text><polygon fill="#FFFF44" points="747.8033,206.6094,751.8033,210.6094,747.8033,214.6094,743.8033,210.6094" style="stroke:#B38D22;stroke-width:1.0;"/><text fill="#000000" font-family="sans-serif" font-size="11" lengthAdjust="spacingAndGlyphs" textLength="111" x="756.8033" y="214.8198">propose() : boolean</text><polygon fill="#FFFF44" points="747.8033,219.4141,751.8033,223.4141,747.8033,227.4141,743.8033,223.4141" style="stroke:#B38D22;stroke-width:1.0;"/><text fill="#000000" font-family="sans-serif" font-size="11" lengthAdjust="spacingAndGlyphs" textLength="134" x="756.8033" y="227.6245">isNewGame() : boolean</text><!--MD5=[0443121bcbe511df2c378d392fee4a36]
class usantatecla.mastermind.views.console.StartView--><rect codeLine="34" fill="#FEFECE" filter="url(#f7d8c4ga3qaq8)" height="73.6094" id="usantatecla.mastermind.views.console.StartView" style="stroke:#A80036;stroke-width:1.5;" width="118" x="944.8033" y="440.5"/><ellipse cx="972.8533" cy="456.5" fill="#ADD1B2" rx="11" ry="11" style="stroke:#A80036;stroke-width:1.0;"/><path d="M975.1971,452.1719 C974.2596,451.7344 973.6658,451.5938 972.7908,451.5938 C970.1658,451.5938 968.1658,453.6719 968.1658,456.3906 L968.1658,457.5156 C968.1658,460.0938 970.2752,461.9844 973.1658,461.9844 C974.3846,461.9844 975.5408,461.6875 976.2908,461.1406 C976.8689,460.7344 977.1971,460.2813 977.1971,459.8906 C977.1971,459.4375 976.8064,459.0469 976.3377,459.0469 C976.1189,459.0469 975.9158,459.125 975.7283,459.3125 C975.2752,459.7969 975.2752,459.7969 975.0877,459.8906 C974.6658,460.1563 973.9783,460.2813 973.2127,460.2813 C971.1658,460.2813 969.8689,459.1875 969.8689,457.4844 L969.8689,456.3906 C969.8689,454.6094 971.1189,453.2969 972.8533,453.2969 C973.4314,453.2969 974.0408,453.4531 974.5096,453.7031 C974.9939,453.9844 975.1658,454.2031 975.2596,454.6094 C975.3221,455.0156 975.3533,455.1406 975.4939,455.2656 C975.6346,455.4063 975.8689,455.5156 976.0877,455.5156 C976.3533,455.5156 976.6189,455.375 976.7908,455.1563 C976.9002,455 976.9314,454.8125 976.9314,454.3906 L976.9314,452.9688 C976.9314,452.5313 976.9158,452.4063 976.8221,452.25 C976.6658,451.9844 976.3846,451.8438 976.0877,451.8438 C975.7908,451.8438 975.5877,451.9375 975.3689,452.25 L975.1971,452.1719 Z " fill="#000000"/><text fill="#000000" font-family="sans-serif" font-size="12" lengthAdjust="spacingAndGlyphs" textLength="57" x="989.7533" y="460.6543">StartView</text><line style="stroke:#A80036;stroke-width:1.5;" x1="945.8033" x2="1061.8033" y1="472.5" y2="472.5"/><line style="stroke:#A80036;stroke-width:1.5;" x1="945.8033" x2="1061.8033" y1="480.5" y2="480.5"/><rect fill="#F24D5C" height="6" style="stroke:#C82930;stroke-width:1.0;" width="6" x="952.8033" y="488.5"/><text fill="#000000" font-family="sans-serif" font-size="11" lengthAdjust="spacingAndGlyphs" textLength="92" x="964.8033" y="494.7104">StartView(Logic)</text><polygon fill="#4177AF" points="955.8033,500.3047,951.8033,506.3047,959.8033,506.3047" style="stroke:#1963A0;stroke-width:1.0;"/><text fill="#000000" font-family="sans-serif" font-size="11" lengthAdjust="spacingAndGlyphs" textLength="51" x="964.8033" y="507.5151">interact()</text><!--MD5=[3fc381aa527804d9b0f68b14a0cbd981]
class usantatecla.mastermind.views.console.ProposalView--><rect codeLine="57" fill="#FEFECE" filter="url(#f7d8c4ga3qaq8)" height="73.6094" id="usantatecla.mastermind.views.console.ProposalView" style="stroke:#A80036;stroke-width:1.5;" width="138" x="828.8033" y="294"/><ellipse cx="855.0533" cy="310" fill="#ADD1B2" rx="11" ry="11" style="stroke:#A80036;stroke-width:1.0;"/><path d="M857.3971,305.6719 C856.4596,305.2344 855.8658,305.0938 854.9908,305.0938 C852.3658,305.0938 850.3658,307.1719 850.3658,309.8906 L850.3658,311.0156 C850.3658,313.5938 852.4752,315.4844 855.3658,315.4844 C856.5846,315.4844 857.7408,315.1875 858.4908,314.6406 C859.0689,314.2344 859.3971,313.7813 859.3971,313.3906 C859.3971,312.9375 859.0064,312.5469 858.5377,312.5469 C858.3189,312.5469 858.1158,312.625 857.9283,312.8125 C857.4752,313.2969 857.4752,313.2969 857.2877,313.3906 C856.8658,313.6563 856.1783,313.7813 855.4127,313.7813 C853.3658,313.7813 852.0689,312.6875 852.0689,310.9844 L852.0689,309.8906 C852.0689,308.1094 853.3189,306.7969 855.0533,306.7969 C855.6314,306.7969 856.2408,306.9531 856.7096,307.2031 C857.1939,307.4844 857.3658,307.7031 857.4596,308.1094 C857.5221,308.5156 857.5533,308.6406 857.6939,308.7656 C857.8346,308.9063 858.0689,309.0156 858.2877,309.0156 C858.5533,309.0156 858.8189,308.875 858.9908,308.6563 C859.1002,308.5 859.1314,308.3125 859.1314,307.8906 L859.1314,306.4688 C859.1314,306.0313 859.1158,305.9063 859.0221,305.75 C858.8658,305.4844 858.5846,305.3438 858.2877,305.3438 C857.9908,305.3438 857.7877,305.4375 857.5689,305.75 L857.3971,305.6719 Z " fill="#000000"/><text fill="#000000" font-family="sans-serif" font-size="12" lengthAdjust="spacingAndGlyphs" textLength="81" x="871.5533" y="314.1543">ProposalView</text><line style="stroke:#A80036;stroke-width:1.5;" x1="829.8033" x2="965.8033" y1="326" y2="326"/><line style="stroke:#A80036;stroke-width:1.5;" x1="829.8033" x2="965.8033" y1="334" y2="334"/><polygon fill="#4177AF" points="839.8033,341,835.8033,347,843.8033,347" style="stroke:#1963A0;stroke-width:1.0;"/><text fill="#000000" font-family="sans-serif" font-size="11" lengthAdjust="spacingAndGlyphs" textLength="112" x="848.8033" y="348.2104">ProposalView(Logic)</text><polygon fill="#4177AF" points="839.8033,353.8047,835.8033,359.8047,843.8033,359.8047" style="stroke:#1963A0;stroke-width:1.0;"/><text fill="#000000" font-family="sans-serif" font-size="11" lengthAdjust="spacingAndGlyphs" textLength="108" x="848.8033" y="361.0151">interact() : boolean</text><!--MD5=[9bc3463fd80c6188f2068243b6359e84]
class usantatecla.mastermind.views.console.ResumeView--><rect codeLine="25" fill="#FEFECE" filter="url(#f7d8c4ga3qaq8)" height="73.6094" id="usantatecla.mastermind.views.console.ResumeView" style="stroke:#A80036;stroke-width:1.5;" width="138" x="655.8033" y="294"/><ellipse cx="683.8533" cy="310" fill="#ADD1B2" rx="11" ry="11" style="stroke:#A80036;stroke-width:1.0;"/><path d="M686.1971,305.6719 C685.2596,305.2344 684.6658,305.0938 683.7908,305.0938 C681.1658,305.0938 679.1658,307.1719 679.1658,309.8906 L679.1658,311.0156 C679.1658,313.5938 681.2752,315.4844 684.1658,315.4844 C685.3846,315.4844 686.5408,315.1875 687.2908,314.6406 C687.8689,314.2344 688.1971,313.7813 688.1971,313.3906 C688.1971,312.9375 687.8064,312.5469 687.3377,312.5469 C687.1189,312.5469 686.9158,312.625 686.7283,312.8125 C686.2752,313.2969 686.2752,313.2969 686.0877,313.3906 C685.6658,313.6563 684.9783,313.7813 684.2127,313.7813 C682.1658,313.7813 680.8689,312.6875 680.8689,310.9844 L680.8689,309.8906 C680.8689,308.1094 682.1189,306.7969 683.8533,306.7969 C684.4314,306.7969 685.0408,306.9531 685.5096,307.2031 C685.9939,307.4844 686.1658,307.7031 686.2596,308.1094 C686.3221,308.5156 686.3533,308.6406 686.4939,308.7656 C686.6346,308.9063 686.8689,309.0156 687.0877,309.0156 C687.3533,309.0156 687.6189,308.875 687.7908,308.6563 C687.9002,308.5 687.9314,308.3125 687.9314,307.8906 L687.9314,306.4688 C687.9314,306.0313 687.9158,305.9063 687.8221,305.75 C687.6658,305.4844 687.3846,305.3438 687.0877,305.3438 C686.7908,305.3438 686.5877,305.4375 686.3689,305.75 L686.1971,305.6719 Z " fill="#000000"/><text fill="#000000" font-family="sans-serif" font-size="12" lengthAdjust="spacingAndGlyphs" textLength="77" x="700.7533" y="314.1543">ResumeView</text><line style="stroke:#A80036;stroke-width:1.5;" x1="656.8033" x2="792.8033" y1="326" y2="326"/><line style="stroke:#A80036;stroke-width:1.5;" x1="656.8033" x2="792.8033" y1="334" y2="334"/><polygon fill="#4177AF" points="666.8033,341,662.8033,347,670.8033,347" style="stroke:#1963A0;stroke-width:1.0;"/><text fill="#000000" font-family="sans-serif" font-size="11" lengthAdjust="spacingAndGlyphs" textLength="112" x="675.8033" y="348.2104">ResumeView(Logic)</text><polygon fill="#4177AF" points="666.8033,353.8047,662.8033,359.8047,670.8033,359.8047" style="stroke:#1963A0;stroke-width:1.0;"/><text fill="#000000" font-family="sans-serif" font-size="11" lengthAdjust="spacingAndGlyphs" textLength="108" x="675.8033" y="361.0151">interact() : boolean</text><!--MD5=[6895d7787d38d293342c8d69eaf320fc]
class usantatecla.mastermind.views.console.SecretCombinationView--><rect codeLine="81" fill="#FEFECE" filter="url(#f7d8c4ga3qaq8)" height="73.6094" id="usantatecla.mastermind.views.console.SecretCombinationView" style="stroke:#A80036;stroke-width:1.5;" width="200" x="692.8033" y="593"/><ellipse cx="719.0533" cy="609" fill="#ADD1B2" rx="11" ry="11" style="stroke:#A80036;stroke-width:1.0;"/><path d="M721.3971,604.6719 C720.4596,604.2344 719.8658,604.0938 718.9908,604.0938 C716.3658,604.0938 714.3658,606.1719 714.3658,608.8906 L714.3658,610.0156 C714.3658,612.5938 716.4752,614.4844 719.3658,614.4844 C720.5846,614.4844 721.7408,614.1875 722.4908,613.6406 C723.0689,613.2344 723.3971,612.7813 723.3971,612.3906 C723.3971,611.9375 723.0064,611.5469 722.5377,611.5469 C722.3189,611.5469 722.1158,611.625 721.9283,611.8125 C721.4752,612.2969 721.4752,612.2969 721.2877,612.3906 C720.8658,612.6563 720.1783,612.7813 719.4127,612.7813 C717.3658,612.7813 716.0689,611.6875 716.0689,609.9844 L716.0689,608.8906 C716.0689,607.1094 717.3189,605.7969 719.0533,605.7969 C719.6314,605.7969 720.2408,605.9531 720.7096,606.2031 C721.1939,606.4844 721.3658,606.7031 721.4596,607.1094 C721.5221,607.5156 721.5533,607.6406 721.6939,607.7656 C721.8346,607.9063 722.0689,608.0156 722.2877,608.0156 C722.5533,608.0156 722.8189,607.875 722.9908,607.6563 C723.1002,607.5 723.1314,607.3125 723.1314,606.8906 L723.1314,605.4688 C723.1314,605.0313 723.1158,604.9063 723.0221,604.75 C722.8658,604.4844 722.5846,604.3438 722.2877,604.3438 C721.9908,604.3438 721.7877,604.4375 721.5689,604.75 L721.3971,604.6719 Z " fill="#000000"/><text fill="#000000" font-family="sans-serif" font-size="12" lengthAdjust="spacingAndGlyphs" textLength="143" x="735.5533" y="613.1543">SecretCombinationView</text><line style="stroke:#A80036;stroke-width:1.5;" x1="693.8033" x2="891.8033" y1="625" y2="625"/><line style="stroke:#A80036;stroke-width:1.5;" x1="693.8033" x2="891.8033" y1="633" y2="633"/><polygon fill="#4177AF" points="703.8033,640,699.8033,646,707.8033,646" style="stroke:#1963A0;stroke-width:1.0;"/><text fill="#000000" font-family="sans-serif" font-size="11" lengthAdjust="spacingAndGlyphs" textLength="174" x="712.8033" y="647.2104">SecretCombinationView(Logic)</text><polygon fill="#4177AF" points="703.8033,652.8047,699.8033,658.8047,707.8033,658.8047" style="stroke:#1963A0;stroke-width:1.0;"/><text fill="#000000" font-family="sans-serif" font-size="11" lengthAdjust="spacingAndGlyphs" textLength="46" x="712.8033" y="660.0151">writeln()</text><!--MD5=[5d8d3b26785111685f5f40cebb1fba2a]
class usantatecla.mastermind.views.console.GameView--><rect codeLine="43" fill="#FEFECE" filter="url(#f7d8c4ga3qaq8)" height="86.4141" id="usantatecla.mastermind.views.console.GameView" style="stroke:#A80036;stroke-width:1.5;" width="284" x="1097.8023" y="434.5"/><ellipse cx="1203.5523" cy="450.5" fill="#ADD1B2" rx="11" ry="11" style="stroke:#A80036;stroke-width:1.0;"/><path d="M1205.896,446.1719 C1204.9585,445.7344 1204.3648,445.5938 1203.4898,445.5938 C1200.8648,445.5938 1198.8648,447.6719 1198.8648,450.3906 L1198.8648,451.5156 C1198.8648,454.0938 1200.9742,455.9844 1203.8648,455.9844 C1205.0835,455.9844 1206.2398,455.6875 1206.9898,455.1406 C1207.5679,454.7344 1207.896,454.2813 1207.896,453.8906 C1207.896,453.4375 1207.5054,453.0469 1207.0367,453.0469 C1206.8179,453.0469 1206.6148,453.125 1206.4273,453.3125 C1205.9742,453.7969 1205.9742,453.7969 1205.7867,453.8906 C1205.3648,454.1563 1204.6773,454.2813 1203.9117,454.2813 C1201.8648,454.2813 1200.5679,453.1875 1200.5679,451.4844 L1200.5679,450.3906 C1200.5679,448.6094 1201.8179,447.2969 1203.5523,447.2969 C1204.1304,447.2969 1204.7398,447.4531 1205.2085,447.7031 C1205.6929,447.9844 1205.8648,448.2031 1205.9585,448.6094 C1206.021,449.0156 1206.0523,449.1406 1206.1929,449.2656 C1206.3335,449.4063 1206.5679,449.5156 1206.7867,449.5156 C1207.0523,449.5156 1207.3179,449.375 1207.4898,449.1563 C1207.5992,449 1207.6304,448.8125 1207.6304,448.3906 L1207.6304,446.9688 C1207.6304,446.5313 1207.6148,446.4063 1207.521,446.25 C1207.3648,445.9844 1207.0835,445.8438 1206.7867,445.8438 C1206.4898,445.8438 1206.2867,445.9375 1206.0679,446.25 L1205.896,446.1719 Z " fill="#000000"/><text fill="#000000" font-family="sans-serif" font-size="12" lengthAdjust="spacingAndGlyphs" textLength="64" x="1224.0523" y="454.6543">GameView</text><line style="stroke:#A80036;stroke-width:1.5;" x1="1098.8023" x2="1380.8023" y1="466.5" y2="466.5"/><line style="stroke:#A80036;stroke-width:1.5;" x1="1098.8023" x2="1380.8023" y1="474.5" y2="474.5"/><polygon fill="#4177AF" points="1108.8023,481.5,1104.8023,487.5,1112.8023,487.5" style="stroke:#1963A0;stroke-width:1.0;"/><text fill="#000000" font-family="sans-serif" font-size="11" lengthAdjust="spacingAndGlyphs" textLength="258" x="1117.8023" y="488.7104">GameView(Logic, ProposedCombinationView)</text><polygon fill="#4177AF" points="1108.8023,494.3047,1104.8023,500.3047,1112.8023,500.3047" style="stroke:#1963A0;stroke-width:1.0;"/><text fill="#000000" font-family="sans-serif" font-size="11" lengthAdjust="spacingAndGlyphs" textLength="36" x="1117.8023" y="501.5151">write()</text><polygon fill="#4177AF" points="1108.8023,507.1094,1104.8023,513.1094,1112.8023,513.1094" style="stroke:#1963A0;stroke-width:1.0;"/><text fill="#000000" font-family="sans-serif" font-size="11" lengthAdjust="spacingAndGlyphs" textLength="165" x="1117.8023" y="514.3198">isWinnerOrLooser() : boolean</text><!--MD5=[b9e96ebb3841247a1bc6f6a4b0e36cb2]
class usantatecla.mastermind.views.console.ProposedCombinationView--><rect codeLine="69" fill="#FEFECE" filter="url(#f7d8c4ga3qaq8)" height="86.4141" id="usantatecla.mastermind.views.console.ProposedCombinationView" style="stroke:#A80036;stroke-width:1.5;" width="214" x="927.8033" y="587"/><ellipse cx="952.2533" cy="603" fill="#ADD1B2" rx="11" ry="11" style="stroke:#A80036;stroke-width:1.0;"/><path d="M954.5971,598.6719 C953.6596,598.2344 953.0658,598.0938 952.1908,598.0938 C949.5658,598.0938 947.5658,600.1719 947.5658,602.8906 L947.5658,604.0156 C947.5658,606.5938 949.6752,608.4844 952.5658,608.4844 C953.7846,608.4844 954.9408,608.1875 955.6908,607.6406 C956.2689,607.2344 956.5971,606.7813 956.5971,606.3906 C956.5971,605.9375 956.2064,605.5469 955.7377,605.5469 C955.5189,605.5469 955.3158,605.625 955.1283,605.8125 C954.6752,606.2969 954.6752,606.2969 954.4877,606.3906 C954.0658,606.6563 953.3783,606.7813 952.6127,606.7813 C950.5658,606.7813 949.2689,605.6875 949.2689,603.9844 L949.2689,602.8906 C949.2689,601.1094 950.5189,599.7969 952.2533,599.7969 C952.8314,599.7969 953.4408,599.9531 953.9096,600.2031 C954.3939,600.4844 954.5658,600.7031 954.6596,601.1094 C954.7221,601.5156 954.7533,601.6406 954.8939,601.7656 C955.0346,601.9063 955.2689,602.0156 955.4877,602.0156 C955.7533,602.0156 956.0189,601.875 956.1908,601.6563 C956.3002,601.5 956.3314,601.3125 956.3314,600.8906 L956.3314,599.4688 C956.3314,599.0313 956.3158,598.9063 956.2221,598.75 C956.0658,598.4844 955.7846,598.3438 955.4877,598.3438 C955.1908,598.3438 954.9877,598.4375 954.7689,598.75 L954.5971,598.6719 Z " fill="#000000"/><text fill="#000000" font-family="sans-serif" font-size="12" lengthAdjust="spacingAndGlyphs" textLength="161" x="968.3533" y="607.1543">ProposedCombinationView</text><line style="stroke:#A80036;stroke-width:1.5;" x1="928.8033" x2="1140.8033" y1="619" y2="619"/><line style="stroke:#A80036;stroke-width:1.5;" x1="928.8033" x2="1140.8033" y1="627" y2="627"/><polygon fill="#4177AF" points="938.8033,634,934.8033,640,942.8033,640" style="stroke:#1963A0;stroke-width:1.0;"/><text fill="#000000" font-family="sans-serif" font-size="11" lengthAdjust="spacingAndGlyphs" textLength="188" x="947.8033" y="641.2104">ProposedCombinationView(Logic)</text><polygon fill="#4177AF" points="938.8033,646.8047,934.8033,652.8047,942.8033,652.8047" style="stroke:#1963A0;stroke-width:1.0;"/><text fill="#000000" font-family="sans-serif" font-size="11" lengthAdjust="spacingAndGlyphs" textLength="50" x="947.8033" y="654.0151">write(int)</text><polygon fill="#4177AF" points="938.8033,659.6094,934.8033,665.6094,942.8033,665.6094" style="stroke:#1963A0;stroke-width:1.0;"/><text fill="#000000" font-family="sans-serif" font-size="11" lengthAdjust="spacingAndGlyphs" textLength="107" x="947.8033" y="666.8198">read(): List&lt;Color&gt;</text><!--MD5=[f72db8a2bcbe9ab8c7a89f2fd89e6b01]
class usantatecla.mastermind.views.console.ResultView--><rect codeLine="90" fill="#FEFECE" filter="url(#f7d8c4ga3qaq8)" height="73.6094" id="usantatecla.mastermind.views.console.ResultView" style="stroke:#A80036;stroke-width:1.5;" width="126" x="1176.8023" y="593"/><ellipse cx="1204.8523" cy="609" fill="#ADD1B2" rx="11" ry="11" style="stroke:#A80036;stroke-width:1.0;"/><path d="M1207.196,604.6719 C1206.2585,604.2344 1205.6648,604.0938 1204.7898,604.0938 C1202.1648,604.0938 1200.1648,606.1719 1200.1648,608.8906 L1200.1648,610.0156 C1200.1648,612.5938 1202.2742,614.4844 1205.1648,614.4844 C1206.3835,614.4844 1207.5398,614.1875 1208.2898,613.6406 C1208.8679,613.2344 1209.196,612.7813 1209.196,612.3906 C1209.196,611.9375 1208.8054,611.5469 1208.3367,611.5469 C1208.1179,611.5469 1207.9148,611.625 1207.7273,611.8125 C1207.2742,612.2969 1207.2742,612.2969 1207.0867,612.3906 C1206.6648,612.6563 1205.9773,612.7813 1205.2117,612.7813 C1203.1648,612.7813 1201.8679,611.6875 1201.8679,609.9844 L1201.8679,608.8906 C1201.8679,607.1094 1203.1179,605.7969 1204.8523,605.7969 C1205.4304,605.7969 1206.0398,605.9531 1206.5085,606.2031 C1206.9929,606.4844 1207.1648,606.7031 1207.2585,607.1094 C1207.321,607.5156 1207.3523,607.6406 1207.4929,607.7656 C1207.6335,607.9063 1207.8679,608.0156 1208.0867,608.0156 C1208.3523,608.0156 1208.6179,607.875 1208.7898,607.6563 C1208.8992,607.5 1208.9304,607.3125 1208.9304,606.8906 L1208.9304,605.4688 C1208.9304,605.0313 1208.9148,604.9063 1208.821,604.75 C1208.6648,604.4844 1208.3835,604.3438 1208.0867,604.3438 C1207.7898,604.3438 1207.5867,604.4375 1207.3679,604.75 L1207.196,604.6719 Z " fill="#000000"/><text fill="#000000" font-family="sans-serif" font-size="12" lengthAdjust="spacingAndGlyphs" textLength="65" x="1221.7523" y="613.1543">ResultView</text><line style="stroke:#A80036;stroke-width:1.5;" x1="1177.8023" x2="1301.8023" y1="625" y2="625"/><line style="stroke:#A80036;stroke-width:1.5;" x1="1177.8023" x2="1301.8023" y1="633" y2="633"/><polygon fill="#4177AF" points="1187.8023,640,1183.8023,646,1191.8023,646" style="stroke:#1963A0;stroke-width:1.0;"/><text fill="#000000" font-family="sans-serif" font-size="11" lengthAdjust="spacingAndGlyphs" textLength="100" x="1196.8023" y="647.2104">ResultView(Logic)</text><polygon fill="#4177AF" points="1187.8023,652.8047,1183.8023,658.8047,1191.8023,658.8047" style="stroke:#1963A0;stroke-width:1.0;"/><text fill="#000000" font-family="sans-serif" font-size="11" lengthAdjust="spacingAndGlyphs" textLength="60" x="1196.8023" y="660.0151">writeln(int)</text><!--MD5=[0738facfc05fd0e5380c8577e6609970]
class usantatecla.mastermind.views.console.AttemptsView--><rect codeLine="99" fill="#FEFECE" filter="url(#f7d8c4ga3qaq8)" height="73.6094" id="usantatecla.mastermind.views.console.AttemptsView" style="stroke:#A80036;stroke-width:1.5;" width="143" x="1338.3023" y="593"/><ellipse cx="1365.9023" cy="609" fill="#ADD1B2" rx="11" ry="11" style="stroke:#A80036;stroke-width:1.0;"/><path d="M1368.246,604.6719 C1367.3085,604.2344 1366.7148,604.0938 1365.8398,604.0938 C1363.2148,604.0938 1361.2148,606.1719 1361.2148,608.8906 L1361.2148,610.0156 C1361.2148,612.5938 1363.3242,614.4844 1366.2148,614.4844 C1367.4335,614.4844 1368.5898,614.1875 1369.3398,613.6406 C1369.9179,613.2344 1370.246,612.7813 1370.246,612.3906 C1370.246,611.9375 1369.8554,611.5469 1369.3867,611.5469 C1369.1679,611.5469 1368.9648,611.625 1368.7773,611.8125 C1368.3242,612.2969 1368.3242,612.2969 1368.1367,612.3906 C1367.7148,612.6563 1367.0273,612.7813 1366.2617,612.7813 C1364.2148,612.7813 1362.9179,611.6875 1362.9179,609.9844 L1362.9179,608.8906 C1362.9179,607.1094 1364.1679,605.7969 1365.9023,605.7969 C1366.4804,605.7969 1367.0898,605.9531 1367.5585,606.2031 C1368.0429,606.4844 1368.2148,606.7031 1368.3085,607.1094 C1368.371,607.5156 1368.4023,607.6406 1368.5429,607.7656 C1368.6835,607.9063 1368.9179,608.0156 1369.1367,608.0156 C1369.4023,608.0156 1369.6679,607.875 1369.8398,607.6563 C1369.9492,607.5 1369.9804,607.3125 1369.9804,606.8906 L1369.9804,605.4688 C1369.9804,605.0313 1369.9648,604.9063 1369.871,604.75 C1369.7148,604.4844 1369.4335,604.3438 1369.1367,604.3438 C1368.8398,604.3438 1368.6367,604.4375 1368.4179,604.75 L1368.246,604.6719 Z " fill="#000000"/><text fill="#000000" font-family="sans-serif" font-size="12" lengthAdjust="spacingAndGlyphs" textLength="83" x="1382.7023" y="613.1543">AttemptsView</text><line style="stroke:#A80036;stroke-width:1.5;" x1="1339.3023" x2="1480.3023" y1="625" y2="625"/><line style="stroke:#A80036;stroke-width:1.5;" x1="1339.3023" x2="1480.3023" y1="633" y2="633"/><polygon fill="#4177AF" points="1349.3023,640,1345.3023,646,1353.3023,646" style="stroke:#1963A0;stroke-width:1.0;"/><text fill="#000000" font-family="sans-serif" font-size="11" lengthAdjust="spacingAndGlyphs" textLength="117" x="1358.3023" y="647.2104">AttemptsView(Logic)</text><ellipse cx="1349.3023" cy="656.8047" fill="#84BE84" rx="3" ry="3" style="stroke:#038048;stroke-width:1.0;"/><text fill="#000000" font-family="sans-serif" font-size="11" lengthAdjust="spacingAndGlyphs" textLength="46" x="1358.3023" y="660.0151">writeln()</text><!--MD5=[f95016829e4a1954e9b815203fd5b79a]
class usantatecla.mastermind.views.console.ErrorView--><rect codeLine="119" fill="#FEFECE" filter="url(#f7d8c4ga3qaq8)" height="99.2188" id="usantatecla.mastermind.views.console.ErrorView" style="stroke:#A80036;stroke-width:1.5;" width="141" x="768.3033" y="428"/><ellipse cx="805.8033" cy="444" fill="#ADD1B2" rx="11" ry="11" style="stroke:#A80036;stroke-width:1.0;"/><path d="M808.1471,439.6719 C807.2096,439.2344 806.6158,439.0938 805.7408,439.0938 C803.1158,439.0938 801.1158,441.1719 801.1158,443.8906 L801.1158,445.0156 C801.1158,447.5938 803.2252,449.4844 806.1158,449.4844 C807.3346,449.4844 808.4908,449.1875 809.2408,448.6406 C809.8189,448.2344 810.1471,447.7813 810.1471,447.3906 C810.1471,446.9375 809.7564,446.5469 809.2877,446.5469 C809.0689,446.5469 808.8658,446.625 808.6783,446.8125 C808.2252,447.2969 808.2252,447.2969 808.0377,447.3906 C807.6158,447.6563 806.9283,447.7813 806.1627,447.7813 C804.1158,447.7813 802.8189,446.6875 802.8189,444.9844 L802.8189,443.8906 C802.8189,442.1094 804.0689,440.7969 805.8033,440.7969 C806.3814,440.7969 806.9908,440.9531 807.4596,441.2031 C807.9439,441.4844 808.1158,441.7031 808.2096,442.1094 C808.2721,442.5156 808.3033,442.6406 808.4439,442.7656 C808.5846,442.9063 808.8189,443.0156 809.0377,443.0156 C809.3033,443.0156 809.5689,442.875 809.7408,442.6563 C809.8502,442.5 809.8814,442.3125 809.8814,441.8906 L809.8814,440.4688 C809.8814,440.0313 809.8658,439.9063 809.7721,439.75 C809.6158,439.4844 809.3346,439.3438 809.0377,439.3438 C808.7408,439.3438 808.5377,439.4375 808.3189,439.75 L808.1471,439.6719 Z " fill="#000000"/><text fill="#000000" font-family="sans-serif" font-size="12" lengthAdjust="spacingAndGlyphs" textLength="59" x="824.8033" y="448.1543">ErrorView</text><line style="stroke:#A80036;stroke-width:1.5;" x1="769.3033" x2="908.3033" y1="460" y2="460"/><line style="stroke:#A80036;stroke-width:1.5;" x1="769.3033" x2="908.3033" y1="468" y2="468"/><polygon fill="#4177AF" points="779.3033,475,775.3033,481,783.3033,481" style="stroke:#1963A0;stroke-width:1.0;"/><text fill="#000000" font-family="sans-serif" font-size="11" lengthAdjust="spacingAndGlyphs" textLength="62" x="788.3033" y="482.2104">ErrorView()</text><polygon fill="#4177AF" points="779.3033,487.8047,775.3033,493.8047,783.3033,493.8047" style="stroke:#1963A0;stroke-width:1.0;"/><text fill="#000000" font-family="sans-serif" font-size="11" lengthAdjust="spacingAndGlyphs" textLength="88" x="788.3033" y="495.0151">ErrorView(Error)</text><polygon fill="#4177AF" points="779.3033,500.6094,775.3033,506.6094,783.3033,506.6094" style="stroke:#1963A0;stroke-width:1.0;"/><text fill="#000000" font-family="sans-serif" font-size="11" lengthAdjust="spacingAndGlyphs" textLength="46" x="788.3033" y="507.8198">writeln()</text><polygon fill="#FFFF44" points="779.3033,512.4141,783.3033,516.4141,779.3033,520.4141,775.3033,516.4141" style="stroke:#B38D22;stroke-width:1.0;"/><text fill="#000000" font-family="sans-serif" font-size="11" lengthAdjust="spacingAndGlyphs" textLength="115" x="788.3033" y="520.6245">colorInitials() : String</text><!--MD5=[8568eedd71fb556356f784345d001495]
class usantatecla.mastermind.views.console.ColorView--><rect codeLine="108" fill="#FEFECE" filter="url(#f7d8c4ga3qaq8)" height="99.2188" id="usantatecla.mastermind.views.console.ColorView" style="stroke:#A80036;stroke-width:1.5;" width="160" x="955.8033" y="733"/><ellipse cx="1001.0533" cy="749" fill="#ADD1B2" rx="11" ry="11" style="stroke:#A80036;stroke-width:1.0;"/><path d="M1003.3971,744.6719 C1002.4596,744.2344 1001.8658,744.0938 1000.9908,744.0938 C998.3658,744.0938 996.3658,746.1719 996.3658,748.8906 L996.3658,750.0156 C996.3658,752.5938 998.4752,754.4844 1001.3658,754.4844 C1002.5846,754.4844 1003.7408,754.1875 1004.4908,753.6406 C1005.0689,753.2344 1005.3971,752.7813 1005.3971,752.3906 C1005.3971,751.9375 1005.0064,751.5469 1004.5377,751.5469 C1004.3189,751.5469 1004.1158,751.625 1003.9283,751.8125 C1003.4752,752.2969 1003.4752,752.2969 1003.2877,752.3906 C1002.8658,752.6563 1002.1783,752.7813 1001.4127,752.7813 C999.3658,752.7813 998.0689,751.6875 998.0689,749.9844 L998.0689,748.8906 C998.0689,747.1094 999.3189,745.7969 1001.0533,745.7969 C1001.6314,745.7969 1002.2408,745.9531 1002.7096,746.2031 C1003.1939,746.4844 1003.3658,746.7031 1003.4596,747.1094 C1003.5221,747.5156 1003.5533,747.6406 1003.6939,747.7656 C1003.8346,747.9063 1004.0689,748.0156 1004.2877,748.0156 C1004.5533,748.0156 1004.8189,747.875 1004.9908,747.6563 C1005.1002,747.5 1005.1314,747.3125 1005.1314,746.8906 L1005.1314,745.4688 C1005.1314,745.0313 1005.1158,744.9063 1005.0221,744.75 C1004.8658,744.4844 1004.5846,744.3438 1004.2877,744.3438 C1003.9908,744.3438 1003.7877,744.4375 1003.5689,744.75 L1003.3971,744.6719 Z " fill="#000000"/><text fill="#000000" font-family="sans-serif" font-size="12" lengthAdjust="spacingAndGlyphs" textLength="61" x="1021.5533" y="753.1543">ColorView</text><line style="stroke:#A80036;stroke-width:1.5;" x1="956.8033" x2="1114.8033" y1="765" y2="765"/><line style="stroke:#A80036;stroke-width:1.5;" x1="956.8033" x2="1114.8033" y1="773" y2="773"/><polygon fill="#4177AF" points="966.8033,780,962.8033,786,970.8033,786" style="stroke:#1963A0;stroke-width:1.0;"/><text fill="#000000" font-family="sans-serif" font-size="11" lengthAdjust="spacingAndGlyphs" textLength="65" x="975.8033" y="787.2104">ColorView()</text><polygon fill="#4177AF" points="966.8033,792.8047,962.8033,798.8047,970.8033,798.8047" style="stroke:#1963A0;stroke-width:1.0;"/><text fill="#000000" font-family="sans-serif" font-size="11" lengthAdjust="spacingAndGlyphs" textLength="94" x="975.8033" y="800.0151">ColorView(Color)</text><polygon fill="#FFFF44" points="966.8033,804.6094,970.8033,808.6094,966.8033,812.6094,962.8033,808.6094" style="stroke:#B38D22;stroke-width:1.0;"/><text fill="#000000" font-family="sans-serif" font-size="11" lengthAdjust="spacingAndGlyphs" textLength="134" x="975.8033" y="812.8198">resultInitials(int) : String</text><polygon fill="#4177AF" points="966.8033,818.4141,962.8033,824.4141,970.8033,824.4141" style="stroke:#1963A0;stroke-width:1.0;"/><text fill="#000000" font-family="sans-serif" font-size="11" lengthAdjust="spacingAndGlyphs" textLength="36" x="975.8033" y="825.6245">write()</text><!--MD5=[42fa18dda7351a0ae87d9497de925436]
class Logic--><rect codeLine="1" fill="#FEFECE" filter="url(#f7d8c4ga3qaq8)" height="67.9063" id="Logic" style="stroke:#A80036;stroke-width:1.5;" width="174" x="270.8033" y="748.5"/><ellipse cx="285.8033" cy="774.4531" fill="#ADD1B2" rx="11" ry="11" style="stroke:#A80036;stroke-width:1.0;"/><path d="M288.1471,770.125 C287.2096,769.6875 286.6158,769.5469 285.7408,769.5469 C283.1158,769.5469 281.1158,771.625 281.1158,774.3438 L281.1158,775.4688 C281.1158,778.0469 283.2252,779.9375 286.1158,779.9375 C287.3346,779.9375 288.4908,779.6406 289.2408,779.0938 C289.8189,778.6875 290.1471,778.2344 290.1471,777.8438 C290.1471,777.3906 289.7564,777 289.2877,777 C289.0689,777 288.8658,777.0781 288.6783,777.2656 C288.2252,777.75 288.2252,777.75 288.0377,777.8438 C287.6158,778.1094 286.9283,778.2344 286.1627,778.2344 C284.1158,778.2344 282.8189,777.1406 282.8189,775.4375 L282.8189,774.3438 C282.8189,772.5625 284.0689,771.25 285.8033,771.25 C286.3814,771.25 286.9908,771.4063 287.4596,771.6563 C287.9439,771.9375 288.1158,772.1563 288.2096,772.5625 C288.2721,772.9688 288.3033,773.0938 288.4439,773.2188 C288.5846,773.3594 288.8189,773.4688 289.0377,773.4688 C289.3033,773.4688 289.5689,773.3281 289.7408,773.1094 C289.8502,772.9531 289.8814,772.7656 289.8814,772.3438 L289.8814,770.9219 C289.8814,770.4844 289.8658,770.3594 289.7721,770.2031 C289.6158,769.9375 289.3346,769.7969 289.0377,769.7969 C288.7408,769.7969 288.5377,769.8906 288.3189,770.2031 L288.1471,770.125 Z " fill="#000000"/><text fill="#000000" font-family="sans-serif" font-size="12" lengthAdjust="spacingAndGlyphs" textLength="71" x="335.3033" y="764.6387">usantatecla.</text><text fill="#000000" font-family="sans-serif" font-size="12" lengthAdjust="spacingAndGlyphs" textLength="142" x="299.8033" y="778.6074">mastermind.controllers.</text><text fill="#000000" font-family="sans-serif" font-size="12" lengthAdjust="spacingAndGlyphs" textLength="32" x="354.8033" y="792.5762">Logic</text><line style="stroke:#A80036;stroke-width:1.5;" x1="271.8033" x2="443.8033" y1="800.4063" y2="800.4063"/><line style="stroke:#A80036;stroke-width:1.5;" x1="271.8033" x2="443.8033" y1="808.4063" y2="808.4063"/><!--MD5=[b8cfd8c4119a3b0a7a46bfc5fc780f85]
class Error--><rect codeLine="2" fill="#FEFECE" filter="url(#f7d8c4ga3qaq8)" height="67.9063" id="Error" style="stroke:#A80036;stroke-width:1.5;" width="143" x="264.3033" y="596"/><ellipse cx="279.3033" cy="621.9531" fill="#EB937F" rx="11" ry="11" style="stroke:#A80036;stroke-width:1.0;"/><path d="M278.1002,622.8281 L279.5533,622.8281 L279.5533,622.9375 C279.5533,623.3438 279.5846,623.5 279.6627,623.6563 C279.8189,623.9063 280.1002,624.0625 280.3971,624.0625 C280.6471,624.0625 280.9127,623.9219 281.0689,623.7031 C281.1939,623.5469 281.2252,623.3906 281.2252,622.9375 L281.2252,621.0156 C281.2252,620.8594 281.2252,620.8125 281.2096,620.6563 C281.1471,620.1875 280.8346,619.875 280.3814,619.875 C280.1314,619.875 279.8658,620.0156 279.6939,620.2344 C279.5846,620.4063 279.5533,620.5625 279.5533,621.0156 L279.5533,621.1406 L278.1002,621.1406 L278.1002,618.7344 L282.0846,618.7344 L282.0846,619.5938 C282.0846,620 282.1158,620.1719 282.1939,620.3281 C282.3658,620.5781 282.6471,620.7344 282.9283,620.7344 C283.1939,620.7344 283.4596,620.5938 283.6314,620.375 C283.7408,620.2031 283.7721,620.0625 283.7721,619.5938 L283.7721,617.0469 L276.1471,617.0469 C275.7096,617.0469 275.5846,617.0625 275.4283,617.1563 C275.1783,617.3125 275.0221,617.6094 275.0221,617.8906 C275.0221,618.1719 275.1627,618.4219 275.3814,618.5938 C275.5377,618.7031 275.7252,618.7344 276.1471,618.7344 L276.3971,618.7344 L276.3971,625.25 L276.1471,625.25 C275.7408,625.25 275.5846,625.2656 275.4283,625.375 C275.1783,625.5469 275.0221,625.8125 275.0221,626.1094 C275.0221,626.375 275.1627,626.625 275.3814,626.7813 C275.5221,626.9063 275.7564,626.9531 276.1471,626.9531 L284.1471,626.9531 L284.1471,624.375 C284.1471,623.9375 284.1158,623.7969 284.0377,623.6406 C283.8658,623.3906 283.5846,623.2344 283.3033,623.2344 C283.0377,623.2344 282.7721,623.3438 282.6002,623.5938 C282.4908,623.75 282.4596,623.8906 282.4596,624.375 L282.4596,625.25 L278.1002,625.25 L278.1002,622.8281 Z " fill="#000000"/><text fill="#000000" font-family="sans-serif" font-size="12" lengthAdjust="spacingAndGlyphs" textLength="71" x="313.3033" y="612.1387">usantatecla.</text><text fill="#000000" font-family="sans-serif" font-size="12" lengthAdjust="spacingAndGlyphs" textLength="111" x="293.3033" y="626.1074">mastermind.types.</text><text fill="#000000" font-family="sans-serif" font-size="12" lengthAdjust="spacingAndGlyphs" textLength="30" x="333.8033" y="640.0762">Error</text><line style="stroke:#A80036;stroke-width:1.5;" x1="265.3033" x2="406.3033" y1="647.9063" y2="647.9063"/><line style="stroke:#A80036;stroke-width:1.5;" x1="265.3033" x2="406.3033" y1="655.9063" y2="655.9063"/><!--MD5=[18eee71c88ab61f27581b8cbdd3ef5ee]
class Color--><rect codeLine="3" fill="#FEFECE" filter="url(#f7d8c4ga3qaq8)" height="67.9063" id="Color" style="stroke:#A80036;stroke-width:1.5;" width="143" x="802.3033" y="892"/><ellipse cx="817.3033" cy="917.9531" fill="#EB937F" rx="11" ry="11" style="stroke:#A80036;stroke-width:1.0;"/><path d="M816.1002,918.8281 L817.5533,918.8281 L817.5533,918.9375 C817.5533,919.3438 817.5846,919.5 817.6627,919.6563 C817.8189,919.9063 818.1002,920.0625 818.3971,920.0625 C818.6471,920.0625 818.9127,919.9219 819.0689,919.7031 C819.1939,919.5469 819.2252,919.3906 819.2252,918.9375 L819.2252,917.0156 C819.2252,916.8594 819.2252,916.8125 819.2096,916.6563 C819.1471,916.1875 818.8346,915.875 818.3814,915.875 C818.1314,915.875 817.8658,916.0156 817.6939,916.2344 C817.5846,916.4063 817.5533,916.5625 817.5533,917.0156 L817.5533,917.1406 L816.1002,917.1406 L816.1002,914.7344 L820.0846,914.7344 L820.0846,915.5938 C820.0846,916 820.1158,916.1719 820.1939,916.3281 C820.3658,916.5781 820.6471,916.7344 820.9283,916.7344 C821.1939,916.7344 821.4596,916.5938 821.6314,916.375 C821.7408,916.2031 821.7721,916.0625 821.7721,915.5938 L821.7721,913.0469 L814.1471,913.0469 C813.7096,913.0469 813.5846,913.0625 813.4283,913.1563 C813.1783,913.3125 813.0221,913.6094 813.0221,913.8906 C813.0221,914.1719 813.1627,914.4219 813.3814,914.5938 C813.5377,914.7031 813.7252,914.7344 814.1471,914.7344 L814.3971,914.7344 L814.3971,921.25 L814.1471,921.25 C813.7408,921.25 813.5846,921.2656 813.4283,921.375 C813.1783,921.5469 813.0221,921.8125 813.0221,922.1094 C813.0221,922.375 813.1627,922.625 813.3814,922.7813 C813.5221,922.9063 813.7564,922.9531 814.1471,922.9531 L822.1471,922.9531 L822.1471,920.375 C822.1471,919.9375 822.1158,919.7969 822.0377,919.6406 C821.8658,919.3906 821.5846,919.2344 821.3033,919.2344 C821.0377,919.2344 820.7721,919.3438 820.6002,919.5938 C820.4908,919.75 820.4596,919.8906 820.4596,920.375 L820.4596,921.25 L816.1002,921.25 L816.1002,918.8281 Z " fill="#000000"/><text fill="#000000" font-family="sans-serif" font-size="12" lengthAdjust="spacingAndGlyphs" textLength="71" x="851.3033" y="908.1387">usantatecla.</text><text fill="#000000" font-family="sans-serif" font-size="12" lengthAdjust="spacingAndGlyphs" textLength="111" x="831.3033" y="922.1074">mastermind.types.</text><text fill="#000000" font-family="sans-serif" font-size="12" lengthAdjust="spacingAndGlyphs" textLength="32" x="870.8033" y="936.0762">Color</text><line style="stroke:#A80036;stroke-width:1.5;" x1="803.3033" x2="944.3033" y1="943.9063" y2="943.9063"/><line style="stroke:#A80036;stroke-width:1.5;" x1="803.3033" x2="944.3033" y1="951.9063" y2="951.9063"/><!--MD5=[acca48e94a5434f1755ae47fdbfe1647]
class WithLogicView--><rect codeLine="4" fill="#FEFECE" filter="url(#f7d8c4ga3qaq8)" height="67.9063" id="WithLogicView" style="stroke:#A80036;stroke-width:1.5;" width="146" x="1745.8023" y="150.5"/><ellipse cx="1760.8023" cy="176.4531" fill="#A9DCDF" rx="11" ry="11" style="stroke:#A80036;stroke-width:1.0;"/><path d="M1762.8804,178.2656 L1763.271,179.25 L1762.8804,179.25 C1762.4273,179.25 1762.3179,179.2656 1762.1617,179.375 C1761.9117,179.5313 1761.7554,179.8125 1761.7554,180.1094 C1761.7554,180.375 1761.896,180.625 1762.1148,180.7813 C1762.2554,180.9063 1762.4585,180.9531 1762.8804,180.9531 L1765.2398,180.9531 C1765.5992,180.9531 1765.8179,180.9219 1765.9585,180.8281 C1766.2085,180.6875 1766.3648,180.3906 1766.3648,180.1094 C1766.3648,179.8281 1766.2242,179.5781 1766.0054,179.4219 C1765.8335,179.2813 1765.6773,179.25 1765.2085,179.25 L1761.8179,171.0469 L1758.146,171.0469 C1757.6929,171.0469 1757.5679,171.0625 1757.4117,171.1563 C1757.1617,171.3281 1757.0054,171.6094 1757.0054,171.8906 C1757.0054,172.1719 1757.146,172.4219 1757.3648,172.5938 C1757.5367,172.7031 1757.7085,172.7344 1758.146,172.7344 L1759.2242,172.7344 L1756.5835,179.25 C1756.1617,179.25 1756.0054,179.2656 1755.8492,179.375 C1755.5992,179.5313 1755.4429,179.8125 1755.4429,180.1094 C1755.4429,180.6719 1755.8179,180.9531 1756.5679,180.9531 L1758.8335,180.9531 C1759.1929,180.9531 1759.4117,180.9219 1759.5367,180.8281 C1759.8023,180.6875 1759.9429,180.3906 1759.9429,180.1094 C1759.9429,179.8281 1759.8179,179.5781 1759.5992,179.4063 C1759.4273,179.2813 1759.2867,179.25 1758.8335,179.25 L1758.4429,179.25 L1758.8335,178.2656 L1762.8804,178.2656 Z M1762.1773,176.5625 L1759.5054,176.5625 L1760.8492,173.2969 L1762.1773,176.5625 Z " fill="#000000"/><text fill="#000000" font-family="sans-serif" font-size="12" font-style="italic" lengthAdjust="spacingAndGlyphs" textLength="74" x="1794.8023" y="166.6387">usantatecla.</text><text fill="#000000" font-family="sans-serif" font-size="12" font-style="italic" lengthAdjust="spacingAndGlyphs" textLength="114" x="1774.8023" y="180.6074">mastermind.views.</text><text fill="#000000" font-family="sans-serif" font-size="12" font-style="italic" lengthAdjust="spacingAndGlyphs" textLength="88" x="1787.8023" y="194.5762">WithLogicView</text><line style="stroke:#A80036;stroke-width:1.5;" x1="1746.8023" x2="1890.8023" y1="202.4063" y2="202.4063"/><line style="stroke:#A80036;stroke-width:1.5;" x1="1746.8023" x2="1890.8023" y1="210.4063" y2="210.4063"/><!--MD5=[c045e12321b83266d36d22b9096c24ea]
class View--><rect codeLine="5" fill="#FEFECE" filter="url(#f7d8c4ga3qaq8)" height="67.9063" id="View" style="stroke:#A80036;stroke-width:1.5;" width="146" x="743.8033" y="7"/><ellipse cx="758.8033" cy="32.9531" fill="#A9DCDF" rx="11" ry="11" style="stroke:#A80036;stroke-width:1.0;"/><path d="M760.8814,34.7656 L761.2721,35.75 L760.8814,35.75 C760.4283,35.75 760.3189,35.7656 760.1627,35.875 C759.9127,36.0313 759.7564,36.3125 759.7564,36.6094 C759.7564,36.875 759.8971,37.125 760.1158,37.2813 C760.2564,37.4063 760.4596,37.4531 760.8814,37.4531 L763.2408,37.4531 C763.6002,37.4531 763.8189,37.4219 763.9596,37.3281 C764.2096,37.1875 764.3658,36.8906 764.3658,36.6094 C764.3658,36.3281 764.2252,36.0781 764.0064,35.9219 C763.8346,35.7813 763.6783,35.75 763.2096,35.75 L759.8189,27.5469 L756.1471,27.5469 C755.6939,27.5469 755.5689,27.5625 755.4127,27.6563 C755.1627,27.8281 755.0064,28.1094 755.0064,28.3906 C755.0064,28.6719 755.1471,28.9219 755.3658,29.0938 C755.5377,29.2031 755.7096,29.2344 756.1471,29.2344 L757.2252,29.2344 L754.5846,35.75 C754.1627,35.75 754.0064,35.7656 753.8502,35.875 C753.6002,36.0313 753.4439,36.3125 753.4439,36.6094 C753.4439,37.1719 753.8189,37.4531 754.5689,37.4531 L756.8346,37.4531 C757.1939,37.4531 757.4127,37.4219 757.5377,37.3281 C757.8033,37.1875 757.9439,36.8906 757.9439,36.6094 C757.9439,36.3281 757.8189,36.0781 757.6002,35.9063 C757.4283,35.7813 757.2877,35.75 756.8346,35.75 L756.4439,35.75 L756.8346,34.7656 L760.8814,34.7656 Z M760.1783,33.0625 L757.5064,33.0625 L758.8502,29.7969 L760.1783,33.0625 Z " fill="#000000"/><text fill="#000000" font-family="sans-serif" font-size="12" font-style="italic" lengthAdjust="spacingAndGlyphs" textLength="74" x="792.8033" y="23.1387">usantatecla.</text><text fill="#000000" font-family="sans-serif" font-size="12" font-style="italic" lengthAdjust="spacingAndGlyphs" textLength="114" x="772.8033" y="37.1074">mastermind.views.</text><text fill="#000000" font-family="sans-serif" font-size="12" font-style="italic" lengthAdjust="spacingAndGlyphs" textLength="28" x="815.8033" y="51.0762">View</text><line style="stroke:#A80036;stroke-width:1.5;" x1="744.8033" x2="888.8033" y1="58.9063" y2="58.9063"/><line style="stroke:#A80036;stroke-width:1.5;" x1="744.8033" x2="888.8033" y1="66.9063" y2="66.9063"/><!--MD5=[5c0d2bf114541dffca76af5edd55a1b5]
class ColorView--><rect codeLine="6" fill="#FEFECE" filter="url(#f7d8c4ga3qaq8)" height="67.9063" id="ColorView" style="stroke:#A80036;stroke-width:1.5;" width="146" x="1516.8023" y="596"/><ellipse cx="1531.8023" cy="621.9531" fill="#A9DCDF" rx="11" ry="11" style="stroke:#A80036;stroke-width:1.0;"/><path d="M1533.8804,623.7656 L1534.271,624.75 L1533.8804,624.75 C1533.4273,624.75 1533.3179,624.7656 1533.1617,624.875 C1532.9117,625.0313 1532.7554,625.3125 1532.7554,625.6094 C1532.7554,625.875 1532.896,626.125 1533.1148,626.2813 C1533.2554,626.4063 1533.4585,626.4531 1533.8804,626.4531 L1536.2398,626.4531 C1536.5992,626.4531 1536.8179,626.4219 1536.9585,626.3281 C1537.2085,626.1875 1537.3648,625.8906 1537.3648,625.6094 C1537.3648,625.3281 1537.2242,625.0781 1537.0054,624.9219 C1536.8335,624.7813 1536.6773,624.75 1536.2085,624.75 L1532.8179,616.5469 L1529.146,616.5469 C1528.6929,616.5469 1528.5679,616.5625 1528.4117,616.6563 C1528.1617,616.8281 1528.0054,617.1094 1528.0054,617.3906 C1528.0054,617.6719 1528.146,617.9219 1528.3648,618.0938 C1528.5367,618.2031 1528.7085,618.2344 1529.146,618.2344 L1530.2242,618.2344 L1527.5835,624.75 C1527.1617,624.75 1527.0054,624.7656 1526.8492,624.875 C1526.5992,625.0313 1526.4429,625.3125 1526.4429,625.6094 C1526.4429,626.1719 1526.8179,626.4531 1527.5679,626.4531 L1529.8335,626.4531 C1530.1929,626.4531 1530.4117,626.4219 1530.5367,626.3281 C1530.8023,626.1875 1530.9429,625.8906 1530.9429,625.6094 C1530.9429,625.3281 1530.8179,625.0781 1530.5992,624.9063 C1530.4273,624.7813 1530.2867,624.75 1529.8335,624.75 L1529.4429,624.75 L1529.8335,623.7656 L1533.8804,623.7656 Z M1533.1773,622.0625 L1530.5054,622.0625 L1531.8492,618.7969 L1533.1773,622.0625 Z " fill="#000000"/><text fill="#000000" font-family="sans-serif" font-size="12" font-style="italic" lengthAdjust="spacingAndGlyphs" textLength="74" x="1565.8023" y="612.1387">usantatecla.</text><text fill="#000000" font-family="sans-serif" font-size="12" font-style="italic" lengthAdjust="spacingAndGlyphs" textLength="114" x="1545.8023" y="626.1074">mastermind.views.</text><text fill="#000000" font-family="sans-serif" font-size="12" font-style="italic" lengthAdjust="spacingAndGlyphs" textLength="58" x="1573.8023" y="640.0762">ColorView</text><line style="stroke:#A80036;stroke-width:1.5;" x1="1517.8023" x2="1661.8023" y1="647.9063" y2="647.9063"/><line style="stroke:#A80036;stroke-width:1.5;" x1="1517.8023" x2="1661.8023" y1="655.9063" y2="655.9063"/><!--MD5=[86cec68673cafdfc1c204348d5b2cca6]
class ErrorView--><rect codeLine="7" fill="#FEFECE" filter="url(#f7d8c4ga3qaq8)" height="67.9063" id="ErrorView" style="stroke:#A80036;stroke-width:1.5;" width="146" x="1513.8023" y="297"/><ellipse cx="1528.8023" cy="322.9531" fill="#A9DCDF" rx="11" ry="11" style="stroke:#A80036;stroke-width:1.0;"/><path d="M1530.8804,324.7656 L1531.271,325.75 L1530.8804,325.75 C1530.4273,325.75 1530.3179,325.7656 1530.1617,325.875 C1529.9117,326.0313 1529.7554,326.3125 1529.7554,326.6094 C1529.7554,326.875 1529.896,327.125 1530.1148,327.2813 C1530.2554,327.4063 1530.4585,327.4531 1530.8804,327.4531 L1533.2398,327.4531 C1533.5992,327.4531 1533.8179,327.4219 1533.9585,327.3281 C1534.2085,327.1875 1534.3648,326.8906 1534.3648,326.6094 C1534.3648,326.3281 1534.2242,326.0781 1534.0054,325.9219 C1533.8335,325.7813 1533.6773,325.75 1533.2085,325.75 L1529.8179,317.5469 L1526.146,317.5469 C1525.6929,317.5469 1525.5679,317.5625 1525.4117,317.6563 C1525.1617,317.8281 1525.0054,318.1094 1525.0054,318.3906 C1525.0054,318.6719 1525.146,318.9219 1525.3648,319.0938 C1525.5367,319.2031 1525.7085,319.2344 1526.146,319.2344 L1527.2242,319.2344 L1524.5835,325.75 C1524.1617,325.75 1524.0054,325.7656 1523.8492,325.875 C1523.5992,326.0313 1523.4429,326.3125 1523.4429,326.6094 C1523.4429,327.1719 1523.8179,327.4531 1524.5679,327.4531 L1526.8335,327.4531 C1527.1929,327.4531 1527.4117,327.4219 1527.5367,327.3281 C1527.8023,327.1875 1527.9429,326.8906 1527.9429,326.6094 C1527.9429,326.3281 1527.8179,326.0781 1527.5992,325.9063 C1527.4273,325.7813 1527.2867,325.75 1526.8335,325.75 L1526.4429,325.75 L1526.8335,324.7656 L1530.8804,324.7656 Z M1530.1773,323.0625 L1527.5054,323.0625 L1528.8492,319.7969 L1530.1773,323.0625 Z " fill="#000000"/><text fill="#000000" font-family="sans-serif" font-size="12" font-style="italic" lengthAdjust="spacingAndGlyphs" textLength="74" x="1562.8023" y="313.1387">usantatecla.</text><text fill="#000000" font-family="sans-serif" font-size="12" font-style="italic" lengthAdjust="spacingAndGlyphs" textLength="114" x="1542.8023" y="327.1074">mastermind.views.</text><text fill="#000000" font-family="sans-serif" font-size="12" font-style="italic" lengthAdjust="spacingAndGlyphs" textLength="58" x="1570.8023" y="341.0762">ErrorView</text><line style="stroke:#A80036;stroke-width:1.5;" x1="1514.8023" x2="1658.8023" y1="348.9063" y2="348.9063"/><line style="stroke:#A80036;stroke-width:1.5;" x1="1514.8023" x2="1658.8023" y1="356.9063" y2="356.9063"/><!--MD5=[bea5b0d46523efab5ea1c1d339f396f0]
class Message--><rect codeLine="8" fill="#FEFECE" filter="url(#f7d8c4ga3qaq8)" height="67.9063" id="Message" style="stroke:#A80036;stroke-width:1.5;" width="144" x="479.8033" y="748.5"/><ellipse cx="494.8033" cy="774.4531" fill="#EB937F" rx="11" ry="11" style="stroke:#A80036;stroke-width:1.0;"/><path d="M493.6002,775.3281 L495.0533,775.3281 L495.0533,775.4375 C495.0533,775.8438 495.0846,776 495.1627,776.1563 C495.3189,776.4063 495.6002,776.5625 495.8971,776.5625 C496.1471,776.5625 496.4127,776.4219 496.5689,776.2031 C496.6939,776.0469 496.7252,775.8906 496.7252,775.4375 L496.7252,773.5156 C496.7252,773.3594 496.7252,773.3125 496.7096,773.1563 C496.6471,772.6875 496.3346,772.375 495.8814,772.375 C495.6314,772.375 495.3658,772.5156 495.1939,772.7344 C495.0846,772.9063 495.0533,773.0625 495.0533,773.5156 L495.0533,773.6406 L493.6002,773.6406 L493.6002,771.2344 L497.5846,771.2344 L497.5846,772.0938 C497.5846,772.5 497.6158,772.6719 497.6939,772.8281 C497.8658,773.0781 498.1471,773.2344 498.4283,773.2344 C498.6939,773.2344 498.9596,773.0938 499.1314,772.875 C499.2408,772.7031 499.2721,772.5625 499.2721,772.0938 L499.2721,769.5469 L491.6471,769.5469 C491.2096,769.5469 491.0846,769.5625 490.9283,769.6563 C490.6783,769.8125 490.5221,770.1094 490.5221,770.3906 C490.5221,770.6719 490.6627,770.9219 490.8814,771.0938 C491.0377,771.2031 491.2252,771.2344 491.6471,771.2344 L491.8971,771.2344 L491.8971,777.75 L491.6471,777.75 C491.2408,777.75 491.0846,777.7656 490.9283,777.875 C490.6783,778.0469 490.5221,778.3125 490.5221,778.6094 C490.5221,778.875 490.6627,779.125 490.8814,779.2813 C491.0221,779.4063 491.2564,779.4531 491.6471,779.4531 L499.6471,779.4531 L499.6471,776.875 C499.6471,776.4375 499.6158,776.2969 499.5377,776.1406 C499.3658,775.8906 499.0846,775.7344 498.8033,775.7344 C498.5377,775.7344 498.2721,775.8438 498.1002,776.0938 C497.9908,776.25 497.9596,776.3906 497.9596,776.875 L497.9596,777.75 L493.6002,777.75 L493.6002,775.3281 Z " fill="#000000"/><text fill="#000000" font-family="sans-serif" font-size="12" lengthAdjust="spacingAndGlyphs" textLength="71" x="529.3033" y="764.6387">usantatecla.</text><text fill="#000000" font-family="sans-serif" font-size="12" lengthAdjust="spacingAndGlyphs" textLength="112" x="508.8033" y="778.6074">mastermind.views.</text><text fill="#000000" font-family="sans-serif" font-size="12" lengthAdjust="spacingAndGlyphs" textLength="55" x="537.3033" y="792.5762">Message</text><line style="stroke:#A80036;stroke-width:1.5;" x1="480.8033" x2="622.8033" y1="800.4063" y2="800.4063"/><line style="stroke:#A80036;stroke-width:1.5;" x1="480.8033" x2="622.8033" y1="808.4063" y2="808.4063"/><!--MD5=[315b61b427ec618d6861d47eee00cca3]
class Console--><rect codeLine="9" fill="#FEFECE" filter="url(#f7d8c4ga3qaq8)" height="53.9375" id="Console" style="stroke:#A80036;stroke-width:1.5;" width="130" x="1306.8023" y="899"/><ellipse cx="1321.8023" cy="917.9688" fill="#ADD1B2" rx="11" ry="11" style="stroke:#A80036;stroke-width:1.0;"/><path d="M1324.146,913.6406 C1323.2085,913.2031 1322.6148,913.0625 1321.7398,913.0625 C1319.1148,913.0625 1317.1148,915.1406 1317.1148,917.8594 L1317.1148,918.9844 C1317.1148,921.5625 1319.2242,923.4531 1322.1148,923.4531 C1323.3335,923.4531 1324.4898,923.1563 1325.2398,922.6094 C1325.8179,922.2031 1326.146,921.75 1326.146,921.3594 C1326.146,920.9063 1325.7554,920.5156 1325.2867,920.5156 C1325.0679,920.5156 1324.8648,920.5938 1324.6773,920.7813 C1324.2242,921.2656 1324.2242,921.2656 1324.0367,921.3594 C1323.6148,921.625 1322.9273,921.75 1322.1617,921.75 C1320.1148,921.75 1318.8179,920.6563 1318.8179,918.9531 L1318.8179,917.8594 C1318.8179,916.0781 1320.0679,914.7656 1321.8023,914.7656 C1322.3804,914.7656 1322.9898,914.9219 1323.4585,915.1719 C1323.9429,915.4531 1324.1148,915.6719 1324.2085,916.0781 C1324.271,916.4844 1324.3023,916.6094 1324.4429,916.7344 C1324.5835,916.875 1324.8179,916.9844 1325.0367,916.9844 C1325.3023,916.9844 1325.5679,916.8438 1325.7398,916.625 C1325.8492,916.4688 1325.8804,916.2813 1325.8804,915.8594 L1325.8804,914.4375 C1325.8804,914 1325.8648,913.875 1325.771,913.7188 C1325.6148,913.4531 1325.3335,913.3125 1325.0367,913.3125 C1324.7398,913.3125 1324.5367,913.4063 1324.3179,913.7188 L1324.146,913.6406 Z " fill="#000000"/><text fill="#000000" font-family="sans-serif" font-size="12" lengthAdjust="spacingAndGlyphs" textLength="98" x="1335.8023" y="915.1387">usantatecla.utils.</text><text fill="#000000" font-family="sans-serif" font-size="12" lengthAdjust="spacingAndGlyphs" textLength="49" x="1360.3023" y="929.1074">Console</text><line style="stroke:#A80036;stroke-width:1.5;" x1="1307.8023" x2="1435.8023" y1="936.9375" y2="936.9375"/><line style="stroke:#A80036;stroke-width:1.5;" x1="1307.8023" x2="1435.8023" y1="944.9375" y2="944.9375"/><!--MD5=[d93cf99d2b92276f27fe8dbf15140505]
class YesNoDialog--><rect codeLine="10" fill="#FEFECE" filter="url(#f7d8c4ga3qaq8)" height="53.9375" id="YesNoDialog" style="stroke:#A80036;stroke-width:1.5;" width="130" x="121.8032" y="450.5"/><ellipse cx="136.8032" cy="469.4688" fill="#ADD1B2" rx="11" ry="11" style="stroke:#A80036;stroke-width:1.0;"/><path d="M139.147,465.1406 C138.2095,464.7031 137.6157,464.5625 136.7407,464.5625 C134.1157,464.5625 132.1157,466.6406 132.1157,469.3594 L132.1157,470.4844 C132.1157,473.0625 134.2251,474.9531 137.1157,474.9531 C138.3345,474.9531 139.4907,474.6563 140.2407,474.1094 C140.8188,473.7031 141.147,473.25 141.147,472.8594 C141.147,472.4063 140.7563,472.0156 140.2876,472.0156 C140.0688,472.0156 139.8657,472.0938 139.6782,472.2813 C139.2251,472.7656 139.2251,472.7656 139.0376,472.8594 C138.6157,473.125 137.9282,473.25 137.1626,473.25 C135.1157,473.25 133.8188,472.1563 133.8188,470.4531 L133.8188,469.3594 C133.8188,467.5781 135.0688,466.2656 136.8032,466.2656 C137.3813,466.2656 137.9907,466.4219 138.4595,466.6719 C138.9438,466.9531 139.1157,467.1719 139.2095,467.5781 C139.272,467.9844 139.3032,468.1094 139.4438,468.2344 C139.5845,468.375 139.8188,468.4844 140.0376,468.4844 C140.3032,468.4844 140.5688,468.3438 140.7407,468.125 C140.8501,467.9688 140.8813,467.7813 140.8813,467.3594 L140.8813,465.9375 C140.8813,465.5 140.8657,465.375 140.772,465.2188 C140.6157,464.9531 140.3345,464.8125 140.0376,464.8125 C139.7407,464.8125 139.5376,464.9063 139.3188,465.2188 L139.147,465.1406 Z " fill="#000000"/><text fill="#000000" font-family="sans-serif" font-size="12" lengthAdjust="spacingAndGlyphs" textLength="98" x="150.8032" y="466.6387">usantatecla.utils.</text><text fill="#000000" font-family="sans-serif" font-size="12" lengthAdjust="spacingAndGlyphs" textLength="76" x="161.8032" y="480.6074">YesNoDialog</text><line style="stroke:#A80036;stroke-width:1.5;" x1="122.8032" x2="250.8032" y1="488.4375" y2="488.4375"/><line style="stroke:#A80036;stroke-width:1.5;" x1="122.8032" x2="250.8032" y1="496.4375" y2="496.4375"/><!--MD5=[ce3aceb15685c4a66d1e1b8ea7e2c984]
class ColorCode--><rect codeLine="11" fill="#FEFECE" filter="url(#f7d8c4ga3qaq8)" height="53.9375" id="ColorCode" style="stroke:#A80036;stroke-width:1.5;" width="130" x="980.8033" y="899"/><ellipse cx="995.8033" cy="917.9688" fill="#EB937F" rx="11" ry="11" style="stroke:#A80036;stroke-width:1.0;"/><path d="M994.6002,918.8438 L996.0533,918.8438 L996.0533,918.9531 C996.0533,919.3594 996.0846,919.5156 996.1627,919.6719 C996.3189,919.9219 996.6002,920.0781 996.8971,920.0781 C997.1471,920.0781 997.4127,919.9375 997.5689,919.7188 C997.6939,919.5625 997.7252,919.4063 997.7252,918.9531 L997.7252,917.0313 C997.7252,916.875 997.7252,916.8281 997.7096,916.6719 C997.6471,916.2031 997.3346,915.8906 996.8814,915.8906 C996.6314,915.8906 996.3658,916.0313 996.1939,916.25 C996.0846,916.4219 996.0533,916.5781 996.0533,917.0313 L996.0533,917.1563 L994.6002,917.1563 L994.6002,914.75 L998.5846,914.75 L998.5846,915.6094 C998.5846,916.0156 998.6158,916.1875 998.6939,916.3438 C998.8658,916.5938 999.1471,916.75 999.4283,916.75 C999.6939,916.75 999.9596,916.6094 1000.1314,916.3906 C1000.2408,916.2188 1000.2721,916.0781 1000.2721,915.6094 L1000.2721,913.0625 L992.6471,913.0625 C992.2096,913.0625 992.0846,913.0781 991.9283,913.1719 C991.6783,913.3281 991.5221,913.625 991.5221,913.9063 C991.5221,914.1875 991.6627,914.4375 991.8814,914.6094 C992.0377,914.7188 992.2252,914.75 992.6471,914.75 L992.8971,914.75 L992.8971,921.2656 L992.6471,921.2656 C992.2408,921.2656 992.0846,921.2813 991.9283,921.3906 C991.6783,921.5625 991.5221,921.8281 991.5221,922.125 C991.5221,922.3906 991.6627,922.6406 991.8814,922.7969 C992.0221,922.9219 992.2564,922.9688 992.6471,922.9688 L1000.6471,922.9688 L1000.6471,920.3906 C1000.6471,919.9531 1000.6158,919.8125 1000.5377,919.6563 C1000.3658,919.4063 1000.0846,919.25 999.8033,919.25 C999.5377,919.25 999.2721,919.3594 999.1002,919.6094 C998.9908,919.7656 998.9596,919.9063 998.9596,920.3906 L998.9596,921.2656 L994.6002,921.2656 L994.6002,918.8438 Z " fill="#000000"/><text fill="#000000" font-family="sans-serif" font-size="12" lengthAdjust="spacingAndGlyphs" textLength="98" x="1009.8033" y="915.1387">usantatecla.utils.</text><text fill="#000000" font-family="sans-serif" font-size="12" lengthAdjust="spacingAndGlyphs" textLength="64" x="1026.8033" y="929.1074">ColorCode</text><line style="stroke:#A80036;stroke-width:1.5;" x1="981.8033" x2="1109.8033" y1="936.9375" y2="936.9375"/><line style="stroke:#A80036;stroke-width:1.5;" x1="981.8033" x2="1109.8033" y1="944.9375" y2="944.9375"/><!--MD5=[5cc2afc7699cbb48ec3daa48200efb03]
reverse link View to usantatecla.mastermind.views.console.ConsoleView--><path codeLine="19" d="M816.8033,95.31 C816.8033,108.333 816.8033,122.196 816.8033,134.982 " fill="none" id="View-backto-usantatecla.mastermind.views.console.ConsoleView" style="stroke:#A80036;stroke-width:1.0;"/><polygon fill="none" points="809.8033,95.175,816.8033,75.175,823.8033,95.175,809.8033,95.175" style="stroke:#A80036;stroke-width:1.0;"/><!--MD5=[62b989f1b7fd9494cd0a5a3595d138cf]
link usantatecla.mastermind.views.console.ConsoleView to usantatecla.mastermind.views.console.StartView--><path codeLine="20" d="M907.4764,224.7275 C907.4764,224.7275 965.9593,265.019 983.8033,294 C1008.3943,333.939 1011.3233,388.262 1009.3683,427.237 " fill="none" id="usantatecla.mastermind.views.console.ConsoleView-usantatecla.mastermind.views.console.StartView" style="stroke:#A80036;stroke-width:1.0;"/><polygon fill="#A80036" points="1008.5003,440.334,1013.086,431.6178,1008.8305,435.3449,1005.1034,431.0895,1008.5003,440.334" style="stroke:#A80036;stroke-width:1.0;"/><line style="stroke:#A80036;stroke-width:1.0;" x1="1008.8305" x2="1009.3593" y1="435.3449" y2="427.3625"/><polygon fill="#A80036" points="897.0403,218.804,900.2838,225.2445,907.4764,224.7275,904.2329,218.2871,897.0403,218.804" style="stroke:#A80036;stroke-width:1.0;"/><!--MD5=[9e9e09f7b836be77202fb5a7c9dba601]
link usantatecla.mastermind.views.console.ConsoleView to usantatecla.mastermind.views.console.ProposalView--><path codeLine="21" d="M849.8683,244.4854 C849.8683,244.4854 864.5333,270.648 871.1073,282.376 " fill="none" id="usantatecla.mastermind.views.console.ConsoleView-usantatecla.mastermind.views.console.ProposalView" style="stroke:#A80036;stroke-width:1.0;"/><polygon fill="#A80036" points="877.4673,293.722,876.5555,283.9154,875.0223,289.3606,869.5772,287.8274,877.4673,293.722" style="stroke:#A80036;stroke-width:1.0;"/><line style="stroke:#A80036;stroke-width:1.0;" x1="875.0223" x2="871.1103" y1="289.3606" y2="282.382"/><polygon fill="#A80036" points="844.0003,234.018,843.4451,241.2077,849.8683,244.4854,850.4234,237.2957,844.0003,234.018" style="stroke:#A80036;stroke-width:1.0;"/><!--MD5=[20a2805fbab39aefb16f40efe1c74efb]
link usantatecla.mastermind.views.console.ConsoleView to usantatecla.mastermind.views.console.ResumeView--><path codeLine="22" d="M779.4683,244.141 C779.4683,244.141 762.5703,270.681 754.9613,282.632 " fill="none" id="usantatecla.mastermind.views.console.ConsoleView-usantatecla.mastermind.views.console.ResumeView" style="stroke:#A80036;stroke-width:1.0;"/><polygon fill="#A80036" points="747.9013,293.722,756.1087,288.2778,750.5863,289.5041,749.36,283.9818,747.9013,293.722" style="stroke:#A80036;stroke-width:1.0;"/><line style="stroke:#A80036;stroke-width:1.0;" x1="750.5863" x2="754.8828" y1="289.5041" y2="282.7555"/><polygon fill="#A80036" points="785.9123,234.018,779.316,236.9315,779.4683,244.141,786.0646,241.2275,785.9123,234.018" style="stroke:#A80036;stroke-width:1.0;"/><!--MD5=[0fc94e738f44ef4cdf1d284d8770b62e]
link usantatecla.mastermind.views.console.ConsoleView to Logic--><path codeLine="23" d="M736.4893,199.479 C560.6303,231.893 150.7933,317.888 70.8032,428 C6,517.206 37.9566,589.362 109.8032,673 C149.6303,719.363 212.9973,746.622 265.7073,762.221 " fill="none" id="usantatecla.mastermind.views.console.ConsoleView-to-Logic" style="stroke:#A80036;stroke-width:1.0;stroke-dasharray:7.0,7.0;"/><polygon fill="#A80036" points="270.7743,763.694,263.2491,757.3402,265.9731,762.298,261.0154,765.022,270.7743,763.694" style="stroke:#A80036;stroke-width:1.0;"/><!--MD5=[294abbb424af15a95f5040be53ed8e0d]
reverse link WithLogicView to usantatecla.mastermind.views.console.ResumeView--><path codeLine="29" d="M1725.7523,201.14 C1661.7823,211.503 1574.8123,224.828 1497.8023,234 C1193.4623,270.246 1108.3823,220.616 810.8033,294 C805.3033,295.356 799.6993,297.015 794.1233,298.867 " fill="none" id="WithLogicView-backto-usantatecla.mastermind.views.console.ResumeView" style="stroke:#A80036;stroke-width:1.0;"/><polygon fill="none" points="1724.8023,194.202,1745.6723,197.888,1727.0623,208.019,1724.8023,194.202" style="stroke:#A80036;stroke-width:1.0;"/><!--MD5=[4bcb8a7cc2a6ebc078213d9bee2bb9c3]
link usantatecla.mastermind.views.console.ResumeView to Logic--><path codeLine="30" d="M655.5553,331.913 C508.8243,333.355 174.2743,345.797 103.8032,428 C10.0224,537.392 196.8313,679.926 298.2913,745.554 " fill="none" id="usantatecla.mastermind.views.console.ResumeView-to-Logic" style="stroke:#A80036;stroke-width:1.0;stroke-dasharray:7.0,7.0;"/><polygon fill="#A80036" points="302.7583,748.429,297.3568,740.1935,298.5544,745.7221,293.0258,746.9197,302.7583,748.429" style="stroke:#A80036;stroke-width:1.0;"/><!--MD5=[a725383cd7ccf4a5610b2a96a21a031d]
link usantatecla.mastermind.views.console.ResumeView to Message--><path codeLine="31" d="M655.5153,345.145 C545.4933,370.201 334.3463,436.349 246.8033,587 C227.5993,620.048 223.6923,642.556 246.8033,673 C306.7883,752.017 369.7923,695.907 461.8033,733 C471.2813,736.821 481.0493,741.377 490.4963,746.143 " fill="none" id="usantatecla.mastermind.views.console.ResumeView-to-Message" style="stroke:#A80036;stroke-width:1.0;stroke-dasharray:7.0,7.0;"/><polygon fill="#A80036" points="495.1053,748.498,488.9096,740.842,490.6525,746.2237,485.2708,747.9666,495.1053,748.498" style="stroke:#A80036;stroke-width:1.0;"/><!--MD5=[11a6206d39bd673b590966d1322f3f4d]
link usantatecla.mastermind.views.console.ResumeView to YesNoDialog--><path codeLine="32" d="M655.5543,340.916 C566.4473,353.731 407.7713,381.13 278.8033,428 C264.1663,433.319 248.9493,440.559 235.2043,447.823 " fill="none" id="usantatecla.mastermind.views.console.ResumeView-to-YesNoDialog" style="stroke:#A80036;stroke-width:1.0;stroke-dasharray:7.0,7.0;"/><polygon fill="#A80036" points="230.6023,450.284,240.4249,449.5654,235.011,447.9254,236.6511,442.5115,230.6023,450.284" style="stroke:#A80036;stroke-width:1.0;"/><!--MD5=[9e3f7f61f7dbce2d5e33b603d85e3ca1]
reverse link WithLogicView to usantatecla.mastermind.views.console.StartView--><path codeLine="38" d="M1780.7723,234.568 C1766.3623,253.174 1749.8123,274.558 1734.8023,294 C1709.4323,326.858 1714.0923,347.834 1677.8023,368 C1444.3223,497.75 1332.1523,340.433 1079.8023,428 C1070.7823,431.13 1061.7423,435.522 1053.2123,440.397 " fill="none" id="WithLogicView-backto-usantatecla.mastermind.views.console.StartView" style="stroke:#A80036;stroke-width:1.0;"/><polygon fill="none" points="1775.2623,230.249,1793.0523,218.724,1786.3323,238.822,1775.2623,230.249" style="stroke:#A80036;stroke-width:1.0;"/><!--MD5=[80869c372aff1267a2951704c8fbb83c]
link usantatecla.mastermind.views.console.StartView to usantatecla.mastermind.views.console.SecretCombinationView--><path codeLine="39" d="M943.494,521.5166 C943.494,521.5166 881.8503,565.486 854.0703,585.3 " fill="none" id="usantatecla.mastermind.views.console.StartView-usantatecla.mastermind.views.console.SecretCombinationView" style="stroke:#A80036;stroke-width:1.0;"/><polygon fill="#A80036" points="843.2953,592.985,852.9452,591.0152,847.3659,590.0815,848.2996,584.5022,843.2953,592.985" style="stroke:#A80036;stroke-width:1.0;"/><line style="stroke:#A80036;stroke-width:1.0;" x1="847.3659" x2="853.8793" y1="590.0815" y2="585.436"/><polygon fill="#A80036" points="953.2633,514.548,946.0558,514.7759,943.494,521.5166,950.7015,521.2887,953.2633,514.548" style="stroke:#A80036;stroke-width:1.0;"/><!--MD5=[41b00bef7f8876bf10aff963cfd73488]
link usantatecla.mastermind.views.console.StartView to Console--><path codeLine="40" d="M1053.1823,514.678 C1061.7223,519.544 1070.7723,523.913 1079.8023,527 C1219.5823,574.753 1642.1823,477.938 1741.8023,587 C1822.4323,675.272 1818.2023,764.038 1741.8023,856 C1704.4723,900.9344 1538.7923,916.7603 1442.2623,922.219 " fill="none" id="usantatecla.mastermind.views.console.StartView-to-Console" style="stroke:#A80036;stroke-width:1.0;stroke-dasharray:7.0,7.0;"/><polygon fill="#A80036" points="1437.1523,922.5021,1446.3562,926.0076,1442.1449,922.2307,1445.9219,918.0194,1437.1523,922.5021" style="stroke:#A80036;stroke-width:1.0;"/><!--MD5=[cb2142cad003aa30be20e00fecfd0a1b]
link usantatecla.mastermind.views.console.StartView to Message--><path codeLine="41" d="M952.6513,514.534 C944.2893,519.291 935.5073,523.665 926.8033,527 C779.4283,583.473 686.0373,473.085 576.8033,587 C537.1783,628.323 538.8243,699.285 544.6183,743.115 " fill="none" id="usantatecla.mastermind.views.console.StartView-to-Message" style="stroke:#A80036;stroke-width:1.0;stroke-dasharray:7.0,7.0;"/><polygon fill="#A80036" points="545.3433,748.322,548.0632,738.8562,544.6534,743.3698,540.1397,739.96,545.3433,748.322" style="stroke:#A80036;stroke-width:1.0;"/><!--MD5=[3d24b3ab84a60ece58c1b7ee170dc594]
reverse link WithLogicView to usantatecla.mastermind.views.console.GameView--><path codeLine="48" d="M1809.2523,238.226 C1798.9723,279.645 1778.4223,335.573 1738.8023,368 C1684.9923,412.044 1509.7423,442.851 1382.1023,460.106 " fill="none" id="WithLogicView-backto-usantatecla.mastermind.views.console.GameView" style="stroke:#A80036;stroke-width:1.0;"/><polygon fill="none" points="1802.4323,236.648,1813.6323,218.659,1816.1023,239.704,1802.4323,236.648" style="stroke:#A80036;stroke-width:1.0;"/><!--MD5=[91ef064aa58798763c5d6beac2e16e0b]
link usantatecla.mastermind.views.console.GameView to usantatecla.mastermind.views.console.ProposedCombinationView--><path codeLine="49" d="M1172.7519,527.7282 C1172.7519,527.7282 1124.9323,562.834 1102.8123,579.074 " fill="none" id="usantatecla.mastermind.views.console.GameView-usantatecla.mastermind.views.console.ProposedCombinationView" style="stroke:#A80036;stroke-width:1.0;"/><polygon fill="#A80036" points="1092.1623,586.887,1101.7835,584.7816,1096.1916,583.9265,1097.0467,578.3347,1092.1623,586.887" style="stroke:#A80036;stroke-width:1.0;"/><line style="stroke:#A80036;stroke-width:1.0;" x1="1096.1916" x2="1102.6473" y1="583.9265" y2="579.194"/><polygon fill="#A80036" points="1182.4223,520.623,1175.2187,520.9521,1172.7519,527.7282,1179.9555,527.399,1182.4223,520.623" style="stroke:#A80036;stroke-width:1.0;"/><!--MD5=[6fd1f03f81fb53601a513d86ffa35878]
link usantatecla.mastermind.views.console.GameView to usantatecla.mastermind.views.console.SecretCombinationView--><path codeLine="50" d="M1097.633,524.3127 C1097.633,524.3127 970.7743,566.038 909.8033,587 C908.2243,587.543 906.6343,588.091 905.0353,588.644 " fill="none" id="usantatecla.mastermind.views.console.GameView-usantatecla.mastermind.views.console.SecretCombinationView" style="stroke:#A80036;stroke-width:1.0;"/><polygon fill="#A80036" points="892.6283,592.962,902.4431,593.7805,897.3503,591.318,899.8127,586.2253,892.6283,592.962" style="stroke:#A80036;stroke-width:1.0;"/><line style="stroke:#A80036;stroke-width:1.0;" x1="897.3503" x2="904.9063" y1="591.318" y2="588.689"/><polygon fill="#A80036" points="1109.0423,520.594,1102.0981,518.6503,1097.633,524.3127,1104.5772,526.2564,1109.0423,520.594" style="stroke:#A80036;stroke-width:1.0;"/><!--MD5=[455f14397b920a49ef35d70d7c28902f]
link usantatecla.mastermind.views.console.GameView to usantatecla.mastermind.views.console.ResultView--><path codeLine="51" d="M1239.8023,532.823 C1239.8023,532.823 1239.8023,564.736 1239.8023,579.231 " fill="none" id="usantatecla.mastermind.views.console.GameView-usantatecla.mastermind.views.console.ResultView" style="stroke:#A80036;stroke-width:1.0;"/><polygon fill="#A80036" points="1239.8023,592.607,1243.8023,583.607,1239.8023,587.607,1235.8023,583.607,1239.8023,592.607" style="stroke:#A80036;stroke-width:1.0;"/><line style="stroke:#A80036;stroke-width:1.0;" x1="1239.8023" x2="1239.8023" y1="587.607" y2="579.607"/><polygon fill="#A80036" points="1239.8023,520.823,1235.8023,526.823,1239.8023,532.823,1243.8023,526.823,1239.8023,520.823" style="stroke:#A80036;stroke-width:1.0;"/><!--MD5=[b90bd2c032648a28e3be92ea37f03571]
link usantatecla.mastermind.views.console.GameView to usantatecla.mastermind.views.console.AttemptsView--><path codeLine="52" d="M1287.6123,520.823 C1311.9423,542.363 1341.3323,568.386 1365.1923,589.51 " fill="none" id="usantatecla.mastermind.views.console.GameView-to-usantatecla.mastermind.views.console.AttemptsView" style="stroke:#A80036;stroke-width:1.0;stroke-dasharray:7.0,7.0;"/><polygon fill="#A80036" points="1368.9723,592.857,1364.8844,583.8966,1365.2283,589.543,1359.5819,589.887,1368.9723,592.857" style="stroke:#A80036;stroke-width:1.0;"/><!--MD5=[9936476178c9195e2bd4cf7c4f04aef3]
link usantatecla.mastermind.views.console.GameView to Logic--><path codeLine="53" d="M1107.5523,520.501 C1098.2023,522.878 1088.8923,525.078 1079.8023,527 C866.4433,572.131 793.0713,500.675 592.8033,587 C508.8383,623.193 431.2433,699.031 389.6153,744.579 " fill="none" id="usantatecla.mastermind.views.console.GameView-to-Logic" style="stroke:#A80036;stroke-width:1.0;stroke-dasharray:7.0,7.0;"/><polygon fill="#A80036" points="386.1903,748.347,395.2037,744.3772,389.5532,744.6469,389.2835,738.9965,386.1903,748.347" style="stroke:#A80036;stroke-width:1.0;"/><!--MD5=[f178d11a365fac98d5118f34f32492a3]
link usantatecla.mastermind.views.console.GameView to Message--><path codeLine="54" d="M1106.1823,520.588 C1097.2923,522.897 1088.4423,525.062 1079.8023,527 C902.2523,566.834 827.3093,487.738 674.8033,587 C617.6183,624.22 581.9923,698.338 564.6093,743.561 " fill="none" id="usantatecla.mastermind.views.console.GameView-to-Message" style="stroke:#A80036;stroke-width:1.0;stroke-dasharray:7.0,7.0;"/><polygon fill="#A80036" points="562.7813,748.386,569.7104,741.3869,564.5527,743.7103,562.2293,738.5526,562.7813,748.386" style="stroke:#A80036;stroke-width:1.0;"/><!--MD5=[bf5762cbc2c7de23763d98d5f8e47dc6]
link usantatecla.mastermind.views.console.GameView to Console--><path codeLine="55" d="M1381.9023,485.259 C1533.5023,495.798 1759.1123,522.189 1812.8023,587 C1889.0723,679.067 1890.5323,765.162 1812.8023,856 C1765.9323,910.7719 1554.2723,922.3763 1442.0923,924.6285 " fill="none" id="usantatecla.mastermind.views.console.GameView-to-Console" style="stroke:#A80036;stroke-width:1.0;stroke-dasharray:7.0,7.0;"/><polygon fill="#A80036" points="1436.8323,924.7288,1445.9105,928.548,1441.8313,924.6288,1445.7505,920.5496,1436.8323,924.7288" style="stroke:#A80036;stroke-width:1.0;"/><!--MD5=[f723ebbd27bbe42f987d03b0cfd97555]
reverse link WithLogicView to usantatecla.mastermind.views.console.ProposalView--><path codeLine="61" d="M1725.9423,200.069 C1541.0623,229.077 1130.6523,293.468 967.0633,319.133 " fill="none" id="WithLogicView-backto-usantatecla.mastermind.views.console.ProposalView" style="stroke:#A80036;stroke-width:1.0;"/><polygon fill="none" points="1724.9223,193.144,1745.7623,196.959,1727.0923,206.975,1724.9223,193.144" style="stroke:#A80036;stroke-width:1.0;"/><!--MD5=[34f45d8eb391e863c64e9d61cdbd6cb3]
link usantatecla.mastermind.views.console.ProposalView to usantatecla.mastermind.views.console.GameView--><path codeLine="62" d="M978.0661,365.9125 C978.0661,365.9125 1079.4323,408.741 1128.0423,429.278 " fill="none" id="usantatecla.mastermind.views.console.ProposalView-usantatecla.mastermind.views.console.GameView" style="stroke:#A80036;stroke-width:1.0;"/><polygon fill="#A80036" points="1140.2323,434.429,1133.4976,427.2426,1135.6262,432.4837,1130.3851,434.6123,1140.2323,434.429" style="stroke:#A80036;stroke-width:1.0;"/><line style="stroke:#A80036;stroke-width:1.0;" x1="1135.6262" x2="1128.2523" y1="432.4837" y2="429.369"/><polygon fill="#A80036" points="967.0123,361.242,970.9824,367.2618,978.0661,365.9125,974.096,359.8926,967.0123,361.242" style="stroke:#A80036;stroke-width:1.0;"/><!--MD5=[7af6c83f995de445f81a1f725c5d2bc8]
link usantatecla.mastermind.views.console.ProposalView to usantatecla.mastermind.views.console.ProposedCombinationView--><path codeLine="63" d="M818.2002,364.8159 C818.2002,364.8159 765.4013,401.03 750.8033,428 C729.8583,466.695 725.4893,491.011 750.8033,527 C753.4483,530.761 838.6533,561.09 915.0433,587.706 " fill="none" id="usantatecla.mastermind.views.console.ProposalView-usantatecla.mastermind.views.console.ProposedCombinationView" style="stroke:#A80036;stroke-width:1.0;"/><polygon fill="#A80036" points="927.7033,592.112,920.5182,585.376,922.9811,590.4685,917.8886,592.9315,927.7033,592.112" style="stroke:#A80036;stroke-width:1.0;"/><line style="stroke:#A80036;stroke-width:1.0;" x1="922.9811" x2="915.4258" y1="590.4685" y2="587.839"/><polygon fill="#A80036" points="828.7143,359.032,821.5293,358.4192,818.2002,364.8159,825.3852,365.4286,828.7143,359.032" style="stroke:#A80036;stroke-width:1.0;"/><!--MD5=[2727f618f40a8f936627bddbc362f055]
link usantatecla.mastermind.views.console.ProposalView to usantatecla.mastermind.views.console.ErrorView--><path codeLine="64" d="M883.0673,368.091 C876.3283,384.595 868.2043,404.492 860.7663,422.71 " fill="none" id="usantatecla.mastermind.views.console.ProposalView-to-usantatecla.mastermind.views.console.ErrorView" style="stroke:#A80036;stroke-width:1.0;stroke-dasharray:7.0,7.0;"/><polygon fill="#A80036" points="858.6883,427.799,865.7938,420.979,860.5785,423.17,858.3874,417.9547,858.6883,427.799" style="stroke:#A80036;stroke-width:1.0;"/><!--MD5=[0edd51a01858cea1367926dedebd8a05]
link usantatecla.mastermind.views.console.ProposalView to Logic--><path codeLine="65" d="M828.4153,362.038 C822.5063,364.191 816.5813,366.213 810.8033,368 C687.1383,406.243 646.8233,382.068 525.8033,428 C492.4443,440.661 264.7303,556.15 246.8033,587 C227.5993,620.048 231.9753,637.771 246.8033,673 C258.8593,701.645 282.5813,726.501 305.0103,745.168 " fill="none" id="usantatecla.mastermind.views.console.ProposalView-to-Logic" style="stroke:#A80036;stroke-width:1.0;stroke-dasharray:7.0,7.0;"/><polygon fill="#A80036" points="308.8873,748.345,304.4612,739.5467,305.0199,745.1759,299.3907,745.7346,308.8873,748.345" style="stroke:#A80036;stroke-width:1.0;"/><!--MD5=[3cb9512ac0041a53ec814edc084bd1a5]
link usantatecla.mastermind.views.console.ProposalView to Color--><path codeLine="66" d="M828.5673,362.569 C822.6253,364.604 816.6503,366.455 810.8033,368 C602.9443,422.927 512.0583,312.377 330.8033,428 C287.0343,455.92 297.4763,483.72 268.8033,527 C250.8253,554.136 236.5893,555.955 226.8033,587 C206.5843,651.143 249.3893,852.689 252.8033,856 C291.2203,893.2642 639.4803,914.081 797.0193,921.6628 " fill="none" id="usantatecla.mastermind.views.console.ProposalView-to-Color" style="stroke:#A80036;stroke-width:1.0;stroke-dasharray:7.0,7.0;"/><polygon fill="#A80036" points="802.0833,921.9051,793.2857,917.4777,797.0891,921.6651,792.9017,925.4685,802.0833,921.9051" style="stroke:#A80036;stroke-width:1.0;"/><!--MD5=[116b3b770c8904eef89988378d0d9d12]
link usantatecla.mastermind.views.console.ProposalView to Error--><path codeLine="67" d="M829.4533,368.121 C721.0733,425.396 511.0583,536.383 403.2483,593.357 " fill="none" id="usantatecla.mastermind.views.console.ProposalView-to-Error" style="stroke:#A80036;stroke-width:1.0;stroke-dasharray:7.0,7.0;"/><polygon fill="#A80036" points="398.5083,595.862,408.3343,595.1911,402.9284,593.5248,404.5948,588.1189,398.5083,595.862" style="stroke:#A80036;stroke-width:1.0;"/><!--MD5=[8e2491fcdfe202c394d46783ea03aa64]
reverse link WithLogicView to usantatecla.mastermind.views.console.ProposedCombinationView--><path codeLine="74" d="M1854.5923,235.539 C1865.1923,253.161 1875.4023,273.662 1880.8023,294 C1907.3823,394.086 1950.9323,450.803 1880.8023,527 C1826.2923,586.231 1237.6223,570.633 1158.8023,587 C1153.2423,588.155 1147.5823,589.486 1141.8923,590.945 " fill="none" id="WithLogicView-backto-usantatecla.mastermind.views.console.ProposedCombinationView" style="stroke:#A80036;stroke-width:1.0;"/><polygon fill="none" points="1848.6823,239.29,1843.8123,218.668,1860.4823,231.752,1848.6823,239.29" style="stroke:#A80036;stroke-width:1.0;"/><!--MD5=[44214b583fdef523f9f88d3b7a8d70b5]
link usantatecla.mastermind.views.console.ProposedCombinationView to usantatecla.mastermind.views.console.ColorView--><path codeLine="75" d="M1035.0843,673.323 C1035.1973,690.25 1035.3273,709.946 1035.4463,727.858 " fill="none" id="usantatecla.mastermind.views.console.ProposedCombinationView-to-usantatecla.mastermind.views.console.ColorView" style="stroke:#A80036;stroke-width:1.0;stroke-dasharray:7.0,7.0;"/><polygon fill="#A80036" points="1035.4803,732.859,1039.421,723.8329,1035.4474,727.8591,1031.4212,723.8855,1035.4803,732.859" style="stroke:#A80036;stroke-width:1.0;"/><!--MD5=[0460f360e35b54ae950d18f4effb1a50]
link usantatecla.mastermind.views.console.ProposedCombinationView to Logic--><path codeLine="76" d="M927.7913,668.428 C921.7373,670.084 915.7123,671.625 909.8033,673 C714.1423,718.533 654.6023,676.567 461.8033,733 C449.7343,736.533 437.2943,741.272 425.4003,746.408 " fill="none" id="usantatecla.mastermind.views.console.ProposedCombinationView-to-Logic" style="stroke:#A80036;stroke-width:1.0;stroke-dasharray:7.0,7.0;"/><polygon fill="#A80036" points="420.6943,748.472,430.543,748.5194,425.2731,746.4633,427.3292,741.1934,420.6943,748.472" style="stroke:#A80036;stroke-width:1.0;"/><!--MD5=[a0933519c1a055e22b8e4f80fd0a030c]
link usantatecla.mastermind.views.console.ProposedCombinationView to Color--><path codeLine="77" d="M986.6653,673.135 C969.3553,690.296 950.8923,711.215 937.8033,733 C908.3623,782.001 890.4933,846.267 881.3783,886.6042 " fill="none" id="usantatecla.mastermind.views.console.ProposedCombinationView-to-Color" style="stroke:#A80036;stroke-width:1.0;stroke-dasharray:7.0,7.0;"/><polygon fill="#A80036" points="880.2033,891.8891,886.061,883.9716,881.2883,887.0082,878.2516,882.2355,880.2033,891.8891" style="stroke:#A80036;stroke-width:1.0;"/><!--MD5=[58593a47527012b78667630e5c48f8ef]
link usantatecla.mastermind.views.console.ProposedCombinationView to Message--><path codeLine="78" d="M927.6363,667.822 C921.6223,669.634 915.6483,671.374 909.8033,673 C791.3753,705.955 754.7983,689.559 639.8033,733 C630.1263,736.655 620.2113,741.22 610.6873,746.075 " fill="none" id="usantatecla.mastermind.views.console.ProposedCombinationView-to-Message" style="stroke:#A80036;stroke-width:1.0;stroke-dasharray:7.0,7.0;"/><polygon fill="#A80036" points="606.0463,748.48,615.8776,747.892,610.486,746.1802,612.1979,740.7886,606.0463,748.48" style="stroke:#A80036;stroke-width:1.0;"/><!--MD5=[bb135094d23d21d3527ec7eab1716e09]
link usantatecla.mastermind.views.console.ProposedCombinationView to Console--><path codeLine="79" d="M1125.7323,673.031 C1154.4523,689.114 1184.9023,709.366 1208.8023,733 C1254.1723,777.854 1240.4223,808.31 1282.8023,856 C1295.8623,870.6949 1312.3923,884.4907 1327.6523,895.8268 " fill="none" id="usantatecla.mastermind.views.console.ProposedCombinationView-to-Console" style="stroke:#A80036;stroke-width:1.0;stroke-dasharray:7.0,7.0;"/><polygon fill="#A80036" points="1331.9123,898.9576,1327.0214,890.4089,1327.8807,896.0001,1322.2895,896.8594,1331.9123,898.9576" style="stroke:#A80036;stroke-width:1.0;"/><!--MD5=[0db58fbf04feb22993feb6065b2fc2f2]
reverse link WithLogicView to usantatecla.mastermind.views.console.SecretCombinationView--><path codeLine="85" d="M1823.5023,238.796 C1824.1323,278.456 1818.5723,331.772 1789.8023,368 C1539.1823,683.642 1301.9223,493.795 909.8033,587 C902.5593,588.722 895.1433,590.742 887.7323,592.95 " fill="none" id="WithLogicView-backto-usantatecla.mastermind.views.console.SecretCombinationView" style="stroke:#A80036;stroke-width:1.0;"/><polygon fill="none" points="1816.5023,238.918,1822.6423,218.638,1830.4823,238.322,1816.5023,238.918" style="stroke:#A80036;stroke-width:1.0;"/><!--MD5=[8479b5ac485b44b3dc6161b53f46cf70]
link usantatecla.mastermind.views.console.SecretCombinationView to Logic--><path codeLine="86" d="M692.7373,657.954 C626.4393,676.756 537.9773,703.661 461.8033,733 C451.4043,737.005 440.5853,741.575 430.0253,746.273 " fill="none" id="usantatecla.mastermind.views.console.SecretCombinationView-to-Logic" style="stroke:#A80036;stroke-width:1.0;stroke-dasharray:7.0,7.0;"/><polygon fill="#A80036" points="425.1943,748.438,435.0431,748.4086,429.7573,746.3937,431.7722,741.1078,425.1943,748.438" style="stroke:#A80036;stroke-width:1.0;"/><!--MD5=[1e0a09d0f9d89e3147254c7ba510437f]
link usantatecla.mastermind.views.console.SecretCombinationView to Message--><path codeLine="87" d="M735.0773,667.048 C697.0743,690.781 647.5143,721.73 609.5143,745.461 " fill="none" id="usantatecla.mastermind.views.console.SecretCombinationView-to-Message" style="stroke:#A80036;stroke-width:1.0;stroke-dasharray:7.0,7.0;"/><polygon fill="#A80036" points="604.9383,748.318,614.6908,746.9438,609.1793,745.6697,610.4535,740.1582,604.9383,748.318" style="stroke:#A80036;stroke-width:1.0;"/><!--MD5=[c65e49329e258f4189c1811921b7eeec]
link usantatecla.mastermind.views.console.SecretCombinationView to Console--><path codeLine="88" d="M891.5523,667.09 C897.7103,669.141 903.8313,671.128 909.8033,673 C1007.7413,703.698 1051.2223,670.721 1132.8023,733 C1183.1523,771.437 1157.0323,814.399 1204.8023,856 C1232.3123,879.9566 1269.2823,896.3858 1301.4523,907.1832 " fill="none" id="usantatecla.mastermind.views.console.SecretCombinationView-to-Console" style="stroke:#A80036;stroke-width:1.0;stroke-dasharray:7.0,7.0;"/><polygon fill="#A80036" points="1306.5623,908.8681,1299.2564,902.2632,1301.8112,907.3103,1296.764,909.8651,1306.5623,908.8681" style="stroke:#A80036;stroke-width:1.0;"/><!--MD5=[6f3946f905c65ce0a917c0241edd3d63]
reverse link WithLogicView to usantatecla.mastermind.views.console.ResultView--><path codeLine="94" d="M1896.6823,230.408 C1918.6223,247.304 1939.7823,268.671 1951.8023,294 C1996.2123,387.548 2021.4723,450.388 1951.8023,527 C1857.0323,631.207 1455.9123,547.184 1320.8023,587 C1314.8823,588.746 1308.8723,590.935 1302.9623,593.392 " fill="none" id="WithLogicView-backto-usantatecla.mastermind.views.console.ResultView" style="stroke:#A80036;stroke-width:1.0;"/><polygon fill="none" points="1892.4423,235.986,1880.2823,218.636,1900.6123,224.613,1892.4423,235.986" style="stroke:#A80036;stroke-width:1.0;"/><!--MD5=[50debc2a6c350425cc3afaa09ef0ebdb]
link usantatecla.mastermind.views.console.ResultView to Logic--><path codeLine="95" d="M1176.6623,666.666 C1170.7423,669.11 1164.7323,671.28 1158.8023,673 C860.1703,759.556 762.1873,652.732 461.8033,733 C449.3143,736.337 436.4753,741.099 424.2653,746.348 " fill="none" id="usantatecla.mastermind.views.console.ResultView-to-Logic" style="stroke:#A80036;stroke-width:1.0;stroke-dasharray:7.0,7.0;"/><polygon fill="#A80036" points="419.4383,748.462,429.287,748.5131,424.0178,746.4551,426.0759,741.1859,419.4383,748.462" style="stroke:#A80036;stroke-width:1.0;"/><!--MD5=[cad2abc1d50cb4b224a40fb44d276e41]
link usantatecla.mastermind.views.console.ResultView to Message--><path codeLine="96" d="M1176.6023,666.479 C1170.7023,668.963 1164.7123,671.194 1158.8023,673 C936.7473,740.894 860.9803,662.296 639.8033,733 C629.4283,736.316 618.8793,740.9 608.8593,745.936 " fill="none" id="usantatecla.mastermind.views.console.ResultView-to-Message" style="stroke:#A80036;stroke-width:1.0;stroke-dasharray:7.0,7.0;"/><polygon fill="#A80036" points="604.2943,748.278,614.1278,747.7277,608.7428,745.9952,610.4753,740.6102,604.2943,748.278" style="stroke:#A80036;stroke-width:1.0;"/><!--MD5=[fa2803cdc31af4e95d3ca8372e54d78c]
link usantatecla.mastermind.views.console.ResultView to Console--><path codeLine="97" d="M1256.6823,667.289 C1265.6923,686.744 1276.9323,711.144 1286.8023,733 C1312.3723,789.594 1341.5523,855.887 1358.2123,893.9109 " fill="none" id="usantatecla.mastermind.views.console.ResultView-to-Console" style="stroke:#A80036;stroke-width:1.0;stroke-dasharray:7.0,7.0;"/><polygon fill="#A80036" points="1360.3823,898.8581,1360.4279,889.0093,1358.3728,894.2797,1353.1025,892.2245,1360.3823,898.8581" style="stroke:#A80036;stroke-width:1.0;"/><!--MD5=[64557cecb1a419f39e45dd545526725b]
reverse link WithLogicView to usantatecla.mastermind.views.console.AttemptsView--><path codeLine="103" d="M1910.8623,210.477 C1952.7323,226.941 1998.3023,253.222 2022.8023,294 C2076.1323,382.768 2091.7323,449.722 2022.8023,527 C1944.7823,614.464 1611.5223,554.895 1498.8023,587 C1492.8923,588.685 1486.8723,590.726 1480.9123,592.991 " fill="none" id="WithLogicView-backto-usantatecla.mastermind.views.console.AttemptsView" style="stroke:#A80036;stroke-width:1.0;"/><polygon fill="none" points="1908.3623,217.017,1891.9723,203.586,1913.1623,203.865,1908.3623,217.017" style="stroke:#A80036;stroke-width:1.0;"/><!--MD5=[accf8b17243c35af73fec191bd150f11]
link usantatecla.mastermind.views.console.AttemptsView to Logic--><path codeLine="104" d="M1338.7123,667.02 C1332.4223,669.334 1326.0623,671.38 1319.8023,673 C949.7293,768.767 831.8903,637.282 461.8033,733 C449.2033,736.259 436.2613,741.013 423.9723,746.287 " fill="none" id="usantatecla.mastermind.views.console.AttemptsView-to-Logic" style="stroke:#A80036;stroke-width:1.0;stroke-dasharray:7.0,7.0;"/><polygon fill="#A80036" points="419.1153,748.412,428.964,748.4694,423.6961,746.408,425.7576,741.1401,419.1153,748.412" style="stroke:#A80036;stroke-width:1.0;"/><!--MD5=[738f77d4bd907962f647ef647715b407]
link usantatecla.mastermind.views.console.AttemptsView to Console--><path codeLine="105" d="M1405.1423,667.05 C1397.6323,725.13 1382.9923,838.454 1375.8723,893.4938 " fill="none" id="usantatecla.mastermind.views.console.AttemptsView-to-Console" style="stroke:#A80036;stroke-width:1.0;stroke-dasharray:7.0,7.0;"/><polygon fill="#A80036" points="1375.2123,898.6345,1380.3304,890.2199,1375.8517,893.6756,1372.396,889.1969,1375.2123,898.6345" style="stroke:#A80036;stroke-width:1.0;"/><!--MD5=[d70cfd223097805628f7b93885746474]
link usantatecla.mastermind.views.console.AttemptsView to Message--><path codeLine="106" d="M1338.1723,667.083 C1332.0523,669.348 1325.8823,671.368 1319.8023,673 C1026.7853,751.677 930.0173,644.541 639.8033,733 C629.2403,736.22 618.5193,740.813 608.3663,745.903 " fill="none" id="usantatecla.mastermind.views.console.AttemptsView-to-Message" style="stroke:#A80036;stroke-width:1.0;stroke-dasharray:7.0,7.0;"/><polygon fill="#A80036" points="603.7433,748.274,613.5769,747.7262,608.1923,745.9923,609.9262,740.6078,603.7433,748.274" style="stroke:#A80036;stroke-width:1.0;"/><!--MD5=[4e2709992aeba74cd8a18434f41dce90]
reverse link ColorView to usantatecla.mastermind.views.console.ColorView--><path codeLine="114" d="M1502.5323,671.34 C1500.9523,671.909 1499.3723,672.463 1497.8023,673 C1367.0223,717.716 1209.2623,750.418 1116.0323,767.65 " fill="none" id="ColorView-backto-usantatecla.mastermind.views.console.ColorView" style="stroke:#A80036;stroke-width:1.0;"/><polygon fill="none" points="1500.1523,664.757,1521.3323,664.039,1505.2223,677.807,1500.1523,664.757" style="stroke:#A80036;stroke-width:1.0;"/><!--MD5=[2aef66e15b01ad184c4ce0d2e2e7310c]
link usantatecla.mastermind.views.console.ColorView to ColorCode--><path codeLine="115" d="M1039.2423,832.196 C1040.6823,852.482 1042.3023,875.455 1043.5723,893.4692 " fill="none" id="usantatecla.mastermind.views.console.ColorView-to-ColorCode" style="stroke:#A80036;stroke-width:1.0;stroke-dasharray:7.0,7.0;"/><polygon fill="#A80036" points="1043.9623,898.8921,1047.3175,889.6324,1043.6096,893.9046,1039.3374,890.1967,1043.9623,898.8921" style="stroke:#A80036;stroke-width:1.0;"/><!--MD5=[a37bf943a63f3006ec72e7a59689964d]
link usantatecla.mastermind.views.console.ColorView to Console--><path codeLine="116" d="M1110.8523,832.07 C1125.7523,840.673 1141.5223,849.081 1156.8023,856 C1203.5723,877.1751 1258.7523,894.7417 1301.4923,906.8507 " fill="none" id="usantatecla.mastermind.views.console.ColorView-to-Console" style="stroke:#A80036;stroke-width:1.0;stroke-dasharray:7.0,7.0;"/><polygon fill="#A80036" points="1306.3823,908.2263,1298.8057,901.9338,1301.57,906.8693,1296.6345,909.6336,1306.3823,908.2263" style="stroke:#A80036;stroke-width:1.0;"/><!--MD5=[69dc8072829cbbfdbc9d9a2751321cd9]
link usantatecla.mastermind.views.console.ColorView to Color--><path codeLine="117" d="M980.0523,832.196 C958.9443,850.633 935.2943,871.2901 915.6753,888.4264 " fill="none" id="usantatecla.mastermind.views.console.ColorView-to-Color" style="stroke:#A80036;stroke-width:1.0;stroke-dasharray:7.0,7.0;"/><polygon fill="#A80036" points="911.8073,891.805,921.2173,888.8979,915.5734,888.5161,915.9551,882.8722,911.8073,891.805" style="stroke:#A80036;stroke-width:1.0;"/><!--MD5=[21f4368561ef8ab68eb0033a214ce281]
reverse link ErrorView to usantatecla.mastermind.views.console.ErrorView--><path codeLine="126" d="M1493.8023,368.262 C1246.0523,425.907 1164.0823,353.507 926.8033,428 C921.1443,429.777 915.4363,431.937 909.7923,434.347 " fill="none" id="ErrorView-backto-usantatecla.mastermind.views.console.ErrorView" style="stroke:#A80036;stroke-width:1.0;"/><polygon fill="none" points="1492.4323,361.394,1513.5123,363.487,1495.7223,375,1492.4323,361.394" style="stroke:#A80036;stroke-width:1.0;"/><!--MD5=[7451bd3d087460174f80dc13e9004d7a]
link usantatecla.mastermind.views.console.ErrorView to Error--><path codeLine="127" d="M768.2093,494.313 C686.8663,513.255 549.6423,547.433 434.8033,587 C427.4213,589.543 419.8093,592.377 412.2383,595.337 " fill="none" id="usantatecla.mastermind.views.console.ErrorView-to-Error" style="stroke:#A80036;stroke-width:1.0;stroke-dasharray:7.0,7.0;"/><polygon fill="#A80036" points="407.5333,597.196,417.3733,597.6128,412.1842,595.3605,414.4365,590.1714,407.5333,597.196" style="stroke:#A80036;stroke-width:1.0;"/><!--MD5=[b6f3fff8c22bf6afa8b0a8da791006e0]
link usantatecla.mastermind.views.console.ErrorView to Console--><path codeLine="128" d="M909.7423,520.814 C915.3983,523.188 921.1223,525.295 926.8033,527 C1007.2993,551.158 1623.7823,525.261 1680.8023,587 C1786.2823,701.208 1550.3423,838.146 1433.0223,896.4572 " fill="none" id="usantatecla.mastermind.views.console.ErrorView-to-Console" style="stroke:#A80036;stroke-width:1.0;stroke-dasharray:7.0,7.0;"/><polygon fill="#A80036" points="1428.2123,898.8365,1438.053,898.4359,1432.695,896.6217,1434.5093,891.2636,1428.2123,898.8365" style="stroke:#A80036;stroke-width:1.0;"/><!--MD5=[0144a89e07469074881e23a062c69e12]
link usantatecla.mastermind.views.console.ErrorView to usantatecla.mastermind.views.console.ColorView--><path codeLine="129" d="M768.0983,505.977 C733.3183,523.52 694.6823,550.012 674.8033,587 C656.7083,620.668 651.9953,642.329 674.8033,673 C707.7973,717.369 854.5173,750.437 950.4553,767.792 " fill="none" id="usantatecla.mastermind.views.console.ErrorView-to-usantatecla.mastermind.views.console.ColorView" style="stroke:#A80036;stroke-width:1.0;stroke-dasharray:7.0,7.0;"/><polygon fill="#A80036" points="955.5553,768.708,947.4046,763.1794,950.6341,767.8238,945.9898,771.0533,955.5553,768.708" style="stroke:#A80036;stroke-width:1.0;"/><!--MD5=[ef4b574b3d9620ac98dc4017b720ee12]
@startuml
class Logic as "usantatecla.\nmastermind.controllers.\nLogic"
enum Error as "usantatecla.\nmastermind.types.\nError"
enum Color as "usantatecla.\nmastermind.types.\nColor"
abstract class WithLogicView as "usantatecla.\nmastermind.views.\nWithLogicView"
abstract class View as "usantatecla.\nmastermind.views.\nView"
abstract class ColorView as "usantatecla.\nmastermind.views.\nColorView"
abstract class ErrorView as "usantatecla.\nmastermind.views.\nErrorView"
enum Message as "usantatecla.\nmastermind.views.\nMessage"
class Console as "usantatecla.utils.\nConsole"
class YesNoDialog as "usantatecla.utils.\nYesNoDialog"
enum ColorCode as "usantatecla.utils.\nColorCode"

class usantatecla.mastermind.views.console.ConsoleView {
    + ConsoleView(Logic)
    # start()
    # propose() : boolean
    # isNewGame() : boolean
}
usantatecla.mastermind.views.console.ConsoleView -up-|> View
usantatecla.mastermind.views.console.ConsoleView *-down-> usantatecla.mastermind.views.console.StartView
usantatecla.mastermind.views.console.ConsoleView *-down-> usantatecla.mastermind.views.console.ProposalView
usantatecla.mastermind.views.console.ConsoleView *-down-> usantatecla.mastermind.views.console.ResumeView
usantatecla.mastermind.views.console.ConsoleView .down.> Logic

class usantatecla.mastermind.views.console.ResumeView {
    ~ ResumeView(Logic)
    ~ interact() : boolean
}
usantatecla.mastermind.views.console.ResumeView -up-|> WithLogicView
usantatecla.mastermind.views.console.ResumeView .down.> Logic
usantatecla.mastermind.views.console.ResumeView .down.> Message
usantatecla.mastermind.views.console.ResumeView .down.> YesNoDialog

class usantatecla.mastermind.views.console.StartView {
    - StartView(Logic)
    ~ interact()
}
usantatecla.mastermind.views.console.StartView -up-|> WithLogicView
usantatecla.mastermind.views.console.StartView *-down-> usantatecla.mastermind.views.console.SecretCombinationView
usantatecla.mastermind.views.console.StartView .down.> Console
usantatecla.mastermind.views.console.StartView .down.> Message

class usantatecla.mastermind.views.console.GameView {
    ~ GameView(Logic, ProposedCombinationView)
    ~ write()
    ~ isWinnerOrLooser() : boolean
}
usantatecla.mastermind.views.console.GameView -up-|> WithLogicView
usantatecla.mastermind.views.console.GameView *-down-> usantatecla.mastermind.views.console.ProposedCombinationView
usantatecla.mastermind.views.console.GameView *-down-> usantatecla.mastermind.views.console.SecretCombinationView
usantatecla.mastermind.views.console.GameView *-down-> usantatecla.mastermind.views.console.ResultView
usantatecla.mastermind.views.console.GameView .down.> usantatecla.mastermind.views.console.AttemptsView
usantatecla.mastermind.views.console.GameView .down.> Logic
usantatecla.mastermind.views.console.GameView .down.> Message
usantatecla.mastermind.views.console.GameView .down.> Console

class usantatecla.mastermind.views.console.ProposalView {
    ~ ProposalView(Logic)
    ~ interact() : boolean
}
usantatecla.mastermind.views.console.ProposalView -up-|> WithLogicView
usantatecla.mastermind.views.console.ProposalView *-down-> usantatecla.mastermind.views.console.GameView
usantatecla.mastermind.views.console.ProposalView *-down-> usantatecla.mastermind.views.console.ProposedCombinationView
usantatecla.mastermind.views.console.ProposalView .down.> usantatecla.mastermind.views.console.ErrorView
usantatecla.mastermind.views.console.ProposalView .down.> Logic
usantatecla.mastermind.views.console.ProposalView .down.> Color
usantatecla.mastermind.views.console.ProposalView .down.> Error

class usantatecla.mastermind.views.console.ProposedCombinationView {
    ~ ProposedCombinationView(Logic)
    ~ write(int)
    ~ read(): List<Color>
}
usantatecla.mastermind.views.console.ProposedCombinationView -up-|> WithLogicView
usantatecla.mastermind.views.console.ProposedCombinationView .down.> usantatecla.mastermind.views.console.ColorView
usantatecla.mastermind.views.console.ProposedCombinationView .down.> Logic
usantatecla.mastermind.views.console.ProposedCombinationView .down.> Color
usantatecla.mastermind.views.console.ProposedCombinationView .down.> Message
usantatecla.mastermind.views.console.ProposedCombinationView .down.> Console

class usantatecla.mastermind.views.console.SecretCombinationView {
    ~ SecretCombinationView(Logic)
    ~ writeln()
}
usantatecla.mastermind.views.console.SecretCombinationView -up-|> WithLogicView
usantatecla.mastermind.views.console.SecretCombinationView .down.> Logic
usantatecla.mastermind.views.console.SecretCombinationView .down.> Message
usantatecla.mastermind.views.console.SecretCombinationView .down.> Console

class usantatecla.mastermind.views.console.ResultView {
    ~ ResultView(Logic)
    ~ writeln(int)
}
usantatecla.mastermind.views.console.ResultView -up-|> WithLogicView
usantatecla.mastermind.views.console.ResultView .down.> Logic
usantatecla.mastermind.views.console.ResultView .down.> Message
usantatecla.mastermind.views.console.ResultView .down.> Console

class usantatecla.mastermind.views.console.AttemptsView {
    ~ AttemptsView(Logic)
    + writeln()
}
usantatecla.mastermind.views.console.AttemptsView -up-|> WithLogicView
usantatecla.mastermind.views.console.AttemptsView .down.> Logic
usantatecla.mastermind.views.console.AttemptsView .down.> Console
usantatecla.mastermind.views.console.AttemptsView .down.> Message

class usantatecla.mastermind.views.console.ColorView {
    ~ ColorView()
    ~ ColorView(Color)
    # resultInitials(int) : String
    ~ write()
}
usantatecla.mastermind.views.console.ColorView -up-|> ColorView
usantatecla.mastermind.views.console.ColorView .down.> ColorCode
usantatecla.mastermind.views.console.ColorView .down.> Console
usantatecla.mastermind.views.console.ColorView .down.> Color

class usantatecla.mastermind.views.console.ErrorView {
    ~ ErrorView()
    ~ ErrorView(Error)
    ~ writeln()
    # colorInitials() : String
}

usantatecla.mastermind.views.console.ErrorView -up-|> ErrorView
usantatecla.mastermind.views.console.ErrorView ..> Error
usantatecla.mastermind.views.console.ErrorView ..> Console
usantatecla.mastermind.views.console.ErrorView ..> usantatecla.mastermind.views.console.ColorView
@enduml

PlantUML version 1.2020.23beta3(Unknown compile time)
(GPL source distribution)
Java Runtime: Java(TM) SE Runtime Environment
JVM: Java HotSpot(TM) 64-Bit Server VM
Default Encoding: UTF-8
Language: en
Country: US
--></g></svg>