<?xml version="1.0" encoding="UTF-8" standalone="no"?>
<svg xmlns="http://www.w3.org/2000/svg" contentScriptType="application/ecmascript" contentStyleType="text/css"
     height="568px" preserveAspectRatio="none" style="width:1176px;height:568px;" version="1.1" viewBox="0 0 1176 568"
     width="1176px" zoomAndPan="magnify"><defs><filter height="300%" id="flcr1naxs71sh" width="300%" x="-1" y="-1"><feGaussianBlur result="blurOut" stdDeviation="2.0"/><feColorMatrix in="blurOut" result="blurOut2" type="matrix" values="0 0 0 0 0 0 0 0 0 0 0 0 0 0 0 0 0 0 .4 0"/><feOffset dx="4.0" dy="4.0" in="blurOut2" result="blurOut3"/><feBlend in="SourceGraphic" in2="blurOut3" mode="normal"/></filter></defs><g><!--MD5=[45607799a901819e6cc4b6d8cd00ce6c]
cluster usantatecla.mastermind.controllers--><polygon fill="#FFFFFF" filter="url(#flcr1naxs71sh)" points="112.1568,6,413.1568,6,420.1568,28.2969,814.1568,28.2969,814.1568,443,112.1568,443,112.1568,6" style="stroke:#000000;stroke-width:1.5;"/><line style="stroke:#000000;stroke-width:1.5;" x1="112.1568" x2="420.1568" y1="28.2969" y2="28.2969"/><text fill="#000000" font-family="sans-serif" font-size="14" font-weight="bold" lengthAdjust="spacingAndGlyphs" textLength="295" x="116.1568" y="20.9951">usantatecla.mastermind.controllers</text><!--MD5=[e0d21a3c8ca66756a771586930837509]
class usantatecla.mastermind.controllers.Controller--><rect codeLine="6" fill="#FEFECE" filter="url(#flcr1naxs71sh)" height="73.6094" id="usantatecla.mastermind.controllers.Controller" style="stroke:#A80036;stroke-width:1.5;" width="124" x="348.1568" y="92"/><ellipse cx="378.4568" cy="108" fill="#A9DCDF" rx="11" ry="11" style="stroke:#A80036;stroke-width:1.0;"/><path d="M380.5349,109.8125 L380.9256,110.7969 L380.5349,110.7969 C380.0818,110.7969 379.9724,110.8125 379.8162,110.9219 C379.5662,111.0781 379.4099,111.3594 379.4099,111.6563 C379.4099,111.9219 379.5506,112.1719 379.7693,112.3281 C379.9099,112.4531 380.1131,112.5 380.5349,112.5 L382.8943,112.5 C383.2537,112.5 383.4724,112.4688 383.6131,112.375 C383.8631,112.2344 384.0193,111.9375 384.0193,111.6563 C384.0193,111.375 383.8787,111.125 383.6599,110.9688 C383.4881,110.8281 383.3318,110.7969 382.8631,110.7969 L379.4724,102.5938 L375.8006,102.5938 C375.3474,102.5938 375.2224,102.6094 375.0662,102.7031 C374.8162,102.875 374.6599,103.1563 374.6599,103.4375 C374.6599,103.7188 374.8006,103.9688 375.0193,104.1406 C375.1912,104.25 375.3631,104.2813 375.8006,104.2813 L376.8787,104.2813 L374.2381,110.7969 C373.8162,110.7969 373.6599,110.8125 373.5037,110.9219 C373.2537,111.0781 373.0974,111.3594 373.0974,111.6563 C373.0974,112.2188 373.4724,112.5 374.2224,112.5 L376.4881,112.5 C376.8474,112.5 377.0662,112.4688 377.1912,112.375 C377.4568,112.2344 377.5974,111.9375 377.5974,111.6563 C377.5974,111.375 377.4724,111.125 377.2537,110.9531 C377.0818,110.8281 376.9412,110.7969 376.4881,110.7969 L376.0974,110.7969 L376.4881,109.8125 L380.5349,109.8125 Z M379.8318,108.1094 L377.1599,108.1094 L378.5037,104.8438 L379.8318,108.1094 Z " fill="#000000"/><text fill="#000000" font-family="sans-serif" font-size="12" font-style="italic" lengthAdjust="spacingAndGlyphs" textLength="58" x="395.8568" y="112.1543">Controller</text><line style="stroke:#A80036;stroke-width:1.5;" x1="349.1568" x2="471.1568" y1="124" y2="124"/><line style="stroke:#A80036;stroke-width:1.5;" x1="349.1568" x2="471.1568" y1="132" y2="132"/><polygon fill="#4177AF" points="359.1568,139,355.1568,145,363.1568,145" style="stroke:#1963A0;stroke-width:1.0;"/><text fill="#000000" font-family="sans-serif" font-size="11" lengthAdjust="spacingAndGlyphs" textLength="98" x="368.1568" y="146.2104">Controller(Game)</text><ellipse cx="359.1568" cy="155.8047" fill="#84BE84" rx="3" ry="3" style="stroke:#038048;stroke-width:1.0;"/><text fill="#000000" font-family="sans-serif" font-size="11" lengthAdjust="spacingAndGlyphs" textLength="80" x="368.1568" y="159.0151">getWidth(): int</text><!--MD5=[94a6d75594c4867cc1b5bdf8bdcd38a2]
class usantatecla.mastermind.controllers.Logic--><rect codeLine="13" fill="#FEFECE" filter="url(#flcr1naxs71sh)" height="176.0469" id="usantatecla.mastermind.controllers.Logic" style="stroke:#A80036;stroke-width:1.5;" width="277" x="513.6568" y="41"/><ellipse cx="631.9068" cy="57" fill="#ADD1B2" rx="11" ry="11" style="stroke:#A80036;stroke-width:1.0;"/><path d="M634.2506,52.6719 C633.3131,52.2344 632.7193,52.0938 631.8443,52.0938 C629.2193,52.0938 627.2193,54.1719 627.2193,56.8906 L627.2193,58.0156 C627.2193,60.5938 629.3287,62.4844 632.2193,62.4844 C633.4381,62.4844 634.5943,62.1875 635.3443,61.6406 C635.9224,61.2344 636.2506,60.7813 636.2506,60.3906 C636.2506,59.9375 635.8599,59.5469 635.3912,59.5469 C635.1724,59.5469 634.9693,59.625 634.7818,59.8125 C634.3287,60.2969 634.3287,60.2969 634.1412,60.3906 C633.7193,60.6563 633.0318,60.7813 632.2662,60.7813 C630.2193,60.7813 628.9224,59.6875 628.9224,57.9844 L628.9224,56.8906 C628.9224,55.1094 630.1724,53.7969 631.9068,53.7969 C632.4849,53.7969 633.0943,53.9531 633.5631,54.2031 C634.0474,54.4844 634.2193,54.7031 634.3131,55.1094 C634.3756,55.5156 634.4068,55.6406 634.5474,55.7656 C634.6881,55.9063 634.9224,56.0156 635.1412,56.0156 C635.4068,56.0156 635.6724,55.875 635.8443,55.6563 C635.9537,55.5 635.9849,55.3125 635.9849,54.8906 L635.9849,53.4688 C635.9849,53.0313 635.9693,52.9063 635.8756,52.75 C635.7193,52.4844 635.4381,52.3438 635.1412,52.3438 C634.8443,52.3438 634.6412,52.4375 634.4224,52.75 L634.2506,52.6719 Z " fill="#000000"/><text fill="#000000" font-family="sans-serif" font-size="12" lengthAdjust="spacingAndGlyphs" textLength="32" x="652.4068" y="61.1543">Logic</text><line style="stroke:#A80036;stroke-width:1.5;" x1="514.6568" x2="789.6568" y1="73" y2="73"/><line style="stroke:#A80036;stroke-width:1.5;" x1="514.6568" x2="789.6568" y1="81" y2="81"/><ellipse cx="524.6568" cy="92" fill="#84BE84" rx="3" ry="3" style="stroke:#038048;stroke-width:1.0;"/><text fill="#000000" font-family="sans-serif" font-size="11" lengthAdjust="spacingAndGlyphs" textLength="37" x="533.6568" y="95.2104">Logic()</text><ellipse cx="524.6568" cy="104.8047" fill="#84BE84" rx="3" ry="3" style="stroke:#038048;stroke-width:1.0;"/><text fill="#000000" font-family="sans-serif" font-size="11" lengthAdjust="spacingAndGlyphs" textLength="71" x="533.6568" y="108.0151">clearGame()</text><ellipse cx="524.6568" cy="117.6094" fill="#84BE84" rx="3" ry="3" style="stroke:#038048;stroke-width:1.0;"/><text fill="#000000" font-family="sans-serif" font-size="11" lengthAdjust="spacingAndGlyphs" textLength="251" x="533.6568" y="120.8198">addProposedCombination(List&lt;Color&gt;): Error</text><ellipse cx="524.6568" cy="130.4141" fill="#84BE84" rx="3" ry="3" style="stroke:#038048;stroke-width:1.0;"/><text fill="#000000" font-family="sans-serif" font-size="11" lengthAdjust="spacingAndGlyphs" textLength="110" x="533.6568" y="133.6245">isWinner(): boolean</text><ellipse cx="524.6568" cy="143.2188" fill="#84BE84" rx="3" ry="3" style="stroke:#038048;stroke-width:1.0;"/><text fill="#000000" font-family="sans-serif" font-size="11" lengthAdjust="spacingAndGlyphs" textLength="108" x="533.6568" y="146.4292">isLooser(): boolean</text><ellipse cx="524.6568" cy="156.0234" fill="#84BE84" rx="3" ry="3" style="stroke:#038048;stroke-width:1.0;"/><text fill="#000000" font-family="sans-serif" font-size="11" lengthAdjust="spacingAndGlyphs" textLength="100" x="533.6568" y="159.2339">getAttempts(): int</text><ellipse cx="524.6568" cy="168.8281" fill="#84BE84" rx="3" ry="3" style="stroke:#038048;stroke-width:1.0;"/><text fill="#000000" font-family="sans-serif" font-size="11" lengthAdjust="spacingAndGlyphs" textLength="149" x="533.6568" y="172.0386">getColors(int): List&lt;Color&gt;</text><ellipse cx="524.6568" cy="181.6328" fill="#84BE84" rx="3" ry="3" style="stroke:#038048;stroke-width:1.0;"/><text fill="#000000" font-family="sans-serif" font-size="11" lengthAdjust="spacingAndGlyphs" textLength="98" x="533.6568" y="184.8433">getBlacks(int): int</text><ellipse cx="524.6568" cy="194.4375" fill="#84BE84" rx="3" ry="3" style="stroke:#038048;stroke-width:1.0;"/><text fill="#000000" font-family="sans-serif" font-size="11" lengthAdjust="spacingAndGlyphs" textLength="101" x="533.6568" y="197.6479">getWhites(int): int</text><ellipse cx="524.6568" cy="207.2422" fill="#84BE84" rx="3" ry="3" style="stroke:#038048;stroke-width:1.0;"/><text fill="#000000" font-family="sans-serif" font-size="11" lengthAdjust="spacingAndGlyphs" textLength="80" x="533.6568" y="210.4526">getWidth(): int</text><!--MD5=[ba414607f34a8f1ff5e5377db4b3dfd8]
class usantatecla.mastermind.controllers.ResumeController--><rect codeLine="48" fill="#FEFECE" filter="url(#flcr1naxs71sh)" height="73.6094" id="usantatecla.mastermind.controllers.ResumeController" style="stroke:#A80036;stroke-width:1.5;" width="171" x="128.6568" y="315"/><ellipse cx="158.0568" cy="331" fill="#ADD1B2" rx="11" ry="11" style="stroke:#A80036;stroke-width:1.0;"/><path d="M160.4006,326.6719 C159.4631,326.2344 158.8693,326.0938 157.9943,326.0938 C155.3693,326.0938 153.3693,328.1719 153.3693,330.8906 L153.3693,332.0156 C153.3693,334.5938 155.4787,336.4844 158.3693,336.4844 C159.5881,336.4844 160.7443,336.1875 161.4943,335.6406 C162.0724,335.2344 162.4006,334.7813 162.4006,334.3906 C162.4006,333.9375 162.0099,333.5469 161.5412,333.5469 C161.3224,333.5469 161.1193,333.625 160.9318,333.8125 C160.4787,334.2969 160.4787,334.2969 160.2912,334.3906 C159.8693,334.6563 159.1818,334.7813 158.4162,334.7813 C156.3693,334.7813 155.0724,333.6875 155.0724,331.9844 L155.0724,330.8906 C155.0724,329.1094 156.3224,327.7969 158.0568,327.7969 C158.6349,327.7969 159.2443,327.9531 159.7131,328.2031 C160.1974,328.4844 160.3693,328.7031 160.4631,329.1094 C160.5256,329.5156 160.5568,329.6406 160.6974,329.7656 C160.8381,329.9063 161.0724,330.0156 161.2912,330.0156 C161.5568,330.0156 161.8224,329.875 161.9943,329.6563 C162.1037,329.5 162.1349,329.3125 162.1349,328.8906 L162.1349,327.4688 C162.1349,327.0313 162.1193,326.9063 162.0256,326.75 C161.8693,326.4844 161.5881,326.3438 161.2912,326.3438 C160.9943,326.3438 160.7912,326.4375 160.5724,326.75 L160.4006,326.6719 Z " fill="#000000"/><text fill="#000000" font-family="sans-serif" font-size="12" lengthAdjust="spacingAndGlyphs" textLength="107" x="175.2568" y="335.1543">ResumeController</text><line style="stroke:#A80036;stroke-width:1.5;" x1="129.6568" x2="298.6568" y1="347" y2="347"/><line style="stroke:#A80036;stroke-width:1.5;" x1="129.6568" x2="298.6568" y1="355" y2="355"/><ellipse cx="139.6568" cy="366" fill="#84BE84" rx="3" ry="3" style="stroke:#038048;stroke-width:1.0;"/><text fill="#000000" font-family="sans-serif" font-size="11" lengthAdjust="spacingAndGlyphs" textLength="145" x="148.6568" y="369.2104">ResumeController(Game)</text><ellipse cx="139.6568" cy="378.8047" fill="#84BE84" rx="3" ry="3" style="stroke:#038048;stroke-width:1.0;"/><text fill="#000000" font-family="sans-serif" font-size="11" lengthAdjust="spacingAndGlyphs" textLength="71" x="148.6568" y="382.0151">clearGame()</text><!--MD5=[c20948aa6f904689435480ad9a30530a]
class usantatecla.mastermind.controllers.StartController--><rect codeLine="55" fill="#FEFECE" filter="url(#flcr1naxs71sh)" height="60.8047" id="usantatecla.mastermind.controllers.StartController" style="stroke:#A80036;stroke-width:1.5;" width="151" x="334.6568" y="321.5"/><ellipse cx="364.0568" cy="337.5" fill="#ADD1B2" rx="11" ry="11" style="stroke:#A80036;stroke-width:1.0;"/><path d="M366.4006,333.1719 C365.4631,332.7344 364.8693,332.5938 363.9943,332.5938 C361.3693,332.5938 359.3693,334.6719 359.3693,337.3906 L359.3693,338.5156 C359.3693,341.0938 361.4787,342.9844 364.3693,342.9844 C365.5881,342.9844 366.7443,342.6875 367.4943,342.1406 C368.0724,341.7344 368.4006,341.2813 368.4006,340.8906 C368.4006,340.4375 368.0099,340.0469 367.5412,340.0469 C367.3224,340.0469 367.1193,340.125 366.9318,340.3125 C366.4787,340.7969 366.4787,340.7969 366.2912,340.8906 C365.8693,341.1563 365.1818,341.2813 364.4162,341.2813 C362.3693,341.2813 361.0724,340.1875 361.0724,338.4844 L361.0724,337.3906 C361.0724,335.6094 362.3224,334.2969 364.0568,334.2969 C364.6349,334.2969 365.2443,334.4531 365.7131,334.7031 C366.1974,334.9844 366.3693,335.2031 366.4631,335.6094 C366.5256,336.0156 366.5568,336.1406 366.6974,336.2656 C366.8381,336.4063 367.0724,336.5156 367.2912,336.5156 C367.5568,336.5156 367.8224,336.375 367.9943,336.1563 C368.1037,336 368.1349,335.8125 368.1349,335.3906 L368.1349,333.9688 C368.1349,333.5313 368.1193,333.4063 368.0256,333.25 C367.8693,332.9844 367.5881,332.8438 367.2912,332.8438 C366.9943,332.8438 366.7912,332.9375 366.5724,333.25 L366.4006,333.1719 Z " fill="#000000"/><text fill="#000000" font-family="sans-serif" font-size="12" lengthAdjust="spacingAndGlyphs" textLength="87" x="381.2568" y="341.6543">StartController</text><line style="stroke:#A80036;stroke-width:1.5;" x1="335.6568" x2="484.6568" y1="353.5" y2="353.5"/><line style="stroke:#A80036;stroke-width:1.5;" x1="335.6568" x2="484.6568" y1="361.5" y2="361.5"/><ellipse cx="345.6568" cy="372.5" fill="#84BE84" rx="3" ry="3" style="stroke:#038048;stroke-width:1.0;"/><text fill="#000000" font-family="sans-serif" font-size="11" lengthAdjust="spacingAndGlyphs" textLength="125" x="354.6568" y="375.7104">StartController(Game)</text><!--MD5=[71ea1457370bc7d349149836b00bab29]
class usantatecla.mastermind.controllers.PlayController--><rect codeLine="32" fill="#FEFECE" filter="url(#flcr1naxs71sh)" height="150.4375" id="usantatecla.mastermind.controllers.PlayController" style="stroke:#A80036;stroke-width:1.5;" width="277" x="520.6568" y="277"/><ellipse cx="599.4068" cy="293" fill="#ADD1B2" rx="11" ry="11" style="stroke:#A80036;stroke-width:1.0;"/><path d="M601.7506,288.6719 C600.8131,288.2344 600.2193,288.0938 599.3443,288.0938 C596.7193,288.0938 594.7193,290.1719 594.7193,292.8906 L594.7193,294.0156 C594.7193,296.5938 596.8287,298.4844 599.7193,298.4844 C600.9381,298.4844 602.0943,298.1875 602.8443,297.6406 C603.4224,297.2344 603.7506,296.7813 603.7506,296.3906 C603.7506,295.9375 603.3599,295.5469 602.8912,295.5469 C602.6724,295.5469 602.4693,295.625 602.2818,295.8125 C601.8287,296.2969 601.8287,296.2969 601.6412,296.3906 C601.2193,296.6563 600.5318,296.7813 599.7662,296.7813 C597.7193,296.7813 596.4224,295.6875 596.4224,293.9844 L596.4224,292.8906 C596.4224,291.1094 597.6724,289.7969 599.4068,289.7969 C599.9849,289.7969 600.5943,289.9531 601.0631,290.2031 C601.5474,290.4844 601.7193,290.7031 601.8131,291.1094 C601.8756,291.5156 601.9068,291.6406 602.0474,291.7656 C602.1881,291.9063 602.4224,292.0156 602.6412,292.0156 C602.9068,292.0156 603.1724,291.875 603.3443,291.6563 C603.4537,291.5 603.4849,291.3125 603.4849,290.8906 L603.4849,289.4688 C603.4849,289.0313 603.4693,288.9063 603.3756,288.75 C603.2193,288.4844 602.9381,288.3438 602.6412,288.3438 C602.3443,288.3438 602.1412,288.4375 601.9224,288.75 L601.7506,288.6719 Z " fill="#000000"/><text fill="#000000" font-family="sans-serif" font-size="12" lengthAdjust="spacingAndGlyphs" textLength="111" x="619.9068" y="297.1543">ProposalController</text><line style="stroke:#A80036;stroke-width:1.5;" x1="521.6568" x2="796.6568" y1="309" y2="309"/><line style="stroke:#A80036;stroke-width:1.5;" x1="521.6568" x2="796.6568" y1="317" y2="317"/><ellipse cx="531.6568" cy="328" fill="#84BE84" rx="3" ry="3" style="stroke:#038048;stroke-width:1.0;"/><text fill="#000000" font-family="sans-serif" font-size="11" lengthAdjust="spacingAndGlyphs" textLength="145" x="540.6568" y="331.2104">ProposalController(Game)</text><ellipse cx="531.6568" cy="340.8047" fill="#84BE84" rx="3" ry="3" style="stroke:#038048;stroke-width:1.0;"/><text fill="#000000" font-family="sans-serif" font-size="11" lengthAdjust="spacingAndGlyphs" textLength="251" x="540.6568" y="344.0151">addProposedCombination(List&lt;Color&gt;): Error</text><ellipse cx="531.6568" cy="353.6094" fill="#84BE84" rx="3" ry="3" style="stroke:#038048;stroke-width:1.0;"/><text fill="#000000" font-family="sans-serif" font-size="11" lengthAdjust="spacingAndGlyphs" textLength="110" x="540.6568" y="356.8198">isWinner(): boolean</text><ellipse cx="531.6568" cy="366.4141" fill="#84BE84" rx="3" ry="3" style="stroke:#038048;stroke-width:1.0;"/><text fill="#000000" font-family="sans-serif" font-size="11" lengthAdjust="spacingAndGlyphs" textLength="108" x="540.6568" y="369.6245">isLooser(): boolean</text><ellipse cx="531.6568" cy="379.2188" fill="#84BE84" rx="3" ry="3" style="stroke:#038048;stroke-width:1.0;"/><text fill="#000000" font-family="sans-serif" font-size="11" lengthAdjust="spacingAndGlyphs" textLength="100" x="540.6568" y="382.4292">getAttempts(): int</text><ellipse cx="531.6568" cy="392.0234" fill="#84BE84" rx="3" ry="3" style="stroke:#038048;stroke-width:1.0;"/><text fill="#000000" font-family="sans-serif" font-size="11" lengthAdjust="spacingAndGlyphs" textLength="149" x="540.6568" y="395.2339">getColors(int): List&lt;Color&gt;</text><ellipse cx="531.6568" cy="404.8281" fill="#84BE84" rx="3" ry="3" style="stroke:#038048;stroke-width:1.0;"/><text fill="#000000" font-family="sans-serif" font-size="11" lengthAdjust="spacingAndGlyphs" textLength="98" x="540.6568" y="408.0386">getBlacks(int): int</text><ellipse cx="531.6568" cy="417.6328" fill="#84BE84" rx="3" ry="3" style="stroke:#038048;stroke-width:1.0;"/><text fill="#000000" font-family="sans-serif" font-size="11" lengthAdjust="spacingAndGlyphs" textLength="101" x="540.6568" y="420.8433">getWhites(int): int</text><!--MD5=[b6dcce5e5ef3c84b0b048d11301373dd]
class Game--><rect codeLine="1" fill="#FEFECE" filter="url(#flcr1naxs71sh)" height="67.9063" id="Game" style="stroke:#A80036;stroke-width:1.5;" width="154" x="137.1568" y="487"/><ellipse cx="152.1568" cy="512.9531" fill="#ADD1B2" rx="11" ry="11" style="stroke:#A80036;stroke-width:1.0;"/><path d="M154.5006,508.625 C153.5631,508.1875 152.9693,508.0469 152.0943,508.0469 C149.4693,508.0469 147.4693,510.125 147.4693,512.8438 L147.4693,513.9688 C147.4693,516.5469 149.5787,518.4375 152.4693,518.4375 C153.6881,518.4375 154.8443,518.1406 155.5943,517.5938 C156.1724,517.1875 156.5006,516.7344 156.5006,516.3438 C156.5006,515.8906 156.1099,515.5 155.6412,515.5 C155.4224,515.5 155.2193,515.5781 155.0318,515.7656 C154.5787,516.25 154.5787,516.25 154.3912,516.3438 C153.9693,516.6094 153.2818,516.7344 152.5162,516.7344 C150.4693,516.7344 149.1724,515.6406 149.1724,513.9375 L149.1724,512.8438 C149.1724,511.0625 150.4224,509.75 152.1568,509.75 C152.7349,509.75 153.3443,509.9063 153.8131,510.1563 C154.2974,510.4375 154.4693,510.6563 154.5631,511.0625 C154.6256,511.4688 154.6568,511.5938 154.7974,511.7188 C154.9381,511.8594 155.1724,511.9688 155.3912,511.9688 C155.6568,511.9688 155.9224,511.8281 156.0943,511.6094 C156.2037,511.4531 156.2349,511.2656 156.2349,510.8438 L156.2349,509.4219 C156.2349,508.9844 156.2193,508.8594 156.1256,508.7031 C155.9693,508.4375 155.6881,508.2969 155.3912,508.2969 C155.0943,508.2969 154.8912,508.3906 154.6724,508.7031 L154.5006,508.625 Z " fill="#000000"/><text fill="#000000" font-family="sans-serif" font-size="12" lengthAdjust="spacingAndGlyphs" textLength="71" x="191.6568" y="503.1387">usantatecla.</text><text fill="#000000" font-family="sans-serif" font-size="12" lengthAdjust="spacingAndGlyphs" textLength="122" x="166.1568" y="517.1074">mastermind.models.</text><text fill="#000000" font-family="sans-serif" font-size="12" lengthAdjust="spacingAndGlyphs" textLength="35" x="209.6568" y="531.0762">Game</text><line style="stroke:#A80036;stroke-width:1.5;" x1="138.1568" x2="290.1568" y1="538.9063" y2="538.9063"/><line style="stroke:#A80036;stroke-width:1.5;" x1="138.1568" x2="290.1568" y1="546.9063" y2="546.9063"/><!--MD5=[28491d17d5ee38c9c116625a5ffc259a]
class Combination--><rect codeLine="2" fill="#FEFECE" filter="url(#flcr1naxs71sh)" height="67.9063" id="Combination" style="stroke:#A80036;stroke-width:1.5;" width="156" x="833.1568" y="318"/><ellipse cx="848.1568" cy="343.9531" fill="#A9DCDF" rx="11" ry="11" style="stroke:#A80036;stroke-width:1.0;"/><path d="M850.2349,345.7656 L850.6256,346.75 L850.2349,346.75 C849.7818,346.75 849.6724,346.7656 849.5162,346.875 C849.2662,347.0313 849.1099,347.3125 849.1099,347.6094 C849.1099,347.875 849.2506,348.125 849.4693,348.2813 C849.6099,348.4063 849.8131,348.4531 850.2349,348.4531 L852.5943,348.4531 C852.9537,348.4531 853.1724,348.4219 853.3131,348.3281 C853.5631,348.1875 853.7193,347.8906 853.7193,347.6094 C853.7193,347.3281 853.5787,347.0781 853.3599,346.9219 C853.1881,346.7813 853.0318,346.75 852.5631,346.75 L849.1724,338.5469 L845.5006,338.5469 C845.0474,338.5469 844.9224,338.5625 844.7662,338.6563 C844.5162,338.8281 844.3599,339.1094 844.3599,339.3906 C844.3599,339.6719 844.5006,339.9219 844.7193,340.0938 C844.8912,340.2031 845.0631,340.2344 845.5006,340.2344 L846.5787,340.2344 L843.9381,346.75 C843.5162,346.75 843.3599,346.7656 843.2037,346.875 C842.9537,347.0313 842.7974,347.3125 842.7974,347.6094 C842.7974,348.1719 843.1724,348.4531 843.9224,348.4531 L846.1881,348.4531 C846.5474,348.4531 846.7662,348.4219 846.8912,348.3281 C847.1568,348.1875 847.2974,347.8906 847.2974,347.6094 C847.2974,347.3281 847.1724,347.0781 846.9537,346.9063 C846.7818,346.7813 846.6412,346.75 846.1881,346.75 L845.7974,346.75 L846.1881,345.7656 L850.2349,345.7656 Z M849.5318,344.0625 L846.8599,344.0625 L848.2037,340.7969 L849.5318,344.0625 Z " fill="#000000"/><text fill="#000000" font-family="sans-serif" font-size="12" font-style="italic" lengthAdjust="spacingAndGlyphs" textLength="74" x="887.1568" y="334.1387">usantatecla.</text><text fill="#000000" font-family="sans-serif" font-size="12" font-style="italic" lengthAdjust="spacingAndGlyphs" textLength="124" x="862.1568" y="348.1074">mastermind.models.</text><text fill="#000000" font-family="sans-serif" font-size="12" font-style="italic" lengthAdjust="spacingAndGlyphs" textLength="76" x="886.1568" y="362.0762">Combination</text><line style="stroke:#A80036;stroke-width:1.5;" x1="834.1568" x2="988.1568" y1="369.9063" y2="369.9063"/><line style="stroke:#A80036;stroke-width:1.5;" x1="834.1568" x2="988.1568" y1="377.9063" y2="377.9063"/><!--MD5=[b8cfd8c4119a3b0a7a46bfc5fc780f85]
class Error--><rect codeLine="3" fill="#FEFECE" filter="url(#flcr1naxs71sh)" height="67.9063" id="Error" style="stroke:#A80036;stroke-width:1.5;" width="143" x="819.6568" y="487"/><ellipse cx="834.6568" cy="512.9531" fill="#EB937F" rx="11" ry="11" style="stroke:#A80036;stroke-width:1.0;"/><path d="M833.4537,513.8281 L834.9068,513.8281 L834.9068,513.9375 C834.9068,514.3438 834.9381,514.5 835.0162,514.6563 C835.1724,514.9063 835.4537,515.0625 835.7506,515.0625 C836.0006,515.0625 836.2662,514.9219 836.4224,514.7031 C836.5474,514.5469 836.5787,514.3906 836.5787,513.9375 L836.5787,512.0156 C836.5787,511.8594 836.5787,511.8125 836.5631,511.6563 C836.5006,511.1875 836.1881,510.875 835.7349,510.875 C835.4849,510.875 835.2193,511.0156 835.0474,511.2344 C834.9381,511.4063 834.9068,511.5625 834.9068,512.0156 L834.9068,512.1406 L833.4537,512.1406 L833.4537,509.7344 L837.4381,509.7344 L837.4381,510.5938 C837.4381,511 837.4693,511.1719 837.5474,511.3281 C837.7193,511.5781 838.0006,511.7344 838.2818,511.7344 C838.5474,511.7344 838.8131,511.5938 838.9849,511.375 C839.0943,511.2031 839.1256,511.0625 839.1256,510.5938 L839.1256,508.0469 L831.5006,508.0469 C831.0631,508.0469 830.9381,508.0625 830.7818,508.1563 C830.5318,508.3125 830.3756,508.6094 830.3756,508.8906 C830.3756,509.1719 830.5162,509.4219 830.7349,509.5938 C830.8912,509.7031 831.0787,509.7344 831.5006,509.7344 L831.7506,509.7344 L831.7506,516.25 L831.5006,516.25 C831.0943,516.25 830.9381,516.2656 830.7818,516.375 C830.5318,516.5469 830.3756,516.8125 830.3756,517.1094 C830.3756,517.375 830.5162,517.625 830.7349,517.7813 C830.8756,517.9063 831.1099,517.9531 831.5006,517.9531 L839.5006,517.9531 L839.5006,515.375 C839.5006,514.9375 839.4693,514.7969 839.3912,514.6406 C839.2193,514.3906 838.9381,514.2344 838.6568,514.2344 C838.3912,514.2344 838.1256,514.3438 837.9537,514.5938 C837.8443,514.75 837.8131,514.8906 837.8131,515.375 L837.8131,516.25 L833.4537,516.25 L833.4537,513.8281 Z " fill="#000000"/><text fill="#000000" font-family="sans-serif" font-size="12" lengthAdjust="spacingAndGlyphs" textLength="71" x="868.6568" y="503.1387">usantatecla.</text><text fill="#000000" font-family="sans-serif" font-size="12" lengthAdjust="spacingAndGlyphs" textLength="111" x="848.6568" y="517.1074">mastermind.types.</text><text fill="#000000" font-family="sans-serif" font-size="12" lengthAdjust="spacingAndGlyphs" textLength="30" x="889.1568" y="531.0762">Error</text><line style="stroke:#A80036;stroke-width:1.5;" x1="820.6568" x2="961.6568" y1="538.9063" y2="538.9063"/><line style="stroke:#A80036;stroke-width:1.5;" x1="820.6568" x2="961.6568" y1="546.9063" y2="546.9063"/><!--MD5=[18eee71c88ab61f27581b8cbdd3ef5ee]
class Color--><rect codeLine="4" fill="#FEFECE" filter="url(#flcr1naxs71sh)" height="67.9063" id="Color" style="stroke:#A80036;stroke-width:1.5;" width="143" x="1019.6528" y="487"/><ellipse cx="1034.6528" cy="512.9531" fill="#EB937F" rx="11" ry="11" style="stroke:#A80036;stroke-width:1.0;"/><path d="M1033.4497,513.8281 L1034.9028,513.8281 L1034.9028,513.9375 C1034.9028,514.3438 1034.934,514.5 1035.0122,514.6563 C1035.1684,514.9063 1035.4497,515.0625 1035.7465,515.0625 C1035.9965,515.0625 1036.2622,514.9219 1036.4184,514.7031 C1036.5434,514.5469 1036.5747,514.3906 1036.5747,513.9375 L1036.5747,512.0156 C1036.5747,511.8594 1036.5747,511.8125 1036.559,511.6563 C1036.4965,511.1875 1036.184,510.875 1035.7309,510.875 C1035.4809,510.875 1035.2153,511.0156 1035.0434,511.2344 C1034.934,511.4063 1034.9028,511.5625 1034.9028,512.0156 L1034.9028,512.1406 L1033.4497,512.1406 L1033.4497,509.7344 L1037.434,509.7344 L1037.434,510.5938 C1037.434,511 1037.4653,511.1719 1037.5434,511.3281 C1037.7153,511.5781 1037.9965,511.7344 1038.2778,511.7344 C1038.5434,511.7344 1038.809,511.5938 1038.9809,511.375 C1039.0903,511.2031 1039.1215,511.0625 1039.1215,510.5938 L1039.1215,508.0469 L1031.4965,508.0469 C1031.059,508.0469 1030.934,508.0625 1030.7778,508.1563 C1030.5278,508.3125 1030.3715,508.6094 1030.3715,508.8906 C1030.3715,509.1719 1030.5122,509.4219 1030.7309,509.5938 C1030.8872,509.7031 1031.0747,509.7344 1031.4965,509.7344 L1031.7465,509.7344 L1031.7465,516.25 L1031.4965,516.25 C1031.0903,516.25 1030.934,516.2656 1030.7778,516.375 C1030.5278,516.5469 1030.3715,516.8125 1030.3715,517.1094 C1030.3715,517.375 1030.5122,517.625 1030.7309,517.7813 C1030.8715,517.9063 1031.1059,517.9531 1031.4965,517.9531 L1039.4965,517.9531 L1039.4965,515.375 C1039.4965,514.9375 1039.4653,514.7969 1039.3872,514.6406 C1039.2153,514.3906 1038.934,514.2344 1038.6528,514.2344 C1038.3872,514.2344 1038.1215,514.3438 1037.9497,514.5938 C1037.8403,514.75 1037.809,514.8906 1037.809,515.375 L1037.809,516.25 L1033.4497,516.25 L1033.4497,513.8281 Z " fill="#000000"/><text fill="#000000" font-family="sans-serif" font-size="12" lengthAdjust="spacingAndGlyphs" textLength="71" x="1068.6528" y="503.1387">usantatecla.</text><text fill="#000000" font-family="sans-serif" font-size="12" lengthAdjust="spacingAndGlyphs" textLength="111" x="1048.6528" y="517.1074">mastermind.types.</text><text fill="#000000" font-family="sans-serif" font-size="12" lengthAdjust="spacingAndGlyphs" textLength="32" x="1088.1528" y="531.0762">Color</text><line style="stroke:#A80036;stroke-width:1.5;" x1="1020.6528" x2="1161.6528" y1="538.9063" y2="538.9063"/><line style="stroke:#A80036;stroke-width:1.5;" x1="1020.6528" x2="1161.6528" y1="546.9063" y2="546.9063"/><!--MD5=[cf489b19c51ee25e76ddca093e62e620]
class ProposedCombination--><rect fill="#FEFECE" filter="url(#flcr1naxs71sh)" height="48" id="ProposedCombination" style="stroke:#A80036;stroke-width:1.5;" width="164" x="577.1568" y="497"/><ellipse cx="592.1568" cy="513" fill="#ADD1B2" rx="11" ry="11" style="stroke:#A80036;stroke-width:1.0;"/><path d="M594.5006,508.6719 C593.5631,508.2344 592.9693,508.0938 592.0943,508.0938 C589.4693,508.0938 587.4693,510.1719 587.4693,512.8906 L587.4693,514.0156 C587.4693,516.5938 589.5787,518.4844 592.4693,518.4844 C593.6881,518.4844 594.8443,518.1875 595.5943,517.6406 C596.1724,517.2344 596.5006,516.7813 596.5006,516.3906 C596.5006,515.9375 596.1099,515.5469 595.6412,515.5469 C595.4224,515.5469 595.2193,515.625 595.0318,515.8125 C594.5787,516.2969 594.5787,516.2969 594.3912,516.3906 C593.9693,516.6563 593.2818,516.7813 592.5162,516.7813 C590.4693,516.7813 589.1724,515.6875 589.1724,513.9844 L589.1724,512.8906 C589.1724,511.1094 590.4224,509.7969 592.1568,509.7969 C592.7349,509.7969 593.3443,509.9531 593.8131,510.2031 C594.2974,510.4844 594.4693,510.7031 594.5631,511.1094 C594.6256,511.5156 594.6568,511.6406 594.7974,511.7656 C594.9381,511.9063 595.1724,512.0156 595.3912,512.0156 C595.6568,512.0156 595.9224,511.875 596.0943,511.6563 C596.2037,511.5 596.2349,511.3125 596.2349,510.8906 L596.2349,509.4688 C596.2349,509.0313 596.2193,508.9063 596.1256,508.75 C595.9693,508.4844 595.6881,508.3438 595.3912,508.3438 C595.0943,508.3438 594.8912,508.4375 594.6724,508.75 L594.5006,508.6719 Z " fill="#000000"/><text fill="#000000" font-family="sans-serif" font-size="12" lengthAdjust="spacingAndGlyphs" textLength="132" x="606.1568" y="517.1543">ProposedCombination</text><line style="stroke:#A80036;stroke-width:1.5;" x1="578.1568" x2="740.1568" y1="529" y2="529"/><line style="stroke:#A80036;stroke-width:1.5;" x1="578.1568" x2="740.1568" y1="537" y2="537"/><!--MD5=[b1534f62db7bd0c312bb47cb18cac355]
link usantatecla.mastermind.controllers.Controller to Game--><path codeLine="10" d="M336.1518,136.4353 C336.1518,136.4353 112.8499,182.293 49.1568,277 C6,341.171 6.3015,386.627 49.1568,451 C66.4709,477.0076 95.6665,493.2303 124.7278,503.3422 " fill="none" id="usantatecla.mastermind.controllers.Controller-Game" style="stroke:#A80036;stroke-width:1.0;"/><polygon fill="#A80036" points="137.1398,507.3125,129.786,500.761,132.3774,505.7894,127.3491,508.3808,137.1398,507.3125" style="stroke:#A80036;stroke-width:1.0;"/><line style="stroke:#A80036;stroke-width:1.0;" x1="132.3774" x2="124.7578" y1="505.7894" y2="503.3517"/><polygon fill="#A80036" points="348.0498,134.874,341.5804,131.6886,336.1518,136.4353,342.6212,139.6206,348.0498,134.874" style="stroke:#A80036;stroke-width:1.0;"/><!--MD5=[bcb04731f9fe2ebc3bb43e51b61da32e]
link usantatecla.mastermind.controllers.Controller to Combination--><path codeLine="11" d="M436.9998,166.114 C452.3398,184.17 473.0938,204.733 496.1568,217 C623.1388,284.541 682.7768,218.472 814.1568,277 C834.8468,286.217 855.1778,300.647 871.8388,314.325 " fill="none" id="usantatecla.mastermind.controllers.Controller-to-Combination" style="stroke:#A80036;stroke-width:1.0;stroke-dasharray:7.0,7.0;"/><polygon fill="#A80036" points="875.9938,317.783,871.6354,308.951,872.1508,314.5843,866.5175,315.0998,875.9938,317.783" style="stroke:#A80036;stroke-width:1.0;"/><!--MD5=[07f4f2174253deef40735c6f426cde58]
link usantatecla.mastermind.controllers.Logic to usantatecla.mastermind.controllers.ResumeController--><path codeLine="25" d="M502.3868,211.0406 C502.3868,211.0406 493.1228,215.262 489.1568,217 C415.0008,249.492 388.9948,239.662 317.1568,277 C300.8068,285.498 284.1388,296.348 269.1088,307.104 " fill="none" id="usantatecla.mastermind.controllers.Logic-usantatecla.mastermind.controllers.ResumeController" style="stroke:#A80036;stroke-width:1.0;"/><polygon fill="#A80036" points="258.4818,314.885,268.1064,312.7953,262.516,311.9311,263.3802,306.3406,258.4818,314.885" style="stroke:#A80036;stroke-width:1.0;"/><line style="stroke:#A80036;stroke-width:1.0;" x1="262.516" x2="268.9708" y1="311.9311" y2="307.205"/><polygon fill="#A80036" points="513.2568,205.957,506.1273,204.8754,502.3868,211.0406,509.5163,212.1221,513.2568,205.957" style="stroke:#A80036;stroke-width:1.0;"/><!--MD5=[7b4d3b9373751c5d43acf45bd3655ae0]
link usantatecla.mastermind.controllers.Logic to usantatecla.mastermind.controllers.StartController--><path codeLine="26" d="M547.9982,225.1195 C547.9982,225.1195 478.7658,288.345 452.5818,312.256 " fill="none" id="usantatecla.mastermind.controllers.Logic-usantatecla.mastermind.controllers.StartController" style="stroke:#A80036;stroke-width:1.0;"/><polygon fill="#A80036" points="442.6358,321.339,451.9789,318.2235,446.3279,317.9672,446.5841,312.3162,442.6358,321.339" style="stroke:#A80036;stroke-width:1.0;"/><line style="stroke:#A80036;stroke-width:1.0;" x1="446.3279" x2="452.2353" y1="317.9672" y2="312.573"/><polygon fill="#A80036" points="556.8598,217.028,549.7318,218.1199,547.9982,225.1195,555.1262,224.0276,556.8598,217.028" style="stroke:#A80036;stroke-width:1.0;"/><!--MD5=[088f8298878c55cb33bba93d6bb32650]
link usantatecla.mastermind.controllers.Logic to usantatecla.mastermind.controllers.PlayController--><path codeLine="27" d="M655.2926,229.022 C655.2926,229.022 656.0418,252.668 656.3908,263.676 " fill="none" id="usantatecla.mastermind.controllers.Logic-usantatecla.mastermind.controllers.PlayController" style="stroke:#A80036;stroke-width:1.0;"/><polygon fill="#A80036" points="656.8098,276.913,660.5229,267.7909,656.6516,271.9155,652.527,268.0441,656.8098,276.913" style="stroke:#A80036;stroke-width:1.0;"/><line style="stroke:#A80036;stroke-width:1.0;" x1="656.6516" x2="656.3983" y1="271.9155" y2="263.92"/><polygon fill="#A80036" points="654.9128,217.028,651.1047,223.1516,655.2926,229.022,659.1007,222.8984,654.9128,217.028" style="stroke:#A80036;stroke-width:1.0;"/><!--MD5=[0ff8f89650a05932e406ed8572c4f29f]
link usantatecla.mastermind.controllers.Logic to Game--><path codeLine="28" d="M502.3018,212.2772 C502.3018,212.2772 493.1858,215.648 489.1568,217 C408.5258,244.065 166.3828,212.317 111.1568,277 C60.9427,335.813 74.7427,382.776 111.1568,451 C116.776,461.528 124.7928,470.7323 133.9048,478.6925 " fill="none" id="usantatecla.mastermind.controllers.Logic-Game" style="stroke:#A80036;stroke-width:1.0;"/><polygon fill="#A80036" points="144.1608,486.8455,139.605,478.1137,140.2469,483.734,134.6266,484.3759,144.1608,486.8455" style="stroke:#A80036;stroke-width:1.0;"/><line style="stroke:#A80036;stroke-width:1.0;" x1="140.2469" x2="133.9843" y1="483.734" y2="478.7558"/><polygon fill="#A80036" points="513.4648,207.874,506.4156,206.3546,502.3018,212.2772,509.3511,213.7966,513.4648,207.874" style="stroke:#A80036;stroke-width:1.0;"/><!--MD5=[3cb43182ce4fd398c1ebafddaff771a8]
link usantatecla.mastermind.controllers.Logic to Color--><path codeLine="29" d="M790.9468,146.427 C877.6878,164.12 984.6218,200.837 1048.1528,277 C1096.7128,335.206 1098.6928,429.023 1095.2828,481.4279 " fill="none" id="usantatecla.mastermind.controllers.Logic-to-Color" style="stroke:#A80036;stroke-width:1.0;stroke-dasharray:7.0,7.0;"/><polygon fill="#A80036" points="1094.9128,486.6776,1099.5322,477.9793,1095.2624,481.6898,1091.5518,477.42,1094.9128,486.6776" style="stroke:#A80036;stroke-width:1.0;"/><!--MD5=[63779e48959d09820cf8f562ee1efda6]
link usantatecla.mastermind.controllers.Logic to Error--><path codeLine="30" d="M790.9288,149.486 C868.5308,168.259 959.0668,205.037 1007.1568,277 C1050.1228,341.298 1045.3828,383.777 1007.1568,451 C997.9448,467.198 983.2628,479.9907 967.3968,489.9309 " fill="none" id="usantatecla.mastermind.controllers.Logic-to-Error" style="stroke:#A80036;stroke-width:1.0;stroke-dasharray:7.0,7.0;"/><polygon fill="#A80036" points="962.8948,492.6593,972.6648,491.4157,967.1709,490.0679,968.5186,484.574,962.8948,492.6593" style="stroke:#A80036;stroke-width:1.0;"/><!--MD5=[355b9902740da4b2ec85e8089918fd93]
reverse link usantatecla.mastermind.controllers.Controller to usantatecla.mastermind.controllers.PlayController--><path codeLine="42" d="M458.5828,180.755 C470.6228,192.878 483.6648,205.602 496.1568,217 C518.0768,237 542.4448,257.759 565.5158,276.794 " fill="none" id="usantatecla.mastermind.controllers.Controller-backto-usantatecla.mastermind.controllers.PlayController" style="stroke:#A80036;stroke-width:1.0;"/><polygon fill="none" points="453.5058,185.575,444.4978,166.396,463.4998,175.771,453.5058,185.575" style="stroke:#A80036;stroke-width:1.0;"/><!--MD5=[3031187462b747cbd09689bb5fb1dcf3]
link usantatecla.mastermind.controllers.PlayController to Game--><path codeLine="43" d="M551.2278,427.021 C535.5268,435.932 519.2278,444.25 503.1568,451 C436.1968,479.1235 355.4768,497.183 296.3838,507.7419 " fill="none" id="usantatecla.mastermind.controllers.PlayController-to-Game" style="stroke:#A80036;stroke-width:1.0;stroke-dasharray:7.0,7.0;"/><polygon fill="#A80036" points="291.4518,508.6147,301.0112,510.9849,296.3753,507.7433,299.6169,503.1073,291.4518,508.6147" style="stroke:#A80036;stroke-width:1.0;"/><!--MD5=[87e0934b81fc2a23f4913978547fcb00]
link usantatecla.mastermind.controllers.PlayController to ProposedCombination--><path codeLine="44" d="M659.1568,427.221 C659.1568,449.958 659.1568,473.6231 659.1568,491.3621 " fill="none" id="usantatecla.mastermind.controllers.PlayController-to-ProposedCombination" style="stroke:#A80036;stroke-width:1.0;stroke-dasharray:7.0,7.0;"/><polygon fill="#A80036" points="659.1568,496.6695,663.1568,487.6695,659.1568,491.6695,655.1568,487.6695,659.1568,496.6695" style="stroke:#A80036;stroke-width:1.0;"/><!--MD5=[69852a3216d5517651367a7065e7f1c9]
link usantatecla.mastermind.controllers.PlayController to Color--><path codeLine="45" d="M767.2648,427.037 C783.2118,436.002 799.7918,444.329 816.1568,451 C885.2608,479.168 907.8988,468.3548 980.1568,487 C991.3138,489.8789 1003.0388,493.1228 1014.5178,496.4239 " fill="none" id="usantatecla.mastermind.controllers.PlayController-to-Color" style="stroke:#A80036;stroke-width:1.0;stroke-dasharray:7.0,7.0;"/><polygon fill="#A80036" points="1019.4228,497.8412,1011.8877,491.4991,1014.6195,496.4526,1009.666,499.1844,1019.4228,497.8412" style="stroke:#A80036;stroke-width:1.0;"/><!--MD5=[aec0234761dc3837780669c056a8373c]
link usantatecla.mastermind.controllers.PlayController to Error--><path codeLine="46" d="M762.2668,427.221 C789.6088,446.903 817.9188,467.2814 841.0178,483.9087 " fill="none" id="usantatecla.mastermind.controllers.PlayController-to-Error" style="stroke:#A80036;stroke-width:1.0;stroke-dasharray:7.0,7.0;"/><polygon fill="#A80036" points="845.2688,486.9688,840.3018,478.4642,841.211,484.0475,835.6277,484.9567,845.2688,486.9688" style="stroke:#A80036;stroke-width:1.0;"/><!--MD5=[933c3a87fb1e2f64e4c2436935a9c1c3]
reverse link usantatecla.mastermind.controllers.Controller to usantatecla.mastermind.controllers.ResumeController--><path codeLine="52" d="M364.3758,181.62 C328.1118,222.51 278.3708,278.596 246.2448,314.819 " fill="none" id="usantatecla.mastermind.controllers.Controller-backto-usantatecla.mastermind.controllers.ResumeController" style="stroke:#A80036;stroke-width:1.0;"/><polygon fill="none" points="359.2838,176.812,377.7918,166.494,369.7578,186.101,359.2838,176.812" style="stroke:#A80036;stroke-width:1.0;"/><!--MD5=[5463db7e495f29b5e5c71a16eed29f43]
link usantatecla.mastermind.controllers.ResumeController to Game--><path codeLine="53" d="M214.1568,389.237 C214.1568,416.6 214.1568,454.061 214.1568,481.875 " fill="none" id="usantatecla.mastermind.controllers.ResumeController-to-Game" style="stroke:#A80036;stroke-width:1.0;stroke-dasharray:7.0,7.0;"/><polygon fill="#A80036" points="214.1568,486.9516,218.1568,477.9516,214.1568,481.9516,210.1568,477.9516,214.1568,486.9516" style="stroke:#A80036;stroke-width:1.0;"/><!--MD5=[c885998b8df824bd1b8bf3ae6c5e9a62]
reverse link usantatecla.mastermind.controllers.Controller to usantatecla.mastermind.controllers.StartController--><path codeLine="58" d="M410.1568,186.542 C410.1568,229.47 410.1568,286.796 410.1568,321.191 " fill="none" id="usantatecla.mastermind.controllers.Controller-backto-usantatecla.mastermind.controllers.StartController" style="stroke:#A80036;stroke-width:1.0;"/><polygon fill="none" points="403.1568,186.494,410.1568,166.494,417.1568,186.494,403.1568,186.494" style="stroke:#A80036;stroke-width:1.0;"/><!--MD5=[70753de5d77fa864ad706701913b855c]
link usantatecla.mastermind.controllers.StartController to Game--><path codeLine="59" d="M385.2498,382.524 C367.3508,402.889 342.0738,429.974 317.1568,451 C303.3988,462.6094 287.6368,473.9979 272.6478,484.0707 " fill="none" id="usantatecla.mastermind.controllers.StartController-to-Game" style="stroke:#A80036;stroke-width:1.0;stroke-dasharray:7.0,7.0;"/><polygon fill="#A80036" points="268.4438,486.876,278.1507,485.2096,272.6034,484.1015,273.7115,478.5542,268.4438,486.876" style="stroke:#A80036;stroke-width:1.0;"/><!--MD5=[411d897d9e52e0dc94652799122fca17]
@startuml
class Game as "usantatecla.\nmastermind.models.\nGame"
abstract class Combination as "usantatecla.\nmastermind.models.\nCombination"
enum Error as "usantatecla.\nmastermind.types.\nError"
enum Color as "usantatecla.\nmastermind.types.\nColor"

abstract class  usantatecla.mastermind.controllers.Controller{
    ~ Controller(Game)
    + getWidth(): int
}
usantatecla.mastermind.controllers.Controller *-down-> Game
usantatecla.mastermind.controllers.Controller .down.> Combination

class  usantatecla.mastermind.controllers.Logic{
    + Logic()
    + clearGame()
    + addProposedCombination(List<Color>): Error
    + isWinner(): boolean
    + isLooser(): boolean
    + getAttempts(): int
    + getColors(int): List<Color>
    + getBlacks(int): int
    + getWhites(int): int
    + getWidth(): int
}
usantatecla.mastermind.controllers.Logic *-down-> usantatecla.mastermind.controllers.ResumeController
usantatecla.mastermind.controllers.Logic *-down-> usantatecla.mastermind.controllers.StartController
usantatecla.mastermind.controllers.Logic *-down-> usantatecla.mastermind.controllers.PlayController
usantatecla.mastermind.controllers.Logic *-down-> Game
usantatecla.mastermind.controllers.Logic .down.> Color
usantatecla.mastermind.controllers.Logic .down.> Error

class  usantatecla.mastermind.controllers.PlayController{
    + ProposalController(Game)
    + addProposedCombination(List<Color>): Error
    + isWinner(): boolean
    + isLooser(): boolean
    + getAttempts(): int
    + getColors(int): List<Color>
    + getBlacks(int): int
    + getWhites(int): int
}
usantatecla.mastermind.controllers.Controller <|-down- usantatecla.mastermind.controllers.PlayController
usantatecla.mastermind.controllers.PlayController .down.> Game
usantatecla.mastermind.controllers.PlayController .down.> ProposedCombination
usantatecla.mastermind.controllers.PlayController .down.> Color
usantatecla.mastermind.controllers.PlayController .down.> Error

class  usantatecla.mastermind.controllers.ResumeController{
    + ResumeController(Game)
    + clearGame()
}
usantatecla.mastermind.controllers.Controller <|-down- usantatecla.mastermind.controllers.ResumeController
usantatecla.mastermind.controllers.ResumeController .down.> Game

class  usantatecla.mastermind.controllers.StartController{
    + StartController(Game)
}
usantatecla.mastermind.controllers.Controller <|-down- usantatecla.mastermind.controllers.StartController
usantatecla.mastermind.controllers.StartController .down.> Game
@enduml

PlantUML version 1.2020.23beta3(Unknown compile time)
(GPL source distribution)
Java Runtime: Java(TM) SE Runtime Environment
JVM: Java HotSpot(TM) 64-Bit Server VM
Default Encoding: UTF-8
Language: en
Country: US
--></g></svg>