<?xml version="1.0" encoding="UTF-8" standalone="no"?>
<svg xmlns="http://www.w3.org/2000/svg" contentScriptType="application/ecmascript" contentStyleType="text/css"
     height="715px" preserveAspectRatio="none" style="width:586px;height:715px;" version="1.1" viewBox="0 0 586 715"
     width="586px" zoomAndPan="magnify"><defs><filter height="300%" id="f1hzhg9u8v7632" width="300%" x="-1" y="-1"><feGaussianBlur result="blurOut" stdDeviation="2.0"/><feColorMatrix in="blurOut" result="blurOut2" type="matrix" values="0 0 0 0 0 0 0 0 0 0 0 0 0 0 0 0 0 0 .4 0"/><feOffset dx="4.0" dy="4.0" in="blurOut2" result="blurOut3"/><feBlend in="SourceGraphic" in2="blurOut3" mode="normal"/></filter></defs><g><!--MD5=[073ce8cb2fd2a0b2556785fe35fbd544]
cluster usantatecla.mastermind.models--><polygon fill="#FFFFFF" filter="url(#f1hzhg9u8v7632)" points="16,6,286,6,293,28.2969,535,28.2969,535,590,16,590,16,6" style="stroke:#000000;stroke-width:1.5;"/><line style="stroke:#000000;stroke-width:1.5;" x1="16" x2="293" y1="28.2969" y2="28.2969"/><text fill="#000000" font-family="sans-serif" font-size="14" font-weight="bold" lengthAdjust="spacingAndGlyphs" textLength="264" x="20" y="20.9951">usantatecla.mastermind.models</text><!--MD5=[9e09d6096b99d1406435ac08840c9240]
class usantatecla.mastermind.models.Combination--><rect codeLine="3" fill="#FEFECE" filter="url(#f1hzhg9u8v7632)" height="99.2188" id="usantatecla.mastermind.models.Combination" style="stroke:#A80036;stroke-width:1.5;" width="132" x="387" y="98.5"/><ellipse cx="412.8" cy="114.5" fill="#A9DCDF" rx="11" ry="11" style="stroke:#A80036;stroke-width:1.0;"/><path d="M414.8781,116.3125 L415.2688,117.2969 L414.8781,117.2969 C414.425,117.2969 414.3156,117.3125 414.1594,117.4219 C413.9094,117.5781 413.7531,117.8594 413.7531,118.1563 C413.7531,118.4219 413.8938,118.6719 414.1125,118.8281 C414.2531,118.9531 414.4563,119 414.8781,119 L417.2375,119 C417.5969,119 417.8156,118.9688 417.9563,118.875 C418.2063,118.7344 418.3625,118.4375 418.3625,118.1563 C418.3625,117.875 418.2219,117.625 418.0031,117.4688 C417.8313,117.3281 417.675,117.2969 417.2063,117.2969 L413.8156,109.0938 L410.1438,109.0938 C409.6906,109.0938 409.5656,109.1094 409.4094,109.2031 C409.1594,109.375 409.0031,109.6563 409.0031,109.9375 C409.0031,110.2188 409.1438,110.4688 409.3625,110.6406 C409.5344,110.75 409.7063,110.7813 410.1438,110.7813 L411.2219,110.7813 L408.5813,117.2969 C408.1594,117.2969 408.0031,117.3125 407.8469,117.4219 C407.5969,117.5781 407.4406,117.8594 407.4406,118.1563 C407.4406,118.7188 407.8156,119 408.5656,119 L410.8313,119 C411.1906,119 411.4094,118.9688 411.5344,118.875 C411.8,118.7344 411.9406,118.4375 411.9406,118.1563 C411.9406,117.875 411.8156,117.625 411.5969,117.4531 C411.425,117.3281 411.2844,117.2969 410.8313,117.2969 L410.4406,117.2969 L410.8313,116.3125 L414.8781,116.3125 Z M414.175,114.6094 L411.5031,114.6094 L412.8469,111.3438 L414.175,114.6094 Z " fill="#000000"/><text fill="#000000" font-family="sans-serif" font-size="12" font-style="italic" lengthAdjust="spacingAndGlyphs" textLength="76" x="429.2" y="118.6543">Combination</text><line style="stroke:#A80036;stroke-width:1.5;" x1="388" x2="518" y1="130.5" y2="130.5"/><rect fill="none" height="6" style="stroke:#C82930;stroke-width:1.0;" width="6" x="395" y="138.5"/><text fill="#000000" font-family="sans-serif" font-size="11" lengthAdjust="spacingAndGlyphs" text-decoration="underline" textLength="59" x="407" y="144.7104">WIDTH: int</text><polygon fill="none" points="398,149.3047,402,153.3047,398,157.3047,394,153.3047" style="stroke:#B38D22;stroke-width:1.0;"/><text fill="#000000" font-family="sans-serif" font-size="11" lengthAdjust="spacingAndGlyphs" textLength="106" x="407" y="157.5151">colors: List&lt;Color&gt;</text><line style="stroke:#A80036;stroke-width:1.5;" x1="388" x2="518" y1="164.1094" y2="164.1094"/><polygon fill="#FFFF44" points="398,170.1094,402,174.1094,398,178.1094,394,174.1094" style="stroke:#B38D22;stroke-width:1.0;"/><text fill="#000000" font-family="sans-serif" font-size="11" lengthAdjust="spacingAndGlyphs" textLength="79" x="407" y="178.3198">Combination()</text><ellipse cx="398" cy="187.9141" fill="#84BE84" rx="3" ry="3" style="stroke:#038048;stroke-width:1.0;"/><text fill="#000000" font-family="sans-serif" font-size="11" lengthAdjust="spacingAndGlyphs" text-decoration="underline" textLength="80" x="407" y="191.1245">getWidth(): int</text><!--MD5=[133b2a20d5a8d4980692cee85e8c0684]
class usantatecla.mastermind.models.Game--><rect codeLine="11" fill="#FEFECE" filter="url(#f1hzhg9u8v7632)" height="214.4609" id="usantatecla.mastermind.models.Game" style="stroke:#A80036;stroke-width:1.5;" width="320" x="32" y="41"/><ellipse cx="170.25" cy="57" fill="#ADD1B2" rx="11" ry="11" style="stroke:#A80036;stroke-width:1.0;"/><path d="M172.5938,52.6719 C171.6563,52.2344 171.0625,52.0938 170.1875,52.0938 C167.5625,52.0938 165.5625,54.1719 165.5625,56.8906 L165.5625,58.0156 C165.5625,60.5938 167.6719,62.4844 170.5625,62.4844 C171.7813,62.4844 172.9375,62.1875 173.6875,61.6406 C174.2656,61.2344 174.5938,60.7813 174.5938,60.3906 C174.5938,59.9375 174.2031,59.5469 173.7344,59.5469 C173.5156,59.5469 173.3125,59.625 173.125,59.8125 C172.6719,60.2969 172.6719,60.2969 172.4844,60.3906 C172.0625,60.6563 171.375,60.7813 170.6094,60.7813 C168.5625,60.7813 167.2656,59.6875 167.2656,57.9844 L167.2656,56.8906 C167.2656,55.1094 168.5156,53.7969 170.25,53.7969 C170.8281,53.7969 171.4375,53.9531 171.9063,54.2031 C172.3906,54.4844 172.5625,54.7031 172.6563,55.1094 C172.7188,55.5156 172.75,55.6406 172.8906,55.7656 C173.0313,55.9063 173.2656,56.0156 173.4844,56.0156 C173.75,56.0156 174.0156,55.875 174.1875,55.6563 C174.2969,55.5 174.3281,55.3125 174.3281,54.8906 L174.3281,53.4688 C174.3281,53.0313 174.3125,52.9063 174.2188,52.75 C174.0625,52.4844 173.7813,52.3438 173.4844,52.3438 C173.1875,52.3438 172.9844,52.4375 172.7656,52.75 L172.5938,52.6719 Z " fill="#000000"/><text fill="#000000" font-family="sans-serif" font-size="12" lengthAdjust="spacingAndGlyphs" textLength="35" x="190.75" y="61.1543">Game</text><line style="stroke:#A80036;stroke-width:1.5;" x1="33" x2="351" y1="73" y2="73"/><rect fill="none" height="6" style="stroke:#C82930;stroke-width:1.0;" width="6" x="40" y="81"/><text fill="#000000" font-family="sans-serif" font-size="11" lengthAdjust="spacingAndGlyphs" text-decoration="underline" textLength="84" x="52" y="87.2104">MAX_LONG: int</text><rect fill="none" height="6" style="stroke:#C82930;stroke-width:1.0;" width="6" x="40" y="93.8047"/><text fill="#000000" font-family="sans-serif" font-size="11" lengthAdjust="spacingAndGlyphs" textLength="223" x="52" y="100.0151">secretCombination: SecretCombination</text><rect fill="none" height="6" style="stroke:#C82930;stroke-width:1.0;" width="6" x="40" y="106.6094"/><text fill="#000000" font-family="sans-serif" font-size="11" lengthAdjust="spacingAndGlyphs" textLength="291" x="52" y="112.8198">proposedCombination: List&lt;ProposedCombination&gt;</text><rect fill="none" height="6" style="stroke:#C82930;stroke-width:1.0;" width="6" x="40" y="119.4141"/><text fill="#000000" font-family="sans-serif" font-size="11" lengthAdjust="spacingAndGlyphs" textLength="117" x="52" y="125.6245">results: List&lt;Result&gt;</text><rect fill="none" height="6" style="stroke:#C82930;stroke-width:1.0;" width="6" x="40" y="132.2188"/><text fill="#000000" font-family="sans-serif" font-size="11" lengthAdjust="spacingAndGlyphs" textLength="72" x="52" y="138.4292">attempts: int</text><line style="stroke:#A80036;stroke-width:1.5;" x1="33" x2="351" y1="145.0234" y2="145.0234"/><ellipse cx="43" cy="156.0234" fill="#84BE84" rx="3" ry="3" style="stroke:#038048;stroke-width:1.0;"/><text fill="#000000" font-family="sans-serif" font-size="11" lengthAdjust="spacingAndGlyphs" textLength="43" x="52" y="159.2339">Game()</text><ellipse cx="43" cy="168.8281" fill="#84BE84" rx="3" ry="3" style="stroke:#038048;stroke-width:1.0;"/><text fill="#000000" font-family="sans-serif" font-size="11" lengthAdjust="spacingAndGlyphs" textLength="36" x="52" y="172.0386">clear()</text><ellipse cx="43" cy="181.6328" fill="#84BE84" rx="3" ry="3" style="stroke:#038048;stroke-width:1.0;"/><text fill="#000000" font-family="sans-serif" font-size="11" lengthAdjust="spacingAndGlyphs" textLength="268" x="52" y="184.8433">addProposeCombination(ProposedCombination)</text><ellipse cx="43" cy="194.4375" fill="#84BE84" rx="3" ry="3" style="stroke:#038048;stroke-width:1.0;"/><text fill="#000000" font-family="sans-serif" font-size="11" lengthAdjust="spacingAndGlyphs" textLength="108" x="52" y="197.6479">isLooser(): boolean</text><ellipse cx="43" cy="207.2422" fill="#84BE84" rx="3" ry="3" style="stroke:#038048;stroke-width:1.0;"/><text fill="#000000" font-family="sans-serif" font-size="11" lengthAdjust="spacingAndGlyphs" textLength="110" x="52" y="210.4526">isWinner(): boolean</text><ellipse cx="43" cy="220.0469" fill="#84BE84" rx="3" ry="3" style="stroke:#038048;stroke-width:1.0;"/><text fill="#000000" font-family="sans-serif" font-size="11" lengthAdjust="spacingAndGlyphs" textLength="100" x="52" y="223.2573">getAttempts(): int</text><ellipse cx="43" cy="232.8516" fill="#84BE84" rx="3" ry="3" style="stroke:#038048;stroke-width:1.0;"/><text fill="#000000" font-family="sans-serif" font-size="11" lengthAdjust="spacingAndGlyphs" textLength="294" x="52" y="236.062">getProposedCombination(int): ProposedCombination</text><ellipse cx="43" cy="245.6563" fill="#84BE84" rx="3" ry="3" style="stroke:#038048;stroke-width:1.0;"/><text fill="#000000" font-family="sans-serif" font-size="11" lengthAdjust="spacingAndGlyphs" textLength="118" x="52" y="248.8667">getResult(int): Result</text><!--MD5=[a212aeeb69ab78e602f8fa1f3e5ba19f]
class usantatecla.mastermind.models.SecretCombination--><rect codeLine="38" fill="#FEFECE" filter="url(#f1hzhg9u8v7632)" height="73.6094" id="usantatecla.mastermind.models.SecretCombination" style="stroke:#A80036;stroke-width:1.5;" width="253" x="228.5" y="315"/><ellipse cx="293.75" cy="331" fill="#ADD1B2" rx="11" ry="11" style="stroke:#A80036;stroke-width:1.0;"/><path d="M296.0938,326.6719 C295.1563,326.2344 294.5625,326.0938 293.6875,326.0938 C291.0625,326.0938 289.0625,328.1719 289.0625,330.8906 L289.0625,332.0156 C289.0625,334.5938 291.1719,336.4844 294.0625,336.4844 C295.2813,336.4844 296.4375,336.1875 297.1875,335.6406 C297.7656,335.2344 298.0938,334.7813 298.0938,334.3906 C298.0938,333.9375 297.7031,333.5469 297.2344,333.5469 C297.0156,333.5469 296.8125,333.625 296.625,333.8125 C296.1719,334.2969 296.1719,334.2969 295.9844,334.3906 C295.5625,334.6563 294.875,334.7813 294.1094,334.7813 C292.0625,334.7813 290.7656,333.6875 290.7656,331.9844 L290.7656,330.8906 C290.7656,329.1094 292.0156,327.7969 293.75,327.7969 C294.3281,327.7969 294.9375,327.9531 295.4063,328.2031 C295.8906,328.4844 296.0625,328.7031 296.1563,329.1094 C296.2188,329.5156 296.25,329.6406 296.3906,329.7656 C296.5313,329.9063 296.7656,330.0156 296.9844,330.0156 C297.25,330.0156 297.5156,329.875 297.6875,329.6563 C297.7969,329.5 297.8281,329.3125 297.8281,328.8906 L297.8281,327.4688 C297.8281,327.0313 297.8125,326.9063 297.7188,326.75 C297.5625,326.4844 297.2813,326.3438 296.9844,326.3438 C296.6875,326.3438 296.4844,326.4375 296.2656,326.75 L296.0938,326.6719 Z " fill="#000000"/><text fill="#000000" font-family="sans-serif" font-size="12" lengthAdjust="spacingAndGlyphs" textLength="114" x="314.25" y="335.1543">SecretCombination</text><line style="stroke:#A80036;stroke-width:1.5;" x1="229.5" x2="480.5" y1="347" y2="347"/><line style="stroke:#A80036;stroke-width:1.5;" x1="229.5" x2="480.5" y1="355" y2="355"/><polygon fill="#4177AF" points="239.5,362,235.5,368,243.5,368" style="stroke:#1963A0;stroke-width:1.0;"/><text fill="#000000" font-family="sans-serif" font-size="11" lengthAdjust="spacingAndGlyphs" textLength="117" x="248.5" y="369.2104">SecretCombination()</text><polygon fill="#4177AF" points="239.5,374.8047,235.5,380.8047,243.5,380.8047" style="stroke:#1963A0;stroke-width:1.0;"/><text fill="#000000" font-family="sans-serif" font-size="11" lengthAdjust="spacingAndGlyphs" textLength="227" x="248.5" y="382.0151">getResult(ProposedCombination): Result</text><!--MD5=[f33d10797af0f3b71126f0e937fc2775]
class usantatecla.mastermind.models.Result--><rect codeLine="47" fill="#FEFECE" filter="url(#f1hzhg9u8v7632)" height="124.8281" id="usantatecla.mastermind.models.Result" style="stroke:#A80036;stroke-width:1.5;" width="136" x="93" y="449"/><ellipse cx="138.75" cy="465" fill="#ADD1B2" rx="11" ry="11" style="stroke:#A80036;stroke-width:1.0;"/><path d="M141.0938,460.6719 C140.1563,460.2344 139.5625,460.0938 138.6875,460.0938 C136.0625,460.0938 134.0625,462.1719 134.0625,464.8906 L134.0625,466.0156 C134.0625,468.5938 136.1719,470.4844 139.0625,470.4844 C140.2813,470.4844 141.4375,470.1875 142.1875,469.6406 C142.7656,469.2344 143.0938,468.7813 143.0938,468.3906 C143.0938,467.9375 142.7031,467.5469 142.2344,467.5469 C142.0156,467.5469 141.8125,467.625 141.625,467.8125 C141.1719,468.2969 141.1719,468.2969 140.9844,468.3906 C140.5625,468.6563 139.875,468.7813 139.1094,468.7813 C137.0625,468.7813 135.7656,467.6875 135.7656,465.9844 L135.7656,464.8906 C135.7656,463.1094 137.0156,461.7969 138.75,461.7969 C139.3281,461.7969 139.9375,461.9531 140.4063,462.2031 C140.8906,462.4844 141.0625,462.7031 141.1563,463.1094 C141.2188,463.5156 141.25,463.6406 141.3906,463.7656 C141.5313,463.9063 141.7656,464.0156 141.9844,464.0156 C142.25,464.0156 142.5156,463.875 142.6875,463.6563 C142.7969,463.5 142.8281,463.3125 142.8281,462.8906 L142.8281,461.4688 C142.8281,461.0313 142.8125,460.9063 142.7188,460.75 C142.5625,460.4844 142.2813,460.3438 141.9844,460.3438 C141.6875,460.3438 141.4844,460.4375 141.2656,460.75 L141.0938,460.6719 Z " fill="#000000"/><text fill="#000000" font-family="sans-serif" font-size="12" lengthAdjust="spacingAndGlyphs" textLength="36" x="159.25" y="469.1543">Result</text><line style="stroke:#A80036;stroke-width:1.5;" x1="94" x2="228" y1="481" y2="481"/><rect fill="none" height="6" style="stroke:#C82930;stroke-width:1.0;" width="6" x="101" y="489"/><text fill="#000000" font-family="sans-serif" font-size="11" lengthAdjust="spacingAndGlyphs" textLength="56" x="113" y="495.2104">blacks: int</text><rect fill="none" height="6" style="stroke:#C82930;stroke-width:1.0;" width="6" x="101" y="501.8047"/><text fill="#000000" font-family="sans-serif" font-size="11" lengthAdjust="spacingAndGlyphs" textLength="58" x="113" y="508.0151">whites: int</text><line style="stroke:#A80036;stroke-width:1.5;" x1="94" x2="228" y1="514.6094" y2="514.6094"/><polygon fill="#4177AF" points="104,521.6094,100,527.6094,108,527.6094" style="stroke:#1963A0;stroke-width:1.0;"/><text fill="#000000" font-family="sans-serif" font-size="11" lengthAdjust="spacingAndGlyphs" textLength="78" x="113" y="528.8198">Result(int, int)</text><polygon fill="#4177AF" points="104,534.4141,100,540.4141,108,540.4141" style="stroke:#1963A0;stroke-width:1.0;"/><text fill="#000000" font-family="sans-serif" font-size="11" lengthAdjust="spacingAndGlyphs" textLength="110" x="113" y="541.6245">isWinner(): boolean</text><ellipse cx="104" cy="551.2188" fill="#84BE84" rx="3" ry="3" style="stroke:#038048;stroke-width:1.0;"/><text fill="#000000" font-family="sans-serif" font-size="11" lengthAdjust="spacingAndGlyphs" textLength="84" x="113" y="554.4292">getBlacks(): int</text><ellipse cx="104" cy="564.0234" fill="#84BE84" rx="3" ry="3" style="stroke:#038048;stroke-width:1.0;"/><text fill="#000000" font-family="sans-serif" font-size="11" lengthAdjust="spacingAndGlyphs" textLength="87" x="113" y="567.2339">getWhites(): int</text><!--MD5=[29c0d014c840bf5e3383a02197df5a5a]
class usantatecla.mastermind.models.ProposedCombination--><rect codeLine="30" fill="#FEFECE" filter="url(#f1hzhg9u8v7632)" height="86.4141" id="usantatecla.mastermind.models.ProposedCombination" style="stroke:#A80036;stroke-width:1.5;" width="184" x="264" y="468.5"/><ellipse cx="288" cy="484.5" fill="#ADD1B2" rx="11" ry="11" style="stroke:#A80036;stroke-width:1.0;"/><path d="M290.3438,480.1719 C289.4063,479.7344 288.8125,479.5938 287.9375,479.5938 C285.3125,479.5938 283.3125,481.6719 283.3125,484.3906 L283.3125,485.5156 C283.3125,488.0938 285.4219,489.9844 288.3125,489.9844 C289.5313,489.9844 290.6875,489.6875 291.4375,489.1406 C292.0156,488.7344 292.3438,488.2813 292.3438,487.8906 C292.3438,487.4375 291.9531,487.0469 291.4844,487.0469 C291.2656,487.0469 291.0625,487.125 290.875,487.3125 C290.4219,487.7969 290.4219,487.7969 290.2344,487.8906 C289.8125,488.1563 289.125,488.2813 288.3594,488.2813 C286.3125,488.2813 285.0156,487.1875 285.0156,485.4844 L285.0156,484.3906 C285.0156,482.6094 286.2656,481.2969 288,481.2969 C288.5781,481.2969 289.1875,481.4531 289.6563,481.7031 C290.1406,481.9844 290.3125,482.2031 290.4063,482.6094 C290.4688,483.0156 290.5,483.1406 290.6406,483.2656 C290.7813,483.4063 291.0156,483.5156 291.2344,483.5156 C291.5,483.5156 291.7656,483.375 291.9375,483.1563 C292.0469,483 292.0781,482.8125 292.0781,482.3906 L292.0781,480.9688 C292.0781,480.5313 292.0625,480.4063 291.9688,480.25 C291.8125,479.9844 291.5313,479.8438 291.2344,479.8438 C290.9375,479.8438 290.7344,479.9375 290.5156,480.25 L290.3438,480.1719 Z " fill="#000000"/><text fill="#000000" font-family="sans-serif" font-size="12" lengthAdjust="spacingAndGlyphs" textLength="132" x="304" y="488.6543">ProposedCombination</text><line style="stroke:#A80036;stroke-width:1.5;" x1="265" x2="447" y1="500.5" y2="500.5"/><line style="stroke:#A80036;stroke-width:1.5;" x1="265" x2="447" y1="508.5" y2="508.5"/><polygon fill="#4177AF" points="275,515.5,271,521.5,279,521.5" style="stroke:#1963A0;stroke-width:1.0;"/><text fill="#000000" font-family="sans-serif" font-size="11" lengthAdjust="spacingAndGlyphs" textLength="158" x="284" y="522.7104">contains(Color, int): boolean</text><polygon fill="#4177AF" points="275,528.3047,271,534.3047,279,534.3047" style="stroke:#1963A0;stroke-width:1.0;"/><text fill="#000000" font-family="sans-serif" font-size="11" lengthAdjust="spacingAndGlyphs" textLength="137" x="284" y="535.5151">contains(Color): boolean</text><ellipse cx="275" cy="545.1094" fill="#84BE84" rx="3" ry="3" style="stroke:#038048;stroke-width:1.0;"/><text fill="#000000" font-family="sans-serif" font-size="11" lengthAdjust="spacingAndGlyphs" textLength="135" x="284" y="548.3198">getColors(): List&lt;Color&gt;</text><!--MD5=[18eee71c88ab61f27581b8cbdd3ef5ee]
class Color--><rect codeLine="1" fill="#FEFECE" filter="url(#f1hzhg9u8v7632)" height="67.9063" id="Color" style="stroke:#A80036;stroke-width:1.5;" width="143" x="429.5" y="634"/><ellipse cx="444.5" cy="659.9531" fill="#EB937F" rx="11" ry="11" style="stroke:#A80036;stroke-width:1.0;"/><path d="M443.2969,660.8281 L444.75,660.8281 L444.75,660.9375 C444.75,661.3438 444.7813,661.5 444.8594,661.6563 C445.0156,661.9063 445.2969,662.0625 445.5938,662.0625 C445.8438,662.0625 446.1094,661.9219 446.2656,661.7031 C446.3906,661.5469 446.4219,661.3906 446.4219,660.9375 L446.4219,659.0156 C446.4219,658.8594 446.4219,658.8125 446.4063,658.6563 C446.3438,658.1875 446.0313,657.875 445.5781,657.875 C445.3281,657.875 445.0625,658.0156 444.8906,658.2344 C444.7813,658.4063 444.75,658.5625 444.75,659.0156 L444.75,659.1406 L443.2969,659.1406 L443.2969,656.7344 L447.2813,656.7344 L447.2813,657.5938 C447.2813,658 447.3125,658.1719 447.3906,658.3281 C447.5625,658.5781 447.8438,658.7344 448.125,658.7344 C448.3906,658.7344 448.6563,658.5938 448.8281,658.375 C448.9375,658.2031 448.9688,658.0625 448.9688,657.5938 L448.9688,655.0469 L441.3438,655.0469 C440.9063,655.0469 440.7813,655.0625 440.625,655.1563 C440.375,655.3125 440.2188,655.6094 440.2188,655.8906 C440.2188,656.1719 440.3594,656.4219 440.5781,656.5938 C440.7344,656.7031 440.9219,656.7344 441.3438,656.7344 L441.5938,656.7344 L441.5938,663.25 L441.3438,663.25 C440.9375,663.25 440.7813,663.2656 440.625,663.375 C440.375,663.5469 440.2188,663.8125 440.2188,664.1094 C440.2188,664.375 440.3594,664.625 440.5781,664.7813 C440.7188,664.9063 440.9531,664.9531 441.3438,664.9531 L449.3438,664.9531 L449.3438,662.375 C449.3438,661.9375 449.3125,661.7969 449.2344,661.6406 C449.0625,661.3906 448.7813,661.2344 448.5,661.2344 C448.2344,661.2344 447.9688,661.3438 447.7969,661.5938 C447.6875,661.75 447.6563,661.8906 447.6563,662.375 L447.6563,663.25 L443.2969,663.25 L443.2969,660.8281 Z " fill="#000000"/><text fill="#000000" font-family="sans-serif" font-size="12" lengthAdjust="spacingAndGlyphs" textLength="71" x="478.5" y="650.1387">usantatecla.</text><text fill="#000000" font-family="sans-serif" font-size="12" lengthAdjust="spacingAndGlyphs" textLength="111" x="458.5" y="664.1074">mastermind.types.</text><text fill="#000000" font-family="sans-serif" font-size="12" lengthAdjust="spacingAndGlyphs" textLength="32" x="498" y="678.0762">Color</text><line style="stroke:#A80036;stroke-width:1.5;" x1="430.5" x2="571.5" y1="685.9063" y2="685.9063"/><line style="stroke:#A80036;stroke-width:1.5;" x1="430.5" x2="571.5" y1="693.9063" y2="693.9063"/><!--MD5=[7a35cd41e558152cf7fe37e82b6d55e9]
link usantatecla.mastermind.models.Combination to Color--><path codeLine="9" d="M480.8137,208.8969 C480.8137,208.8969 507.619,279.133 514,315 C533.241,423.147 519.081,552.828 508.919,620.5806 " fill="none" id="usantatecla.mastermind.models.Combination-Color" style="stroke:#A80036;stroke-width:1.0;"/><polygon fill="#A80036" points="506.888,633.6746,512.2202,625.3941,507.6544,628.7337,504.3148,624.1678,506.888,633.6746" style="stroke:#A80036;stroke-width:1.0;"/><line style="stroke:#A80036;stroke-width:1.0;" x1="507.6544" x2="508.8805" y1="628.7337" y2="620.8283"/><polygon fill="#A80036" points="476.134,197.847,474.7906,204.9319,480.8137,208.8969,482.1572,201.812,476.134,197.847" style="stroke:#A80036;stroke-width:1.0;"/><text fill="#000000" font-family="sans-serif" font-size="13" lengthAdjust="spacingAndGlyphs" textLength="7" x="500.3283" y="623.0508">*</text><!--MD5=[12c828a60891e76557ccb918ce156a05]
link usantatecla.mastermind.models.Game to usantatecla.mastermind.models.SecretCombination--><path codeLine="26" d="M285.094,264.3666 C285.094,264.3666 307.782,292.485 317.336,304.324 " fill="none" id="usantatecla.mastermind.models.Game-usantatecla.mastermind.models.SecretCombination" style="stroke:#A80036;stroke-width:1.0;"/><polygon fill="#A80036" points="325.764,314.769,323.2257,305.2529,322.6243,310.8777,316.9995,310.2763,325.764,314.769" style="stroke:#A80036;stroke-width:1.0;"/><line style="stroke:#A80036;stroke-width:1.0;" x1="322.6243" x2="317.6" y1="310.8777" y2="304.652"/><polygon fill="#A80036" points="277.558,255.028,278.2131,262.2093,285.094,264.3666,284.4389,257.1853,277.558,255.028" style="stroke:#A80036;stroke-width:1.0;"/><!--MD5=[280ea308128396330f7bbc2193cef62d]
link usantatecla.mastermind.models.Game to usantatecla.mastermind.models.Result--><path codeLine="27" d="M155.1507,266.928 C155.1507,266.928 148.078,299.721 146,315 C141.568,347.589 143.981,356.173 146,389 C146.928,404.095 148.499,420.185 150.284,435.552 " fill="none" id="usantatecla.mastermind.models.Game-usantatecla.mastermind.models.Result" style="stroke:#A80036;stroke-width:1.0;"/><polygon fill="#A80036" points="151.897,448.826,154.7819,439.4091,151.2937,443.8625,146.8403,440.3744,151.897,448.826" style="stroke:#A80036;stroke-width:1.0;"/><line style="stroke:#A80036;stroke-width:1.0;" x1="151.2937" x2="150.329" y1="443.8625" y2="435.921"/><polygon fill="#A80036" points="157.991,255.269,152.6845,260.1518,155.1507,266.928,160.4572,262.0453,157.991,255.269" style="stroke:#A80036;stroke-width:1.0;"/><text fill="#000000" font-family="sans-serif" font-size="13" lengthAdjust="spacingAndGlyphs" textLength="23" x="126.5148" y="437.7966">0..*</text><!--MD5=[e6a772672154e2b4215389ae3fc2764d]
link usantatecla.mastermind.models.Game to usantatecla.mastermind.models.ProposedCombination--><path codeLine="28" d="M183.2703,267.1664 C183.2703,267.1664 192.154,352.459 211,389 C225.49,417.095 249.581,441.239 274.006,460.431 " fill="none" id="usantatecla.mastermind.models.Game-usantatecla.mastermind.models.ProposedCombination" style="stroke:#A80036;stroke-width:1.0;"/><polygon fill="#A80036" points="284.467,468.35,279.7062,459.7283,280.4807,465.3318,274.8771,466.1063,284.467,468.35" style="stroke:#A80036;stroke-width:1.0;"/><line style="stroke:#A80036;stroke-width:1.0;" x1="280.4807" x2="274.1015" y1="465.3318" y2="460.5035"/><polygon fill="#A80036" points="182.938,255.171,179.1057,261.2795,183.2703,267.1664,187.1026,261.0579,182.938,255.171" style="stroke:#A80036;stroke-width:1.0;"/><text fill="#000000" font-family="sans-serif" font-size="13" lengthAdjust="spacingAndGlyphs" textLength="23" x="248.2336" y="457.3221">0..*</text><!--MD5=[c8e3115d06e825a18a556418b72e64a9]
reverse link usantatecla.mastermind.models.Combination to usantatecla.mastermind.models.ProposedCombination--><path codeLine="35" d="M486.91,215.933 C507.159,265.609 524.45,333.98 499,389 C484.024,421.376 455.696,448.285 428.179,468.48 " fill="none" id="usantatecla.mastermind.models.Combination-backto-usantatecla.mastermind.models.ProposedCombination" style="stroke:#A80036;stroke-width:1.0;"/><polygon fill="none" points="480.471,218.679,478.936,197.545,493.315,213.109,480.471,218.679" style="stroke:#A80036;stroke-width:1.0;"/><!--MD5=[f29c4a14d129a58d848eec9cd947b4db]
link usantatecla.mastermind.models.ProposedCombination to Color--><path codeLine="36" d="M395.622,554.718 C417.737,578.282 445.03,607.3633 466.299,630.0251 " fill="none" id="usantatecla.mastermind.models.ProposedCombination-to-Color" style="stroke:#A80036;stroke-width:1.0;stroke-dasharray:7.0,7.0;"/><polygon fill="#A80036" points="469.927,633.8914,466.6863,624.591,466.506,630.245,460.852,630.0647,469.927,633.8914" style="stroke:#A80036;stroke-width:1.0;"/><!--MD5=[c1581850849ed6ede223799cd35a067f]
reverse link usantatecla.mastermind.models.Combination to usantatecla.mastermind.models.SecretCombination--><path codeLine="42" d="M420.589,215.806 C404.577,248.812 385.884,287.341 372.56,314.805 " fill="none" id="usantatecla.mastermind.models.Combination-backto-usantatecla.mastermind.models.SecretCombination" style="stroke:#A80036;stroke-width:1.0;"/><polygon fill="none" points="414.374,212.58,429.402,197.641,426.97,218.691,414.374,212.58" style="stroke:#A80036;stroke-width:1.0;"/><!--MD5=[37df5b907d636f1fcade6857244b0a7e]
link usantatecla.mastermind.models.SecretCombination to usantatecla.mastermind.models.Result--><path codeLine="43" d="M310.492,389.134 C287.663,407.668 259.281,430.71 233.401,451.721 " fill="none" id="usantatecla.mastermind.models.SecretCombination-to-usantatecla.mastermind.models.Result" style="stroke:#A80036;stroke-width:1.0;stroke-dasharray:7.0,7.0;"/><polygon fill="#A80036" points="229.27,455.074,238.7787,452.5081,233.1522,451.9231,233.7373,446.2966,229.27,455.074" style="stroke:#A80036;stroke-width:1.0;"/><!--MD5=[be5e6334e25a1733719410e897fbe715]
link usantatecla.mastermind.models.SecretCombination to usantatecla.mastermind.models.ProposedCombination--><path codeLine="44" d="M355.229,389.134 C355.369,411.179 355.55,439.599 355.701,463.396 " fill="none" id="usantatecla.mastermind.models.SecretCombination-to-usantatecla.mastermind.models.ProposedCombination" style="stroke:#A80036;stroke-width:1.0;stroke-dasharray:7.0,7.0;"/><polygon fill="#A80036" points="355.733,468.4,359.6764,459.375,355.7016,463.4001,351.6765,459.4253,355.733,468.4" style="stroke:#A80036;stroke-width:1.0;"/><!--MD5=[e41eb31a07e3391b118b54a8a827bca8]
link usantatecla.mastermind.models.SecretCombination to Color--><path codeLine="45" d="M410.568,389.081 C430.812,405.038 451.92,425.531 465,449 C496.648,505.784 502.171,582.921 502.289,628.5798 " fill="none" id="usantatecla.mastermind.models.SecretCombination-to-Color" style="stroke:#A80036;stroke-width:1.0;stroke-dasharray:7.0,7.0;"/><polygon fill="#A80036" points="502.28,633.7156,506.2965,624.7229,502.2891,628.7156,498.2965,624.7083,502.28,633.7156" style="stroke:#A80036;stroke-width:1.0;"/><!--MD5=[6f6994a70a46872d34bd35a5dd21f76b]
link usantatecla.mastermind.models.Result to usantatecla.mastermind.models.Combination--><path codeLine="56" d="M162.367,448.986 C166.434,406.616 178.324,351.577 211,315 C261.043,258.983 308.385,299.363 369,255 C388.553,240.689 405.992,220.692 419.844,201.917 " fill="none" id="usantatecla.mastermind.models.Result-to-usantatecla.mastermind.models.Combination" style="stroke:#A80036;stroke-width:1.0;stroke-dasharray:7.0,7.0;"/><polygon fill="#A80036" points="422.924,197.682,414.3954,202.6078,419.9831,201.7256,420.8652,207.3133,422.924,197.682" style="stroke:#A80036;stroke-width:1.0;"/><!--MD5=[d2fa51481388c9128dbaec834c07611a]
@startuml
enum Color as "usantatecla.\nmastermind.types.\nColor"

abstract class usantatecla.mastermind.models.Combination {
    - {static} WIDTH: int
    # colors: List<Color>
    # Combination()
    + {static} getWidth(): int
}
usantatecla.mastermind.models.Combination *-down-> "*" Color

class usantatecla.mastermind.models.Game {
    - {static} MAX_LONG: int
    - secretCombination: SecretCombination
    - proposedCombination: List<ProposedCombination>
    - results: List<Result>
    - attempts: int
    + Game()
    + clear()
    + addProposeCombination(ProposedCombination)
    + isLooser(): boolean
    + isWinner(): boolean
    + getAttempts(): int
    + getProposedCombination(int): ProposedCombination
    + getResult(int): Result
}
usantatecla.mastermind.models.Game *-down-> usantatecla.mastermind.models.SecretCombination
usantatecla.mastermind.models.Game *-down-> "0..*" usantatecla.mastermind.models.Result
usantatecla.mastermind.models.Game *-down-> "0..*" usantatecla.mastermind.models.ProposedCombination

class usantatecla.mastermind.models.ProposedCombination {
    ~ contains(Color, int): boolean
    ~ contains(Color): boolean
    + getColors(): List<Color>
}
usantatecla.mastermind.models.Combination <|-down- usantatecla.mastermind.models.ProposedCombination
usantatecla.mastermind.models.ProposedCombination ..> Color

class usantatecla.mastermind.models.SecretCombination {
    ~ SecretCombination()
    ~ getResult(ProposedCombination): Result
}
usantatecla.mastermind.models.Combination <|-down- usantatecla.mastermind.models.SecretCombination
usantatecla.mastermind.models.SecretCombination ..> usantatecla.mastermind.models.Result
usantatecla.mastermind.models.SecretCombination ..> usantatecla.mastermind.models.ProposedCombination
usantatecla.mastermind.models.SecretCombination ..> Color

class usantatecla.mastermind.models.Result {
    - blacks: int
    - whites: int
    ~ Result(int, int)
    ~ isWinner(): boolean
    + getBlacks(): int
    + getWhites(): int
}

usantatecla.mastermind.models.Result -down..> usantatecla.mastermind.models.Combination
@enduml

PlantUML version 1.2020.23beta3(Unknown compile time)
(GPL source distribution)
Java Runtime: Java(TM) SE Runtime Environment
JVM: Java HotSpot(TM) 64-Bit Server VM
Default Encoding: UTF-8
Language: en
Country: US
--></g></svg>