<?xml version="1.0" encoding="UTF-8" standalone="no"?><svg xmlns="http://www.w3.org/2000/svg" xmlns:xlink="http://www.w3.org/1999/xlink" contentScriptType="application/ecmascript" contentStyleType="text/css" height="268px" preserveAspectRatio="none" style="width:585px;height:268px;" version="1.1" viewBox="0 0 585 268" width="585px" zoomAndPan="magnify"><defs><filter height="300%" id="f6o2l9ly2bab8" width="300%" x="-1" y="-1"><feGaussianBlur result="blurOut" stdDeviation="2.0"/><feColorMatrix in="blurOut" result="blurOut2" type="matrix" values="0 0 0 0 0 0 0 0 0 0 0 0 0 0 0 0 0 0 .4 0"/><feOffset dx="4.0" dy="4.0" in="blurOut2" result="blurOut3"/><feBlend in="SourceGraphic" in2="blurOut3" mode="normal"/></filter></defs><g><!--MD5=[9be0839337cfdab5d118a2e29cf0a8c4]
cluster usantatecla.mastermind--><polygon fill="#FFFFFF" filter="url(#f6o2l9ly2bab8)" points="180,6,387,6,394,28.2969,397,28.2969,397,143,180,143,180,6" style="stroke:#000000;stroke-width:1.5;"/><line style="stroke:#000000;stroke-width:1.5;" x1="180" x2="394" y1="28.2969" y2="28.2969"/><text fill="#000000" font-family="sans-serif" font-size="14" font-weight="bold" lengthAdjust="spacingAndGlyphs" textLength="201" x="184" y="20.9951">usantatecla.mastermind</text><!--MD5=[904099970a9cea29a476bd38c8d887ee]
class usantatecla.mastermind.Mastermind--><rect codeLine="5" fill="#FEFECE" filter="url(#f6o2l9ly2bab8)" height="86.4141" id="usantatecla.mastermind.Mastermind" style="stroke:#A80036;stroke-width:1.5;" width="103" x="236.5" y="41"/><ellipse cx="251.95" cy="57" fill="#ADD1B2" rx="11" ry="11" style="stroke:#A80036;stroke-width:1.0;"/><path d="M254.2938,52.6719 C253.3563,52.2344 252.7625,52.0938 251.8875,52.0938 C249.2625,52.0938 247.2625,54.1719 247.2625,56.8906 L247.2625,58.0156 C247.2625,60.5938 249.3719,62.4844 252.2625,62.4844 C253.4813,62.4844 254.6375,62.1875 255.3875,61.6406 C255.9656,61.2344 256.2938,60.7813 256.2938,60.3906 C256.2938,59.9375 255.9031,59.5469 255.4344,59.5469 C255.2156,59.5469 255.0125,59.625 254.825,59.8125 C254.3719,60.2969 254.3719,60.2969 254.1844,60.3906 C253.7625,60.6563 253.075,60.7813 252.3094,60.7813 C250.2625,60.7813 248.9656,59.6875 248.9656,57.9844 L248.9656,56.8906 C248.9656,55.1094 250.2156,53.7969 251.95,53.7969 C252.5281,53.7969 253.1375,53.9531 253.6063,54.2031 C254.0906,54.4844 254.2625,54.7031 254.3563,55.1094 C254.4188,55.5156 254.45,55.6406 254.5906,55.7656 C254.7313,55.9063 254.9656,56.0156 255.1844,56.0156 C255.45,56.0156 255.7156,55.875 255.8875,55.6563 C255.9969,55.5 256.0281,55.3125 256.0281,54.8906 L256.0281,53.4688 C256.0281,53.0313 256.0125,52.9063 255.9188,52.75 C255.7625,52.4844 255.4813,52.3438 255.1844,52.3438 C254.8875,52.3438 254.6844,52.4375 254.4656,52.75 L254.2938,52.6719 Z " fill="#000000"/><text fill="#000000" font-family="sans-serif" font-size="12" lengthAdjust="spacingAndGlyphs" textLength="70" x="266.05" y="61.1543">Mastermind</text><line style="stroke:#A80036;stroke-width:1.5;" x1="237.5" x2="338.5" y1="73" y2="73"/><line style="stroke:#A80036;stroke-width:1.5;" x1="237.5" x2="338.5" y1="81" y2="81"/><polygon fill="#FFFF44" points="247.5,87,251.5,91,247.5,95,243.5,91" style="stroke:#B38D22;stroke-width:1.0;"/><text fill="#000000" font-family="sans-serif" font-size="11" lengthAdjust="spacingAndGlyphs" textLength="74" x="256.5" y="95.2104">Mastermind()</text><polygon fill="#FFFF44" points="247.5,99.8047,251.5,103.8047,247.5,107.8047,243.5,103.8047" style="stroke:#B38D22;stroke-width:1.0;"/><text fill="#000000" font-family="sans-serif" font-size="11" lengthAdjust="spacingAndGlyphs" textLength="32" x="256.5" y="108.0151">play()</text><ellipse cx="247.5" cy="117.6094" fill="#84BE84" rx="3" ry="3" style="stroke:#038048;stroke-width:1.0;"/><text fill="#000000" font-family="sans-serif" font-size="11" lengthAdjust="spacingAndGlyphs" text-decoration="underline" textLength="77" x="256.5" y="120.8198">main(String[])</text><!--MD5=[42fa18dda7351a0ae87d9497de925436]
class Logic--><rect codeLine="1" fill="#FEFECE" filter="url(#f6o2l9ly2bab8)" height="67.9063" id="Logic" style="stroke:#A80036;stroke-width:1.5;" width="174" x="7" y="187"/><ellipse cx="22" cy="212.9531" fill="#ADD1B2" rx="11" ry="11" style="stroke:#A80036;stroke-width:1.0;"/><path d="M24.3438,208.625 C23.4063,208.1875 22.8125,208.0469 21.9375,208.0469 C19.3125,208.0469 17.3125,210.125 17.3125,212.8438 L17.3125,213.9688 C17.3125,216.5469 19.4219,218.4375 22.3125,218.4375 C23.5313,218.4375 24.6875,218.1406 25.4375,217.5938 C26.0156,217.1875 26.3438,216.7344 26.3438,216.3438 C26.3438,215.8906 25.9531,215.5 25.4844,215.5 C25.2656,215.5 25.0625,215.5781 24.875,215.7656 C24.4219,216.25 24.4219,216.25 24.2344,216.3438 C23.8125,216.6094 23.125,216.7344 22.3594,216.7344 C20.3125,216.7344 19.0156,215.6406 19.0156,213.9375 L19.0156,212.8438 C19.0156,211.0625 20.2656,209.75 22,209.75 C22.5781,209.75 23.1875,209.9063 23.6563,210.1563 C24.1406,210.4375 24.3125,210.6563 24.4063,211.0625 C24.4688,211.4688 24.5,211.5938 24.6406,211.7188 C24.7813,211.8594 25.0156,211.9688 25.2344,211.9688 C25.5,211.9688 25.7656,211.8281 25.9375,211.6094 C26.0469,211.4531 26.0781,211.2656 26.0781,210.8438 L26.0781,209.4219 C26.0781,208.9844 26.0625,208.8594 25.9688,208.7031 C25.8125,208.4375 25.5313,208.2969 25.2344,208.2969 C24.9375,208.2969 24.7344,208.3906 24.5156,208.7031 L24.3438,208.625 Z " fill="#000000"/><text fill="#000000" font-family="sans-serif" font-size="12" lengthAdjust="spacingAndGlyphs" textLength="71" x="71.5" y="203.1387">usantatecla.</text><text fill="#000000" font-family="sans-serif" font-size="12" lengthAdjust="spacingAndGlyphs" textLength="142" x="36" y="217.1074">mastermind.controllers.</text><text fill="#000000" font-family="sans-serif" font-size="12" lengthAdjust="spacingAndGlyphs" textLength="32" x="91" y="231.0762">Logic</text><line style="stroke:#A80036;stroke-width:1.5;" x1="8" x2="180" y1="238.9063" y2="238.9063"/><line style="stroke:#A80036;stroke-width:1.5;" x1="8" x2="180" y1="246.9063" y2="246.9063"/><!--MD5=[c045e12321b83266d36d22b9096c24ea]
class View--><rect codeLine="2" fill="#FEFECE" filter="url(#f6o2l9ly2bab8)" height="67.9063" id="View" style="stroke:#A80036;stroke-width:1.5;" width="144" x="216" y="187"/><ellipse cx="231" cy="212.9531" fill="#ADD1B2" rx="11" ry="11" style="stroke:#A80036;stroke-width:1.0;"/><path d="M233.3438,208.625 C232.4063,208.1875 231.8125,208.0469 230.9375,208.0469 C228.3125,208.0469 226.3125,210.125 226.3125,212.8438 L226.3125,213.9688 C226.3125,216.5469 228.4219,218.4375 231.3125,218.4375 C232.5313,218.4375 233.6875,218.1406 234.4375,217.5938 C235.0156,217.1875 235.3438,216.7344 235.3438,216.3438 C235.3438,215.8906 234.9531,215.5 234.4844,215.5 C234.2656,215.5 234.0625,215.5781 233.875,215.7656 C233.4219,216.25 233.4219,216.25 233.2344,216.3438 C232.8125,216.6094 232.125,216.7344 231.3594,216.7344 C229.3125,216.7344 228.0156,215.6406 228.0156,213.9375 L228.0156,212.8438 C228.0156,211.0625 229.2656,209.75 231,209.75 C231.5781,209.75 232.1875,209.9063 232.6563,210.1563 C233.1406,210.4375 233.3125,210.6563 233.4063,211.0625 C233.4688,211.4688 233.5,211.5938 233.6406,211.7188 C233.7813,211.8594 234.0156,211.9688 234.2344,211.9688 C234.5,211.9688 234.7656,211.8281 234.9375,211.6094 C235.0469,211.4531 235.0781,211.2656 235.0781,210.8438 L235.0781,209.4219 C235.0781,208.9844 235.0625,208.8594 234.9688,208.7031 C234.8125,208.4375 234.5313,208.2969 234.2344,208.2969 C233.9375,208.2969 233.7344,208.3906 233.5156,208.7031 L233.3438,208.625 Z " fill="#000000"/><text fill="#000000" font-family="sans-serif" font-size="12" lengthAdjust="spacingAndGlyphs" textLength="71" x="265.5" y="203.1387">usantatecla.</text><text fill="#000000" font-family="sans-serif" font-size="12" lengthAdjust="spacingAndGlyphs" textLength="112" x="245" y="217.1074">mastermind.views.</text><text fill="#000000" font-family="sans-serif" font-size="12" lengthAdjust="spacingAndGlyphs" textLength="29" x="286.5" y="231.0762">View</text><line style="stroke:#A80036;stroke-width:1.5;" x1="217" x2="359" y1="238.9063" y2="238.9063"/><line style="stroke:#A80036;stroke-width:1.5;" x1="217" x2="359" y1="246.9063" y2="246.9063"/><!--MD5=[c044a56b44e9ed3c506c87887737c8ac]
class AcceptorController--><rect codeLine="3" fill="#FEFECE" filter="url(#f6o2l9ly2bab8)" height="67.9063" id="AcceptorController" style="stroke:#A80036;stroke-width:1.5;" width="176" x="395" y="187"/><ellipse cx="410" cy="212.9531" fill="#B4A7E5" rx="11" ry="11" style="stroke:#A80036;stroke-width:1.0;"/><path d="M410.9531,209.7344 L412.6719,209.7344 C413.0625,209.7344 413.25,209.7031 413.375,209.625 C413.6406,209.4688 413.7813,209.1875 413.7813,208.8906 C413.7813,208.625 413.6719,208.3594 413.4375,208.1875 C413.2656,208.0781 413.125,208.0469 412.6719,208.0469 L407.5313,208.0469 C407.0938,208.0469 406.9688,208.0625 406.8125,208.1563 C406.5625,208.3125 406.4063,208.6094 406.4063,208.8906 C406.4063,209.1719 406.5469,209.4219 406.7656,209.5938 C406.9219,209.7031 407.1094,209.7344 407.5313,209.7344 L409.25,209.7344 L409.25,216.25 L407.5313,216.25 C407.0938,216.25 406.9688,216.2656 406.8125,216.375 C406.5625,216.5313 406.4063,216.8125 406.4063,217.1094 C406.4063,217.3594 406.5469,217.625 406.7656,217.7813 C406.9219,217.9063 407.125,217.9531 407.5313,217.9531 L412.6719,217.9531 C413.4219,217.9531 413.7813,217.6719 413.7813,217.1094 C413.7813,216.8281 413.6719,216.5781 413.4375,216.4063 C413.2656,216.2813 413.125,216.25 412.6719,216.25 L410.9531,216.25 L410.9531,209.7344 Z " fill="#000000"/><text fill="#000000" font-family="sans-serif" font-size="12" font-style="italic" lengthAdjust="spacingAndGlyphs" textLength="74" x="459" y="203.1387">usantatecla.</text><text fill="#000000" font-family="sans-serif" font-size="12" font-style="italic" lengthAdjust="spacingAndGlyphs" textLength="144" x="424" y="217.1074">mastermind.controllers.</text><text fill="#000000" font-family="sans-serif" font-size="12" font-style="italic" lengthAdjust="spacingAndGlyphs" textLength="112" x="440" y="231.0762">AcceptorController</text><line style="stroke:#A80036;stroke-width:1.5;" x1="396" x2="570" y1="238.9063" y2="238.9063"/><line style="stroke:#A80036;stroke-width:1.5;" x1="396" x2="570" y1="246.9063" y2="246.9063"/><!--MD5=[a5f8ce13268a0ab6e1eb93d1cfb2a7ef]
link usantatecla.mastermind.Mastermind to View--><path codeLine="10" d="M288,139.344 C288,139.344 288,162.9455 288,173.4815 " fill="none" id="usantatecla.mastermind.Mastermind-View" style="stroke:#A80036;stroke-width:1.0;"/><polygon fill="#A80036" points="288,186.797,292,177.797,288,181.797,284,177.797,288,186.797" style="stroke:#A80036;stroke-width:1.0;"/><line style="stroke:#A80036;stroke-width:1.0;" x1="288" x2="288" y1="181.797" y2="173.7969"/><polygon fill="#A80036" points="288,127.344,284,133.344,288,139.344,292,133.344,288,127.344" style="stroke:#A80036;stroke-width:1.0;"/><!--MD5=[247e47791acc2ed78b9d73006ffb100f]
link usantatecla.mastermind.Mastermind to Logic--><path codeLine="11" d="M226.4165,127.8547 C226.4165,127.8547 175.54,163.2579 152.571,179.2421 " fill="none" id="usantatecla.mastermind.Mastermind-Logic" style="stroke:#A80036;stroke-width:1.0;"/><polygon fill="#A80036" points="141.598,186.8774,151.2701,185.0198,145.702,184.0214,146.7004,178.4533,141.598,186.8774" style="stroke:#A80036;stroke-width:1.0;"/><line style="stroke:#A80036;stroke-width:1.0;" x1="145.702" x2="152.269" y1="184.0214" y2="179.4519"/><polygon fill="#A80036" points="236.266,121,229.0563,121.1442,226.4165,127.8547,233.6261,127.7105,236.266,121" style="stroke:#A80036;stroke-width:1.0;"/><!--MD5=[470a0ce6f6f6cc1862d1bbecef9c7c8e]
link usantatecla.mastermind.Mastermind to AcceptorController--><path codeLine="12" d="M339.744,120.823 C367.921,140.33 402.69,164.4007 430.918,183.9435 " fill="none" id="usantatecla.mastermind.Mastermind-to-AcceptorController" style="stroke:#A80036;stroke-width:1.0;stroke-dasharray:7.0,7.0;"/><polygon fill="#A80036" points="435.034,186.7929,429.9106,178.3815,430.9229,183.9471,425.3573,184.9594,435.034,186.7929" style="stroke:#A80036;stroke-width:1.0;"/><!--MD5=[8d8bd0493e5b62c91323448f25b684e9]
@startuml
class Logic as "usantatecla.\nmastermind.controllers.\nLogic"
class View as "usantatecla.\nmastermind.views.\nView"
interface AcceptorController as "usantatecla.\nmastermind.controllers.\nAcceptorController"

class  usantatecla.mastermind.Mastermind{
    # Mastermind()
    # play()
    + {static} main(String[])
}
usantatecla.mastermind.Mastermind *-down-> View
usantatecla.mastermind.Mastermind *-down-> Logic
usantatecla.mastermind.Mastermind .down.> AcceptorController
@enduml

PlantUML version 1.2020.23beta3(Unknown compile time)
(GPL source distribution)
Java Runtime: Java(TM) SE Runtime Environment
JVM: Java HotSpot(TM) 64-Bit Server VM
Default Encoding: UTF-8
Language: en
Country: US
--></g></svg>