<?xml version="1.0" encoding="UTF-8" standalone="no"?><svg xmlns="http://www.w3.org/2000/svg" xmlns:xlink="http://www.w3.org/1999/xlink" contentScriptType="application/ecmascript" contentStyleType="text/css" height="601px" preserveAspectRatio="none" style="width:1061px;height:601px;" version="1.1" viewBox="0 0 1061 601" width="1061px" zoomAndPan="magnify"><defs><filter height="300%" id="fjq40tyivlp2k" width="300%" x="-1" y="-1"><feGaussianBlur result="blurOut" stdDeviation="2.0"/><feColorMatrix in="blurOut" result="blurOut2" type="matrix" values="0 0 0 0 0 0 0 0 0 0 0 0 0 0 0 0 0 0 .4 0"/><feOffset dx="4.0" dy="4.0" in="blurOut2" result="blurOut3"/><feBlend in="SourceGraphic" in2="blurOut3" mode="normal"/></filter></defs><g><!--MD5=[908cbfa8709a8ec6ee3beb0409fea32c]
cluster usantatecla.utils--><polygon fill="#FFFFFF" filter="url(#fjq40tyivlp2k)" points="16,6,162,6,169,28.2969,900,28.2969,900,495,16,495,16,6" style="stroke:#000000;stroke-width:1.5;"/><line style="stroke:#000000;stroke-width:1.5;" x1="16" x2="169" y1="28.2969" y2="28.2969"/><text fill="#000000" font-family="sans-serif" font-size="14" font-weight="bold" lengthAdjust="spacingAndGlyphs" textLength="140" x="20" y="20.9951">usantatecla.utils</text><!--MD5=[5f6eaca964039dd95284677bcb120bda]
class usantatecla.utils.views.ColorCode--><rect codeLine="4" fill="#FEFECE" filter="url(#fjq40tyivlp2k)" height="188.8516" id="usantatecla.utils.views.ColorCode" style="stroke:#A80036;stroke-width:1.5;" width="183" x="700.5" y="41"/><ellipse cx="755.75" cy="57" fill="#EB937F" rx="11" ry="11" style="stroke:#A80036;stroke-width:1.0;"/><path d="M754.5469,57.875 L756,57.875 L756,57.9844 C756,58.3906 756.0313,58.5469 756.1094,58.7031 C756.2656,58.9531 756.5469,59.1094 756.8438,59.1094 C757.0938,59.1094 757.3594,58.9688 757.5156,58.75 C757.6406,58.5938 757.6719,58.4375 757.6719,57.9844 L757.6719,56.0625 C757.6719,55.9063 757.6719,55.8594 757.6563,55.7031 C757.5938,55.2344 757.2813,54.9219 756.8281,54.9219 C756.5781,54.9219 756.3125,55.0625 756.1406,55.2813 C756.0313,55.4531 756,55.6094 756,56.0625 L756,56.1875 L754.5469,56.1875 L754.5469,53.7813 L758.5313,53.7813 L758.5313,54.6406 C758.5313,55.0469 758.5625,55.2188 758.6406,55.375 C758.8125,55.625 759.0938,55.7813 759.375,55.7813 C759.6406,55.7813 759.9063,55.6406 760.0781,55.4219 C760.1875,55.25 760.2188,55.1094 760.2188,54.6406 L760.2188,52.0938 L752.5938,52.0938 C752.1563,52.0938 752.0313,52.1094 751.875,52.2031 C751.625,52.3594 751.4688,52.6563 751.4688,52.9375 C751.4688,53.2188 751.6094,53.4688 751.8281,53.6406 C751.9844,53.75 752.1719,53.7813 752.5938,53.7813 L752.8438,53.7813 L752.8438,60.2969 L752.5938,60.2969 C752.1875,60.2969 752.0313,60.3125 751.875,60.4219 C751.625,60.5938 751.4688,60.8594 751.4688,61.1563 C751.4688,61.4219 751.6094,61.6719 751.8281,61.8281 C751.9688,61.9531 752.2031,62 752.5938,62 L760.5938,62 L760.5938,59.4219 C760.5938,58.9844 760.5625,58.8438 760.4844,58.6875 C760.3125,58.4375 760.0313,58.2813 759.75,58.2813 C759.4844,58.2813 759.2188,58.3906 759.0469,58.6406 C758.9375,58.7969 758.9063,58.9375 758.9063,59.4219 L758.9063,60.2969 L754.5469,60.2969 L754.5469,57.875 Z " fill="#000000"/><text fill="#000000" font-family="sans-serif" font-size="12" lengthAdjust="spacingAndGlyphs" textLength="64" x="776.25" y="61.1543">ColorCode</text><line style="stroke:#A80036;stroke-width:1.5;" x1="701.5" x2="882.5" y1="73" y2="73"/><ellipse cx="711.5" cy="84" fill="none" rx="3" ry="3" style="stroke:#038048;stroke-width:1.0;"/><text fill="#000000" font-family="sans-serif" font-size="11" lengthAdjust="spacingAndGlyphs" textLength="23" x="720.5" y="87.2104">RED</text><ellipse cx="711.5" cy="96.8047" fill="none" rx="3" ry="3" style="stroke:#038048;stroke-width:1.0;"/><text fill="#000000" font-family="sans-serif" font-size="11" lengthAdjust="spacingAndGlyphs" textLength="29" x="720.5" y="100.0151">BLUE</text><ellipse cx="711.5" cy="109.6094" fill="none" rx="3" ry="3" style="stroke:#038048;stroke-width:1.0;"/><text fill="#000000" font-family="sans-serif" font-size="11" lengthAdjust="spacingAndGlyphs" textLength="46" x="720.5" y="112.8198">YELLOW</text><ellipse cx="711.5" cy="122.4141" fill="none" rx="3" ry="3" style="stroke:#038048;stroke-width:1.0;"/><text fill="#000000" font-family="sans-serif" font-size="11" lengthAdjust="spacingAndGlyphs" textLength="38" x="720.5" y="125.6245">GREEN</text><ellipse cx="711.5" cy="135.2188" fill="none" rx="3" ry="3" style="stroke:#038048;stroke-width:1.0;"/><text fill="#000000" font-family="sans-serif" font-size="11" lengthAdjust="spacingAndGlyphs" textLength="48" x="720.5" y="138.4292">ORANGE</text><ellipse cx="711.5" cy="148.0234" fill="none" rx="3" ry="3" style="stroke:#038048;stroke-width:1.0;"/><text fill="#000000" font-family="sans-serif" font-size="11" lengthAdjust="spacingAndGlyphs" textLength="40" x="720.5" y="151.2339">PURPLE</text><ellipse cx="711.5" cy="160.8281" fill="none" rx="3" ry="3" style="stroke:#038048;stroke-width:1.0;"/><text fill="#000000" font-family="sans-serif" font-size="11" lengthAdjust="spacingAndGlyphs" textLength="81" x="720.5" y="164.0386">RESET_COLOR</text><rect fill="none" height="6" style="stroke:#C82930;stroke-width:1.0;" width="6" x="708.5" y="170.6328"/><text fill="#000000" font-family="sans-serif" font-size="11" lengthAdjust="spacingAndGlyphs" textLength="67" x="720.5" y="176.8433">color: String</text><line style="stroke:#A80036;stroke-width:1.5;" x1="701.5" x2="882.5" y1="183.4375" y2="183.4375"/><polygon fill="#4177AF" points="711.5,190.4375,707.5,196.4375,715.5,196.4375" style="stroke:#1963A0;stroke-width:1.0;"/><text fill="#000000" font-family="sans-serif" font-size="11" lengthAdjust="spacingAndGlyphs" textLength="100" x="720.5" y="197.6479">ColorCode(String)</text><ellipse cx="711.5" cy="207.2422" fill="#84BE84" rx="3" ry="3" style="stroke:#038048;stroke-width:1.0;"/><text fill="#000000" font-family="sans-serif" font-size="11" lengthAdjust="spacingAndGlyphs" textLength="96" x="720.5" y="210.4526">getColor(): String</text><ellipse cx="711.5" cy="220.0469" fill="#84BE84" rx="3" ry="3" style="stroke:#038048;stroke-width:1.0;"/><text fill="#000000" font-family="sans-serif" font-size="11" lengthAdjust="spacingAndGlyphs" text-decoration="underline" textLength="157" x="720.5" y="223.2573">getColorByIndex(int): String</text><!--MD5=[5a5a2ad444bc00c1498d76ebf80a1dc4]
class usantatecla.utils.views.Console--><rect codeLine="18" fill="#FEFECE" filter="url(#fjq40tyivlp2k)" height="188.8516" id="usantatecla.utils.views.Console" style="stroke:#A80036;stroke-width:1.5;" width="166" x="493" y="290"/><ellipse cx="547.25" cy="306" fill="#ADD1B2" rx="11" ry="11" style="stroke:#A80036;stroke-width:1.0;"/><path d="M549.5938,301.6719 C548.6563,301.2344 548.0625,301.0938 547.1875,301.0938 C544.5625,301.0938 542.5625,303.1719 542.5625,305.8906 L542.5625,307.0156 C542.5625,309.5938 544.6719,311.4844 547.5625,311.4844 C548.7813,311.4844 549.9375,311.1875 550.6875,310.6406 C551.2656,310.2344 551.5938,309.7813 551.5938,309.3906 C551.5938,308.9375 551.2031,308.5469 550.7344,308.5469 C550.5156,308.5469 550.3125,308.625 550.125,308.8125 C549.6719,309.2969 549.6719,309.2969 549.4844,309.3906 C549.0625,309.6563 548.375,309.7813 547.6094,309.7813 C545.5625,309.7813 544.2656,308.6875 544.2656,306.9844 L544.2656,305.8906 C544.2656,304.1094 545.5156,302.7969 547.25,302.7969 C547.8281,302.7969 548.4375,302.9531 548.9063,303.2031 C549.3906,303.4844 549.5625,303.7031 549.6563,304.1094 C549.7188,304.5156 549.75,304.6406 549.8906,304.7656 C550.0313,304.9063 550.2656,305.0156 550.4844,305.0156 C550.75,305.0156 551.0156,304.875 551.1875,304.6563 C551.2969,304.5 551.3281,304.3125 551.3281,303.8906 L551.3281,302.4688 C551.3281,302.0313 551.3125,301.9063 551.2188,301.75 C551.0625,301.4844 550.7813,301.3438 550.4844,301.3438 C550.1875,301.3438 549.9844,301.4375 549.7656,301.75 L549.5938,301.6719 Z " fill="#000000"/><text fill="#000000" font-family="sans-serif" font-size="12" lengthAdjust="spacingAndGlyphs" textLength="49" x="567.75" y="310.1543">Console</text><line style="stroke:#A80036;stroke-width:1.5;" x1="494" x2="658" y1="322" y2="322"/><rect fill="none" height="6" style="stroke:#C82930;stroke-width:1.0;" width="6" x="501" y="330"/><text fill="#000000" font-family="sans-serif" font-size="11" lengthAdjust="spacingAndGlyphs" text-decoration="underline" textLength="97" x="513" y="336.2104">console: Console</text><line style="stroke:#A80036;stroke-width:1.5;" x1="494" x2="658" y1="342.8047" y2="342.8047"/><ellipse cx="504" cy="353.8047" fill="#84BE84" rx="3" ry="3" style="stroke:#038048;stroke-width:1.0;"/><text fill="#000000" font-family="sans-serif" font-size="11" lengthAdjust="spacingAndGlyphs" text-decoration="underline" textLength="128" x="513" y="357.0151">getInstance(): Console</text><ellipse cx="504" cy="366.6094" fill="#84BE84" rx="3" ry="3" style="stroke:#038048;stroke-width:1.0;"/><text fill="#000000" font-family="sans-serif" font-size="11" lengthAdjust="spacingAndGlyphs" textLength="140" x="513" y="369.8198">readString(String): String</text><ellipse cx="504" cy="379.4141" fill="#84BE84" rx="3" ry="3" style="stroke:#038048;stroke-width:1.0;"/><text fill="#000000" font-family="sans-serif" font-size="11" lengthAdjust="spacingAndGlyphs" textLength="107" x="513" y="382.6245">readString(): String</text><ellipse cx="504" cy="392.2188" fill="#84BE84" rx="3" ry="3" style="stroke:#038048;stroke-width:1.0;"/><text fill="#000000" font-family="sans-serif" font-size="11" lengthAdjust="spacingAndGlyphs" textLength="102" x="513" y="395.4292">readInt(String): int</text><ellipse cx="504" cy="405.0234" fill="#84BE84" rx="3" ry="3" style="stroke:#038048;stroke-width:1.0;"/><text fill="#000000" font-family="sans-serif" font-size="11" lengthAdjust="spacingAndGlyphs" textLength="124" x="513" y="408.2339">readChar(String): char</text><ellipse cx="504" cy="417.8281" fill="#84BE84" rx="3" ry="3" style="stroke:#038048;stroke-width:1.0;"/><text fill="#000000" font-family="sans-serif" font-size="11" lengthAdjust="spacingAndGlyphs" textLength="46" x="513" y="421.0386">writeln()</text><ellipse cx="504" cy="430.6328" fill="#84BE84" rx="3" ry="3" style="stroke:#038048;stroke-width:1.0;"/><text fill="#000000" font-family="sans-serif" font-size="11" lengthAdjust="spacingAndGlyphs" textLength="69" x="513" y="433.8433">write(String)</text><ellipse cx="504" cy="443.4375" fill="#84BE84" rx="3" ry="3" style="stroke:#038048;stroke-width:1.0;"/><text fill="#000000" font-family="sans-serif" font-size="11" lengthAdjust="spacingAndGlyphs" textLength="79" x="513" y="446.6479">writeln(String)</text><ellipse cx="504" cy="456.2422" fill="#84BE84" rx="3" ry="3" style="stroke:#038048;stroke-width:1.0;"/><text fill="#000000" font-family="sans-serif" font-size="11" lengthAdjust="spacingAndGlyphs" textLength="60" x="513" y="459.4526">write(char)</text><rect fill="#F24D5C" height="6" style="stroke:#C82930;stroke-width:1.0;" width="6" x="501" y="466.0469"/><text fill="#000000" font-family="sans-serif" font-size="11" lengthAdjust="spacingAndGlyphs" textLength="95" x="513" y="472.2573">writeError(String)</text><!--MD5=[115031fed92a4467bd358dd9ee6729dd]
class usantatecla.utils.views.YesNoDialog--><rect codeLine="33" fill="#FEFECE" filter="url(#fjq40tyivlp2k)" height="150.4375" id="usantatecla.utils.views.YesNoDialog" style="stroke:#A80036;stroke-width:1.5;" width="179" x="486.5" y="60.5"/><ellipse cx="533.75" cy="76.5" fill="#ADD1B2" rx="11" ry="11" style="stroke:#A80036;stroke-width:1.0;"/><path d="M536.0938,72.1719 C535.1563,71.7344 534.5625,71.5938 533.6875,71.5938 C531.0625,71.5938 529.0625,73.6719 529.0625,76.3906 L529.0625,77.5156 C529.0625,80.0938 531.1719,81.9844 534.0625,81.9844 C535.2813,81.9844 536.4375,81.6875 537.1875,81.1406 C537.7656,80.7344 538.0938,80.2813 538.0938,79.8906 C538.0938,79.4375 537.7031,79.0469 537.2344,79.0469 C537.0156,79.0469 536.8125,79.125 536.625,79.3125 C536.1719,79.7969 536.1719,79.7969 535.9844,79.8906 C535.5625,80.1563 534.875,80.2813 534.1094,80.2813 C532.0625,80.2813 530.7656,79.1875 530.7656,77.4844 L530.7656,76.3906 C530.7656,74.6094 532.0156,73.2969 533.75,73.2969 C534.3281,73.2969 534.9375,73.4531 535.4063,73.7031 C535.8906,73.9844 536.0625,74.2031 536.1563,74.6094 C536.2188,75.0156 536.25,75.1406 536.3906,75.2656 C536.5313,75.4063 536.7656,75.5156 536.9844,75.5156 C537.25,75.5156 537.5156,75.375 537.6875,75.1563 C537.7969,75 537.8281,74.8125 537.8281,74.3906 L537.8281,72.9688 C537.8281,72.5313 537.8125,72.4063 537.7188,72.25 C537.5625,71.9844 537.2813,71.8438 536.9844,71.8438 C536.6875,71.8438 536.4844,71.9375 536.2656,72.25 L536.0938,72.1719 Z " fill="#000000"/><text fill="#000000" font-family="sans-serif" font-size="12" lengthAdjust="spacingAndGlyphs" textLength="76" x="554.25" y="80.6543">YesNoDialog</text><line style="stroke:#A80036;stroke-width:1.5;" x1="487.5" x2="664.5" y1="92.5" y2="92.5"/><rect fill="none" height="6" style="stroke:#C82930;stroke-width:1.0;" width="6" x="494.5" y="100.5"/><text fill="#000000" font-family="sans-serif" font-size="11" lengthAdjust="spacingAndGlyphs" text-decoration="underline" textLength="97" x="506.5" y="106.7104">AFIRMATIVE: char</text><rect fill="none" height="6" style="stroke:#C82930;stroke-width:1.0;" width="6" x="494.5" y="113.3047"/><text fill="#000000" font-family="sans-serif" font-size="11" lengthAdjust="spacingAndGlyphs" text-decoration="underline" textLength="88" x="506.5" y="119.5151">NEGATIVE: char</text><rect fill="none" height="6" style="stroke:#C82930;stroke-width:1.0;" width="6" x="494.5" y="126.1094"/><text fill="#000000" font-family="sans-serif" font-size="11" lengthAdjust="spacingAndGlyphs" text-decoration="underline" textLength="99" x="506.5" y="132.3198">QUESTION: String</text><rect fill="none" height="6" style="stroke:#C82930;stroke-width:1.0;" width="6" x="494.5" y="138.9141"/><text fill="#000000" font-family="sans-serif" font-size="11" lengthAdjust="spacingAndGlyphs" text-decoration="underline" textLength="96" x="506.5" y="145.1245">MESSAGE: String</text><line style="stroke:#A80036;stroke-width:1.5;" x1="487.5" x2="664.5" y1="151.7188" y2="151.7188"/><ellipse cx="497.5" cy="162.7188" fill="#84BE84" rx="3" ry="3" style="stroke:#038048;stroke-width:1.0;"/><text fill="#000000" font-family="sans-serif" font-size="11" lengthAdjust="spacingAndGlyphs" textLength="80" x="506.5" y="165.9292">YesNoDialog()</text><ellipse cx="497.5" cy="175.5234" fill="#84BE84" rx="3" ry="3" style="stroke:#038048;stroke-width:1.0;"/><text fill="#000000" font-family="sans-serif" font-size="11" lengthAdjust="spacingAndGlyphs" textLength="120" x="506.5" y="178.7339">read(String): boolean</text><rect fill="#F24D5C" height="6" style="stroke:#C82930;stroke-width:1.0;" width="6" x="494.5" y="185.3281"/><text fill="#000000" font-family="sans-serif" font-size="11" lengthAdjust="spacingAndGlyphs" text-decoration="underline" textLength="153" x="506.5" y="191.5386">isAfirmative(char): boolean</text><rect fill="#F24D5C" height="6" style="stroke:#C82930;stroke-width:1.0;" width="6" x="494.5" y="198.1328"/><text fill="#000000" font-family="sans-serif" font-size="11" lengthAdjust="spacingAndGlyphs" text-decoration="underline" textLength="146" x="506.5" y="204.3433">isNegative(char): boolean</text><!--MD5=[b0b725b3db639de93c4e5e8714f3aefc]
class usantatecla.utils.models.ClosedInterval--><rect codeLine="45" fill="#FEFECE" filter="url(#fjq40tyivlp2k)" height="99.2188" id="usantatecla.utils.models.ClosedInterval" style="stroke:#A80036;stroke-width:1.5;" width="151" x="300.5" y="86"/><ellipse cx="330.35" cy="102" fill="#ADD1B2" rx="11" ry="11" style="stroke:#A80036;stroke-width:1.0;"/><path d="M332.6938,97.6719 C331.7563,97.2344 331.1625,97.0938 330.2875,97.0938 C327.6625,97.0938 325.6625,99.1719 325.6625,101.8906 L325.6625,103.0156 C325.6625,105.5938 327.7719,107.4844 330.6625,107.4844 C331.8813,107.4844 333.0375,107.1875 333.7875,106.6406 C334.3656,106.2344 334.6938,105.7813 334.6938,105.3906 C334.6938,104.9375 334.3031,104.5469 333.8344,104.5469 C333.6156,104.5469 333.4125,104.625 333.225,104.8125 C332.7719,105.2969 332.7719,105.2969 332.5844,105.3906 C332.1625,105.6563 331.475,105.7813 330.7094,105.7813 C328.6625,105.7813 327.3656,104.6875 327.3656,102.9844 L327.3656,101.8906 C327.3656,100.1094 328.6156,98.7969 330.35,98.7969 C330.9281,98.7969 331.5375,98.9531 332.0063,99.2031 C332.4906,99.4844 332.6625,99.7031 332.7563,100.1094 C332.8188,100.5156 332.85,100.6406 332.9906,100.7656 C333.1313,100.9063 333.3656,101.0156 333.5844,101.0156 C333.85,101.0156 334.1156,100.875 334.2875,100.6563 C334.3969,100.5 334.4281,100.3125 334.4281,99.8906 L334.4281,98.4688 C334.4281,98.0313 334.4125,97.9063 334.3188,97.75 C334.1625,97.4844 333.8813,97.3438 333.5844,97.3438 C333.2875,97.3438 333.0844,97.4375 332.8656,97.75 L332.6938,97.6719 Z " fill="#000000"/><text fill="#000000" font-family="sans-serif" font-size="12" lengthAdjust="spacingAndGlyphs" textLength="86" x="347.65" y="106.1543">ClosedInterval</text><line style="stroke:#A80036;stroke-width:1.5;" x1="301.5" x2="450.5" y1="118" y2="118"/><rect fill="none" height="6" style="stroke:#C82930;stroke-width:1.0;" width="6" x="308.5" y="126"/><text fill="#000000" font-family="sans-serif" font-size="11" lengthAdjust="spacingAndGlyphs" textLength="42" x="320.5" y="132.2104">min: int</text><rect fill="none" height="6" style="stroke:#C82930;stroke-width:1.0;" width="6" x="308.5" y="138.8047"/><text fill="#000000" font-family="sans-serif" font-size="11" lengthAdjust="spacingAndGlyphs" textLength="46" x="320.5" y="145.0151">max: int</text><line style="stroke:#A80036;stroke-width:1.5;" x1="301.5" x2="450.5" y1="151.6094" y2="151.6094"/><ellipse cx="311.5" cy="162.6094" fill="#84BE84" rx="3" ry="3" style="stroke:#038048;stroke-width:1.0;"/><text fill="#000000" font-family="sans-serif" font-size="11" lengthAdjust="spacingAndGlyphs" textLength="125" x="320.5" y="165.8198">ClosedInterval(int, int)</text><ellipse cx="311.5" cy="175.4141" fill="#84BE84" rx="3" ry="3" style="stroke:#038048;stroke-width:1.0;"/><text fill="#000000" font-family="sans-serif" font-size="11" lengthAdjust="spacingAndGlyphs" textLength="122" x="320.5" y="178.6245">includes(int): boolean</text><!--MD5=[2ff24773f9ecf34307231bd9c286b014]
class usantatecla.utils.Command--><rect codeLine="52" fill="#FEFECE" filter="url(#fjq40tyivlp2k)" height="112.0234" id="usantatecla.utils.Command" style="stroke:#A80036;stroke-width:1.5;" width="131" x="83.5" y="328.5"/><ellipse cx="115.15" cy="344.5" fill="#A9DCDF" rx="11" ry="11" style="stroke:#A80036;stroke-width:1.0;"/><path d="M117.2281,346.3125 L117.6188,347.2969 L117.2281,347.2969 C116.775,347.2969 116.6656,347.3125 116.5094,347.4219 C116.2594,347.5781 116.1031,347.8594 116.1031,348.1563 C116.1031,348.4219 116.2438,348.6719 116.4625,348.8281 C116.6031,348.9531 116.8063,349 117.2281,349 L119.5875,349 C119.9469,349 120.1656,348.9688 120.3063,348.875 C120.5563,348.7344 120.7125,348.4375 120.7125,348.1563 C120.7125,347.875 120.5719,347.625 120.3531,347.4688 C120.1813,347.3281 120.025,347.2969 119.5563,347.2969 L116.1656,339.0938 L112.4938,339.0938 C112.0406,339.0938 111.9156,339.1094 111.7594,339.2031 C111.5094,339.375 111.3531,339.6563 111.3531,339.9375 C111.3531,340.2188 111.4938,340.4688 111.7125,340.6406 C111.8844,340.75 112.0563,340.7813 112.4938,340.7813 L113.5719,340.7813 L110.9313,347.2969 C110.5094,347.2969 110.3531,347.3125 110.1969,347.4219 C109.9469,347.5781 109.7906,347.8594 109.7906,348.1563 C109.7906,348.7188 110.1656,349 110.9156,349 L113.1813,349 C113.5406,349 113.7594,348.9688 113.8844,348.875 C114.15,348.7344 114.2906,348.4375 114.2906,348.1563 C114.2906,347.875 114.1656,347.625 113.9469,347.4531 C113.775,347.3281 113.6344,347.2969 113.1813,347.2969 L112.7906,347.2969 L113.1813,346.3125 L117.2281,346.3125 Z M116.525,344.6094 L113.8531,344.6094 L115.1969,341.3438 L116.525,344.6094 Z " fill="#000000"/><text fill="#000000" font-family="sans-serif" font-size="12" font-style="italic" lengthAdjust="spacingAndGlyphs" textLength="62" x="132.85" y="348.6543">Command</text><line style="stroke:#A80036;stroke-width:1.5;" x1="84.5" x2="213.5" y1="360.5" y2="360.5"/><polygon fill="none" points="94.5,366.5,98.5,370.5,94.5,374.5,90.5,370.5" style="stroke:#B38D22;stroke-width:1.0;"/><text fill="#000000" font-family="sans-serif" font-size="11" lengthAdjust="spacingAndGlyphs" textLength="62" x="103.5" y="374.7104">title: String</text><line style="stroke:#A80036;stroke-width:1.5;" x1="84.5" x2="213.5" y1="381.3047" y2="381.3047"/><polygon fill="#FFFF44" points="94.5,387.3047,98.5,391.3047,94.5,395.3047,90.5,391.3047" style="stroke:#B38D22;stroke-width:1.0;"/><text fill="#000000" font-family="sans-serif" font-size="11" lengthAdjust="spacingAndGlyphs" textLength="99" x="103.5" y="395.5151">Command(String)</text><polygon fill="#FFFF44" points="94.5,400.1094,98.5,404.1094,94.5,408.1094,90.5,404.1094" style="stroke:#B38D22;stroke-width:1.0;"/><text fill="#000000" font-family="sans-serif" font-size="11" font-style="italic" lengthAdjust="spacingAndGlyphs" textLength="53" x="103.5" y="408.3198">execute()</text><polygon fill="#FFFF44" points="94.5,412.9141,98.5,416.9141,94.5,420.9141,90.5,416.9141" style="stroke:#B38D22;stroke-width:1.0;"/><text fill="#000000" font-family="sans-serif" font-size="11" font-style="italic" lengthAdjust="spacingAndGlyphs" textLength="105" x="103.5" y="421.1245">isActive(): boolean</text><polygon fill="#4177AF" points="94.5,426.7188,90.5,432.7188,98.5,432.7188" style="stroke:#1963A0;stroke-width:1.0;"/><text fill="#000000" font-family="sans-serif" font-size="11" lengthAdjust="spacingAndGlyphs" textLength="92" x="103.5" y="433.9292">getTitle(): String</text><!--MD5=[400f0a551c807dfb779cbf26cfa29e33]
class usantatecla.utils.Menu--><rect codeLine="60" fill="#FEFECE" filter="url(#fjq40tyivlp2k)" height="112.0234" id="usantatecla.utils.Menu" style="stroke:#A80036;stroke-width:1.5;" width="233" x="32.5" y="79.5"/><ellipse cx="128.25" cy="95.5" fill="#A9DCDF" rx="11" ry="11" style="stroke:#A80036;stroke-width:1.0;"/><path d="M130.3281,97.3125 L130.7188,98.2969 L130.3281,98.2969 C129.875,98.2969 129.7656,98.3125 129.6094,98.4219 C129.3594,98.5781 129.2031,98.8594 129.2031,99.1563 C129.2031,99.4219 129.3438,99.6719 129.5625,99.8281 C129.7031,99.9531 129.9063,100 130.3281,100 L132.6875,100 C133.0469,100 133.2656,99.9688 133.4063,99.875 C133.6563,99.7344 133.8125,99.4375 133.8125,99.1563 C133.8125,98.875 133.6719,98.625 133.4531,98.4688 C133.2813,98.3281 133.125,98.2969 132.6563,98.2969 L129.2656,90.0938 L125.5938,90.0938 C125.1406,90.0938 125.0156,90.1094 124.8594,90.2031 C124.6094,90.375 124.4531,90.6563 124.4531,90.9375 C124.4531,91.2188 124.5938,91.4688 124.8125,91.6406 C124.9844,91.75 125.1563,91.7813 125.5938,91.7813 L126.6719,91.7813 L124.0313,98.2969 C123.6094,98.2969 123.4531,98.3125 123.2969,98.4219 C123.0469,98.5781 122.8906,98.8594 122.8906,99.1563 C122.8906,99.7188 123.2656,100 124.0156,100 L126.2813,100 C126.6406,100 126.8594,99.9688 126.9844,99.875 C127.25,99.7344 127.3906,99.4375 127.3906,99.1563 C127.3906,98.875 127.2656,98.625 127.0469,98.4531 C126.875,98.3281 126.7344,98.2969 126.2813,98.2969 L125.8906,98.2969 L126.2813,97.3125 L130.3281,97.3125 Z M129.625,95.6094 L126.9531,95.6094 L128.2969,92.3438 L129.625,95.6094 Z " fill="#000000"/><text fill="#000000" font-family="sans-serif" font-size="12" font-style="italic" lengthAdjust="spacingAndGlyphs" textLength="33" x="148.75" y="99.6543">Menu</text><line style="stroke:#A80036;stroke-width:1.5;" x1="33.5" x2="264.5" y1="111.5" y2="111.5"/><rect fill="none" height="6" style="stroke:#C82930;stroke-width:1.0;" width="6" x="40.5" y="119.5"/><text fill="#000000" font-family="sans-serif" font-size="11" lengthAdjust="spacingAndGlyphs" text-decoration="underline" textLength="82" x="52.5" y="125.7104">OPTION: String</text><rect fill="none" height="6" style="stroke:#C82930;stroke-width:1.0;" width="6" x="40.5" y="132.3047"/><text fill="#000000" font-family="sans-serif" font-size="11" lengthAdjust="spacingAndGlyphs" textLength="207" x="52.5" y="138.5151">commandList: ArrayList&lt;Command&gt;</text><line style="stroke:#A80036;stroke-width:1.5;" x1="33.5" x2="264.5" y1="145.1094" y2="145.1094"/><ellipse cx="43.5" cy="156.1094" fill="#84BE84" rx="3" ry="3" style="stroke:#038048;stroke-width:1.0;"/><text fill="#000000" font-family="sans-serif" font-size="11" lengthAdjust="spacingAndGlyphs" textLength="39" x="52.5" y="159.3198">Menu()</text><ellipse cx="43.5" cy="168.9141" fill="#84BE84" rx="3" ry="3" style="stroke:#038048;stroke-width:1.0;"/><text fill="#000000" font-family="sans-serif" font-size="11" lengthAdjust="spacingAndGlyphs" textLength="56" x="52.5" y="172.1245">execute()</text><polygon fill="#FFFF44" points="43.5,176.7188,47.5,180.7188,43.5,184.7188,39.5,180.7188" style="stroke:#B38D22;stroke-width:1.0;"/><text fill="#000000" font-family="sans-serif" font-size="11" lengthAdjust="spacingAndGlyphs" textLength="145" x="52.5" y="184.9292">addCommand(Command)</text><!--MD5=[ee4f8f5c2b5eaa5df2ba8c0614cd4e83]
class BufferedReader--><rect codeLine="1" fill="#FEFECE" filter="url(#fjq40tyivlp2k)" height="48" id="BufferedReader" style="stroke:#A80036;stroke-width:1.5;" width="168" x="492" y="539"/><ellipse cx="507" cy="555" fill="#ADD1B2" rx="11" ry="11" style="stroke:#A80036;stroke-width:1.0;"/><path d="M509.3438,550.6719 C508.4063,550.2344 507.8125,550.0938 506.9375,550.0938 C504.3125,550.0938 502.3125,552.1719 502.3125,554.8906 L502.3125,556.0156 C502.3125,558.5938 504.4219,560.4844 507.3125,560.4844 C508.5313,560.4844 509.6875,560.1875 510.4375,559.6406 C511.0156,559.2344 511.3438,558.7813 511.3438,558.3906 C511.3438,557.9375 510.9531,557.5469 510.4844,557.5469 C510.2656,557.5469 510.0625,557.625 509.875,557.8125 C509.4219,558.2969 509.4219,558.2969 509.2344,558.3906 C508.8125,558.6563 508.125,558.7813 507.3594,558.7813 C505.3125,558.7813 504.0156,557.6875 504.0156,555.9844 L504.0156,554.8906 C504.0156,553.1094 505.2656,551.7969 507,551.7969 C507.5781,551.7969 508.1875,551.9531 508.6563,552.2031 C509.1406,552.4844 509.3125,552.7031 509.4063,553.1094 C509.4688,553.5156 509.5,553.6406 509.6406,553.7656 C509.7813,553.9063 510.0156,554.0156 510.2344,554.0156 C510.5,554.0156 510.7656,553.875 510.9375,553.6563 C511.0469,553.5 511.0781,553.3125 511.0781,552.8906 L511.0781,551.4688 C511.0781,551.0313 511.0625,550.9063 510.9688,550.75 C510.8125,550.4844 510.5313,550.3438 510.2344,550.3438 C509.9375,550.3438 509.7344,550.4375 509.5156,550.75 L509.3438,550.6719 Z " fill="#000000"/><text fill="#000000" font-family="sans-serif" font-size="12" lengthAdjust="spacingAndGlyphs" textLength="136" x="521" y="559.1543">java.io.BufferedReader</text><line style="stroke:#A80036;stroke-width:1.5;" x1="493" x2="659" y1="571" y2="571"/><line style="stroke:#A80036;stroke-width:1.5;" x1="493" x2="659" y1="579" y2="579"/><!--MD5=[ab8871ed637f40707b866ba6597734bc]
class ArrayList--><rect codeLine="2" fill="#FEFECE" filter="url(#fjq40tyivlp2k)" height="48" id="ArrayList" style="stroke:#A80036;stroke-width:1.5;" width="131" x="916.5" y="360.5"/><ellipse cx="931.5" cy="376.5" fill="#ADD1B2" rx="11" ry="11" style="stroke:#A80036;stroke-width:1.0;"/><path d="M933.8438,372.1719 C932.9063,371.7344 932.3125,371.5938 931.4375,371.5938 C928.8125,371.5938 926.8125,373.6719 926.8125,376.3906 L926.8125,377.5156 C926.8125,380.0938 928.9219,381.9844 931.8125,381.9844 C933.0313,381.9844 934.1875,381.6875 934.9375,381.1406 C935.5156,380.7344 935.8438,380.2813 935.8438,379.8906 C935.8438,379.4375 935.4531,379.0469 934.9844,379.0469 C934.7656,379.0469 934.5625,379.125 934.375,379.3125 C933.9219,379.7969 933.9219,379.7969 933.7344,379.8906 C933.3125,380.1563 932.625,380.2813 931.8594,380.2813 C929.8125,380.2813 928.5156,379.1875 928.5156,377.4844 L928.5156,376.3906 C928.5156,374.6094 929.7656,373.2969 931.5,373.2969 C932.0781,373.2969 932.6875,373.4531 933.1563,373.7031 C933.6406,373.9844 933.8125,374.2031 933.9063,374.6094 C933.9688,375.0156 934,375.1406 934.1406,375.2656 C934.2813,375.4063 934.5156,375.5156 934.7344,375.5156 C935,375.5156 935.2656,375.375 935.4375,375.1563 C935.5469,375 935.5781,374.8125 935.5781,374.3906 L935.5781,372.9688 C935.5781,372.5313 935.5625,372.4063 935.4688,372.25 C935.3125,371.9844 935.0313,371.8438 934.7344,371.8438 C934.4375,371.8438 934.2344,371.9375 934.0156,372.25 L933.8438,372.1719 Z " fill="#000000"/><text fill="#000000" font-family="sans-serif" font-size="12" lengthAdjust="spacingAndGlyphs" textLength="99" x="945.5" y="380.6543">java.util.ArrayList</text><line style="stroke:#A80036;stroke-width:1.5;" x1="917.5" x2="1046.5" y1="392.5" y2="392.5"/><line style="stroke:#A80036;stroke-width:1.5;" x1="917.5" x2="1046.5" y1="400.5" y2="400.5"/><!--MD5=[14426ff67e875e6661b88179367ed759]
link usantatecla.utils.views.Console to BufferedReader--><path codeLine="31" d="M576,491.176 C576,491.176 576,515.719 576,525.7523 " fill="none" id="usantatecla.utils.views.Console-BufferedReader" style="stroke:#A80036;stroke-width:1.0;"/><polygon fill="#A80036" points="576,538.9123,580,529.9123,576,533.9123,572,529.9123,576,538.9123" style="stroke:#A80036;stroke-width:1.0;"/><line style="stroke:#A80036;stroke-width:1.0;" x1="576" x2="576" y1="533.9123" y2="525.9123"/><polygon fill="#A80036" points="576,479.176,572,485.176,576,491.176,580,485.176,576,479.176" style="stroke:#A80036;stroke-width:1.0;"/><!--MD5=[bef9209ee563bd0cab945b38e8120dbd]
link usantatecla.utils.views.YesNoDialog to usantatecla.utils.views.Console--><path codeLine="43" d="M576,210.608 C576,233.824 576,259.829 576,284.478 " fill="none" id="usantatecla.utils.views.YesNoDialog-to-usantatecla.utils.views.Console" style="stroke:#A80036;stroke-width:1.0;stroke-dasharray:7.0,7.0;"/><polygon fill="#A80036" points="576,289.715,580,280.715,576,284.715,572,280.715,576,289.715" style="stroke:#A80036;stroke-width:1.0;"/><!--MD5=[9e6e8c5929d85eb8cb0f6a6af7941ad4]
link usantatecla.utils.Menu to ArrayList--><path codeLine="67" d="M223.5755,198.4216 C223.5755,198.4216 262.736,222.532 283,230 C541.52,325.271 654.846,164.269 900,290 C925.774,303.218 947.053,328.26 961.471,349.103 " fill="none" id="usantatecla.utils.Menu-ArrayList" style="stroke:#A80036;stroke-width:1.0;"/><polygon fill="#A80036" points="968.76,360.149,967.1421,350.4339,966.0063,355.9756,960.4646,354.8398,968.76,360.149" style="stroke:#A80036;stroke-width:1.0;"/><line style="stroke:#A80036;stroke-width:1.0;" x1="966.0063" x2="961.6" y1="355.9756" y2="349.298"/><polygon fill="#A80036" points="213.712,191.587,216.3656,198.2921,223.5755,198.4216,220.9219,191.7164,213.712,191.587" style="stroke:#A80036;stroke-width:1.0;"/><!--MD5=[9b3e67be5feb6d76605675bf85f106ce]
link usantatecla.utils.Menu to usantatecla.utils.Command--><path codeLine="68" d="M149,203.624 C149,203.624 149,280.47 149,314.84 " fill="none" id="usantatecla.utils.Menu-usantatecla.utils.Command" style="stroke:#A80036;stroke-width:1.0;"/><polygon fill="#A80036" points="149,328.118,153,319.118,149,323.118,145,319.118,149,328.118" style="stroke:#A80036;stroke-width:1.0;"/><line style="stroke:#A80036;stroke-width:1.0;" x1="149" x2="149" y1="323.118" y2="315.118"/><polygon fill="#A80036" points="149,191.624,145,197.624,149,203.624,153,197.624,149,191.624" style="stroke:#A80036;stroke-width:1.0;"/><!--MD5=[806c1efb804bcc6492b367da7394f5e5]
@startuml
class BufferedReader as "java.io.BufferedReader"{}
class ArrayList as "java.util.ArrayList"{}

enum usantatecla.utils.views.ColorCode{
    + RED
    + BLUE
    + YELLOW
    + GREEN
    + ORANGE
    + PURPLE
    + RESET_COLOR
    - color: String
    ~ ColorCode(String)
    + getColor(): String
    + {static} getColorByIndex(int): String
}

class usantatecla.utils.views.Console{
    - {static} console: Console
    + {static} getInstance(): Console
    + readString(String): String
    + readString(): String
    + readInt(String): int
    + readChar(String): char
    + writeln()
    + write(String)
    + writeln(String)
    + write(char)
    - writeError(String)
}
usantatecla.utils.views.Console *-down-> BufferedReader

class  usantatecla.utils.views.YesNoDialog{
    - {static} AFIRMATIVE: char
    - {static} NEGATIVE: char
    - {static} QUESTION: String
    - {static} MESSAGE: String
    + YesNoDialog()
    + read(String): boolean
    - {static} isAfirmative(char): boolean
    - {static} isNegative(char): boolean
}
usantatecla.utils.views.YesNoDialog ..> usantatecla.utils.views.Console

class  usantatecla.utils.models.ClosedInterval{
    - min: int
    - max: int
    + ClosedInterval(int, int)
    + includes(int): boolean
}

abstract  usantatecla.utils.Command{
    # title: String
    # Command(String)
    # {abstract} execute()
    # {abstract} isActive(): boolean
    ~ getTitle(): String
}

abstract  usantatecla.utils.Menu{
    - {static} OPTION: String
    - commandList: ArrayList<Command>
    + Menu()
    + execute()
    # addCommand(Command)
}
usantatecla.utils.Menu *-down-> ArrayList
usantatecla.utils.Menu *-down-> usantatecla.utils.Command
@enduml

PlantUML version 1.2020.23beta3(Unknown compile time)
(GPL source distribution)
Java Runtime: Java(TM) SE Runtime Environment
JVM: Java HotSpot(TM) 64-Bit Server VM
Default Encoding: UTF-8
Language: en
Country: US
--></g></svg>