<?xml version="1.0" encoding="UTF-8" standalone="no"?><svg xmlns="http://www.w3.org/2000/svg" xmlns:xlink="http://www.w3.org/1999/xlink" contentScriptType="application/ecmascript" contentStyleType="text/css" height="1014px" preserveAspectRatio="none" style="width:1191px;height:1014px;" version="1.1" viewBox="0 0 1191 1014" width="1191px" zoomAndPan="magnify"><defs><filter height="300%" id="f1sa9m26vedqxc" width="300%" x="-1" y="-1"><feGaussianBlur result="blurOut" stdDeviation="2.0"/><feColorMatrix in="blurOut" result="blurOut2" type="matrix" values="0 0 0 0 0 0 0 0 0 0 0 0 0 0 0 0 0 0 .4 0"/><feOffset dx="4.0" dy="4.0" in="blurOut2" result="blurOut3"/><feBlend in="SourceGraphic" in2="blurOut3" mode="normal"/></filter></defs><g><!--MD5=[45607799a901819e6cc4b6d8cd00ce6c]
cluster usantatecla.mastermind.controllers--><polygon fill="#FFFFFF" filter="url(#f1sa9m26vedqxc)" points="53.9785,6,354.9785,6,361.9785,28.2969,944.9785,28.2969,944.9785,889,53.9785,889,53.9785,6" style="stroke:#000000;stroke-width:1.5;"/><line style="stroke:#000000;stroke-width:1.5;" x1="53.9785" x2="361.9785" y1="28.2969" y2="28.2969"/><text fill="#000000" font-family="sans-serif" font-size="14" font-weight="bold" lengthAdjust="spacingAndGlyphs" textLength="295" x="57.9785" y="20.9951">usantatecla.mastermind.controllers</text><!--MD5=[dc742e7f47788fccadc22474665bada4]
class usantatecla.mastermind.controllers.AcceptorController--><rect codeLine="7" fill="#FEFECE" filter="url(#f1sa9m26vedqxc)" height="60.8047" id="usantatecla.mastermind.controllers.AcceptorController" style="stroke:#A80036;stroke-width:1.5;" width="168" x="402.9785" y="178.5"/><ellipse cx="428.7785" cy="194.5" fill="#B4A7E5" rx="11" ry="11" style="stroke:#A80036;stroke-width:1.0;"/><path d="M429.7316,191.2813 L431.4504,191.2813 C431.841,191.2813 432.0285,191.25 432.1535,191.1719 C432.4191,191.0156 432.5598,190.7344 432.5598,190.4375 C432.5598,190.1719 432.4504,189.9063 432.216,189.7344 C432.0441,189.625 431.9035,189.5938 431.4504,189.5938 L426.3098,189.5938 C425.8723,189.5938 425.7473,189.6094 425.591,189.7031 C425.341,189.8594 425.1848,190.1563 425.1848,190.4375 C425.1848,190.7188 425.3254,190.9688 425.5441,191.1406 C425.7004,191.25 425.8879,191.2813 426.3098,191.2813 L428.0285,191.2813 L428.0285,197.7969 L426.3098,197.7969 C425.8723,197.7969 425.7473,197.8125 425.591,197.9219 C425.341,198.0781 425.1848,198.3594 425.1848,198.6563 C425.1848,198.9063 425.3254,199.1719 425.5441,199.3281 C425.7004,199.4531 425.9035,199.5 426.3098,199.5 L431.4504,199.5 C432.2004,199.5 432.5598,199.2188 432.5598,198.6563 C432.5598,198.375 432.4504,198.125 432.216,197.9531 C432.0441,197.8281 431.9035,197.7969 431.4504,197.7969 L429.7316,197.7969 L429.7316,191.2813 Z " fill="#000000"/><text fill="#000000" font-family="sans-serif" font-size="12" font-style="italic" lengthAdjust="spacingAndGlyphs" textLength="112" x="445.1785" y="198.6543">AcceptorController</text><line style="stroke:#A80036;stroke-width:1.5;" x1="403.9785" x2="569.9785" y1="210.5" y2="210.5"/><line style="stroke:#A80036;stroke-width:1.5;" x1="403.9785" x2="569.9785" y1="218.5" y2="218.5"/><ellipse cx="413.9785" cy="229.5" fill="#84BE84" rx="3" ry="3" style="stroke:#038048;stroke-width:1.0;"/><text fill="#000000" font-family="sans-serif" font-size="11" lengthAdjust="spacingAndGlyphs" textLength="142" x="422.9785" y="232.7104">accept(ControllersVisitor)</text><!--MD5=[877f7580c8bbbe21e5afc74b6ea1e072]
class usantatecla.mastermind.controllers.ControllersVisitor--><rect codeLine="18" fill="#FEFECE" filter="url(#f1sa9m26vedqxc)" height="86.4141" id="usantatecla.mastermind.controllers.ControllersVisitor" style="stroke:#A80036;stroke-width:1.5;" width="159" x="291.4785" y="303"/><ellipse cx="318.1785" cy="319" fill="#B4A7E5" rx="11" ry="11" style="stroke:#A80036;stroke-width:1.0;"/><path d="M319.1316,315.7813 L320.8504,315.7813 C321.241,315.7813 321.4285,315.75 321.5535,315.6719 C321.8191,315.5156 321.9598,315.2344 321.9598,314.9375 C321.9598,314.6719 321.8504,314.4063 321.616,314.2344 C321.4441,314.125 321.3035,314.0938 320.8504,314.0938 L315.7098,314.0938 C315.2723,314.0938 315.1473,314.1094 314.991,314.2031 C314.741,314.3594 314.5848,314.6563 314.5848,314.9375 C314.5848,315.2188 314.7254,315.4688 314.9441,315.6406 C315.1004,315.75 315.2879,315.7813 315.7098,315.7813 L317.4285,315.7813 L317.4285,322.2969 L315.7098,322.2969 C315.2723,322.2969 315.1473,322.3125 314.991,322.4219 C314.741,322.5781 314.5848,322.8594 314.5848,323.1563 C314.5848,323.4063 314.7254,323.6719 314.9441,323.8281 C315.1004,323.9531 315.3035,324 315.7098,324 L320.8504,324 C321.6004,324 321.9598,323.7188 321.9598,323.1563 C321.9598,322.875 321.8504,322.625 321.616,322.4531 C321.4441,322.3281 321.3035,322.2969 320.8504,322.2969 L319.1316,322.2969 L319.1316,315.7813 Z " fill="#000000"/><text fill="#000000" font-family="sans-serif" font-size="12" font-style="italic" lengthAdjust="spacingAndGlyphs" textLength="101" x="334.7785" y="323.1543">ControllersVisitor</text><line style="stroke:#A80036;stroke-width:1.5;" x1="292.4785" x2="449.4785" y1="335" y2="335"/><line style="stroke:#A80036;stroke-width:1.5;" x1="292.4785" x2="449.4785" y1="343" y2="343"/><polygon fill="#4177AF" points="302.4785,350,298.4785,356,306.4785,356" style="stroke:#1963A0;stroke-width:1.0;"/><text fill="#000000" font-family="sans-serif" font-size="11" lengthAdjust="spacingAndGlyphs" textLength="113" x="311.4785" y="357.2104">visit(StartController)</text><polygon fill="#4177AF" points="302.4785,362.8047,298.4785,368.8047,306.4785,368.8047" style="stroke:#1963A0;stroke-width:1.0;"/><text fill="#000000" font-family="sans-serif" font-size="11" lengthAdjust="spacingAndGlyphs" textLength="109" x="311.4785" y="370.0151">visit(PlayController)</text><polygon fill="#4177AF" points="302.4785,375.6094,298.4785,381.6094,306.4785,381.6094" style="stroke:#1963A0;stroke-width:1.0;"/><text fill="#000000" font-family="sans-serif" font-size="11" lengthAdjust="spacingAndGlyphs" textLength="133" x="311.4785" y="382.8198">visit(ResumeController)</text><!--MD5=[e0d21a3c8ca66756a771586930837509]
class usantatecla.mastermind.controllers.Controller--><rect codeLine="12" fill="#FEFECE" filter="url(#f1sa9m26vedqxc)" height="73.6094" id="usantatecla.mastermind.controllers.Controller" style="stroke:#A80036;stroke-width:1.5;" width="134" x="489.9785" y="519"/><ellipse cx="524.3285" cy="535" fill="#ADD1B2" rx="11" ry="11" style="stroke:#A80036;stroke-width:1.0;"/><path d="M526.6723,530.6719 C525.7348,530.2344 525.141,530.0938 524.266,530.0938 C521.641,530.0938 519.641,532.1719 519.641,534.8906 L519.641,536.0156 C519.641,538.5938 521.7504,540.4844 524.641,540.4844 C525.8598,540.4844 527.016,540.1875 527.766,539.6406 C528.3441,539.2344 528.6723,538.7813 528.6723,538.3906 C528.6723,537.9375 528.2816,537.5469 527.8129,537.5469 C527.5941,537.5469 527.391,537.625 527.2035,537.8125 C526.7504,538.2969 526.7504,538.2969 526.5629,538.3906 C526.141,538.6563 525.4535,538.7813 524.6879,538.7813 C522.641,538.7813 521.3441,537.6875 521.3441,535.9844 L521.3441,534.8906 C521.3441,533.1094 522.5941,531.7969 524.3285,531.7969 C524.9066,531.7969 525.516,531.9531 525.9848,532.2031 C526.4691,532.4844 526.641,532.7031 526.7348,533.1094 C526.7973,533.5156 526.8285,533.6406 526.9691,533.7656 C527.1098,533.9063 527.3441,534.0156 527.5629,534.0156 C527.8285,534.0156 528.0941,533.875 528.266,533.6563 C528.3754,533.5 528.4066,533.3125 528.4066,532.8906 L528.4066,531.4688 C528.4066,531.0313 528.391,530.9063 528.2973,530.75 C528.141,530.4844 527.8598,530.3438 527.5629,530.3438 C527.266,530.3438 527.0629,530.4375 526.8441,530.75 L526.6723,530.6719 Z " fill="#000000"/><text fill="#000000" font-family="sans-serif" font-size="12" lengthAdjust="spacingAndGlyphs" textLength="59" x="542.6285" y="539.1543">Controller</text><line style="stroke:#A80036;stroke-width:1.5;" x1="490.9785" x2="622.9785" y1="551" y2="551"/><line style="stroke:#A80036;stroke-width:1.5;" x1="490.9785" x2="622.9785" y1="559" y2="559"/><polygon fill="#4177AF" points="500.9785,566,496.9785,572,504.9785,572" style="stroke:#1963A0;stroke-width:1.0;"/><text fill="#000000" font-family="sans-serif" font-size="11" lengthAdjust="spacingAndGlyphs" textLength="108" x="509.9785" y="573.2104">Controller(Session)</text><ellipse cx="500.9785" cy="582.8047" fill="#84BE84" rx="3" ry="3" style="stroke:#038048;stroke-width:1.0;"/><text fill="#000000" font-family="sans-serif" font-size="11" lengthAdjust="spacingAndGlyphs" textLength="80" x="509.9785" y="586.0151">getWidth(): int</text><!--MD5=[c20948aa6f904689435480ad9a30530a]
class usantatecla.mastermind.controllers.StartController--><rect codeLine="92" fill="#FEFECE" filter="url(#f1sa9m26vedqxc)" height="86.4141" id="usantatecla.mastermind.controllers.StartController" style="stroke:#A80036;stroke-width:1.5;" width="168" x="286.9785" y="513"/><ellipse cx="324.0285" cy="529" fill="#ADD1B2" rx="11" ry="11" style="stroke:#A80036;stroke-width:1.0;"/><path d="M326.3723,524.6719 C325.4348,524.2344 324.841,524.0938 323.966,524.0938 C321.341,524.0938 319.341,526.1719 319.341,528.8906 L319.341,530.0156 C319.341,532.5938 321.4504,534.4844 324.341,534.4844 C325.5598,534.4844 326.716,534.1875 327.466,533.6406 C328.0441,533.2344 328.3723,532.7813 328.3723,532.3906 C328.3723,531.9375 327.9816,531.5469 327.5129,531.5469 C327.2941,531.5469 327.091,531.625 326.9035,531.8125 C326.4504,532.2969 326.4504,532.2969 326.2629,532.3906 C325.841,532.6563 325.1535,532.7813 324.3879,532.7813 C322.341,532.7813 321.0441,531.6875 321.0441,529.9844 L321.0441,528.8906 C321.0441,527.1094 322.2941,525.7969 324.0285,525.7969 C324.6066,525.7969 325.216,525.9531 325.6848,526.2031 C326.1691,526.4844 326.341,526.7031 326.4348,527.1094 C326.4973,527.5156 326.5285,527.6406 326.6691,527.7656 C326.8098,527.9063 327.0441,528.0156 327.2629,528.0156 C327.5285,528.0156 327.7941,527.875 327.966,527.6563 C328.0754,527.5 328.1066,527.3125 328.1066,526.8906 L328.1066,525.4688 C328.1066,525.0313 328.091,524.9063 327.9973,524.75 C327.841,524.4844 327.5598,524.3438 327.2629,524.3438 C326.966,524.3438 326.7629,524.4375 326.5441,524.75 L326.3723,524.6719 Z " fill="#000000"/><text fill="#000000" font-family="sans-serif" font-size="12" lengthAdjust="spacingAndGlyphs" textLength="87" x="342.9285" y="533.1543">StartController</text><line style="stroke:#A80036;stroke-width:1.5;" x1="287.9785" x2="453.9785" y1="545" y2="545"/><line style="stroke:#A80036;stroke-width:1.5;" x1="287.9785" x2="453.9785" y1="553" y2="553"/><ellipse cx="297.9785" cy="564" fill="#84BE84" rx="3" ry="3" style="stroke:#038048;stroke-width:1.0;"/><text fill="#000000" font-family="sans-serif" font-size="11" lengthAdjust="spacingAndGlyphs" textLength="135" x="306.9785" y="567.2104">StartController(Session)</text><ellipse cx="297.9785" cy="576.8047" fill="#84BE84" rx="3" ry="3" style="stroke:#038048;stroke-width:1.0;"/><text fill="#000000" font-family="sans-serif" font-size="11" lengthAdjust="spacingAndGlyphs" textLength="33" x="306.9785" y="580.0151">start()</text><ellipse cx="297.9785" cy="589.6094" fill="#84BE84" rx="3" ry="3" style="stroke:#038048;stroke-width:1.0;"/><text fill="#000000" font-family="sans-serif" font-size="11" lengthAdjust="spacingAndGlyphs" textLength="142" x="306.9785" y="592.8198">accept(ControllersVisitor)</text><!--MD5=[889d323ee88e76c035a2f6f92d120af6]
class usantatecla.mastermind.controllers.PlayController--><rect codeLine="35" fill="#FEFECE" filter="url(#f1sa9m26vedqxc)" height="214.4609" id="usantatecla.mastermind.controllers.PlayController" style="stroke:#A80036;stroke-width:1.5;" width="270" x="658.9785" y="449"/><ellipse cx="748.7285" cy="465" fill="#ADD1B2" rx="11" ry="11" style="stroke:#A80036;stroke-width:1.0;"/><path d="M751.0722,460.6719 C750.1347,460.2344 749.541,460.0938 748.666,460.0938 C746.041,460.0938 744.041,462.1719 744.041,464.8906 L744.041,466.0156 C744.041,468.5938 746.1504,470.4844 749.041,470.4844 C750.2597,470.4844 751.416,470.1875 752.166,469.6406 C752.7441,469.2344 753.0722,468.7813 753.0722,468.3906 C753.0722,467.9375 752.6816,467.5469 752.2129,467.5469 C751.9941,467.5469 751.791,467.625 751.6035,467.8125 C751.1504,468.2969 751.1504,468.2969 750.9629,468.3906 C750.541,468.6563 749.8535,468.7813 749.0879,468.7813 C747.041,468.7813 745.7441,467.6875 745.7441,465.9844 L745.7441,464.8906 C745.7441,463.1094 746.9941,461.7969 748.7285,461.7969 C749.3066,461.7969 749.916,461.9531 750.3847,462.2031 C750.8691,462.4844 751.041,462.7031 751.1347,463.1094 C751.1972,463.5156 751.2285,463.6406 751.3691,463.7656 C751.5097,463.9063 751.7441,464.0156 751.9629,464.0156 C752.2285,464.0156 752.4941,463.875 752.666,463.6563 C752.7754,463.5 752.8066,463.3125 752.8066,462.8906 L752.8066,461.4688 C752.8066,461.0313 752.791,460.9063 752.6972,460.75 C752.541,460.4844 752.2597,460.3438 751.9629,460.3438 C751.666,460.3438 751.4629,460.4375 751.2441,460.75 L751.0722,460.6719 Z " fill="#000000"/><text fill="#000000" font-family="sans-serif" font-size="12" lengthAdjust="spacingAndGlyphs" textLength="82" x="769.2285" y="469.1543">PlayController</text><line style="stroke:#A80036;stroke-width:1.5;" x1="659.9785" x2="927.9785" y1="481" y2="481"/><line style="stroke:#A80036;stroke-width:1.5;" x1="659.9785" x2="927.9785" y1="489" y2="489"/><ellipse cx="669.9785" cy="500" fill="#84BE84" rx="3" ry="3" style="stroke:#038048;stroke-width:1.0;"/><text fill="#000000" font-family="sans-serif" font-size="11" lengthAdjust="spacingAndGlyphs" textLength="131" x="678.9785" y="503.2104">PlayController(Session)</text><ellipse cx="669.9785" cy="512.8047" fill="#84BE84" rx="3" ry="3" style="stroke:#038048;stroke-width:1.0;"/><text fill="#000000" font-family="sans-serif" font-size="11" lengthAdjust="spacingAndGlyphs" textLength="244" x="678.9785" y="516.0151">addProposeCombination(List&lt;Color&gt;): Error</text><ellipse cx="669.9785" cy="525.6094" fill="#84BE84" rx="3" ry="3" style="stroke:#038048;stroke-width:1.0;"/><text fill="#000000" font-family="sans-serif" font-size="11" lengthAdjust="spacingAndGlyphs" textLength="36" x="678.9785" y="528.8198">undo()</text><ellipse cx="669.9785" cy="538.4141" fill="#84BE84" rx="3" ry="3" style="stroke:#038048;stroke-width:1.0;"/><text fill="#000000" font-family="sans-serif" font-size="11" lengthAdjust="spacingAndGlyphs" textLength="34" x="678.9785" y="541.6245">redo()</text><ellipse cx="669.9785" cy="551.2188" fill="#84BE84" rx="3" ry="3" style="stroke:#038048;stroke-width:1.0;"/><text fill="#000000" font-family="sans-serif" font-size="11" lengthAdjust="spacingAndGlyphs" textLength="114" x="678.9785" y="554.4292">undoable(): boolean</text><ellipse cx="669.9785" cy="564.0234" fill="#84BE84" rx="3" ry="3" style="stroke:#038048;stroke-width:1.0;"/><text fill="#000000" font-family="sans-serif" font-size="11" lengthAdjust="spacingAndGlyphs" textLength="112" x="678.9785" y="567.2339">redoable(): boolean</text><ellipse cx="669.9785" cy="576.8281" fill="#84BE84" rx="3" ry="3" style="stroke:#038048;stroke-width:1.0;"/><text fill="#000000" font-family="sans-serif" font-size="11" lengthAdjust="spacingAndGlyphs" textLength="110" x="678.9785" y="580.0386">isWinner(): boolean</text><ellipse cx="669.9785" cy="589.6328" fill="#84BE84" rx="3" ry="3" style="stroke:#038048;stroke-width:1.0;"/><text fill="#000000" font-family="sans-serif" font-size="11" lengthAdjust="spacingAndGlyphs" textLength="108" x="678.9785" y="592.8433">isLooser(): boolean</text><ellipse cx="669.9785" cy="602.4375" fill="#84BE84" rx="3" ry="3" style="stroke:#038048;stroke-width:1.0;"/><text fill="#000000" font-family="sans-serif" font-size="11" lengthAdjust="spacingAndGlyphs" textLength="100" x="678.9785" y="605.6479">getAttempts(): int</text><ellipse cx="669.9785" cy="615.2422" fill="#84BE84" rx="3" ry="3" style="stroke:#038048;stroke-width:1.0;"/><text fill="#000000" font-family="sans-serif" font-size="11" lengthAdjust="spacingAndGlyphs" textLength="149" x="678.9785" y="618.4526">getColors(int): List&lt;Color&gt;</text><ellipse cx="669.9785" cy="628.0469" fill="#84BE84" rx="3" ry="3" style="stroke:#038048;stroke-width:1.0;"/><text fill="#000000" font-family="sans-serif" font-size="11" lengthAdjust="spacingAndGlyphs" textLength="98" x="678.9785" y="631.2573">getBlacks(int): int</text><ellipse cx="669.9785" cy="640.8516" fill="#84BE84" rx="3" ry="3" style="stroke:#038048;stroke-width:1.0;"/><text fill="#000000" font-family="sans-serif" font-size="11" lengthAdjust="spacingAndGlyphs" textLength="101" x="678.9785" y="644.062">getWhites(int): int</text><ellipse cx="669.9785" cy="653.6563" fill="#84BE84" rx="3" ry="3" style="stroke:#038048;stroke-width:1.0;"/><text fill="#000000" font-family="sans-serif" font-size="11" lengthAdjust="spacingAndGlyphs" textLength="142" x="678.9785" y="656.8667">accept(ControllersVisitor)</text><!--MD5=[ba414607f34a8f1ff5e5377db4b3dfd8]
class usantatecla.mastermind.controllers.ResumeController--><rect codeLine="83" fill="#FEFECE" filter="url(#f1sa9m26vedqxc)" height="86.4141" id="usantatecla.mastermind.controllers.ResumeController" style="stroke:#A80036;stroke-width:1.5;" width="181" x="70.4785" y="513"/><ellipse cx="104.3785" cy="529" fill="#ADD1B2" rx="11" ry="11" style="stroke:#A80036;stroke-width:1.0;"/><path d="M106.7223,524.6719 C105.7848,524.2344 105.191,524.0938 104.316,524.0938 C101.691,524.0938 99.691,526.1719 99.691,528.8906 L99.691,530.0156 C99.691,532.5938 101.8004,534.4844 104.691,534.4844 C105.9098,534.4844 107.066,534.1875 107.816,533.6406 C108.3941,533.2344 108.7223,532.7813 108.7223,532.3906 C108.7223,531.9375 108.3316,531.5469 107.8629,531.5469 C107.6441,531.5469 107.441,531.625 107.2535,531.8125 C106.8004,532.2969 106.8004,532.2969 106.6129,532.3906 C106.191,532.6563 105.5035,532.7813 104.7379,532.7813 C102.691,532.7813 101.3941,531.6875 101.3941,529.9844 L101.3941,528.8906 C101.3941,527.1094 102.6441,525.7969 104.3785,525.7969 C104.9566,525.7969 105.566,525.9531 106.0348,526.2031 C106.5191,526.4844 106.691,526.7031 106.7848,527.1094 C106.8473,527.5156 106.8785,527.6406 107.0191,527.7656 C107.1598,527.9063 107.3941,528.0156 107.6129,528.0156 C107.8785,528.0156 108.1441,527.875 108.316,527.6563 C108.4254,527.5 108.4566,527.3125 108.4566,526.8906 L108.4566,525.4688 C108.4566,525.0313 108.441,524.9063 108.3473,524.75 C108.191,524.4844 107.9098,524.3438 107.6129,524.3438 C107.316,524.3438 107.1129,524.4375 106.8941,524.75 L106.7223,524.6719 Z " fill="#000000"/><text fill="#000000" font-family="sans-serif" font-size="12" lengthAdjust="spacingAndGlyphs" textLength="107" x="122.5785" y="533.1543">ResumeController</text><line style="stroke:#A80036;stroke-width:1.5;" x1="71.4785" x2="250.4785" y1="545" y2="545"/><line style="stroke:#A80036;stroke-width:1.5;" x1="71.4785" x2="250.4785" y1="553" y2="553"/><ellipse cx="81.4785" cy="564" fill="#84BE84" rx="3" ry="3" style="stroke:#038048;stroke-width:1.0;"/><text fill="#000000" font-family="sans-serif" font-size="11" lengthAdjust="spacingAndGlyphs" textLength="155" x="90.4785" y="567.2104">ResumeController(Session)</text><ellipse cx="81.4785" cy="576.8047" fill="#84BE84" rx="3" ry="3" style="stroke:#038048;stroke-width:1.0;"/><text fill="#000000" font-family="sans-serif" font-size="11" lengthAdjust="spacingAndGlyphs" textLength="98" x="90.4785" y="580.0151">resume(boolean)</text><ellipse cx="81.4785" cy="589.6094" fill="#84BE84" rx="3" ry="3" style="stroke:#038048;stroke-width:1.0;"/><text fill="#000000" font-family="sans-serif" font-size="11" lengthAdjust="spacingAndGlyphs" textLength="142" x="90.4785" y="592.8198">accept(ControllersVisitor)</text><!--MD5=[94a6d75594c4867cc1b5bdf8bdcd38a2]
class usantatecla.mastermind.controllers.Logic--><rect codeLine="27" fill="#FEFECE" filter="url(#f1sa9m26vedqxc)" height="73.6094" id="usantatecla.mastermind.controllers.Logic" style="stroke:#A80036;stroke-width:1.5;" width="220" x="708.9785" y="41"/><ellipse cx="798.7285" cy="57" fill="#ADD1B2" rx="11" ry="11" style="stroke:#A80036;stroke-width:1.0;"/><path d="M801.0722,52.6719 C800.1347,52.2344 799.541,52.0938 798.666,52.0938 C796.041,52.0938 794.041,54.1719 794.041,56.8906 L794.041,58.0156 C794.041,60.5938 796.1504,62.4844 799.041,62.4844 C800.2597,62.4844 801.416,62.1875 802.166,61.6406 C802.7441,61.2344 803.0722,60.7813 803.0722,60.3906 C803.0722,59.9375 802.6816,59.5469 802.2129,59.5469 C801.9941,59.5469 801.791,59.625 801.6035,59.8125 C801.1504,60.2969 801.1504,60.2969 800.9629,60.3906 C800.541,60.6563 799.8535,60.7813 799.0879,60.7813 C797.041,60.7813 795.7441,59.6875 795.7441,57.9844 L795.7441,56.8906 C795.7441,55.1094 796.9941,53.7969 798.7285,53.7969 C799.3066,53.7969 799.916,53.9531 800.3847,54.2031 C800.8691,54.4844 801.041,54.7031 801.1347,55.1094 C801.1972,55.5156 801.2285,55.6406 801.3691,55.7656 C801.5097,55.9063 801.7441,56.0156 801.9629,56.0156 C802.2285,56.0156 802.4941,55.875 802.666,55.6563 C802.7754,55.5 802.8066,55.3125 802.8066,54.8906 L802.8066,53.4688 C802.8066,53.0313 802.791,52.9063 802.6972,52.75 C802.541,52.4844 802.2597,52.3438 801.9629,52.3438 C801.666,52.3438 801.4629,52.4375 801.2441,52.75 L801.0722,52.6719 Z " fill="#000000"/><text fill="#000000" font-family="sans-serif" font-size="12" lengthAdjust="spacingAndGlyphs" textLength="32" x="819.2285" y="61.1543">Logic</text><line style="stroke:#A80036;stroke-width:1.5;" x1="709.9785" x2="927.9785" y1="73" y2="73"/><line style="stroke:#A80036;stroke-width:1.5;" x1="709.9785" x2="927.9785" y1="81" y2="81"/><ellipse cx="719.9785" cy="92" fill="#84BE84" rx="3" ry="3" style="stroke:#038048;stroke-width:1.0;"/><text fill="#000000" font-family="sans-serif" font-size="11" lengthAdjust="spacingAndGlyphs" textLength="37" x="728.9785" y="95.2104">Logic()</text><ellipse cx="719.9785" cy="104.8047" fill="#84BE84" rx="3" ry="3" style="stroke:#038048;stroke-width:1.0;"/><text fill="#000000" font-family="sans-serif" font-size="11" lengthAdjust="spacingAndGlyphs" textLength="194" x="728.9785" y="108.0151">getController(): AcceptorController</text><!--MD5=[71ea1457370bc7d349149836b00bab29]
class usantatecla.mastermind.controllers.PlayController--><rect codeLine="59" fill="#FEFECE" filter="url(#f1sa9m26vedqxc)" height="150.4375" id="usantatecla.mastermind.controllers.PlayController" style="stroke:#A80036;stroke-width:1.5;" width="270" x="658.9785" y="723"/><ellipse cx="734.2285" cy="739" fill="#ADD1B2" rx="11" ry="11" style="stroke:#A80036;stroke-width:1.0;"/><path d="M736.5722,734.6719 C735.6347,734.2344 735.041,734.0938 734.166,734.0938 C731.541,734.0938 729.541,736.1719 729.541,738.8906 L729.541,740.0156 C729.541,742.5938 731.6504,744.4844 734.541,744.4844 C735.7597,744.4844 736.916,744.1875 737.666,743.6406 C738.2441,743.2344 738.5722,742.7813 738.5722,742.3906 C738.5722,741.9375 738.1816,741.5469 737.7129,741.5469 C737.4941,741.5469 737.291,741.625 737.1035,741.8125 C736.6504,742.2969 736.6504,742.2969 736.4629,742.3906 C736.041,742.6563 735.3535,742.7813 734.5879,742.7813 C732.541,742.7813 731.2441,741.6875 731.2441,739.9844 L731.2441,738.8906 C731.2441,737.1094 732.4941,735.7969 734.2285,735.7969 C734.8066,735.7969 735.416,735.9531 735.8847,736.2031 C736.3691,736.4844 736.541,736.7031 736.6347,737.1094 C736.6972,737.5156 736.7285,737.6406 736.8691,737.7656 C737.0097,737.9063 737.2441,738.0156 737.4629,738.0156 C737.7285,738.0156 737.9941,737.875 738.166,737.6563 C738.2754,737.5 738.3066,737.3125 738.3066,736.8906 L738.3066,735.4688 C738.3066,735.0313 738.291,734.9063 738.1972,734.75 C738.041,734.4844 737.7597,734.3438 737.4629,734.3438 C737.166,734.3438 736.9629,734.4375 736.7441,734.75 L736.5722,734.6719 Z " fill="#000000"/><text fill="#000000" font-family="sans-serif" font-size="12" lengthAdjust="spacingAndGlyphs" textLength="111" x="754.7285" y="743.1543">ProposalController</text><line style="stroke:#A80036;stroke-width:1.5;" x1="659.9785" x2="927.9785" y1="755" y2="755"/><line style="stroke:#A80036;stroke-width:1.5;" x1="659.9785" x2="927.9785" y1="763" y2="763"/><polygon fill="#4177AF" points="669.9785,770,665.9785,776,673.9785,776" style="stroke:#1963A0;stroke-width:1.0;"/><text fill="#000000" font-family="sans-serif" font-size="11" lengthAdjust="spacingAndGlyphs" textLength="155" x="678.9785" y="777.2104">ProposalController(Session)</text><polygon fill="#4177AF" points="669.9785,782.8047,665.9785,788.8047,673.9785,788.8047" style="stroke:#1963A0;stroke-width:1.0;"/><text fill="#000000" font-family="sans-serif" font-size="11" lengthAdjust="spacingAndGlyphs" textLength="244" x="678.9785" y="790.0151">addProposeCombination(List&lt;Color&gt;): Error</text><polygon fill="#4177AF" points="669.9785,795.6094,665.9785,801.6094,673.9785,801.6094" style="stroke:#1963A0;stroke-width:1.0;"/><text fill="#000000" font-family="sans-serif" font-size="11" lengthAdjust="spacingAndGlyphs" textLength="110" x="678.9785" y="802.8198">isWinner(): boolean</text><polygon fill="#4177AF" points="669.9785,808.4141,665.9785,814.4141,673.9785,814.4141" style="stroke:#1963A0;stroke-width:1.0;"/><text fill="#000000" font-family="sans-serif" font-size="11" lengthAdjust="spacingAndGlyphs" textLength="108" x="678.9785" y="815.6245">isLooser(): boolean</text><polygon fill="#4177AF" points="669.9785,821.2188,665.9785,827.2188,673.9785,827.2188" style="stroke:#1963A0;stroke-width:1.0;"/><text fill="#000000" font-family="sans-serif" font-size="11" lengthAdjust="spacingAndGlyphs" textLength="100" x="678.9785" y="828.4292">getAttempts(): int</text><polygon fill="#4177AF" points="669.9785,834.0234,665.9785,840.0234,673.9785,840.0234" style="stroke:#1963A0;stroke-width:1.0;"/><text fill="#000000" font-family="sans-serif" font-size="11" lengthAdjust="spacingAndGlyphs" textLength="149" x="678.9785" y="841.2339">getColors(int): List&lt;Color&gt;</text><polygon fill="#4177AF" points="669.9785,846.8281,665.9785,852.8281,673.9785,852.8281" style="stroke:#1963A0;stroke-width:1.0;"/><text fill="#000000" font-family="sans-serif" font-size="11" lengthAdjust="spacingAndGlyphs" textLength="98" x="678.9785" y="854.0386">getBlacks(int): int</text><polygon fill="#4177AF" points="669.9785,859.6328,665.9785,865.6328,673.9785,865.6328" style="stroke:#1963A0;stroke-width:1.0;"/><text fill="#000000" font-family="sans-serif" font-size="11" lengthAdjust="spacingAndGlyphs" textLength="101" x="678.9785" y="866.8433">getWhites(int): int</text><!--MD5=[151d2f6508794d65f8147ab4cfc9408d]
class usantatecla.mastermind.controllers.UndoController--><rect codeLine="101" fill="#FEFECE" filter="url(#f1sa9m26vedqxc)" height="86.4141" id="usantatecla.mastermind.controllers.UndoController" style="stroke:#A80036;stroke-width:1.5;" width="163" x="460.4785" y="755"/><ellipse cx="493.4785" cy="771" fill="#ADD1B2" rx="11" ry="11" style="stroke:#A80036;stroke-width:1.0;"/><path d="M495.8223,766.6719 C494.8848,766.2344 494.291,766.0938 493.416,766.0938 C490.791,766.0938 488.791,768.1719 488.791,770.8906 L488.791,772.0156 C488.791,774.5938 490.9004,776.4844 493.791,776.4844 C495.0098,776.4844 496.166,776.1875 496.916,775.6406 C497.4941,775.2344 497.8223,774.7813 497.8223,774.3906 C497.8223,773.9375 497.4316,773.5469 496.9629,773.5469 C496.7441,773.5469 496.541,773.625 496.3535,773.8125 C495.9004,774.2969 495.9004,774.2969 495.7129,774.3906 C495.291,774.6563 494.6035,774.7813 493.8379,774.7813 C491.791,774.7813 490.4941,773.6875 490.4941,771.9844 L490.4941,770.8906 C490.4941,769.1094 491.7441,767.7969 493.4785,767.7969 C494.0566,767.7969 494.666,767.9531 495.1348,768.2031 C495.6191,768.4844 495.791,768.7031 495.8848,769.1094 C495.9473,769.5156 495.9785,769.6406 496.1191,769.7656 C496.2598,769.9063 496.4941,770.0156 496.7129,770.0156 C496.9785,770.0156 497.2441,769.875 497.416,769.6563 C497.5254,769.5 497.5566,769.3125 497.5566,768.8906 L497.5566,767.4688 C497.5566,767.0313 497.541,766.9063 497.4473,766.75 C497.291,766.4844 497.0098,766.3438 496.7129,766.3438 C496.416,766.3438 496.2129,766.4375 495.9941,766.75 L495.8223,766.6719 Z " fill="#000000"/><text fill="#000000" font-family="sans-serif" font-size="12" lengthAdjust="spacingAndGlyphs" textLength="91" x="511.4785" y="775.1543">UndoController</text><line style="stroke:#A80036;stroke-width:1.5;" x1="461.4785" x2="622.4785" y1="787" y2="787"/><line style="stroke:#A80036;stroke-width:1.5;" x1="461.4785" x2="622.4785" y1="795" y2="795"/><polygon fill="#4177AF" points="471.4785,802,467.4785,808,475.4785,808" style="stroke:#1963A0;stroke-width:1.0;"/><text fill="#000000" font-family="sans-serif" font-size="11" lengthAdjust="spacingAndGlyphs" textLength="137" x="480.4785" y="809.2104">UndoController(Session)</text><polygon fill="#4177AF" points="471.4785,814.8047,467.4785,820.8047,475.4785,820.8047" style="stroke:#1963A0;stroke-width:1.0;"/><text fill="#000000" font-family="sans-serif" font-size="11" lengthAdjust="spacingAndGlyphs" textLength="36" x="480.4785" y="822.0151">undo()</text><polygon fill="#4177AF" points="471.4785,827.6094,467.4785,833.6094,475.4785,833.6094" style="stroke:#1963A0;stroke-width:1.0;"/><text fill="#000000" font-family="sans-serif" font-size="11" lengthAdjust="spacingAndGlyphs" textLength="114" x="480.4785" y="834.8198">undoable(): boolean</text><!--MD5=[ad403d85d3aa729c37503f477ae09c63]
class usantatecla.mastermind.controllers.RedoController--><rect codeLine="75" fill="#FEFECE" filter="url(#f1sa9m26vedqxc)" height="86.4141" id="usantatecla.mastermind.controllers.RedoController" style="stroke:#A80036;stroke-width:1.5;" width="163" x="262.4785" y="755"/><ellipse cx="295.9285" cy="771" fill="#ADD1B2" rx="11" ry="11" style="stroke:#A80036;stroke-width:1.0;"/><path d="M298.2723,766.6719 C297.3348,766.2344 296.741,766.0938 295.866,766.0938 C293.241,766.0938 291.241,768.1719 291.241,770.8906 L291.241,772.0156 C291.241,774.5938 293.3504,776.4844 296.241,776.4844 C297.4598,776.4844 298.616,776.1875 299.366,775.6406 C299.9441,775.2344 300.2723,774.7813 300.2723,774.3906 C300.2723,773.9375 299.8816,773.5469 299.4129,773.5469 C299.1941,773.5469 298.991,773.625 298.8035,773.8125 C298.3504,774.2969 298.3504,774.2969 298.1629,774.3906 C297.741,774.6563 297.0535,774.7813 296.2879,774.7813 C294.241,774.7813 292.9441,773.6875 292.9441,771.9844 L292.9441,770.8906 C292.9441,769.1094 294.1941,767.7969 295.9285,767.7969 C296.5066,767.7969 297.116,767.9531 297.5848,768.2031 C298.0691,768.4844 298.241,768.7031 298.3348,769.1094 C298.3973,769.5156 298.4285,769.6406 298.5691,769.7656 C298.7098,769.9063 298.9441,770.0156 299.1629,770.0156 C299.4285,770.0156 299.6941,769.875 299.866,769.6563 C299.9754,769.5 300.0066,769.3125 300.0066,768.8906 L300.0066,767.4688 C300.0066,767.0313 299.991,766.9063 299.8973,766.75 C299.741,766.4844 299.4598,766.3438 299.1629,766.3438 C298.866,766.3438 298.6629,766.4375 298.4441,766.75 L298.2723,766.6719 Z " fill="#000000"/><text fill="#000000" font-family="sans-serif" font-size="12" lengthAdjust="spacingAndGlyphs" textLength="90" x="314.0285" y="775.1543">RedoController</text><line style="stroke:#A80036;stroke-width:1.5;" x1="263.4785" x2="424.4785" y1="787" y2="787"/><line style="stroke:#A80036;stroke-width:1.5;" x1="263.4785" x2="424.4785" y1="795" y2="795"/><polygon fill="#4177AF" points="273.4785,802,269.4785,808,277.4785,808" style="stroke:#1963A0;stroke-width:1.0;"/><text fill="#000000" font-family="sans-serif" font-size="11" lengthAdjust="spacingAndGlyphs" textLength="137" x="282.4785" y="809.2104">RedoController(Session)</text><polygon fill="#4177AF" points="273.4785,814.8047,269.4785,820.8047,277.4785,820.8047" style="stroke:#1963A0;stroke-width:1.0;"/><text fill="#000000" font-family="sans-serif" font-size="11" lengthAdjust="spacingAndGlyphs" textLength="34" x="282.4785" y="822.0151">redo()</text><polygon fill="#4177AF" points="273.4785,827.6094,269.4785,833.6094,277.4785,833.6094" style="stroke:#1963A0;stroke-width:1.0;"/><text fill="#000000" font-family="sans-serif" font-size="11" lengthAdjust="spacingAndGlyphs" textLength="112" x="282.4785" y="834.8198">redoable(): boolean</text><!--MD5=[28491d17d5ee38c9c116625a5ffc259a]
class Combination--><rect codeLine="1" fill="#FEFECE" filter="url(#f1sa9m26vedqxc)" height="67.9063" id="Combination" style="stroke:#A80036;stroke-width:1.5;" width="156" x="611.9785" y="933"/><ellipse cx="626.9785" cy="958.9531" fill="#A9DCDF" rx="11" ry="11" style="stroke:#A80036;stroke-width:1.0;"/><path d="M629.0566,960.7656 L629.4472,961.75 L629.0566,961.75 C628.6035,961.75 628.4941,961.7656 628.3379,961.875 C628.0879,962.0313 627.9316,962.3125 627.9316,962.6094 C627.9316,962.875 628.0722,963.125 628.291,963.2813 C628.4316,963.4063 628.6347,963.4531 629.0566,963.4531 L631.416,963.4531 C631.7754,963.4531 631.9941,963.4219 632.1347,963.3281 C632.3847,963.1875 632.541,962.8906 632.541,962.6094 C632.541,962.3281 632.4004,962.0781 632.1816,961.9219 C632.0097,961.7813 631.8535,961.75 631.3847,961.75 L627.9941,953.5469 L624.3222,953.5469 C623.8691,953.5469 623.7441,953.5625 623.5879,953.6563 C623.3379,953.8281 623.1816,954.1094 623.1816,954.3906 C623.1816,954.6719 623.3222,954.9219 623.541,955.0938 C623.7129,955.2031 623.8847,955.2344 624.3222,955.2344 L625.4004,955.2344 L622.7597,961.75 C622.3379,961.75 622.1816,961.7656 622.0254,961.875 C621.7754,962.0313 621.6191,962.3125 621.6191,962.6094 C621.6191,963.1719 621.9941,963.4531 622.7441,963.4531 L625.0097,963.4531 C625.3691,963.4531 625.5879,963.4219 625.7129,963.3281 C625.9785,963.1875 626.1191,962.8906 626.1191,962.6094 C626.1191,962.3281 625.9941,962.0781 625.7754,961.9063 C625.6035,961.7813 625.4629,961.75 625.0097,961.75 L624.6191,961.75 L625.0097,960.7656 L629.0566,960.7656 Z M628.3535,959.0625 L625.6816,959.0625 L627.0254,955.7969 L628.3535,959.0625 Z " fill="#000000"/><text fill="#000000" font-family="sans-serif" font-size="12" font-style="italic" lengthAdjust="spacingAndGlyphs" textLength="74" x="665.9785" y="949.1387">usantatecla.</text><text fill="#000000" font-family="sans-serif" font-size="12" font-style="italic" lengthAdjust="spacingAndGlyphs" textLength="124" x="640.9785" y="963.1074">mastermind.models.</text><text fill="#000000" font-family="sans-serif" font-size="12" font-style="italic" lengthAdjust="spacingAndGlyphs" textLength="76" x="664.9785" y="977.0762">Combination</text><line style="stroke:#A80036;stroke-width:1.5;" x1="612.9785" x2="766.9785" y1="984.9063" y2="984.9063"/><line style="stroke:#A80036;stroke-width:1.5;" x1="612.9785" x2="766.9785" y1="992.9063" y2="992.9063"/><!--MD5=[2ca1536628238a7dc78c5d90808014f9]
class Session--><rect codeLine="2" fill="#FEFECE" filter="url(#f1sa9m26vedqxc)" height="67.9063" id="Session" style="stroke:#A80036;stroke-width:1.5;" width="154" x="198.9785" y="933"/><ellipse cx="213.9785" cy="958.9531" fill="#ADD1B2" rx="11" ry="11" style="stroke:#A80036;stroke-width:1.0;"/><path d="M216.3223,954.625 C215.3848,954.1875 214.791,954.0469 213.916,954.0469 C211.291,954.0469 209.291,956.125 209.291,958.8438 L209.291,959.9688 C209.291,962.5469 211.4004,964.4375 214.291,964.4375 C215.5098,964.4375 216.666,964.1406 217.416,963.5938 C217.9941,963.1875 218.3223,962.7344 218.3223,962.3438 C218.3223,961.8906 217.9316,961.5 217.4629,961.5 C217.2441,961.5 217.041,961.5781 216.8535,961.7656 C216.4004,962.25 216.4004,962.25 216.2129,962.3438 C215.791,962.6094 215.1035,962.7344 214.3379,962.7344 C212.291,962.7344 210.9941,961.6406 210.9941,959.9375 L210.9941,958.8438 C210.9941,957.0625 212.2441,955.75 213.9785,955.75 C214.5566,955.75 215.166,955.9063 215.6348,956.1563 C216.1191,956.4375 216.291,956.6563 216.3848,957.0625 C216.4473,957.4688 216.4785,957.5938 216.6191,957.7188 C216.7598,957.8594 216.9941,957.9688 217.2129,957.9688 C217.4785,957.9688 217.7441,957.8281 217.916,957.6094 C218.0254,957.4531 218.0566,957.2656 218.0566,956.8438 L218.0566,955.4219 C218.0566,954.9844 218.041,954.8594 217.9473,954.7031 C217.791,954.4375 217.5098,954.2969 217.2129,954.2969 C216.916,954.2969 216.7129,954.3906 216.4941,954.7031 L216.3223,954.625 Z " fill="#000000"/><text fill="#000000" font-family="sans-serif" font-size="12" lengthAdjust="spacingAndGlyphs" textLength="71" x="253.4785" y="949.1387">usantatecla.</text><text fill="#000000" font-family="sans-serif" font-size="12" lengthAdjust="spacingAndGlyphs" textLength="122" x="227.9785" y="963.1074">mastermind.models.</text><text fill="#000000" font-family="sans-serif" font-size="12" lengthAdjust="spacingAndGlyphs" textLength="48" x="264.9785" y="977.0762">Session</text><line style="stroke:#A80036;stroke-width:1.5;" x1="199.9785" x2="351.9785" y1="984.9063" y2="984.9063"/><line style="stroke:#A80036;stroke-width:1.5;" x1="199.9785" x2="351.9785" y1="992.9063" y2="992.9063"/><!--MD5=[167506e288131cdf3986fedef83acd94]
class StateValue--><rect codeLine="3" fill="#FEFECE" filter="url(#f1sa9m26vedqxc)" height="67.9063" id="StateValue" style="stroke:#A80036;stroke-width:1.5;" width="154" x="960.9785" y="175"/><ellipse cx="975.9785" cy="200.9531" fill="#ADD1B2" rx="11" ry="11" style="stroke:#A80036;stroke-width:1.0;"/><path d="M978.3222,196.625 C977.3847,196.1875 976.791,196.0469 975.916,196.0469 C973.291,196.0469 971.291,198.125 971.291,200.8438 L971.291,201.9688 C971.291,204.5469 973.4004,206.4375 976.291,206.4375 C977.5097,206.4375 978.666,206.1406 979.416,205.5938 C979.9941,205.1875 980.3222,204.7344 980.3222,204.3438 C980.3222,203.8906 979.9316,203.5 979.4629,203.5 C979.2441,203.5 979.041,203.5781 978.8535,203.7656 C978.4004,204.25 978.4004,204.25 978.2129,204.3438 C977.791,204.6094 977.1035,204.7344 976.3379,204.7344 C974.291,204.7344 972.9941,203.6406 972.9941,201.9375 L972.9941,200.8438 C972.9941,199.0625 974.2441,197.75 975.9785,197.75 C976.5566,197.75 977.166,197.9063 977.6347,198.1563 C978.1191,198.4375 978.291,198.6563 978.3847,199.0625 C978.4472,199.4688 978.4785,199.5938 978.6191,199.7188 C978.7597,199.8594 978.9941,199.9688 979.2129,199.9688 C979.4785,199.9688 979.7441,199.8281 979.916,199.6094 C980.0254,199.4531 980.0566,199.2656 980.0566,198.8438 L980.0566,197.4219 C980.0566,196.9844 980.041,196.8594 979.9472,196.7031 C979.791,196.4375 979.5097,196.2969 979.2129,196.2969 C978.916,196.2969 978.7129,196.3906 978.4941,196.7031 L978.3222,196.625 Z " fill="#000000"/><text fill="#000000" font-family="sans-serif" font-size="12" lengthAdjust="spacingAndGlyphs" textLength="71" x="1015.4785" y="191.1387">usantatecla.</text><text fill="#000000" font-family="sans-serif" font-size="12" lengthAdjust="spacingAndGlyphs" textLength="122" x="989.9785" y="205.1074">mastermind.models.</text><text fill="#000000" font-family="sans-serif" font-size="12" lengthAdjust="spacingAndGlyphs" textLength="64" x="1018.9785" y="219.0762">StateValue</text><line style="stroke:#A80036;stroke-width:1.5;" x1="961.9785" x2="1113.9785" y1="226.9063" y2="226.9063"/><line style="stroke:#A80036;stroke-width:1.5;" x1="961.9785" x2="1113.9785" y1="234.9063" y2="234.9063"/><!--MD5=[18eee71c88ab61f27581b8cbdd3ef5ee]
class Color--><rect codeLine="4" fill="#FEFECE" filter="url(#f1sa9m26vedqxc)" height="67.9063" id="Color" style="stroke:#A80036;stroke-width:1.5;" width="143" x="981.4785" y="933"/><ellipse cx="996.4785" cy="958.9531" fill="#EB937F" rx="11" ry="11" style="stroke:#A80036;stroke-width:1.0;"/><path d="M995.2754,959.8281 L996.7285,959.8281 L996.7285,959.9375 C996.7285,960.3438 996.7597,960.5 996.8379,960.6563 C996.9941,960.9063 997.2754,961.0625 997.5722,961.0625 C997.8222,961.0625 998.0879,960.9219 998.2441,960.7031 C998.3691,960.5469 998.4004,960.3906 998.4004,959.9375 L998.4004,958.0156 C998.4004,957.8594 998.4004,957.8125 998.3847,957.6563 C998.3222,957.1875 998.0097,956.875 997.5566,956.875 C997.3066,956.875 997.041,957.0156 996.8691,957.2344 C996.7597,957.4063 996.7285,957.5625 996.7285,958.0156 L996.7285,958.1406 L995.2754,958.1406 L995.2754,955.7344 L999.2597,955.7344 L999.2597,956.5938 C999.2597,957 999.291,957.1719 999.3691,957.3281 C999.541,957.5781 999.8222,957.7344 1000.1035,957.7344 C1000.3691,957.7344 1000.6347,957.5938 1000.8066,957.375 C1000.916,957.2031 1000.9472,957.0625 1000.9472,956.5938 L1000.9472,954.0469 L993.3222,954.0469 C992.8847,954.0469 992.7597,954.0625 992.6035,954.1563 C992.3535,954.3125 992.1972,954.6094 992.1972,954.8906 C992.1972,955.1719 992.3379,955.4219 992.5566,955.5938 C992.7129,955.7031 992.9004,955.7344 993.3222,955.7344 L993.5722,955.7344 L993.5722,962.25 L993.3222,962.25 C992.916,962.25 992.7597,962.2656 992.6035,962.375 C992.3535,962.5469 992.1972,962.8125 992.1972,963.1094 C992.1972,963.375 992.3379,963.625 992.5566,963.7813 C992.6972,963.9063 992.9316,963.9531 993.3222,963.9531 L1001.3222,963.9531 L1001.3222,961.375 C1001.3222,960.9375 1001.291,960.7969 1001.2129,960.6406 C1001.041,960.3906 1000.7597,960.2344 1000.4785,960.2344 C1000.2129,960.2344 999.9472,960.3438 999.7754,960.5938 C999.666,960.75 999.6347,960.8906 999.6347,961.375 L999.6347,962.25 L995.2754,962.25 L995.2754,959.8281 Z " fill="#000000"/><text fill="#000000" font-family="sans-serif" font-size="12" lengthAdjust="spacingAndGlyphs" textLength="71" x="1030.4785" y="949.1387">usantatecla.</text><text fill="#000000" font-family="sans-serif" font-size="12" lengthAdjust="spacingAndGlyphs" textLength="111" x="1010.4785" y="963.1074">mastermind.types.</text><text fill="#000000" font-family="sans-serif" font-size="12" lengthAdjust="spacingAndGlyphs" textLength="32" x="1049.9785" y="977.0762">Color</text><line style="stroke:#A80036;stroke-width:1.5;" x1="982.4785" x2="1123.4785" y1="984.9063" y2="984.9063"/><line style="stroke:#A80036;stroke-width:1.5;" x1="982.4785" x2="1123.4785" y1="992.9063" y2="992.9063"/><!--MD5=[b8cfd8c4119a3b0a7a46bfc5fc780f85]
class Error--><rect codeLine="5" fill="#FEFECE" filter="url(#f1sa9m26vedqxc)" height="67.9063" id="Error" style="stroke:#A80036;stroke-width:1.5;" width="143" x="803.4785" y="933"/><ellipse cx="818.4785" cy="958.9531" fill="#EB937F" rx="11" ry="11" style="stroke:#A80036;stroke-width:1.0;"/><path d="M817.2754,959.8281 L818.7285,959.8281 L818.7285,959.9375 C818.7285,960.3438 818.7597,960.5 818.8379,960.6563 C818.9941,960.9063 819.2754,961.0625 819.5722,961.0625 C819.8222,961.0625 820.0879,960.9219 820.2441,960.7031 C820.3691,960.5469 820.4004,960.3906 820.4004,959.9375 L820.4004,958.0156 C820.4004,957.8594 820.4004,957.8125 820.3847,957.6563 C820.3222,957.1875 820.0097,956.875 819.5566,956.875 C819.3066,956.875 819.041,957.0156 818.8691,957.2344 C818.7597,957.4063 818.7285,957.5625 818.7285,958.0156 L818.7285,958.1406 L817.2754,958.1406 L817.2754,955.7344 L821.2597,955.7344 L821.2597,956.5938 C821.2597,957 821.291,957.1719 821.3691,957.3281 C821.541,957.5781 821.8222,957.7344 822.1035,957.7344 C822.3691,957.7344 822.6347,957.5938 822.8066,957.375 C822.916,957.2031 822.9472,957.0625 822.9472,956.5938 L822.9472,954.0469 L815.3222,954.0469 C814.8847,954.0469 814.7597,954.0625 814.6035,954.1563 C814.3535,954.3125 814.1972,954.6094 814.1972,954.8906 C814.1972,955.1719 814.3379,955.4219 814.5566,955.5938 C814.7129,955.7031 814.9004,955.7344 815.3222,955.7344 L815.5722,955.7344 L815.5722,962.25 L815.3222,962.25 C814.916,962.25 814.7597,962.2656 814.6035,962.375 C814.3535,962.5469 814.1972,962.8125 814.1972,963.1094 C814.1972,963.375 814.3379,963.625 814.5566,963.7813 C814.6972,963.9063 814.9316,963.9531 815.3222,963.9531 L823.3222,963.9531 L823.3222,961.375 C823.3222,960.9375 823.291,960.7969 823.2129,960.6406 C823.041,960.3906 822.7597,960.2344 822.4785,960.2344 C822.2129,960.2344 821.9472,960.3438 821.7754,960.5938 C821.666,960.75 821.6347,960.8906 821.6347,961.375 L821.6347,962.25 L817.2754,962.25 L817.2754,959.8281 Z " fill="#000000"/><text fill="#000000" font-family="sans-serif" font-size="12" lengthAdjust="spacingAndGlyphs" textLength="71" x="852.4785" y="949.1387">usantatecla.</text><text fill="#000000" font-family="sans-serif" font-size="12" lengthAdjust="spacingAndGlyphs" textLength="111" x="832.4785" y="963.1074">mastermind.types.</text><text fill="#000000" font-family="sans-serif" font-size="12" lengthAdjust="spacingAndGlyphs" textLength="30" x="872.9785" y="977.0762">Error</text><line style="stroke:#A80036;stroke-width:1.5;" x1="804.4785" x2="945.4785" y1="984.9063" y2="984.9063"/><line style="stroke:#A80036;stroke-width:1.5;" x1="804.4785" x2="945.4785" y1="992.9063" y2="992.9063"/><!--MD5=[bd9164636500d3b653f7d33ed9772956]
link usantatecla.mastermind.controllers.AcceptorController to usantatecla.mastermind.controllers.ControllersVisitor--><path codeLine="10" d="M461.5215,239.626 C446.5785,257.017 427.3745,279.367 410.4995,299.005 " fill="none" id="usantatecla.mastermind.controllers.AcceptorController-to-usantatecla.mastermind.controllers.ControllersVisitor" style="stroke:#A80036;stroke-width:1.0;stroke-dasharray:7.0,7.0;"/><polygon fill="#A80036" points="407.1575,302.895,416.0573,298.6767,410.4165,299.1031,409.9902,293.4623,407.1575,302.895" style="stroke:#A80036;stroke-width:1.0;"/><!--MD5=[3def74b1efc7c5ae01d4ee2634d4ae23]
link usantatecla.mastermind.controllers.Controller to Session--><path codeLine="16" d="M530.3665,603.2307 C530.3665,603.2307 495.4205,648.634 471.9785,663 C360.1285,731.546 265.7765,621.247 182.9785,723 C134.1689,782.984 148.2145,827.921 182.9785,897 C188.1005,907.1775 195.5115,916.2303 203.9485,924.1578 " fill="none" id="usantatecla.mastermind.controllers.Controller-Session" style="stroke:#A80036;stroke-width:1.0;"/><polygon fill="#A80036" points="213.8425,932.6298,209.6082,923.7376,210.0447,929.3776,204.4047,929.8141,213.8425,932.6298" style="stroke:#A80036;stroke-width:1.0;"/><line style="stroke:#A80036;stroke-width:1.0;" x1="210.0447" x2="203.968" y1="929.3776" y2="924.1742"/><polygon fill="#A80036" points="536.9775,593.216,530.3338,596.0197,530.3665,603.2307,537.0102,600.427,536.9775,593.216" style="stroke:#A80036;stroke-width:1.0;"/><!--MD5=[7fdf48b556a1c9826cc0cc4ec2a626dc]
link usantatecla.mastermind.controllers.ControllersVisitor to usantatecla.mastermind.controllers.StartController--><path codeLine="23" d="M360.4975,389.092 C357.6125,423.487 357.4785,472.087 360.0965,507.799 " fill="none" id="usantatecla.mastermind.controllers.ControllersVisitor-to-usantatecla.mastermind.controllers.StartController" style="stroke:#A80036;stroke-width:1.0;stroke-dasharray:7.0,7.0;"/><polygon fill="#A80036" points="360.5025,512.971,363.7856,503.6855,360.111,507.9863,355.8102,504.3118,360.5025,512.971" style="stroke:#A80036;stroke-width:1.0;"/><!--MD5=[bd475fd0ce301a7b572805ffdb34a310]
link usantatecla.mastermind.controllers.StartController to usantatecla.mastermind.controllers.ControllersVisitor--><path codeLine="98" d="M382.0705,512.971 C385.1285,478.592 385.2745,429.994 382.5055,394.266 " fill="none" id="usantatecla.mastermind.controllers.StartController-to-usantatecla.mastermind.controllers.ControllersVisitor" style="stroke:#A80036;stroke-width:1.0;stroke-dasharray:7.0,7.0;"/><polygon fill="#A80036" points="382.0755,389.092,378.835,398.3925,382.4898,394.0748,386.8075,397.7296,382.0755,389.092" style="stroke:#A80036;stroke-width:1.0;"/><!--MD5=[c238b71c29378ca7025366ba24b22fff]
link usantatecla.mastermind.controllers.ControllersVisitor to usantatecla.mastermind.controllers.PlayController--><path codeLine="24" d="M450.6225,376.38 C501.5365,394.379 567.9695,419.588 623.9785,449 C634.1175,454.324 644.3805,460.205 654.5855,466.387 " fill="none" id="usantatecla.mastermind.controllers.ControllersVisitor-to-usantatecla.mastermind.controllers.PlayController" style="stroke:#A80036;stroke-width:1.0;stroke-dasharray:7.0,7.0;"/><polygon fill="#A80036" points="658.9545,469.055,653.358,460.9507,654.6872,466.4492,649.1887,467.7784,658.9545,469.055" style="stroke:#A80036;stroke-width:1.0;"/><!--MD5=[5fda9894aef5495f7be60836ed04b7b6]
link usantatecla.mastermind.controllers.PlayController to usantatecla.mastermind.controllers.ControllersVisitor--><path codeLine="54" d="M658.5855,448.794 C593.4995,414.668 514.4295,386.216 455.4105,368.147 " fill="none" id="usantatecla.mastermind.controllers.PlayController-to-usantatecla.mastermind.controllers.ControllersVisitor" style="stroke:#A80036;stroke-width:1.0;stroke-dasharray:7.0,7.0;"/><polygon fill="#A80036" points="450.4815,366.648,457.9274,373.0946,455.265,368.1035,460.2561,365.4411,450.4815,366.648" style="stroke:#A80036;stroke-width:1.0;"/><!--MD5=[ec7073da616e8e4af445466fbcd0dd68]
link usantatecla.mastermind.controllers.ControllersVisitor to usantatecla.mastermind.controllers.ResumeController--><path codeLine="25" d="M318.0015,389.092 C279.9265,423.91 229.9775,473.284 196.5255,509.11 " fill="none" id="usantatecla.mastermind.controllers.ControllersVisitor-to-usantatecla.mastermind.controllers.ResumeController" style="stroke:#A80036;stroke-width:1.0;stroke-dasharray:7.0,7.0;"/><polygon fill="#A80036" points="192.9365,512.971,201.9942,509.1035,196.3411,509.3092,196.1354,503.6561,192.9365,512.971" style="stroke:#A80036;stroke-width:1.0;"/><!--MD5=[5b5517e0bcba9fd2a01b3c4b592546c0]
link usantatecla.mastermind.controllers.ResumeController to usantatecla.mastermind.controllers.ControllersVisitor--><path codeLine="89" d="M214.5035,512.971 C252.7355,478.17 302.6945,428.796 336.0055,392.955 " fill="none" id="usantatecla.mastermind.controllers.ResumeController-to-usantatecla.mastermind.controllers.ControllersVisitor" style="stroke:#A80036;stroke-width:1.0;stroke-dasharray:7.0,7.0;"/><polygon fill="#A80036" points="339.5795,389.092,330.5312,392.9814,336.1838,392.762,336.4032,398.4146,339.5795,389.092" style="stroke:#A80036;stroke-width:1.0;"/><!--MD5=[de0ca0b10a767fc31717304f2f1a45a5]
link usantatecla.mastermind.controllers.Logic to Session--><path codeLine="31" d="M941.0111,86.8465 C941.0111,86.8465 1084.5885,121.85 1132.9785,175 C1184.9085,232.04 1167.9785,267.86 1167.9785,345 C1167.9785,345 1167.9785,345 1167.9785,557 C1167.9785,737.471 1100.1085,803.111 945.9785,897 C878.8265,937.907 672.1945,924.9419 593.9785,933 C517.1745,940.9126 429.9445,949.9697 366.2965,956.5913 " fill="none" id="usantatecla.mastermind.controllers.Logic-Session" style="stroke:#A80036;stroke-width:1.0;"/><polygon fill="#A80036" points="353.0855,957.966,362.4512,961.0129,358.0586,957.4484,361.6231,953.0558,353.0855,957.966" style="stroke:#A80036;stroke-width:1.0;"/><line style="stroke:#A80036;stroke-width:1.0;" x1="358.0586" x2="366.0155" y1="957.4484" y2="956.6205"/><polygon fill="#A80036" points="929.1485,85.036,934.4763,89.8955,941.0111,86.8465,935.6833,81.987,929.1485,85.036" style="stroke:#A80036;stroke-width:1.0;"/><!--MD5=[d4e971768f4879fedf61c3b3dae7f6ab]
link usantatecla.mastermind.controllers.Logic to StateValue--><path codeLine="32" d="M890.6135,121.1948 C890.6135,121.1948 945.7105,153.65 970.7225,168.383 " fill="none" id="usantatecla.mastermind.controllers.Logic-StateValue" style="stroke:#A80036;stroke-width:1.0;"/><polygon fill="#A80036" points="981.9475,174.995,976.2232,166.9805,977.6394,172.4572,972.1627,173.8734,981.9475,174.995" style="stroke:#A80036;stroke-width:1.0;"/><line style="stroke:#A80036;stroke-width:1.0;" x1="977.6394" x2="970.746" y1="172.4572" y2="168.3975"/><polygon fill="#A80036" points="880.2735,115.105,883.4136,121.5965,890.6135,121.1948,887.4734,114.7032,880.2735,115.105" style="stroke:#A80036;stroke-width:1.0;"/><!--MD5=[1a3df59fc0ef8f0373c097da6f173eea]
link usantatecla.mastermind.controllers.Logic to usantatecla.mastermind.controllers.AcceptorController--><path codeLine="33" d="M714.8711,119.451 C714.8711,119.451 617.9615,157.106 575.4185,173.636 " fill="none" id="usantatecla.mastermind.controllers.Logic-usantatecla.mastermind.controllers.AcceptorController" style="stroke:#A80036;stroke-width:1.0;"/><polygon fill="#A80036" points="563.0905,178.426,572.9282,178.8946,567.751,176.615,570.0306,171.4378,563.0905,178.426" style="stroke:#A80036;stroke-width:1.0;"/><line style="stroke:#A80036;stroke-width:1.0;" x1="567.751" x2="575.2085" y1="176.615" y2="173.718"/><polygon fill="#A80036" points="726.0565,115.105,719.0152,113.5495,714.8711,119.451,721.9125,121.0064,726.0565,115.105" style="stroke:#A80036;stroke-width:1.0;"/><!--MD5=[379f0ccdbcf769b62d1e7fd0ac123734]
reverse link usantatecla.mastermind.controllers.AcceptorController to usantatecla.mastermind.controllers.PlayController--><path codeLine="50" d="M526.7825,254.731 C570.2825,303.615 641.5055,383.655 699.4835,448.808 " fill="none" id="usantatecla.mastermind.controllers.AcceptorController-backto-usantatecla.mastermind.controllers.PlayController" style="stroke:#A80036;stroke-width:1.0;"/><polygon fill="none" points="521.4845,259.308,513.4185,239.713,531.9435,250.001,521.4845,259.308" style="stroke:#A80036;stroke-width:1.0;"/><!--MD5=[4c5bcb0e1da525904d64689d4ef66eaa]
link usantatecla.mastermind.controllers.PlayController to usantatecla.mastermind.controllers.PlayController--><path codeLine="51" d="M793.9785,675.316 C793.9785,675.316 793.9785,698.705 793.9785,709.421 " fill="none" id="usantatecla.mastermind.controllers.PlayController-usantatecla.mastermind.controllers.PlayController" style="stroke:#A80036;stroke-width:1.0;"/><polygon fill="#A80036" points="793.9785,722.768,797.9785,713.768,793.9785,717.768,789.9785,713.768,793.9785,722.768" style="stroke:#A80036;stroke-width:1.0;"/><line style="stroke:#A80036;stroke-width:1.0;" x1="793.9785" x2="793.9785" y1="717.768" y2="709.768"/><polygon fill="#A80036" points="793.9785,663.316,789.9785,669.316,793.9785,675.316,797.9785,669.316,793.9785,663.316" style="stroke:#A80036;stroke-width:1.0;"/><!--MD5=[e06829587bde9738332d67350ab6c02e]
link usantatecla.mastermind.controllers.PlayController to usantatecla.mastermind.controllers.UndoController--><path codeLine="52" d="M673.6577,671.5917 C673.6577,671.5917 618.5665,724.059 595.9715,745.578 " fill="none" id="usantatecla.mastermind.controllers.PlayController-usantatecla.mastermind.controllers.UndoController" style="stroke:#A80036;stroke-width:1.0;"/><polygon fill="#A80036" points="586.2625,754.825,595.5382,751.5141,589.883,751.3765,590.0206,745.7213,586.2625,754.825" style="stroke:#A80036;stroke-width:1.0;"/><line style="stroke:#A80036;stroke-width:1.0;" x1="589.883" x2="595.6765" y1="751.3765" y2="745.8595"/><polygon fill="#A80036" points="682.3475,663.316,675.244,664.5573,673.6577,671.5917,680.7612,670.3505,682.3475,663.316" style="stroke:#A80036;stroke-width:1.0;"/><!--MD5=[9e5799599a74453d548db4793f1ed649]
link usantatecla.mastermind.controllers.PlayController to usantatecla.mastermind.controllers.RedoController--><path codeLine="53" d="M648.2915,659.3467 C648.2915,659.3467 643.0285,662.009 640.9785,663 C558.1835,703.001 525.0405,681.516 442.9785,723 C429.6485,729.739 416.2475,738.284 403.8005,747.156 " fill="none" id="usantatecla.mastermind.controllers.PlayController-usantatecla.mastermind.controllers.RedoController" style="stroke:#A80036;stroke-width:1.0;"/><polygon fill="#A80036" points="393.1325,754.998,402.7528,752.8886,397.1606,752.0358,398.0134,746.4436,393.1325,754.998" style="stroke:#A80036;stroke-width:1.0;"/><line style="stroke:#A80036;stroke-width:1.0;" x1="397.1606" x2="403.607" y1="752.0358" y2="747.2975"/><polygon fill="#A80036" points="658.9085,653.754,651.7357,653.0113,648.2915,659.3467,655.4642,660.0894,658.9085,653.754" style="stroke:#A80036;stroke-width:1.0;"/><!--MD5=[a4458679fa4e0fcda8bf8fe1b89db6b5]
link usantatecla.mastermind.controllers.PlayController to Session--><path codeLine="55" d="M658.9475,655.077 C652.9865,657.954 646.9845,660.614 640.9785,663 C558.2615,695.859 303.0085,655.515 244.9785,723 C195.5865,780.439 229.9365,875.591 255.4055,928.1662 " fill="none" id="usantatecla.mastermind.controllers.PlayController-to-Session" style="stroke:#A80036;stroke-width:1.0;stroke-dasharray:7.0,7.0;"/><polygon fill="#A80036" points="257.6845,932.808,257.3072,922.9664,255.4803,928.3201,250.1265,926.4931,257.6845,932.808" style="stroke:#A80036;stroke-width:1.0;"/><!--MD5=[7cceb1c652af3bb106a05c60cfa6315b]
link usantatecla.mastermind.controllers.PlayController to Color--><path codeLine="56" d="M929.1445,658.173 C949.3105,677.915 968.2405,699.767 982.9785,723 C1024.1305,787.875 1041.7285,877.6 1048.7485,927.8894 " fill="none" id="usantatecla.mastermind.controllers.PlayController-to-Color" style="stroke:#A80036;stroke-width:1.0;stroke-dasharray:7.0,7.0;"/><polygon fill="#A80036" points="1049.4385,932.9287,1052.1882,923.4715,1048.7642,927.9744,1044.2613,924.5504,1049.4385,932.9287" style="stroke:#A80036;stroke-width:1.0;"/><!--MD5=[a00fa74810429ad005db5948e3e13f5a]
link usantatecla.mastermind.controllers.PlayController to Error--><path codeLine="57" d="M911.3725,663.388 C925.4755,681.802 937.7685,701.875 945.9785,723 C973.9935,795.08 976.0825,825.767 945.9785,897 C941.0025,908.7755 932.9245,919.5328 923.9675,928.8696 " fill="none" id="usantatecla.mastermind.controllers.PlayController-to-Error" style="stroke:#A80036;stroke-width:1.0;stroke-dasharray:7.0,7.0;"/><polygon fill="#A80036" points="920.0815,932.783,929.2611,929.2144,923.6043,929.2348,923.584,923.578,920.0815,932.783" style="stroke:#A80036;stroke-width:1.0;"/><!--MD5=[355b9902740da4b2ec85e8089918fd93]
reverse link usantatecla.mastermind.controllers.Controller to usantatecla.mastermind.controllers.PlayController--><path codeLine="69" d="M595.2325,609.105 C608.9985,626.79 625.0695,646.289 640.9785,663 C660.3335,683.331 682.4225,703.958 703.6815,722.735 " fill="none" id="usantatecla.mastermind.controllers.Controller-backto-usantatecla.mastermind.controllers.PlayController" style="stroke:#A80036;stroke-width:1.0;"/><polygon fill="none" points="589.6465,613.323,583.0665,593.181,600.7705,604.824,589.6465,613.323" style="stroke:#A80036;stroke-width:1.0;"/><!--MD5=[9ab8b060fd1c6972838e9ee712ff95cb]
link usantatecla.mastermind.controllers.PlayController to Session--><path codeLine="70" d="M689.7975,873.038 C673.9495,882.117 657.3945,890.476 640.9785,897 C548.2135,933.8645 434.1895,951.3751 358.5275,959.4588 " fill="none" id="usantatecla.mastermind.controllers.PlayController-to-Session" style="stroke:#A80036;stroke-width:1.0;stroke-dasharray:7.0,7.0;"/><polygon fill="#A80036" points="353.1465,960.0247,362.5154,963.0616,358.1191,959.5018,361.6789,955.1055,353.1465,960.0247" style="stroke:#A80036;stroke-width:1.0;"/><!--MD5=[765bda7c14cd5ed1cc66a669d2aefa21]
link usantatecla.mastermind.controllers.PlayController to Combination--><path codeLine="71" d="M747.7565,873.221 C735.8555,892.331 723.5465,912.0982 713.3625,928.4505 " fill="none" id="usantatecla.mastermind.controllers.PlayController-to-Combination" style="stroke:#A80036;stroke-width:1.0;stroke-dasharray:7.0,7.0;"/><polygon fill="#A80036" points="710.5485,932.9688,718.7016,927.4436,713.1916,928.7245,711.9107,923.2146,710.5485,932.9688" style="stroke:#A80036;stroke-width:1.0;"/><!--MD5=[69852a3216d5517651367a7065e7f1c9]
link usantatecla.mastermind.controllers.PlayController to Color--><path codeLine="72" d="M909.0875,873.221 C939.7395,892.985 971.4795,913.4505 997.3255,930.1155 " fill="none" id="usantatecla.mastermind.controllers.PlayController-to-Color" style="stroke:#A80036;stroke-width:1.0;stroke-dasharray:7.0,7.0;"/><polygon fill="#A80036" points="1001.7505,932.9688,996.3547,924.7295,997.5485,930.259,992.019,931.4527,1001.7505,932.9688" style="stroke:#A80036;stroke-width:1.0;"/><!--MD5=[aec0234761dc3837780669c056a8373c]
link usantatecla.mastermind.controllers.PlayController to Error--><path codeLine="73" d="M829.9775,873.221 C839.2475,892.331 848.8345,912.0982 856.7655,928.4505 " fill="none" id="usantatecla.mastermind.controllers.PlayController-to-Error" style="stroke:#A80036;stroke-width:1.0;stroke-dasharray:7.0,7.0;"/><polygon fill="#A80036" points="858.9575,932.9688,858.6287,923.1254,856.7754,928.4701,851.4308,926.6168,858.9575,932.9688" style="stroke:#A80036;stroke-width:1.0;"/><!--MD5=[c261ca396b56eef96f31726476ebc83a]
reverse link usantatecla.mastermind.controllers.Controller to usantatecla.mastermind.controllers.RedoController--><path codeLine="80" d="M516.4595,609.365 C502.6585,626.701 486.9345,645.92 471.9785,663 C444.3205,694.586 411.5985,728.791 386.1625,754.736 " fill="none" id="usantatecla.mastermind.controllers.Controller-backto-usantatecla.mastermind.controllers.RedoController" style="stroke:#A80036;stroke-width:1.0;"/><polygon fill="none" points="511.1305,604.818,529.0145,593.452,522.1215,613.49,511.1305,604.818" style="stroke:#A80036;stroke-width:1.0;"/><!--MD5=[6949940d570fa604284c61d29fe92a26]
link usantatecla.mastermind.controllers.RedoController to Session--><path codeLine="81" d="M326.8195,841.141 C315.9295,867.885 301.9565,902.2006 291.4165,928.0872 " fill="none" id="usantatecla.mastermind.controllers.RedoController-to-Session" style="stroke:#A80036;stroke-width:1.0;stroke-dasharray:7.0,7.0;"/><polygon fill="#A80036" points="289.4895,932.819,296.5888,925.9926,291.3755,928.1883,289.1797,922.975,289.4895,932.819" style="stroke:#A80036;stroke-width:1.0;"/><!--MD5=[2264cd0d86bf15401f4cc8d2024044e5]
reverse link usantatecla.mastermind.controllers.AcceptorController to usantatecla.mastermind.controllers.ResumeController--><path codeLine="88" d="M383.7485,237.692 C345.5015,252.099 304.1485,273.126 273.9785,303 C214.5255,361.87 183.6195,457.571 169.9675,512.54 " fill="none" id="usantatecla.mastermind.controllers.AcceptorController-backto-usantatecla.mastermind.controllers.ResumeController" style="stroke:#A80036;stroke-width:1.0;"/><polygon fill="none" points="381.6085,231.024,402.7985,230.946,386.2825,244.221,381.6085,231.024" style="stroke:#A80036;stroke-width:1.0;"/><!--MD5=[3af92274176a956758db217dff904abe]
link usantatecla.mastermind.controllers.ResumeController to Session--><path codeLine="90" d="M129.4354,599.23 C82.369,667.827 6,805.033 71.9785,897 C99.6267,935.5385 149.9695,952.8258 193.7235,960.4601 " fill="none" id="usantatecla.mastermind.controllers.ResumeController-to-Session" style="stroke:#A80036;stroke-width:1.0;stroke-dasharray:7.0,7.0;"/><polygon fill="#A80036" points="198.7515,961.3004,190.534,955.8715,193.8199,960.4761,189.2152,963.762,198.7515,961.3004" style="stroke:#A80036;stroke-width:1.0;"/><!--MD5=[02047fc267f90dbff0ceeeb40ca60065]
reverse link usantatecla.mastermind.controllers.AcceptorController to usantatecla.mastermind.controllers.StartController--><path codeLine="97" d="M487.2715,259.643 C486.1665,296.238 481.8425,346.781 467.9785,389 C453.1385,434.191 424.7645,480.506 402.5215,512.692 " fill="none" id="usantatecla.mastermind.controllers.AcceptorController-backto-usantatecla.mastermind.controllers.StartController" style="stroke:#A80036;stroke-width:1.0;"/><polygon fill="none" points="480.2735,259.505,487.5985,239.622,494.2715,259.734,480.2735,259.505" style="stroke:#A80036;stroke-width:1.0;"/><!--MD5=[af330a5675265c8717d1c63023b47a90]
link usantatecla.mastermind.controllers.StartController to Session--><path codeLine="99" d="M338.2005,599.061 C319.7405,620.511 295.1705,645.658 268.9785,663 C206.6935,704.239 154.3345,661.469 111.9785,723 C68.1292,786.7 69.193,832.581 111.9785,897 C130.4717,924.8441 162.6335,941.4774 193.6045,951.4024 " fill="none" id="usantatecla.mastermind.controllers.StartController-to-Session" style="stroke:#A80036;stroke-width:1.0;stroke-dasharray:7.0,7.0;"/><polygon fill="#A80036" points="198.5625,952.9384,191.148,946.4558,193.7861,951.4598,188.7821,954.0979,198.5625,952.9384" style="stroke:#A80036;stroke-width:1.0;"/><!--MD5=[08ab9648594bbb5d181ba39b960dc928]
reverse link usantatecla.mastermind.controllers.Controller to usantatecla.mastermind.controllers.UndoController--><path codeLine="106" d="M553.4565,613.345 C550.7495,656.662 547.0695,715.551 544.6135,754.847 " fill="none" id="usantatecla.mastermind.controllers.Controller-backto-usantatecla.mastermind.controllers.UndoController" style="stroke:#A80036;stroke-width:1.0;"/><polygon fill="none" points="546.4825,612.715,554.7165,593.19,560.4555,613.588,546.4825,612.715" style="stroke:#A80036;stroke-width:1.0;"/><!--MD5=[9cb27cffd757e6232e1deb30d45926dc]
link usantatecla.mastermind.controllers.UndoController to Session--><path codeLine="107" d="M506.0505,841.44 C488.4805,860.279 466.1495,881.618 442.9785,897 C417.0375,914.2218 386.1065,928.4618 357.9555,939.4432 " fill="none" id="usantatecla.mastermind.controllers.UndoController-to-Session" style="stroke:#A80036;stroke-width:1.0;stroke-dasharray:7.0,7.0;"/><polygon fill="#A80036" points="353.0995,941.3163,362.9361,941.8083,357.7643,939.5164,360.0562,934.3446,353.0995,941.3163" style="stroke:#A80036;stroke-width:1.0;"/><!--MD5=[17975cf433431f1237e412d90d38f424]
@startuml
abstract class Combination as "usantatecla.\nmastermind.models.\nCombination"
class Session as "usantatecla.\nmastermind.models.\nSession"
class StateValue as "usantatecla.\nmastermind.models.\nStateValue"
enum Color as "usantatecla.\nmastermind.types.\nColor"
enum Error as "usantatecla.\nmastermind.types.\nError"

interface  usantatecla.mastermind.controllers.AcceptorController{
    + accept(ControllersVisitor)
}
usantatecla.mastermind.controllers.AcceptorController .down.> usantatecla.mastermind.controllers.ControllersVisitor

class  usantatecla.mastermind.controllers.Controller{
    ~ Controller(Session)
    + getWidth(): int
}
usantatecla.mastermind.controllers.Controller *-down-> Session

interface  usantatecla.mastermind.controllers.ControllersVisitor{
    ~ visit(StartController)
    ~ visit(PlayController)
    ~ visit(ResumeController)
}
usantatecla.mastermind.controllers.ControllersVisitor .down.> usantatecla.mastermind.controllers.StartController
usantatecla.mastermind.controllers.ControllersVisitor .down.> usantatecla.mastermind.controllers.PlayController
usantatecla.mastermind.controllers.ControllersVisitor .down.> usantatecla.mastermind.controllers.ResumeController

class  usantatecla.mastermind.controllers.Logic{
    + Logic()
    + getController(): AcceptorController
}
usantatecla.mastermind.controllers.Logic *-down-> Session
usantatecla.mastermind.controllers.Logic *-down-> StateValue
usantatecla.mastermind.controllers.Logic *-down-> usantatecla.mastermind.controllers.AcceptorController

class  usantatecla.mastermind.controllers.PlayController{
    + PlayController(Session)
    + addProposeCombination(List<Color>): Error
    + undo()
    + redo()
    + undoable(): boolean
    + redoable(): boolean
    + isWinner(): boolean
    + isLooser(): boolean
    + getAttempts(): int
    + getColors(int): List<Color>
    + getBlacks(int): int
    + getWhites(int): int
    + accept(ControllersVisitor)
}
usantatecla.mastermind.controllers.AcceptorController <|-down- usantatecla.mastermind.controllers.PlayController
usantatecla.mastermind.controllers.PlayController *-down-> usantatecla.mastermind.controllers.PlayController
usantatecla.mastermind.controllers.PlayController *-down-> usantatecla.mastermind.controllers.UndoController
usantatecla.mastermind.controllers.PlayController *-down-> usantatecla.mastermind.controllers.RedoController
usantatecla.mastermind.controllers.PlayController .down.> usantatecla.mastermind.controllers.ControllersVisitor
usantatecla.mastermind.controllers.PlayController .down.> Session
usantatecla.mastermind.controllers.PlayController .down.> Color
usantatecla.mastermind.controllers.PlayController .down.> Error

class  usantatecla.mastermind.controllers.PlayController{
    ~ ProposalController(Session)
    ~ addProposeCombination(List<Color>): Error
    ~ isWinner(): boolean
    ~ isLooser(): boolean
    ~ getAttempts(): int
    ~ getColors(int): List<Color>
    ~ getBlacks(int): int
    ~ getWhites(int): int
}
usantatecla.mastermind.controllers.Controller <|-down- usantatecla.mastermind.controllers.PlayController
usantatecla.mastermind.controllers.PlayController .down.> Session
usantatecla.mastermind.controllers.PlayController .down.> Combination
usantatecla.mastermind.controllers.PlayController .down.> Color
usantatecla.mastermind.controllers.PlayController .down.> Error

class  usantatecla.mastermind.controllers.RedoController{
    ~ RedoController(Session)
    ~ redo()
    ~ redoable(): boolean
}
usantatecla.mastermind.controllers.Controller <|-down- usantatecla.mastermind.controllers.RedoController
usantatecla.mastermind.controllers.RedoController .down.> Session

class  usantatecla.mastermind.controllers.ResumeController{
    + ResumeController(Session)
    + resume(boolean)
    + accept(ControllersVisitor)
}
usantatecla.mastermind.controllers.AcceptorController <|-down- usantatecla.mastermind.controllers.ResumeController
usantatecla.mastermind.controllers.ResumeController .down.> usantatecla.mastermind.controllers.ControllersVisitor
usantatecla.mastermind.controllers.ResumeController .down.> Session

class  usantatecla.mastermind.controllers.StartController{
    + StartController(Session)
    + start()
    + accept(ControllersVisitor)
}
usantatecla.mastermind.controllers.AcceptorController <|-down- usantatecla.mastermind.controllers.StartController
usantatecla.mastermind.controllers.StartController .down.> usantatecla.mastermind.controllers.ControllersVisitor
usantatecla.mastermind.controllers.StartController .down.> Session

class  usantatecla.mastermind.controllers.UndoController{
    ~ UndoController(Session)
    ~ undo()
    ~ undoable(): boolean
}
usantatecla.mastermind.controllers.Controller <|-down- usantatecla.mastermind.controllers.UndoController
usantatecla.mastermind.controllers.UndoController .down.> Session
@enduml

PlantUML version 1.2020.23beta3(Unknown compile time)
(GPL source distribution)
Java Runtime: Java(TM) SE Runtime Environment
JVM: Java HotSpot(TM) 64-Bit Server VM
Default Encoding: UTF-8
Language: en
Country: US
--></g></svg>