<?xml version="1.0" encoding="UTF-8" standalone="no"?><svg xmlns="http://www.w3.org/2000/svg" xmlns:xlink="http://www.w3.org/1999/xlink" contentScriptType="application/ecmascript" contentStyleType="text/css" height="253px" preserveAspectRatio="none" style="width:378px;height:253px;" version="1.1" viewBox="0 0 378 253" width="378px" zoomAndPan="magnify"><defs><filter height="300%" id="fp4je30lmy3tf" width="300%" x="-1" y="-1"><feGaussianBlur result="blurOut" stdDeviation="2.0"/><feColorMatrix in="blurOut" result="blurOut2" type="matrix" values="0 0 0 0 0 0 0 0 0 0 0 0 0 0 0 0 0 0 .4 0"/><feOffset dx="4.0" dy="4.0" in="blurOut2" result="blurOut3"/><feBlend in="SourceGraphic" in2="blurOut3" mode="normal"/></filter></defs><g><!--MD5=[8c0210f25e02723f65a0c6cf47cc6884]
cluster usantatecla.mastermind.types--><polygon fill="#FFFFFF" filter="url(#fp4je30lmy3tf)" points="16,6,273,6,280,28.2969,361,28.2969,361,246,16,246,16,6" style="stroke:#000000;stroke-width:1.5;"/><line style="stroke:#000000;stroke-width:1.5;" x1="16" x2="280" y1="28.2969" y2="28.2969"/><text fill="#000000" font-family="sans-serif" font-size="14" font-weight="bold" lengthAdjust="spacingAndGlyphs" textLength="251" x="20" y="20.9951">usantatecla.mastermind.types</text><!--MD5=[9ba97027f3433c7bc0635c95b0f40e9e]
class usantatecla.mastermind.types.Color--><rect codeLine="1" fill="#FEFECE" filter="url(#fp4je30lmy3tf)" height="188.8516" id="usantatecla.mastermind.types.Color" style="stroke:#A80036;stroke-width:1.5;" width="126" x="219" y="41"/><ellipse cx="261.9" cy="57" fill="#EB937F" rx="11" ry="11" style="stroke:#A80036;stroke-width:1.0;"/><path d="M260.6969,57.875 L262.15,57.875 L262.15,57.9844 C262.15,58.3906 262.1813,58.5469 262.2594,58.7031 C262.4156,58.9531 262.6969,59.1094 262.9938,59.1094 C263.2438,59.1094 263.5094,58.9688 263.6656,58.75 C263.7906,58.5938 263.8219,58.4375 263.8219,57.9844 L263.8219,56.0625 C263.8219,55.9063 263.8219,55.8594 263.8063,55.7031 C263.7438,55.2344 263.4313,54.9219 262.9781,54.9219 C262.7281,54.9219 262.4625,55.0625 262.2906,55.2813 C262.1813,55.4531 262.15,55.6094 262.15,56.0625 L262.15,56.1875 L260.6969,56.1875 L260.6969,53.7813 L264.6813,53.7813 L264.6813,54.6406 C264.6813,55.0469 264.7125,55.2188 264.7906,55.375 C264.9625,55.625 265.2438,55.7813 265.525,55.7813 C265.7906,55.7813 266.0563,55.6406 266.2281,55.4219 C266.3375,55.25 266.3688,55.1094 266.3688,54.6406 L266.3688,52.0938 L258.7438,52.0938 C258.3063,52.0938 258.1813,52.1094 258.025,52.2031 C257.775,52.3594 257.6188,52.6563 257.6188,52.9375 C257.6188,53.2188 257.7594,53.4688 257.9781,53.6406 C258.1344,53.75 258.3219,53.7813 258.7438,53.7813 L258.9938,53.7813 L258.9938,60.2969 L258.7438,60.2969 C258.3375,60.2969 258.1813,60.3125 258.025,60.4219 C257.775,60.5938 257.6188,60.8594 257.6188,61.1563 C257.6188,61.4219 257.7594,61.6719 257.9781,61.8281 C258.1188,61.9531 258.3531,62 258.7438,62 L266.7438,62 L266.7438,59.4219 C266.7438,58.9844 266.7125,58.8438 266.6344,58.6875 C266.4625,58.4375 266.1813,58.2813 265.9,58.2813 C265.6344,58.2813 265.3688,58.3906 265.1969,58.6406 C265.0875,58.7969 265.0563,58.9375 265.0563,59.4219 L265.0563,60.2969 L260.6969,60.2969 L260.6969,57.875 Z " fill="#000000"/><text fill="#000000" font-family="sans-serif" font-size="12" lengthAdjust="spacingAndGlyphs" textLength="32" x="282.1" y="61.1543">Color</text><line style="stroke:#A80036;stroke-width:1.5;" x1="220" x2="344" y1="73" y2="73"/><ellipse cx="230" cy="84" fill="none" rx="3" ry="3" style="stroke:#038048;stroke-width:1.0;"/><text fill="#000000" font-family="sans-serif" font-size="11" lengthAdjust="spacingAndGlyphs" textLength="23" x="239" y="87.2104">RED</text><ellipse cx="230" cy="96.8047" fill="none" rx="3" ry="3" style="stroke:#038048;stroke-width:1.0;"/><text fill="#000000" font-family="sans-serif" font-size="11" lengthAdjust="spacingAndGlyphs" textLength="29" x="239" y="100.0151">BLUE</text><ellipse cx="230" cy="109.6094" fill="none" rx="3" ry="3" style="stroke:#038048;stroke-width:1.0;"/><text fill="#000000" font-family="sans-serif" font-size="11" lengthAdjust="spacingAndGlyphs" textLength="46" x="239" y="112.8198">YELLOW</text><ellipse cx="230" cy="122.4141" fill="none" rx="3" ry="3" style="stroke:#038048;stroke-width:1.0;"/><text fill="#000000" font-family="sans-serif" font-size="11" lengthAdjust="spacingAndGlyphs" textLength="38" x="239" y="125.6245">GREEN</text><ellipse cx="230" cy="135.2188" fill="none" rx="3" ry="3" style="stroke:#038048;stroke-width:1.0;"/><text fill="#000000" font-family="sans-serif" font-size="11" lengthAdjust="spacingAndGlyphs" textLength="48" x="239" y="138.4292">ORANGE</text><ellipse cx="230" cy="148.0234" fill="none" rx="3" ry="3" style="stroke:#038048;stroke-width:1.0;"/><text fill="#000000" font-family="sans-serif" font-size="11" lengthAdjust="spacingAndGlyphs" textLength="40" x="239" y="151.2339">PURPLE</text><ellipse cx="230" cy="160.8281" fill="none" rx="3" ry="3" style="stroke:#038048;stroke-width:1.0;"/><text fill="#000000" font-family="sans-serif" font-size="11" lengthAdjust="spacingAndGlyphs" textLength="28" x="239" y="164.0386">NULL</text><line style="stroke:#A80036;stroke-width:1.5;" x1="220" x2="344" y1="170.6328" y2="170.6328"/><polygon fill="#4177AF" points="230,177.6328,226,183.6328,234,183.6328" style="stroke:#1963A0;stroke-width:1.0;"/><text fill="#000000" font-family="sans-serif" font-size="11" lengthAdjust="spacingAndGlyphs" text-decoration="underline" textLength="65" x="239" y="184.8433">length(): int</text><ellipse cx="230" cy="194.4375" fill="#84BE84" rx="3" ry="3" style="stroke:#038048;stroke-width:1.0;"/><text fill="#000000" font-family="sans-serif" font-size="11" lengthAdjust="spacingAndGlyphs" textLength="91" x="239" y="197.6479">isNull(): boolean</text><ellipse cx="230" cy="207.2422" fill="#84BE84" rx="3" ry="3" style="stroke:#038048;stroke-width:1.0;"/><text fill="#000000" font-family="sans-serif" font-size="11" lengthAdjust="spacingAndGlyphs" text-decoration="underline" textLength="100" x="239" y="210.4526">parse(char): Color</text><ellipse cx="230" cy="220.0469" fill="#84BE84" rx="3" ry="3" style="stroke:#038048;stroke-width:1.0;"/><text fill="#000000" font-family="sans-serif" font-size="11" lengthAdjust="spacingAndGlyphs" textLength="92" x="239" y="223.2573">toString(): String</text><!--MD5=[361325273302787e4c8f3934acbb17be]
class usantatecla.mastermind.types.Error--><rect codeLine="15" fill="#FEFECE" filter="url(#fp4je30lmy3tf)" height="112.0234" id="usantatecla.mastermind.types.Error" style="stroke:#A80036;stroke-width:1.5;" width="152" x="32" y="79.5"/><ellipse cx="88.75" cy="95.5" fill="#EB937F" rx="11" ry="11" style="stroke:#A80036;stroke-width:1.0;"/><path d="M87.5469,96.375 L89,96.375 L89,96.4844 C89,96.8906 89.0313,97.0469 89.1094,97.2031 C89.2656,97.4531 89.5469,97.6094 89.8438,97.6094 C90.0938,97.6094 90.3594,97.4688 90.5156,97.25 C90.6406,97.0938 90.6719,96.9375 90.6719,96.4844 L90.6719,94.5625 C90.6719,94.4063 90.6719,94.3594 90.6563,94.2031 C90.5938,93.7344 90.2813,93.4219 89.8281,93.4219 C89.5781,93.4219 89.3125,93.5625 89.1406,93.7813 C89.0313,93.9531 89,94.1094 89,94.5625 L89,94.6875 L87.5469,94.6875 L87.5469,92.2813 L91.5313,92.2813 L91.5313,93.1406 C91.5313,93.5469 91.5625,93.7188 91.6406,93.875 C91.8125,94.125 92.0938,94.2813 92.375,94.2813 C92.6406,94.2813 92.9063,94.1406 93.0781,93.9219 C93.1875,93.75 93.2188,93.6094 93.2188,93.1406 L93.2188,90.5938 L85.5938,90.5938 C85.1563,90.5938 85.0313,90.6094 84.875,90.7031 C84.625,90.8594 84.4688,91.1563 84.4688,91.4375 C84.4688,91.7188 84.6094,91.9688 84.8281,92.1406 C84.9844,92.25 85.1719,92.2813 85.5938,92.2813 L85.8438,92.2813 L85.8438,98.7969 L85.5938,98.7969 C85.1875,98.7969 85.0313,98.8125 84.875,98.9219 C84.625,99.0938 84.4688,99.3594 84.4688,99.6563 C84.4688,99.9219 84.6094,100.1719 84.8281,100.3281 C84.9688,100.4531 85.2031,100.5 85.5938,100.5 L93.5938,100.5 L93.5938,97.9219 C93.5938,97.4844 93.5625,97.3438 93.4844,97.1875 C93.3125,96.9375 93.0313,96.7813 92.75,96.7813 C92.4844,96.7813 92.2188,96.8906 92.0469,97.1406 C91.9375,97.2969 91.9063,97.4375 91.9063,97.9219 L91.9063,98.7969 L87.5469,98.7969 L87.5469,96.375 Z " fill="#000000"/><text fill="#000000" font-family="sans-serif" font-size="12" lengthAdjust="spacingAndGlyphs" textLength="30" x="109.25" y="99.6543">Error</text><line style="stroke:#A80036;stroke-width:1.5;" x1="33" x2="183" y1="111.5" y2="111.5"/><ellipse cx="43" cy="122.5" fill="none" rx="3" ry="3" style="stroke:#038048;stroke-width:1.0;"/><text fill="#000000" font-family="sans-serif" font-size="11" lengthAdjust="spacingAndGlyphs" textLength="71" x="52" y="125.7104">DUPLICATED</text><ellipse cx="43" cy="135.3047" fill="none" rx="3" ry="3" style="stroke:#038048;stroke-width:1.0;"/><text fill="#000000" font-family="sans-serif" font-size="11" lengthAdjust="spacingAndGlyphs" textLength="126" x="52" y="138.5151">WRONG_CHARACTERS</text><ellipse cx="43" cy="148.1094" fill="none" rx="3" ry="3" style="stroke:#038048;stroke-width:1.0;"/><text fill="#000000" font-family="sans-serif" font-size="11" lengthAdjust="spacingAndGlyphs" textLength="95" x="52" y="151.3198">WRONG_LENGTH</text><ellipse cx="43" cy="160.9141" fill="none" rx="3" ry="3" style="stroke:#038048;stroke-width:1.0;"/><text fill="#000000" font-family="sans-serif" font-size="11" lengthAdjust="spacingAndGlyphs" textLength="28" x="52" y="164.1245">NULL</text><line style="stroke:#A80036;stroke-width:1.5;" x1="33" x2="183" y1="170.7188" y2="170.7188"/><ellipse cx="43" cy="181.7188" fill="#84BE84" rx="3" ry="3" style="stroke:#038048;stroke-width:1.0;"/><text fill="#000000" font-family="sans-serif" font-size="11" lengthAdjust="spacingAndGlyphs" textLength="91" x="52" y="184.9292">isNull(): boolean</text><!--MD5=[b705bcffb8626c8059911508ed03a26a]
@startuml
enum usantatecla.mastermind.types.Color {
    + RED
    + BLUE
    + YELLOW
    + GREEN
    + ORANGE
    + PURPLE
    + NULL
    ~ {static} length(): int
    + isNull(): boolean
    + {static} parse(char): Color
    + toString(): String
}

enum usantatecla.mastermind.types.Error {
    + DUPLICATED
    + WRONG_CHARACTERS
    + WRONG_LENGTH
    + NULL
    + isNull(): boolean
}
@enduml

PlantUML version 1.2020.23beta3(Unknown compile time)
(GPL source distribution)
Java Runtime: Java(TM) SE Runtime Environment
JVM: Java HotSpot(TM) 64-Bit Server VM
Default Encoding: UTF-8
Language: en
Country: US
--></g></svg>