<?xml version="1.0" encoding="UTF-8" standalone="no"?>
<svg xmlns="http://www.w3.org/2000/svg" contentScriptType="application/ecmascript" contentStyleType="text/css"
     height="630px" preserveAspectRatio="none" style="width:902px;height:630px;" version="1.1" viewBox="0 0 902 630"
     width="902px" zoomAndPan="magnify"><defs><filter height="300%" id="f1788o8egp2hvq" width="300%" x="-1" y="-1"><feGaussianBlur result="blurOut" stdDeviation="2.0"/><feColorMatrix in="blurOut" result="blurOut2" type="matrix" values="0 0 0 0 0 0 0 0 0 0 0 0 0 0 0 0 0 0 .4 0"/><feOffset dx="4.0" dy="4.0" in="blurOut2" result="blurOut3"/><feBlend in="SourceGraphic" in2="blurOut3" mode="normal"/></filter></defs><g><polygon fill="#DDDDDD" filter="url(#f1788o8egp2hvq)" points="409.5,6,616.5,6,623.5,28.2969,630.5,28.2969,630.5,58.5938,409.5,58.5938,409.5,6" style="stroke:#000000;stroke-width:1.5;"/><line style="stroke:#000000;stroke-width:1.5;" x1="409.5" x2="623.5" y1="28.2969" y2="28.2969"/><text fill="#000000" font-family="sans-serif" font-size="14" font-weight="bold" lengthAdjust="spacingAndGlyphs" textLength="201" x="413.5" y="20.9951">usantatecla.mastermind</text><polygon fill="#DDDDDD" filter="url(#f1788o8egp2hvq)" points="380.5,345,681.5,345,688.5,367.2969,695.5,367.2969,695.5,397.5938,380.5,397.5938,380.5,345" style="stroke:#000000;stroke-width:1.5;"/><line style="stroke:#000000;stroke-width:1.5;" x1="380.5" x2="688.5" y1="367.2969" y2="367.2969"/><text fill="#000000" font-family="sans-serif" font-size="14" font-weight="bold" lengthAdjust="spacingAndGlyphs" textLength="295" x="384.5" y="359.9951">usantatecla.mastermind.controllers</text><polygon fill="#DDDDDD" filter="url(#f1788o8egp2hvq)" points="396,458,666,458,673,480.2969,680,480.2969,680,510.5938,396,510.5938,396,458" style="stroke:#000000;stroke-width:1.5;"/><line style="stroke:#000000;stroke-width:1.5;" x1="396" x2="673" y1="480.2969" y2="480.2969"/><text fill="#000000" font-family="sans-serif" font-size="14" font-weight="bold" lengthAdjust="spacingAndGlyphs" textLength="264" x="400" y="472.9951">usantatecla.mastermind.models</text><polygon fill="#FFFFFF" filter="url(#f1788o8egp2hvq)" points="494.5,571,567.5,571,574.5,593.2969,581.5,593.2969,581.5,623.5938,494.5,623.5938,494.5,571" style="stroke:#000000;stroke-width:1.5;"/><line style="stroke:#000000;stroke-width:1.5;" x1="494.5" x2="574.5" y1="593.2969" y2="593.2969"/><text fill="#000000" font-family="sans-serif" font-size="14" font-weight="bold" lengthAdjust="spacingAndGlyphs" textLength="67" x="498.5" y="585.9951">java.util</text><polygon fill="#DDDDDD" filter="url(#f1788o8egp2hvq)" points="42,232,188,232,195,254.2969,202,254.2969,202,284.5938,42,284.5938,42,232" style="stroke:#000000;stroke-width:1.5;"/><line style="stroke:#000000;stroke-width:1.5;" x1="42" x2="195" y1="254.2969" y2="254.2969"/><text fill="#000000" font-family="sans-serif" font-size="14" font-weight="bold" lengthAdjust="spacingAndGlyphs" textLength="140" x="46" y="246.9951">usantatecla.utils</text><polygon fill="#FFFFFF" filter="url(#f1788o8egp2hvq)" points="85,345,145,345,152,367.2969,159,367.2969,159,397.5938,85,397.5938,85,345" style="stroke:#000000;stroke-width:1.5;"/><line style="stroke:#000000;stroke-width:1.5;" x1="85" x2="152" y1="367.2969" y2="367.2969"/><text fill="#000000" font-family="sans-serif" font-size="14" font-weight="bold" lengthAdjust="spacingAndGlyphs" textLength="54" x="89" y="359.9951">java.io</text><polygon fill="#DDDDDD" filter="url(#f1788o8egp2hvq)" points="308.5,232,565.5,232,572.5,254.2969,579.5,254.2969,579.5,284.5938,308.5,284.5938,308.5,232" style="stroke:#000000;stroke-width:1.5;"/><line style="stroke:#000000;stroke-width:1.5;" x1="308.5" x2="572.5" y1="254.2969" y2="254.2969"/><text fill="#000000" font-family="sans-serif" font-size="14" font-weight="bold" lengthAdjust="spacingAndGlyphs" textLength="251" x="312.5" y="246.9951">usantatecla.mastermind.views</text><polygon fill="#DDDDDD" filter="url(#f1788o8egp2hvq)" points="16,119,340,119,347,141.2969,354,141.2969,354,171.5938,16,171.5938,16,119" style="stroke:#000000;stroke-width:1.5;"/><line style="stroke:#000000;stroke-width:1.5;" x1="16" x2="347" y1="141.2969" y2="141.2969"/><text fill="#000000" font-family="sans-serif" font-size="14" font-weight="bold" lengthAdjust="spacingAndGlyphs" textLength="318" x="20" y="133.9951">usantatecla.mastermind.views.console</text><polygon fill="#DDDDDD" filter="url(#f1788o8egp2hvq)" points="460,119,792,119,799,141.2969,806,141.2969,806,171.5938,460,171.5938,460,119" style="stroke:#000000;stroke-width:1.5;"/><line style="stroke:#000000;stroke-width:1.5;" x1="460" x2="799" y1="141.2969" y2="141.2969"/><text fill="#000000" font-family="sans-serif" font-size="14" font-weight="bold" lengthAdjust="spacingAndGlyphs" textLength="326" x="464" y="133.9951">usantatecla.mastermind.views.graphics</text><!--MD5=[666e057f4f4cec1308ce1e8b816302eb]
link usantatecla.mastermind.controllers to usantatecla.mastermind.models--><path codeLine="4" d="M538,398.245 C538,414.496 538,435.579 538,452.714 " fill="none" id="usantatecla.mastermind.controllers-to-usantatecla.mastermind.models" style="stroke:#A80036;stroke-width:1.0;stroke-dasharray:7.0,7.0;"/><polygon fill="#A80036" points="538,457.895,542,448.895,538,452.895,534,448.895,538,457.895" style="stroke:#A80036;stroke-width:1.0;"/><!--MD5=[4e19c524e2c69b87d36da5f0fb3d6b68]
link usantatecla.mastermind to usantatecla.mastermind.views--><path codeLine="5" d="M486.76,59.356 C469.886,74.648 451.077,95.582 442,119 C428.418,154.04 432.164,197.911 437.143,226.774 " fill="none" id="usantatecla.mastermind-to-usantatecla.mastermind.views" style="stroke:#A80036;stroke-width:1.0;stroke-dasharray:7.0,7.0;"/><polygon fill="#A80036" points="438.083,231.983,440.4229,222.4161,437.196,227.0623,432.5498,223.8354,438.083,231.983" style="stroke:#A80036;stroke-width:1.0;"/><!--MD5=[154cfa84253b6c83652f8cc515248a6d]
link usantatecla.mastermind to usantatecla.mastermind.views.console--><path codeLine="6" d="M442.724,59.105 C390.111,76.538 320.569,99.58 266.985,117.335 " fill="none" id="usantatecla.mastermind-to-usantatecla.mastermind.views.console" style="stroke:#A80036;stroke-width:1.0;stroke-dasharray:7.0,7.0;"/><polygon fill="#A80036" points="262.177,118.928,271.9784,119.8935,266.9231,117.355,269.4616,112.2997,262.177,118.928" style="stroke:#A80036;stroke-width:1.0;"/><!--MD5=[77bfac299a9dfa14d994751e1b13d1fb]
link usantatecla.mastermind to usantatecla.mastermind.views.graphics--><path codeLine="7" d="M546.208,59.245 C563.18,75.916 585.329,97.673 603.004,115.035 " fill="none" id="usantatecla.mastermind-to-usantatecla.mastermind.views.graphics" style="stroke:#A80036;stroke-width:1.0;stroke-dasharray:7.0,7.0;"/><polygon fill="#A80036" points="606.934,118.895,603.3169,109.7344,603.3672,115.391,597.7105,115.4413,606.934,118.895" style="stroke:#A80036;stroke-width:1.0;"/><!--MD5=[2a502374d5d26006479c2bc6dea56d42]
link usantatecla.mastermind to usantatecla.mastermind.controllers--><path d="M630.804,50.481 C707.313,64.731 799.374,87.784 823,119 C895.204,214.399 722.186,300.817 615.072,343.126 " fill="none" id="usantatecla.mastermind-to-usantatecla.mastermind.controllers" style="stroke:#A80036;stroke-width:1.0;stroke-dasharray:7.0,7.0;"/><polygon fill="#A80036" points="610.34,344.983,620.1793,345.4176,614.9942,343.1559,617.2559,337.9708,610.34,344.983" style="stroke:#A80036;stroke-width:1.0;"/><!--MD5=[58f66f5f60379dd70ef75cb976dcb215]
link usantatecla.mastermind.models to java.util--><path d="M538,511.245 C538,527.4958 538,548.5795 538,565.7139 " fill="none" id="usantatecla.mastermind.models-to-java.util" style="stroke:#A80036;stroke-width:1.0;stroke-dasharray:7.0,7.0;"/><polygon fill="#A80036" points="538,570.895,542,561.895,538,565.895,534,561.895,538,570.895" style="stroke:#A80036;stroke-width:1.0;"/><!--MD5=[f7f372d3543268b8cc298f05137e5dac]
link usantatecla.utils to java.io--><path d="M122,285.245 C122,301.496 122,322.579 122,339.714 " fill="none" id="usantatecla.utils-to-java.io" style="stroke:#A80036;stroke-width:1.0;stroke-dasharray:7.0,7.0;"/><polygon fill="#A80036" points="122,344.895,126,335.895,122,339.895,118,335.895,122,344.895" style="stroke:#A80036;stroke-width:1.0;"/><!--MD5=[630e558b56671c28f6ec272b5a73ed8b]
link usantatecla.mastermind.views to usantatecla.mastermind.controllers--><path d="M465.802,285.245 C479.92,301.916 498.345,323.673 513.048,341.035 " fill="none" id="usantatecla.mastermind.views-to-usantatecla.mastermind.controllers" style="stroke:#A80036;stroke-width:1.0;stroke-dasharray:7.0,7.0;"/><polygon fill="#A80036" points="516.316,344.895,513.5521,335.4419,513.0847,341.0794,507.4472,340.612,516.316,344.895" style="stroke:#A80036;stroke-width:1.0;"/><!--MD5=[1b6d3441d3a24e7ba17c3ec845a2f249]
link usantatecla.mastermind.views.console to usantatecla.mastermind.controllers--><path d="M198.414,172.142 C215.829,203.075 249.022,254.689 291,285 C327.753,311.539 373.435,330.385 415.481,343.501 " fill="none" id="usantatecla.mastermind.views.console-to-usantatecla.mastermind.controllers" style="stroke:#A80036;stroke-width:1.0;stroke-dasharray:7.0,7.0;"/><polygon fill="#A80036" points="420.325,344.992,412.8989,338.5226,415.546,343.5219,410.5467,346.169,420.325,344.992" style="stroke:#A80036;stroke-width:1.0;"/><!--MD5=[4d42c51424c2fe200638a22853989c83]
link usantatecla.mastermind.views.console to usantatecla.mastermind.views--><path d="M244.745,172.105 C285.023,189.367 338.132,212.128 379.391,229.811 " fill="none" id="usantatecla.mastermind.views.console-to-usantatecla.mastermind.views" style="stroke:#A80036;stroke-width:1.0;stroke-dasharray:7.0,7.0;"/><polygon fill="#A80036" points="384.107,231.832,377.4109,224.6096,379.5114,229.8621,374.259,231.9626,384.107,231.832" style="stroke:#A80036;stroke-width:1.0;"/><!--MD5=[ea4ce8b53cd9ff973f1d13b2e6691e39]
link usantatecla.mastermind.views.console to usantatecla.utils--><path d="M170.388,172.245 C161.085,188.636 148.992,209.943 139.222,227.156 " fill="none" id="usantatecla.mastermind.views.console-to-usantatecla.utils" style="stroke:#A80036;stroke-width:1.0;stroke-dasharray:7.0,7.0;"/><polygon fill="#A80036" points="136.533,231.895,144.4532,226.0409,139.0003,227.5462,137.4951,222.0932,136.533,231.895" style="stroke:#A80036;stroke-width:1.0;"/><!--MD5=[dc6830e5e79e794d964d00c1f5dc4a1b]
link usantatecla.mastermind.views.graphics to usantatecla.mastermind.controllers--><path d="M629.098,172.171 C624.143,200.68 614.109,247.612 597,285 C587.945,304.787 574.32,324.915 562.443,340.667 " fill="none" id="usantatecla.mastermind.views.graphics-to-usantatecla.mastermind.controllers" style="stroke:#A80036;stroke-width:1.0;stroke-dasharray:7.0,7.0;"/><polygon fill="#A80036" points="559.145,344.99,567.7848,340.2619,562.1783,341.0152,561.425,335.4087,559.145,344.99" style="stroke:#A80036;stroke-width:1.0;"/><!--MD5=[d137ae07135d8e25c6268b008713226c]
link usantatecla.mastermind.views.graphics to usantatecla.mastermind.views--><path d="M589.165,172.245 C560.062,189.336 521.859,211.773 491.948,229.34 " fill="none" id="usantatecla.mastermind.views.graphics-to-usantatecla.mastermind.views" style="stroke:#A80036;stroke-width:1.0;stroke-dasharray:7.0,7.0;"/><polygon fill="#A80036" points="487.598,231.895,497.3844,230.7875,491.9097,229.3634,493.3338,223.8887,487.598,231.895" style="stroke:#A80036;stroke-width:1.0;"/><!--MD5=[03c935c66a6656740fee59f044e73e84]
@startuml
package usantatecla.mastermind #DDDDDD { }

package usantatecla.mastermind.controllers #DDDDDD { }
usantatecla.mastermind.controllers .down.> usantatecla.mastermind.models
usantatecla.mastermind  .down.> usantatecla.mastermind.views
usantatecla.mastermind  .down.> usantatecla.mastermind.views.console
usantatecla.mastermind  .down.> usantatecla.mastermind.views.graphics
usantatecla.mastermind  .down.> usantatecla.mastermind.controllers

package usantatecla.mastermind.models #DDDDDD { }
package java.util{ }
usantatecla.mastermind.models .down.> java.util

package usantatecla.utils #DDDDDD { }
package java.io{ }
usantatecla.utils .down.> java.io

package usantatecla.mastermind.views #DDDDDD { }
usantatecla.mastermind.views .down.> usantatecla.mastermind.controllers

package usantatecla.mastermind.views.console #DDDDDD { }
usantatecla.mastermind.views.console .down.> usantatecla.mastermind.controllers
usantatecla.mastermind.views.console .down.> usantatecla.mastermind.views
usantatecla.mastermind.views.console .down.> usantatecla.utils

package usantatecla.mastermind.views.graphics #DDDDDD { }

usantatecla.mastermind.views.graphics .down.> usantatecla.mastermind.controllers

usantatecla.mastermind.views.graphics .down.> usantatecla.mastermind.views
@enduml

PlantUML version 1.2020.21beta7(Unknown compile time)
(GPL source distribution)
Java Runtime: Java(TM) SE Runtime Environment
JVM: Java HotSpot(TM) 64-Bit Server VM
Default Encoding: UTF-8
Language: en
Country: US
--></g></svg>