<?xml version="1.0" encoding="UTF-8" standalone="no"?><svg xmlns="http://www.w3.org/2000/svg" xmlns:xlink="http://www.w3.org/1999/xlink" contentScriptType="application/ecmascript" contentStyleType="text/css" height="630px" preserveAspectRatio="none" style="width:868px;height:630px;" version="1.1" viewBox="0 0 868 630" width="868px" zoomAndPan="magnify"><defs><filter height="300%" id="f1u251949c4p7g" width="300%" x="-1" y="-1"><feGaussianBlur result="blurOut" stdDeviation="2.0"/><feColorMatrix in="blurOut" result="blurOut2" type="matrix" values="0 0 0 0 0 0 0 0 0 0 0 0 0 0 0 0 0 0 .4 0"/><feOffset dx="4.0" dy="4.0" in="blurOut2" result="blurOut3"/><feBlend in="SourceGraphic" in2="blurOut3" mode="normal"/></filter></defs><g><polygon fill="#DDDDDD" filter="url(#f1u251949c4p7g)" points="304.5,6,511.5,6,518.5,28.2969,525.5,28.2969,525.5,58.5938,304.5,58.5938,304.5,6" style="stroke:#000000;stroke-width:1.5;"/><line style="stroke:#000000;stroke-width:1.5;" x1="304.5" x2="518.5" y1="28.2969" y2="28.2969"/><text fill="#000000" font-family="sans-serif" font-size="14" font-weight="bold" lengthAdjust="spacingAndGlyphs" textLength="201" x="308.5" y="20.9951">usantatecla.mastermind</text><polygon fill="#DDDDDD" filter="url(#f1u251949c4p7g)" points="159,458,429,458,436,480.2969,443,480.2969,443,510.5938,159,510.5938,159,458" style="stroke:#000000;stroke-width:1.5;"/><line style="stroke:#000000;stroke-width:1.5;" x1="159" x2="436" y1="480.2969" y2="480.2969"/><text fill="#000000" font-family="sans-serif" font-size="14" font-weight="bold" lengthAdjust="spacingAndGlyphs" textLength="264" x="163" y="472.9951">usantatecla.mastermind.models</text><polygon fill="#FFFFFF" filter="url(#f1u251949c4p7g)" points="257.5,571,330.5,571,337.5,593.2969,344.5,593.2969,344.5,623.5938,257.5,623.5938,257.5,571" style="stroke:#000000;stroke-width:1.5;"/><line style="stroke:#000000;stroke-width:1.5;" x1="257.5" x2="337.5" y1="593.2969" y2="593.2969"/><text fill="#000000" font-family="sans-serif" font-size="14" font-weight="bold" lengthAdjust="spacingAndGlyphs" textLength="67" x="261.5" y="585.9951">java.util</text><polygon fill="#DDDDDD" filter="url(#f1u251949c4p7g)" points="405.5,571,662.5,571,669.5,593.2969,676.5,593.2969,676.5,623.5938,405.5,623.5938,405.5,571" style="stroke:#000000;stroke-width:1.5;"/><line style="stroke:#000000;stroke-width:1.5;" x1="405.5" x2="669.5" y1="593.2969" y2="593.2969"/><text fill="#000000" font-family="sans-serif" font-size="14" font-weight="bold" lengthAdjust="spacingAndGlyphs" textLength="251" x="409.5" y="585.9951">usantatecla.mastermind.types</text><polygon fill="#DDDDDD" filter="url(#f1u251949c4p7g)" points="691,232,837,232,844,254.2969,851,254.2969,851,284.5938,691,284.5938,691,232" style="stroke:#000000;stroke-width:1.5;"/><line style="stroke:#000000;stroke-width:1.5;" x1="691" x2="844" y1="254.2969" y2="254.2969"/><text fill="#000000" font-family="sans-serif" font-size="14" font-weight="bold" lengthAdjust="spacingAndGlyphs" textLength="140" x="695" y="246.9951">usantatecla.utils</text><polygon fill="#FFFFFF" filter="url(#f1u251949c4p7g)" points="734,345,794,345,801,367.2969,808,367.2969,808,397.5938,734,397.5938,734,345" style="stroke:#000000;stroke-width:1.5;"/><line style="stroke:#000000;stroke-width:1.5;" x1="734" x2="801" y1="367.2969" y2="367.2969"/><text fill="#000000" font-family="sans-serif" font-size="14" font-weight="bold" lengthAdjust="spacingAndGlyphs" textLength="54" x="738" y="359.9951">java.io</text><polygon fill="#DDDDDD" filter="url(#f1u251949c4p7g)" points="242.5,232,499.5,232,506.5,254.2969,513.5,254.2969,513.5,284.5938,242.5,284.5938,242.5,232" style="stroke:#000000;stroke-width:1.5;"/><line style="stroke:#000000;stroke-width:1.5;" x1="242.5" x2="506.5" y1="254.2969" y2="254.2969"/><text fill="#000000" font-family="sans-serif" font-size="14" font-weight="bold" lengthAdjust="spacingAndGlyphs" textLength="251" x="246.5" y="246.9951">usantatecla.mastermind.views</text><polygon fill="#DDDDDD" filter="url(#f1u251949c4p7g)" points="16,119,348,119,355,141.2969,362,141.2969,362,171.5938,16,171.5938,16,119" style="stroke:#000000;stroke-width:1.5;"/><line style="stroke:#000000;stroke-width:1.5;" x1="16" x2="355" y1="141.2969" y2="141.2969"/><text fill="#000000" font-family="sans-serif" font-size="14" font-weight="bold" lengthAdjust="spacingAndGlyphs" textLength="326" x="20" y="133.9951">usantatecla.mastermind.views.graphics</text><polygon fill="#DDDDDD" filter="url(#f1u251949c4p7g)" points="468,119,792,119,799,141.2969,806,141.2969,806,171.5938,468,171.5938,468,119" style="stroke:#000000;stroke-width:1.5;"/><line style="stroke:#000000;stroke-width:1.5;" x1="468" x2="799" y1="141.2969" y2="141.2969"/><text fill="#000000" font-family="sans-serif" font-size="14" font-weight="bold" lengthAdjust="spacingAndGlyphs" textLength="318" x="472" y="133.9951">usantatecla.mastermind.views.console</text><polygon fill="#DDDDDD" filter="url(#f1u251949c4p7g)" points="198.5,345,499.5,345,506.5,367.2969,513.5,367.2969,513.5,397.5938,198.5,397.5938,198.5,345" style="stroke:#000000;stroke-width:1.5;"/><line style="stroke:#000000;stroke-width:1.5;" x1="198.5" x2="506.5" y1="367.2969" y2="367.2969"/><text fill="#000000" font-family="sans-serif" font-size="14" font-weight="bold" lengthAdjust="spacingAndGlyphs" textLength="295" x="202.5" y="359.9951">usantatecla.mastermind.controllers</text><!--MD5=[4e19c524e2c69b87d36da5f0fb3d6b68]
link usantatecla.mastermind to usantatecla.mastermind.views--><path codeLine="2" d="M410.756,59.196 C403.902,100.69 390.424,182.287 383.073,226.785 " fill="none" id="usantatecla.mastermind-to-usantatecla.mastermind.views" style="stroke:#A80036;stroke-width:1.0;stroke-dasharray:7.0,7.0;"/><polygon fill="#A80036" points="382.252,231.76,387.6644,223.5317,383.0663,226.8268,379.7712,222.2287,382.252,231.76" style="stroke:#A80036;stroke-width:1.0;"/><!--MD5=[154cfa84253b6c83652f8cc515248a6d]
link usantatecla.mastermind to usantatecla.mastermind.views.console--><path codeLine="3" d="M466.21,59.105 C500.524,76.262 545.703,98.851 580.974,116.487 " fill="none" id="usantatecla.mastermind-to-usantatecla.mastermind.views.console" style="stroke:#A80036;stroke-width:1.0;stroke-dasharray:7.0,7.0;"/><polygon fill="#A80036" points="585.664,118.832,579.402,111.2302,581.1916,116.5965,575.8252,118.386,585.664,118.832" style="stroke:#A80036;stroke-width:1.0;"/><!--MD5=[77bfac299a9dfa14d994751e1b13d1fb]
link usantatecla.mastermind to usantatecla.mastermind.views.graphics--><path codeLine="4" d="M362.867,59.105 C327.935,76.262 281.942,98.851 246.035,116.487 " fill="none" id="usantatecla.mastermind-to-usantatecla.mastermind.views.graphics" style="stroke:#A80036;stroke-width:1.0;stroke-dasharray:7.0,7.0;"/><polygon fill="#A80036" points="241.261,118.832,251.1026,118.4539,245.7487,116.6274,247.5753,111.2736,241.261,118.832" style="stroke:#A80036;stroke-width:1.0;"/><!--MD5=[58f66f5f60379dd70ef75cb976dcb215]
link usantatecla.mastermind.models to java.util--><path d="M301,511.245 C301,527.4958 301,548.5795 301,565.7139 " fill="none" id="usantatecla.mastermind.models-to-java.util" style="stroke:#A80036;stroke-width:1.0;stroke-dasharray:7.0,7.0;"/><polygon fill="#A80036" points="301,570.895,305,561.895,301,565.895,297,561.895,301,570.895" style="stroke:#A80036;stroke-width:1.0;"/><!--MD5=[b9451c71657f3a844ca4b89e92aee0a7]
link usantatecla.mastermind.models to usantatecla.mastermind.types--><path codeLine="9" d="M356.362,511.105 C393.609,528.3318 442.699,551.0358 480.898,568.7029 " fill="none" id="usantatecla.mastermind.models-to-usantatecla.mastermind.types" style="stroke:#A80036;stroke-width:1.0;stroke-dasharray:7.0,7.0;"/><polygon fill="#A80036" points="485.501,570.8318,479.013,563.422,480.9633,568.732,475.6533,570.6823,485.501,570.8318" style="stroke:#A80036;stroke-width:1.0;"/><!--MD5=[f7f372d3543268b8cc298f05137e5dac]
link usantatecla.utils to java.io--><path d="M771,285.245 C771,301.496 771,322.579 771,339.714 " fill="none" id="usantatecla.utils-to-java.io" style="stroke:#A80036;stroke-width:1.0;stroke-dasharray:7.0,7.0;"/><polygon fill="#A80036" points="771,344.895,775,335.895,771,339.895,767,335.895,771,344.895" style="stroke:#A80036;stroke-width:1.0;"/><!--MD5=[ce88995476bd7b9069515bddfacf022d]
link usantatecla.mastermind.views to usantatecla.mastermind.types--><path d="M457.052,285.038 C485.271,298.31 514.208,317.64 531,345 C573.54,414.312 559.513,515.766 548.683,565.9967 " fill="none" id="usantatecla.mastermind.views-to-usantatecla.mastermind.types" style="stroke:#A80036;stroke-width:1.0;stroke-dasharray:7.0,7.0;"/><polygon fill="#A80036" points="547.581,570.9873,553.4279,563.0618,548.6593,566.105,545.6162,561.3364,547.581,570.9873" style="stroke:#A80036;stroke-width:1.0;"/><!--MD5=[d137ae07135d8e25c6268b008713226c]
link usantatecla.mastermind.views.graphics to usantatecla.mastermind.views--><path d="M232.835,172.245 C261.938,189.336 300.141,211.773 330.052,229.34 " fill="none" id="usantatecla.mastermind.views.graphics-to-usantatecla.mastermind.views" style="stroke:#A80036;stroke-width:1.0;stroke-dasharray:7.0,7.0;"/><polygon fill="#A80036" points="334.402,231.895,328.6662,223.8887,330.0903,229.3634,324.6156,230.7875,334.402,231.895" style="stroke:#A80036;stroke-width:1.0;"/><!--MD5=[4d42c51424c2fe200638a22853989c83]
link usantatecla.mastermind.views.console to usantatecla.mastermind.views--><path d="M577.255,172.105 C536.977,189.367 483.868,212.128 442.609,229.811 " fill="none" id="usantatecla.mastermind.views.console-to-usantatecla.mastermind.views" style="stroke:#A80036;stroke-width:1.0;stroke-dasharray:7.0,7.0;"/><polygon fill="#A80036" points="437.893,231.832,447.741,231.9626,442.4886,229.8621,444.5891,224.6096,437.893,231.832" style="stroke:#A80036;stroke-width:1.0;"/><!--MD5=[b8553bfe17af46194ef273adf9238790]
link usantatecla.mastermind.views.console to usantatecla.mastermind.types--><path d="M636.25,172.34 C633.867,232.924 624.107,388.278 585,511 C578.838,530.3369 568.606,550.5897 559.559,566.5278 " fill="none" id="usantatecla.mastermind.views.console-to-usantatecla.mastermind.types" style="stroke:#A80036;stroke-width:1.0;stroke-dasharray:7.0,7.0;"/><polygon fill="#A80036" points="557.043,570.9044,564.9966,565.0958,559.5352,566.5698,558.0613,561.1083,557.043,570.9044" style="stroke:#A80036;stroke-width:1.0;"/><!--MD5=[ea4ce8b53cd9ff973f1d13b2e6691e39]
link usantatecla.mastermind.views.console to usantatecla.utils--><path d="M668.079,172.245 C688.459,189.126 715.134,211.223 736.22,228.69 " fill="none" id="usantatecla.mastermind.views.console-to-usantatecla.utils" style="stroke:#A80036;stroke-width:1.0;stroke-dasharray:7.0,7.0;"/><polygon fill="#A80036" points="740.089,231.895,735.7089,223.0737,736.2382,228.7058,730.6061,229.235,740.089,231.895" style="stroke:#A80036;stroke-width:1.0;"/><!--MD5=[666e057f4f4cec1308ce1e8b816302eb]
link usantatecla.mastermind.controllers to usantatecla.mastermind.models--><path d="M343.244,398.245 C335.122,414.636 324.564,435.943 316.035,453.156 " fill="none" id="usantatecla.mastermind.controllers-to-usantatecla.mastermind.models" style="stroke:#A80036;stroke-width:1.0;stroke-dasharray:7.0,7.0;"/><polygon fill="#A80036" points="313.687,457.895,321.2672,451.6068,315.9071,453.4149,314.099,448.0548,313.687,457.895" style="stroke:#A80036;stroke-width:1.0;"/><!--MD5=[5471b3733b971f250b528cb597e869a8]
link usantatecla.mastermind.controllers to usantatecla.mastermind.types--><path d="M393.442,398.174 C414.59,413.857 440.59,435.232 460,458 C488.647,491.603 512.874,536.6956 527.171,566.1646 " fill="none" id="usantatecla.mastermind.controllers-to-usantatecla.mastermind.types" style="stroke:#A80036;stroke-width:1.0;stroke-dasharray:7.0,7.0;"/><polygon fill="#A80036" points="529.38,570.756,529.0832,560.9116,527.2125,566.2502,521.8739,564.3796,529.38,570.756" style="stroke:#A80036;stroke-width:1.0;"/><!--MD5=[1b6d3441d3a24e7ba17c3ec845a2f249]
link usantatecla.mastermind.views.console to usantatecla.mastermind.controllers--><path d="M622.474,172.117 C604.307,202.313 570.713,252.489 531,285 C501.448,309.192 463.908,328.681 431.182,342.906 " fill="none" id="usantatecla.mastermind.views.console-to-usantatecla.mastermind.controllers" style="stroke:#A80036;stroke-width:1.0;stroke-dasharray:7.0,7.0;"/><polygon fill="#A80036" points="426.389,344.967,436.2371,345.0876,430.9826,342.9924,433.0778,337.7379,426.389,344.967" style="stroke:#A80036;stroke-width:1.0;"/><!--MD5=[dc6830e5e79e794d964d00c1f5dc4a1b]
link usantatecla.mastermind.views.graphics to usantatecla.mastermind.controllers--><path d="M190.177,172.068 C192.697,201.764 200.56,251.013 225,285 C242.389,309.183 268.923,328.337 293.573,342.334 " fill="none" id="usantatecla.mastermind.views.graphics-to-usantatecla.mastermind.controllers" style="stroke:#A80036;stroke-width:1.0;stroke-dasharray:7.0,7.0;"/><polygon fill="#A80036" points="298.152,344.887,292.2414,337.0089,293.7856,342.4509,288.3436,343.9951,298.152,344.887" style="stroke:#A80036;stroke-width:1.0;"/><!--MD5=[630e558b56671c28f6ec272b5a73ed8b]
link usantatecla.mastermind.views to usantatecla.mastermind.controllers--><path d="M372.897,285.245 C369.677,301.496 365.498,322.579 362.102,339.714 " fill="none" id="usantatecla.mastermind.views-to-usantatecla.mastermind.controllers" style="stroke:#A80036;stroke-width:1.0;stroke-dasharray:7.0,7.0;"/><polygon fill="#A80036" points="361.075,344.895,366.7493,336.845,362.0476,339.9905,358.9021,335.2888,361.075,344.895" style="stroke:#A80036;stroke-width:1.0;"/><!--MD5=[7482718bc22294a4427f7e28cd573d4e]
@startuml
package usantatecla.mastermind #DDDDDD { }
usantatecla.mastermind ..> usantatecla.mastermind.views
usantatecla.mastermind ..> usantatecla.mastermind.views.console
usantatecla.mastermind ..> usantatecla.mastermind.views.graphics

package usantatecla.mastermind.models #DDDDDD { }
package java.util{ }
usantatecla.mastermind.models .down.> java.util
usantatecla.mastermind.models .down.> usantatecla.mastermind.types

package usantatecla.mastermind.types #DDDDDD { }

package usantatecla.utils #DDDDDD { }
package java.io{ }
usantatecla.utils .down.> java.io

package usantatecla.mastermind.views #DDDDDD { }
usantatecla.mastermind.views .down.> usantatecla.mastermind.types


package usantatecla.mastermind.views.graphics #DDDDDD { }

usantatecla.mastermind.views.graphics .down.> usantatecla.mastermind.views

package usantatecla.mastermind.views.console #DDDDDD { }
usantatecla.mastermind.views.console .down.> usantatecla.mastermind.views
usantatecla.mastermind.views.console .down.> usantatecla.mastermind.types

usantatecla.mastermind.views.console .down.> usantatecla.utils

package usantatecla.mastermind.controllers #DDDDDD { }
usantatecla.mastermind.controllers .down.> usantatecla.mastermind.models
usantatecla.mastermind.controllers .down.> usantatecla.mastermind.types
usantatecla.mastermind.views.console .down.> usantatecla.mastermind.controllers
usantatecla.mastermind.views.graphics .down.> usantatecla.mastermind.controllers
usantatecla.mastermind.views .down.> usantatecla.mastermind.controllers
@enduml

PlantUML version 1.2020.22beta3(Unknown compile time)
(GPL source distribution)
Java Runtime: Java(TM) SE Runtime Environment
JVM: Java HotSpot(TM) 64-Bit Server VM
Default Encoding: UTF-8
Language: en
Country: US
--></g></svg>