<?xml version="1.0" encoding="UTF-8" standalone="no"?><svg xmlns="http://www.w3.org/2000/svg" xmlns:xlink="http://www.w3.org/1999/xlink" contentScriptType="application/ecmascript" contentStyleType="text/css" height="371px" preserveAspectRatio="none" style="width:1201px;height:371px;" version="1.1" viewBox="0 0 1201 371" width="1201px" zoomAndPan="magnify"><defs><filter height="300%" id="f167mr1zu91lpi" width="300%" x="-1" y="-1"><feGaussianBlur result="blurOut" stdDeviation="2.0"/><feColorMatrix in="blurOut" result="blurOut2" type="matrix" values="0 0 0 0 0 0 0 0 0 0 0 0 0 0 0 0 0 0 .4 0"/><feOffset dx="4.0" dy="4.0" in="blurOut2" result="blurOut3"/><feBlend in="SourceGraphic" in2="blurOut3" mode="normal"/></filter></defs><g><!--MD5=[29d5d00c8f272934fcfbf235a28c504f]
cluster usantatecla.mastermind.views--><polygon fill="#FFFFFF" filter="url(#f167mr1zu91lpi)" points="22.5,6,279.5,6,286.5,28.2969,1001.5,28.2969,1001.5,246,22.5,246,22.5,6" style="stroke:#000000;stroke-width:1.5;"/><line style="stroke:#000000;stroke-width:1.5;" x1="22.5" x2="286.5" y1="28.2969" y2="28.2969"/><text fill="#000000" font-family="sans-serif" font-size="14" font-weight="bold" lengthAdjust="spacingAndGlyphs" textLength="251" x="26.5" y="20.9951">usantatecla.mastermind.views</text><!--MD5=[dab5b8162ddba5d4d249ad537ad64188]
class usantatecla.mastermind.views.ColorView--><rect codeLine="7" fill="#FEFECE" filter="url(#f167mr1zu91lpi)" height="124.8281" id="usantatecla.mastermind.views.ColorView" style="stroke:#A80036;stroke-width:1.5;" width="161" x="39" y="73"/><ellipse cx="86.25" cy="89" fill="#A9DCDF" rx="11" ry="11" style="stroke:#A80036;stroke-width:1.0;"/><path d="M88.3281,90.8125 L88.7188,91.7969 L88.3281,91.7969 C87.875,91.7969 87.7656,91.8125 87.6094,91.9219 C87.3594,92.0781 87.2031,92.3594 87.2031,92.6563 C87.2031,92.9219 87.3438,93.1719 87.5625,93.3281 C87.7031,93.4531 87.9063,93.5 88.3281,93.5 L90.6875,93.5 C91.0469,93.5 91.2656,93.4688 91.4063,93.375 C91.6563,93.2344 91.8125,92.9375 91.8125,92.6563 C91.8125,92.375 91.6719,92.125 91.4531,91.9688 C91.2813,91.8281 91.125,91.7969 90.6563,91.7969 L87.2656,83.5938 L83.5938,83.5938 C83.1406,83.5938 83.0156,83.6094 82.8594,83.7031 C82.6094,83.875 82.4531,84.1563 82.4531,84.4375 C82.4531,84.7188 82.5938,84.9688 82.8125,85.1406 C82.9844,85.25 83.1563,85.2813 83.5938,85.2813 L84.6719,85.2813 L82.0313,91.7969 C81.6094,91.7969 81.4531,91.8125 81.2969,91.9219 C81.0469,92.0781 80.8906,92.3594 80.8906,92.6563 C80.8906,93.2188 81.2656,93.5 82.0156,93.5 L84.2813,93.5 C84.6406,93.5 84.8594,93.4688 84.9844,93.375 C85.25,93.2344 85.3906,92.9375 85.3906,92.6563 C85.3906,92.375 85.2656,92.125 85.0469,91.9531 C84.875,91.8281 84.7344,91.7969 84.2813,91.7969 L83.8906,91.7969 L84.2813,90.8125 L88.3281,90.8125 Z M87.625,89.1094 L84.9531,89.1094 L86.2969,85.8438 L87.625,89.1094 Z " fill="#000000"/><text fill="#000000" font-family="sans-serif" font-size="12" font-style="italic" lengthAdjust="spacingAndGlyphs" textLength="58" x="106.75" y="93.1543">ColorView</text><line style="stroke:#A80036;stroke-width:1.5;" x1="40" x2="199" y1="105" y2="105"/><ellipse cx="50" cy="116" fill="none" rx="3" ry="3" style="stroke:#038048;stroke-width:1.0;"/><text fill="#000000" font-family="sans-serif" font-size="11" lengthAdjust="spacingAndGlyphs" text-decoration="underline" textLength="89" x="59" y="119.2104">INITIALS: char []</text><line style="stroke:#A80036;stroke-width:1.5;" x1="40" x2="199" y1="125.8047" y2="125.8047"/><polygon fill="#FFFF44" points="50,131.8047,54,135.8047,50,139.8047,46,135.8047" style="stroke:#B38D22;stroke-width:1.0;"/><text fill="#000000" font-family="sans-serif" font-size="11" lengthAdjust="spacingAndGlyphs" textLength="65" x="59" y="140.0151">ColorView()</text><polygon fill="#FFFF44" points="50,144.6094,54,148.6094,50,152.6094,46,148.6094" style="stroke:#B38D22;stroke-width:1.0;"/><text fill="#000000" font-family="sans-serif" font-size="11" lengthAdjust="spacingAndGlyphs" textLength="94" x="59" y="152.8198">ColorView(Color)</text><ellipse cx="50" cy="162.4141" fill="#84BE84" rx="3" ry="3" style="stroke:#038048;stroke-width:1.0;"/><text fill="#000000" font-family="sans-serif" font-size="11" lengthAdjust="spacingAndGlyphs" textLength="97" x="59" y="165.6245">allInitials(): String</text><polygon fill="#FFFF44" points="50,170.2188,54,174.2188,50,178.2188,46,174.2188" style="stroke:#B38D22;stroke-width:1.0;"/><text fill="#000000" font-family="sans-serif" font-size="11" font-style="italic" lengthAdjust="spacingAndGlyphs" textLength="131" x="59" y="178.4292">resultInitials(int): String</text><ellipse cx="50" cy="188.0234" fill="#84BE84" rx="3" ry="3" style="stroke:#038048;stroke-width:1.0;"/><text fill="#000000" font-family="sans-serif" font-size="11" lengthAdjust="spacingAndGlyphs" text-decoration="underline" textLength="135" x="59" y="191.2339">getInstance(char): Color</text><!--MD5=[bd953d99961dd365a3924fc1e98cf727]
class usantatecla.mastermind.views.ErrorView--><rect codeLine="17" fill="#FEFECE" filter="url(#f167mr1zu91lpi)" height="99.2188" id="usantatecla.mastermind.views.ErrorView" style="stroke:#A80036;stroke-width:1.5;" width="145" x="443" y="86"/><ellipse cx="482.75" cy="102" fill="#A9DCDF" rx="11" ry="11" style="stroke:#A80036;stroke-width:1.0;"/><path d="M484.8281,103.8125 L485.2188,104.7969 L484.8281,104.7969 C484.375,104.7969 484.2656,104.8125 484.1094,104.9219 C483.8594,105.0781 483.7031,105.3594 483.7031,105.6563 C483.7031,105.9219 483.8438,106.1719 484.0625,106.3281 C484.2031,106.4531 484.4063,106.5 484.8281,106.5 L487.1875,106.5 C487.5469,106.5 487.7656,106.4688 487.9063,106.375 C488.1563,106.2344 488.3125,105.9375 488.3125,105.6563 C488.3125,105.375 488.1719,105.125 487.9531,104.9688 C487.7813,104.8281 487.625,104.7969 487.1563,104.7969 L483.7656,96.5938 L480.0938,96.5938 C479.6406,96.5938 479.5156,96.6094 479.3594,96.7031 C479.1094,96.875 478.9531,97.1563 478.9531,97.4375 C478.9531,97.7188 479.0938,97.9688 479.3125,98.1406 C479.4844,98.25 479.6563,98.2813 480.0938,98.2813 L481.1719,98.2813 L478.5313,104.7969 C478.1094,104.7969 477.9531,104.8125 477.7969,104.9219 C477.5469,105.0781 477.3906,105.3594 477.3906,105.6563 C477.3906,106.2188 477.7656,106.5 478.5156,106.5 L480.7813,106.5 C481.1406,106.5 481.3594,106.4688 481.4844,106.375 C481.75,106.2344 481.8906,105.9375 481.8906,105.6563 C481.8906,105.375 481.7656,105.125 481.5469,104.9531 C481.375,104.8281 481.2344,104.7969 480.7813,104.7969 L480.3906,104.7969 L480.7813,103.8125 L484.8281,103.8125 Z M484.125,102.1094 L481.4531,102.1094 L482.7969,98.8438 L484.125,102.1094 Z " fill="#000000"/><text fill="#000000" font-family="sans-serif" font-size="12" font-style="italic" lengthAdjust="spacingAndGlyphs" textLength="58" x="502.25" y="106.1543">ErrorView</text><line style="stroke:#A80036;stroke-width:1.5;" x1="444" x2="587" y1="118" y2="118"/><ellipse cx="454" cy="129" fill="none" rx="3" ry="3" style="stroke:#038048;stroke-width:1.0;"/><text fill="#000000" font-family="sans-serif" font-size="11" lengthAdjust="spacingAndGlyphs" textLength="116" x="463" y="132.2104">MESSAGES: String []</text><line style="stroke:#A80036;stroke-width:1.5;" x1="444" x2="587" y1="138.8047" y2="138.8047"/><polygon fill="#FFFF44" points="454,144.8047,458,148.8047,454,152.8047,450,148.8047" style="stroke:#B38D22;stroke-width:1.0;"/><text fill="#000000" font-family="sans-serif" font-size="11" lengthAdjust="spacingAndGlyphs" textLength="62" x="463" y="153.0151">ErrorView()</text><ellipse cx="454" cy="162.6094" fill="#84BE84" rx="3" ry="3" style="stroke:#038048;stroke-width:1.0;"/><text fill="#000000" font-family="sans-serif" font-size="11" lengthAdjust="spacingAndGlyphs" textLength="119" x="463" y="165.8198">ErrorView(Error error)</text><polygon fill="#FFFF44" points="454,170.4141,458,174.4141,454,178.4141,450,174.4141" style="stroke:#B38D22;stroke-width:1.0;"/><text fill="#000000" font-family="sans-serif" font-size="11" font-style="italic" lengthAdjust="spacingAndGlyphs" textLength="113" x="463" y="178.6245">colorInitials(): String</text><!--MD5=[694a802c67fd6ffa81f3d338cafa51c2]
class usantatecla.mastermind.views.Message--><rect codeLine="25" fill="#FEFECE" filter="url(#f167mr1zu91lpi)" height="188.8516" id="usantatecla.mastermind.views.Message" style="stroke:#A80036;stroke-width:1.5;" width="173" x="235" y="41"/><ellipse cx="289.75" cy="57" fill="#EB937F" rx="11" ry="11" style="stroke:#A80036;stroke-width:1.0;"/><path d="M288.5469,57.875 L290,57.875 L290,57.9844 C290,58.3906 290.0313,58.5469 290.1094,58.7031 C290.2656,58.9531 290.5469,59.1094 290.8438,59.1094 C291.0938,59.1094 291.3594,58.9688 291.5156,58.75 C291.6406,58.5938 291.6719,58.4375 291.6719,57.9844 L291.6719,56.0625 C291.6719,55.9063 291.6719,55.8594 291.6563,55.7031 C291.5938,55.2344 291.2813,54.9219 290.8281,54.9219 C290.5781,54.9219 290.3125,55.0625 290.1406,55.2813 C290.0313,55.4531 290,55.6094 290,56.0625 L290,56.1875 L288.5469,56.1875 L288.5469,53.7813 L292.5313,53.7813 L292.5313,54.6406 C292.5313,55.0469 292.5625,55.2188 292.6406,55.375 C292.8125,55.625 293.0938,55.7813 293.375,55.7813 C293.6406,55.7813 293.9063,55.6406 294.0781,55.4219 C294.1875,55.25 294.2188,55.1094 294.2188,54.6406 L294.2188,52.0938 L286.5938,52.0938 C286.1563,52.0938 286.0313,52.1094 285.875,52.2031 C285.625,52.3594 285.4688,52.6563 285.4688,52.9375 C285.4688,53.2188 285.6094,53.4688 285.8281,53.6406 C285.9844,53.75 286.1719,53.7813 286.5938,53.7813 L286.8438,53.7813 L286.8438,60.2969 L286.5938,60.2969 C286.1875,60.2969 286.0313,60.3125 285.875,60.4219 C285.625,60.5938 285.4688,60.8594 285.4688,61.1563 C285.4688,61.4219 285.6094,61.6719 285.8281,61.8281 C285.9688,61.9531 286.2031,62 286.5938,62 L294.5938,62 L294.5938,59.4219 C294.5938,58.9844 294.5625,58.8438 294.4844,58.6875 C294.3125,58.4375 294.0313,58.2813 293.75,58.2813 C293.4844,58.2813 293.2188,58.3906 293.0469,58.6406 C292.9375,58.7969 292.9063,58.9375 292.9063,59.4219 L292.9063,60.2969 L288.5469,60.2969 L288.5469,57.875 Z " fill="#000000"/><text fill="#000000" font-family="sans-serif" font-size="12" lengthAdjust="spacingAndGlyphs" textLength="55" x="310.25" y="61.1543">Message</text><line style="stroke:#A80036;stroke-width:1.5;" x1="236" x2="407" y1="73" y2="73"/><ellipse cx="246" cy="84" fill="none" rx="3" ry="3" style="stroke:#038048;stroke-width:1.0;"/><text fill="#000000" font-family="sans-serif" font-size="11" lengthAdjust="spacingAndGlyphs" textLength="59" x="255" y="87.2104">ATTEMPTS</text><ellipse cx="246" cy="96.8047" fill="none" rx="3" ry="3" style="stroke:#038048;stroke-width:1.0;"/><text fill="#000000" font-family="sans-serif" font-size="11" lengthAdjust="spacingAndGlyphs" textLength="44" x="255" y="100.0151">SECRET</text><ellipse cx="246" cy="109.6094" fill="none" rx="3" ry="3" style="stroke:#038048;stroke-width:1.0;"/><text fill="#000000" font-family="sans-serif" font-size="11" lengthAdjust="spacingAndGlyphs" textLength="46" x="255" y="112.8198">RESUME</text><ellipse cx="246" cy="122.4141" fill="none" rx="3" ry="3" style="stroke:#038048;stroke-width:1.0;"/><text fill="#000000" font-family="sans-serif" font-size="11" lengthAdjust="spacingAndGlyphs" textLength="43" x="255" y="125.6245">RESULT</text><ellipse cx="246" cy="135.2188" fill="none" rx="3" ry="3" style="stroke:#038048;stroke-width:1.0;"/><text fill="#000000" font-family="sans-serif" font-size="11" lengthAdjust="spacingAndGlyphs" textLength="147" x="255" y="138.4292">PROPOSED_COMBINATION</text><ellipse cx="246" cy="148.0234" fill="none" rx="3" ry="3" style="stroke:#038048;stroke-width:1.0;"/><text fill="#000000" font-family="sans-serif" font-size="11" lengthAdjust="spacingAndGlyphs" textLength="30" x="255" y="151.2339">TITLE</text><ellipse cx="246" cy="160.8281" fill="none" rx="3" ry="3" style="stroke:#038048;stroke-width:1.0;"/><text fill="#000000" font-family="sans-serif" font-size="11" lengthAdjust="spacingAndGlyphs" textLength="44" x="255" y="164.0386">WINNER</text><ellipse cx="246" cy="173.6328" fill="none" rx="3" ry="3" style="stroke:#038048;stroke-width:1.0;"/><text fill="#000000" font-family="sans-serif" font-size="11" lengthAdjust="spacingAndGlyphs" textLength="46" x="255" y="176.8433">LOOSER</text><rect fill="none" height="6" style="stroke:#C82930;stroke-width:1.0;" width="6" x="243" y="183.4375"/><text fill="#000000" font-family="sans-serif" font-size="11" lengthAdjust="spacingAndGlyphs" textLength="93" x="255" y="189.6479">message: String</text><line style="stroke:#A80036;stroke-width:1.5;" x1="236" x2="407" y1="196.2422" y2="196.2422"/><rect fill="#F24D5C" height="6" style="stroke:#C82930;stroke-width:1.0;" width="6" x="243" y="204.2422"/><text fill="#000000" font-family="sans-serif" font-size="11" lengthAdjust="spacingAndGlyphs" textLength="92" x="255" y="210.4526">Message(String)</text><ellipse cx="246" cy="220.0469" fill="#84BE84" rx="3" ry="3" style="stroke:#038048;stroke-width:1.0;"/><text fill="#000000" font-family="sans-serif" font-size="11" lengthAdjust="spacingAndGlyphs" textLength="118" x="255" y="223.2573">getMessage(): String</text><!--MD5=[f5534db0476bcf0d5af6a596dc954aba]
class usantatecla.mastermind.views.View--><rect codeLine="39" fill="#FEFECE" filter="url(#f167mr1zu91lpi)" height="112.0234" id="usantatecla.mastermind.views.View" style="stroke:#A80036;stroke-width:1.5;" width="362" x="623.5" y="79.5"/><ellipse cx="786.25" cy="95.5" fill="#A9DCDF" rx="11" ry="11" style="stroke:#A80036;stroke-width:1.0;"/><path d="M788.3281,97.3125 L788.7188,98.2969 L788.3281,98.2969 C787.875,98.2969 787.7656,98.3125 787.6094,98.4219 C787.3594,98.5781 787.2031,98.8594 787.2031,99.1563 C787.2031,99.4219 787.3438,99.6719 787.5625,99.8281 C787.7031,99.9531 787.9063,100 788.3281,100 L790.6875,100 C791.0469,100 791.2656,99.9688 791.4063,99.875 C791.6563,99.7344 791.8125,99.4375 791.8125,99.1563 C791.8125,98.875 791.6719,98.625 791.4531,98.4688 C791.2813,98.3281 791.125,98.2969 790.6563,98.2969 L787.2656,90.0938 L783.5938,90.0938 C783.1406,90.0938 783.0156,90.1094 782.8594,90.2031 C782.6094,90.375 782.4531,90.6563 782.4531,90.9375 C782.4531,91.2188 782.5938,91.4688 782.8125,91.6406 C782.9844,91.75 783.1563,91.7813 783.5938,91.7813 L784.6719,91.7813 L782.0313,98.2969 C781.6094,98.2969 781.4531,98.3125 781.2969,98.4219 C781.0469,98.5781 780.8906,98.8594 780.8906,99.1563 C780.8906,99.7188 781.2656,100 782.0156,100 L784.2813,100 C784.6406,100 784.8594,99.9688 784.9844,99.875 C785.25,99.7344 785.3906,99.4375 785.3906,99.1563 C785.3906,98.875 785.2656,98.625 785.0469,98.4531 C784.875,98.3281 784.7344,98.2969 784.2813,98.2969 L783.8906,98.2969 L784.2813,97.3125 L788.3281,97.3125 Z M787.625,95.6094 L784.9531,95.6094 L786.2969,92.3438 L787.625,95.6094 Z " fill="#000000"/><text fill="#000000" font-family="sans-serif" font-size="12" font-style="italic" lengthAdjust="spacingAndGlyphs" textLength="28" x="806.75" y="99.6543">View</text><line style="stroke:#A80036;stroke-width:1.5;" x1="624.5" x2="984.5" y1="111.5" y2="111.5"/><line style="stroke:#A80036;stroke-width:1.5;" x1="624.5" x2="984.5" y1="119.5" y2="119.5"/><ellipse cx="634.5" cy="130.5" fill="#84BE84" rx="3" ry="3" style="stroke:#038048;stroke-width:1.0;"/><text fill="#000000" font-family="sans-serif" font-size="11" lengthAdjust="spacingAndGlyphs" textLength="336" x="643.5" y="133.7104">View(StartController, ProposalController, ResumeController)</text><ellipse cx="634.5" cy="143.3047" fill="#84BE84" rx="3" ry="3" style="stroke:#038048;stroke-width:1.0;"/><text fill="#000000" font-family="sans-serif" font-size="11" lengthAdjust="spacingAndGlyphs" textLength="51" x="643.5" y="146.5151">interact()</text><polygon fill="#FFFF44" points="634.5,151.1094,638.5,155.1094,634.5,159.1094,630.5,155.1094" style="stroke:#B38D22;stroke-width:1.0;"/><text fill="#000000" font-family="sans-serif" font-size="11" font-style="italic" lengthAdjust="spacingAndGlyphs" textLength="66" x="643.5" y="159.3198">start(): void</text><polygon fill="#FFFF44" points="634.5,163.9141,638.5,167.9141,634.5,171.9141,630.5,167.9141" style="stroke:#B38D22;stroke-width:1.0;"/><text fill="#000000" font-family="sans-serif" font-size="11" font-style="italic" lengthAdjust="spacingAndGlyphs" textLength="107" x="643.5" y="172.1245">propose(): boolean</text><polygon fill="#FFFF44" points="634.5,176.7188,638.5,180.7188,634.5,184.7188,630.5,180.7188" style="stroke:#B38D22;stroke-width:1.0;"/><text fill="#000000" font-family="sans-serif" font-size="11" font-style="italic" lengthAdjust="spacingAndGlyphs" textLength="128" x="643.5" y="184.9292">isNewGame(): boolean</text><!--MD5=[b8cfd8c4119a3b0a7a46bfc5fc780f85]
class Error--><rect codeLine="1" fill="#FEFECE" filter="url(#f167mr1zu91lpi)" height="53.9375" id="Error" style="stroke:#A80036;stroke-width:1.5;" width="225" x="335" y="297"/><ellipse cx="350" cy="315.9688" fill="#ADD1B2" rx="11" ry="11" style="stroke:#A80036;stroke-width:1.0;"/><path d="M352.3438,311.6406 C351.4063,311.2031 350.8125,311.0625 349.9375,311.0625 C347.3125,311.0625 345.3125,313.1406 345.3125,315.8594 L345.3125,316.9844 C345.3125,319.5625 347.4219,321.4531 350.3125,321.4531 C351.5313,321.4531 352.6875,321.1563 353.4375,320.6094 C354.0156,320.2031 354.3438,319.75 354.3438,319.3594 C354.3438,318.9063 353.9531,318.5156 353.4844,318.5156 C353.2656,318.5156 353.0625,318.5938 352.875,318.7813 C352.4219,319.2656 352.4219,319.2656 352.2344,319.3594 C351.8125,319.625 351.125,319.75 350.3594,319.75 C348.3125,319.75 347.0156,318.6563 347.0156,316.9531 L347.0156,315.8594 C347.0156,314.0781 348.2656,312.7656 350,312.7656 C350.5781,312.7656 351.1875,312.9219 351.6563,313.1719 C352.1406,313.4531 352.3125,313.6719 352.4063,314.0781 C352.4688,314.4844 352.5,314.6094 352.6406,314.7344 C352.7813,314.875 353.0156,314.9844 353.2344,314.9844 C353.5,314.9844 353.7656,314.8438 353.9375,314.625 C354.0469,314.4688 354.0781,314.2813 354.0781,313.8594 L354.0781,312.4375 C354.0781,312 354.0625,311.875 353.9688,311.7188 C353.8125,311.4531 353.5313,311.3125 353.2344,311.3125 C352.9375,311.3125 352.7344,311.4063 352.5156,311.7188 L352.3438,311.6406 Z " fill="#000000"/><text fill="#000000" font-family="sans-serif" font-size="12" lengthAdjust="spacingAndGlyphs" textLength="193" x="364" y="313.1387">usantatecla.mastermind.models.</text><text fill="#000000" font-family="sans-serif" font-size="12" lengthAdjust="spacingAndGlyphs" textLength="30" x="445.5" y="327.1074">Error</text><line style="stroke:#A80036;stroke-width:1.5;" x1="336" x2="559" y1="334.9375" y2="334.9375"/><line style="stroke:#A80036;stroke-width:1.5;" x1="336" x2="559" y1="342.9375" y2="342.9375"/><!--MD5=[18eee71c88ab61f27581b8cbdd3ef5ee]
class Color--><rect codeLine="2" fill="#FEFECE" filter="url(#f167mr1zu91lpi)" height="53.9375" id="Color" style="stroke:#A80036;stroke-width:1.5;" width="225" x="7" y="297"/><ellipse cx="22" cy="315.9688" fill="#ADD1B2" rx="11" ry="11" style="stroke:#A80036;stroke-width:1.0;"/><path d="M24.3438,311.6406 C23.4063,311.2031 22.8125,311.0625 21.9375,311.0625 C19.3125,311.0625 17.3125,313.1406 17.3125,315.8594 L17.3125,316.9844 C17.3125,319.5625 19.4219,321.4531 22.3125,321.4531 C23.5313,321.4531 24.6875,321.1563 25.4375,320.6094 C26.0156,320.2031 26.3438,319.75 26.3438,319.3594 C26.3438,318.9063 25.9531,318.5156 25.4844,318.5156 C25.2656,318.5156 25.0625,318.5938 24.875,318.7813 C24.4219,319.2656 24.4219,319.2656 24.2344,319.3594 C23.8125,319.625 23.125,319.75 22.3594,319.75 C20.3125,319.75 19.0156,318.6563 19.0156,316.9531 L19.0156,315.8594 C19.0156,314.0781 20.2656,312.7656 22,312.7656 C22.5781,312.7656 23.1875,312.9219 23.6563,313.1719 C24.1406,313.4531 24.3125,313.6719 24.4063,314.0781 C24.4688,314.4844 24.5,314.6094 24.6406,314.7344 C24.7813,314.875 25.0156,314.9844 25.2344,314.9844 C25.5,314.9844 25.7656,314.8438 25.9375,314.625 C26.0469,314.4688 26.0781,314.2813 26.0781,313.8594 L26.0781,312.4375 C26.0781,312 26.0625,311.875 25.9688,311.7188 C25.8125,311.4531 25.5313,311.3125 25.2344,311.3125 C24.9375,311.3125 24.7344,311.4063 24.5156,311.7188 L24.3438,311.6406 Z " fill="#000000"/><text fill="#000000" font-family="sans-serif" font-size="12" lengthAdjust="spacingAndGlyphs" textLength="193" x="36" y="313.1387">usantatecla.mastermind.models.</text><text fill="#000000" font-family="sans-serif" font-size="12" lengthAdjust="spacingAndGlyphs" textLength="32" x="116.5" y="327.1074">Color</text><line style="stroke:#A80036;stroke-width:1.5;" x1="8" x2="231" y1="334.9375" y2="334.9375"/><line style="stroke:#A80036;stroke-width:1.5;" x1="8" x2="231" y1="342.9375" y2="342.9375"/><!--MD5=[47c371471411cfedeee61b1a5bdaee47]
class StartController--><rect codeLine="3" fill="#FEFECE" filter="url(#f167mr1zu91lpi)" height="67.9063" id="StartController" style="stroke:#A80036;stroke-width:1.5;" width="174" x="595.5" y="290"/><ellipse cx="610.5" cy="315.9531" fill="#ADD1B2" rx="11" ry="11" style="stroke:#A80036;stroke-width:1.0;"/><path d="M612.8438,311.625 C611.9063,311.1875 611.3125,311.0469 610.4375,311.0469 C607.8125,311.0469 605.8125,313.125 605.8125,315.8438 L605.8125,316.9688 C605.8125,319.5469 607.9219,321.4375 610.8125,321.4375 C612.0313,321.4375 613.1875,321.1406 613.9375,320.5938 C614.5156,320.1875 614.8438,319.7344 614.8438,319.3438 C614.8438,318.8906 614.4531,318.5 613.9844,318.5 C613.7656,318.5 613.5625,318.5781 613.375,318.7656 C612.9219,319.25 612.9219,319.25 612.7344,319.3438 C612.3125,319.6094 611.625,319.7344 610.8594,319.7344 C608.8125,319.7344 607.5156,318.6406 607.5156,316.9375 L607.5156,315.8438 C607.5156,314.0625 608.7656,312.75 610.5,312.75 C611.0781,312.75 611.6875,312.9063 612.1563,313.1563 C612.6406,313.4375 612.8125,313.6563 612.9063,314.0625 C612.9688,314.4688 613,314.5938 613.1406,314.7188 C613.2813,314.8594 613.5156,314.9688 613.7344,314.9688 C614,314.9688 614.2656,314.8281 614.4375,314.6094 C614.5469,314.4531 614.5781,314.2656 614.5781,313.8438 L614.5781,312.4219 C614.5781,311.9844 614.5625,311.8594 614.4688,311.7031 C614.3125,311.4375 614.0313,311.2969 613.7344,311.2969 C613.4375,311.2969 613.2344,311.3906 613.0156,311.7031 L612.8438,311.625 Z " fill="#000000"/><text fill="#000000" font-family="sans-serif" font-size="12" lengthAdjust="spacingAndGlyphs" textLength="71" x="660" y="306.1387">usantatecla.</text><text fill="#000000" font-family="sans-serif" font-size="12" lengthAdjust="spacingAndGlyphs" textLength="142" x="624.5" y="320.1074">mastermind.controllers.</text><text fill="#000000" font-family="sans-serif" font-size="12" lengthAdjust="spacingAndGlyphs" textLength="87" x="652" y="334.0762">StartController</text><line style="stroke:#A80036;stroke-width:1.5;" x1="596.5" x2="768.5" y1="341.9063" y2="341.9063"/><line style="stroke:#A80036;stroke-width:1.5;" x1="596.5" x2="768.5" y1="349.9063" y2="349.9063"/><!--MD5=[9dc2ab56716d4fbd8c61f2d17f2f3bab]
class PlayController--><rect codeLine="4" fill="#FEFECE" filter="url(#f167mr1zu91lpi)" height="67.9063" id="ProposalController" style="stroke:#A80036;stroke-width:1.5;" width="174" x="804.5" y="290"/><ellipse cx="819.5" cy="315.9531" fill="#ADD1B2" rx="11" ry="11" style="stroke:#A80036;stroke-width:1.0;"/><path d="M821.8438,311.625 C820.9063,311.1875 820.3125,311.0469 819.4375,311.0469 C816.8125,311.0469 814.8125,313.125 814.8125,315.8438 L814.8125,316.9688 C814.8125,319.5469 816.9219,321.4375 819.8125,321.4375 C821.0313,321.4375 822.1875,321.1406 822.9375,320.5938 C823.5156,320.1875 823.8438,319.7344 823.8438,319.3438 C823.8438,318.8906 823.4531,318.5 822.9844,318.5 C822.7656,318.5 822.5625,318.5781 822.375,318.7656 C821.9219,319.25 821.9219,319.25 821.7344,319.3438 C821.3125,319.6094 820.625,319.7344 819.8594,319.7344 C817.8125,319.7344 816.5156,318.6406 816.5156,316.9375 L816.5156,315.8438 C816.5156,314.0625 817.7656,312.75 819.5,312.75 C820.0781,312.75 820.6875,312.9063 821.1563,313.1563 C821.6406,313.4375 821.8125,313.6563 821.9063,314.0625 C821.9688,314.4688 822,314.5938 822.1406,314.7188 C822.2813,314.8594 822.5156,314.9688 822.7344,314.9688 C823,314.9688 823.2656,314.8281 823.4375,314.6094 C823.5469,314.4531 823.5781,314.2656 823.5781,313.8438 L823.5781,312.4219 C823.5781,311.9844 823.5625,311.8594 823.4688,311.7031 C823.3125,311.4375 823.0313,311.2969 822.7344,311.2969 C822.4375,311.2969 822.2344,311.3906 822.0156,311.7031 L821.8438,311.625 Z " fill="#000000"/><text fill="#000000" font-family="sans-serif" font-size="12" lengthAdjust="spacingAndGlyphs" textLength="71" x="869" y="306.1387">usantatecla.</text><text fill="#000000" font-family="sans-serif" font-size="12" lengthAdjust="spacingAndGlyphs" textLength="142" x="833.5" y="320.1074">mastermind.controllers.</text><text fill="#000000" font-family="sans-serif" font-size="12" lengthAdjust="spacingAndGlyphs" textLength="111" x="849" y="334.0762">ProposalController</text><line style="stroke:#A80036;stroke-width:1.5;" x1="805.5" x2="977.5" y1="341.9063" y2="341.9063"/><line style="stroke:#A80036;stroke-width:1.5;" x1="805.5" x2="977.5" y1="349.9063" y2="349.9063"/><!--MD5=[1a47bbf44ccee225df9b18c5b6629853]
class ResumeController--><rect codeLine="5" fill="#FEFECE" filter="url(#f167mr1zu91lpi)" height="67.9063" id="ResumeController" style="stroke:#A80036;stroke-width:1.5;" width="174" x="1013.5" y="290"/><ellipse cx="1028.5" cy="315.9531" fill="#ADD1B2" rx="11" ry="11" style="stroke:#A80036;stroke-width:1.0;"/><path d="M1030.8438,311.625 C1029.9063,311.1875 1029.3125,311.0469 1028.4375,311.0469 C1025.8125,311.0469 1023.8125,313.125 1023.8125,315.8438 L1023.8125,316.9688 C1023.8125,319.5469 1025.9219,321.4375 1028.8125,321.4375 C1030.0313,321.4375 1031.1875,321.1406 1031.9375,320.5938 C1032.5156,320.1875 1032.8438,319.7344 1032.8438,319.3438 C1032.8438,318.8906 1032.4531,318.5 1031.9844,318.5 C1031.7656,318.5 1031.5625,318.5781 1031.375,318.7656 C1030.9219,319.25 1030.9219,319.25 1030.7344,319.3438 C1030.3125,319.6094 1029.625,319.7344 1028.8594,319.7344 C1026.8125,319.7344 1025.5156,318.6406 1025.5156,316.9375 L1025.5156,315.8438 C1025.5156,314.0625 1026.7656,312.75 1028.5,312.75 C1029.0781,312.75 1029.6875,312.9063 1030.1563,313.1563 C1030.6406,313.4375 1030.8125,313.6563 1030.9063,314.0625 C1030.9688,314.4688 1031,314.5938 1031.1406,314.7188 C1031.2813,314.8594 1031.5156,314.9688 1031.7344,314.9688 C1032,314.9688 1032.2656,314.8281 1032.4375,314.6094 C1032.5469,314.4531 1032.5781,314.2656 1032.5781,313.8438 L1032.5781,312.4219 C1032.5781,311.9844 1032.5625,311.8594 1032.4688,311.7031 C1032.3125,311.4375 1032.0313,311.2969 1031.7344,311.2969 C1031.4375,311.2969 1031.2344,311.3906 1031.0156,311.7031 L1030.8438,311.625 Z " fill="#000000"/><text fill="#000000" font-family="sans-serif" font-size="12" lengthAdjust="spacingAndGlyphs" textLength="71" x="1078" y="306.1387">usantatecla.</text><text fill="#000000" font-family="sans-serif" font-size="12" lengthAdjust="spacingAndGlyphs" textLength="142" x="1042.5" y="320.1074">mastermind.controllers.</text><text fill="#000000" font-family="sans-serif" font-size="12" lengthAdjust="spacingAndGlyphs" textLength="107" x="1060" y="334.0762">ResumeController</text><line style="stroke:#A80036;stroke-width:1.5;" x1="1014.5" x2="1186.5" y1="341.9063" y2="341.9063"/><line style="stroke:#A80036;stroke-width:1.5;" x1="1014.5" x2="1186.5" y1="349.9063" y2="349.9063"/><!--MD5=[037b2a79b64666ba83d382cd2f7d163f]
link usantatecla.mastermind.views.ColorView to Color--><path codeLine="15" d="M119.5,210.084 C119.5,210.084 119.5,262.5953 119.5,283.5949 " fill="none" id="usantatecla.mastermind.views.ColorView-Color" style="stroke:#A80036;stroke-width:1.0;"/><polygon fill="#A80036" points="119.5,296.8378,123.5,287.8378,119.5,291.8378,115.5,287.8378,119.5,296.8378" style="stroke:#A80036;stroke-width:1.0;"/><line style="stroke:#A80036;stroke-width:1.0;" x1="119.5" x2="119.5" y1="291.8378" y2="283.8378"/><polygon fill="#A80036" points="119.5,198.084,115.5,204.084,119.5,210.084,123.5,204.084,119.5,198.084" style="stroke:#A80036;stroke-width:1.0;"/><!--MD5=[41b24afec43bb3213296ed92b425fcbe]
link usantatecla.mastermind.views.ErrorView to Error--><path codeLine="23" d="M493.7009,196.2882 C493.7009,196.2882 470.661,259.4769 461.518,284.5538 " fill="none" id="usantatecla.mastermind.views.ErrorView-Error" style="stroke:#A80036;stroke-width:1.0;"/><polygon fill="#A80036" points="457.034,296.8524,463.8748,289.767,458.7466,292.1549,456.3587,287.0267,457.034,296.8524" style="stroke:#A80036;stroke-width:1.0;"/><line style="stroke:#A80036;stroke-width:1.0;" x1="458.7466" x2="461.487" y1="292.1549" y2="284.6389"/><polygon fill="#A80036" points="497.811,185.014,491.9979,189.281,493.7009,196.2882,499.514,192.0211,497.811,185.014" style="stroke:#A80036;stroke-width:1.0;"/><!--MD5=[273910ab9a06095ac70566b39509618a]
link usantatecla.mastermind.views.View to StartController--><path codeLine="46" d="M761.8213,201.7408 C761.8213,201.7408 726.22,256.165 711.373,278.8629 " fill="none" id="usantatecla.mastermind.views.View-StartController" style="stroke:#A80036;stroke-width:1.0;"/><polygon fill="#A80036" points="704.177,289.862,712.4511,284.5197,706.914,285.6776,705.7561,280.1406,704.177,289.862" style="stroke:#A80036;stroke-width:1.0;"/><line style="stroke:#A80036;stroke-width:1.0;" x1="706.914" x2="711.294" y1="285.6776" y2="278.9829"/><polygon fill="#A80036" points="768.391,191.699,761.7589,194.53,761.8213,201.7408,768.4534,198.9098,768.391,191.699" style="stroke:#A80036;stroke-width:1.0;"/><!--MD5=[4f6aae9af055f4d5ec027256e89c8d02]
link usantatecla.mastermind.views.View to PlayController--><path codeLine="47" d="M835.3229,202.574 C835.3229,202.574 860.115,255.72 870.525,278.0373 " fill="none" id="usantatecla.mastermind.views.View-ProposalController" style="stroke:#A80036;stroke-width:1.0;"/><polygon fill="#A80036" points="876.042,289.862,875.8622,280.0148,873.9282,285.3308,868.6123,283.3968,876.042,289.862" style="stroke:#A80036;stroke-width:1.0;"/><line style="stroke:#A80036;stroke-width:1.0;" x1="873.9282" x2="870.5455" y1="285.3308" y2="278.0807"/><polygon fill="#A80036" points="830.25,191.699,829.1614,198.8275,835.3229,202.574,836.4114,195.4455,830.25,191.699" style="stroke:#A80036;stroke-width:1.0;"/><!--MD5=[16688c7af962ba3fc936127f33d47fbc]
link usantatecla.mastermind.views.View to ResumeController--><path codeLine="48" d="M902.2607,198.096 C902.2607,198.096 997.824,258.3074 1036.74,282.8265 " fill="none" id="usantatecla.mastermind.views.View-ResumeController" style="stroke:#A80036;stroke-width:1.0;"/><polygon fill="#A80036" points="1047.91,289.862,1042.4269,281.6805,1043.6794,287.197,1038.163,288.4495,1047.91,289.862" style="stroke:#A80036;stroke-width:1.0;"/><line style="stroke:#A80036;stroke-width:1.0;" x1="1043.6794" x2="1036.905" y1="287.197" y2="282.9319"/><polygon fill="#A80036" points="892.108,191.699,895.052,198.2818,902.2607,198.096,899.3167,191.5133,892.108,191.699" style="stroke:#A80036;stroke-width:1.0;"/><!--MD5=[1bc3198c8e9e08736233405b92eaa8b6]
@startuml
class Error as "usantatecla.mastermind.models.\nError"{}
class Color as "usantatecla.mastermind.models.\nColor"{}
class StartController as "usantatecla.\nmastermind.controllers.\nStartController"
class PlayController as "usantatecla.\nmastermind.controllers.\nPlayController"
class ResumeController as "usantatecla.\nmastermind.controllers.\nResumeController"

abstract class usantatecla.mastermind.views.ColorView{
    + {static} INITIALS: char []
    # ColorView()
    # ColorView(Color)
    + allInitials(): String
    # {abstract} resultInitials(int): String
    + {static} getInstance(char): Color
}
usantatecla.mastermind.views.ColorView *-down-> Color

abstract class usantatecla.mastermind.views.ErrorView{
    + MESSAGES: String []
    # ErrorView()
    + ErrorView(Error error)
    # {abstract} colorInitials(): String
}
usantatecla.mastermind.views.ErrorView *-down-> Error

enum usantatecla.mastermind.views.Message{
    + ATTEMPTS
    + SECRET
    + RESUME
    + RESULT
    + PROPOSED_COMBINATION
    + TITLE
    + WINNER
    + LOOSER
    - message: String
    - Message(String)
    + getMessage(): String
}

abstract class usantatecla.mastermind.views.View {
    + View(StartController, PlayController, ResumeController)
    + interact()
    # {abstract} start(): void
    # {abstract} propose(): boolean
    # {abstract} isNewGame(): boolean
}
usantatecla.mastermind.views.View *-down-> StartController
usantatecla.mastermind.views.View *-down-> PlayController
usantatecla.mastermind.views.View *-down-> ResumeController
@enduml

PlantUML version 1.2020.22beta2(Unknown compile time)
(GPL source distribution)
Java Runtime: Java(TM) SE Runtime Environment
JVM: Java HotSpot(TM) 64-Bit Server VM
Default Encoding: UTF-8
Language: en
Country: US
--></g></svg>