<?xml version="1.0" encoding="UTF-8" standalone="no"?><svg xmlns="http://www.w3.org/2000/svg" xmlns:xlink="http://www.w3.org/1999/xlink" contentScriptType="application/ecmascript" contentStyleType="text/css" height="1119px" preserveAspectRatio="none" style="width:2403px;height:1119px;" version="1.1" viewBox="0 0 2403 1119" width="2403px" zoomAndPan="magnify"><defs><filter height="300%" id="fclpq2oyf48p5" width="300%" x="-1" y="-1"><feGaussianBlur result="blurOut" stdDeviation="2.0"/><feColorMatrix in="blurOut" result="blurOut2" type="matrix" values="0 0 0 0 0 0 0 0 0 0 0 0 0 0 0 0 0 0 .4 0"/><feOffset dx="4.0" dy="4.0" in="blurOut2" result="blurOut3"/><feBlend in="SourceGraphic" in2="blurOut3" mode="normal"/></filter></defs><g><!--MD5=[870a69ce9634146fd8c5498968cba5fd]
cluster usantatecla.mastermind.views.console--><polygon fill="#FFFFFF" filter="url(#fclpq2oyf48p5)" points="172,100,496,100,503,122.2969,1151,122.2969,1151,994,172,994,172,100" style="stroke:#000000;stroke-width:1.5;"/><line style="stroke:#000000;stroke-width:1.5;" x1="172" x2="503" y1="122.2969" y2="122.2969"/><text fill="#000000" font-family="sans-serif" font-size="14" font-weight="bold" lengthAdjust="spacingAndGlyphs" textLength="318" x="176" y="114.9951">usantatecla.mastermind.views.console</text><!--MD5=[dd3efb2c58b4e82c246b11a4f49b163b]
class usantatecla.mastermind.views.console.ConsoleView--><rect codeLine="15" fill="#FEFECE" filter="url(#fclpq2oyf48p5)" height="99.2188" id="usantatecla.mastermind.views.console.ConsoleView" style="stroke:#A80036;stroke-width:1.5;" width="408" x="727" y="135"/><ellipse cx="887.75" cy="151" fill="#ADD1B2" rx="11" ry="11" style="stroke:#A80036;stroke-width:1.0;"/><path d="M890.0938,146.6719 C889.1563,146.2344 888.5625,146.0938 887.6875,146.0938 C885.0625,146.0938 883.0625,148.1719 883.0625,150.8906 L883.0625,152.0156 C883.0625,154.5938 885.1719,156.4844 888.0625,156.4844 C889.2813,156.4844 890.4375,156.1875 891.1875,155.6406 C891.7656,155.2344 892.0938,154.7813 892.0938,154.3906 C892.0938,153.9375 891.7031,153.5469 891.2344,153.5469 C891.0156,153.5469 890.8125,153.625 890.625,153.8125 C890.1719,154.2969 890.1719,154.2969 889.9844,154.3906 C889.5625,154.6563 888.875,154.7813 888.1094,154.7813 C886.0625,154.7813 884.7656,153.6875 884.7656,151.9844 L884.7656,150.8906 C884.7656,149.1094 886.0156,147.7969 887.75,147.7969 C888.3281,147.7969 888.9375,147.9531 889.4063,148.2031 C889.8906,148.4844 890.0625,148.7031 890.1563,149.1094 C890.2188,149.5156 890.25,149.6406 890.3906,149.7656 C890.5313,149.9063 890.7656,150.0156 890.9844,150.0156 C891.25,150.0156 891.5156,149.875 891.6875,149.6563 C891.7969,149.5 891.8281,149.3125 891.8281,148.8906 L891.8281,147.4688 C891.8281,147.0313 891.8125,146.9063 891.7188,146.75 C891.5625,146.4844 891.2813,146.3438 890.9844,146.3438 C890.6875,146.3438 890.4844,146.4375 890.2656,146.75 L890.0938,146.6719 Z " fill="#000000"/><text fill="#000000" font-family="sans-serif" font-size="12" lengthAdjust="spacingAndGlyphs" textLength="78" x="908.25" y="155.1543">ConsoleView</text><line style="stroke:#A80036;stroke-width:1.5;" x1="728" x2="1134" y1="167" y2="167"/><line style="stroke:#A80036;stroke-width:1.5;" x1="728" x2="1134" y1="175" y2="175"/><ellipse cx="738" cy="186" fill="#84BE84" rx="3" ry="3" style="stroke:#038048;stroke-width:1.0;"/><text fill="#000000" font-family="sans-serif" font-size="11" lengthAdjust="spacingAndGlyphs" textLength="382" x="747" y="189.2104">ConsoleView(StartController, ProposalController, ResumeController)</text><polygon fill="#FFFF44" points="738,193.8047,742,197.8047,738,201.8047,734,197.8047" style="stroke:#B38D22;stroke-width:1.0;"/><text fill="#000000" font-family="sans-serif" font-size="11" lengthAdjust="spacingAndGlyphs" textLength="33" x="747" y="202.0151">start()</text><polygon fill="#FFFF44" points="738,206.6094,742,210.6094,738,214.6094,734,210.6094" style="stroke:#B38D22;stroke-width:1.0;"/><text fill="#000000" font-family="sans-serif" font-size="11" lengthAdjust="spacingAndGlyphs" textLength="111" x="747" y="214.8198">propose() : boolean</text><polygon fill="#FFFF44" points="738,219.4141,742,223.4141,738,227.4141,734,223.4141" style="stroke:#B38D22;stroke-width:1.0;"/><text fill="#000000" font-family="sans-serif" font-size="11" lengthAdjust="spacingAndGlyphs" textLength="134" x="747" y="227.6245">isNewGame() : boolean</text><!--MD5=[0443121bcbe511df2c378d392fee4a36]
class usantatecla.mastermind.views.console.StartView--><rect codeLine="37" fill="#FEFECE" filter="url(#fclpq2oyf48p5)" height="73.6094" id="usantatecla.mastermind.views.console.StartView" style="stroke:#A80036;stroke-width:1.5;" width="171" x="963.5" y="434"/><ellipse cx="1016.25" cy="450" fill="#ADD1B2" rx="11" ry="11" style="stroke:#A80036;stroke-width:1.0;"/><path d="M1018.5938,445.6719 C1017.6563,445.2344 1017.0625,445.0938 1016.1875,445.0938 C1013.5625,445.0938 1011.5625,447.1719 1011.5625,449.8906 L1011.5625,451.0156 C1011.5625,453.5938 1013.6719,455.4844 1016.5625,455.4844 C1017.7813,455.4844 1018.9375,455.1875 1019.6875,454.6406 C1020.2656,454.2344 1020.5938,453.7813 1020.5938,453.3906 C1020.5938,452.9375 1020.2031,452.5469 1019.7344,452.5469 C1019.5156,452.5469 1019.3125,452.625 1019.125,452.8125 C1018.6719,453.2969 1018.6719,453.2969 1018.4844,453.3906 C1018.0625,453.6563 1017.375,453.7813 1016.6094,453.7813 C1014.5625,453.7813 1013.2656,452.6875 1013.2656,450.9844 L1013.2656,449.8906 C1013.2656,448.1094 1014.5156,446.7969 1016.25,446.7969 C1016.8281,446.7969 1017.4375,446.9531 1017.9063,447.2031 C1018.3906,447.4844 1018.5625,447.7031 1018.6563,448.1094 C1018.7188,448.5156 1018.75,448.6406 1018.8906,448.7656 C1019.0313,448.9063 1019.2656,449.0156 1019.4844,449.0156 C1019.75,449.0156 1020.0156,448.875 1020.1875,448.6563 C1020.2969,448.5 1020.3281,448.3125 1020.3281,447.8906 L1020.3281,446.4688 C1020.3281,446.0313 1020.3125,445.9063 1020.2188,445.75 C1020.0625,445.4844 1019.7813,445.3438 1019.4844,445.3438 C1019.1875,445.3438 1018.9844,445.4375 1018.7656,445.75 L1018.5938,445.6719 Z " fill="#000000"/><text fill="#000000" font-family="sans-serif" font-size="12" lengthAdjust="spacingAndGlyphs" textLength="57" x="1036.75" y="454.1543">StartView</text><line style="stroke:#A80036;stroke-width:1.5;" x1="964.5" x2="1133.5" y1="466" y2="466"/><line style="stroke:#A80036;stroke-width:1.5;" x1="964.5" x2="1133.5" y1="474" y2="474"/><polygon fill="#4177AF" points="974.5,481,970.5,487,978.5,487" style="stroke:#1963A0;stroke-width:1.0;"/><text fill="#000000" font-family="sans-serif" font-size="11" lengthAdjust="spacingAndGlyphs" textLength="145" x="983.5" y="488.2104">StartView(StartController)</text><polygon fill="#4177AF" points="974.5,493.8047,970.5,499.8047,978.5,499.8047" style="stroke:#1963A0;stroke-width:1.0;"/><text fill="#000000" font-family="sans-serif" font-size="11" lengthAdjust="spacingAndGlyphs" textLength="51" x="983.5" y="501.0151">interact()</text><!--MD5=[3fc381aa527804d9b0f68b14a0cbd981]
class usantatecla.mastermind.views.console.ProposalView--><rect codeLine="59" fill="#FEFECE" filter="url(#fclpq2oyf48p5)" height="73.6094" id="usantatecla.mastermind.views.console.ProposalView" style="stroke:#A80036;stroke-width:1.5;" width="211" x="639.5" y="294"/><ellipse cx="700.25" cy="310" fill="#ADD1B2" rx="11" ry="11" style="stroke:#A80036;stroke-width:1.0;"/><path d="M702.5938,305.6719 C701.6563,305.2344 701.0625,305.0938 700.1875,305.0938 C697.5625,305.0938 695.5625,307.1719 695.5625,309.8906 L695.5625,311.0156 C695.5625,313.5938 697.6719,315.4844 700.5625,315.4844 C701.7813,315.4844 702.9375,315.1875 703.6875,314.6406 C704.2656,314.2344 704.5938,313.7813 704.5938,313.3906 C704.5938,312.9375 704.2031,312.5469 703.7344,312.5469 C703.5156,312.5469 703.3125,312.625 703.125,312.8125 C702.6719,313.2969 702.6719,313.2969 702.4844,313.3906 C702.0625,313.6563 701.375,313.7813 700.6094,313.7813 C698.5625,313.7813 697.2656,312.6875 697.2656,310.9844 L697.2656,309.8906 C697.2656,308.1094 698.5156,306.7969 700.25,306.7969 C700.8281,306.7969 701.4375,306.9531 701.9063,307.2031 C702.3906,307.4844 702.5625,307.7031 702.6563,308.1094 C702.7188,308.5156 702.75,308.6406 702.8906,308.7656 C703.0313,308.9063 703.2656,309.0156 703.4844,309.0156 C703.75,309.0156 704.0156,308.875 704.1875,308.6563 C704.2969,308.5 704.3281,308.3125 704.3281,307.8906 L704.3281,306.4688 C704.3281,306.0313 704.3125,305.9063 704.2188,305.75 C704.0625,305.4844 703.7813,305.3438 703.4844,305.3438 C703.1875,305.3438 702.9844,305.4375 702.7656,305.75 L702.5938,305.6719 Z " fill="#000000"/><text fill="#000000" font-family="sans-serif" font-size="12" lengthAdjust="spacingAndGlyphs" textLength="81" x="720.75" y="314.1543">ProposalView</text><line style="stroke:#A80036;stroke-width:1.5;" x1="640.5" x2="849.5" y1="326" y2="326"/><line style="stroke:#A80036;stroke-width:1.5;" x1="640.5" x2="849.5" y1="334" y2="334"/><polygon fill="#4177AF" points="650.5,341,646.5,347,654.5,347" style="stroke:#1963A0;stroke-width:1.0;"/><text fill="#000000" font-family="sans-serif" font-size="11" lengthAdjust="spacingAndGlyphs" textLength="185" x="659.5" y="348.2104">ProposalView(ProposalController)</text><polygon fill="#4177AF" points="650.5,353.8047,646.5,359.8047,654.5,359.8047" style="stroke:#1963A0;stroke-width:1.0;"/><text fill="#000000" font-family="sans-serif" font-size="11" lengthAdjust="spacingAndGlyphs" textLength="108" x="659.5" y="361.0151">interact() : boolean</text><!--MD5=[9bc3463fd80c6188f2068243b6359e84]
class usantatecla.mastermind.views.console.ResumeView--><rect codeLine="29" fill="#FEFECE" filter="url(#fclpq2oyf48p5)" height="73.6094" id="usantatecla.mastermind.views.console.ResumeView" style="stroke:#A80036;stroke-width:1.5;" width="211" x="923.5" y="294"/><ellipse cx="986.25" cy="310" fill="#ADD1B2" rx="11" ry="11" style="stroke:#A80036;stroke-width:1.0;"/><path d="M988.5938,305.6719 C987.6563,305.2344 987.0625,305.0938 986.1875,305.0938 C983.5625,305.0938 981.5625,307.1719 981.5625,309.8906 L981.5625,311.0156 C981.5625,313.5938 983.6719,315.4844 986.5625,315.4844 C987.7813,315.4844 988.9375,315.1875 989.6875,314.6406 C990.2656,314.2344 990.5938,313.7813 990.5938,313.3906 C990.5938,312.9375 990.2031,312.5469 989.7344,312.5469 C989.5156,312.5469 989.3125,312.625 989.125,312.8125 C988.6719,313.2969 988.6719,313.2969 988.4844,313.3906 C988.0625,313.6563 987.375,313.7813 986.6094,313.7813 C984.5625,313.7813 983.2656,312.6875 983.2656,310.9844 L983.2656,309.8906 C983.2656,308.1094 984.5156,306.7969 986.25,306.7969 C986.8281,306.7969 987.4375,306.9531 987.9063,307.2031 C988.3906,307.4844 988.5625,307.7031 988.6563,308.1094 C988.7188,308.5156 988.75,308.6406 988.8906,308.7656 C989.0313,308.9063 989.2656,309.0156 989.4844,309.0156 C989.75,309.0156 990.0156,308.875 990.1875,308.6563 C990.2969,308.5 990.3281,308.3125 990.3281,307.8906 L990.3281,306.4688 C990.3281,306.0313 990.3125,305.9063 990.2188,305.75 C990.0625,305.4844 989.7813,305.3438 989.4844,305.3438 C989.1875,305.3438 988.9844,305.4375 988.7656,305.75 L988.5938,305.6719 Z " fill="#000000"/><text fill="#000000" font-family="sans-serif" font-size="12" lengthAdjust="spacingAndGlyphs" textLength="77" x="1006.75" y="314.1543">ResumeView</text><line style="stroke:#A80036;stroke-width:1.5;" x1="924.5" x2="1133.5" y1="326" y2="326"/><line style="stroke:#A80036;stroke-width:1.5;" x1="924.5" x2="1133.5" y1="334" y2="334"/><polygon fill="#4177AF" points="934.5,341,930.5,347,938.5,347" style="stroke:#1963A0;stroke-width:1.0;"/><text fill="#000000" font-family="sans-serif" font-size="11" lengthAdjust="spacingAndGlyphs" textLength="185" x="943.5" y="348.2104">ResumeView(ResumeController)</text><polygon fill="#4177AF" points="934.5,353.8047,930.5,359.8047,938.5,359.8047" style="stroke:#1963A0;stroke-width:1.0;"/><text fill="#000000" font-family="sans-serif" font-size="11" lengthAdjust="spacingAndGlyphs" textLength="108" x="943.5" y="361.0151">interact() : boolean</text><!--MD5=[6895d7787d38d293342c8d69eaf320fc]
class usantatecla.mastermind.views.console.SecretCombinationView--><rect codeLine="81" fill="#FEFECE" filter="url(#fclpq2oyf48p5)" height="73.6094" id="usantatecla.mastermind.views.console.SecretCombinationView" style="stroke:#A80036;stroke-width:1.5;" width="226" x="674" y="580"/><ellipse cx="711.95" cy="596" fill="#ADD1B2" rx="11" ry="11" style="stroke:#A80036;stroke-width:1.0;"/><path d="M714.2938,591.6719 C713.3563,591.2344 712.7625,591.0938 711.8875,591.0938 C709.2625,591.0938 707.2625,593.1719 707.2625,595.8906 L707.2625,597.0156 C707.2625,599.5938 709.3719,601.4844 712.2625,601.4844 C713.4813,601.4844 714.6375,601.1875 715.3875,600.6406 C715.9656,600.2344 716.2938,599.7813 716.2938,599.3906 C716.2938,598.9375 715.9031,598.5469 715.4344,598.5469 C715.2156,598.5469 715.0125,598.625 714.825,598.8125 C714.3719,599.2969 714.3719,599.2969 714.1844,599.3906 C713.7625,599.6563 713.075,599.7813 712.3094,599.7813 C710.2625,599.7813 708.9656,598.6875 708.9656,596.9844 L708.9656,595.8906 C708.9656,594.1094 710.2156,592.7969 711.95,592.7969 C712.5281,592.7969 713.1375,592.9531 713.6063,593.2031 C714.0906,593.4844 714.2625,593.7031 714.3563,594.1094 C714.4188,594.5156 714.45,594.6406 714.5906,594.7656 C714.7313,594.9063 714.9656,595.0156 715.1844,595.0156 C715.45,595.0156 715.7156,594.875 715.8875,594.6563 C715.9969,594.5 716.0281,594.3125 716.0281,593.8906 L716.0281,592.4688 C716.0281,592.0313 716.0125,591.9063 715.9188,591.75 C715.7625,591.4844 715.4813,591.3438 715.1844,591.3438 C714.8875,591.3438 714.6844,591.4375 714.4656,591.75 L714.2938,591.6719 Z " fill="#000000"/><text fill="#000000" font-family="sans-serif" font-size="12" lengthAdjust="spacingAndGlyphs" textLength="143" x="731.05" y="600.1543">SecretCombinationView</text><line style="stroke:#A80036;stroke-width:1.5;" x1="675" x2="899" y1="612" y2="612"/><line style="stroke:#A80036;stroke-width:1.5;" x1="675" x2="899" y1="620" y2="620"/><polygon fill="#4177AF" points="685,627,681,633,689,633" style="stroke:#1963A0;stroke-width:1.0;"/><text fill="#000000" font-family="sans-serif" font-size="11" lengthAdjust="spacingAndGlyphs" textLength="200" x="694" y="634.2104">SecretCombinationView(Controller)</text><polygon fill="#4177AF" points="685,639.8047,681,645.8047,689,645.8047" style="stroke:#1963A0;stroke-width:1.0;"/><text fill="#000000" font-family="sans-serif" font-size="11" lengthAdjust="spacingAndGlyphs" textLength="46" x="694" y="647.0151">writeln()</text><!--MD5=[5d8d3b26785111685f5f40cebb1fba2a]
class usantatecla.mastermind.views.console.GameView--><rect codeLine="46" fill="#FEFECE" filter="url(#fclpq2oyf48p5)" height="86.4141" id="usantatecla.mastermind.views.console.GameView" style="stroke:#A80036;stroke-width:1.5;" width="357" x="571.5" y="428"/><ellipse cx="713.75" cy="444" fill="#ADD1B2" rx="11" ry="11" style="stroke:#A80036;stroke-width:1.0;"/><path d="M716.0938,439.6719 C715.1563,439.2344 714.5625,439.0938 713.6875,439.0938 C711.0625,439.0938 709.0625,441.1719 709.0625,443.8906 L709.0625,445.0156 C709.0625,447.5938 711.1719,449.4844 714.0625,449.4844 C715.2813,449.4844 716.4375,449.1875 717.1875,448.6406 C717.7656,448.2344 718.0938,447.7813 718.0938,447.3906 C718.0938,446.9375 717.7031,446.5469 717.2344,446.5469 C717.0156,446.5469 716.8125,446.625 716.625,446.8125 C716.1719,447.2969 716.1719,447.2969 715.9844,447.3906 C715.5625,447.6563 714.875,447.7813 714.1094,447.7813 C712.0625,447.7813 710.7656,446.6875 710.7656,444.9844 L710.7656,443.8906 C710.7656,442.1094 712.0156,440.7969 713.75,440.7969 C714.3281,440.7969 714.9375,440.9531 715.4063,441.2031 C715.8906,441.4844 716.0625,441.7031 716.1563,442.1094 C716.2188,442.5156 716.25,442.6406 716.3906,442.7656 C716.5313,442.9063 716.7656,443.0156 716.9844,443.0156 C717.25,443.0156 717.5156,442.875 717.6875,442.6563 C717.7969,442.5 717.8281,442.3125 717.8281,441.8906 L717.8281,440.4688 C717.8281,440.0313 717.8125,439.9063 717.7188,439.75 C717.5625,439.4844 717.2813,439.3438 716.9844,439.3438 C716.6875,439.3438 716.4844,439.4375 716.2656,439.75 L716.0938,439.6719 Z " fill="#000000"/><text fill="#000000" font-family="sans-serif" font-size="12" lengthAdjust="spacingAndGlyphs" textLength="64" x="734.25" y="448.1543">GameView</text><line style="stroke:#A80036;stroke-width:1.5;" x1="572.5" x2="927.5" y1="460" y2="460"/><line style="stroke:#A80036;stroke-width:1.5;" x1="572.5" x2="927.5" y1="468" y2="468"/><polygon fill="#4177AF" points="582.5,475,578.5,481,586.5,481" style="stroke:#1963A0;stroke-width:1.0;"/><text fill="#000000" font-family="sans-serif" font-size="11" lengthAdjust="spacingAndGlyphs" textLength="331" x="591.5" y="482.2104">GameView(ProposalController, ProposedCombinationView)</text><polygon fill="#4177AF" points="582.5,487.8047,578.5,493.8047,586.5,493.8047" style="stroke:#1963A0;stroke-width:1.0;"/><text fill="#000000" font-family="sans-serif" font-size="11" lengthAdjust="spacingAndGlyphs" textLength="36" x="591.5" y="495.0151">write()</text><polygon fill="#4177AF" points="582.5,500.6094,578.5,506.6094,586.5,506.6094" style="stroke:#1963A0;stroke-width:1.0;"/><text fill="#000000" font-family="sans-serif" font-size="11" lengthAdjust="spacingAndGlyphs" textLength="165" x="591.5" y="507.8198">isWinnerOrLooser() : boolean</text><!--MD5=[0738facfc05fd0e5380c8577e6609970]
class usantatecla.mastermind.views.console.AttemptsView--><rect codeLine="97" fill="#FEFECE" filter="url(#fclpq2oyf48p5)" height="73.6094" id="usantatecla.mastermind.views.console.AttemptsView" style="stroke:#A80036;stroke-width:1.5;" width="128" x="511" y="580"/><ellipse cx="531.85" cy="596" fill="#ADD1B2" rx="11" ry="11" style="stroke:#A80036;stroke-width:1.0;"/><path d="M534.1938,591.6719 C533.2563,591.2344 532.6625,591.0938 531.7875,591.0938 C529.1625,591.0938 527.1625,593.1719 527.1625,595.8906 L527.1625,597.0156 C527.1625,599.5938 529.2719,601.4844 532.1625,601.4844 C533.3813,601.4844 534.5375,601.1875 535.2875,600.6406 C535.8656,600.2344 536.1938,599.7813 536.1938,599.3906 C536.1938,598.9375 535.8031,598.5469 535.3344,598.5469 C535.1156,598.5469 534.9125,598.625 534.725,598.8125 C534.2719,599.2969 534.2719,599.2969 534.0844,599.3906 C533.6625,599.6563 532.975,599.7813 532.2094,599.7813 C530.1625,599.7813 528.8656,598.6875 528.8656,596.9844 L528.8656,595.8906 C528.8656,594.1094 530.1156,592.7969 531.85,592.7969 C532.4281,592.7969 533.0375,592.9531 533.5063,593.2031 C533.9906,593.4844 534.1625,593.7031 534.2563,594.1094 C534.3188,594.5156 534.35,594.6406 534.4906,594.7656 C534.6313,594.9063 534.8656,595.0156 535.0844,595.0156 C535.35,595.0156 535.6156,594.875 535.7875,594.6563 C535.8969,594.5 535.9281,594.3125 535.9281,593.8906 L535.9281,592.4688 C535.9281,592.0313 535.9125,591.9063 535.8188,591.75 C535.6625,591.4844 535.3813,591.3438 535.0844,591.3438 C534.7875,591.3438 534.5844,591.4375 534.3656,591.75 L534.1938,591.6719 Z " fill="#000000"/><text fill="#000000" font-family="sans-serif" font-size="12" lengthAdjust="spacingAndGlyphs" textLength="83" x="547.15" y="600.1543">AttemptsView</text><line style="stroke:#A80036;stroke-width:1.5;" x1="512" x2="638" y1="612" y2="612"/><line style="stroke:#A80036;stroke-width:1.5;" x1="512" x2="638" y1="620" y2="620"/><polygon fill="#4177AF" points="522,627,518,633,526,633" style="stroke:#1963A0;stroke-width:1.0;"/><text fill="#000000" font-family="sans-serif" font-size="11" lengthAdjust="spacingAndGlyphs" textLength="102" x="531" y="634.2104">AttemptsView(int)</text><polygon fill="#4177AF" points="522,639.8047,518,645.8047,526,645.8047" style="stroke:#1963A0;stroke-width:1.0;"/><text fill="#000000" font-family="sans-serif" font-size="11" lengthAdjust="spacingAndGlyphs" textLength="46" x="531" y="647.0151">writeln()</text><!--MD5=[f72db8a2bcbe9ab8c7a89f2fd89e6b01]
class usantatecla.mastermind.views.console.ResultView--><rect codeLine="89" fill="#FEFECE" filter="url(#fclpq2oyf48p5)" height="73.6094" id="usantatecla.mastermind.views.console.ResultView" style="stroke:#A80036;stroke-width:1.5;" width="199" x="935.5" y="580"/><ellipse cx="998.25" cy="596" fill="#ADD1B2" rx="11" ry="11" style="stroke:#A80036;stroke-width:1.0;"/><path d="M1000.5938,591.6719 C999.6563,591.2344 999.0625,591.0938 998.1875,591.0938 C995.5625,591.0938 993.5625,593.1719 993.5625,595.8906 L993.5625,597.0156 C993.5625,599.5938 995.6719,601.4844 998.5625,601.4844 C999.7813,601.4844 1000.9375,601.1875 1001.6875,600.6406 C1002.2656,600.2344 1002.5938,599.7813 1002.5938,599.3906 C1002.5938,598.9375 1002.2031,598.5469 1001.7344,598.5469 C1001.5156,598.5469 1001.3125,598.625 1001.125,598.8125 C1000.6719,599.2969 1000.6719,599.2969 1000.4844,599.3906 C1000.0625,599.6563 999.375,599.7813 998.6094,599.7813 C996.5625,599.7813 995.2656,598.6875 995.2656,596.9844 L995.2656,595.8906 C995.2656,594.1094 996.5156,592.7969 998.25,592.7969 C998.8281,592.7969 999.4375,592.9531 999.9063,593.2031 C1000.3906,593.4844 1000.5625,593.7031 1000.6563,594.1094 C1000.7188,594.5156 1000.75,594.6406 1000.8906,594.7656 C1001.0313,594.9063 1001.2656,595.0156 1001.4844,595.0156 C1001.75,595.0156 1002.0156,594.875 1002.1875,594.6563 C1002.2969,594.5 1002.3281,594.3125 1002.3281,593.8906 L1002.3281,592.4688 C1002.3281,592.0313 1002.3125,591.9063 1002.2188,591.75 C1002.0625,591.4844 1001.7813,591.3438 1001.4844,591.3438 C1001.1875,591.3438 1000.9844,591.4375 1000.7656,591.75 L1000.5938,591.6719 Z " fill="#000000"/><text fill="#000000" font-family="sans-serif" font-size="12" lengthAdjust="spacingAndGlyphs" textLength="65" x="1018.75" y="600.1543">ResultView</text><line style="stroke:#A80036;stroke-width:1.5;" x1="936.5" x2="1133.5" y1="612" y2="612"/><line style="stroke:#A80036;stroke-width:1.5;" x1="936.5" x2="1133.5" y1="620" y2="620"/><polygon fill="#4177AF" points="946.5,627,942.5,633,950.5,633" style="stroke:#1963A0;stroke-width:1.0;"/><text fill="#000000" font-family="sans-serif" font-size="11" lengthAdjust="spacingAndGlyphs" textLength="173" x="955.5" y="634.2104">ResultView(ProposalController)</text><polygon fill="#4177AF" points="946.5,639.8047,942.5,645.8047,950.5,645.8047" style="stroke:#1963A0;stroke-width:1.0;"/><text fill="#000000" font-family="sans-serif" font-size="11" lengthAdjust="spacingAndGlyphs" textLength="46" x="955.5" y="647.0151">writeln()</text><!--MD5=[b9e96ebb3841247a1bc6f6a4b0e36cb2]
class usantatecla.mastermind.views.console.ProposedCombinationView--><rect codeLine="69" fill="#FEFECE" filter="url(#fclpq2oyf48p5)" height="86.4141" id="usantatecla.mastermind.views.console.ProposedCombinationView" style="stroke:#A80036;stroke-width:1.5;" width="287" x="188.5" y="574"/><ellipse cx="247.25" cy="590" fill="#ADD1B2" rx="11" ry="11" style="stroke:#A80036;stroke-width:1.0;"/><path d="M249.5938,585.6719 C248.6563,585.2344 248.0625,585.0938 247.1875,585.0938 C244.5625,585.0938 242.5625,587.1719 242.5625,589.8906 L242.5625,591.0156 C242.5625,593.5938 244.6719,595.4844 247.5625,595.4844 C248.7813,595.4844 249.9375,595.1875 250.6875,594.6406 C251.2656,594.2344 251.5938,593.7813 251.5938,593.3906 C251.5938,592.9375 251.2031,592.5469 250.7344,592.5469 C250.5156,592.5469 250.3125,592.625 250.125,592.8125 C249.6719,593.2969 249.6719,593.2969 249.4844,593.3906 C249.0625,593.6563 248.375,593.7813 247.6094,593.7813 C245.5625,593.7813 244.2656,592.6875 244.2656,590.9844 L244.2656,589.8906 C244.2656,588.1094 245.5156,586.7969 247.25,586.7969 C247.8281,586.7969 248.4375,586.9531 248.9063,587.2031 C249.3906,587.4844 249.5625,587.7031 249.6563,588.1094 C249.7188,588.5156 249.75,588.6406 249.8906,588.7656 C250.0313,588.9063 250.2656,589.0156 250.4844,589.0156 C250.75,589.0156 251.0156,588.875 251.1875,588.6563 C251.2969,588.5 251.3281,588.3125 251.3281,587.8906 L251.3281,586.4688 C251.3281,586.0313 251.3125,585.9063 251.2188,585.75 C251.0625,585.4844 250.7813,585.3438 250.4844,585.3438 C250.1875,585.3438 249.9844,585.4375 249.7656,585.75 L249.5938,585.6719 Z " fill="#000000"/><text fill="#000000" font-family="sans-serif" font-size="12" lengthAdjust="spacingAndGlyphs" textLength="161" x="267.75" y="594.1543">ProposedCombinationView</text><line style="stroke:#A80036;stroke-width:1.5;" x1="189.5" x2="474.5" y1="606" y2="606"/><line style="stroke:#A80036;stroke-width:1.5;" x1="189.5" x2="474.5" y1="614" y2="614"/><polygon fill="#4177AF" points="199.5,621,195.5,627,203.5,627" style="stroke:#1963A0;stroke-width:1.0;"/><text fill="#000000" font-family="sans-serif" font-size="11" lengthAdjust="spacingAndGlyphs" textLength="261" x="208.5" y="628.2104">ProposedCombinationView(ProposalController)</text><polygon fill="#4177AF" points="199.5,633.8047,195.5,639.8047,203.5,639.8047" style="stroke:#1963A0;stroke-width:1.0;"/><text fill="#000000" font-family="sans-serif" font-size="11" lengthAdjust="spacingAndGlyphs" textLength="36" x="208.5" y="641.0151">write()</text><polygon fill="#4177AF" points="199.5,646.6094,195.5,652.6094,203.5,652.6094" style="stroke:#1963A0;stroke-width:1.0;"/><text fill="#000000" font-family="sans-serif" font-size="11" lengthAdjust="spacingAndGlyphs" textLength="34" x="208.5" y="653.8198">read()</text><!--MD5=[f95016829e4a1954e9b815203fd5b79a]
class usantatecla.mastermind.views.console.ErrorView--><rect codeLine="115" fill="#FEFECE" filter="url(#fclpq2oyf48p5)" height="99.2188" id="usantatecla.mastermind.views.console.ErrorView" style="stroke:#A80036;stroke-width:1.5;" width="141" x="622.5" y="720"/><ellipse cx="660" cy="736" fill="#ADD1B2" rx="11" ry="11" style="stroke:#A80036;stroke-width:1.0;"/><path d="M662.3438,731.6719 C661.4063,731.2344 660.8125,731.0938 659.9375,731.0938 C657.3125,731.0938 655.3125,733.1719 655.3125,735.8906 L655.3125,737.0156 C655.3125,739.5938 657.4219,741.4844 660.3125,741.4844 C661.5313,741.4844 662.6875,741.1875 663.4375,740.6406 C664.0156,740.2344 664.3438,739.7813 664.3438,739.3906 C664.3438,738.9375 663.9531,738.5469 663.4844,738.5469 C663.2656,738.5469 663.0625,738.625 662.875,738.8125 C662.4219,739.2969 662.4219,739.2969 662.2344,739.3906 C661.8125,739.6563 661.125,739.7813 660.3594,739.7813 C658.3125,739.7813 657.0156,738.6875 657.0156,736.9844 L657.0156,735.8906 C657.0156,734.1094 658.2656,732.7969 660,732.7969 C660.5781,732.7969 661.1875,732.9531 661.6563,733.2031 C662.1406,733.4844 662.3125,733.7031 662.4063,734.1094 C662.4688,734.5156 662.5,734.6406 662.6406,734.7656 C662.7813,734.9063 663.0156,735.0156 663.2344,735.0156 C663.5,735.0156 663.7656,734.875 663.9375,734.6563 C664.0469,734.5 664.0781,734.3125 664.0781,733.8906 L664.0781,732.4688 C664.0781,732.0313 664.0625,731.9063 663.9688,731.75 C663.8125,731.4844 663.5313,731.3438 663.2344,731.3438 C662.9375,731.3438 662.7344,731.4375 662.5156,731.75 L662.3438,731.6719 Z " fill="#000000"/><text fill="#000000" font-family="sans-serif" font-size="12" lengthAdjust="spacingAndGlyphs" textLength="59" x="679" y="740.1543">ErrorView</text><line style="stroke:#A80036;stroke-width:1.5;" x1="623.5" x2="762.5" y1="752" y2="752"/><line style="stroke:#A80036;stroke-width:1.5;" x1="623.5" x2="762.5" y1="760" y2="760"/><polygon fill="#4177AF" points="633.5,767,629.5,773,637.5,773" style="stroke:#1963A0;stroke-width:1.0;"/><text fill="#000000" font-family="sans-serif" font-size="11" lengthAdjust="spacingAndGlyphs" textLength="62" x="642.5" y="774.2104">ErrorView()</text><polygon fill="#4177AF" points="633.5,779.8047,629.5,785.8047,637.5,785.8047" style="stroke:#1963A0;stroke-width:1.0;"/><text fill="#000000" font-family="sans-serif" font-size="11" lengthAdjust="spacingAndGlyphs" textLength="88" x="642.5" y="787.0151">ErrorView(Error)</text><polygon fill="#4177AF" points="633.5,792.6094,629.5,798.6094,637.5,798.6094" style="stroke:#1963A0;stroke-width:1.0;"/><text fill="#000000" font-family="sans-serif" font-size="11" lengthAdjust="spacingAndGlyphs" textLength="46" x="642.5" y="799.8198">writeln()</text><polygon fill="#FFFF44" points="633.5,804.4141,637.5,808.4141,633.5,812.4141,629.5,808.4141" style="stroke:#B38D22;stroke-width:1.0;"/><text fill="#000000" font-family="sans-serif" font-size="11" lengthAdjust="spacingAndGlyphs" textLength="115" x="642.5" y="812.6245">colorInitials() : String</text><!--MD5=[8568eedd71fb556356f784345d001495]
class usantatecla.mastermind.views.console.ColorView--><rect codeLine="104" fill="#FEFECE" filter="url(#fclpq2oyf48p5)" height="99.2188" id="usantatecla.mastermind.views.console.ColorView" style="stroke:#A80036;stroke-width:1.5;" width="160" x="613" y="879"/><ellipse cx="658.25" cy="895" fill="#ADD1B2" rx="11" ry="11" style="stroke:#A80036;stroke-width:1.0;"/><path d="M660.5938,890.6719 C659.6563,890.2344 659.0625,890.0938 658.1875,890.0938 C655.5625,890.0938 653.5625,892.1719 653.5625,894.8906 L653.5625,896.0156 C653.5625,898.5938 655.6719,900.4844 658.5625,900.4844 C659.7813,900.4844 660.9375,900.1875 661.6875,899.6406 C662.2656,899.2344 662.5938,898.7813 662.5938,898.3906 C662.5938,897.9375 662.2031,897.5469 661.7344,897.5469 C661.5156,897.5469 661.3125,897.625 661.125,897.8125 C660.6719,898.2969 660.6719,898.2969 660.4844,898.3906 C660.0625,898.6563 659.375,898.7813 658.6094,898.7813 C656.5625,898.7813 655.2656,897.6875 655.2656,895.9844 L655.2656,894.8906 C655.2656,893.1094 656.5156,891.7969 658.25,891.7969 C658.8281,891.7969 659.4375,891.9531 659.9063,892.2031 C660.3906,892.4844 660.5625,892.7031 660.6563,893.1094 C660.7188,893.5156 660.75,893.6406 660.8906,893.7656 C661.0313,893.9063 661.2656,894.0156 661.4844,894.0156 C661.75,894.0156 662.0156,893.875 662.1875,893.6563 C662.2969,893.5 662.3281,893.3125 662.3281,892.8906 L662.3281,891.4688 C662.3281,891.0313 662.3125,890.9063 662.2188,890.75 C662.0625,890.4844 661.7813,890.3438 661.4844,890.3438 C661.1875,890.3438 660.9844,890.4375 660.7656,890.75 L660.5938,890.6719 Z " fill="#000000"/><text fill="#000000" font-family="sans-serif" font-size="12" lengthAdjust="spacingAndGlyphs" textLength="61" x="678.75" y="899.1543">ColorView</text><line style="stroke:#A80036;stroke-width:1.5;" x1="614" x2="772" y1="911" y2="911"/><line style="stroke:#A80036;stroke-width:1.5;" x1="614" x2="772" y1="919" y2="919"/><polygon fill="#4177AF" points="624,926,620,932,628,932" style="stroke:#1963A0;stroke-width:1.0;"/><text fill="#000000" font-family="sans-serif" font-size="11" lengthAdjust="spacingAndGlyphs" textLength="65" x="633" y="933.2104">ColorView()</text><polygon fill="#4177AF" points="624,938.8047,620,944.8047,628,944.8047" style="stroke:#1963A0;stroke-width:1.0;"/><text fill="#000000" font-family="sans-serif" font-size="11" lengthAdjust="spacingAndGlyphs" textLength="94" x="633" y="946.0151">ColorView(Color)</text><polygon fill="#FFFF44" points="624,950.6094,628,954.6094,624,958.6094,620,954.6094" style="stroke:#B38D22;stroke-width:1.0;"/><text fill="#000000" font-family="sans-serif" font-size="11" lengthAdjust="spacingAndGlyphs" textLength="134" x="633" y="958.8198">resultInitials(int) : String</text><polygon fill="#4177AF" points="624,964.4141,620,970.4141,628,970.4141" style="stroke:#1963A0;stroke-width:1.0;"/><text fill="#000000" font-family="sans-serif" font-size="11" lengthAdjust="spacingAndGlyphs" textLength="36" x="633" y="971.6245">write()</text><!--MD5=[b8cfd8c4119a3b0a7a46bfc5fc780f85]
class Error--><rect codeLine="1" fill="#FEFECE" filter="url(#fclpq2oyf48p5)" height="67.9063" id="Error" style="stroke:#A80036;stroke-width:1.5;" width="143" x="1167.5" y="894.5"/><ellipse cx="1182.5" cy="920.4531" fill="#ADD1B2" rx="11" ry="11" style="stroke:#A80036;stroke-width:1.0;"/><path d="M1184.8438,916.125 C1183.9063,915.6875 1183.3125,915.5469 1182.4375,915.5469 C1179.8125,915.5469 1177.8125,917.625 1177.8125,920.3438 L1177.8125,921.4688 C1177.8125,924.0469 1179.9219,925.9375 1182.8125,925.9375 C1184.0313,925.9375 1185.1875,925.6406 1185.9375,925.0938 C1186.5156,924.6875 1186.8438,924.2344 1186.8438,923.8438 C1186.8438,923.3906 1186.4531,923 1185.9844,923 C1185.7656,923 1185.5625,923.0781 1185.375,923.2656 C1184.9219,923.75 1184.9219,923.75 1184.7344,923.8438 C1184.3125,924.1094 1183.625,924.2344 1182.8594,924.2344 C1180.8125,924.2344 1179.5156,923.1406 1179.5156,921.4375 L1179.5156,920.3438 C1179.5156,918.5625 1180.7656,917.25 1182.5,917.25 C1183.0781,917.25 1183.6875,917.4063 1184.1563,917.6563 C1184.6406,917.9375 1184.8125,918.1563 1184.9063,918.5625 C1184.9688,918.9688 1185,919.0938 1185.1406,919.2188 C1185.2813,919.3594 1185.5156,919.4688 1185.7344,919.4688 C1186,919.4688 1186.2656,919.3281 1186.4375,919.1094 C1186.5469,918.9531 1186.5781,918.7656 1186.5781,918.3438 L1186.5781,916.9219 C1186.5781,916.4844 1186.5625,916.3594 1186.4688,916.2031 C1186.3125,915.9375 1186.0313,915.7969 1185.7344,915.7969 C1185.4375,915.7969 1185.2344,915.8906 1185.0156,916.2031 L1184.8438,916.125 Z " fill="#000000"/><text fill="#000000" font-family="sans-serif" font-size="12" lengthAdjust="spacingAndGlyphs" textLength="71" x="1216.5" y="910.6387">usantatecla.</text><text fill="#000000" font-family="sans-serif" font-size="12" lengthAdjust="spacingAndGlyphs" textLength="111" x="1196.5" y="924.6074">mastermind.types.</text><text fill="#000000" font-family="sans-serif" font-size="12" lengthAdjust="spacingAndGlyphs" textLength="30" x="1237" y="938.5762">Error</text><line style="stroke:#A80036;stroke-width:1.5;" x1="1168.5" x2="1309.5" y1="946.4063" y2="946.4063"/><line style="stroke:#A80036;stroke-width:1.5;" x1="1168.5" x2="1309.5" y1="954.4063" y2="954.4063"/><!--MD5=[18eee71c88ab61f27581b8cbdd3ef5ee]
class Color--><rect codeLine="2" fill="#FEFECE" filter="url(#fclpq2oyf48p5)" height="67.9063" id="Color" style="stroke:#A80036;stroke-width:1.5;" width="143" x="1140.5" y="1038"/><ellipse cx="1155.5" cy="1063.9531" fill="#EB937F" rx="11" ry="11" style="stroke:#A80036;stroke-width:1.0;"/><path d="M1154.2969,1064.8281 L1155.75,1064.8281 L1155.75,1064.9375 C1155.75,1065.3438 1155.7813,1065.5 1155.8594,1065.6563 C1156.0156,1065.9063 1156.2969,1066.0625 1156.5938,1066.0625 C1156.8438,1066.0625 1157.1094,1065.9219 1157.2656,1065.7031 C1157.3906,1065.5469 1157.4219,1065.3906 1157.4219,1064.9375 L1157.4219,1063.0156 C1157.4219,1062.8594 1157.4219,1062.8125 1157.4063,1062.6563 C1157.3438,1062.1875 1157.0313,1061.875 1156.5781,1061.875 C1156.3281,1061.875 1156.0625,1062.0156 1155.8906,1062.2344 C1155.7813,1062.4063 1155.75,1062.5625 1155.75,1063.0156 L1155.75,1063.1406 L1154.2969,1063.1406 L1154.2969,1060.7344 L1158.2813,1060.7344 L1158.2813,1061.5938 C1158.2813,1062 1158.3125,1062.1719 1158.3906,1062.3281 C1158.5625,1062.5781 1158.8438,1062.7344 1159.125,1062.7344 C1159.3906,1062.7344 1159.6563,1062.5938 1159.8281,1062.375 C1159.9375,1062.2031 1159.9688,1062.0625 1159.9688,1061.5938 L1159.9688,1059.0469 L1152.3438,1059.0469 C1151.9063,1059.0469 1151.7813,1059.0625 1151.625,1059.1563 C1151.375,1059.3125 1151.2188,1059.6094 1151.2188,1059.8906 C1151.2188,1060.1719 1151.3594,1060.4219 1151.5781,1060.5938 C1151.7344,1060.7031 1151.9219,1060.7344 1152.3438,1060.7344 L1152.5938,1060.7344 L1152.5938,1067.25 L1152.3438,1067.25 C1151.9375,1067.25 1151.7813,1067.2656 1151.625,1067.375 C1151.375,1067.5469 1151.2188,1067.8125 1151.2188,1068.1094 C1151.2188,1068.375 1151.3594,1068.625 1151.5781,1068.7813 C1151.7188,1068.9063 1151.9531,1068.9531 1152.3438,1068.9531 L1160.3438,1068.9531 L1160.3438,1066.375 C1160.3438,1065.9375 1160.3125,1065.7969 1160.2344,1065.6406 C1160.0625,1065.3906 1159.7813,1065.2344 1159.5,1065.2344 C1159.2344,1065.2344 1158.9688,1065.3438 1158.7969,1065.5938 C1158.6875,1065.75 1158.6563,1065.8906 1158.6563,1066.375 L1158.6563,1067.25 L1154.2969,1067.25 L1154.2969,1064.8281 Z " fill="#000000"/><text fill="#000000" font-family="sans-serif" font-size="12" lengthAdjust="spacingAndGlyphs" textLength="71" x="1189.5" y="1054.1387">usantatecla.</text><text fill="#000000" font-family="sans-serif" font-size="12" lengthAdjust="spacingAndGlyphs" textLength="111" x="1169.5" y="1068.1074">mastermind.types.</text><text fill="#000000" font-family="sans-serif" font-size="12" lengthAdjust="spacingAndGlyphs" textLength="32" x="1209" y="1082.0762">Color</text><line style="stroke:#A80036;stroke-width:1.5;" x1="1141.5" x2="1282.5" y1="1089.9063" y2="1089.9063"/><line style="stroke:#A80036;stroke-width:1.5;" x1="1141.5" x2="1282.5" y1="1097.9063" y2="1097.9063"/><!--MD5=[c045e12321b83266d36d22b9096c24ea]
class View--><rect codeLine="3" fill="#FEFECE" filter="url(#fclpq2oyf48p5)" height="67.9063" id="View" style="stroke:#A80036;stroke-width:1.5;" width="146" x="858" y="7"/><ellipse cx="873" cy="32.9531" fill="#A9DCDF" rx="11" ry="11" style="stroke:#A80036;stroke-width:1.0;"/><path d="M875.0781,34.7656 L875.4688,35.75 L875.0781,35.75 C874.625,35.75 874.5156,35.7656 874.3594,35.875 C874.1094,36.0313 873.9531,36.3125 873.9531,36.6094 C873.9531,36.875 874.0938,37.125 874.3125,37.2813 C874.4531,37.4063 874.6563,37.4531 875.0781,37.4531 L877.4375,37.4531 C877.7969,37.4531 878.0156,37.4219 878.1563,37.3281 C878.4063,37.1875 878.5625,36.8906 878.5625,36.6094 C878.5625,36.3281 878.4219,36.0781 878.2031,35.9219 C878.0313,35.7813 877.875,35.75 877.4063,35.75 L874.0156,27.5469 L870.3438,27.5469 C869.8906,27.5469 869.7656,27.5625 869.6094,27.6563 C869.3594,27.8281 869.2031,28.1094 869.2031,28.3906 C869.2031,28.6719 869.3438,28.9219 869.5625,29.0938 C869.7344,29.2031 869.9063,29.2344 870.3438,29.2344 L871.4219,29.2344 L868.7813,35.75 C868.3594,35.75 868.2031,35.7656 868.0469,35.875 C867.7969,36.0313 867.6406,36.3125 867.6406,36.6094 C867.6406,37.1719 868.0156,37.4531 868.7656,37.4531 L871.0313,37.4531 C871.3906,37.4531 871.6094,37.4219 871.7344,37.3281 C872,37.1875 872.1406,36.8906 872.1406,36.6094 C872.1406,36.3281 872.0156,36.0781 871.7969,35.9063 C871.625,35.7813 871.4844,35.75 871.0313,35.75 L870.6406,35.75 L871.0313,34.7656 L875.0781,34.7656 Z M874.375,33.0625 L871.7031,33.0625 L873.0469,29.7969 L874.375,33.0625 Z " fill="#000000"/><text fill="#000000" font-family="sans-serif" font-size="12" font-style="italic" lengthAdjust="spacingAndGlyphs" textLength="74" x="907" y="23.1387">usantatecla.</text><text fill="#000000" font-family="sans-serif" font-size="12" font-style="italic" lengthAdjust="spacingAndGlyphs" textLength="114" x="887" y="37.1074">mastermind.views.</text><text fill="#000000" font-family="sans-serif" font-size="12" font-style="italic" lengthAdjust="spacingAndGlyphs" textLength="28" x="930" y="51.0762">View</text><line style="stroke:#A80036;stroke-width:1.5;" x1="859" x2="1003" y1="58.9063" y2="58.9063"/><line style="stroke:#A80036;stroke-width:1.5;" x1="859" x2="1003" y1="66.9063" y2="66.9063"/><!--MD5=[5c0d2bf114541dffca76af5edd55a1b5]
class ColorView--><rect codeLine="4" fill="#FEFECE" filter="url(#fclpq2oyf48p5)" height="67.9063" id="ColorView" style="stroke:#A80036;stroke-width:1.5;" width="146" x="10" y="735.5"/><ellipse cx="25" cy="761.4531" fill="#A9DCDF" rx="11" ry="11" style="stroke:#A80036;stroke-width:1.0;"/><path d="M27.0781,763.2656 L27.4688,764.25 L27.0781,764.25 C26.625,764.25 26.5156,764.2656 26.3594,764.375 C26.1094,764.5313 25.9531,764.8125 25.9531,765.1094 C25.9531,765.375 26.0938,765.625 26.3125,765.7813 C26.4531,765.9063 26.6563,765.9531 27.0781,765.9531 L29.4375,765.9531 C29.7969,765.9531 30.0156,765.9219 30.1563,765.8281 C30.4063,765.6875 30.5625,765.3906 30.5625,765.1094 C30.5625,764.8281 30.4219,764.5781 30.2031,764.4219 C30.0313,764.2813 29.875,764.25 29.4063,764.25 L26.0156,756.0469 L22.3438,756.0469 C21.8906,756.0469 21.7656,756.0625 21.6094,756.1563 C21.3594,756.3281 21.2031,756.6094 21.2031,756.8906 C21.2031,757.1719 21.3438,757.4219 21.5625,757.5938 C21.7344,757.7031 21.9063,757.7344 22.3438,757.7344 L23.4219,757.7344 L20.7813,764.25 C20.3594,764.25 20.2031,764.2656 20.0469,764.375 C19.7969,764.5313 19.6406,764.8125 19.6406,765.1094 C19.6406,765.6719 20.0156,765.9531 20.7656,765.9531 L23.0313,765.9531 C23.3906,765.9531 23.6094,765.9219 23.7344,765.8281 C24,765.6875 24.1406,765.3906 24.1406,765.1094 C24.1406,764.8281 24.0156,764.5781 23.7969,764.4063 C23.625,764.2813 23.4844,764.25 23.0313,764.25 L22.6406,764.25 L23.0313,763.2656 L27.0781,763.2656 Z M26.375,761.5625 L23.7031,761.5625 L25.0469,758.2969 L26.375,761.5625 Z " fill="#000000"/><text fill="#000000" font-family="sans-serif" font-size="12" font-style="italic" lengthAdjust="spacingAndGlyphs" textLength="74" x="59" y="751.6387">usantatecla.</text><text fill="#000000" font-family="sans-serif" font-size="12" font-style="italic" lengthAdjust="spacingAndGlyphs" textLength="114" x="39" y="765.6074">mastermind.views.</text><text fill="#000000" font-family="sans-serif" font-size="12" font-style="italic" lengthAdjust="spacingAndGlyphs" textLength="58" x="67" y="779.5762">ColorView</text><line style="stroke:#A80036;stroke-width:1.5;" x1="11" x2="155" y1="787.4063" y2="787.4063"/><line style="stroke:#A80036;stroke-width:1.5;" x1="11" x2="155" y1="795.4063" y2="795.4063"/><!--MD5=[86cec68673cafdfc1c204348d5b2cca6]
class ErrorView--><rect codeLine="5" fill="#FEFECE" filter="url(#fclpq2oyf48p5)" height="67.9063" id="ErrorView" style="stroke:#A80036;stroke-width:1.5;" width="146" x="7" y="583"/><ellipse cx="22" cy="608.9531" fill="#A9DCDF" rx="11" ry="11" style="stroke:#A80036;stroke-width:1.0;"/><path d="M24.0781,610.7656 L24.4688,611.75 L24.0781,611.75 C23.625,611.75 23.5156,611.7656 23.3594,611.875 C23.1094,612.0313 22.9531,612.3125 22.9531,612.6094 C22.9531,612.875 23.0938,613.125 23.3125,613.2813 C23.4531,613.4063 23.6563,613.4531 24.0781,613.4531 L26.4375,613.4531 C26.7969,613.4531 27.0156,613.4219 27.1563,613.3281 C27.4063,613.1875 27.5625,612.8906 27.5625,612.6094 C27.5625,612.3281 27.4219,612.0781 27.2031,611.9219 C27.0313,611.7813 26.875,611.75 26.4063,611.75 L23.0156,603.5469 L19.3438,603.5469 C18.8906,603.5469 18.7656,603.5625 18.6094,603.6563 C18.3594,603.8281 18.2031,604.1094 18.2031,604.3906 C18.2031,604.6719 18.3438,604.9219 18.5625,605.0938 C18.7344,605.2031 18.9063,605.2344 19.3438,605.2344 L20.4219,605.2344 L17.7813,611.75 C17.3594,611.75 17.2031,611.7656 17.0469,611.875 C16.7969,612.0313 16.6406,612.3125 16.6406,612.6094 C16.6406,613.1719 17.0156,613.4531 17.7656,613.4531 L20.0313,613.4531 C20.3906,613.4531 20.6094,613.4219 20.7344,613.3281 C21,613.1875 21.1406,612.8906 21.1406,612.6094 C21.1406,612.3281 21.0156,612.0781 20.7969,611.9063 C20.625,611.7813 20.4844,611.75 20.0313,611.75 L19.6406,611.75 L20.0313,610.7656 L24.0781,610.7656 Z M23.375,609.0625 L20.7031,609.0625 L22.0469,605.7969 L23.375,609.0625 Z " fill="#000000"/><text fill="#000000" font-family="sans-serif" font-size="12" font-style="italic" lengthAdjust="spacingAndGlyphs" textLength="74" x="56" y="599.1387">usantatecla.</text><text fill="#000000" font-family="sans-serif" font-size="12" font-style="italic" lengthAdjust="spacingAndGlyphs" textLength="114" x="36" y="613.1074">mastermind.views.</text><text fill="#000000" font-family="sans-serif" font-size="12" font-style="italic" lengthAdjust="spacingAndGlyphs" textLength="58" x="64" y="627.0762">ErrorView</text><line style="stroke:#A80036;stroke-width:1.5;" x1="8" x2="152" y1="634.9063" y2="634.9063"/><line style="stroke:#A80036;stroke-width:1.5;" x1="8" x2="152" y1="642.9063" y2="642.9063"/><!--MD5=[bea5b0d46523efab5ea1c1d339f396f0]
class Message--><rect codeLine="6" fill="#FEFECE" filter="url(#fclpq2oyf48p5)" height="67.9063" id="Message" style="stroke:#A80036;stroke-width:1.5;" width="144" x="1449" y="735.5"/><ellipse cx="1464" cy="761.4531" fill="#EB937F" rx="11" ry="11" style="stroke:#A80036;stroke-width:1.0;"/><path d="M1462.7969,762.3281 L1464.25,762.3281 L1464.25,762.4375 C1464.25,762.8438 1464.2813,763 1464.3594,763.1563 C1464.5156,763.4063 1464.7969,763.5625 1465.0938,763.5625 C1465.3438,763.5625 1465.6094,763.4219 1465.7656,763.2031 C1465.8906,763.0469 1465.9219,762.8906 1465.9219,762.4375 L1465.9219,760.5156 C1465.9219,760.3594 1465.9219,760.3125 1465.9063,760.1563 C1465.8438,759.6875 1465.5313,759.375 1465.0781,759.375 C1464.8281,759.375 1464.5625,759.5156 1464.3906,759.7344 C1464.2813,759.9063 1464.25,760.0625 1464.25,760.5156 L1464.25,760.6406 L1462.7969,760.6406 L1462.7969,758.2344 L1466.7813,758.2344 L1466.7813,759.0938 C1466.7813,759.5 1466.8125,759.6719 1466.8906,759.8281 C1467.0625,760.0781 1467.3438,760.2344 1467.625,760.2344 C1467.8906,760.2344 1468.1563,760.0938 1468.3281,759.875 C1468.4375,759.7031 1468.4688,759.5625 1468.4688,759.0938 L1468.4688,756.5469 L1460.8438,756.5469 C1460.4063,756.5469 1460.2813,756.5625 1460.125,756.6563 C1459.875,756.8125 1459.7188,757.1094 1459.7188,757.3906 C1459.7188,757.6719 1459.8594,757.9219 1460.0781,758.0938 C1460.2344,758.2031 1460.4219,758.2344 1460.8438,758.2344 L1461.0938,758.2344 L1461.0938,764.75 L1460.8438,764.75 C1460.4375,764.75 1460.2813,764.7656 1460.125,764.875 C1459.875,765.0469 1459.7188,765.3125 1459.7188,765.6094 C1459.7188,765.875 1459.8594,766.125 1460.0781,766.2813 C1460.2188,766.4063 1460.4531,766.4531 1460.8438,766.4531 L1468.8438,766.4531 L1468.8438,763.875 C1468.8438,763.4375 1468.8125,763.2969 1468.7344,763.1406 C1468.5625,762.8906 1468.2813,762.7344 1468,762.7344 C1467.7344,762.7344 1467.4688,762.8438 1467.2969,763.0938 C1467.1875,763.25 1467.1563,763.3906 1467.1563,763.875 L1467.1563,764.75 L1462.7969,764.75 L1462.7969,762.3281 Z " fill="#000000"/><text fill="#000000" font-family="sans-serif" font-size="12" lengthAdjust="spacingAndGlyphs" textLength="71" x="1498.5" y="751.6387">usantatecla.</text><text fill="#000000" font-family="sans-serif" font-size="12" lengthAdjust="spacingAndGlyphs" textLength="112" x="1478" y="765.6074">mastermind.views.</text><text fill="#000000" font-family="sans-serif" font-size="12" lengthAdjust="spacingAndGlyphs" textLength="55" x="1506.5" y="779.5762">Message</text><line style="stroke:#A80036;stroke-width:1.5;" x1="1450" x2="1592" y1="787.4063" y2="787.4063"/><line style="stroke:#A80036;stroke-width:1.5;" x1="1450" x2="1592" y1="795.4063" y2="795.4063"/><!--MD5=[315b61b427ec618d6861d47eee00cca3]
class Console--><rect codeLine="7" fill="#FEFECE" filter="url(#fclpq2oyf48p5)" height="53.9375" id="Console" style="stroke:#A80036;stroke-width:1.5;" width="130" x="1547" y="1045"/><ellipse cx="1562" cy="1063.9688" fill="#ADD1B2" rx="11" ry="11" style="stroke:#A80036;stroke-width:1.0;"/><path d="M1564.3438,1059.6406 C1563.4063,1059.2031 1562.8125,1059.0625 1561.9375,1059.0625 C1559.3125,1059.0625 1557.3125,1061.1406 1557.3125,1063.8594 L1557.3125,1064.9844 C1557.3125,1067.5625 1559.4219,1069.4531 1562.3125,1069.4531 C1563.5313,1069.4531 1564.6875,1069.1563 1565.4375,1068.6094 C1566.0156,1068.2031 1566.3438,1067.75 1566.3438,1067.3594 C1566.3438,1066.9063 1565.9531,1066.5156 1565.4844,1066.5156 C1565.2656,1066.5156 1565.0625,1066.5938 1564.875,1066.7813 C1564.4219,1067.2656 1564.4219,1067.2656 1564.2344,1067.3594 C1563.8125,1067.625 1563.125,1067.75 1562.3594,1067.75 C1560.3125,1067.75 1559.0156,1066.6563 1559.0156,1064.9531 L1559.0156,1063.8594 C1559.0156,1062.0781 1560.2656,1060.7656 1562,1060.7656 C1562.5781,1060.7656 1563.1875,1060.9219 1563.6563,1061.1719 C1564.1406,1061.4531 1564.3125,1061.6719 1564.4063,1062.0781 C1564.4688,1062.4844 1564.5,1062.6094 1564.6406,1062.7344 C1564.7813,1062.875 1565.0156,1062.9844 1565.2344,1062.9844 C1565.5,1062.9844 1565.7656,1062.8438 1565.9375,1062.625 C1566.0469,1062.4688 1566.0781,1062.2813 1566.0781,1061.8594 L1566.0781,1060.4375 C1566.0781,1060 1566.0625,1059.875 1565.9688,1059.7188 C1565.8125,1059.4531 1565.5313,1059.3125 1565.2344,1059.3125 C1564.9375,1059.3125 1564.7344,1059.4063 1564.5156,1059.7188 L1564.3438,1059.6406 Z " fill="#000000"/><text fill="#000000" font-family="sans-serif" font-size="12" lengthAdjust="spacingAndGlyphs" textLength="98" x="1576" y="1061.1387">usantatecla.utils.</text><text fill="#000000" font-family="sans-serif" font-size="12" lengthAdjust="spacingAndGlyphs" textLength="49" x="1600.5" y="1075.1074">Console</text><line style="stroke:#A80036;stroke-width:1.5;" x1="1548" x2="1676" y1="1082.9375" y2="1082.9375"/><line style="stroke:#A80036;stroke-width:1.5;" x1="1548" x2="1676" y1="1090.9375" y2="1090.9375"/><!--MD5=[d93cf99d2b92276f27fe8dbf15140505]
class YesNoDialog--><rect codeLine="8" fill="#FEFECE" filter="url(#fclpq2oyf48p5)" height="53.9375" id="YesNoDialog" style="stroke:#A80036;stroke-width:1.5;" width="130" x="2259" y="304"/><ellipse cx="2274" cy="322.9688" fill="#ADD1B2" rx="11" ry="11" style="stroke:#A80036;stroke-width:1.0;"/><path d="M2276.3438,318.6406 C2275.4063,318.2031 2274.8125,318.0625 2273.9375,318.0625 C2271.3125,318.0625 2269.3125,320.1406 2269.3125,322.8594 L2269.3125,323.9844 C2269.3125,326.5625 2271.4219,328.4531 2274.3125,328.4531 C2275.5313,328.4531 2276.6875,328.1563 2277.4375,327.6094 C2278.0156,327.2031 2278.3438,326.75 2278.3438,326.3594 C2278.3438,325.9063 2277.9531,325.5156 2277.4844,325.5156 C2277.2656,325.5156 2277.0625,325.5938 2276.875,325.7813 C2276.4219,326.2656 2276.4219,326.2656 2276.2344,326.3594 C2275.8125,326.625 2275.125,326.75 2274.3594,326.75 C2272.3125,326.75 2271.0156,325.6563 2271.0156,323.9531 L2271.0156,322.8594 C2271.0156,321.0781 2272.2656,319.7656 2274,319.7656 C2274.5781,319.7656 2275.1875,319.9219 2275.6563,320.1719 C2276.1406,320.4531 2276.3125,320.6719 2276.4063,321.0781 C2276.4688,321.4844 2276.5,321.6094 2276.6406,321.7344 C2276.7813,321.875 2277.0156,321.9844 2277.2344,321.9844 C2277.5,321.9844 2277.7656,321.8438 2277.9375,321.625 C2278.0469,321.4688 2278.0781,321.2813 2278.0781,320.8594 L2278.0781,319.4375 C2278.0781,319 2278.0625,318.875 2277.9688,318.7188 C2277.8125,318.4531 2277.5313,318.3125 2277.2344,318.3125 C2276.9375,318.3125 2276.7344,318.4063 2276.5156,318.7188 L2276.3438,318.6406 Z " fill="#000000"/><text fill="#000000" font-family="sans-serif" font-size="12" lengthAdjust="spacingAndGlyphs" textLength="98" x="2288" y="320.1387">usantatecla.utils.</text><text fill="#000000" font-family="sans-serif" font-size="12" lengthAdjust="spacingAndGlyphs" textLength="76" x="2299" y="334.1074">YesNoDialog</text><line style="stroke:#A80036;stroke-width:1.5;" x1="2260" x2="2388" y1="341.9375" y2="341.9375"/><line style="stroke:#A80036;stroke-width:1.5;" x1="2260" x2="2388" y1="349.9375" y2="349.9375"/><!--MD5=[ce3aceb15685c4a66d1e1b8ea7e2c984]
class ColorCode--><rect codeLine="9" fill="#FEFECE" filter="url(#fclpq2oyf48p5)" height="53.9375" id="ColorCode" style="stroke:#A80036;stroke-width:1.5;" width="130" x="628" y="1045"/><ellipse cx="643" cy="1063.9688" fill="#EB937F" rx="11" ry="11" style="stroke:#A80036;stroke-width:1.0;"/><path d="M641.7969,1064.8438 L643.25,1064.8438 L643.25,1064.9531 C643.25,1065.3594 643.2813,1065.5156 643.3594,1065.6719 C643.5156,1065.9219 643.7969,1066.0781 644.0938,1066.0781 C644.3438,1066.0781 644.6094,1065.9375 644.7656,1065.7188 C644.8906,1065.5625 644.9219,1065.4063 644.9219,1064.9531 L644.9219,1063.0313 C644.9219,1062.875 644.9219,1062.8281 644.9063,1062.6719 C644.8438,1062.2031 644.5313,1061.8906 644.0781,1061.8906 C643.8281,1061.8906 643.5625,1062.0313 643.3906,1062.25 C643.2813,1062.4219 643.25,1062.5781 643.25,1063.0313 L643.25,1063.1563 L641.7969,1063.1563 L641.7969,1060.75 L645.7813,1060.75 L645.7813,1061.6094 C645.7813,1062.0156 645.8125,1062.1875 645.8906,1062.3438 C646.0625,1062.5938 646.3438,1062.75 646.625,1062.75 C646.8906,1062.75 647.1563,1062.6094 647.3281,1062.3906 C647.4375,1062.2188 647.4688,1062.0781 647.4688,1061.6094 L647.4688,1059.0625 L639.8438,1059.0625 C639.4063,1059.0625 639.2813,1059.0781 639.125,1059.1719 C638.875,1059.3281 638.7188,1059.625 638.7188,1059.9063 C638.7188,1060.1875 638.8594,1060.4375 639.0781,1060.6094 C639.2344,1060.7188 639.4219,1060.75 639.8438,1060.75 L640.0938,1060.75 L640.0938,1067.2656 L639.8438,1067.2656 C639.4375,1067.2656 639.2813,1067.2813 639.125,1067.3906 C638.875,1067.5625 638.7188,1067.8281 638.7188,1068.125 C638.7188,1068.3906 638.8594,1068.6406 639.0781,1068.7969 C639.2188,1068.9219 639.4531,1068.9688 639.8438,1068.9688 L647.8438,1068.9688 L647.8438,1066.3906 C647.8438,1065.9531 647.8125,1065.8125 647.7344,1065.6563 C647.5625,1065.4063 647.2813,1065.25 647,1065.25 C646.7344,1065.25 646.4688,1065.3594 646.2969,1065.6094 C646.1875,1065.7656 646.1563,1065.9063 646.1563,1066.3906 L646.1563,1067.2656 L641.7969,1067.2656 L641.7969,1064.8438 Z " fill="#000000"/><text fill="#000000" font-family="sans-serif" font-size="12" lengthAdjust="spacingAndGlyphs" textLength="98" x="657" y="1061.1387">usantatecla.utils.</text><text fill="#000000" font-family="sans-serif" font-size="12" lengthAdjust="spacingAndGlyphs" textLength="64" x="674" y="1075.1074">ColorCode</text><line style="stroke:#A80036;stroke-width:1.5;" x1="629" x2="757" y1="1082.9375" y2="1082.9375"/><line style="stroke:#A80036;stroke-width:1.5;" x1="629" x2="757" y1="1090.9375" y2="1090.9375"/><!--MD5=[47c371471411cfedeee61b1a5bdaee47]
class StartController--><rect codeLine="10" fill="#FEFECE" filter="url(#fclpq2oyf48p5)" height="67.9063" id="StartController" style="stroke:#A80036;stroke-width:1.5;" width="174" x="1979" y="583"/><ellipse cx="1994" cy="608.9531" fill="#ADD1B2" rx="11" ry="11" style="stroke:#A80036;stroke-width:1.0;"/><path d="M1996.3438,604.625 C1995.4063,604.1875 1994.8125,604.0469 1993.9375,604.0469 C1991.3125,604.0469 1989.3125,606.125 1989.3125,608.8438 L1989.3125,609.9688 C1989.3125,612.5469 1991.4219,614.4375 1994.3125,614.4375 C1995.5313,614.4375 1996.6875,614.1406 1997.4375,613.5938 C1998.0156,613.1875 1998.3438,612.7344 1998.3438,612.3438 C1998.3438,611.8906 1997.9531,611.5 1997.4844,611.5 C1997.2656,611.5 1997.0625,611.5781 1996.875,611.7656 C1996.4219,612.25 1996.4219,612.25 1996.2344,612.3438 C1995.8125,612.6094 1995.125,612.7344 1994.3594,612.7344 C1992.3125,612.7344 1991.0156,611.6406 1991.0156,609.9375 L1991.0156,608.8438 C1991.0156,607.0625 1992.2656,605.75 1994,605.75 C1994.5781,605.75 1995.1875,605.9063 1995.6563,606.1563 C1996.1406,606.4375 1996.3125,606.6563 1996.4063,607.0625 C1996.4688,607.4688 1996.5,607.5938 1996.6406,607.7188 C1996.7813,607.8594 1997.0156,607.9688 1997.2344,607.9688 C1997.5,607.9688 1997.7656,607.8281 1997.9375,607.6094 C1998.0469,607.4531 1998.0781,607.2656 1998.0781,606.8438 L1998.0781,605.4219 C1998.0781,604.9844 1998.0625,604.8594 1997.9688,604.7031 C1997.8125,604.4375 1997.5313,604.2969 1997.2344,604.2969 C1996.9375,604.2969 1996.7344,604.3906 1996.5156,604.7031 L1996.3438,604.625 Z " fill="#000000"/><text fill="#000000" font-family="sans-serif" font-size="12" lengthAdjust="spacingAndGlyphs" textLength="71" x="2043.5" y="599.1387">usantatecla.</text><text fill="#000000" font-family="sans-serif" font-size="12" lengthAdjust="spacingAndGlyphs" textLength="142" x="2008" y="613.1074">mastermind.controllers.</text><text fill="#000000" font-family="sans-serif" font-size="12" lengthAdjust="spacingAndGlyphs" textLength="87" x="2035.5" y="627.0762">StartController</text><line style="stroke:#A80036;stroke-width:1.5;" x1="1980" x2="2152" y1="634.9063" y2="634.9063"/><line style="stroke:#A80036;stroke-width:1.5;" x1="1980" x2="2152" y1="642.9063" y2="642.9063"/><!--MD5=[9dc2ab56716d4fbd8c61f2d17f2f3bab]
class PlayController--><rect codeLine="11" fill="#FEFECE" filter="url(#fclpq2oyf48p5)" height="67.9063" id="ProposalController" style="stroke:#A80036;stroke-width:1.5;" width="174" x="1628" y="735.5"/><ellipse cx="1643" cy="761.4531" fill="#ADD1B2" rx="11" ry="11" style="stroke:#A80036;stroke-width:1.0;"/><path d="M1645.3438,757.125 C1644.4063,756.6875 1643.8125,756.5469 1642.9375,756.5469 C1640.3125,756.5469 1638.3125,758.625 1638.3125,761.3438 L1638.3125,762.4688 C1638.3125,765.0469 1640.4219,766.9375 1643.3125,766.9375 C1644.5313,766.9375 1645.6875,766.6406 1646.4375,766.0938 C1647.0156,765.6875 1647.3438,765.2344 1647.3438,764.8438 C1647.3438,764.3906 1646.9531,764 1646.4844,764 C1646.2656,764 1646.0625,764.0781 1645.875,764.2656 C1645.4219,764.75 1645.4219,764.75 1645.2344,764.8438 C1644.8125,765.1094 1644.125,765.2344 1643.3594,765.2344 C1641.3125,765.2344 1640.0156,764.1406 1640.0156,762.4375 L1640.0156,761.3438 C1640.0156,759.5625 1641.2656,758.25 1643,758.25 C1643.5781,758.25 1644.1875,758.4063 1644.6563,758.6563 C1645.1406,758.9375 1645.3125,759.1563 1645.4063,759.5625 C1645.4688,759.9688 1645.5,760.0938 1645.6406,760.2188 C1645.7813,760.3594 1646.0156,760.4688 1646.2344,760.4688 C1646.5,760.4688 1646.7656,760.3281 1646.9375,760.1094 C1647.0469,759.9531 1647.0781,759.7656 1647.0781,759.3438 L1647.0781,757.9219 C1647.0781,757.4844 1647.0625,757.3594 1646.9688,757.2031 C1646.8125,756.9375 1646.5313,756.7969 1646.2344,756.7969 C1645.9375,756.7969 1645.7344,756.8906 1645.5156,757.2031 L1645.3438,757.125 Z " fill="#000000"/><text fill="#000000" font-family="sans-serif" font-size="12" lengthAdjust="spacingAndGlyphs" textLength="71" x="1692.5" y="751.6387">usantatecla.</text><text fill="#000000" font-family="sans-serif" font-size="12" lengthAdjust="spacingAndGlyphs" textLength="142" x="1657" y="765.6074">mastermind.controllers.</text><text fill="#000000" font-family="sans-serif" font-size="12" lengthAdjust="spacingAndGlyphs" textLength="111" x="1672.5" y="779.5762">ProposalController</text><line style="stroke:#A80036;stroke-width:1.5;" x1="1629" x2="1801" y1="787.4063" y2="787.4063"/><line style="stroke:#A80036;stroke-width:1.5;" x1="1629" x2="1801" y1="795.4063" y2="795.4063"/><!--MD5=[1a47bbf44ccee225df9b18c5b6629853]
class ResumeController--><rect codeLine="12" fill="#FEFECE" filter="url(#fclpq2oyf48p5)" height="67.9063" id="ResumeController" style="stroke:#A80036;stroke-width:1.5;" width="174" x="1525" y="437"/><ellipse cx="1540" cy="462.9531" fill="#ADD1B2" rx="11" ry="11" style="stroke:#A80036;stroke-width:1.0;"/><path d="M1542.3438,458.625 C1541.4063,458.1875 1540.8125,458.0469 1539.9375,458.0469 C1537.3125,458.0469 1535.3125,460.125 1535.3125,462.8438 L1535.3125,463.9688 C1535.3125,466.5469 1537.4219,468.4375 1540.3125,468.4375 C1541.5313,468.4375 1542.6875,468.1406 1543.4375,467.5938 C1544.0156,467.1875 1544.3438,466.7344 1544.3438,466.3438 C1544.3438,465.8906 1543.9531,465.5 1543.4844,465.5 C1543.2656,465.5 1543.0625,465.5781 1542.875,465.7656 C1542.4219,466.25 1542.4219,466.25 1542.2344,466.3438 C1541.8125,466.6094 1541.125,466.7344 1540.3594,466.7344 C1538.3125,466.7344 1537.0156,465.6406 1537.0156,463.9375 L1537.0156,462.8438 C1537.0156,461.0625 1538.2656,459.75 1540,459.75 C1540.5781,459.75 1541.1875,459.9063 1541.6563,460.1563 C1542.1406,460.4375 1542.3125,460.6563 1542.4063,461.0625 C1542.4688,461.4688 1542.5,461.5938 1542.6406,461.7188 C1542.7813,461.8594 1543.0156,461.9688 1543.2344,461.9688 C1543.5,461.9688 1543.7656,461.8281 1543.9375,461.6094 C1544.0469,461.4531 1544.0781,461.2656 1544.0781,460.8438 L1544.0781,459.4219 C1544.0781,458.9844 1544.0625,458.8594 1543.9688,458.7031 C1543.8125,458.4375 1543.5313,458.2969 1543.2344,458.2969 C1542.9375,458.2969 1542.7344,458.3906 1542.5156,458.7031 L1542.3438,458.625 Z " fill="#000000"/><text fill="#000000" font-family="sans-serif" font-size="12" lengthAdjust="spacingAndGlyphs" textLength="71" x="1589.5" y="453.1387">usantatecla.</text><text fill="#000000" font-family="sans-serif" font-size="12" lengthAdjust="spacingAndGlyphs" textLength="142" x="1554" y="467.1074">mastermind.controllers.</text><text fill="#000000" font-family="sans-serif" font-size="12" lengthAdjust="spacingAndGlyphs" textLength="107" x="1571.5" y="481.0762">ResumeController</text><line style="stroke:#A80036;stroke-width:1.5;" x1="1526" x2="1698" y1="488.9063" y2="488.9063"/><line style="stroke:#A80036;stroke-width:1.5;" x1="1526" x2="1698" y1="496.9063" y2="496.9063"/><!--MD5=[1d7ba1c7002d54515419844fbd155368]
class Controller--><rect codeLine="13" fill="#FEFECE" filter="url(#fclpq2oyf48p5)" height="67.9063" id="Controller" style="stroke:#A80036;stroke-width:1.5;" width="176" x="1167" y="735.5"/><ellipse cx="1182" cy="761.4531" fill="#A9DCDF" rx="11" ry="11" style="stroke:#A80036;stroke-width:1.0;"/><path d="M1184.0781,763.2656 L1184.4688,764.25 L1184.0781,764.25 C1183.625,764.25 1183.5156,764.2656 1183.3594,764.375 C1183.1094,764.5313 1182.9531,764.8125 1182.9531,765.1094 C1182.9531,765.375 1183.0938,765.625 1183.3125,765.7813 C1183.4531,765.9063 1183.6563,765.9531 1184.0781,765.9531 L1186.4375,765.9531 C1186.7969,765.9531 1187.0156,765.9219 1187.1563,765.8281 C1187.4063,765.6875 1187.5625,765.3906 1187.5625,765.1094 C1187.5625,764.8281 1187.4219,764.5781 1187.2031,764.4219 C1187.0313,764.2813 1186.875,764.25 1186.4063,764.25 L1183.0156,756.0469 L1179.3438,756.0469 C1178.8906,756.0469 1178.7656,756.0625 1178.6094,756.1563 C1178.3594,756.3281 1178.2031,756.6094 1178.2031,756.8906 C1178.2031,757.1719 1178.3438,757.4219 1178.5625,757.5938 C1178.7344,757.7031 1178.9063,757.7344 1179.3438,757.7344 L1180.4219,757.7344 L1177.7813,764.25 C1177.3594,764.25 1177.2031,764.2656 1177.0469,764.375 C1176.7969,764.5313 1176.6406,764.8125 1176.6406,765.1094 C1176.6406,765.6719 1177.0156,765.9531 1177.7656,765.9531 L1180.0313,765.9531 C1180.3906,765.9531 1180.6094,765.9219 1180.7344,765.8281 C1181,765.6875 1181.1406,765.3906 1181.1406,765.1094 C1181.1406,764.8281 1181.0156,764.5781 1180.7969,764.4063 C1180.625,764.2813 1180.4844,764.25 1180.0313,764.25 L1179.6406,764.25 L1180.0313,763.2656 L1184.0781,763.2656 Z M1183.375,761.5625 L1180.7031,761.5625 L1182.0469,758.2969 L1183.375,761.5625 Z " fill="#000000"/><text fill="#000000" font-family="sans-serif" font-size="12" font-style="italic" lengthAdjust="spacingAndGlyphs" textLength="74" x="1231" y="751.6387">usantatecla.</text><text fill="#000000" font-family="sans-serif" font-size="12" font-style="italic" lengthAdjust="spacingAndGlyphs" textLength="144" x="1196" y="765.6074">mastermind.controllers.</text><text fill="#000000" font-family="sans-serif" font-size="12" font-style="italic" lengthAdjust="spacingAndGlyphs" textLength="58" x="1239" y="779.5762">Controller</text><line style="stroke:#A80036;stroke-width:1.5;" x1="1168" x2="1342" y1="787.4063" y2="787.4063"/><line style="stroke:#A80036;stroke-width:1.5;" x1="1168" x2="1342" y1="795.4063" y2="795.4063"/><!--MD5=[5cc2afc7699cbb48ec3daa48200efb03]
reverse link View to usantatecla.mastermind.views.console.ConsoleView--><path codeLine="21" d="M931,95.31 C931,108.333 931,122.196 931,134.982 " fill="none" id="View-backto-usantatecla.mastermind.views.console.ConsoleView" style="stroke:#A80036;stroke-width:1.0;"/><polygon fill="none" points="924,95.18,931,75.18,938,95.18,924,95.18" style="stroke:#A80036;stroke-width:1.0;"/><!--MD5=[62b989f1b7fd9494cd0a5a3595d138cf]
link usantatecla.mastermind.views.console.ConsoleView to usantatecla.mastermind.views.console.StartView--><path codeLine="22" d="M905.6389,245.6337 C905.6389,245.6337 886.811,330.742 906,368 C918.299,391.88 939.065,411.403 961.015,426.74 " fill="none" id="usantatecla.mastermind.views.console.ConsoleView-usantatecla.mastermind.views.console.StartView" style="stroke:#A80036;stroke-width:1.0;"/><polygon fill="#A80036" points="971.853,433.934,966.5661,425.6244,967.687,431.1691,962.1423,432.29,971.853,433.934" style="stroke:#A80036;stroke-width:1.0;"/><line style="stroke:#A80036;stroke-width:1.0;" x1="967.687" x2="961.022" y1="431.1691" y2="426.745"/><polygon fill="#A80036" points="909.417,234.244,903.7314,238.6795,905.6389,245.6337,911.3245,241.1982,909.417,234.244" style="stroke:#A80036;stroke-width:1.0;"/><!--MD5=[9e9e09f7b836be77202fb5a7c9dba601]
link usantatecla.mastermind.views.console.ConsoleView to usantatecla.mastermind.views.console.ProposalView--><path codeLine="23" d="M859.0709,241.3803 C859.0709,241.3803 819.763,271.918 802.106,285.635 " fill="none" id="usantatecla.mastermind.views.console.ConsoleView-usantatecla.mastermind.views.console.ProposalView" style="stroke:#A80036;stroke-width:1.0;"/><polygon fill="#A80036" points="791.404,293.949,800.9652,291.586,795.3524,290.8814,796.057,285.2686,791.404,293.949" style="stroke:#A80036;stroke-width:1.0;"/><line style="stroke:#A80036;stroke-width:1.0;" x1="795.3524" x2="801.6705" y1="290.8814" y2="285.974"/><polygon fill="#A80036" points="868.547,234.018,861.3548,234.5404,859.0709,241.3803,866.263,240.8578,868.547,234.018" style="stroke:#A80036;stroke-width:1.0;"/><!--MD5=[20a2805fbab39aefb16f40efe1c74efb]
link usantatecla.mastermind.views.console.ConsoleView to usantatecla.mastermind.views.console.ResumeView--><path codeLine="24" d="M970.6394,243.9502 C970.6394,243.9502 988.77,270.681 996.875,282.632 " fill="none" id="usantatecla.mastermind.views.console.ConsoleView-usantatecla.mastermind.views.console.ResumeView" style="stroke:#A80036;stroke-width:1.0;"/><polygon fill="#A80036" points="1004.396,293.722,1002.6559,284.0281,1001.59,289.5836,996.0345,288.5177,1004.396,293.722" style="stroke:#A80036;stroke-width:1.0;"/><line style="stroke:#A80036;stroke-width:1.0;" x1="1001.59" x2="997.099" y1="289.5836" y2="282.9625"/><polygon fill="#A80036" points="963.905,234.018,963.9615,241.2289,970.6394,243.9502,970.5829,236.7393,963.905,234.018" style="stroke:#A80036;stroke-width:1.0;"/><!--MD5=[af96cf0269107941f8e0369aff9fcd0a]
link usantatecla.mastermind.views.console.ConsoleView to StartController--><path codeLine="25" d="M1139.8467,237.1151 C1139.8467,237.1151 1526.94,346.921 1716,428 C1818.47,471.945 1931.08,535.351 2000.17,576.12 " fill="none" id="usantatecla.mastermind.views.console.ConsoleView-StartController" style="stroke:#A80036;stroke-width:1.0;"/><polygon fill="#A80036" points="2011.72,582.96,2006.0175,574.93,2007.4188,580.4105,2001.9383,581.8118,2011.72,582.96" style="stroke:#A80036;stroke-width:1.0;"/><line style="stroke:#A80036;stroke-width:1.0;" x1="2007.4188" x2="2000.53" y1="580.4105" y2="576.333"/><polygon fill="#A80036" points="1128.25,234.03,1133.02,239.4381,1139.8467,237.1151,1135.0767,231.707,1128.25,234.03" style="stroke:#A80036;stroke-width:1.0;"/><!--MD5=[4a4e8aa6e2d57ee20b27f027f00b433f]
link usantatecla.mastermind.views.console.ConsoleView to PlayController--><path codeLine="26" d="M1146.9123,219.9954 C1146.9123,219.9954 2057.21,401.701 2171,574 C2259.81,708.471 1974.78,750.285 1815.25,763.046 " fill="none" id="usantatecla.mastermind.views.console.ConsoleView-ProposalController" style="stroke:#A80036;stroke-width:1.0;"/><polygon fill="#A80036" points="1802.1,764.054,1811.3774,767.36,1807.0856,763.6748,1810.7708,759.383,1802.1,764.054" style="stroke:#A80036;stroke-width:1.0;"/><line style="stroke:#A80036;stroke-width:1.0;" x1="1807.0856" x2="1815.065" y1="763.6748" y2="763.0595"/><polygon fill="#A80036" points="1135.09,217.938,1140.3153,222.9075,1146.9123,219.9954,1141.687,215.0259,1135.09,217.938" style="stroke:#A80036;stroke-width:1.0;"/><!--MD5=[aba18c4a0a829771a69a2cb8ec6c6c4d]
link usantatecla.mastermind.views.console.ConsoleView to ResumeController--><path codeLine="27" d="M1058.3663,238.7008 C1058.3663,238.7008 1401.99,382.264 1520.63,431.827 " fill="none" id="usantatecla.mastermind.views.console.ConsoleView-ResumeController" style="stroke:#A80036;stroke-width:1.0;"/><polygon fill="#A80036" points="1532.88,436.946,1526.1189,429.7844,1528.2668,435.0177,1523.0336,437.1655,1532.88,436.946" style="stroke:#A80036;stroke-width:1.0;"/><line style="stroke:#A80036;stroke-width:1.0;" x1="1528.2668" x2="1520.885" y1="435.0177" y2="431.9345"/><polygon fill="#A80036" points="1047.29,234.084,1051.2892,240.0845,1058.3663,238.7008,1054.3671,232.7003,1047.29,234.084" style="stroke:#A80036;stroke-width:1.0;"/><!--MD5=[a441e6bcd859c7409e9b8b5ec6310c3e]
link usantatecla.mastermind.views.console.ResumeView to ResumeController--><path codeLine="33" d="M1146.6946,351.004 C1146.6946,351.004 1380.5,394.538 1498,428 C1503.25,429.495 1508.6,431.117 1513.98,432.824 " fill="none" id="usantatecla.mastermind.views.console.ResumeView-ResumeController" style="stroke:#A80036;stroke-width:1.0;"/><polygon fill="#A80036" points="1526.56,436.946,1519.2506,430.345,1521.808,435.3908,1516.7623,437.9482,1526.56,436.946" style="stroke:#A80036;stroke-width:1.0;"/><line style="stroke:#A80036;stroke-width:1.0;" x1="1521.808" x2="1514.205" y1="435.3908" y2="432.8965"/><polygon fill="#A80036" points="1134.87,348.96,1140.101,353.9235,1146.6946,351.004,1141.4636,346.0404,1134.87,348.96" style="stroke:#A80036;stroke-width:1.0;"/><!--MD5=[a725383cd7ccf4a5610b2a96a21a031d]
link usantatecla.mastermind.views.console.ResumeView to Message--><path codeLine="34" d="M1077.04,368.029 C1100.07,385.671 1127.84,407.486 1152,428 C1276.92,534.076 1417.37,667.992 1483.17,731.647 " fill="none" id="usantatecla.mastermind.views.console.ResumeView-to-Message" style="stroke:#A80036;stroke-width:1.0;stroke-dasharray:7.0,7.0;"/><polygon fill="#A80036" points="1487.01,735.366,1483.3357,726.2282,1483.4214,731.8844,1477.7652,731.97,1487.01,735.366" style="stroke:#A80036;stroke-width:1.0;"/><!--MD5=[11a6206d39bd673b590966d1322f3f4d]
link usantatecla.mastermind.views.console.ResumeView to YesNoDialog--><path codeLine="35" d="M1134.6,331 C1507.65,331 1880.69,331 2253.74,331 " fill="none" id="usantatecla.mastermind.views.console.ResumeView-to-YesNoDialog" style="stroke:#A80036;stroke-width:1.0;stroke-dasharray:7.0,7.0;"/><polygon fill="#A80036" points="2258.95,331,2249.95,327,2253.95,331,2249.95,335,2258.95,331" style="stroke:#A80036;stroke-width:1.0;"/><!--MD5=[cab10df3f7f92ee1f0dbf00cb45822f7]
link usantatecla.mastermind.views.console.StartView to StartController--><path codeLine="41" d="M1146.7312,481.6899 C1146.7312,481.6899 1875.13,555.78 1952,574 C1958.09,575.444 1964.31,577.118 1970.53,578.949 " fill="none" id="usantatecla.mastermind.views.console.StartView-StartController" style="stroke:#A80036;stroke-width:1.0;"/><polygon fill="#A80036" points="1983.28,582.906,1975.8649,576.424,1978.5035,581.4278,1973.4997,584.0664,1983.28,582.906" style="stroke:#A80036;stroke-width:1.0;"/><line style="stroke:#A80036;stroke-width:1.0;" x1="1978.5035" x2="1970.865" y1="581.4278" y2="579.054"/><polygon fill="#A80036" points="1134.79,480.503,1140.365,485.0768,1146.7312,481.6899,1141.1562,477.116,1134.79,480.503" style="stroke:#A80036;stroke-width:1.0;"/><!--MD5=[41b00bef7f8876bf10aff963cfd73488]
link usantatecla.mastermind.views.console.StartView to Console--><path codeLine="42" d="M1134.61,479.442 C1342.05,497.88 1856.39,546.192 1881,574 C2007.06,716.456 1997.61,851.709 1881,1002 C1856.79,1033.2012 1753.41,1052.7251 1682.1,1062.74 " fill="none" id="usantatecla.mastermind.views.console.StartView-to-Console" style="stroke:#A80036;stroke-width:1.0;stroke-dasharray:7.0,7.0;"/><polygon fill="#A80036" points="1677.02,1063.4447,1686.4836,1066.1725,1681.9728,1062.7589,1685.3863,1058.2481,1677.02,1063.4447" style="stroke:#A80036;stroke-width:1.0;"/><!--MD5=[cb2142cad003aa30be20e00fecfd0a1b]
link usantatecla.mastermind.views.console.StartView to Message--><path codeLine="43" d="M1107.9,508.192 C1139.42,527.619 1178.89,552.025 1214,574 C1301.88,628.998 1403.42,693.519 1464.88,732.684 " fill="none" id="usantatecla.mastermind.views.console.StartView-to-Message" style="stroke:#A80036;stroke-width:1.0;stroke-dasharray:7.0,7.0;"/><polygon fill="#A80036" points="1469.24,735.46,1463.7987,727.2507,1465.023,732.7735,1459.5003,733.9979,1469.24,735.46" style="stroke:#A80036;stroke-width:1.0;"/><!--MD5=[80869c372aff1267a2951704c8fbb83c]
link usantatecla.mastermind.views.console.StartView to usantatecla.mastermind.views.console.SecretCombinationView--><path codeLine="44" d="M983.225,508.151 C944.916,529.206 896.617,555.753 857.523,577.239 " fill="none" id="usantatecla.mastermind.views.console.StartView-to-usantatecla.mastermind.views.console.SecretCombinationView" style="stroke:#A80036;stroke-width:1.0;stroke-dasharray:7.0,7.0;"/><polygon fill="#A80036" points="852.803,579.834,862.6168,579.0037,857.1846,577.4253,858.7629,571.9931,852.803,579.834" style="stroke:#A80036;stroke-width:1.0;"/><!--MD5=[7d44489fa2fa0bc52039d4b3663fad5e]
link usantatecla.mastermind.views.console.GameView to PlayController--><path codeLine="51" d="M940.3369,513.3378 C940.3369,513.3378 1193.74,569.216 1207,574 C1285.9,602.476 1296.54,630.329 1375,660 C1475.83,698.13 1508.42,683.915 1610,720 C1618.55,723.038 1627.36,726.515 1636.06,730.182 " fill="none" id="usantatecla.mastermind.views.console.GameView-ProposalController" style="stroke:#A80036;stroke-width:1.0;"/><polygon fill="#A80036" points="1648.26,735.466,1641.5933,728.2165,1643.6725,733.4774,1638.4116,735.5565,1648.26,735.466" style="stroke:#A80036;stroke-width:1.0;"/><line style="stroke:#A80036;stroke-width:1.0;" x1="1643.6725" x2="1636.33" y1="733.4774" y2="730.2985"/><polygon fill="#A80036" points="928.614,510.774,933.6209,515.9635,940.3369,513.3378,935.3301,508.1482,928.614,510.774" style="stroke:#A80036;stroke-width:1.0;"/><!--MD5=[6fd1f03f81fb53601a513d86ffa35878]
link usantatecla.mastermind.views.console.GameView to usantatecla.mastermind.views.console.SecretCombinationView--><path codeLine="52" d="M763.7865,525.6607 C763.7865,525.6607 771.023,553.818 774.316,566.636 " fill="none" id="usantatecla.mastermind.views.console.GameView-usantatecla.mastermind.views.console.SecretCombinationView" style="stroke:#A80036;stroke-width:1.0;"/><polygon fill="#A80036" points="777.629,579.53,779.2631,569.8177,776.3845,574.6873,771.5149,571.8088,777.629,579.53" style="stroke:#A80036;stroke-width:1.0;"/><line style="stroke:#A80036;stroke-width:1.0;" x1="776.3845" x2="774.394" y1="574.6873" y2="566.9395"/><polygon fill="#A80036" points="760.801,514.038,758.4195,520.8445,763.7865,525.6607,766.168,518.8542,760.801,514.038" style="stroke:#A80036;stroke-width:1.0;"/><!--MD5=[b90bd2c032648a28e3be92ea37f03571]
link usantatecla.mastermind.views.console.GameView to usantatecla.mastermind.views.console.AttemptsView--><path codeLine="53" d="M698.912,514.038 C674.975,533.735 646.612,557.074 623.066,576.448 " fill="none" id="usantatecla.mastermind.views.console.GameView-to-usantatecla.mastermind.views.console.AttemptsView" style="stroke:#A80036;stroke-width:1.0;stroke-dasharray:7.0,7.0;"/><polygon fill="#A80036" points="619.03,579.769,628.5214,577.1395,622.8911,576.5922,623.4384,570.9619,619.03,579.769" style="stroke:#A80036;stroke-width:1.0;"/><!--MD5=[455f14397b920a49ef35d70d7c28902f]
link usantatecla.mastermind.views.console.GameView to usantatecla.mastermind.views.console.ResultView--><path codeLine="54" d="M843.9106,519.4493 C843.9106,519.4493 917.921,556.844 951.263,573.691 " fill="none" id="usantatecla.mastermind.views.console.GameView-usantatecla.mastermind.views.console.ResultView" style="stroke:#A80036;stroke-width:1.0;"/><polygon fill="#A80036" points="963.294,579.769,957.0652,572.14,958.8314,577.5141,953.4573,579.2802,963.294,579.769" style="stroke:#A80036;stroke-width:1.0;"/><line style="stroke:#A80036;stroke-width:1.0;" x1="958.8314" x2="951.691" y1="577.5141" y2="573.907"/><polygon fill="#A80036" points="833.2,514.038,836.7515,520.3139,843.9106,519.4493,840.3591,513.1735,833.2,514.038" style="stroke:#A80036;stroke-width:1.0;"/><!--MD5=[91ef064aa58798763c5d6beac2e16e0b]
link usantatecla.mastermind.views.console.GameView to usantatecla.mastermind.views.console.ProposedCombinationView--><path codeLine="55" d="M616.6273,517.9465 C616.6273,517.9465 514.229,553.222 466.499,569.665 " fill="none" id="usantatecla.mastermind.views.console.GameView-usantatecla.mastermind.views.console.ProposedCombinationView" style="stroke:#A80036;stroke-width:1.0;"/><polygon fill="#A80036" points="454.178,573.91,463.9901,574.7602,458.9053,572.2813,461.3842,567.1965,454.178,573.91" style="stroke:#A80036;stroke-width:1.0;"/><line style="stroke:#A80036;stroke-width:1.0;" x1="458.9053" x2="466.469" y1="572.2813" y2="569.6755"/><polygon fill="#A80036" points="627.973,514.038,620.9973,512.2104,616.6273,517.9465,623.603,519.7741,627.973,514.038" style="stroke:#A80036;stroke-width:1.0;"/><!--MD5=[f178d11a365fac98d5118f34f32492a3]
link usantatecla.mastermind.views.console.GameView to Message--><path codeLine="56" d="M928.74,511.182 C1026.9,533.79 1132.62,560.369 1152,574 C1189.71,600.523 1172.66,632.965 1210,660 C1289.32,717.424 1330.55,684.985 1422,720 C1432.23,723.917 1442.83,728.507 1453.13,733.273 " fill="none" id="usantatecla.mastermind.views.console.GameView-to-Message" style="stroke:#A80036;stroke-width:1.0;stroke-dasharray:7.0,7.0;"/><polygon fill="#A80036" points="1457.84,735.473,1451.3772,728.0412,1453.3094,733.3578,1447.9928,735.2901,1457.84,735.473" style="stroke:#A80036;stroke-width:1.0;"/><!--MD5=[bf5762cbc2c7de23763d98d5f8e47dc6]
link usantatecla.mastermind.views.console.GameView to Console--><path codeLine="57" d="M928.582,510.664 C934.453,511.808 940.271,512.924 946,514 C1337.8,587.612 1579.68,401.167 1819,720 C1899.57,827.338 1802.25,903.583 1711,1002 C1696.88,1017.2248 1678.86,1031.0023 1662.07,1042.1715 " fill="none" id="usantatecla.mastermind.views.console.GameView-to-Console" style="stroke:#A80036;stroke-width:1.0;stroke-dasharray:7.0,7.0;"/><polygon fill="#A80036" points="1657.83,1044.9542,1667.5491,1043.3606,1662.0103,1042.211,1663.1599,1036.6722,1657.83,1044.9542" style="stroke:#A80036;stroke-width:1.0;"/><!--MD5=[29259fdcbd7cfab01cc80d1d1477efa6]
link usantatecla.mastermind.views.console.ProposalView to PlayController--><path codeLine="64" d="M862.3923,358.7491 C862.3923,358.7491 1138.38,422.435 1152,428 C1351.83,509.624 1563.41,656.274 1660.51,727.478 " fill="none" id="usantatecla.mastermind.views.console.ProposalView-ProposalController" style="stroke:#A80036;stroke-width:1.0;"/><polygon fill="#A80036" points="1671.22,735.366,1666.3406,726.8108,1667.1924,732.4032,1661.6,733.255,1671.22,735.366" style="stroke:#A80036;stroke-width:1.0;"/><line style="stroke:#A80036;stroke-width:1.0;" x1="1667.1924" x2="1660.755" y1="732.4032" y2="727.6565"/><polygon fill="#A80036" points="850.695,356.071,855.651,361.3092,862.3923,358.7491,857.4364,353.5109,850.695,356.071" style="stroke:#A80036;stroke-width:1.0;"/><!--MD5=[34f45d8eb391e863c64e9d61cdbd6cb3]
link usantatecla.mastermind.views.console.ProposalView to usantatecla.mastermind.views.console.GameView--><path codeLine="65" d="M746.7478,380.2502 C746.7478,380.2502 747.598,403.713 747.994,414.625 " fill="none" id="usantatecla.mastermind.views.console.ProposalView-usantatecla.mastermind.views.console.GameView" style="stroke:#A80036;stroke-width:1.0;"/><polygon fill="#A80036" points="748.465,427.622,752.136,418.4829,748.2837,422.6253,744.1413,418.773,748.465,427.622" style="stroke:#A80036;stroke-width:1.0;"/><line style="stroke:#A80036;stroke-width:1.0;" x1="748.2837" x2="747.994" y1="422.6253" y2="414.631"/><polygon fill="#A80036" points="746.314,368.258,742.5335,374.3987,746.7478,380.2502,750.5283,374.1095,746.314,368.258" style="stroke:#A80036;stroke-width:1.0;"/><!--MD5=[7af6c83f995de445f81a1f725c5d2bc8]
link usantatecla.mastermind.views.console.ProposalView to usantatecla.mastermind.views.console.ProposedCombinationView--><path codeLine="66" d="M662.716,368.088 C628.107,384.593 588.053,405.484 554,428 C489.386,470.722 422.512,529.732 379.277,570.18 " fill="none" id="usantatecla.mastermind.views.console.ProposalView-to-usantatecla.mastermind.views.console.ProposedCombinationView" style="stroke:#A80036;stroke-width:1.0;stroke-dasharray:7.0,7.0;"/><polygon fill="#A80036" points="375.427,573.791,384.7276,570.5508,379.0736,570.3702,379.2542,564.7162,375.427,573.791" style="stroke:#A80036;stroke-width:1.0;"/><!--MD5=[9fcf926616a88112060ccc06b3ef6bba]
link usantatecla.mastermind.views.console.ProposedCombinationView to PlayController--><path codeLine="74" d="M487.4678,659.0938 C487.4678,659.0938 491.573,659.778 493,660 C984.244,736.468 1127.47,600.285 1610,720 C1620.51,722.606 1631.24,726.266 1641.65,730.419 " fill="none" id="usantatecla.mastermind.views.console.ProposedCombinationView-ProposalController" style="stroke:#A80036;stroke-width:1.0;"/><polygon fill="#A80036" points="1653.68,735.488,1646.9368,728.3096,1649.0716,733.5482,1643.8331,735.683,1653.68,735.488" style="stroke:#A80036;stroke-width:1.0;"/><line style="stroke:#A80036;stroke-width:1.0;" x1="1649.0716" x2="1641.695" y1="733.5482" y2="730.439"/><polygon fill="#A80036" points="475.651,657.005,480.8631,661.9883,487.4678,659.0938,482.2557,654.1105,475.651,657.005" style="stroke:#A80036;stroke-width:1.0;"/><!--MD5=[74f4a28ffe48b2ac6ea7a01daa8a2156]
link usantatecla.mastermind.views.console.ProposedCombinationView to usantatecla.mastermind.views.console.ErrorView--><path codeLine="75" d="M433.039,660.123 C491.554,684.518 563.99,714.716 617.525,737.035 " fill="none" id="usantatecla.mastermind.views.console.ProposedCombinationView-to-usantatecla.mastermind.views.console.ErrorView" style="stroke:#A80036;stroke-width:1.0;stroke-dasharray:7.0,7.0;"/><polygon fill="#A80036" points="622.32,739.034,615.5522,731.8788,617.705,737.11,612.4738,739.2628,622.32,739.034" style="stroke:#A80036;stroke-width:1.0;"/><!--MD5=[44214b583fdef523f9f88d3b7a8d70b5]
link usantatecla.mastermind.views.console.ProposedCombinationView to usantatecla.mastermind.views.console.ColorView--><path codeLine="76" d="M381.062,660.063 C446.272,715.97 561.473,814.737 632.147,875.328 " fill="none" id="usantatecla.mastermind.views.console.ProposedCombinationView-to-usantatecla.mastermind.views.console.ColorView" style="stroke:#A80036;stroke-width:1.0;stroke-dasharray:7.0,7.0;"/><polygon fill="#A80036" points="636.317,878.903,632.088,870.0083,632.5211,875.6486,626.8809,876.0817,636.317,878.903" style="stroke:#A80036;stroke-width:1.0;"/><!--MD5=[a0933519c1a055e22b8e4f80fd0a030c]
link usantatecla.mastermind.views.console.ProposedCombinationView to Color--><path codeLine="77" d="M475.865,655.909 C481.647,657.312 487.375,658.681 493,660 C620.297,689.844 659.238,672.365 781,720 C860.643,751.157 865.609,789.827 946,819 C1026.78,848.312 1272.15,813.694 1328,879 C1363.53,920.546 1355.02,954.48 1328,1002 C1318.79,1018.198 1304.11,1030.9907 1288.24,1040.9309 " fill="none" id="usantatecla.mastermind.views.console.ProposedCombinationView-to-Color" style="stroke:#A80036;stroke-width:1.0;stroke-dasharray:7.0,7.0;"/><polygon fill="#A80036" points="1283.74,1043.6593,1293.5112,1042.4252,1288.0186,1041.0721,1289.3717,1035.5795,1283.74,1043.6593" style="stroke:#A80036;stroke-width:1.0;"/><!--MD5=[58593a47527012b78667630e5c48f8ef]
link usantatecla.mastermind.views.console.ProposedCombinationView to Message--><path codeLine="78" d="M475.669,656.893 C481.505,658.024 487.298,659.067 493,660 C874.189,722.353 980.044,650.528 1360,720 C1387.84,725.091 1417.69,733.284 1444.03,741.498 " fill="none" id="usantatecla.mastermind.views.console.ProposedCombinationView-to-Message" style="stroke:#A80036;stroke-width:1.0;stroke-dasharray:7.0,7.0;"/><polygon fill="#A80036" points="1448.91,743.031,1441.5244,736.5154,1444.1403,741.5311,1439.1246,744.1469,1448.91,743.031" style="stroke:#A80036;stroke-width:1.0;"/><!--MD5=[bb135094d23d21d3527ec7eab1716e09]
link usantatecla.mastermind.views.console.ProposedCombinationView to Console--><path codeLine="79" d="M475.777,656.307 C481.583,657.6 487.341,658.838 493,660 C667.799,695.905 729.737,641.517 890,720 C947.313,748.067 936.827,790.649 994,819 C1144.04,893.399 1212.5,812.042 1366,879 C1389.63,889.306 1514.09,990.408 1576.4,1041.6065 " fill="none" id="usantatecla.mastermind.views.console.ProposedCombinationView-to-Console" style="stroke:#A80036;stroke-width:1.0;stroke-dasharray:7.0,7.0;"/><polygon fill="#A80036" points="1580.41,1044.9051,1575.9927,1036.1024,1576.5457,1041.7322,1570.916,1042.2852,1580.41,1044.9051" style="stroke:#A80036;stroke-width:1.0;"/><!--MD5=[1af3da67e97d69997c249b0b33d6f525]
link usantatecla.mastermind.views.console.SecretCombinationView to Controller--><path codeLine="85" d="M897.997,654.08 C904.753,656.123 911.46,658.111 918,660 C1020.74,689.67 1050.34,683.916 1151,720 C1161.91,723.912 1173.24,728.551 1184.22,733.385 " fill="none" id="usantatecla.mastermind.views.console.SecretCombinationView-to-Controller" style="stroke:#A80036;stroke-width:1.0;stroke-dasharray:7.0,7.0;"/><polygon fill="#A80036" points="1188.91,735.467,1182.3077,728.1588,1184.3402,733.4379,1179.0611,735.4704,1188.91,735.467" style="stroke:#A80036;stroke-width:1.0;"/><!--MD5=[1e0a09d0f9d89e3147254c7ba510437f]
link usantatecla.mastermind.views.console.SecretCombinationView to Message--><path codeLine="86" d="M894.173,654.028 C902.192,656.211 910.196,658.234 918,660 C1111.36,703.764 1166.27,677.945 1360,720 C1387.66,726.005 1417.47,734.419 1443.82,742.555 " fill="none" id="usantatecla.mastermind.views.console.SecretCombinationView-to-Message" style="stroke:#A80036;stroke-width:1.0;stroke-dasharray:7.0,7.0;"/><polygon fill="#A80036" points="1448.7,744.071,1441.295,737.5774,1443.9258,742.5853,1438.9179,745.2161,1448.7,744.071" style="stroke:#A80036;stroke-width:1.0;"/><!--MD5=[c65e49329e258f4189c1811921b7eeec]
link usantatecla.mastermind.views.console.SecretCombinationView to Console--><path codeLine="87" d="M895.236,654.024 C968.229,678.852 1053.9,709.237 1069,720 C1115.07,752.828 1099.66,791.321 1149,819 C1237.75,868.793 1534.15,804.063 1603,879 C1642.92,922.447 1631.99,997.468 1621.41,1039.7234 " fill="none" id="usantatecla.mastermind.views.console.SecretCombinationView-to-Console" style="stroke:#A80036;stroke-width:1.0;stroke-dasharray:7.0,7.0;"/><polygon fill="#A80036" points="1620.12,1044.7097,1626.2394,1036.9926,1621.3677,1039.8679,1618.4925,1034.9962,1620.12,1044.7097" style="stroke:#A80036;stroke-width:1.0;"/><!--MD5=[f655ef39785c162a41b70a8e597d8234]
link usantatecla.mastermind.views.console.ResultView to PlayController--><path codeLine="93" d="M1146.5302,636.2016 C1146.5302,636.2016 1566.7,706.411 1610,720 C1619.26,722.906 1628.76,726.443 1638.09,730.269 " fill="none" id="usantatecla.mastermind.views.console.ResultView-ProposalController" style="stroke:#A80036;stroke-width:1.0;"/><polygon fill="#A80036" points="1650.21,735.437,1643.5003,728.2273,1645.6107,733.4758,1640.3623,735.5862,1650.21,735.437" style="stroke:#A80036;stroke-width:1.0;"/><line style="stroke:#A80036;stroke-width:1.0;" x1="1645.6107" x2="1638.255" y1="733.4758" y2="730.34"/><polygon fill="#A80036" points="1134.69,634.25,1139.9596,639.1726,1146.5302,636.2016,1141.2607,631.2791,1134.69,634.25" style="stroke:#A80036;stroke-width:1.0;"/><!--MD5=[cad2abc1d50cb4b224a40fb44d276e41]
link usantatecla.mastermind.views.console.ResultView to Message--><path codeLine="94" d="M1134.56,651.893 C1143.8,654.747 1153.06,657.495 1162,660 C1276.2,691.986 1310.24,680.321 1422,720 C1432.73,723.81 1443.82,728.469 1454.53,733.377 " fill="none" id="usantatecla.mastermind.views.console.ResultView-to-Message" style="stroke:#A80036;stroke-width:1.0;stroke-dasharray:7.0,7.0;"/><polygon fill="#A80036" points="1459.09,735.493,1452.6035,728.0819,1454.5527,733.3923,1449.2423,735.3415,1459.09,735.493" style="stroke:#A80036;stroke-width:1.0;"/><!--MD5=[fa2803cdc31af4e95d3ca8372e54d78c]
link usantatecla.mastermind.views.console.ResultView to Console--><path codeLine="95" d="M1126.65,654.044 C1132.5,656.119 1138.32,658.122 1144,660 C1238.6,691.282 1278.32,662.939 1360,720 C1404.39,751.009 1386.17,788.635 1431,819 C1523.1,881.386 1605.41,791.417 1674,879 C1707.71,922.04 1693.56,950.954 1674,1002 C1668.41,1016.5916 1658.15,1030.0346 1647.56,1041.1035 " fill="none" id="usantatecla.mastermind.views.console.ResultView-to-Console" style="stroke:#A80036;stroke-width:1.0;stroke-dasharray:7.0,7.0;"/><polygon fill="#A80036" points="1643.96,1044.7645,1653.1182,1041.1413,1647.4616,1041.1954,1647.4076,1035.5388,1643.96,1044.7645" style="stroke:#A80036;stroke-width:1.0;"/><!--MD5=[738f77d4bd907962f647ef647715b407]
link usantatecla.mastermind.views.console.AttemptsView to Console--><path codeLine="101" d="M639.223,653.5 C644.808,655.911 650.448,658.123 656,660 C802.193,709.424 868.474,636.107 998,720 C1042.59,748.882 1019.76,791.148 1065,819 C1243.2,928.7 1365.65,752.043 1532,879 C1558.64,899.334 1588.71,991.127 1603.23,1040.0583 " fill="none" id="usantatecla.mastermind.views.console.AttemptsView-to-Console" style="stroke:#A80036;stroke-width:1.0;stroke-dasharray:7.0,7.0;"/><polygon fill="#A80036" points="1604.67,1044.9435,1605.9643,1035.1801,1603.2574,1040.1472,1598.2902,1037.4403,1604.67,1044.9435" style="stroke:#A80036;stroke-width:1.0;"/><!--MD5=[d70cfd223097805628f7b93885746474]
link usantatecla.mastermind.views.console.AttemptsView to Message--><path codeLine="102" d="M639.052,654.045 C644.675,656.335 650.37,658.371 656,660 C957.647,747.291 1051.56,661.061 1360,720 C1387.8,725.313 1417.64,733.559 1443.99,741.754 " fill="none" id="usantatecla.mastermind.views.console.AttemptsView-to-Message" style="stroke:#A80036;stroke-width:1.0;stroke-dasharray:7.0,7.0;"/><polygon fill="#A80036" points="1448.86,743.283,1441.4744,736.7674,1444.0903,741.7831,1439.0746,744.3989,1448.86,743.283" style="stroke:#A80036;stroke-width:1.0;"/><!--MD5=[4e2709992aeba74cd8a18434f41dce90]
reverse link ColorView to usantatecla.mastermind.views.console.ColorView--><path codeLine="110" d="M155.864,812.378 C161.245,814.796 166.658,817.037 172,819 C322.681,874.368 508.822,904.558 612.878,918.243 " fill="none" id="ColorView-backto-usantatecla.mastermind.views.console.ColorView" style="stroke:#A80036;stroke-width:1.0;"/><polygon fill="none" points="152.777,818.661,137.845,803.626,158.894,806.068,152.777,818.661" style="stroke:#A80036;stroke-width:1.0;"/><!--MD5=[2aef66e15b01ad184c4ce0d2e2e7310c]
link usantatecla.mastermind.views.console.ColorView to ColorCode--><path codeLine="111" d="M693,978.196 C693,998.482 693,1021.455 693,1039.4692 " fill="none" id="usantatecla.mastermind.views.console.ColorView-to-ColorCode" style="stroke:#A80036;stroke-width:1.0;stroke-dasharray:7.0,7.0;"/><polygon fill="#A80036" points="693,1044.8921,697,1035.8921,693,1039.8921,689,1035.8921,693,1044.8921" style="stroke:#A80036;stroke-width:1.0;"/><!--MD5=[a37bf943a63f3006ec72e7a59689964d]
link usantatecla.mastermind.views.console.ColorView to Console--><path codeLine="112" d="M773.043,942.424 C864.252,957.098 1017.8,981.643 1150,1002 C1288.85,1023.3813 1451.32,1047.4198 1541.88,1060.7297 " fill="none" id="usantatecla.mastermind.views.console.ColorView-to-Console" style="stroke:#A80036;stroke-width:1.0;stroke-dasharray:7.0,7.0;"/><polygon fill="#A80036" points="1546.94,1061.473,1538.6189,1056.2043,1541.9934,1060.7445,1537.4532,1064.1189,1546.94,1061.473" style="stroke:#A80036;stroke-width:1.0;"/><!--MD5=[69dc8072829cbbfdbc9d9a2751321cd9]
link usantatecla.mastermind.views.console.ColorView to Color--><path codeLine="113" d="M773.24,951.377 C872.013,978.306 1038.54,1023.7089 1135.55,1050.1556 " fill="none" id="usantatecla.mastermind.views.console.ColorView-to-Color" style="stroke:#A80036;stroke-width:1.0;stroke-dasharray:7.0,7.0;"/><polygon fill="#A80036" points="1140.4,1051.4787,1132.7851,1045.2326,1135.5795,1050.1511,1130.661,1052.9454,1140.4,1051.4787" style="stroke:#A80036;stroke-width:1.0;"/><!--MD5=[21f4368561ef8ab68eb0033a214ce281]
reverse link ErrorView to usantatecla.mastermind.views.console.ErrorView--><path codeLine="121" d="M166.77,658.229 C168.522,658.84 170.266,659.432 172,660 C328.933,711.448 520.721,743.948 622.178,758.877 " fill="none" id="ErrorView-backto-usantatecla.mastermind.views.console.ErrorView" style="stroke:#A80036;stroke-width:1.0;"/><polygon fill="none" points="164.093,664.699,147.903,651.029,169.084,651.619,164.093,664.699" style="stroke:#A80036;stroke-width:1.0;"/><!--MD5=[7451bd3d087460174f80dc13e9004d7a]
link usantatecla.mastermind.views.console.ErrorView to Error--><path codeLine="122" d="M763.68,790.151 C797.305,799.291 838.131,810.085 875,819 C997.015,848.503 1033.47,834.909 1151,879 C1160.68,882.633 1170.6,887.185 1180.13,892.036 " fill="none" id="usantatecla.mastermind.views.console.ErrorView-to-Error" style="stroke:#A80036;stroke-width:1.0;stroke-dasharray:7.0,7.0;"/><polygon fill="#A80036" points="1184.77,894.438,1178.6184,886.7466,1180.3303,892.1382,1174.9387,893.85,1184.77,894.438" style="stroke:#A80036;stroke-width:1.0;"/><!--MD5=[b6f3fff8c22bf6afa8b0a8da791006e0]
link usantatecla.mastermind.views.console.ErrorView to Console--><path codeLine="123" d="M763.769,784.726 C814.435,794.75 884.318,808.247 946,819 C1115.31,848.516 1170.94,809.227 1328,879 C1407.42,914.282 1407.36,954.302 1480,1002 C1502.6,1016.8359 1528.75,1031.0604 1551.78,1042.6992 " fill="none" id="usantatecla.mastermind.views.console.ErrorView-to-Console" style="stroke:#A80036;stroke-width:1.0;stroke-dasharray:7.0,7.0;"/><polygon fill="#A80036" points="1556.35,1044.9919,1550.1012,1037.3793,1551.8814,1042.7487,1546.512,1044.529,1556.35,1044.9919" style="stroke:#A80036;stroke-width:1.0;"/><!--MD5=[0144a89e07469074881e23a062c69e12]
link usantatecla.mastermind.views.console.ErrorView to usantatecla.mastermind.views.console.ColorView--><path codeLine="124" d="M693,819.315 C693,836.528 693,855.973 693,873.583 " fill="none" id="usantatecla.mastermind.views.console.ErrorView-to-usantatecla.mastermind.views.console.ColorView" style="stroke:#A80036;stroke-width:1.0;stroke-dasharray:7.0,7.0;"/><polygon fill="#A80036" points="693,878.985,697,869.985,693,873.985,689,869.985,693,878.985" style="stroke:#A80036;stroke-width:1.0;"/><!--MD5=[334ce17ae0d634e72f7ee371c3126eea]
@startuml
class Error as "usantatecla.\nmastermind.types.\nError"
enum Color as "usantatecla.\nmastermind.types.\nColor"
abstract class View as "usantatecla.\nmastermind.views.\nView"
abstract class ColorView as "usantatecla.\nmastermind.views.\nColorView"
abstract class ErrorView as "usantatecla.\nmastermind.views.\nErrorView"
enum Message as "usantatecla.\nmastermind.views.\nMessage"
class Console as "usantatecla.utils.\nConsole"
class YesNoDialog as "usantatecla.utils.\nYesNoDialog"
enum ColorCode as "usantatecla.utils.\nColorCode"
class StartController as "usantatecla.\nmastermind.controllers.\nStartController"
class PlayController as "usantatecla.\nmastermind.controllers.\nPlayController"
class ResumeController as "usantatecla.\nmastermind.controllers.\nResumeController"
abstract class Controller as "usantatecla.\nmastermind.controllers.\nController"

class usantatecla.mastermind.views.console.ConsoleView {
    + ConsoleView(StartController, PlayController, ResumeController)
    # start()
    # propose() : boolean
    # isNewGame() : boolean
}
usantatecla.mastermind.views.console.ConsoleView -up-|> View
usantatecla.mastermind.views.console.ConsoleView *-down-> usantatecla.mastermind.views.console.StartView
usantatecla.mastermind.views.console.ConsoleView *-down-> usantatecla.mastermind.views.console.ProposalView
usantatecla.mastermind.views.console.ConsoleView *-down-> usantatecla.mastermind.views.console.ResumeView
usantatecla.mastermind.views.console.ConsoleView *-down-> StartController
usantatecla.mastermind.views.console.ConsoleView *-down-> PlayController
usantatecla.mastermind.views.console.ConsoleView *-down-> ResumeController

class usantatecla.mastermind.views.console.ResumeView {
    ~ ResumeView(ResumeController)
    ~ interact() : boolean
}
usantatecla.mastermind.views.console.ResumeView *-down-> ResumeController
usantatecla.mastermind.views.console.ResumeView ..> Message
usantatecla.mastermind.views.console.ResumeView .> YesNoDialog

class usantatecla.mastermind.views.console.StartView {
    ~ StartView(StartController)
    ~ interact()
}
usantatecla.mastermind.views.console.StartView *-down-> StartController
usantatecla.mastermind.views.console.StartView ..> Console
usantatecla.mastermind.views.console.StartView ..> Message
usantatecla.mastermind.views.console.StartView ..> usantatecla.mastermind.views.console.SecretCombinationView

class usantatecla.mastermind.views.console.GameView {
    ~ GameView(PlayController, ProposedCombinationView)
    ~ write()
    ~ isWinnerOrLooser() : boolean
}
usantatecla.mastermind.views.console.GameView *-down-> PlayController
usantatecla.mastermind.views.console.GameView *-down-> usantatecla.mastermind.views.console.SecretCombinationView
usantatecla.mastermind.views.console.GameView ..> usantatecla.mastermind.views.console.AttemptsView
usantatecla.mastermind.views.console.GameView *-down-> usantatecla.mastermind.views.console.ResultView
usantatecla.mastermind.views.console.GameView *-down-> usantatecla.mastermind.views.console.ProposedCombinationView
usantatecla.mastermind.views.console.GameView ..> Message
usantatecla.mastermind.views.console.GameView ..> Console

class usantatecla.mastermind.views.console.ProposalView {
    ~ ProposalView(PlayController)
    ~ interact() : boolean

}
usantatecla.mastermind.views.console.ProposalView *-down-> PlayController
usantatecla.mastermind.views.console.ProposalView *-down-> usantatecla.mastermind.views.console.GameView
usantatecla.mastermind.views.console.ProposalView ..> usantatecla.mastermind.views.console.ProposedCombinationView


class usantatecla.mastermind.views.console.ProposedCombinationView {
    ~ ProposedCombinationView(PlayController)
    ~ write()
    ~ read()
}
usantatecla.mastermind.views.console.ProposedCombinationView *-down-> PlayController
usantatecla.mastermind.views.console.ProposedCombinationView ..> usantatecla.mastermind.views.console.ErrorView
usantatecla.mastermind.views.console.ProposedCombinationView ..> usantatecla.mastermind.views.console.ColorView
usantatecla.mastermind.views.console.ProposedCombinationView ..> Color
usantatecla.mastermind.views.console.ProposedCombinationView ..> Message
usantatecla.mastermind.views.console.ProposedCombinationView ..> Console

class usantatecla.mastermind.views.console.SecretCombinationView {
    ~ SecretCombinationView(Controller)
    ~ writeln()
}
usantatecla.mastermind.views.console.SecretCombinationView ..> Controller
usantatecla.mastermind.views.console.SecretCombinationView ..> Message
usantatecla.mastermind.views.console.SecretCombinationView ..> Console

class usantatecla.mastermind.views.console.ResultView {
    ~ ResultView(PlayController)
    ~ writeln()
}
usantatecla.mastermind.views.console.ResultView *-down-> PlayController
usantatecla.mastermind.views.console.ResultView ..> Message
usantatecla.mastermind.views.console.ResultView ..> Console

class usantatecla.mastermind.views.console.AttemptsView {
    ~ AttemptsView(int)
    ~ writeln()
}
usantatecla.mastermind.views.console.AttemptsView ..> Console
usantatecla.mastermind.views.console.AttemptsView ..> Message

class usantatecla.mastermind.views.console.ColorView {
    ~ ColorView()
    ~ ColorView(Color)
    # resultInitials(int) : String
    ~ write()
}
usantatecla.mastermind.views.console.ColorView -up-|> ColorView
usantatecla.mastermind.views.console.ColorView ..> ColorCode
usantatecla.mastermind.views.console.ColorView ..> Console
usantatecla.mastermind.views.console.ColorView ..> Color

class usantatecla.mastermind.views.console.ErrorView {
    ~ ErrorView()
    ~ ErrorView(Error)
    ~ writeln()
    # colorInitials() : String
}
usantatecla.mastermind.views.console.ErrorView -up-|> ErrorView
usantatecla.mastermind.views.console.ErrorView ..> Error
usantatecla.mastermind.views.console.ErrorView ..> Console
usantatecla.mastermind.views.console.ErrorView ..> usantatecla.mastermind.views.console.ColorView
@enduml

PlantUML version 1.2020.22beta3(Unknown compile time)
(GPL source distribution)
Java Runtime: Java(TM) SE Runtime Environment
JVM: Java HotSpot(TM) 64-Bit Server VM
Default Encoding: UTF-8
Language: en
Country: US
--></g></svg>