<?xml version="1.0" encoding="UTF-8" standalone="no"?><svg xmlns="http://www.w3.org/2000/svg" xmlns:xlink="http://www.w3.org/1999/xlink" contentScriptType="application/ecmascript" contentStyleType="text/css" height="454px" preserveAspectRatio="none" style="width:1253px;height:454px;" version="1.1" viewBox="0 0 1253 454" width="1253px" zoomAndPan="magnify"><defs><filter height="300%" id="f6jljgudnzsu7" width="300%" x="-1" y="-1"><feGaussianBlur result="blurOut" stdDeviation="2.0"/><feColorMatrix in="blurOut" result="blurOut2" type="matrix" values="0 0 0 0 0 0 0 0 0 0 0 0 0 0 0 0 0 0 .4 0"/><feOffset dx="4.0" dy="4.0" in="blurOut2" result="blurOut3"/><feBlend in="SourceGraphic" in2="blurOut3" mode="normal"/></filter></defs><g><!--MD5=[45607799a901819e6cc4b6d8cd00ce6c]
cluster usantatecla.mastermind.controllers--><polygon fill="#FFFFFF" filter="url(#f6jljgudnzsu7)" points="215.5,6,516.5,6,523.5,28.2969,1008.5,28.2969,1008.5,329,215.5,329,215.5,6" style="stroke:#000000;stroke-width:1.5;"/><line style="stroke:#000000;stroke-width:1.5;" x1="215.5" x2="523.5" y1="28.2969" y2="28.2969"/><text fill="#000000" font-family="sans-serif" font-size="14" font-weight="bold" lengthAdjust="spacingAndGlyphs" textLength="295" x="219.5" y="20.9951">usantatecla.mastermind.controllers</text><!--MD5=[e0d21a3c8ca66756a771586930837509]
class usantatecla.mastermind.controllers.Controller--><rect codeLine="8" fill="#FEFECE" filter="url(#f6jljgudnzsu7)" height="73.6094" id="usantatecla.mastermind.controllers.Controller" style="stroke:#A80036;stroke-width:1.5;" width="124" x="854.5" y="41"/><ellipse cx="884.8" cy="57" fill="#A9DCDF" rx="11" ry="11" style="stroke:#A80036;stroke-width:1.0;"/><path d="M886.8781,58.8125 L887.2688,59.7969 L886.8781,59.7969 C886.425,59.7969 886.3156,59.8125 886.1594,59.9219 C885.9094,60.0781 885.7531,60.3594 885.7531,60.6563 C885.7531,60.9219 885.8938,61.1719 886.1125,61.3281 C886.2531,61.4531 886.4563,61.5 886.8781,61.5 L889.2375,61.5 C889.5969,61.5 889.8156,61.4688 889.9563,61.375 C890.2063,61.2344 890.3625,60.9375 890.3625,60.6563 C890.3625,60.375 890.2219,60.125 890.0031,59.9688 C889.8313,59.8281 889.675,59.7969 889.2063,59.7969 L885.8156,51.5938 L882.1438,51.5938 C881.6906,51.5938 881.5656,51.6094 881.4094,51.7031 C881.1594,51.875 881.0031,52.1563 881.0031,52.4375 C881.0031,52.7188 881.1438,52.9688 881.3625,53.1406 C881.5344,53.25 881.7063,53.2813 882.1438,53.2813 L883.2219,53.2813 L880.5813,59.7969 C880.1594,59.7969 880.0031,59.8125 879.8469,59.9219 C879.5969,60.0781 879.4406,60.3594 879.4406,60.6563 C879.4406,61.2188 879.8156,61.5 880.5656,61.5 L882.8313,61.5 C883.1906,61.5 883.4094,61.4688 883.5344,61.375 C883.8,61.2344 883.9406,60.9375 883.9406,60.6563 C883.9406,60.375 883.8156,60.125 883.5969,59.9531 C883.425,59.8281 883.2844,59.7969 882.8313,59.7969 L882.4406,59.7969 L882.8313,58.8125 L886.8781,58.8125 Z M886.175,57.1094 L883.5031,57.1094 L884.8469,53.8438 L886.175,57.1094 Z " fill="#000000"/><text fill="#000000" font-family="sans-serif" font-size="12" font-style="italic" lengthAdjust="spacingAndGlyphs" textLength="58" x="902.2" y="61.1543">Controller</text><line style="stroke:#A80036;stroke-width:1.5;" x1="855.5" x2="977.5" y1="73" y2="73"/><line style="stroke:#A80036;stroke-width:1.5;" x1="855.5" x2="977.5" y1="81" y2="81"/><polygon fill="#FFFF44" points="865.5,87,869.5,91,865.5,95,861.5,91" style="stroke:#B38D22;stroke-width:1.0;"/><text fill="#000000" font-family="sans-serif" font-size="11" lengthAdjust="spacingAndGlyphs" textLength="98" x="874.5" y="95.2104">Controller(Game)</text><ellipse cx="865.5" cy="104.8047" fill="#84BE84" rx="3" ry="3" style="stroke:#038048;stroke-width:1.0;"/><text fill="#000000" font-family="sans-serif" font-size="11" lengthAdjust="spacingAndGlyphs" textLength="80" x="874.5" y="108.0151">getWidth(): int</text><!--MD5=[c20948aa6f904689435480ad9a30530a]
class usantatecla.mastermind.controllers.StartController--><rect codeLine="15" fill="#FEFECE" filter="url(#f6jljgudnzsu7)" height="60.8047" id="usantatecla.mastermind.controllers.StartController" style="stroke:#A80036;stroke-width:1.5;" width="151" x="841" y="213.5"/><ellipse cx="870.4" cy="229.5" fill="#ADD1B2" rx="11" ry="11" style="stroke:#A80036;stroke-width:1.0;"/><path d="M872.7438,225.1719 C871.8063,224.7344 871.2125,224.5938 870.3375,224.5938 C867.7125,224.5938 865.7125,226.6719 865.7125,229.3906 L865.7125,230.5156 C865.7125,233.0938 867.8219,234.9844 870.7125,234.9844 C871.9313,234.9844 873.0875,234.6875 873.8375,234.1406 C874.4156,233.7344 874.7438,233.2813 874.7438,232.8906 C874.7438,232.4375 874.3531,232.0469 873.8844,232.0469 C873.6656,232.0469 873.4625,232.125 873.275,232.3125 C872.8219,232.7969 872.8219,232.7969 872.6344,232.8906 C872.2125,233.1563 871.525,233.2813 870.7594,233.2813 C868.7125,233.2813 867.4156,232.1875 867.4156,230.4844 L867.4156,229.3906 C867.4156,227.6094 868.6656,226.2969 870.4,226.2969 C870.9781,226.2969 871.5875,226.4531 872.0563,226.7031 C872.5406,226.9844 872.7125,227.2031 872.8063,227.6094 C872.8688,228.0156 872.9,228.1406 873.0406,228.2656 C873.1813,228.4063 873.4156,228.5156 873.6344,228.5156 C873.9,228.5156 874.1656,228.375 874.3375,228.1563 C874.4469,228 874.4781,227.8125 874.4781,227.3906 L874.4781,225.9688 C874.4781,225.5313 874.4625,225.4063 874.3688,225.25 C874.2125,224.9844 873.9313,224.8438 873.6344,224.8438 C873.3375,224.8438 873.1344,224.9375 872.9156,225.25 L872.7438,225.1719 Z " fill="#000000"/><text fill="#000000" font-family="sans-serif" font-size="12" lengthAdjust="spacingAndGlyphs" textLength="87" x="887.6" y="233.6543">StartController</text><line style="stroke:#A80036;stroke-width:1.5;" x1="842" x2="991" y1="245.5" y2="245.5"/><line style="stroke:#A80036;stroke-width:1.5;" x1="842" x2="991" y1="253.5" y2="253.5"/><ellipse cx="852" cy="264.5" fill="#84BE84" rx="3" ry="3" style="stroke:#038048;stroke-width:1.0;"/><text fill="#000000" font-family="sans-serif" font-size="11" lengthAdjust="spacingAndGlyphs" textLength="125" x="861" y="267.7104">StartController(Game)</text><!--MD5=[71ea1457370bc7d349149836b00bab29]
class usantatecla.mastermind.controllers.PlayControllerrect codeLine="21" fill="#FEFECE" filter="url(#f6jljgudnzsu7)" height="137.6328" id="usantatecla.mastermind.controllers.PlayController" style="stroke:#A80036;stroke-width:1.5;" width="368" x="231.5" y="175"/><ellipse cx="355.75" cy="191" fill="#ADD1B2" rx="11" ry="11" style="stroke:#A80036;stroke-width:1.0;"/><path d="M358.0938,186.6719 C357.1563,186.2344 356.5625,186.0938 355.6875,186.0938 C353.0625,186.0938 351.0625,188.1719 351.0625,190.8906 L351.0625,192.0156 C351.0625,194.5938 353.1719,196.4844 356.0625,196.4844 C357.2813,196.4844 358.4375,196.1875 359.1875,195.6406 C359.7656,195.2344 360.0938,194.7813 360.0938,194.3906 C360.0938,193.9375 359.7031,193.5469 359.2344,193.5469 C359.0156,193.5469 358.8125,193.625 358.625,193.8125 C358.1719,194.2969 358.1719,194.2969 357.9844,194.3906 C357.5625,194.6563 356.875,194.7813 356.1094,194.7813 C354.0625,194.7813 352.7656,193.6875 352.7656,191.9844 L352.7656,190.8906 C352.7656,189.1094 354.0156,187.7969 355.75,187.7969 C356.3281,187.7969 356.9375,187.9531 357.4063,188.2031 C357.8906,188.4844 358.0625,188.7031 358.1563,189.1094 C358.2188,189.5156 358.25,189.6406 358.3906,189.7656 C358.5313,189.9063 358.7656,190.0156 358.9844,190.0156 C359.25,190.0156 359.5156,189.875 359.6875,189.6563 C359.7969,189.5 359.8281,189.3125 359.8281,188.8906 L359.8281,187.4688 C359.8281,187.0313 359.8125,186.9063 359.7188,186.75 C359.5625,186.4844 359.2813,186.3438 358.9844,186.3438 C358.6875,186.3438 358.4844,186.4375 358.2656,186.75 L358.0938,186.6719 Z " fill="#000000"/><text fill="#000000" font-family="sans-serif" font-size="12" lengthAdjust="spacingAndGlyphs" textLength="111" x="376.25" y="195.1543">ProposalController</text><line style="stroke:#A80036;stroke-width:1.5;" x1="232.5" x2="598.5" y1="207" y2="207"/><line style="stroke:#A80036;stroke-width:1.5;" x1="232.5" x2="598.5" y1="215" y2="215"/><ellipse cx="242.5" cy="226" fill="#84BE84" rx="3" ry="3" style="stroke:#038048;stroke-width:1.0;"/><text fill="#000000" font-family="sans-serif" font-size="11" lengthAdjust="spacingAndGlyphs" textLength="145" x="251.5" y="229.2104">ProposalController(Game)</text><ellipse cx="242.5" cy="238.8047" fill="#84BE84" rx="3" ry="3" style="stroke:#038048;stroke-width:1.0;"/><text fill="#000000" font-family="sans-serif" font-size="11" lengthAdjust="spacingAndGlyphs" textLength="251" x="251.5" y="242.0151">addProposedCombination(List&lt;Color&gt;): Error</text><ellipse cx="242.5" cy="251.6094" fill="#84BE84" rx="3" ry="3" style="stroke:#038048;stroke-width:1.0;"/><text fill="#000000" font-family="sans-serif" font-size="11" lengthAdjust="spacingAndGlyphs" textLength="160" x="251.5" y="254.8198">boolean isWinner(): boolean</text><ellipse cx="242.5" cy="264.4141" fill="#84BE84" rx="3" ry="3" style="stroke:#038048;stroke-width:1.0;"/><text fill="#000000" font-family="sans-serif" font-size="11" lengthAdjust="spacingAndGlyphs" textLength="108" x="251.5" y="267.6245">isLooser(): boolean</text><ellipse cx="242.5" cy="277.2188" fill="#84BE84" rx="3" ry="3" style="stroke:#038048;stroke-width:1.0;"/><text fill="#000000" font-family="sans-serif" font-size="11" lengthAdjust="spacingAndGlyphs" textLength="100" x="251.5" y="280.4292">getAttempts(): int</text><ellipse cx="242.5" cy="290.0234" fill="#84BE84" rx="3" ry="3" style="stroke:#038048;stroke-width:1.0;"/><text fill="#000000" font-family="sans-serif" font-size="11" lengthAdjust="spacingAndGlyphs" textLength="342" x="251.5" y="293.2339">getProposedCombination(int position): ProposedCombination</text><ellipse cx="242.5" cy="302.8281" fill="#84BE84" rx="3" ry="3" style="stroke:#038048;stroke-width:1.0;"/><text fill="#000000" font-family="sans-serif" font-size="11" lengthAdjust="spacingAndGlyphs" textLength="166" x="251.5" y="306.0386">getResult(int position): Result</text><!--MD5=[ba414607f34a8f1ff5e5377db4b3dfd8]
class usantatecla.mastermind.controllers.ResumeController--><rect codeLine="37" fill="#FEFECE" filter="url(#f6jljgudnzsu7)" height="73.6094" id="usantatecla.mastermind.controllers.ResumeController" style="stroke:#A80036;stroke-width:1.5;" width="171" x="635" y="207"/><ellipse cx="664.4" cy="223" fill="#ADD1B2" rx="11" ry="11" style="stroke:#A80036;stroke-width:1.0;"/><path d="M666.7438,218.6719 C665.8063,218.2344 665.2125,218.0938 664.3375,218.0938 C661.7125,218.0938 659.7125,220.1719 659.7125,222.8906 L659.7125,224.0156 C659.7125,226.5938 661.8219,228.4844 664.7125,228.4844 C665.9313,228.4844 667.0875,228.1875 667.8375,227.6406 C668.4156,227.2344 668.7438,226.7813 668.7438,226.3906 C668.7438,225.9375 668.3531,225.5469 667.8844,225.5469 C667.6656,225.5469 667.4625,225.625 667.275,225.8125 C666.8219,226.2969 666.8219,226.2969 666.6344,226.3906 C666.2125,226.6563 665.525,226.7813 664.7594,226.7813 C662.7125,226.7813 661.4156,225.6875 661.4156,223.9844 L661.4156,222.8906 C661.4156,221.1094 662.6656,219.7969 664.4,219.7969 C664.9781,219.7969 665.5875,219.9531 666.0563,220.2031 C666.5406,220.4844 666.7125,220.7031 666.8063,221.1094 C666.8688,221.5156 666.9,221.6406 667.0406,221.7656 C667.1813,221.9063 667.4156,222.0156 667.6344,222.0156 C667.9,222.0156 668.1656,221.875 668.3375,221.6563 C668.4469,221.5 668.4781,221.3125 668.4781,220.8906 L668.4781,219.4688 C668.4781,219.0313 668.4625,218.9063 668.3688,218.75 C668.2125,218.4844 667.9313,218.3438 667.6344,218.3438 C667.3375,218.3438 667.1344,218.4375 666.9156,218.75 L666.7438,218.6719 Z " fill="#000000"/><text fill="#000000" font-family="sans-serif" font-size="12" lengthAdjust="spacingAndGlyphs" textLength="107" x="681.6" y="227.1543">ResumeController</text><line style="stroke:#A80036;stroke-width:1.5;" x1="636" x2="805" y1="239" y2="239"/><line style="stroke:#A80036;stroke-width:1.5;" x1="636" x2="805" y1="247" y2="247"/><ellipse cx="646" cy="258" fill="#84BE84" rx="3" ry="3" style="stroke:#038048;stroke-width:1.0;"/><text fill="#000000" font-family="sans-serif" font-size="11" lengthAdjust="spacingAndGlyphs" textLength="145" x="655" y="261.2104">ResumeController(Game)</text><ellipse cx="646" cy="270.8047" fill="#84BE84" rx="3" ry="3" style="stroke:#038048;stroke-width:1.0;"/><text fill="#000000" font-family="sans-serif" font-size="11" lengthAdjust="spacingAndGlyphs" textLength="38" x="655" y="274.0151">reset()</text><!--MD5=[28491d17d5ee38c9c116625a5ffc259a]
class Combination--><rect codeLine="1" fill="#FEFECE" filter="url(#f6jljgudnzsu7)" height="67.9063" id="Combination" style="stroke:#A80036;stroke-width:1.5;" width="156" x="1027.5" y="210"/><ellipse cx="1042.5" cy="235.9531" fill="#A9DCDF" rx="11" ry="11" style="stroke:#A80036;stroke-width:1.0;"/><path d="M1044.5781,237.7656 L1044.9688,238.75 L1044.5781,238.75 C1044.125,238.75 1044.0156,238.7656 1043.8594,238.875 C1043.6094,239.0313 1043.4531,239.3125 1043.4531,239.6094 C1043.4531,239.875 1043.5938,240.125 1043.8125,240.2813 C1043.9531,240.4063 1044.1563,240.4531 1044.5781,240.4531 L1046.9375,240.4531 C1047.2969,240.4531 1047.5156,240.4219 1047.6563,240.3281 C1047.9063,240.1875 1048.0625,239.8906 1048.0625,239.6094 C1048.0625,239.3281 1047.9219,239.0781 1047.7031,238.9219 C1047.5313,238.7813 1047.375,238.75 1046.9063,238.75 L1043.5156,230.5469 L1039.8438,230.5469 C1039.3906,230.5469 1039.2656,230.5625 1039.1094,230.6563 C1038.8594,230.8281 1038.7031,231.1094 1038.7031,231.3906 C1038.7031,231.6719 1038.8438,231.9219 1039.0625,232.0938 C1039.2344,232.2031 1039.4063,232.2344 1039.8438,232.2344 L1040.9219,232.2344 L1038.2813,238.75 C1037.8594,238.75 1037.7031,238.7656 1037.5469,238.875 C1037.2969,239.0313 1037.1406,239.3125 1037.1406,239.6094 C1037.1406,240.1719 1037.5156,240.4531 1038.2656,240.4531 L1040.5313,240.4531 C1040.8906,240.4531 1041.1094,240.4219 1041.2344,240.3281 C1041.5,240.1875 1041.6406,239.8906 1041.6406,239.6094 C1041.6406,239.3281 1041.5156,239.0781 1041.2969,238.9063 C1041.125,238.7813 1040.9844,238.75 1040.5313,238.75 L1040.1406,238.75 L1040.5313,237.7656 L1044.5781,237.7656 Z M1043.875,236.0625 L1041.2031,236.0625 L1042.5469,232.7969 L1043.875,236.0625 Z " fill="#000000"/><text fill="#000000" font-family="sans-serif" font-size="12" font-style="italic" lengthAdjust="spacingAndGlyphs" textLength="74" x="1081.5" y="226.1387">usantatecla.</text><text fill="#000000" font-family="sans-serif" font-size="12" font-style="italic" lengthAdjust="spacingAndGlyphs" textLength="124" x="1056.5" y="240.1074">mastermind.models.</text><text fill="#000000" font-family="sans-serif" font-size="12" font-style="italic" lengthAdjust="spacingAndGlyphs" textLength="76" x="1080.5" y="254.0762">Combination</text><line style="stroke:#A80036;stroke-width:1.5;" x1="1028.5" x2="1182.5" y1="261.9063" y2="261.9063"/><line style="stroke:#A80036;stroke-width:1.5;" x1="1028.5" x2="1182.5" y1="269.9063" y2="269.9063"/><!--MD5=[b6dcce5e5ef3c84b0b048d11301373dd]
class Game--><rect codeLine="2" fill="#FEFECE" filter="url(#f6jljgudnzsu7)" height="67.9063" id="Game" style="stroke:#A80036;stroke-width:1.5;" width="154" x="810.5" y="373"/><ellipse cx="825.5" cy="398.9531" fill="#ADD1B2" rx="11" ry="11" style="stroke:#A80036;stroke-width:1.0;"/><path d="M827.8438,394.625 C826.9063,394.1875 826.3125,394.0469 825.4375,394.0469 C822.8125,394.0469 820.8125,396.125 820.8125,398.8438 L820.8125,399.9688 C820.8125,402.5469 822.9219,404.4375 825.8125,404.4375 C827.0313,404.4375 828.1875,404.1406 828.9375,403.5938 C829.5156,403.1875 829.8438,402.7344 829.8438,402.3438 C829.8438,401.8906 829.4531,401.5 828.9844,401.5 C828.7656,401.5 828.5625,401.5781 828.375,401.7656 C827.9219,402.25 827.9219,402.25 827.7344,402.3438 C827.3125,402.6094 826.625,402.7344 825.8594,402.7344 C823.8125,402.7344 822.5156,401.6406 822.5156,399.9375 L822.5156,398.8438 C822.5156,397.0625 823.7656,395.75 825.5,395.75 C826.0781,395.75 826.6875,395.9063 827.1563,396.1563 C827.6406,396.4375 827.8125,396.6563 827.9063,397.0625 C827.9688,397.4688 828,397.5938 828.1406,397.7188 C828.2813,397.8594 828.5156,397.9688 828.7344,397.9688 C829,397.9688 829.2656,397.8281 829.4375,397.6094 C829.5469,397.4531 829.5781,397.2656 829.5781,396.8438 L829.5781,395.4219 C829.5781,394.9844 829.5625,394.8594 829.4688,394.7031 C829.3125,394.4375 829.0313,394.2969 828.7344,394.2969 C828.4375,394.2969 828.2344,394.3906 828.0156,394.7031 L827.8438,394.625 Z " fill="#000000"/><text fill="#000000" font-family="sans-serif" font-size="12" lengthAdjust="spacingAndGlyphs" textLength="71" x="865" y="389.1387">usantatecla.</text><text fill="#000000" font-family="sans-serif" font-size="12" lengthAdjust="spacingAndGlyphs" textLength="122" x="839.5" y="403.1074">mastermind.models.</text><text fill="#000000" font-family="sans-serif" font-size="12" lengthAdjust="spacingAndGlyphs" textLength="35" x="883" y="417.0762">Game</text><line style="stroke:#A80036;stroke-width:1.5;" x1="811.5" x2="963.5" y1="424.9063" y2="424.9063"/><line style="stroke:#A80036;stroke-width:1.5;" x1="811.5" x2="963.5" y1="432.9063" y2="432.9063"/><!--MD5=[b8cfd8c4119a3b0a7a46bfc5fc780f85]
class Error--><rect codeLine="3" fill="#FEFECE" filter="url(#f6jljgudnzsu7)" height="67.9063" id="Error" style="stroke:#A80036;stroke-width:1.5;" width="143" x="7" y="373"/><ellipse cx="22" cy="398.9531" fill="#ADD1B2" rx="11" ry="11" style="stroke:#A80036;stroke-width:1.0;"/><path d="M24.3438,394.625 C23.4063,394.1875 22.8125,394.0469 21.9375,394.0469 C19.3125,394.0469 17.3125,396.125 17.3125,398.8438 L17.3125,399.9688 C17.3125,402.5469 19.4219,404.4375 22.3125,404.4375 C23.5313,404.4375 24.6875,404.1406 25.4375,403.5938 C26.0156,403.1875 26.3438,402.7344 26.3438,402.3438 C26.3438,401.8906 25.9531,401.5 25.4844,401.5 C25.2656,401.5 25.0625,401.5781 24.875,401.7656 C24.4219,402.25 24.4219,402.25 24.2344,402.3438 C23.8125,402.6094 23.125,402.7344 22.3594,402.7344 C20.3125,402.7344 19.0156,401.6406 19.0156,399.9375 L19.0156,398.8438 C19.0156,397.0625 20.2656,395.75 22,395.75 C22.5781,395.75 23.1875,395.9063 23.6563,396.1563 C24.1406,396.4375 24.3125,396.6563 24.4063,397.0625 C24.4688,397.4688 24.5,397.5938 24.6406,397.7188 C24.7813,397.8594 25.0156,397.9688 25.2344,397.9688 C25.5,397.9688 25.7656,397.8281 25.9375,397.6094 C26.0469,397.4531 26.0781,397.2656 26.0781,396.8438 L26.0781,395.4219 C26.0781,394.9844 26.0625,394.8594 25.9688,394.7031 C25.8125,394.4375 25.5313,394.2969 25.2344,394.2969 C24.9375,394.2969 24.7344,394.3906 24.5156,394.7031 L24.3438,394.625 Z " fill="#000000"/><text fill="#000000" font-family="sans-serif" font-size="12" lengthAdjust="spacingAndGlyphs" textLength="71" x="56" y="389.1387">usantatecla.</text><text fill="#000000" font-family="sans-serif" font-size="12" lengthAdjust="spacingAndGlyphs" textLength="111" x="36" y="403.1074">mastermind.types.</text><text fill="#000000" font-family="sans-serif" font-size="12" lengthAdjust="spacingAndGlyphs" textLength="30" x="76.5" y="417.0762">Error</text><line style="stroke:#A80036;stroke-width:1.5;" x1="8" x2="149" y1="424.9063" y2="424.9063"/><line style="stroke:#A80036;stroke-width:1.5;" x1="8" x2="149" y1="432.9063" y2="432.9063"/><!--MD5=[18eee71c88ab61f27581b8cbdd3ef5ee]
class Color--><rect codeLine="4" fill="#FEFECE" filter="url(#f6jljgudnzsu7)" height="67.9063" id="Color" style="stroke:#A80036;stroke-width:1.5;" width="143" x="185" y="373"/><ellipse cx="200" cy="398.9531" fill="#ADD1B2" rx="11" ry="11" style="stroke:#A80036;stroke-width:1.0;"/><path d="M202.3438,394.625 C201.4063,394.1875 200.8125,394.0469 199.9375,394.0469 C197.3125,394.0469 195.3125,396.125 195.3125,398.8438 L195.3125,399.9688 C195.3125,402.5469 197.4219,404.4375 200.3125,404.4375 C201.5313,404.4375 202.6875,404.1406 203.4375,403.5938 C204.0156,403.1875 204.3438,402.7344 204.3438,402.3438 C204.3438,401.8906 203.9531,401.5 203.4844,401.5 C203.2656,401.5 203.0625,401.5781 202.875,401.7656 C202.4219,402.25 202.4219,402.25 202.2344,402.3438 C201.8125,402.6094 201.125,402.7344 200.3594,402.7344 C198.3125,402.7344 197.0156,401.6406 197.0156,399.9375 L197.0156,398.8438 C197.0156,397.0625 198.2656,395.75 200,395.75 C200.5781,395.75 201.1875,395.9063 201.6563,396.1563 C202.1406,396.4375 202.3125,396.6563 202.4063,397.0625 C202.4688,397.4688 202.5,397.5938 202.6406,397.7188 C202.7813,397.8594 203.0156,397.9688 203.2344,397.9688 C203.5,397.9688 203.7656,397.8281 203.9375,397.6094 C204.0469,397.4531 204.0781,397.2656 204.0781,396.8438 L204.0781,395.4219 C204.0781,394.9844 204.0625,394.8594 203.9688,394.7031 C203.8125,394.4375 203.5313,394.2969 203.2344,394.2969 C202.9375,394.2969 202.7344,394.3906 202.5156,394.7031 L202.3438,394.625 Z " fill="#000000"/><text fill="#000000" font-family="sans-serif" font-size="12" lengthAdjust="spacingAndGlyphs" textLength="71" x="234" y="389.1387">usantatecla.</text><text fill="#000000" font-family="sans-serif" font-size="12" lengthAdjust="spacingAndGlyphs" textLength="111" x="214" y="403.1074">mastermind.types.</text><text fill="#000000" font-family="sans-serif" font-size="12" lengthAdjust="spacingAndGlyphs" textLength="32" x="253.5" y="417.0762">Color</text><line style="stroke:#A80036;stroke-width:1.5;" x1="186" x2="327" y1="424.9063" y2="424.9063"/><line style="stroke:#A80036;stroke-width:1.5;" x1="186" x2="327" y1="432.9063" y2="432.9063"/><!--MD5=[cf489b19c51ee25e76ddca093e62e620]
class ProposedCombination--><rect codeLine="5" fill="#FEFECE" filter="url(#f6jljgudnzsu7)" height="67.9063" id="ProposedCombination" style="stroke:#A80036;stroke-width:1.5;" width="164" x="363.5" y="373"/><ellipse cx="378.5" cy="398.9531" fill="#ADD1B2" rx="11" ry="11" style="stroke:#A80036;stroke-width:1.0;"/><path d="M380.8438,394.625 C379.9063,394.1875 379.3125,394.0469 378.4375,394.0469 C375.8125,394.0469 373.8125,396.125 373.8125,398.8438 L373.8125,399.9688 C373.8125,402.5469 375.9219,404.4375 378.8125,404.4375 C380.0313,404.4375 381.1875,404.1406 381.9375,403.5938 C382.5156,403.1875 382.8438,402.7344 382.8438,402.3438 C382.8438,401.8906 382.4531,401.5 381.9844,401.5 C381.7656,401.5 381.5625,401.5781 381.375,401.7656 C380.9219,402.25 380.9219,402.25 380.7344,402.3438 C380.3125,402.6094 379.625,402.7344 378.8594,402.7344 C376.8125,402.7344 375.5156,401.6406 375.5156,399.9375 L375.5156,398.8438 C375.5156,397.0625 376.7656,395.75 378.5,395.75 C379.0781,395.75 379.6875,395.9063 380.1563,396.1563 C380.6406,396.4375 380.8125,396.6563 380.9063,397.0625 C380.9688,397.4688 381,397.5938 381.1406,397.7188 C381.2813,397.8594 381.5156,397.9688 381.7344,397.9688 C382,397.9688 382.2656,397.8281 382.4375,397.6094 C382.5469,397.4531 382.5781,397.2656 382.5781,396.8438 L382.5781,395.4219 C382.5781,394.9844 382.5625,394.8594 382.4688,394.7031 C382.3125,394.4375 382.0313,394.2969 381.7344,394.2969 C381.4375,394.2969 381.2344,394.3906 381.0156,394.7031 L380.8438,394.625 Z " fill="#000000"/><text fill="#000000" font-family="sans-serif" font-size="12" lengthAdjust="spacingAndGlyphs" textLength="71" x="423" y="389.1387">usantatecla.</text><text fill="#000000" font-family="sans-serif" font-size="12" lengthAdjust="spacingAndGlyphs" textLength="122" x="397.5" y="403.1074">mastermind.models.</text><text fill="#000000" font-family="sans-serif" font-size="12" lengthAdjust="spacingAndGlyphs" textLength="132" x="392.5" y="417.0762">ProposedCombination</text><line style="stroke:#A80036;stroke-width:1.5;" x1="364.5" x2="526.5" y1="424.9063" y2="424.9063"/><line style="stroke:#A80036;stroke-width:1.5;" x1="364.5" x2="526.5" y1="432.9063" y2="432.9063"/><!--MD5=[2741598bdf59a7d7e0d5c97658fd3022]
class Result--><rect codeLine="6" fill="#FEFECE" filter="url(#f6jljgudnzsu7)" height="67.9063" id="Result" style="stroke:#A80036;stroke-width:1.5;" width="154" x="562.5" y="373"/><ellipse cx="577.5" cy="398.9531" fill="#ADD1B2" rx="11" ry="11" style="stroke:#A80036;stroke-width:1.0;"/><path d="M579.8438,394.625 C578.9063,394.1875 578.3125,394.0469 577.4375,394.0469 C574.8125,394.0469 572.8125,396.125 572.8125,398.8438 L572.8125,399.9688 C572.8125,402.5469 574.9219,404.4375 577.8125,404.4375 C579.0313,404.4375 580.1875,404.1406 580.9375,403.5938 C581.5156,403.1875 581.8438,402.7344 581.8438,402.3438 C581.8438,401.8906 581.4531,401.5 580.9844,401.5 C580.7656,401.5 580.5625,401.5781 580.375,401.7656 C579.9219,402.25 579.9219,402.25 579.7344,402.3438 C579.3125,402.6094 578.625,402.7344 577.8594,402.7344 C575.8125,402.7344 574.5156,401.6406 574.5156,399.9375 L574.5156,398.8438 C574.5156,397.0625 575.7656,395.75 577.5,395.75 C578.0781,395.75 578.6875,395.9063 579.1563,396.1563 C579.6406,396.4375 579.8125,396.6563 579.9063,397.0625 C579.9688,397.4688 580,397.5938 580.1406,397.7188 C580.2813,397.8594 580.5156,397.9688 580.7344,397.9688 C581,397.9688 581.2656,397.8281 581.4375,397.6094 C581.5469,397.4531 581.5781,397.2656 581.5781,396.8438 L581.5781,395.4219 C581.5781,394.9844 581.5625,394.8594 581.4688,394.7031 C581.3125,394.4375 581.0313,394.2969 580.7344,394.2969 C580.4375,394.2969 580.2344,394.3906 580.0156,394.7031 L579.8438,394.625 Z " fill="#000000"/><text fill="#000000" font-family="sans-serif" font-size="12" lengthAdjust="spacingAndGlyphs" textLength="71" x="617" y="389.1387">usantatecla.</text><text fill="#000000" font-family="sans-serif" font-size="12" lengthAdjust="spacingAndGlyphs" textLength="122" x="591.5" y="403.1074">mastermind.models.</text><text fill="#000000" font-family="sans-serif" font-size="12" lengthAdjust="spacingAndGlyphs" textLength="36" x="634.5" y="417.0762">Result</text><line style="stroke:#A80036;stroke-width:1.5;" x1="563.5" x2="715.5" y1="424.9063" y2="424.9063"/><line style="stroke:#A80036;stroke-width:1.5;" x1="563.5" x2="715.5" y1="432.9063" y2="432.9063"/><!--MD5=[b1534f62db7bd0c312bb47cb18cac355]
link usantatecla.mastermind.controllers.Controller to Game--><path codeLine="12" d="M990.6145,81.1737 C990.6145,81.1737 1154.09,109.009 1201.5,175 C1243.51,233.476 1246.62,280.89 1201.5,337 C1173.82,371.4235 1060.33,389.6571 977.726,398.5614 " fill="none" id="usantatecla.mastermind.controllers.Controller-Game" style="stroke:#A80036;stroke-width:1.0;"/><polygon fill="#A80036" points="964.751,399.9114,974.1167,402.9583,969.7241,399.3938,973.2886,395.0012,964.751,399.9114" style="stroke:#A80036;stroke-width:1.0;"/><line style="stroke:#A80036;stroke-width:1.0;" x1="969.7241" x2="977.681" y1="399.3938" y2="398.566"/><polygon fill="#A80036" points="978.658,80.153,984.296,84.6488,990.6145,81.1737,984.9765,76.6778,978.658,80.153" style="stroke:#A80036;stroke-width:1.0;"/><!--MD5=[bcb04731f9fe2ebc3bb43e51b61da32e]
link usantatecla.mastermind.controllers.Controller to Combination--><path codeLine="13" d="M958.445,115.397 C989.565,142.4 1031.83,179.078 1063.07,206.181 " fill="none" id="usantatecla.mastermind.controllers.Controller-to-Combination" style="stroke:#A80036;stroke-width:1.0;stroke-dasharray:7.0,7.0;"/><polygon fill="#A80036" points="1067.21,209.772,1063.0449,200.8472,1063.4376,206.4904,1057.7944,206.8831,1067.21,209.772" style="stroke:#A80036;stroke-width:1.0;"/><!--MD5=[c885998b8df824bd1b8bf3ae6c5e9a62]
reverse link usantatecla.mastermind.controllers.Controller to usantatecla.mastermind.controllers.StartController--><path codeLine="18" d="M916.5,135.719 C916.5,161.811 916.5,191.69 916.5,213.277 " fill="none" id="usantatecla.mastermind.controllers.Controller-backto-usantatecla.mastermind.controllers.StartController" style="stroke:#A80036;stroke-width:1.0;"/><polygon fill="none" points="909.5,135.397,916.5,115.397,923.5,135.397,909.5,135.397" style="stroke:#A80036;stroke-width:1.0;"/><!--MD5=[70753de5d77fa864ad706701913b855c]
link usantatecla.mastermind.controllers.StartController to Game--><path codeLine="19" d="M911.181,274.53 C906.471,300.681 899.564,339.023 894.424,367.5597 " fill="none" id="usantatecla.mastermind.controllers.StartController-to-Game" style="stroke:#A80036;stroke-width:1.0;stroke-dasharray:7.0,7.0;"/><polygon fill="#A80036" points="893.486,372.7688,899.0184,364.6207,894.3726,367.848,891.1452,363.2022,893.486,372.7688" style="stroke:#A80036;stroke-width:1.0;"/><!--MD5=[355b9902740da4b2ec85e8089918fd93]
reverse link usantatecla.mastermind.controllers.Controller to usantatecla.mastermind.controllers.PlayControllerpath codeLine="30" d="M834.836,104.879 C774.675,124.027 690.903,150.863 617.5,175 C611.612,176.936 605.63,178.91 599.591,180.908 " fill="none" id="usantatecla.mastermind.controllers.Controller-backto-usantatecla.mastermind.controllers.PlayController" style="stroke:#A80036;stroke-width:1.0;"/><polygon fill="none" points="833.103,98.085,854.284,98.695,837.346,111.427,833.103,98.085" style="stroke:#A80036;stroke-width:1.0;"/><!--MD5=[aec0234761dc3837780669c056a8373c]
link usantatecla.mastermind.controllers.PlayControllerError--><path codeLine="31" d="M273.07,313.045 C231.637,332.839 188.05,353.6632 152.656,370.5722 " fill="none" id="usantatecla.mastermind.controllers.ProposalController-to-Error" style="stroke:#A80036;stroke-width:1.0;stroke-dasharray:7.0,7.0;"/><polygon fill="#A80036" points="147.94,372.8256,157.7851,372.5546,152.4514,370.6699,154.3361,365.3363,147.94,372.8256" style="stroke:#A80036;stroke-width:1.0;"/><!--MD5=[87e0934b81fc2a23f4913978547fcb00]
link usantatecla.mastermind.controllers.PlayControllerProposedCombination--><path codeLine="32" d="M428.223,313.278 C431.696,331.919 435.336,351.455 438.375,367.7615 " fill="none" id="usantatecla.mastermind.controllers.ProposalController-to-ProposedCombination" style="stroke:#A80036;stroke-width:1.0;stroke-dasharray:7.0,7.0;"/><polygon fill="#A80036" points="439.298,372.7139,441.5819,363.1335,438.3822,367.7985,433.7172,364.5988,439.298,372.7139" style="stroke:#A80036;stroke-width:1.0;"/><!--MD5=[bb70a159ed99f372a306886c4b969c7c]
link usantatecla.mastermind.controllers.PlayControllerResult--><path codeLine="33" d="M510.171,313.045 C537.262,332.516 565.738,352.9835 589.053,369.7409 " fill="none" id="usantatecla.mastermind.controllers.ProposalController-to-Result" style="stroke:#A80036;stroke-width:1.0;stroke-dasharray:7.0,7.0;"/><polygon fill="#A80036" points="593.344,372.8256,588.371,364.3245,589.2841,369.9071,583.7015,370.8202,593.344,372.8256" style="stroke:#A80036;stroke-width:1.0;"/><!--MD5=[69852a3216d5517651367a7065e7f1c9]
link usantatecla.mastermind.controllers.PlayControllerColor--><path codeLine="34" d="M348.07,313.278 C329.184,332.401 309.369,352.466 293.02,369.0201 " fill="none" id="usantatecla.mastermind.controllers.ProposalController-to-Color" style="stroke:#A80036;stroke-width:1.0;stroke-dasharray:7.0,7.0;"/><polygon fill="#A80036" points="289.373,372.7139,298.5433,369.1214,292.8865,369.1565,292.8514,363.4998,289.373,372.7139" style="stroke:#A80036;stroke-width:1.0;"/><!--MD5=[3031187462b747cbd09689bb5fb1dcf3]
link usantatecla.mastermind.controllers.PlayControllerGame--><path codeLine="35" d="M556.565,313.058 C576.786,321.692 597.51,329.956 617.5,337 C679.277,358.7685 751.225,376.8103 805.309,388.9789 " fill="none" id="usantatecla.mastermind.controllers.ProposalController-to-Game" style="stroke:#A80036;stroke-width:1.0;stroke-dasharray:7.0,7.0;"/><polygon fill="#A80036" points="810.486,390.1381,802.5762,384.2699,805.6066,389.0466,800.8299,392.077,810.486,390.1381" style="stroke:#A80036;stroke-width:1.0;"/><!--MD5=[933c3a87fb1e2f64e4c2436935a9c1c3]
reverse link usantatecla.mastermind.controllers.Controller to usantatecla.mastermind.controllers.ResumeController--><path codeLine="41" d="M857.368,128.478 C827.16,153.754 791.073,183.949 763.54,206.987 " fill="none" id="usantatecla.mastermind.controllers.Controller-backto-usantatecla.mastermind.controllers.ResumeController" style="stroke:#A80036;stroke-width:1.0;"/><polygon fill="none" points="853.17,122.863,873.001,115.397,862.155,133.6,853.17,122.863" style="stroke:#A80036;stroke-width:1.0;"/><!--MD5=[5463db7e495f29b5e5c71a16eed29f43]
link usantatecla.mastermind.controllers.ResumeController to Game--><path codeLine="42" d="M757.978,281.132 C785.22,307.395 821.967,342.8212 849.361,369.2312 " fill="none" id="usantatecla.mastermind.controllers.ResumeController-to-Game" style="stroke:#A80036;stroke-width:1.0;stroke-dasharray:7.0,7.0;"/><polygon fill="#A80036" points="852.992,372.7323,849.2886,363.6062,849.3923,369.2621,843.7364,369.3658,852.992,372.7323" style="stroke:#A80036;stroke-width:1.0;"/><!--MD5=[a8460af88e03717a2f8fd1a46f1f0aae]
@startuml
abstract class Combination as "usantatecla.\nmastermind.models.\nCombination"
class Game as "usantatecla.\nmastermind.models.\nGame"
class Error as "usantatecla.\nmastermind.types.\nError"
class Color as "usantatecla.\nmastermind.types.\nColor"
class ProposedCombination as "usantatecla.\nmastermind.models.\nProposedCombination"
class Result as "usantatecla.\nmastermind.models.\nResult"

abstract class usantatecla.mastermind.controllers.Controller {
    # Controller(Game)
    + getWidth(): int
}
usantatecla.mastermind.controllers.Controller *-down-> Game
usantatecla.mastermind.controllers.Controller .down.> Combination

class usantatecla.mastermind.controllers.StartController {
    + StartController(Game)
}
usantatecla.mastermind.controllers.Controller <|-down- usantatecla.mastermind.controllers.StartController
usantatecla.mastermind.controllers.StartController .down.> Game

class usantatecla.mastermind.controllers.PlayController   + PlayController(Game)
    + addProposedCombination(List<Color>): Error
    + boolean isWinner(): boolean
    + isLooser(): boolean
    + getAttempts(): int
    + getProposedCombination(int position): ProposedCombination
    + getResult(int position): Result
}
usantatecla.mastermind.controllers.Controller <|-down- usantatecla.mastermind.controllers.PlayControllerntatecla.mastermind.controllers.PlayControllerwn.> Error
usantatecla.mastermind.controllers.PlayControllerwn.> ProposedCombination
usantatecla.mastermind.controllers.PlayControllerwn.> Result
usantatecla.mastermind.controllers.PlayControllerwn.> Color
usantatecla.mastermind.controllers.PlayControllerwn.> Game

class usantatecla.mastermind.controllers.ResumeController {
    + ResumeController(Game)
    + reset()
}
usantatecla.mastermind.controllers.Controller <|-down- usantatecla.mastermind.controllers.ResumeController
usantatecla.mastermind.controllers.ResumeController .down.> Game
@enduml

PlantUML version 1.2020.23beta3(Unknown compile time)
(GPL source distribution)
Java Runtime: Java(TM) SE Runtime Environment
JVM: Java HotSpot(TM) 64-Bit Server VM
Default Encoding: UTF-8
Language: en
Country: US
--></g></svg>