<?xml version="1.0" encoding="UTF-8" standalone="no"?><svg xmlns="http://www.w3.org/2000/svg" xmlns:xlink="http://www.w3.org/1999/xlink" contentScriptType="application/ecmascript" contentStyleType="text/css" height="743px" preserveAspectRatio="none" style="width:1213px;height:743px;" version="1.1" viewBox="0 0 1213 743" width="1213px" zoomAndPan="magnify"><defs><filter height="300%" id="fbs2di0ecwqyw" width="300%" x="-1" y="-1"><feGaussianBlur result="blurOut" stdDeviation="2.0"/><feColorMatrix in="blurOut" result="blurOut2" type="matrix" values="0 0 0 0 0 0 0 0 0 0 0 0 0 0 0 0 0 0 .4 0"/><feOffset dx="4.0" dy="4.0" in="blurOut2" result="blurOut3"/><feBlend in="SourceGraphic" in2="blurOut3" mode="normal"/></filter></defs><g><polygon fill="#DDDDDD" filter="url(#fbs2di0ecwqyw)" points="979.1242,119,1061.1242,119,1068.1242,141.2969,1075.1242,141.2969,1075.1242,171.5938,979.1242,171.5938,979.1242,119" style="stroke:#000000;stroke-width:1.5;"/><line style="stroke:#000000;stroke-width:1.5;" x1="979.1242" x2="1068.1242" y1="141.2969" y2="141.2969"/><text fill="#000000" font-family="sans-serif" font-size="14" font-weight="bold" lengthAdjust="spacingAndGlyphs" textLength="76" x="983.1242" y="133.9951">tictactoe</text><polygon fill="#DDDDDD" filter="url(#fbs2di0ecwqyw)" points="831.1242,345,1007.1242,345,1014.1242,367.2969,1021.1242,367.2969,1021.1242,397.5938,831.1242,397.5938,831.1242,345" style="stroke:#000000;stroke-width:1.5;"/><line style="stroke:#000000;stroke-width:1.5;" x1="831.1242" x2="1014.1242" y1="367.2969" y2="367.2969"/><text fill="#000000" font-family="sans-serif" font-size="14" font-weight="bold" lengthAdjust="spacingAndGlyphs" textLength="170" x="835.1242" y="359.9951">tictactoe.controllers</text><polygon fill="#DDDDDD" filter="url(#fbs2di0ecwqyw)" points="830.1242,6,1008.1242,6,1015.1242,28.2969,1022.1242,28.2969,1022.1242,58.5938,830.1242,58.5938,830.1242,6" style="stroke:#000000;stroke-width:1.5;"/><line style="stroke:#000000;stroke-width:1.5;" x1="830.1242" x2="1015.1242" y1="28.2969" y2="28.2969"/><text fill="#000000" font-family="sans-serif" font-size="14" font-weight="bold" lengthAdjust="spacingAndGlyphs" textLength="172" x="834.1242" y="20.9951">tictactoe.distributed</text><polygon fill="#DDDDDD" filter="url(#fbs2di0ecwqyw)" points="404.6242,232,683.6242,232,690.6242,254.2969,697.6242,254.2969,697.6242,284.5938,404.6242,284.5938,404.6242,232" style="stroke:#000000;stroke-width:1.5;"/><line style="stroke:#000000;stroke-width:1.5;" x1="404.6242" x2="690.6242" y1="254.2969" y2="254.2969"/><text fill="#000000" font-family="sans-serif" font-size="14" font-weight="bold" lengthAdjust="spacingAndGlyphs" textLength="273" x="408.6242" y="246.9951">tictactoe.distributed.dispatchers</text><polygon fill="#FFFFFF" filter="url(#fbs2di0ecwqyw)" points="591.6242,684,664.6242,684,671.6242,706.2969,678.6242,706.2969,678.6242,736.5938,591.6242,736.5938,591.6242,684" style="stroke:#000000;stroke-width:1.5;"/><line style="stroke:#000000;stroke-width:1.5;" x1="591.6242" x2="671.6242" y1="706.2969" y2="706.2969"/><text fill="#000000" font-family="sans-serif" font-size="14" font-weight="bold" lengthAdjust="spacingAndGlyphs" textLength="67" x="595.6242" y="698.9951">java.util</text><polygon fill="#DDDDDD" filter="url(#fbs2di0ecwqyw)" points="116.6244,119,449.6244,119,456.6244,141.2969,463.6244,141.2969,463.6244,171.5938,116.6244,171.5938,116.6244,119" style="stroke:#000000;stroke-width:1.5;"/><line style="stroke:#000000;stroke-width:1.5;" x1="116.6244" x2="456.6244" y1="141.2969" y2="141.2969"/><text fill="#000000" font-family="sans-serif" font-size="14" font-weight="bold" lengthAdjust="spacingAndGlyphs" textLength="327" x="120.6244" y="133.9951">tictactoe.distributed.dispatchers.errors</text><polygon fill="#DDDDDD" filter="url(#fbs2di0ecwqyw)" points="499.1242,119,859.1242,119,866.1242,141.2969,873.1242,141.2969,873.1242,171.5938,499.1242,171.5938,499.1242,119" style="stroke:#000000;stroke-width:1.5;"/><line style="stroke:#000000;stroke-width:1.5;" x1="499.1242" x2="866.1242" y1="141.2969" y2="141.2969"/><text fill="#000000" font-family="sans-serif" font-size="14" font-weight="bold" lengthAdjust="spacingAndGlyphs" textLength="354" x="503.1242" y="133.9951">tictactoe.distributed.dispatchers.undoredo</text><polygon fill="#DDDDDD" filter="url(#fbs2di0ecwqyw)" points="642.6242,458,787.6242,458,794.6242,480.2969,801.6242,480.2969,801.6242,510.5938,642.6242,510.5938,642.6242,458" style="stroke:#000000;stroke-width:1.5;"/><line style="stroke:#000000;stroke-width:1.5;" x1="642.6242" x2="794.6242" y1="480.2969" y2="480.2969"/><text fill="#000000" font-family="sans-serif" font-size="14" font-weight="bold" lengthAdjust="spacingAndGlyphs" textLength="139" x="646.6242" y="472.9951">tictactoe.models</text><polygon fill="#DDDDDD" filter="url(#fbs2di0ecwqyw)" points="826.6242,571,869.6242,571,876.6242,593.2969,883.6242,593.2969,883.6242,623.5938,826.6242,623.5938,826.6242,571" style="stroke:#000000;stroke-width:1.5;"/><line style="stroke:#000000;stroke-width:1.5;" x1="826.6242" x2="876.6242" y1="593.2969" y2="593.2969"/><text fill="#000000" font-family="sans-serif" font-size="14" font-weight="bold" lengthAdjust="spacingAndGlyphs" textLength="37" x="830.6242" y="585.9951">utils</text><polygon fill="#FFFFFF" filter="url(#fbs2di0ecwqyw)" points="869.1242,684,941.1242,684,948.1242,706.2969,955.1242,706.2969,955.1242,736.5938,869.1242,736.5938,869.1242,684" style="stroke:#000000;stroke-width:1.5;"/><line style="stroke:#000000;stroke-width:1.5;" x1="869.1242" x2="948.1242" y1="706.2969" y2="706.2969"/><text fill="#000000" font-family="sans-serif" font-size="14" font-weight="bold" lengthAdjust="spacingAndGlyphs" textLength="66" x="873.1242" y="698.9951">java.net</text><polygon fill="#FFFFFF" filter="url(#fbs2di0ecwqyw)" points="760.1242,684,820.1242,684,827.1242,706.2969,834.1242,706.2969,834.1242,736.5938,760.1242,736.5938,760.1242,684" style="stroke:#000000;stroke-width:1.5;"/><line style="stroke:#000000;stroke-width:1.5;" x1="760.1242" x2="827.1242" y1="706.2969" y2="706.2969"/><text fill="#000000" font-family="sans-serif" font-size="14" font-weight="bold" lengthAdjust="spacingAndGlyphs" textLength="54" x="764.1242" y="698.9951">java.io</text><polygon fill="#DDDDDD" filter="url(#fbs2di0ecwqyw)" points="1050.1242,232,1182.1242,232,1189.1242,254.2969,1196.1242,254.2969,1196.1242,284.5938,1050.1242,284.5938,1050.1242,232" style="stroke:#000000;stroke-width:1.5;"/><line style="stroke:#000000;stroke-width:1.5;" x1="1050.1242" x2="1189.1242" y1="254.2969" y2="254.2969"/><text fill="#000000" font-family="sans-serif" font-size="14" font-weight="bold" lengthAdjust="spacingAndGlyphs" textLength="126" x="1054.1242" y="246.9951">tictactoe.views</text><!--MD5=[8fe1157dabbcf20ee852fc992046f19b]
link tictactoe to tictactoe.views--><path codeLine="2" d="M1049.3902,172.245 C1063.8082,188.916 1082.6212,210.673 1097.6412,228.035 " fill="none" id="tictactoe-to-tictactoe.views" style="stroke:#A80036;stroke-width:1.0;stroke-dasharray:7.0,7.0;"/><polygon fill="#A80036" points="1100.9812,231.895,1098.1231,222.47,1097.712,228.1118,1092.0701,227.7007,1100.9812,231.895" style="stroke:#A80036;stroke-width:1.0;"/><!--MD5=[4c8e626184b37a51cac3aeda5d7a8756]
link tictactoe to tictactoe.controllers--><path codeLine="3" d="M1015.5382,172.196 C996.7912,213.775 959.8882,295.619 939.8512,340.055 " fill="none" id="tictactoe-to-tictactoe.controllers" style="stroke:#A80036;stroke-width:1.0;stroke-dasharray:7.0,7.0;"/><polygon fill="#A80036" points="937.7302,344.76,945.0747,338.1981,939.7845,340.2015,937.7811,334.9113,937.7302,344.76" style="stroke:#A80036;stroke-width:1.0;"/><!--MD5=[f6dfdd433beafcf2daacaf58db85d2a6]
link tictactoe.controllers to tictactoe.models--><path codeLine="6" d="M879.0662,398.105 C847.6642,415.192 806.3582,437.667 774.0042,455.271 " fill="none" id="tictactoe.controllers-to-tictactoe.models" style="stroke:#A80036;stroke-width:1.0;stroke-dasharray:7.0,7.0;"/><polygon fill="#A80036" points="769.2982,457.832,779.1154,457.0431,773.6899,455.4418,775.2912,450.0163,769.2982,457.832" style="stroke:#A80036;stroke-width:1.0;"/><!--MD5=[7686e8f287a000f4f4382fab73cbe1d6]
link tictactoe.controllers to utils--><path codeLine="8" d="M917.9802,398.196 C904.8272,439.69 878.9642,521.287 864.8602,565.785 " fill="none" id="tictactoe.controllers-to-utils" style="stroke:#A80036;stroke-width:1.0;stroke-dasharray:7.0,7.0;"/><polygon fill="#A80036" points="863.2832,570.76,869.8142,563.388,864.793,565.9934,862.1876,560.9723,863.2832,570.76" style="stroke:#A80036;stroke-width:1.0;"/><!--MD5=[7c72f5d865466b77d7ca9513c93392ec]
link tictactoe.distributed to tictactoe.controllers--><path d="M926.1242,59.106 C926.1242,120.062 926.1242,273.598 926.1242,339.579 " fill="none" id="tictactoe.distributed-to-tictactoe.controllers" style="stroke:#A80036;stroke-width:1.0;stroke-dasharray:7.0,7.0;"/><polygon fill="#A80036" points="926.1242,344.933,930.1242,335.933,926.1242,339.933,922.1242,335.933,926.1242,344.933" style="stroke:#A80036;stroke-width:1.0;"/><!--MD5=[b12a8c2b3a7919c9e97025327732ddf3]
link tictactoe.distributed to tictactoe--><path d="M949.5492,59.245 C964.7192,75.916 984.5162,97.673 1000.3142,115.035 " fill="none" id="tictactoe.distributed-to-tictactoe" style="stroke:#A80036;stroke-width:1.0;stroke-dasharray:7.0,7.0;"/><polygon fill="#A80036" points="1003.8262,118.895,1000.7272,109.5464,1000.461,115.197,994.8104,114.9307,1003.8262,118.895" style="stroke:#A80036;stroke-width:1.0;"/><!--MD5=[05166684c1a59f6da1b9a25ccea13098]
link tictactoe.distributed to tictactoe.distributed.dispatchers--><path codeLine="13" d="M830.1022,36.344 C622.6472,43.479 147.3408,65.542 99.1244,119 C6,222.249 234.0702,249.498 399.0092,256.12 " fill="none" id="tictactoe.distributed-to-tictactoe.distributed.dispatchers" style="stroke:#A80036;stroke-width:1.0;stroke-dasharray:7.0,7.0;"/><polygon fill="#A80036" points="404.3592,256.329,395.5214,251.9823,399.363,256.1347,395.2106,259.9762,404.3592,256.329" style="stroke:#A80036;stroke-width:1.0;"/><!--MD5=[fc9a0ada8190c13f83b22042efd24c15]
link tictactoe.distributed.dispatchers to tictactoe.controllers--><path d="M637.6282,285.105 C696.6412,302.573 774.6812,325.673 834.7122,343.442 " fill="none" id="tictactoe.distributed.dispatchers-to-tictactoe.controllers" style="stroke:#A80036;stroke-width:1.0;stroke-dasharray:7.0,7.0;"/><polygon fill="#A80036" points="839.7322,344.928,832.237,338.5388,834.9377,343.5094,829.9671,346.2101,839.7322,344.928" style="stroke:#A80036;stroke-width:1.0;"/><!--MD5=[b7310407d86ea056357ccca7cd04e118]
link tictactoe.distributed.dispatchers to java.util--><path d="M550.7652,285.324 C550.6052,345.876 554.1622,501.163 591.1242,624 C596.9722,643.4342 607.1882,663.6919 616.3062,679.6083 " fill="none" id="tictactoe.distributed.dispatchers-to-java.util" style="stroke:#A80036;stroke-width:1.0;stroke-dasharray:7.0,7.0;"/><polygon fill="#A80036" points="618.8432,683.9781,617.7827,674.1865,616.3323,679.6543,610.8646,678.2039,618.8432,683.9781" style="stroke:#A80036;stroke-width:1.0;"/><!--MD5=[f1ff7a5fd4bd330114cf79fdd2b626de]
link tictactoe.distributed.dispatchers to utils--><path codeLine="19" d="M604.7902,285.019 C665.9962,316.906 764.6182,377.258 819.1242,458 C841.2002,490.702 849.7402,536.131 853.0432,565.912 " fill="none" id="tictactoe.distributed.dispatchers-to-utils" style="stroke:#A80036;stroke-width:1.0;stroke-dasharray:7.0,7.0;"/><polygon fill="#A80036" points="853.5652,570.917,856.6102,561.5507,853.0466,565.944,848.6533,562.3804,853.5652,570.917" style="stroke:#A80036;stroke-width:1.0;"/><!--MD5=[241179430107c216ef5e5d25f87c5ece]
link tictactoe.distributed.dispatchers.errors to tictactoe.distributed.dispatchers--><path d="M350.3312,172.105 C390.9192,189.367 444.4392,212.128 486.0172,229.811 " fill="none" id="tictactoe.distributed.dispatchers.errors-to-tictactoe.distributed.dispatchers" style="stroke:#A80036;stroke-width:1.0;stroke-dasharray:7.0,7.0;"/><polygon fill="#A80036" points="490.7692,231.832,484.0528,224.6285,486.1681,229.875,480.9216,231.9903,490.7692,231.832" style="stroke:#A80036;stroke-width:1.0;"/><!--MD5=[ee2d1546299e79ac8c6c1a2d490aec42]
link tictactoe.distributed.dispatchers.errors to tictactoe.controllers--><path d="M458.5062,172.013 C556.6352,188.502 669.7472,210.773 715.1242,232 C749.2012,247.941 750.1742,263.613 781.1242,285 C811.0202,305.659 846.0842,326.421 874.2422,342.312 " fill="none" id="tictactoe.distributed.dispatchers.errors-to-tictactoe.controllers" style="stroke:#A80036;stroke-width:1.0;stroke-dasharray:7.0,7.0;"/><polygon fill="#A80036" points="878.7002,344.82,872.8178,336.9208,874.3426,342.3683,868.8951,343.893,878.7002,344.82" style="stroke:#A80036;stroke-width:1.0;"/><!--MD5=[ade12dcbcb8b208048e722e0b686ff1f]
link tictactoe.distributed.dispatchers.undoredo to tictactoe.distributed.dispatchers--><path d="M654.8132,172.245 C634.2812,189.126 607.4082,211.223 586.1642,228.69 " fill="none" id="tictactoe.distributed.dispatchers.undoredo-to-tictactoe.distributed.dispatchers" style="stroke:#A80036;stroke-width:1.0;stroke-dasharray:7.0,7.0;"/><polygon fill="#A80036" points="582.2652,231.895,591.7571,229.2676,586.127,228.719,586.6756,223.0888,582.2652,231.895" style="stroke:#A80036;stroke-width:1.0;"/><!--MD5=[6de17b07ad77692c0ff15aa7f265dc15]
link tictactoe.distributed.dispatchers.undoredo to tictactoe.controllers--><path d="M716.8972,172.198 C736.6672,188.922 762.7422,211.382 785.1242,232 C824.9762,268.712 869.3122,312.831 897.4382,341.25 " fill="none" id="tictactoe.distributed.dispatchers.undoredo-to-tictactoe.controllers" style="stroke:#A80036;stroke-width:1.0;stroke-dasharray:7.0,7.0;"/><polygon fill="#A80036" points="901.1262,344.981,897.6427,335.7688,897.6107,341.4255,891.954,341.3935,901.1262,344.981" style="stroke:#A80036;stroke-width:1.0;"/><!--MD5=[e6c0f23e74b5161a168046a341518387]
link tictactoe.models to java.util--><path d="M712.1442,511.196 C695.9952,552.775 664.2082,634.619 646.9492,679.0553 " fill="none" id="tictactoe.models-to-java.util" style="stroke:#A80036;stroke-width:1.0;stroke-dasharray:7.0,7.0;"/><polygon fill="#A80036" points="645.1212,683.76,652.108,676.8185,646.9313,679.0991,644.6506,673.9224,645.1212,683.76" style="stroke:#A80036;stroke-width:1.0;"/><!--MD5=[592d3e5213f5052c5b4a8146f8a66fb9]
link tictactoe.models to utils--><path codeLine="32" d="M752.9712,511.245 C773.7772,528.609 801.1932,551.489 822.3842,569.175 " fill="none" id="tictactoe.models-to-utils" style="stroke:#A80036;stroke-width:1.0;stroke-dasharray:7.0,7.0;"/><polygon fill="#A80036" points="826.2652,572.415,821.9194,563.5768,822.4268,569.2108,816.7927,569.7183,826.2652,572.415" style="stroke:#A80036;stroke-width:1.0;"/><!--MD5=[9624d8b6af0789eb8a4c95ebf6500f7c]
link utils to java.util--><path d="M826.3632,613.011 C790.0652,631.325 727.1022,663.0928 683.3842,685.1509 " fill="none" id="utils-to-java.util" style="stroke:#A80036;stroke-width:1.0;stroke-dasharray:7.0,7.0;"/><polygon fill="#A80036" points="678.6842,687.5223,688.5212,687.0384,683.148,685.2696,684.9168,679.8964,678.6842,687.5223" style="stroke:#A80036;stroke-width:1.0;"/><!--MD5=[02b60266fa6b6f1d17bc27ed61662f3a]
link utils to java.net--><path d="M868.3442,624.245 C876.7622,640.6359 887.7032,661.9433 896.5422,679.1562 " fill="none" id="utils-to-java.net" style="stroke:#A80036;stroke-width:1.0;stroke-dasharray:7.0,7.0;"/><polygon fill="#A80036" points="898.9762,683.895,898.4224,674.0617,896.6918,679.4474,891.3062,677.7168,898.9762,683.895" style="stroke:#A80036;stroke-width:1.0;"/><!--MD5=[e79504c030c2940e8dd8427e90ad9823]
link utils to java.io--><path d="M841.6722,624.245 C833.1072,640.6359 821.9742,661.9433 812.9802,679.1562 " fill="none" id="utils-to-java.io" style="stroke:#A80036;stroke-width:1.0;stroke-dasharray:7.0,7.0;"/><polygon fill="#A80036" points="810.5032,683.895,818.2165,677.7708,812.8188,679.4635,811.1261,674.0659,810.5032,683.895" style="stroke:#A80036;stroke-width:1.0;"/><!--MD5=[c868621a8ffa7a8485ccb8c9dbdaad11]
link tictactoe.controllers to java.util--><path d="M830.9362,386.85 C752.4632,400.856 650.1352,424.896 625.1242,458 C575.7462,523.357 604.0432,627.848 622.7372,679.1191 " fill="none" id="tictactoe.controllers-to-java.util" style="stroke:#A80036;stroke-width:1.0;stroke-dasharray:7.0,7.0;"/><polygon fill="#A80036" points="624.5132,683.9116,625.1364,674.0825,622.7757,679.2232,617.635,676.8625,624.5132,683.9116" style="stroke:#A80036;stroke-width:1.0;"/><!--MD5=[6ba7a600a15b805df477e9f81c752d07]
link tictactoe.views to tictactoe.controllers--><path d="M1077.4312,285.245 C1047.0992,302.336 1007.2782,324.773 976.1022,342.34 " fill="none" id="tictactoe.views-to-tictactoe.controllers" style="stroke:#A80036;stroke-width:1.0;stroke-dasharray:7.0,7.0;"/><polygon fill="#A80036" points="971.5672,344.895,981.3717,343.9618,975.9233,342.4405,977.4446,336.992,971.5672,344.895" style="stroke:#A80036;stroke-width:1.0;"/><!--MD5=[cd646adb6bbab9424d87d89ba9c34900]
link tictactoe.views to utils--><path d="M1109.3312,285.227 C1093.5612,313.787 1066.2932,360.763 1038.1242,398 C989.3632,462.46 923.2622,530.144 885.3042,567.462 " fill="none" id="tictactoe.views-to-utils" style="stroke:#A80036;stroke-width:1.0;stroke-dasharray:7.0,7.0;"/><polygon fill="#A80036" points="881.7202,570.978,890.9464,567.5318,885.2899,567.4769,885.3447,561.8203,881.7202,570.978" style="stroke:#A80036;stroke-width:1.0;"/><!--MD5=[7bb2a9b65be848998d0d94672f11676e]
@startuml
package tictactoe #DDDDDD { }
tictactoe .down.> tictactoe.views
tictactoe .down.> tictactoe.controllers

package tictactoe.controllers #DDDDDD { }
tictactoe.controllers .down.> tictactoe.models

tictactoe.controllers .down.> utils

package tictactoe.distributed #DDDDDD { }
tictactoe.distributed .down.> tictactoe.controllers
tictactoe.distributed .down.> tictactoe
tictactoe.distributed .down.> tictactoe.distributed.dispatchers

package tictactoe.distributed.dispatchers #DDDDDD { }
tictactoe.distributed.dispatchers .down.> tictactoe.controllers
package java.util{ }
tictactoe.distributed.dispatchers .down.> java.util
tictactoe.distributed.dispatchers .down.> utils

package tictactoe.distributed.dispatchers.errors #DDDDDD { }
tictactoe.distributed.dispatchers.errors .down.> tictactoe.distributed.dispatchers
tictactoe.distributed.dispatchers.errors .down.> tictactoe.controllers

package tictactoe.distributed.dispatchers.undoredo #DDDDDD { }
tictactoe.distributed.dispatchers.undoredo .down.> tictactoe.distributed.dispatchers
tictactoe.distributed.dispatchers.undoredo .down.> tictactoe.controllers

package tictactoe.models #DDDDDD { }
package java.util{ }
tictactoe.models .down.> java.util
tictactoe.models .down.> utils

package utils #DDDDDD { }
package java.util{ }
utils .down.> java.util
package java.net{ }
utils .down.> java.net
package java.io{ }
utils .down.> java.io
tictactoe.controllers .down.> java.util

package tictactoe.views #DDDDDD { }
tictactoe.views .down.> tictactoe.controllers
tictactoe.views .down.> utils
@enduml

PlantUML version 1.2020.23beta3(Unknown compile time)
(GPL source distribution)
Java Runtime: Java(TM) SE Runtime Environment
JVM: Java HotSpot(TM) 64-Bit Server VM
Default Encoding: UTF-8
Language: en
Country: US
--></g></svg>