<?xml version="1.0" encoding="UTF-8" standalone="no"?><svg xmlns="http://www.w3.org/2000/svg" xmlns:xlink="http://www.w3.org/1999/xlink" contentScriptType="application/ecmascript" contentStyleType="text/css" height="517px" preserveAspectRatio="none" style="width:569px;height:517px;" version="1.1" viewBox="0 0 569 517" width="569px" zoomAndPan="magnify"><defs><filter height="300%" id="fyeeil4x5bhpm" width="300%" x="-1" y="-1"><feGaussianBlur result="blurOut" stdDeviation="2.0"/><feColorMatrix in="blurOut" result="blurOut2" type="matrix" values="0 0 0 0 0 0 0 0 0 0 0 0 0 0 0 0 0 0 .4 0"/><feOffset dx="4.0" dy="4.0" in="blurOut2" result="blurOut3"/><feBlend in="SourceGraphic" in2="blurOut3" mode="normal"/></filter></defs><g><polygon fill="#DDDDDD" filter="url(#fyeeil4x5bhpm)" points="182.5,6,389.5,6,396.5,28.2969,403.5,28.2969,403.5,58.5938,182.5,58.5938,182.5,6" style="stroke:#000000;stroke-width:1.5;"/><line style="stroke:#000000;stroke-width:1.5;" x1="182.5" x2="396.5" y1="28.2969" y2="28.2969"/><text fill="#000000" font-family="sans-serif" font-size="14" font-weight="bold" lengthAdjust="spacingAndGlyphs" textLength="201" x="186.5" y="20.9951">usantatecla.mastermind</text><polygon fill="#DDDDDD" filter="url(#fyeeil4x5bhpm)" points="41.5,232,342.5,232,349.5,254.2969,356.5,254.2969,356.5,284.5938,41.5,284.5938,41.5,232" style="stroke:#000000;stroke-width:1.5;"/><line style="stroke:#000000;stroke-width:1.5;" x1="41.5" x2="349.5" y1="254.2969" y2="254.2969"/><text fill="#000000" font-family="sans-serif" font-size="14" font-weight="bold" lengthAdjust="spacingAndGlyphs" textLength="295" x="45.5" y="246.9951">usantatecla.mastermind.controllers</text><polygon fill="#DDDDDD" filter="url(#fyeeil4x5bhpm)" points="16,345,286,345,293,367.2969,300,367.2969,300,397.5938,16,397.5938,16,345" style="stroke:#000000;stroke-width:1.5;"/><line style="stroke:#000000;stroke-width:1.5;" x1="16" x2="293" y1="367.2969" y2="367.2969"/><text fill="#000000" font-family="sans-serif" font-size="14" font-weight="bold" lengthAdjust="spacingAndGlyphs" textLength="264" x="20" y="359.9951">usantatecla.mastermind.models</text><polygon fill="#FFFFFF" filter="url(#fyeeil4x5bhpm)" points="309.5,458,382.5,458,389.5,480.2969,396.5,480.2969,396.5,510.5938,309.5,510.5938,309.5,458" style="stroke:#000000;stroke-width:1.5;"/><line style="stroke:#000000;stroke-width:1.5;" x1="309.5" x2="389.5" y1="480.2969" y2="480.2969"/><text fill="#000000" font-family="sans-serif" font-size="14" font-weight="bold" lengthAdjust="spacingAndGlyphs" textLength="67" x="313.5" y="472.9951">java.util</text><polygon fill="#DDDDDD" filter="url(#fyeeil4x5bhpm)" points="392,232,538,232,545,254.2969,552,254.2969,552,284.5938,392,284.5938,392,232" style="stroke:#000000;stroke-width:1.5;"/><line style="stroke:#000000;stroke-width:1.5;" x1="392" x2="545" y1="254.2969" y2="254.2969"/><text fill="#000000" font-family="sans-serif" font-size="14" font-weight="bold" lengthAdjust="spacingAndGlyphs" textLength="140" x="396" y="246.9951">usantatecla.utils</text><polygon fill="#FFFFFF" filter="url(#fyeeil4x5bhpm)" points="111,458,191,458,198,480.2969,205,480.2969,205,510.5938,111,510.5938,111,458" style="stroke:#000000;stroke-width:1.5;"/><line style="stroke:#000000;stroke-width:1.5;" x1="111" x2="198" y1="480.2969" y2="480.2969"/><text fill="#000000" font-family="sans-serif" font-size="14" font-weight="bold" lengthAdjust="spacingAndGlyphs" textLength="74" x="115" y="472.9951">java.lang</text><polygon fill="#FFFFFF" filter="url(#fyeeil4x5bhpm)" points="477,345,537,345,544,367.2969,551,367.2969,551,397.5938,477,397.5938,477,345" style="stroke:#000000;stroke-width:1.5;"/><line style="stroke:#000000;stroke-width:1.5;" x1="477" x2="544" y1="367.2969" y2="367.2969"/><text fill="#000000" font-family="sans-serif" font-size="14" font-weight="bold" lengthAdjust="spacingAndGlyphs" textLength="54" x="481" y="359.9951">java.io</text><polygon fill="#DDDDDD" filter="url(#fyeeil4x5bhpm)" points="252.5,119,509.5,119,516.5,141.2969,523.5,141.2969,523.5,171.5938,252.5,171.5938,252.5,119" style="stroke:#000000;stroke-width:1.5;"/><line style="stroke:#000000;stroke-width:1.5;" x1="252.5" x2="516.5" y1="141.2969" y2="141.2969"/><text fill="#000000" font-family="sans-serif" font-size="14" font-weight="bold" lengthAdjust="spacingAndGlyphs" textLength="251" x="256.5" y="133.9951">usantatecla.mastermind.views</text><!--MD5=[666e057f4f4cec1308ce1e8b816302eb]
link usantatecla.mastermind.controllers to usantatecla.mastermind.models--><path codeLine="4" d="M189.491,285.245 C183.436,301.636 175.566,322.943 169.208,340.156 " fill="none" id="usantatecla.mastermind.controllers-to-usantatecla.mastermind.models" style="stroke:#A80036;stroke-width:1.0;stroke-dasharray:7.0,7.0;"/><polygon fill="#A80036" points="167.458,344.895,174.3293,337.8391,169.1909,340.2049,166.8251,335.0665,167.458,344.895" style="stroke:#A80036;stroke-width:1.0;"/><!--MD5=[4e19c524e2c69b87d36da5f0fb3d6b68]
link usantatecla.mastermind to usantatecla.mastermind.views--><path codeLine="5" d="M315.034,59.245 C329.302,75.916 347.923,97.673 362.782,115.035 " fill="none" id="usantatecla.mastermind-to-usantatecla.mastermind.views" style="stroke:#A80036;stroke-width:1.0;stroke-dasharray:7.0,7.0;"/><polygon fill="#A80036" points="366.086,118.895,363.2723,109.4566,362.8346,115.0965,357.1947,114.6588,366.086,118.895" style="stroke:#A80036;stroke-width:1.0;"/><!--MD5=[2a502374d5d26006479c2bc6dea56d42]
link usantatecla.mastermind to usantatecla.mastermind.controllers--><path d="M272.233,59.066 C259.881,75.374 244.766,97.431 235,119 C219.034,154.262 209.167,197.903 203.89,226.663 " fill="none" id="usantatecla.mastermind-to-usantatecla.mastermind.controllers" style="stroke:#A80036;stroke-width:1.0;stroke-dasharray:7.0,7.0;"/><polygon fill="#A80036" points="202.957,231.855,208.4856,223.7043,203.8412,226.9338,200.6117,222.2895,202.957,231.855" style="stroke:#A80036;stroke-width:1.0;"/><!--MD5=[58f66f5f60379dd70ef75cb976dcb215]
link usantatecla.mastermind.models to java.util--><path d="M203.227,398.245 C233.682,415.5805 273.798,438.4156 304.847,456.0896 " fill="none" id="usantatecla.mastermind.models-to-java.util" style="stroke:#A80036;stroke-width:1.0;stroke-dasharray:7.0,7.0;"/><polygon fill="#A80036" points="309.36,458.6585,303.5163,450.7307,305.0144,456.1855,299.5595,457.6837,309.36,458.6585" style="stroke:#A80036;stroke-width:1.0;"/><!--MD5=[f7f372d3543268b8cc298f05137e5dac]
link usantatecla.utils to java.io--><path d="M481.741,285.245 C487.943,301.636 496.006,322.943 502.519,340.156 " fill="none" id="usantatecla.utils-to-java.io" style="stroke:#A80036;stroke-width:1.0;stroke-dasharray:7.0,7.0;"/><polygon fill="#A80036" points="504.312,344.895,504.8676,335.0618,502.5423,340.2187,497.3855,337.8933,504.312,344.895" style="stroke:#A80036;stroke-width:1.0;"/><!--MD5=[62065a7815d5fa17da316178f240ad2f]
link usantatecla.utils to java.util--><path d="M458.349,285.196 C436.216,326.859 392.605,408.95 369.031,453.3247 " fill="none" id="usantatecla.utils-to-java.util" style="stroke:#A80036;stroke-width:1.0;stroke-dasharray:7.0,7.0;"/><polygon fill="#A80036" points="366.674,457.76,374.4289,451.6886,369.0198,453.3444,367.3639,447.9353,366.674,457.76" style="stroke:#A80036;stroke-width:1.0;"/><!--MD5=[630e558b56671c28f6ec272b5a73ed8b]
link usantatecla.mastermind.views to usantatecla.mastermind.controllers--><path d="M344.165,172.245 C315.062,189.336 276.859,211.773 246.948,229.34 " fill="none" id="usantatecla.mastermind.views-to-usantatecla.mastermind.controllers" style="stroke:#A80036;stroke-width:1.0;stroke-dasharray:7.0,7.0;"/><polygon fill="#A80036" points="242.598,231.895,252.3844,230.7875,246.9097,229.3634,248.3338,223.8887,242.598,231.895" style="stroke:#A80036;stroke-width:1.0;"/><!--MD5=[4379480885f901f79907d45b42c7ea73]
link usantatecla.mastermind.views to usantatecla.utils--><path d="M407.482,172.245 C419.993,188.776 436.287,210.308 449.37,227.597 " fill="none" id="usantatecla.mastermind.views-to-usantatecla.utils" style="stroke:#A80036;stroke-width:1.0;stroke-dasharray:7.0,7.0;"/><polygon fill="#A80036" points="452.623,231.895,450.3802,222.3049,449.6052,227.9084,444.0017,227.1334,452.623,231.895" style="stroke:#A80036;stroke-width:1.0;"/><!--MD5=[f0f5c60ae6545a157cc855487fe69163]
link usantatecla.mastermind.controllers to java.util--><path d="M249.031,285.024 C272.885,299.574 299.883,319.928 317,345 C339.247,377.586 347.746,423.043 350.993,452.8613 " fill="none" id="usantatecla.mastermind.controllers-to-java.util" style="stroke:#A80036;stroke-width:1.0;stroke-dasharray:7.0,7.0;"/><polygon fill="#A80036" points="351.505,457.8739,354.5689,448.5137,350.9965,452.8998,346.6104,449.3274,351.505,457.8739" style="stroke:#A80036;stroke-width:1.0;"/><!--MD5=[22d8ad86adb85664d64aebd2525ccdc3]
link usantatecla.mastermind.models to java.lang--><path d="M158,398.245 C158,414.4958 158,435.5795 158,452.7139 " fill="none" id="usantatecla.mastermind.models-to-java.lang" style="stroke:#A80036;stroke-width:1.0;stroke-dasharray:7.0,7.0;"/><polygon fill="#A80036" points="158,457.895,162,448.895,158,452.895,154,448.895,158,457.895" style="stroke:#A80036;stroke-width:1.0;"/><!--MD5=[2aaa5d362c73f5ffec0cfed7406ac7c9]
@startuml
package usantatecla.mastermind #DDDDDD { }

package usantatecla.mastermind.controllers #DDDDDD { }
usantatecla.mastermind.controllers .down.> usantatecla.mastermind.models
usantatecla.mastermind  .down.> usantatecla.mastermind.views
usantatecla.mastermind  .down.> usantatecla.mastermind.controllers

package usantatecla.mastermind.models #DDDDDD { }
package java.util{ }
usantatecla.mastermind.models .down.> java.util

package usantatecla.utils #DDDDDD { }
package java.lang { }
package java.io{ }
usantatecla.utils .down.> java.io
usantatecla.utils .down.> java.util

package usantatecla.mastermind.views #DDDDDD { }
usantatecla.mastermind.views .down.> usantatecla.mastermind.controllers

usantatecla.mastermind.views .down.> usantatecla.utils

usantatecla.mastermind.controllers .down.> java.util
usantatecla.mastermind.models .down.> java.lang
@enduml

PlantUML version 1.2020.22beta3(Unknown compile time)
(GPL source distribution)
Java Runtime: Java(TM) SE Runtime Environment
JVM: Java HotSpot(TM) 64-Bit Server VM
Default Encoding: UTF-8
Language: en
Country: US
--></g></svg>