<?xml version="1.0" encoding="UTF-8" standalone="no"?><svg xmlns="http://www.w3.org/2000/svg" xmlns:xlink="http://www.w3.org/1999/xlink" contentScriptType="application/ecmascript" contentStyleType="text/css" height="284px" preserveAspectRatio="none" style="width:828px;height:284px;" version="1.1" viewBox="0 0 828 284" width="828px" zoomAndPan="magnify"><defs><filter height="300%" id="fvn4yxisni6m7" width="300%" x="-1" y="-1"><feGaussianBlur result="blurOut" stdDeviation="2.0"/><feColorMatrix in="blurOut" result="blurOut2" type="matrix" values="0 0 0 0 0 0 0 0 0 0 0 0 0 0 0 0 0 0 .4 0"/><feOffset dx="4.0" dy="4.0" in="blurOut2" result="blurOut3"/><feBlend in="SourceGraphic" in2="blurOut3" mode="normal"/></filter></defs><g><!--MD5=[9be0839337cfdab5d118a2e29cf0a8c4]
cluster usantatecla.mastermind--><polygon fill="#FFFFFF" filter="url(#fvn4yxisni6m7)" points="16,6,223,6,230,28.2969,233,28.2969,233,277,16,277,16,6" style="stroke:#000000;stroke-width:1.5;"/><line style="stroke:#000000;stroke-width:1.5;" x1="16" x2="230" y1="28.2969" y2="28.2969"/><text fill="#000000" font-family="sans-serif" font-size="14" font-weight="bold" lengthAdjust="spacingAndGlyphs" textLength="201" x="20" y="20.9951">usantatecla.mastermind</text><!--MD5=[904099970a9cea29a476bd38c8d887ee]
class usantatecla.mastermind.Mastermind--><rect codeLine="5" fill="#FEFECE" filter="url(#fvn4yxisni6m7)" height="86.4141" id="usantatecla.mastermind.Mastermind" style="stroke:#A80036;stroke-width:1.5;" width="157" x="57.5" y="41"/><ellipse cx="96.8" cy="57" fill="#A9DCDF" rx="11" ry="11" style="stroke:#A80036;stroke-width:1.0;"/><path d="M98.8781,58.8125 L99.2688,59.7969 L98.8781,59.7969 C98.425,59.7969 98.3156,59.8125 98.1594,59.9219 C97.9094,60.0781 97.7531,60.3594 97.7531,60.6563 C97.7531,60.9219 97.8938,61.1719 98.1125,61.3281 C98.2531,61.4531 98.4563,61.5 98.8781,61.5 L101.2375,61.5 C101.5969,61.5 101.8156,61.4688 101.9563,61.375 C102.2063,61.2344 102.3625,60.9375 102.3625,60.6563 C102.3625,60.375 102.2219,60.125 102.0031,59.9688 C101.8313,59.8281 101.675,59.7969 101.2063,59.7969 L97.8156,51.5938 L94.1438,51.5938 C93.6906,51.5938 93.5656,51.6094 93.4094,51.7031 C93.1594,51.875 93.0031,52.1563 93.0031,52.4375 C93.0031,52.7188 93.1438,52.9688 93.3625,53.1406 C93.5344,53.25 93.7063,53.2813 94.1438,53.2813 L95.2219,53.2813 L92.5813,59.7969 C92.1594,59.7969 92.0031,59.8125 91.8469,59.9219 C91.5969,60.0781 91.4406,60.3594 91.4406,60.6563 C91.4406,61.2188 91.8156,61.5 92.5656,61.5 L94.8313,61.5 C95.1906,61.5 95.4094,61.4688 95.5344,61.375 C95.8,61.2344 95.9406,60.9375 95.9406,60.6563 C95.9406,60.375 95.8156,60.125 95.5969,59.9531 C95.425,59.8281 95.2844,59.7969 94.8313,59.7969 L94.4406,59.7969 L94.8313,58.8125 L98.8781,58.8125 Z M98.175,57.1094 L95.5031,57.1094 L96.8469,53.8438 L98.175,57.1094 Z " fill="#000000"/><text fill="#000000" font-family="sans-serif" font-size="12" font-style="italic" lengthAdjust="spacingAndGlyphs" textLength="71" x="116.2" y="61.1543">Mastermind</text><line style="stroke:#A80036;stroke-width:1.5;" x1="58.5" x2="213.5" y1="73" y2="73"/><line style="stroke:#A80036;stroke-width:1.5;" x1="58.5" x2="213.5" y1="81" y2="81"/><polygon fill="#FFFF44" points="68.5,87,72.5,91,68.5,95,64.5,91" style="stroke:#B38D22;stroke-width:1.0;"/><text fill="#000000" font-family="sans-serif" font-size="11" lengthAdjust="spacingAndGlyphs" textLength="74" x="77.5" y="95.2104">Mastermind()</text><polygon fill="#FFFF44" points="68.5,99.8047,72.5,103.8047,68.5,107.8047,64.5,103.8047" style="stroke:#B38D22;stroke-width:1.0;"/><text fill="#000000" font-family="sans-serif" font-size="11" lengthAdjust="spacingAndGlyphs" textLength="131" x="77.5" y="108.0151">isStandalone():boolean</text><polygon fill="#FFFF44" points="68.5,112.6094,72.5,116.6094,68.5,120.6094,64.5,116.6094" style="stroke:#B38D22;stroke-width:1.0;"/><text fill="#000000" font-family="sans-serif" font-size="11" lengthAdjust="spacingAndGlyphs" textLength="32" x="77.5" y="120.8198">play()</text><!--MD5=[1bc28a7a7ec533a78b649c3f281a8ca6]
class usantatecla.mastermind.MastermindStandalone--><rect codeLine="14" fill="#FEFECE" filter="url(#fvn4yxisni6m7)" height="73.6094" id="usantatecla.mastermind.MastermindStandalone" style="stroke:#A80036;stroke-width:1.5;" width="169" x="45.5" y="187"/><ellipse cx="60.5" cy="203" fill="#ADD1B2" rx="11" ry="11" style="stroke:#A80036;stroke-width:1.0;"/><path d="M62.8438,198.6719 C61.9063,198.2344 61.3125,198.0938 60.4375,198.0938 C57.8125,198.0938 55.8125,200.1719 55.8125,202.8906 L55.8125,204.0156 C55.8125,206.5938 57.9219,208.4844 60.8125,208.4844 C62.0313,208.4844 63.1875,208.1875 63.9375,207.6406 C64.5156,207.2344 64.8438,206.7813 64.8438,206.3906 C64.8438,205.9375 64.4531,205.5469 63.9844,205.5469 C63.7656,205.5469 63.5625,205.625 63.375,205.8125 C62.9219,206.2969 62.9219,206.2969 62.7344,206.3906 C62.3125,206.6563 61.625,206.7813 60.8594,206.7813 C58.8125,206.7813 57.5156,205.6875 57.5156,203.9844 L57.5156,202.8906 C57.5156,201.1094 58.7656,199.7969 60.5,199.7969 C61.0781,199.7969 61.6875,199.9531 62.1563,200.2031 C62.6406,200.4844 62.8125,200.7031 62.9063,201.1094 C62.9688,201.5156 63,201.6406 63.1406,201.7656 C63.2813,201.9063 63.5156,202.0156 63.7344,202.0156 C64,202.0156 64.2656,201.875 64.4375,201.6563 C64.5469,201.5 64.5781,201.3125 64.5781,200.8906 L64.5781,199.4688 C64.5781,199.0313 64.5625,198.9063 64.4688,198.75 C64.3125,198.4844 64.0313,198.3438 63.7344,198.3438 C63.4375,198.3438 63.2344,198.4375 63.0156,198.75 L62.8438,198.6719 Z " fill="#000000"/><text fill="#000000" font-family="sans-serif" font-size="12" lengthAdjust="spacingAndGlyphs" textLength="137" x="74.5" y="207.1543">MastermindStandalone</text><line style="stroke:#A80036;stroke-width:1.5;" x1="46.5" x2="213.5" y1="219" y2="219"/><line style="stroke:#A80036;stroke-width:1.5;" x1="46.5" x2="213.5" y1="227" y2="227"/><polygon fill="#FFFF44" points="56.5,233,60.5,237,56.5,241,52.5,237" style="stroke:#B38D22;stroke-width:1.0;"/><text fill="#000000" font-family="sans-serif" font-size="11" lengthAdjust="spacingAndGlyphs" textLength="131" x="65.5" y="241.2104">isStandalone():boolean</text><ellipse cx="56.5" cy="250.8047" fill="#84BE84" rx="3" ry="3" style="stroke:#038048;stroke-width:1.0;"/><text fill="#000000" font-family="sans-serif" font-size="11" lengthAdjust="spacingAndGlyphs" text-decoration="underline" textLength="77" x="65.5" y="254.0151">main(String[])</text><!--MD5=[42fa18dda7351a0ae87d9497de925436]
class Logic--><rect codeLine="1" fill="#FEFECE" filter="url(#fvn4yxisni6m7)" height="67.9063" id="Logic" style="stroke:#A80036;stroke-width:1.5;" width="174" x="250" y="190"/><ellipse cx="265" cy="215.9531" fill="#ADD1B2" rx="11" ry="11" style="stroke:#A80036;stroke-width:1.0;"/><path d="M267.3438,211.625 C266.4063,211.1875 265.8125,211.0469 264.9375,211.0469 C262.3125,211.0469 260.3125,213.125 260.3125,215.8438 L260.3125,216.9688 C260.3125,219.5469 262.4219,221.4375 265.3125,221.4375 C266.5313,221.4375 267.6875,221.1406 268.4375,220.5938 C269.0156,220.1875 269.3438,219.7344 269.3438,219.3438 C269.3438,218.8906 268.9531,218.5 268.4844,218.5 C268.2656,218.5 268.0625,218.5781 267.875,218.7656 C267.4219,219.25 267.4219,219.25 267.2344,219.3438 C266.8125,219.6094 266.125,219.7344 265.3594,219.7344 C263.3125,219.7344 262.0156,218.6406 262.0156,216.9375 L262.0156,215.8438 C262.0156,214.0625 263.2656,212.75 265,212.75 C265.5781,212.75 266.1875,212.9063 266.6563,213.1563 C267.1406,213.4375 267.3125,213.6563 267.4063,214.0625 C267.4688,214.4688 267.5,214.5938 267.6406,214.7188 C267.7813,214.8594 268.0156,214.9688 268.2344,214.9688 C268.5,214.9688 268.7656,214.8281 268.9375,214.6094 C269.0469,214.4531 269.0781,214.2656 269.0781,213.8438 L269.0781,212.4219 C269.0781,211.9844 269.0625,211.8594 268.9688,211.7031 C268.8125,211.4375 268.5313,211.2969 268.2344,211.2969 C267.9375,211.2969 267.7344,211.3906 267.5156,211.7031 L267.3438,211.625 Z " fill="#000000"/><text fill="#000000" font-family="sans-serif" font-size="12" lengthAdjust="spacingAndGlyphs" textLength="71" x="314.5" y="206.1387">usantatecla.</text><text fill="#000000" font-family="sans-serif" font-size="12" lengthAdjust="spacingAndGlyphs" textLength="142" x="279" y="220.1074">mastermind.controllers.</text><text fill="#000000" font-family="sans-serif" font-size="12" lengthAdjust="spacingAndGlyphs" textLength="32" x="334" y="234.0762">Logic</text><line style="stroke:#A80036;stroke-width:1.5;" x1="251" x2="423" y1="241.9063" y2="241.9063"/><line style="stroke:#A80036;stroke-width:1.5;" x1="251" x2="423" y1="249.9063" y2="249.9063"/><!--MD5=[c045e12321b83266d36d22b9096c24ea]
class View--><rect codeLine="2" fill="#FEFECE" filter="url(#fvn4yxisni6m7)" height="67.9063" id="View" style="stroke:#A80036;stroke-width:1.5;" width="144" x="459" y="190"/><ellipse cx="474" cy="215.9531" fill="#ADD1B2" rx="11" ry="11" style="stroke:#A80036;stroke-width:1.0;"/><path d="M476.3438,211.625 C475.4063,211.1875 474.8125,211.0469 473.9375,211.0469 C471.3125,211.0469 469.3125,213.125 469.3125,215.8438 L469.3125,216.9688 C469.3125,219.5469 471.4219,221.4375 474.3125,221.4375 C475.5313,221.4375 476.6875,221.1406 477.4375,220.5938 C478.0156,220.1875 478.3438,219.7344 478.3438,219.3438 C478.3438,218.8906 477.9531,218.5 477.4844,218.5 C477.2656,218.5 477.0625,218.5781 476.875,218.7656 C476.4219,219.25 476.4219,219.25 476.2344,219.3438 C475.8125,219.6094 475.125,219.7344 474.3594,219.7344 C472.3125,219.7344 471.0156,218.6406 471.0156,216.9375 L471.0156,215.8438 C471.0156,214.0625 472.2656,212.75 474,212.75 C474.5781,212.75 475.1875,212.9063 475.6563,213.1563 C476.1406,213.4375 476.3125,213.6563 476.4063,214.0625 C476.4688,214.4688 476.5,214.5938 476.6406,214.7188 C476.7813,214.8594 477.0156,214.9688 477.2344,214.9688 C477.5,214.9688 477.7656,214.8281 477.9375,214.6094 C478.0469,214.4531 478.0781,214.2656 478.0781,213.8438 L478.0781,212.4219 C478.0781,211.9844 478.0625,211.8594 477.9688,211.7031 C477.8125,211.4375 477.5313,211.2969 477.2344,211.2969 C476.9375,211.2969 476.7344,211.3906 476.5156,211.7031 L476.3438,211.625 Z " fill="#000000"/><text fill="#000000" font-family="sans-serif" font-size="12" lengthAdjust="spacingAndGlyphs" textLength="71" x="508.5" y="206.1387">usantatecla.</text><text fill="#000000" font-family="sans-serif" font-size="12" lengthAdjust="spacingAndGlyphs" textLength="112" x="488" y="220.1074">mastermind.views.</text><text fill="#000000" font-family="sans-serif" font-size="12" lengthAdjust="spacingAndGlyphs" textLength="29" x="529.5" y="234.0762">View</text><line style="stroke:#A80036;stroke-width:1.5;" x1="460" x2="602" y1="241.9063" y2="241.9063"/><line style="stroke:#A80036;stroke-width:1.5;" x1="460" x2="602" y1="249.9063" y2="249.9063"/><!--MD5=[c044a56b44e9ed3c506c87887737c8ac]
class AcceptorController--><rect codeLine="3" fill="#FEFECE" filter="url(#fvn4yxisni6m7)" height="67.9063" id="AcceptorController" style="stroke:#A80036;stroke-width:1.5;" width="176" x="638" y="190"/><ellipse cx="653" cy="215.9531" fill="#B4A7E5" rx="11" ry="11" style="stroke:#A80036;stroke-width:1.0;"/><path d="M653.9531,212.7344 L655.6719,212.7344 C656.0625,212.7344 656.25,212.7031 656.375,212.625 C656.6406,212.4688 656.7813,212.1875 656.7813,211.8906 C656.7813,211.625 656.6719,211.3594 656.4375,211.1875 C656.2656,211.0781 656.125,211.0469 655.6719,211.0469 L650.5313,211.0469 C650.0938,211.0469 649.9688,211.0625 649.8125,211.1563 C649.5625,211.3125 649.4063,211.6094 649.4063,211.8906 C649.4063,212.1719 649.5469,212.4219 649.7656,212.5938 C649.9219,212.7031 650.1094,212.7344 650.5313,212.7344 L652.25,212.7344 L652.25,219.25 L650.5313,219.25 C650.0938,219.25 649.9688,219.2656 649.8125,219.375 C649.5625,219.5313 649.4063,219.8125 649.4063,220.1094 C649.4063,220.3594 649.5469,220.625 649.7656,220.7813 C649.9219,220.9063 650.125,220.9531 650.5313,220.9531 L655.6719,220.9531 C656.4219,220.9531 656.7813,220.6719 656.7813,220.1094 C656.7813,219.8281 656.6719,219.5781 656.4375,219.4063 C656.2656,219.2813 656.125,219.25 655.6719,219.25 L653.9531,219.25 L653.9531,212.7344 Z " fill="#000000"/><text fill="#000000" font-family="sans-serif" font-size="12" font-style="italic" lengthAdjust="spacingAndGlyphs" textLength="74" x="702" y="206.1387">usantatecla.</text><text fill="#000000" font-family="sans-serif" font-size="12" font-style="italic" lengthAdjust="spacingAndGlyphs" textLength="144" x="667" y="220.1074">mastermind.controllers.</text><text fill="#000000" font-family="sans-serif" font-size="12" font-style="italic" lengthAdjust="spacingAndGlyphs" textLength="112" x="683" y="234.0762">AcceptorController</text><line style="stroke:#A80036;stroke-width:1.5;" x1="639" x2="813" y1="241.9063" y2="241.9063"/><line style="stroke:#A80036;stroke-width:1.5;" x1="639" x2="813" y1="249.9063" y2="249.9063"/><!--MD5=[a5f8ce13268a0ab6e1eb93d1cfb2a7ef]
link usantatecla.mastermind.Mastermind to View--><path codeLine="10" d="M226.1928,113.4245 C226.1928,113.4245 370.502,160.653 442,187 C443.454,187.536 444.92,188.08 446.394,188.632 " fill="none" id="usantatecla.mastermind.Mastermind-View" style="stroke:#A80036;stroke-width:1.0;"/><polygon fill="#A80036" points="458.774,193.3445,451.7855,186.4047,454.101,191.566,448.9398,193.8815,458.774,193.3445" style="stroke:#A80036;stroke-width:1.0;"/><line style="stroke:#A80036;stroke-width:1.0;" x1="454.101" x2="446.6245" y1="191.566" y2="188.7195"/><polygon fill="#A80036" points="214.767,109.757,219.2574,115.3994,226.1928,113.4245,221.7024,107.7821,214.767,109.757" style="stroke:#A80036;stroke-width:1.0;"/><!--MD5=[247e47791acc2ed78b9d73006ffb100f]
link usantatecla.mastermind.Mastermind to Logic--><path codeLine="11" d="M207.2926,133.9449 C207.2926,133.9449 256.123,167.472 277.952,182.46 " fill="none" id="usantatecla.mastermind.Mastermind-Logic" style="stroke:#A80036;stroke-width:1.0;"/><polygon fill="#A80036" points="288.72,189.852,283.5647,181.4602,284.5981,187.0218,279.0364,188.0552,288.72,189.852" style="stroke:#A80036;stroke-width:1.0;"/><line style="stroke:#A80036;stroke-width:1.0;" x1="284.5981" x2="278.0025" y1="187.0218" y2="182.494"/><polygon fill="#A80036" points="197.399,127.154,200.0822,133.8473,207.2926,133.9449,204.6094,127.2516,197.399,127.154" style="stroke:#A80036;stroke-width:1.0;"/><!--MD5=[470a0ce6f6f6cc1862d1bbecef9c7c8e]
link usantatecla.mastermind.Mastermind to AcceptorController--><path codeLine="12" d="M214.832,98.496 C311.39,115.731 479.564,148.04 621,187 C624.854,188.062 628.772,189.187 632.72,190.36 " fill="none" id="usantatecla.mastermind.Mastermind-to-AcceptorController" style="stroke:#A80036;stroke-width:1.0;stroke-dasharray:7.0,7.0;"/><polygon fill="#A80036" points="637.733,191.869,630.2697,185.4426,632.9456,190.4265,627.9617,193.1024,637.733,191.869" style="stroke:#A80036;stroke-width:1.0;"/><!--MD5=[e26ac7c57450abe5e7e8165292d087e5]
reverse link usantatecla.mastermind.Mastermind to usantatecla.mastermind.MastermindStandalone--><path codeLine="18" d="M133.298,147.145 C132.71,160.677 132.106,174.564 131.578,186.697 " fill="none" id="usantatecla.mastermind.Mastermind-backto-usantatecla.mastermind.MastermindStandalone" style="stroke:#A80036;stroke-width:1.0;"/><polygon fill="none" points="126.305,146.831,134.167,127.154,140.292,147.44,126.305,146.831" style="stroke:#A80036;stroke-width:1.0;"/><!--MD5=[30c1e5ee044f7dcf21c291d70ee3bf0c]
@startuml
class Logic as "usantatecla.\nmastermind.controllers.\nLogic"
class View as "usantatecla.\nmastermind.views.\nView"
interface AcceptorController as "usantatecla.\nmastermind.controllers.\nAcceptorController"

abstract class  usantatecla.mastermind.Mastermind{
    # Mastermind()
    # isStandalone():boolean
    # play()
}
usantatecla.mastermind.Mastermind *-down-> View
usantatecla.mastermind.Mastermind *-down-> Logic
usantatecla.mastermind.Mastermind .down.> AcceptorController

class  usantatecla.mastermind.MastermindStandalone{
    # isStandalone():boolean
    + {static} main(String[])
}
usantatecla.mastermind.Mastermind <|-down- usantatecla.mastermind.MastermindStandalone
@enduml

PlantUML version 1.2020.23beta3(Unknown compile time)
(GPL source distribution)
Java Runtime: Java(TM) SE Runtime Environment
JVM: Java HotSpot(TM) 64-Bit Server VM
Default Encoding: UTF-8
Language: en
Country: US
--></g></svg>