<?xml version="1.0" encoding="UTF-8" standalone="no"?><svg xmlns="http://www.w3.org/2000/svg" xmlns:xlink="http://www.w3.org/1999/xlink" contentScriptType="application/ecmascript" contentStyleType="text/css" height="468px" preserveAspectRatio="none" style="width:592px;height:468px;" version="1.1" viewBox="0 0 592 468" width="592px" zoomAndPan="magnify"><defs><filter height="300%" id="f17f2s0pdjju3o" width="300%" x="-1" y="-1"><feGaussianBlur result="blurOut" stdDeviation="2.0"/><feColorMatrix in="blurOut" result="blurOut2" type="matrix" values="0 0 0 0 0 0 0 0 0 0 0 0 0 0 0 0 0 0 .4 0"/><feOffset dx="4.0" dy="4.0" in="blurOut2" result="blurOut3"/><feBlend in="SourceGraphic" in2="blurOut3" mode="normal"/></filter></defs><g><!--MD5=[dcf366c983d51d1154f2813b51268b00]
cluster usantatecla.mastermind.distributed--><polygon fill="#FFFFFF" filter="url(#f17f2s0pdjju3o)" points="202.5,86,505.5,86,512.5,108.2969,575.5,108.2969,575.5,357,202.5,357,202.5,86" style="stroke:#000000;stroke-width:1.5;"/><line style="stroke:#000000;stroke-width:1.5;" x1="202.5" x2="512.5" y1="108.2969" y2="108.2969"/><text fill="#000000" font-family="sans-serif" font-size="14" font-weight="bold" lengthAdjust="spacingAndGlyphs" textLength="297" x="206.5" y="100.9951">usantatecla.mastermind.distributed</text><!--MD5=[b49e30d90544e91255004b6d0c958df1]
class usantatecla.mastermind.distributed.LogicServer--><rect codeLine="5" fill="#FEFECE" filter="url(#f17f2s0pdjju3o)" height="73.6094" id="usantatecla.mastermind.distributed.LogicServer" style="stroke:#A80036;stroke-width:1.5;" width="253" x="219" y="267"/><ellipse cx="304.75" cy="283" fill="#ADD1B2" rx="11" ry="11" style="stroke:#A80036;stroke-width:1.0;"/><path d="M307.0938,278.6719 C306.1563,278.2344 305.5625,278.0938 304.6875,278.0938 C302.0625,278.0938 300.0625,280.1719 300.0625,282.8906 L300.0625,284.0156 C300.0625,286.5938 302.1719,288.4844 305.0625,288.4844 C306.2813,288.4844 307.4375,288.1875 308.1875,287.6406 C308.7656,287.2344 309.0938,286.7813 309.0938,286.3906 C309.0938,285.9375 308.7031,285.5469 308.2344,285.5469 C308.0156,285.5469 307.8125,285.625 307.625,285.8125 C307.1719,286.2969 307.1719,286.2969 306.9844,286.3906 C306.5625,286.6563 305.875,286.7813 305.1094,286.7813 C303.0625,286.7813 301.7656,285.6875 301.7656,283.9844 L301.7656,282.8906 C301.7656,281.1094 303.0156,279.7969 304.75,279.7969 C305.3281,279.7969 305.9375,279.9531 306.4063,280.2031 C306.8906,280.4844 307.0625,280.7031 307.1563,281.1094 C307.2188,281.5156 307.25,281.6406 307.3906,281.7656 C307.5313,281.9063 307.7656,282.0156 307.9844,282.0156 C308.25,282.0156 308.5156,281.875 308.6875,281.6563 C308.7969,281.5 308.8281,281.3125 308.8281,280.8906 L308.8281,279.4688 C308.8281,279.0313 308.8125,278.9063 308.7188,278.75 C308.5625,278.4844 308.2813,278.3438 307.9844,278.3438 C307.6875,278.3438 307.4844,278.4375 307.2656,278.75 L307.0938,278.6719 Z " fill="#000000"/><text fill="#000000" font-family="sans-serif" font-size="12" lengthAdjust="spacingAndGlyphs" textLength="73" x="325.25" y="287.1543">LogicServer</text><line style="stroke:#A80036;stroke-width:1.5;" x1="220" x2="471" y1="299" y2="299"/><line style="stroke:#A80036;stroke-width:1.5;" x1="220" x2="471" y1="307" y2="307"/><ellipse cx="230" cy="318" fill="#84BE84" rx="3" ry="3" style="stroke:#038048;stroke-width:1.0;"/><text fill="#000000" font-family="sans-serif" font-size="11" lengthAdjust="spacingAndGlyphs" textLength="123" x="239" y="321.2104">LogicServer(Boolean)</text><ellipse cx="230" cy="330.8047" fill="#84BE84" rx="3" ry="3" style="stroke:#038048;stroke-width:1.0;"/><text fill="#000000" font-family="sans-serif" font-size="11" lengthAdjust="spacingAndGlyphs" textLength="227" x="239" y="334.0151">createDispatchers(DispatcherPrototype)</text><!--MD5=[ce115887f6079acedc05e3fbdc206973]
class usantatecla.mastermind.distributed.ConsoleMastermindClientdClient--><rect codeLine="13" fill="#FEFECE" filter="url(#f17f2s0pdjju3o)" height="73.6094" id="usantatecla.mastermind.distributed.ConsoleMastermindClient" style="stroke:#A80036;stroke-width:1.5;" width="162" x="397.5" y="127"/><ellipse cx="424.65" cy="143" fill="#ADD1B2" rx="11" ry="11" style="stroke:#A80036;stroke-width:1.0;"/><path d="M426.9938,138.6719 C426.0563,138.2344 425.4625,138.0938 424.5875,138.0938 C421.9625,138.0938 419.9625,140.1719 419.9625,142.8906 L419.9625,144.0156 C419.9625,146.5938 422.0719,148.4844 424.9625,148.4844 C426.1813,148.4844 427.3375,148.1875 428.0875,147.6406 C428.6656,147.2344 428.9938,146.7813 428.9938,146.3906 C428.9938,145.9375 428.6031,145.5469 428.1344,145.5469 C427.9156,145.5469 427.7125,145.625 427.525,145.8125 C427.0719,146.2969 427.0719,146.2969 426.8844,146.3906 C426.4625,146.6563 425.775,146.7813 425.0094,146.7813 C422.9625,146.7813 421.6656,145.6875 421.6656,143.9844 L421.6656,142.8906 C421.6656,141.1094 422.9156,139.7969 424.65,139.7969 C425.2281,139.7969 425.8375,139.9531 426.3063,140.2031 C426.7906,140.4844 426.9625,140.7031 427.0563,141.1094 C427.1188,141.5156 427.15,141.6406 427.2906,141.7656 C427.4313,141.9063 427.6656,142.0156 427.8844,142.0156 C428.15,142.0156 428.4156,141.875 428.5875,141.6563 C428.6969,141.5 428.7281,141.3125 428.7281,140.8906 L428.7281,139.4688 C428.7281,139.0313 428.7125,138.9063 428.6188,138.75 C428.4625,138.4844 428.1813,138.3438 427.8844,138.3438 C427.5875,138.3438 427.3844,138.4375 427.1656,138.75 L426.9938,138.6719 Z " fill="#000000"/><text fill="#000000" font-family="sans-serif" font-size="12" lengthAdjust="spacingAndGlyphs" textLength="103" x="441.35" y="147.1543">MastermindClient</text><line style="stroke:#A80036;stroke-width:1.5;" x1="398.5" x2="558.5" y1="159" y2="159"/><line style="stroke:#A80036;stroke-width:1.5;" x1="398.5" x2="558.5" y1="167" y2="167"/><polygon fill="#FFFF44" points="408.5,173,412.5,177,408.5,181,404.5,177" style="stroke:#B38D22;stroke-width:1.0;"/><text fill="#000000" font-family="sans-serif" font-size="11" lengthAdjust="spacingAndGlyphs" textLength="136" x="417.5" y="181.2104">isStandalone(): Boolean</text><ellipse cx="408.5" cy="190.8047" fill="#84BE84" rx="3" ry="3" style="stroke:#038048;stroke-width:1.0;"/><text fill="#000000" font-family="sans-serif" font-size="11" lengthAdjust="spacingAndGlyphs" text-decoration="underline" textLength="77" x="417.5" y="194.0151">main(String[])</text><!--MD5=[71908a60e4077a59789544f0691c2128]
class usantatecla.mastermind.distributed.MastermindServer--><rect codeLine="19" fill="#FEFECE" filter="url(#f17f2s0pdjju3o)" height="86.4141" id="usantatecla.mastermind.distributed.MastermindServer" style="stroke:#A80036;stroke-width:1.5;" width="143" x="219" y="121"/><ellipse cx="234" cy="137" fill="#ADD1B2" rx="11" ry="11" style="stroke:#A80036;stroke-width:1.0;"/><path d="M236.3438,132.6719 C235.4063,132.2344 234.8125,132.0938 233.9375,132.0938 C231.3125,132.0938 229.3125,134.1719 229.3125,136.8906 L229.3125,138.0156 C229.3125,140.5938 231.4219,142.4844 234.3125,142.4844 C235.5313,142.4844 236.6875,142.1875 237.4375,141.6406 C238.0156,141.2344 238.3438,140.7813 238.3438,140.3906 C238.3438,139.9375 237.9531,139.5469 237.4844,139.5469 C237.2656,139.5469 237.0625,139.625 236.875,139.8125 C236.4219,140.2969 236.4219,140.2969 236.2344,140.3906 C235.8125,140.6563 235.125,140.7813 234.3594,140.7813 C232.3125,140.7813 231.0156,139.6875 231.0156,137.9844 L231.0156,136.8906 C231.0156,135.1094 232.2656,133.7969 234,133.7969 C234.5781,133.7969 235.1875,133.9531 235.6563,134.2031 C236.1406,134.4844 236.3125,134.7031 236.4063,135.1094 C236.4688,135.5156 236.5,135.6406 236.6406,135.7656 C236.7813,135.9063 237.0156,136.0156 237.2344,136.0156 C237.5,136.0156 237.7656,135.875 237.9375,135.6563 C238.0469,135.5 238.0781,135.3125 238.0781,134.8906 L238.0781,133.4688 C238.0781,133.0313 238.0625,132.9063 237.9688,132.75 C237.8125,132.4844 237.5313,132.3438 237.2344,132.3438 C236.9375,132.3438 236.7344,132.4375 236.5156,132.75 L236.3438,132.6719 Z " fill="#000000"/><text fill="#000000" font-family="sans-serif" font-size="12" lengthAdjust="spacingAndGlyphs" textLength="111" x="248" y="141.1543">MastermindServer</text><line style="stroke:#A80036;stroke-width:1.5;" x1="220" x2="361" y1="153" y2="153"/><line style="stroke:#A80036;stroke-width:1.5;" x1="220" x2="361" y1="161" y2="161"/><rect fill="#F24D5C" height="6" style="stroke:#C82930;stroke-width:1.0;" width="6" x="227" y="169"/><text fill="#000000" font-family="sans-serif" font-size="11" lengthAdjust="spacingAndGlyphs" textLength="113" x="239" y="175.2104">MastermindServer()</text><rect fill="#F24D5C" height="6" style="stroke:#C82930;stroke-width:1.0;" width="6" x="227" y="181.8047"/><text fill="#000000" font-family="sans-serif" font-size="11" lengthAdjust="spacingAndGlyphs" textLength="41" x="239" y="188.0151">serve()</text><ellipse cx="230" cy="197.6094" fill="#84BE84" rx="3" ry="3" style="stroke:#038048;stroke-width:1.0;"/><text fill="#000000" font-family="sans-serif" font-size="11" lengthAdjust="spacingAndGlyphs" text-decoration="underline" textLength="77" x="239" y="200.8198">main(String[])</text><!--MD5=[42fa18dda7351a0ae87d9497de925436]
class Logic--><rect codeLine="1" fill="#FEFECE" filter="url(#f17f2s0pdjju3o)" height="53.9375" id="Logic" style="stroke:#A80036;stroke-width:1.5;" width="177" x="7" y="137"/><ellipse cx="22" cy="155.9688" fill="#ADD1B2" rx="11" ry="11" style="stroke:#A80036;stroke-width:1.0;"/><path d="M24.3438,151.6406 C23.4063,151.2031 22.8125,151.0625 21.9375,151.0625 C19.3125,151.0625 17.3125,153.1406 17.3125,155.8594 L17.3125,156.9844 C17.3125,159.5625 19.4219,161.4531 22.3125,161.4531 C23.5313,161.4531 24.6875,161.1563 25.4375,160.6094 C26.0156,160.2031 26.3438,159.75 26.3438,159.3594 C26.3438,158.9063 25.9531,158.5156 25.4844,158.5156 C25.2656,158.5156 25.0625,158.5938 24.875,158.7813 C24.4219,159.2656 24.4219,159.2656 24.2344,159.3594 C23.8125,159.625 23.125,159.75 22.3594,159.75 C20.3125,159.75 19.0156,158.6563 19.0156,156.9531 L19.0156,155.8594 C19.0156,154.0781 20.2656,152.7656 22,152.7656 C22.5781,152.7656 23.1875,152.9219 23.6563,153.1719 C24.1406,153.4531 24.3125,153.6719 24.4063,154.0781 C24.4688,154.4844 24.5,154.6094 24.6406,154.7344 C24.7813,154.875 25.0156,154.9844 25.2344,154.9844 C25.5,154.9844 25.7656,154.8438 25.9375,154.625 C26.0469,154.4688 26.0781,154.2813 26.0781,153.8594 L26.0781,152.4375 C26.0781,152 26.0625,151.875 25.9688,151.7188 C25.8125,151.4531 25.5313,151.3125 25.2344,151.3125 C24.9375,151.3125 24.7344,151.4063 24.5156,151.7188 L24.3438,151.6406 Z " fill="#000000"/><text fill="#000000" font-family="sans-serif" font-size="12" lengthAdjust="spacingAndGlyphs" textLength="145" x="36" y="153.1387">usantatecla.mastermind.</text><text fill="#000000" font-family="sans-serif" font-size="12" lengthAdjust="spacingAndGlyphs" textLength="100" x="58.5" y="167.1074">controllers.Logic</text><line style="stroke:#A80036;stroke-width:1.5;" x1="8" x2="183" y1="174.9375" y2="174.9375"/><line style="stroke:#A80036;stroke-width:1.5;" x1="8" x2="183" y1="182.9375" y2="182.9375"/><!--MD5=[7283a9eed84464550b6d5ebf39c68b05]
class Mastermind--><rect codeLine="2" fill="#FEFECE" filter="url(#f17f2s0pdjju3o)" height="53.9375" id="Mastermind" style="stroke:#A80036;stroke-width:1.5;" width="177" x="390" y="7"/><ellipse cx="405" cy="25.9688" fill="#ADD1B2" rx="11" ry="11" style="stroke:#A80036;stroke-width:1.0;"/><path d="M407.3438,21.6406 C406.4063,21.2031 405.8125,21.0625 404.9375,21.0625 C402.3125,21.0625 400.3125,23.1406 400.3125,25.8594 L400.3125,26.9844 C400.3125,29.5625 402.4219,31.4531 405.3125,31.4531 C406.5313,31.4531 407.6875,31.1563 408.4375,30.6094 C409.0156,30.2031 409.3438,29.75 409.3438,29.3594 C409.3438,28.9063 408.9531,28.5156 408.4844,28.5156 C408.2656,28.5156 408.0625,28.5938 407.875,28.7813 C407.4219,29.2656 407.4219,29.2656 407.2344,29.3594 C406.8125,29.625 406.125,29.75 405.3594,29.75 C403.3125,29.75 402.0156,28.6563 402.0156,26.9531 L402.0156,25.8594 C402.0156,24.0781 403.2656,22.7656 405,22.7656 C405.5781,22.7656 406.1875,22.9219 406.6563,23.1719 C407.1406,23.4531 407.3125,23.6719 407.4063,24.0781 C407.4688,24.4844 407.5,24.6094 407.6406,24.7344 C407.7813,24.875 408.0156,24.9844 408.2344,24.9844 C408.5,24.9844 408.7656,24.8438 408.9375,24.625 C409.0469,24.4688 409.0781,24.2813 409.0781,23.8594 L409.0781,22.4375 C409.0781,22 409.0625,21.875 408.9688,21.7188 C408.8125,21.4531 408.5313,21.3125 408.2344,21.3125 C407.9375,21.3125 407.7344,21.4063 407.5156,21.7188 L407.3438,21.6406 Z " fill="#000000"/><text fill="#000000" font-family="sans-serif" font-size="12" lengthAdjust="spacingAndGlyphs" textLength="145" x="419" y="23.1387">usantatecla.mastermind.</text><text fill="#000000" font-family="sans-serif" font-size="12" lengthAdjust="spacingAndGlyphs" textLength="70" x="456.5" y="37.1074">Mastermind</text><line style="stroke:#A80036;stroke-width:1.5;" x1="391" x2="566" y1="44.9375" y2="44.9375"/><line style="stroke:#A80036;stroke-width:1.5;" x1="391" x2="566" y1="52.9375" y2="52.9375"/><!--MD5=[026741164f0b1081dd0ac69d6ecab1ad]
class DispatcherPrototype--><rect codeLine="3" fill="#FEFECE" filter="url(#f17f2s0pdjju3o)" height="53.9375" id="DispatcherPrototype" style="stroke:#A80036;stroke-width:1.5;" width="245" x="313" y="401"/><ellipse cx="328" cy="419.9688" fill="#ADD1B2" rx="11" ry="11" style="stroke:#A80036;stroke-width:1.0;"/><path d="M330.3438,415.6406 C329.4063,415.2031 328.8125,415.0625 327.9375,415.0625 C325.3125,415.0625 323.3125,417.1406 323.3125,419.8594 L323.3125,420.9844 C323.3125,423.5625 325.4219,425.4531 328.3125,425.4531 C329.5313,425.4531 330.6875,425.1563 331.4375,424.6094 C332.0156,424.2031 332.3438,423.75 332.3438,423.3594 C332.3438,422.9063 331.9531,422.5156 331.4844,422.5156 C331.2656,422.5156 331.0625,422.5938 330.875,422.7813 C330.4219,423.2656 330.4219,423.2656 330.2344,423.3594 C329.8125,423.625 329.125,423.75 328.3594,423.75 C326.3125,423.75 325.0156,422.6563 325.0156,420.9531 L325.0156,419.8594 C325.0156,418.0781 326.2656,416.7656 328,416.7656 C328.5781,416.7656 329.1875,416.9219 329.6563,417.1719 C330.1406,417.4531 330.3125,417.6719 330.4063,418.0781 C330.4688,418.4844 330.5,418.6094 330.6406,418.7344 C330.7813,418.875 331.0156,418.9844 331.2344,418.9844 C331.5,418.9844 331.7656,418.8438 331.9375,418.625 C332.0469,418.4688 332.0781,418.2813 332.0781,417.8594 L332.0781,416.4375 C332.0781,416 332.0625,415.875 331.9688,415.7188 C331.8125,415.4531 331.5313,415.3125 331.2344,415.3125 C330.9375,415.3125 330.7344,415.4063 330.5156,415.7188 L330.3438,415.6406 Z " fill="#000000"/><text fill="#000000" font-family="sans-serif" font-size="12" lengthAdjust="spacingAndGlyphs" textLength="213" x="342" y="417.1387">usantatecla.mastermind.distributed.</text><text fill="#000000" font-family="sans-serif" font-size="12" lengthAdjust="spacingAndGlyphs" textLength="197" x="350" y="431.1074">dispatchers.DispatcherPrototype</text><line style="stroke:#A80036;stroke-width:1.5;" x1="314" x2="557" y1="438.9375" y2="438.9375"/><line style="stroke:#A80036;stroke-width:1.5;" x1="314" x2="557" y1="446.9375" y2="446.9375"/><!--MD5=[7a82f2ef34661577b4a8a3f4e585dd4c]
reverse link Logic to usantatecla.mastermind.distributed.LogicServer--><path codeLine="10" d="M160.332,200.787 C197.129,221.099 243.061,246.454 279.972,266.829 " fill="none" id="Logic-backto-usantatecla.mastermind.distributed.LogicServer" style="stroke:#A80036;stroke-width:1.0;"/><polygon fill="none" points="156.944,206.913,142.817,191.119,163.709,194.656,156.944,206.913" style="stroke:#A80036;stroke-width:1.0;"/><!--MD5=[65bf05ff2458f1c447342885942aa835]
link usantatecla.mastermind.distributed.LogicServer to DispatcherPrototype--><path codeLine="11" d="M372.259,341.274 C385.252,358.8861 400.687,379.8088 413.055,396.5751 " fill="none" id="usantatecla.mastermind.distributed.LogicServer-to-DispatcherPrototype" style="stroke:#A80036;stroke-width:1.0;stroke-dasharray:7.0,7.0;"/><polygon fill="#A80036" points="416.131,400.7436,414.0078,391.1263,413.163,396.7198,407.5696,395.8751,416.131,400.7436" style="stroke:#A80036;stroke-width:1.0;"/><!--MD5=[ffc0a74137cb35b77857ca1f0071ba14]
reverse link Mastermind to usantatecla.mastermind.distributed.ConsoleMastermindClientdClient--><path codeLine="17" d="M478.5,81.321 C478.5,96.237 478.5,112.542 478.5,126.635 " fill="none" id="Mastermind-backto-usantatecla.mastermind.distributed.ConsoleMastermindClient" style="stroke:#A80036;stroke-width:1.0;"/><polygon fill="none" points="471.5,81.212,478.5,61.212,485.5,81.212,471.5,81.212" style="stroke:#A80036;stroke-width:1.0;"/><!--MD5=[93cd37037529d9575c87b5e34c4b4c9d]
link usantatecla.mastermind.distributed.MastermindServer to DispatcherPrototype--><path codeLine="24" d="M372.8718,204.7922 C372.8718,204.7922 485.959,261.206 489.5,267 C512.213,304.165 504.773,324.21 489.5,365 C486.02,374.2948 480.446,383.1143 474.174,391.031 " fill="none" id="usantatecla.mastermind.distributed.MastermindServer-DispatcherPrototype" style="stroke:#A80036;stroke-width:1.0;"/><polygon fill="#A80036" points="465.642,400.8823,474.5576,396.6976,468.9153,397.1027,468.5102,391.4603,465.642,400.8823" style="stroke:#A80036;stroke-width:1.0;"/><line style="stroke:#A80036;stroke-width:1.0;" x1="468.9153" x2="474.1525" y1="397.1027" y2="391.0553"/><polygon fill="#A80036" points="362.094,199.516,365.7242,205.7467,372.8718,204.7922,369.2416,198.5615,362.094,199.516" style="stroke:#A80036;stroke-width:1.0;"/><!--MD5=[3a3b52fd45a5dcb9dc87353defad50de]
link usantatecla.mastermind.distributed.MastermindServer to usantatecla.mastermind.distributed.LogicServer--><path codeLine="25" d="M311.7438,218.3013 C311.7438,218.3013 321.635,243.121 326.126,254.388 " fill="none" id="usantatecla.mastermind.distributed.MastermindServer-usantatecla.mastermind.distributed.LogicServer" style="stroke:#A80036;stroke-width:1.0;"/><polygon fill="#A80036" points="331.031,266.697,331.4146,256.8556,329.1798,262.0523,323.9831,259.8175,331.031,266.697" style="stroke:#A80036;stroke-width:1.0;"/><line style="stroke:#A80036;stroke-width:1.0;" x1="329.1798" x2="326.2185" y1="262.0523" y2="254.6205"/><polygon fill="#A80036" points="307.301,207.154,305.8067,214.2086,311.7438,218.3013,313.2382,211.2467,307.301,207.154" style="stroke:#A80036;stroke-width:1.0;"/><!--MD5=[71dddf2c3527fa88b9b2f9e53e368040]
@startuml
class Logic as "usantatecla.mastermind.\ncontrollers.Logic"
class Mastermind as "usantatecla.mastermind.\nMastermind"
class DispatcherPrototype as "usantatecla.mastermind.distributed.\ndispatchers.DispatcherPrototype"

class  usantatecla.mastermind.distributed.LogicServer{
    + LogicServer(Boolean)
    + createDispatchers(DispatcherPrototype)
}

Logic <|-down- usantatecla.mastermind.distributed.LogicServer
usantatecla.mastermind.distributed.LogicServer .down.> DispatcherPrototype

class  usantatecla.mastermind.distributed.ConsoleMastermindClientdClient{
    # isStandalone(): Boolean
    + {static} main(String[])
}
Mastermind <|-down- usantatecla.mastermind.distributed.ConsoleMastermindClientdClient

class usantatecla.mastermind.distributed.MastermindServer{
    - MastermindServer()
    - serve()
    + {static} main(String[])
}
usantatecla.mastermind.distributed.MastermindServer *-down-> DispatcherPrototype
usantatecla.mastermind.distributed.MastermindServer *-down-> usantatecla.mastermind.distributed.LogicServer
@enduml

PlantUML version 1.2020.24(Fri Dec 18 17:00:36 UTC 2020)
(GPL source distribution)
Java Runtime: Java(TM) SE Runtime Environment
JVM: Java HotSpot(TM) 64-Bit Server VM
Default Encoding: UTF-8
Language: en
Country: US
--></g></svg>