<?xml version="1.0" encoding="UTF-8" standalone="no"?><svg xmlns="http://www.w3.org/2000/svg" xmlns:xlink="http://www.w3.org/1999/xlink" contentScriptType="application/ecmascript" contentStyleType="text/css" height="1474px" preserveAspectRatio="none" style="width:1199px;height:1474px;" version="1.1" viewBox="0 0 1199 1474" width="1199px" zoomAndPan="magnify"><defs><filter height="300%" id="f8ebfevfut1d2" width="300%" x="-1" y="-1"><feGaussianBlur result="blurOut" stdDeviation="2.0"/><feColorMatrix in="blurOut" result="blurOut2" type="matrix" values="0 0 0 0 0 0 0 0 0 0 0 0 0 0 0 0 0 0 .4 0"/><feOffset dx="4.0" dy="4.0" in="blurOut2" result="blurOut3"/><feBlend in="SourceGraphic" in2="blurOut3" mode="normal"/></filter></defs><g><!--MD5=[073ce8cb2fd2a0b2556785fe35fbd544]
cluster usantatecla.mastermind.models--><polygon fill="#FFFFFF" filter="url(#f8ebfevfut1d2)" points="24.0375,6,294.0375,6,301.0375,28.2969,850.0375,28.2969,850.0375,1349,24.0375,1349,24.0375,6" style="stroke:#000000;stroke-width:1.5;"/><line style="stroke:#000000;stroke-width:1.5;" x1="24.0375" x2="301.0375" y1="28.2969" y2="28.2969"/><text fill="#000000" font-family="sans-serif" font-size="14" font-weight="bold" lengthAdjust="spacingAndGlyphs" textLength="264" x="28.0375" y="20.9951">usantatecla.mastermind.models</text><!--MD5=[9e09d6096b99d1406435ac08840c9240]
class usantatecla.mastermind.models.Combination--><rect codeLine="4" fill="#FEFECE" filter="url(#f8ebfevfut1d2)" height="86.4141" id="usantatecla.mastermind.models.Combination" style="stroke:#A80036;stroke-width:1.5;" width="108" x="616.0375" y="851"/><ellipse cx="631.0375" cy="867" fill="#A9DCDF" rx="11" ry="11" style="stroke:#A80036;stroke-width:1.0;"/><path d="M633.1156,868.8125 L633.5062,869.7969 L633.1156,869.7969 C632.6625,869.7969 632.5531,869.8125 632.3968,869.9219 C632.1468,870.0781 631.9906,870.3594 631.9906,870.6563 C631.9906,870.9219 632.1312,871.1719 632.35,871.3281 C632.4906,871.4531 632.6937,871.5 633.1156,871.5 L635.475,871.5 C635.8343,871.5 636.0531,871.4688 636.1937,871.375 C636.4437,871.2344 636.6,870.9375 636.6,870.6563 C636.6,870.375 636.4593,870.125 636.2406,869.9688 C636.0687,869.8281 635.9125,869.7969 635.4437,869.7969 L632.0531,861.5938 L628.3812,861.5938 C627.9281,861.5938 627.8031,861.6094 627.6468,861.7031 C627.3968,861.875 627.2406,862.1563 627.2406,862.4375 C627.2406,862.7188 627.3812,862.9688 627.6,863.1406 C627.7718,863.25 627.9437,863.2813 628.3812,863.2813 L629.4593,863.2813 L626.8187,869.7969 C626.3968,869.7969 626.2406,869.8125 626.0843,869.9219 C625.8343,870.0781 625.6781,870.3594 625.6781,870.6563 C625.6781,871.2188 626.0531,871.5 626.8031,871.5 L629.0687,871.5 C629.4281,871.5 629.6468,871.4688 629.7718,871.375 C630.0375,871.2344 630.1781,870.9375 630.1781,870.6563 C630.1781,870.375 630.0531,870.125 629.8343,869.9531 C629.6625,869.8281 629.5218,869.7969 629.0687,869.7969 L628.6781,869.7969 L629.0687,868.8125 L633.1156,868.8125 Z M632.4125,867.1094 L629.7406,867.1094 L631.0843,863.8438 L632.4125,867.1094 Z " fill="#000000"/><text fill="#000000" font-family="sans-serif" font-size="12" font-style="italic" lengthAdjust="spacingAndGlyphs" textLength="76" x="645.0375" y="871.1543">Combination</text><line style="stroke:#A80036;stroke-width:1.5;" x1="617.0375" x2="723.0375" y1="883" y2="883"/><rect fill="none" height="6" style="stroke:#C82930;stroke-width:1.0;" width="6" x="624.0375" y="891"/><text fill="#000000" font-family="sans-serif" font-size="11" lengthAdjust="spacingAndGlyphs" text-decoration="underline" textLength="59" x="636.0375" y="897.2104">WIDTH: int</text><line style="stroke:#A80036;stroke-width:1.5;" x1="617.0375" x2="723.0375" y1="903.8047" y2="903.8047"/><polygon fill="#FFFF44" points="627.0375,909.8047,631.0375,913.8047,627.0375,917.8047,623.0375,913.8047" style="stroke:#B38D22;stroke-width:1.0;"/><text fill="#000000" font-family="sans-serif" font-size="11" lengthAdjust="spacingAndGlyphs" textLength="79" x="636.0375" y="918.0151">Combination()</text><ellipse cx="627.0375" cy="927.6094" fill="#84BE84" rx="3" ry="3" style="stroke:#038048;stroke-width:1.0;"/><text fill="#000000" font-family="sans-serif" font-size="11" lengthAdjust="spacingAndGlyphs" text-decoration="underline" textLength="80" x="636.0375" y="930.8198">getWidth(): int</text><!--MD5=[133b2a20d5a8d4980692cee85e8c0684]
class usantatecla.mastermind.models.Game--><rect codeLine="11" fill="#FEFECE" filter="url(#f8ebfevfut1d2)" height="227.2656" id="usantatecla.mastermind.models.Game" style="stroke:#A80036;stroke-width:1.5;" width="237" x="396.5375" y="564"/><ellipse cx="493.2875" cy="580" fill="#ADD1B2" rx="11" ry="11" style="stroke:#A80036;stroke-width:1.0;"/><path d="M495.6312,575.6719 C494.6937,575.2344 494.1,575.0938 493.225,575.0938 C490.6,575.0938 488.6,577.1719 488.6,579.8906 L488.6,581.0156 C488.6,583.5938 490.7093,585.4844 493.6,585.4844 C494.8187,585.4844 495.975,585.1875 496.725,584.6406 C497.3031,584.2344 497.6312,583.7813 497.6312,583.3906 C497.6312,582.9375 497.2406,582.5469 496.7718,582.5469 C496.5531,582.5469 496.35,582.625 496.1625,582.8125 C495.7093,583.2969 495.7093,583.2969 495.5218,583.3906 C495.1,583.6563 494.4125,583.7813 493.6468,583.7813 C491.6,583.7813 490.3031,582.6875 490.3031,580.9844 L490.3031,579.8906 C490.3031,578.1094 491.5531,576.7969 493.2875,576.7969 C493.8656,576.7969 494.475,576.9531 494.9437,577.2031 C495.4281,577.4844 495.6,577.7031 495.6937,578.1094 C495.7562,578.5156 495.7875,578.6406 495.9281,578.7656 C496.0687,578.9063 496.3031,579.0156 496.5218,579.0156 C496.7875,579.0156 497.0531,578.875 497.225,578.6563 C497.3343,578.5 497.3656,578.3125 497.3656,577.8906 L497.3656,576.4688 C497.3656,576.0313 497.35,575.9063 497.2562,575.75 C497.1,575.4844 496.8187,575.3438 496.5218,575.3438 C496.225,575.3438 496.0218,575.4375 495.8031,575.75 L495.6312,575.6719 Z " fill="#000000"/><text fill="#000000" font-family="sans-serif" font-size="12" lengthAdjust="spacingAndGlyphs" textLength="35" x="513.7875" y="584.1543">Game</text><line style="stroke:#A80036;stroke-width:1.5;" x1="397.5375" x2="632.5375" y1="596" y2="596"/><rect fill="none" height="6" style="stroke:#C82930;stroke-width:1.0;" width="6" x="404.5375" y="604"/><text fill="#000000" font-family="sans-serif" font-size="11" lengthAdjust="spacingAndGlyphs" text-decoration="underline" textLength="84" x="416.5375" y="610.2104">MAX_LONG: int</text><rect fill="none" height="6" style="stroke:#C82930;stroke-width:1.0;" width="6" x="404.5375" y="616.8047"/><text fill="#000000" font-family="sans-serif" font-size="11" lengthAdjust="spacingAndGlyphs" textLength="72" x="416.5375" y="623.0151">attempts: int</text><line style="stroke:#A80036;stroke-width:1.5;" x1="397.5375" x2="632.5375" y1="629.6094" y2="629.6094"/><polygon fill="#4177AF" points="407.5375,636.6094,403.5375,642.6094,411.5375,642.6094" style="stroke:#1963A0;stroke-width:1.0;"/><text fill="#000000" font-family="sans-serif" font-size="11" lengthAdjust="spacingAndGlyphs" textLength="43" x="416.5375" y="643.8198">Game()</text><polygon fill="#4177AF" points="407.5375,649.4141,403.5375,655.4141,411.5375,655.4141" style="stroke:#1963A0;stroke-width:1.0;"/><text fill="#000000" font-family="sans-serif" font-size="11" lengthAdjust="spacingAndGlyphs" textLength="36" x="416.5375" y="656.6245">clear()</text><polygon fill="#4177AF" points="407.5375,662.2188,403.5375,668.2188,411.5375,668.2188" style="stroke:#1963A0;stroke-width:1.0;"/><text fill="#000000" font-family="sans-serif" font-size="11" lengthAdjust="spacingAndGlyphs" textLength="211" x="416.5375" y="669.4292">addProposeCombination(List&lt;Color&gt;)</text><polygon fill="#4177AF" points="407.5375,675.0234,403.5375,681.0234,411.5375,681.0234" style="stroke:#1963A0;stroke-width:1.0;"/><text fill="#000000" font-family="sans-serif" font-size="11" lengthAdjust="spacingAndGlyphs" textLength="160" x="416.5375" y="682.2339">createMemento(): Memento</text><polygon fill="#4177AF" points="407.5375,687.8281,403.5375,693.8281,411.5375,693.8281" style="stroke:#1963A0;stroke-width:1.0;"/><text fill="#000000" font-family="sans-serif" font-size="11" lengthAdjust="spacingAndGlyphs" textLength="80" x="416.5375" y="695.0386">set(Memento)</text><polygon fill="#4177AF" points="407.5375,700.6328,403.5375,706.6328,411.5375,706.6328" style="stroke:#1963A0;stroke-width:1.0;"/><text fill="#000000" font-family="sans-serif" font-size="11" lengthAdjust="spacingAndGlyphs" textLength="108" x="416.5375" y="707.8433">isLooser(): boolean</text><polygon fill="#4177AF" points="407.5375,713.4375,403.5375,719.4375,411.5375,719.4375" style="stroke:#1963A0;stroke-width:1.0;"/><text fill="#000000" font-family="sans-serif" font-size="11" lengthAdjust="spacingAndGlyphs" textLength="110" x="416.5375" y="720.6479">isWinner(): boolean</text><polygon fill="#4177AF" points="407.5375,726.2422,403.5375,732.2422,411.5375,732.2422" style="stroke:#1963A0;stroke-width:1.0;"/><text fill="#000000" font-family="sans-serif" font-size="11" lengthAdjust="spacingAndGlyphs" textLength="100" x="416.5375" y="733.4526">getAttempts(): int</text><polygon fill="#4177AF" points="407.5375,739.0469,403.5375,745.0469,411.5375,745.0469" style="stroke:#1963A0;stroke-width:1.0;"/><text fill="#000000" font-family="sans-serif" font-size="11" lengthAdjust="spacingAndGlyphs" textLength="149" x="416.5375" y="746.2573">getColors(int): List&lt;Color&gt;</text><polygon fill="#4177AF" points="407.5375,751.8516,403.5375,757.8516,411.5375,757.8516" style="stroke:#1963A0;stroke-width:1.0;"/><text fill="#000000" font-family="sans-serif" font-size="11" lengthAdjust="spacingAndGlyphs" textLength="98" x="416.5375" y="759.062">getBlacks(int): int</text><polygon fill="#4177AF" points="407.5375,764.6563,403.5375,770.6563,411.5375,770.6563" style="stroke:#1963A0;stroke-width:1.0;"/><text fill="#000000" font-family="sans-serif" font-size="11" lengthAdjust="spacingAndGlyphs" textLength="101" x="416.5375" y="771.8667">getWhites(int): int</text><polygon fill="#4177AF" points="407.5375,777.4609,403.5375,783.4609,411.5375,783.4609" style="stroke:#1963A0;stroke-width:1.0;"/><text fill="#000000" font-family="sans-serif" font-size="11" lengthAdjust="spacingAndGlyphs" textLength="80" x="416.5375" y="784.6714">getWidth(): int</text><!--MD5=[a212aeeb69ab78e602f8fa1f3e5ba19f]
class usantatecla.mastermind.models.SecretCombination--><rect codeLine="79" fill="#FEFECE" filter="url(#f8ebfevfut1d2)" height="73.6094" id="usantatecla.mastermind.models.SecretCombination" style="stroke:#A80036;stroke-width:1.5;" width="253" x="543.5375" y="1029"/><ellipse cx="608.7875" cy="1045" fill="#ADD1B2" rx="11" ry="11" style="stroke:#A80036;stroke-width:1.0;"/><path d="M611.1312,1040.6719 C610.1937,1040.2344 609.6,1040.0938 608.725,1040.0938 C606.1,1040.0938 604.1,1042.1719 604.1,1044.8906 L604.1,1046.0156 C604.1,1048.5938 606.2093,1050.4844 609.1,1050.4844 C610.3187,1050.4844 611.475,1050.1875 612.225,1049.6406 C612.8031,1049.2344 613.1312,1048.7813 613.1312,1048.3906 C613.1312,1047.9375 612.7406,1047.5469 612.2718,1047.5469 C612.0531,1047.5469 611.85,1047.625 611.6625,1047.8125 C611.2093,1048.2969 611.2093,1048.2969 611.0218,1048.3906 C610.6,1048.6563 609.9125,1048.7813 609.1468,1048.7813 C607.1,1048.7813 605.8031,1047.6875 605.8031,1045.9844 L605.8031,1044.8906 C605.8031,1043.1094 607.0531,1041.7969 608.7875,1041.7969 C609.3656,1041.7969 609.975,1041.9531 610.4437,1042.2031 C610.9281,1042.4844 611.1,1042.7031 611.1937,1043.1094 C611.2562,1043.5156 611.2875,1043.6406 611.4281,1043.7656 C611.5687,1043.9063 611.8031,1044.0156 612.0218,1044.0156 C612.2875,1044.0156 612.5531,1043.875 612.725,1043.6563 C612.8343,1043.5 612.8656,1043.3125 612.8656,1042.8906 L612.8656,1041.4688 C612.8656,1041.0313 612.85,1040.9063 612.7562,1040.75 C612.6,1040.4844 612.3187,1040.3438 612.0218,1040.3438 C611.725,1040.3438 611.5218,1040.4375 611.3031,1040.75 L611.1312,1040.6719 Z " fill="#000000"/><text fill="#000000" font-family="sans-serif" font-size="12" lengthAdjust="spacingAndGlyphs" textLength="114" x="629.2875" y="1049.1543">SecretCombination</text><line style="stroke:#A80036;stroke-width:1.5;" x1="544.5375" x2="795.5375" y1="1061" y2="1061"/><line style="stroke:#A80036;stroke-width:1.5;" x1="544.5375" x2="795.5375" y1="1069" y2="1069"/><polygon fill="#4177AF" points="554.5375,1076,550.5375,1082,558.5375,1082" style="stroke:#1963A0;stroke-width:1.0;"/><text fill="#000000" font-family="sans-serif" font-size="11" lengthAdjust="spacingAndGlyphs" textLength="117" x="563.5375" y="1083.2104">SecretCombination()</text><polygon fill="#4177AF" points="554.5375,1088.8047,550.5375,1094.8047,558.5375,1094.8047" style="stroke:#1963A0;stroke-width:1.0;"/><text fill="#000000" font-family="sans-serif" font-size="11" lengthAdjust="spacingAndGlyphs" textLength="227" x="563.5375" y="1096.0151">getResult(ProposedCombination): Result</text><!--MD5=[f33d10797af0f3b71126f0e937fc2775]
class usantatecla.mastermind.models.Result--><rect codeLine="68" fill="#FEFECE" filter="url(#f8ebfevfut1d2)" height="137.6328" id="usantatecla.mastermind.models.Result" style="stroke:#A80036;stroke-width:1.5;" width="136" x="557.0375" y="1195"/><ellipse cx="602.7875" cy="1211" fill="#ADD1B2" rx="11" ry="11" style="stroke:#A80036;stroke-width:1.0;"/><path d="M605.1312,1206.6719 C604.1937,1206.2344 603.6,1206.0938 602.725,1206.0938 C600.1,1206.0938 598.1,1208.1719 598.1,1210.8906 L598.1,1212.0156 C598.1,1214.5938 600.2093,1216.4844 603.1,1216.4844 C604.3187,1216.4844 605.475,1216.1875 606.225,1215.6406 C606.8031,1215.2344 607.1312,1214.7813 607.1312,1214.3906 C607.1312,1213.9375 606.7406,1213.5469 606.2718,1213.5469 C606.0531,1213.5469 605.85,1213.625 605.6625,1213.8125 C605.2093,1214.2969 605.2093,1214.2969 605.0218,1214.3906 C604.6,1214.6563 603.9125,1214.7813 603.1468,1214.7813 C601.1,1214.7813 599.8031,1213.6875 599.8031,1211.9844 L599.8031,1210.8906 C599.8031,1209.1094 601.0531,1207.7969 602.7875,1207.7969 C603.3656,1207.7969 603.975,1207.9531 604.4437,1208.2031 C604.9281,1208.4844 605.1,1208.7031 605.1937,1209.1094 C605.2562,1209.5156 605.2875,1209.6406 605.4281,1209.7656 C605.5687,1209.9063 605.8031,1210.0156 606.0218,1210.0156 C606.2875,1210.0156 606.5531,1209.875 606.725,1209.6563 C606.8343,1209.5 606.8656,1209.3125 606.8656,1208.8906 L606.8656,1207.4688 C606.8656,1207.0313 606.85,1206.9063 606.7562,1206.75 C606.6,1206.4844 606.3187,1206.3438 606.0218,1206.3438 C605.725,1206.3438 605.5218,1206.4375 605.3031,1206.75 L605.1312,1206.6719 Z " fill="#000000"/><text fill="#000000" font-family="sans-serif" font-size="12" lengthAdjust="spacingAndGlyphs" textLength="36" x="623.2875" y="1215.1543">Result</text><line style="stroke:#A80036;stroke-width:1.5;" x1="558.0375" x2="692.0375" y1="1227" y2="1227"/><rect fill="none" height="6" style="stroke:#C82930;stroke-width:1.0;" width="6" x="565.0375" y="1235"/><text fill="#000000" font-family="sans-serif" font-size="11" lengthAdjust="spacingAndGlyphs" textLength="56" x="577.0375" y="1241.2104">blacks: int</text><rect fill="none" height="6" style="stroke:#C82930;stroke-width:1.0;" width="6" x="565.0375" y="1247.8047"/><text fill="#000000" font-family="sans-serif" font-size="11" lengthAdjust="spacingAndGlyphs" textLength="58" x="577.0375" y="1254.0151">whites: int</text><line style="stroke:#A80036;stroke-width:1.5;" x1="558.0375" x2="692.0375" y1="1260.6094" y2="1260.6094"/><polygon fill="#4177AF" points="568.0375,1267.6094,564.0375,1273.6094,572.0375,1273.6094" style="stroke:#1963A0;stroke-width:1.0;"/><text fill="#000000" font-family="sans-serif" font-size="11" lengthAdjust="spacingAndGlyphs" textLength="78" x="577.0375" y="1274.8198">Result(int, int)</text><polygon fill="#4177AF" points="568.0375,1280.4141,564.0375,1286.4141,572.0375,1286.4141" style="stroke:#1963A0;stroke-width:1.0;"/><text fill="#000000" font-family="sans-serif" font-size="11" lengthAdjust="spacingAndGlyphs" textLength="110" x="577.0375" y="1287.6245">isWinner(): boolean</text><polygon fill="#4177AF" points="568.0375,1293.2188,564.0375,1299.2188,572.0375,1299.2188" style="stroke:#1963A0;stroke-width:1.0;"/><text fill="#000000" font-family="sans-serif" font-size="11" lengthAdjust="spacingAndGlyphs" textLength="84" x="577.0375" y="1300.4292">getBlacks(): int</text><polygon fill="#4177AF" points="568.0375,1306.0234,564.0375,1312.0234,572.0375,1312.0234" style="stroke:#1963A0;stroke-width:1.0;"/><text fill="#000000" font-family="sans-serif" font-size="11" lengthAdjust="spacingAndGlyphs" textLength="87" x="577.0375" y="1313.2339">getWhites(): int</text><polygon fill="#4177AF" points="568.0375,1318.8281,564.0375,1324.8281,572.0375,1324.8281" style="stroke:#1963A0;stroke-width:1.0;"/><text fill="#000000" font-family="sans-serif" font-size="11" lengthAdjust="spacingAndGlyphs" textLength="77" x="577.0375" y="1326.0386">copy(): Result</text><!--MD5=[29c0d014c840bf5e3383a02197df5a5a]
class usantatecla.mastermind.models.ProposedCombination--><rect codeLine="46" fill="#FEFECE" filter="url(#f8ebfevfut1d2)" height="99.2188" id="usantatecla.mastermind.models.ProposedCombination" style="stroke:#A80036;stroke-width:1.5;" width="223" x="208.5375" y="1214.5"/><ellipse cx="250.0875" cy="1230.5" fill="#ADD1B2" rx="11" ry="11" style="stroke:#A80036;stroke-width:1.0;"/><path d="M252.4312,1226.1719 C251.4937,1225.7344 250.9,1225.5938 250.025,1225.5938 C247.4,1225.5938 245.4,1227.6719 245.4,1230.3906 L245.4,1231.5156 C245.4,1234.0938 247.5093,1235.9844 250.4,1235.9844 C251.6187,1235.9844 252.775,1235.6875 253.525,1235.1406 C254.1031,1234.7344 254.4312,1234.2813 254.4312,1233.8906 C254.4312,1233.4375 254.0406,1233.0469 253.5718,1233.0469 C253.3531,1233.0469 253.15,1233.125 252.9625,1233.3125 C252.5093,1233.7969 252.5093,1233.7969 252.3218,1233.8906 C251.9,1234.1563 251.2125,1234.2813 250.4468,1234.2813 C248.4,1234.2813 247.1031,1233.1875 247.1031,1231.4844 L247.1031,1230.3906 C247.1031,1228.6094 248.3531,1227.2969 250.0875,1227.2969 C250.6656,1227.2969 251.275,1227.4531 251.7437,1227.7031 C252.2281,1227.9844 252.4,1228.2031 252.4937,1228.6094 C252.5562,1229.0156 252.5875,1229.1406 252.7281,1229.2656 C252.8687,1229.4063 253.1031,1229.5156 253.3218,1229.5156 C253.5875,1229.5156 253.8531,1229.375 254.025,1229.1563 C254.1343,1229 254.1656,1228.8125 254.1656,1228.3906 L254.1656,1226.9688 C254.1656,1226.5313 254.15,1226.4063 254.0562,1226.25 C253.9,1225.9844 253.6187,1225.8438 253.3218,1225.8438 C253.025,1225.8438 252.8218,1225.9375 252.6031,1226.25 L252.4312,1226.1719 Z " fill="#000000"/><text fill="#000000" font-family="sans-serif" font-size="12" lengthAdjust="spacingAndGlyphs" textLength="132" x="269.9875" y="1234.6543">ProposedCombination</text><line style="stroke:#A80036;stroke-width:1.5;" x1="209.5375" x2="430.5375" y1="1246.5" y2="1246.5"/><line style="stroke:#A80036;stroke-width:1.5;" x1="209.5375" x2="430.5375" y1="1254.5" y2="1254.5"/><polygon fill="#4177AF" points="219.5375,1261.5,215.5375,1267.5,223.5375,1267.5" style="stroke:#1963A0;stroke-width:1.0;"/><text fill="#000000" font-family="sans-serif" font-size="11" lengthAdjust="spacingAndGlyphs" textLength="197" x="228.5375" y="1268.7104">ProposedCombination(List&lt;Color&gt;)</text><polygon fill="#4177AF" points="219.5375,1274.3047,215.5375,1280.3047,223.5375,1280.3047" style="stroke:#1963A0;stroke-width:1.0;"/><text fill="#000000" font-family="sans-serif" font-size="11" lengthAdjust="spacingAndGlyphs" textLength="158" x="228.5375" y="1281.5151">contains(Color, int): boolean</text><polygon fill="#4177AF" points="219.5375,1287.1094,215.5375,1293.1094,223.5375,1293.1094" style="stroke:#1963A0;stroke-width:1.0;"/><text fill="#000000" font-family="sans-serif" font-size="11" lengthAdjust="spacingAndGlyphs" textLength="137" x="228.5375" y="1294.3198">contains(Color): boolean</text><polygon fill="#4177AF" points="219.5375,1299.9141,215.5375,1305.9141,223.5375,1305.9141" style="stroke:#1963A0;stroke-width:1.0;"/><text fill="#000000" font-family="sans-serif" font-size="11" lengthAdjust="spacingAndGlyphs" textLength="165" x="228.5375" y="1307.1245">copy(): ProposedCombination</text><!--MD5=[7d9b242180fb4a9db2623d574dc55ece]
class usantatecla.mastermind.models.Memento--><rect codeLine="34" fill="#FEFECE" filter="url(#f8ebfevfut1d2)" height="137.6328" id="usantatecla.mastermind.models.Memento" style="stroke:#A80036;stroke-width:1.5;" width="320" x="114.0375" y="997"/><ellipse cx="241.7875" cy="1013" fill="#ADD1B2" rx="11" ry="11" style="stroke:#A80036;stroke-width:1.0;"/><path d="M244.1312,1008.6719 C243.1937,1008.2344 242.6,1008.0938 241.725,1008.0938 C239.1,1008.0938 237.1,1010.1719 237.1,1012.8906 L237.1,1014.0156 C237.1,1016.5938 239.2093,1018.4844 242.1,1018.4844 C243.3187,1018.4844 244.475,1018.1875 245.225,1017.6406 C245.8031,1017.2344 246.1312,1016.7813 246.1312,1016.3906 C246.1312,1015.9375 245.7406,1015.5469 245.2718,1015.5469 C245.0531,1015.5469 244.85,1015.625 244.6625,1015.8125 C244.2093,1016.2969 244.2093,1016.2969 244.0218,1016.3906 C243.6,1016.6563 242.9125,1016.7813 242.1468,1016.7813 C240.1,1016.7813 238.8031,1015.6875 238.8031,1013.9844 L238.8031,1012.8906 C238.8031,1011.1094 240.0531,1009.7969 241.7875,1009.7969 C242.3656,1009.7969 242.975,1009.9531 243.4437,1010.2031 C243.9281,1010.4844 244.1,1010.7031 244.1937,1011.1094 C244.2562,1011.5156 244.2875,1011.6406 244.4281,1011.7656 C244.5687,1011.9063 244.8031,1012.0156 245.0218,1012.0156 C245.2875,1012.0156 245.5531,1011.875 245.725,1011.6563 C245.8343,1011.5 245.8656,1011.3125 245.8656,1010.8906 L245.8656,1009.4688 C245.8656,1009.0313 245.85,1008.9063 245.7562,1008.75 C245.6,1008.4844 245.3187,1008.3438 245.0218,1008.3438 C244.725,1008.3438 244.5218,1008.4375 244.3031,1008.75 L244.1312,1008.6719 Z " fill="#000000"/><text fill="#000000" font-family="sans-serif" font-size="12" lengthAdjust="spacingAndGlyphs" textLength="56" x="262.2875" y="1017.1543">Memento</text><line style="stroke:#A80036;stroke-width:1.5;" x1="115.0375" x2="433.0375" y1="1029" y2="1029"/><rect fill="none" height="6" style="stroke:#C82930;stroke-width:1.0;" width="6" x="122.0375" y="1037"/><text fill="#000000" font-family="sans-serif" font-size="11" lengthAdjust="spacingAndGlyphs" textLength="72" x="134.0375" y="1043.2104">attempts: int</text><line style="stroke:#A80036;stroke-width:1.5;" x1="115.0375" x2="433.0375" y1="1049.8047" y2="1049.8047"/><polygon fill="#4177AF" points="125.0375,1056.8047,121.0375,1062.8047,129.0375,1062.8047" style="stroke:#1963A0;stroke-width:1.0;"/><text fill="#000000" font-family="sans-serif" font-size="11" lengthAdjust="spacingAndGlyphs" textLength="76" x="134.0375" y="1064.0151">Memento(int)</text><polygon fill="#4177AF" points="125.0375,1069.6094,121.0375,1075.6094,129.0375,1075.6094" style="stroke:#1963A0;stroke-width:1.0;"/><text fill="#000000" font-family="sans-serif" font-size="11" lengthAdjust="spacingAndGlyphs" textLength="191" x="134.0375" y="1076.8198">set(ProposedCombination, Result)</text><polygon fill="#4177AF" points="125.0375,1082.4141,121.0375,1088.4141,129.0375,1088.4141" style="stroke:#1963A0;stroke-width:1.0;"/><text fill="#000000" font-family="sans-serif" font-size="11" lengthAdjust="spacingAndGlyphs" textLength="294" x="134.0375" y="1089.6245">getProposedCombination(int): ProposedCombination</text><polygon fill="#4177AF" points="125.0375,1095.2188,121.0375,1101.2188,129.0375,1101.2188" style="stroke:#1963A0;stroke-width:1.0;"/><text fill="#000000" font-family="sans-serif" font-size="11" lengthAdjust="spacingAndGlyphs" textLength="118" x="134.0375" y="1102.4292">getResult(int): Result</text><polygon fill="#4177AF" points="125.0375,1108.0234,121.0375,1114.0234,129.0375,1114.0234" style="stroke:#1963A0;stroke-width:1.0;"/><text fill="#000000" font-family="sans-serif" font-size="11" lengthAdjust="spacingAndGlyphs" textLength="74" x="134.0375" y="1115.2339">getSize(): int</text><polygon fill="#4177AF" points="125.0375,1120.8281,121.0375,1126.8281,129.0375,1126.8281" style="stroke:#1963A0;stroke-width:1.0;"/><text fill="#000000" font-family="sans-serif" font-size="11" lengthAdjust="spacingAndGlyphs" textLength="100" x="134.0375" y="1128.0386">getAttempts(): int</text><!--MD5=[71dbb6df7a13cdccf69692f304877456]
class usantatecla.mastermind.models.Registry--><rect codeLine="55" fill="#FEFECE" filter="url(#f8ebfevfut1d2)" height="150.4375" id="usantatecla.mastermind.models.Registry" style="stroke:#A80036;stroke-width:1.5;" width="140" x="382.0375" y="354"/><ellipse cx="423.5875" cy="370" fill="#ADD1B2" rx="11" ry="11" style="stroke:#A80036;stroke-width:1.0;"/><path d="M425.9312,365.6719 C424.9937,365.2344 424.4,365.0938 423.525,365.0938 C420.9,365.0938 418.9,367.1719 418.9,369.8906 L418.9,371.0156 C418.9,373.5938 421.0093,375.4844 423.9,375.4844 C425.1187,375.4844 426.275,375.1875 427.025,374.6406 C427.6031,374.2344 427.9312,373.7813 427.9312,373.3906 C427.9312,372.9375 427.5406,372.5469 427.0718,372.5469 C426.8531,372.5469 426.65,372.625 426.4625,372.8125 C426.0093,373.2969 426.0093,373.2969 425.8218,373.3906 C425.4,373.6563 424.7125,373.7813 423.9468,373.7813 C421.9,373.7813 420.6031,372.6875 420.6031,370.9844 L420.6031,369.8906 C420.6031,368.1094 421.8531,366.7969 423.5875,366.7969 C424.1656,366.7969 424.775,366.9531 425.2437,367.2031 C425.7281,367.4844 425.9,367.7031 425.9937,368.1094 C426.0562,368.5156 426.0875,368.6406 426.2281,368.7656 C426.3687,368.9063 426.6031,369.0156 426.8218,369.0156 C427.0875,369.0156 427.3531,368.875 427.525,368.6563 C427.6343,368.5 427.6656,368.3125 427.6656,367.8906 L427.6656,366.4688 C427.6656,366.0313 427.65,365.9063 427.5562,365.75 C427.4,365.4844 427.1187,365.3438 426.8218,365.3438 C426.525,365.3438 426.3218,365.4375 426.1031,365.75 L425.9312,365.6719 Z " fill="#000000"/><text fill="#000000" font-family="sans-serif" font-size="12" lengthAdjust="spacingAndGlyphs" textLength="49" x="443.4874" y="374.1543">Registry</text><line style="stroke:#A80036;stroke-width:1.5;" x1="383.0375" x2="521.0375" y1="386" y2="386"/><rect fill="none" height="6" style="stroke:#C82930;stroke-width:1.0;" width="6" x="390.0375" y="394"/><text fill="#000000" font-family="sans-serif" font-size="11" lengthAdjust="spacingAndGlyphs" textLength="90" x="402.0375" y="400.2104">firstPrevious: int</text><line style="stroke:#A80036;stroke-width:1.5;" x1="383.0375" x2="521.0375" y1="406.8047" y2="406.8047"/><polygon fill="#4177AF" points="393.0375,413.8047,389.0375,419.8047,397.0375,419.8047" style="stroke:#1963A0;stroke-width:1.0;"/><text fill="#000000" font-family="sans-serif" font-size="11" lengthAdjust="spacingAndGlyphs" textLength="89" x="402.0375" y="421.0151">Registry(Game)</text><polygon fill="#4177AF" points="393.0375,426.6094,389.0375,432.6094,397.0375,432.6094" style="stroke:#1963A0;stroke-width:1.0;"/><text fill="#000000" font-family="sans-serif" font-size="11" lengthAdjust="spacingAndGlyphs" textLength="51" x="402.0375" y="433.8198">registry()</text><polygon fill="#4177AF" points="393.0375,439.4141,389.0375,445.4141,397.0375,445.4141" style="stroke:#1963A0;stroke-width:1.0;"/><text fill="#000000" font-family="sans-serif" font-size="11" lengthAdjust="spacingAndGlyphs" textLength="71" x="402.0375" y="446.6245">undo(Game)</text><polygon fill="#4177AF" points="393.0375,452.2188,389.0375,458.2188,397.0375,458.2188" style="stroke:#1963A0;stroke-width:1.0;"/><text fill="#000000" font-family="sans-serif" font-size="11" lengthAdjust="spacingAndGlyphs" textLength="69" x="402.0375" y="459.4292">redo(Game)</text><polygon fill="#4177AF" points="393.0375,465.0234,389.0375,471.0234,397.0375,471.0234" style="stroke:#1963A0;stroke-width:1.0;"/><text fill="#000000" font-family="sans-serif" font-size="11" lengthAdjust="spacingAndGlyphs" textLength="114" x="402.0375" y="472.2339">undoable(): boolean</text><polygon fill="#4177AF" points="393.0375,477.8281,389.0375,483.8281,397.0375,483.8281" style="stroke:#1963A0;stroke-width:1.0;"/><text fill="#000000" font-family="sans-serif" font-size="11" lengthAdjust="spacingAndGlyphs" textLength="112" x="402.0375" y="485.0386">redoable(): boolean</text><polygon fill="#4177AF" points="393.0375,490.6328,389.0375,496.6328,397.0375,496.6328" style="stroke:#1963A0;stroke-width:1.0;"/><text fill="#000000" font-family="sans-serif" font-size="11" lengthAdjust="spacingAndGlyphs" textLength="38" x="402.0375" y="497.8433">reset()</text><!--MD5=[57d4493c2f012a8ac2b6a8a6201e3b67]
class usantatecla.mastermind.models.Session--><rect codeLine="88" fill="#FEFECE" filter="url(#f8ebfevfut1d2)" height="252.875" id="usantatecla.mastermind.models.Session" style="stroke:#A80036;stroke-width:1.5;" width="237" x="476.5375" y="41"/><ellipse cx="566.7875" cy="57" fill="#ADD1B2" rx="11" ry="11" style="stroke:#A80036;stroke-width:1.0;"/><path d="M569.1312,52.6719 C568.1937,52.2344 567.6,52.0938 566.725,52.0938 C564.1,52.0938 562.1,54.1719 562.1,56.8906 L562.1,58.0156 C562.1,60.5938 564.2093,62.4844 567.1,62.4844 C568.3187,62.4844 569.475,62.1875 570.225,61.6406 C570.8031,61.2344 571.1312,60.7813 571.1312,60.3906 C571.1312,59.9375 570.7406,59.5469 570.2718,59.5469 C570.0531,59.5469 569.85,59.625 569.6625,59.8125 C569.2093,60.2969 569.2093,60.2969 569.0218,60.3906 C568.6,60.6563 567.9125,60.7813 567.1468,60.7813 C565.1,60.7813 563.8031,59.6875 563.8031,57.9844 L563.8031,56.8906 C563.8031,55.1094 565.0531,53.7969 566.7875,53.7969 C567.3656,53.7969 567.975,53.9531 568.4437,54.2031 C568.9281,54.4844 569.1,54.7031 569.1937,55.1094 C569.2562,55.5156 569.2875,55.6406 569.4281,55.7656 C569.5687,55.9063 569.8031,56.0156 570.0218,56.0156 C570.2875,56.0156 570.5531,55.875 570.725,55.6563 C570.8343,55.5 570.8656,55.3125 570.8656,54.8906 L570.8656,53.4688 C570.8656,53.0313 570.85,52.9063 570.7562,52.75 C570.6,52.4844 570.3187,52.3438 570.0218,52.3438 C569.725,52.3438 569.5218,52.4375 569.3031,52.75 L569.1312,52.6719 Z " fill="#000000"/><text fill="#000000" font-family="sans-serif" font-size="12" lengthAdjust="spacingAndGlyphs" textLength="48" x="587.2875" y="61.1543">Session</text><line style="stroke:#A80036;stroke-width:1.5;" x1="477.5375" x2="712.5375" y1="73" y2="73"/><line style="stroke:#A80036;stroke-width:1.5;" x1="477.5375" x2="712.5375" y1="81" y2="81"/><ellipse cx="487.5375" cy="92" fill="#84BE84" rx="3" ry="3" style="stroke:#038048;stroke-width:1.0;"/><text fill="#000000" font-family="sans-serif" font-size="11" lengthAdjust="spacingAndGlyphs" textLength="83" x="496.5375" y="95.2104">Session(TCPIP)</text><ellipse cx="487.5375" cy="104.8047" fill="#84BE84" rx="3" ry="3" style="stroke:#038048;stroke-width:1.0;"/><text fill="#000000" font-family="sans-serif" font-size="11" lengthAdjust="spacingAndGlyphs" textLength="34" x="496.5375" y="108.0151">next()</text><ellipse cx="487.5375" cy="117.6094" fill="#84BE84" rx="3" ry="3" style="stroke:#038048;stroke-width:1.0;"/><text fill="#000000" font-family="sans-serif" font-size="11" lengthAdjust="spacingAndGlyphs" textLength="211" x="496.5375" y="120.8198">addProposeCombination(List&lt;Color&gt;)</text><ellipse cx="487.5375" cy="130.4141" fill="#84BE84" rx="3" ry="3" style="stroke:#038048;stroke-width:1.0;"/><text fill="#000000" font-family="sans-serif" font-size="11" lengthAdjust="spacingAndGlyphs" textLength="114" x="496.5375" y="133.6245">undoable(): boolean</text><ellipse cx="487.5375" cy="143.2188" fill="#84BE84" rx="3" ry="3" style="stroke:#038048;stroke-width:1.0;"/><text fill="#000000" font-family="sans-serif" font-size="11" lengthAdjust="spacingAndGlyphs" textLength="112" x="496.5375" y="146.4292">redoable(): boolean</text><ellipse cx="487.5375" cy="156.0234" fill="#84BE84" rx="3" ry="3" style="stroke:#038048;stroke-width:1.0;"/><text fill="#000000" font-family="sans-serif" font-size="11" lengthAdjust="spacingAndGlyphs" textLength="36" x="496.5375" y="159.2339">undo()</text><ellipse cx="487.5375" cy="168.8281" fill="#84BE84" rx="3" ry="3" style="stroke:#038048;stroke-width:1.0;"/><text fill="#000000" font-family="sans-serif" font-size="11" lengthAdjust="spacingAndGlyphs" textLength="34" x="496.5375" y="172.0386">redo()</text><ellipse cx="487.5375" cy="181.6328" fill="#84BE84" rx="3" ry="3" style="stroke:#038048;stroke-width:1.0;"/><text fill="#000000" font-family="sans-serif" font-size="11" lengthAdjust="spacingAndGlyphs" textLength="71" x="496.5375" y="184.8433">clearGame()</text><ellipse cx="487.5375" cy="194.4375" fill="#84BE84" rx="3" ry="3" style="stroke:#038048;stroke-width:1.0;"/><text fill="#000000" font-family="sans-serif" font-size="11" lengthAdjust="spacingAndGlyphs" textLength="110" x="496.5375" y="197.6479">isWinner(): boolean</text><ellipse cx="487.5375" cy="207.2422" fill="#84BE84" rx="3" ry="3" style="stroke:#038048;stroke-width:1.0;"/><text fill="#000000" font-family="sans-serif" font-size="11" lengthAdjust="spacingAndGlyphs" textLength="108" x="496.5375" y="210.4526">isLooser(): boolean</text><ellipse cx="487.5375" cy="220.0469" fill="#84BE84" rx="3" ry="3" style="stroke:#038048;stroke-width:1.0;"/><text fill="#000000" font-family="sans-serif" font-size="11" lengthAdjust="spacingAndGlyphs" textLength="80" x="496.5375" y="223.2573">getWidth(): int</text><ellipse cx="487.5375" cy="232.8516" fill="#84BE84" rx="3" ry="3" style="stroke:#038048;stroke-width:1.0;"/><text fill="#000000" font-family="sans-serif" font-size="11" lengthAdjust="spacingAndGlyphs" textLength="100" x="496.5375" y="236.062">getAttempts(): int</text><ellipse cx="487.5375" cy="245.6563" fill="#84BE84" rx="3" ry="3" style="stroke:#038048;stroke-width:1.0;"/><text fill="#000000" font-family="sans-serif" font-size="11" lengthAdjust="spacingAndGlyphs" textLength="149" x="496.5375" y="248.8667">getColors(int): List&lt;Color&gt;</text><ellipse cx="487.5375" cy="258.4609" fill="#84BE84" rx="3" ry="3" style="stroke:#038048;stroke-width:1.0;"/><text fill="#000000" font-family="sans-serif" font-size="11" lengthAdjust="spacingAndGlyphs" textLength="98" x="496.5375" y="261.6714">getBlacks(int): int</text><ellipse cx="487.5375" cy="271.2656" fill="#84BE84" rx="3" ry="3" style="stroke:#038048;stroke-width:1.0;"/><text fill="#000000" font-family="sans-serif" font-size="11" lengthAdjust="spacingAndGlyphs" textLength="101" x="496.5375" y="274.4761">getWhites(int): int</text><ellipse cx="487.5375" cy="284.0703" fill="#84BE84" rx="3" ry="3" style="stroke:#038048;stroke-width:1.0;"/><text fill="#000000" font-family="sans-serif" font-size="11" lengthAdjust="spacingAndGlyphs" textLength="162" x="496.5375" y="287.2808">getValueState(): StateValue</text><!--MD5=[fb9f5a10625edc9f9448ff88fc48054a]
class usantatecla.mastermind.models.State--><rect codeLine="114" fill="#FEFECE" filter="url(#f8ebfevfut1d2)" height="99.2188" id="usantatecla.mastermind.models.State" style="stroke:#A80036;stroke-width:1.5;" width="188" x="631.0375" y="379.5"/><ellipse cx="705.2875" cy="395.5" fill="#ADD1B2" rx="11" ry="11" style="stroke:#A80036;stroke-width:1.0;"/><path d="M707.6312,391.1719 C706.6937,390.7344 706.1,390.5938 705.225,390.5938 C702.6,390.5938 700.6,392.6719 700.6,395.3906 L700.6,396.5156 C700.6,399.0938 702.7093,400.9844 705.6,400.9844 C706.8187,400.9844 707.975,400.6875 708.725,400.1406 C709.3031,399.7344 709.6312,399.2813 709.6312,398.8906 C709.6312,398.4375 709.2406,398.0469 708.7718,398.0469 C708.5531,398.0469 708.35,398.125 708.1625,398.3125 C707.7093,398.7969 707.7093,398.7969 707.5218,398.8906 C707.1,399.1563 706.4125,399.2813 705.6468,399.2813 C703.6,399.2813 702.3031,398.1875 702.3031,396.4844 L702.3031,395.3906 C702.3031,393.6094 703.5531,392.2969 705.2875,392.2969 C705.8656,392.2969 706.475,392.4531 706.9437,392.7031 C707.4281,392.9844 707.6,393.2031 707.6937,393.6094 C707.7562,394.0156 707.7875,394.1406 707.9281,394.2656 C708.0687,394.4063 708.3031,394.5156 708.5218,394.5156 C708.7875,394.5156 709.0531,394.375 709.225,394.1563 C709.3343,394 709.3656,393.8125 709.3656,393.3906 L709.3656,391.9688 C709.3656,391.5313 709.35,391.4063 709.2562,391.25 C709.1,390.9844 708.8187,390.8438 708.5218,390.8438 C708.225,390.8438 708.0218,390.9375 707.8031,391.25 L707.6312,391.1719 Z " fill="#000000"/><text fill="#000000" font-family="sans-serif" font-size="12" lengthAdjust="spacingAndGlyphs" textLength="31" x="725.7875" y="399.6543">State</text><line style="stroke:#A80036;stroke-width:1.5;" x1="632.0375" x2="818.0375" y1="411.5" y2="411.5"/><line style="stroke:#A80036;stroke-width:1.5;" x1="632.0375" x2="818.0375" y1="419.5" y2="419.5"/><polygon fill="#4177AF" points="642.0375,426.5,638.0375,432.5,646.0375,432.5" style="stroke:#1963A0;stroke-width:1.0;"/><text fill="#000000" font-family="sans-serif" font-size="11" lengthAdjust="spacingAndGlyphs" textLength="39" x="651.0375" y="433.7104">State()</text><polygon fill="#4177AF" points="642.0375,439.3047,638.0375,445.3047,646.0375,445.3047" style="stroke:#1963A0;stroke-width:1.0;"/><text fill="#000000" font-family="sans-serif" font-size="11" lengthAdjust="spacingAndGlyphs" textLength="34" x="651.0375" y="446.5151">next()</text><polygon fill="#4177AF" points="642.0375,452.1094,638.0375,458.1094,646.0375,458.1094" style="stroke:#1963A0;stroke-width:1.0;"/><text fill="#000000" font-family="sans-serif" font-size="11" lengthAdjust="spacingAndGlyphs" textLength="38" x="651.0375" y="459.3198">reset()</text><polygon fill="#4177AF" points="642.0375,464.9141,638.0375,470.9141,646.0375,470.9141" style="stroke:#1963A0;stroke-width:1.0;"/><text fill="#000000" font-family="sans-serif" font-size="11" lengthAdjust="spacingAndGlyphs" textLength="162" x="651.0375" y="472.1245">getValueState(): StateValue</text><!--MD5=[d053cbc18720e45a198f4fc3b35f8a19]
class usantatecla.mastermind.models.StateValue--><rect codeLine="122" fill="#FEFECE" filter="url(#f8ebfevfut1d2)" height="99.2188" id="usantatecla.mastermind.models.StateValue" style="stroke:#A80036;stroke-width:1.5;" width="96" x="673.0375" y="628"/><ellipse cx="688.0375" cy="644" fill="#EB937F" rx="11" ry="11" style="stroke:#A80036;stroke-width:1.0;"/><path d="M686.8343,644.875 L688.2875,644.875 L688.2875,644.9844 C688.2875,645.3906 688.3187,645.5469 688.3968,645.7031 C688.5531,645.9531 688.8343,646.1094 689.1312,646.1094 C689.3812,646.1094 689.6468,645.9688 689.8031,645.75 C689.9281,645.5938 689.9593,645.4375 689.9593,644.9844 L689.9593,643.0625 C689.9593,642.9063 689.9593,642.8594 689.9437,642.7031 C689.8812,642.2344 689.5687,641.9219 689.1156,641.9219 C688.8656,641.9219 688.6,642.0625 688.4281,642.2813 C688.3187,642.4531 688.2875,642.6094 688.2875,643.0625 L688.2875,643.1875 L686.8343,643.1875 L686.8343,640.7813 L690.8187,640.7813 L690.8187,641.6406 C690.8187,642.0469 690.85,642.2188 690.9281,642.375 C691.1,642.625 691.3812,642.7813 691.6625,642.7813 C691.9281,642.7813 692.1937,642.6406 692.3656,642.4219 C692.475,642.25 692.5062,642.1094 692.5062,641.6406 L692.5062,639.0938 L684.8812,639.0938 C684.4437,639.0938 684.3187,639.1094 684.1625,639.2031 C683.9125,639.3594 683.7562,639.6563 683.7562,639.9375 C683.7562,640.2188 683.8968,640.4688 684.1156,640.6406 C684.2718,640.75 684.4593,640.7813 684.8812,640.7813 L685.1312,640.7813 L685.1312,647.2969 L684.8812,647.2969 C684.475,647.2969 684.3187,647.3125 684.1625,647.4219 C683.9125,647.5938 683.7562,647.8594 683.7562,648.1563 C683.7562,648.4219 683.8968,648.6719 684.1156,648.8281 C684.2562,648.9531 684.4906,649 684.8812,649 L692.8812,649 L692.8812,646.4219 C692.8812,645.9844 692.85,645.8438 692.7718,645.6875 C692.6,645.4375 692.3187,645.2813 692.0375,645.2813 C691.7718,645.2813 691.5062,645.3906 691.3343,645.6406 C691.225,645.7969 691.1937,645.9375 691.1937,646.4219 L691.1937,647.2969 L686.8343,647.2969 L686.8343,644.875 Z " fill="#000000"/><text fill="#000000" font-family="sans-serif" font-size="12" lengthAdjust="spacingAndGlyphs" textLength="64" x="702.0375" y="648.1543">StateValue</text><line style="stroke:#A80036;stroke-width:1.5;" x1="674.0375" x2="768.0375" y1="660" y2="660"/><ellipse cx="684.0375" cy="671" fill="none" rx="3" ry="3" style="stroke:#038048;stroke-width:1.0;"/><text fill="#000000" font-family="sans-serif" font-size="11" lengthAdjust="spacingAndGlyphs" textLength="38" x="693.0375" y="674.2104">INITIAL</text><ellipse cx="684.0375" cy="683.8047" fill="none" rx="3" ry="3" style="stroke:#038048;stroke-width:1.0;"/><text fill="#000000" font-family="sans-serif" font-size="11" lengthAdjust="spacingAndGlyphs" textLength="50" x="693.0375" y="687.0151">IN_GAME</text><ellipse cx="684.0375" cy="696.6094" fill="none" rx="3" ry="3" style="stroke:#038048;stroke-width:1.0;"/><text fill="#000000" font-family="sans-serif" font-size="11" lengthAdjust="spacingAndGlyphs" textLength="31" x="693.0375" y="699.8198">FINAL</text><ellipse cx="684.0375" cy="709.4141" fill="none" rx="3" ry="3" style="stroke:#038048;stroke-width:1.0;"/><text fill="#000000" font-family="sans-serif" font-size="11" lengthAdjust="spacingAndGlyphs" textLength="25" x="693.0375" y="712.6245">EXIT</text><line style="stroke:#A80036;stroke-width:1.5;" x1="674.0375" x2="768.0375" y1="719.2188" y2="719.2188"/><!--MD5=[18eee71c88ab61f27581b8cbdd3ef5ee]
class Color--><rect codeLine="1" fill="#FEFECE" filter="url(#f8ebfevfut1d2)" height="67.9063" id="Color" style="stroke:#A80036;stroke-width:1.5;" width="143" x="815.5375" y="1393"/><ellipse cx="830.5375" cy="1418.9531" fill="#EB937F" rx="11" ry="11" style="stroke:#A80036;stroke-width:1.0;"/><path d="M829.3343,1419.8281 L830.7875,1419.8281 L830.7875,1419.9375 C830.7875,1420.3438 830.8187,1420.5 830.8968,1420.6563 C831.0531,1420.9063 831.3343,1421.0625 831.6312,1421.0625 C831.8812,1421.0625 832.1468,1420.9219 832.3031,1420.7031 C832.4281,1420.5469 832.4593,1420.3906 832.4593,1419.9375 L832.4593,1418.0156 C832.4593,1417.8594 832.4593,1417.8125 832.4437,1417.6563 C832.3812,1417.1875 832.0687,1416.875 831.6156,1416.875 C831.3656,1416.875 831.1,1417.0156 830.9281,1417.2344 C830.8187,1417.4063 830.7875,1417.5625 830.7875,1418.0156 L830.7875,1418.1406 L829.3343,1418.1406 L829.3343,1415.7344 L833.3187,1415.7344 L833.3187,1416.5938 C833.3187,1417 833.35,1417.1719 833.4281,1417.3281 C833.6,1417.5781 833.8812,1417.7344 834.1625,1417.7344 C834.4281,1417.7344 834.6937,1417.5938 834.8656,1417.375 C834.975,1417.2031 835.0062,1417.0625 835.0062,1416.5938 L835.0062,1414.0469 L827.3812,1414.0469 C826.9437,1414.0469 826.8187,1414.0625 826.6625,1414.1563 C826.4125,1414.3125 826.2562,1414.6094 826.2562,1414.8906 C826.2562,1415.1719 826.3968,1415.4219 826.6156,1415.5938 C826.7718,1415.7031 826.9593,1415.7344 827.3812,1415.7344 L827.6312,1415.7344 L827.6312,1422.25 L827.3812,1422.25 C826.975,1422.25 826.8187,1422.2656 826.6625,1422.375 C826.4125,1422.5469 826.2562,1422.8125 826.2562,1423.1094 C826.2562,1423.375 826.3968,1423.625 826.6156,1423.7813 C826.7562,1423.9063 826.9906,1423.9531 827.3812,1423.9531 L835.3812,1423.9531 L835.3812,1421.375 C835.3812,1420.9375 835.35,1420.7969 835.2718,1420.6406 C835.1,1420.3906 834.8187,1420.2344 834.5375,1420.2344 C834.2718,1420.2344 834.0062,1420.3438 833.8343,1420.5938 C833.725,1420.75 833.6937,1420.8906 833.6937,1421.375 L833.6937,1422.25 L829.3343,1422.25 L829.3343,1419.8281 Z " fill="#000000"/><text fill="#000000" font-family="sans-serif" font-size="12" lengthAdjust="spacingAndGlyphs" textLength="71" x="864.5375" y="1409.1387">usantatecla.</text><text fill="#000000" font-family="sans-serif" font-size="12" lengthAdjust="spacingAndGlyphs" textLength="111" x="844.5375" y="1423.1074">mastermind.types.</text><text fill="#000000" font-family="sans-serif" font-size="12" lengthAdjust="spacingAndGlyphs" textLength="32" x="884.0375" y="1437.0762">Color</text><line style="stroke:#A80036;stroke-width:1.5;" x1="816.5375" x2="957.5375" y1="1444.9063" y2="1444.9063"/><line style="stroke:#A80036;stroke-width:1.5;" x1="816.5375" x2="957.5375" y1="1452.9063" y2="1452.9063"/><!--MD5=[38245488e518838837f988240300d459]
class TCPIP--><rect codeLine="2" fill="#FEFECE" filter="url(#f8ebfevfut1d2)" height="53.9375" id="TCPIP" style="stroke:#A80036;stroke-width:1.5;" width="103" x="1082.5375" y="402"/><ellipse cx="1097.5375" cy="420.9688" fill="#ADD1B2" rx="11" ry="11" style="stroke:#A80036;stroke-width:1.0;"/><path d="M1099.8812,416.6406 C1098.9437,416.2031 1098.35,416.0625 1097.475,416.0625 C1094.85,416.0625 1092.85,418.1406 1092.85,420.8594 L1092.85,421.9844 C1092.85,424.5625 1094.9593,426.4531 1097.85,426.4531 C1099.0687,426.4531 1100.225,426.1563 1100.975,425.6094 C1101.5531,425.2031 1101.8812,424.75 1101.8812,424.3594 C1101.8812,423.9063 1101.4906,423.5156 1101.0218,423.5156 C1100.8031,423.5156 1100.6,423.5938 1100.4125,423.7813 C1099.9593,424.2656 1099.9593,424.2656 1099.7718,424.3594 C1099.35,424.625 1098.6625,424.75 1097.8968,424.75 C1095.85,424.75 1094.5531,423.6563 1094.5531,421.9531 L1094.5531,420.8594 C1094.5531,419.0781 1095.8031,417.7656 1097.5375,417.7656 C1098.1156,417.7656 1098.725,417.9219 1099.1937,418.1719 C1099.6781,418.4531 1099.85,418.6719 1099.9437,419.0781 C1100.0062,419.4844 1100.0375,419.6094 1100.1781,419.7344 C1100.3187,419.875 1100.5531,419.9844 1100.7718,419.9844 C1101.0375,419.9844 1101.3031,419.8438 1101.475,419.625 C1101.5843,419.4688 1101.6156,419.2813 1101.6156,418.8594 L1101.6156,417.4375 C1101.6156,417 1101.6,416.875 1101.5062,416.7188 C1101.35,416.4531 1101.0687,416.3125 1100.7718,416.3125 C1100.475,416.3125 1100.2718,416.4063 1100.0531,416.7188 L1099.8812,416.6406 Z " fill="#000000"/><text fill="#000000" font-family="sans-serif" font-size="12" lengthAdjust="spacingAndGlyphs" textLength="71" x="1111.5375" y="418.1387">usantatecla.</text><text fill="#000000" font-family="sans-serif" font-size="12" lengthAdjust="spacingAndGlyphs" textLength="57" x="1118.5375" y="432.1074">utils.TCPIP</text><line style="stroke:#A80036;stroke-width:1.5;" x1="1083.5375" x2="1184.5375" y1="439.9375" y2="439.9375"/><line style="stroke:#A80036;stroke-width:1.5;" x1="1083.5375" x2="1184.5375" y1="447.9375" y2="447.9375"/><!--MD5=[7a35cd41e558152cf7fe37e82b6d55e9]
link usantatecla.mastermind.models.Combination to Color--><path codeLine="9" d="M735.1293,919.4102 C735.1293,919.4102 810.4525,961.642 833.0375,997 C910.0725,1117.602 902.3205,1296.484 893.3405,1379.9675 " fill="none" id="usantatecla.mastermind.models.Combination-Color" style="stroke:#A80036;stroke-width:1.0;"/><polygon fill="#A80036" points="891.8435,1392.9967,896.8444,1384.512,892.4141,1388.0294,888.8967,1383.599,891.8435,1392.9967" style="stroke:#A80036;stroke-width:1.0;"/><line style="stroke:#A80036;stroke-width:1.0;" x1="892.4141" x2="893.327" y1="1388.0294" y2="1380.0816"/><polygon fill="#A80036" points="724.2185,914.415,728.0088,920.5496,735.1293,919.4102,731.339,913.2756,724.2185,914.415" style="stroke:#A80036;stroke-width:1.0;"/><text fill="#000000" font-family="sans-serif" font-size="13" lengthAdjust="spacingAndGlyphs" textLength="7" x="885.1006" y="1381.9149">*</text><!--MD5=[12c828a60891e76557ccb918ce156a05]
link usantatecla.mastermind.models.Game to usantatecla.mastermind.models.SecretCombination--><path codeLine="27" d="M549.2847,802.4887 C549.2847,802.4887 579.5035,894.536 598.0375,937 C610.0345,964.487 626.2075,993.738 640.1865,1017.329 " fill="none" id="usantatecla.mastermind.models.Game-usantatecla.mastermind.models.SecretCombination" style="stroke:#A80036;stroke-width:1.0;"/><polygon fill="#A80036" points="647.0525,1028.766,645.8494,1018.9909,644.4788,1024.4792,638.9905,1023.1087,647.0525,1028.766" style="stroke:#A80036;stroke-width:1.0;"/><line style="stroke:#A80036;stroke-width:1.0;" x1="644.4788" x2="640.3605" y1="1024.4792" y2="1017.62"/><polygon fill="#A80036" points="545.7665,791.016,543.7014,797.9251,549.2847,802.4887,551.3498,795.5796,545.7665,791.016" style="stroke:#A80036;stroke-width:1.0;"/><!--MD5=[280ea308128396330f7bbc2193cef62d]
link usantatecla.mastermind.models.Game to usantatecla.mastermind.models.Result--><path codeLine="28" d="M497.5038,803.268 C497.5038,803.268 488.0954,1028.153 526.0375,1135 C532.0895,1152.042 541.3575,1168.608 551.8425,1183.858 " fill="none" id="usantatecla.mastermind.models.Game-usantatecla.mastermind.models.Result" style="stroke:#A80036;stroke-width:1.0;"/><polygon fill="#A80036" points="559.6635,1194.719,557.6502,1185.0781,556.7416,1190.6615,551.1582,1189.753,559.6635,1194.719" style="stroke:#A80036;stroke-width:1.0;"/><line style="stroke:#A80036;stroke-width:1.0;" x1="556.7416" x2="552.066" y1="1190.6615" y2="1184.169"/><polygon fill="#A80036" points="498.6195,791.32,494.0789,796.9221,497.5038,803.268,502.0443,797.6659,498.6195,791.32" style="stroke:#A80036;stroke-width:1.0;"/><text fill="#000000" font-family="sans-serif" font-size="13" lengthAdjust="spacingAndGlyphs" textLength="23" x="528.7358" y="1183.8936">0..*</text><!--MD5=[e6a772672154e2b4215389ae3fc2764d]
link usantatecla.mastermind.models.Game to usantatecla.mastermind.models.ProposedCombination--><path codeLine="29" d="M385.6536,736.4007 C385.6536,736.4007 155.7885,876.527 96.0375,997 C68.7857,1051.947 65.2527,1081.952 96.0375,1135 C118.4455,1173.614 157.3625,1201.563 196.5355,1221.299 " fill="none" id="usantatecla.mastermind.models.Game-usantatecla.mastermind.models.ProposedCombination" style="stroke:#A80036;stroke-width:1.0;"/><polygon fill="#A80036" points="208.4045,1227.034,202.0417,1219.5164,203.9026,1224.8583,198.5606,1226.7193,208.4045,1227.034" style="stroke:#A80036;stroke-width:1.0;"/><line style="stroke:#A80036;stroke-width:1.0;" x1="203.9026" x2="196.6994" y1="1224.8583" y2="1221.378"/><polygon fill="#A80036" points="396.3004,730.865,389.1318,730.0839,385.6536,736.4007,392.8223,737.1818,396.3004,730.865" style="stroke:#A80036;stroke-width:1.0;"/><text fill="#000000" font-family="sans-serif" font-size="13" lengthAdjust="spacingAndGlyphs" textLength="23" x="177.5162" y="1221.2495">0..*</text><!--MD5=[b4e4b033f4549980e05edd2cfe7d119d]
link usantatecla.mastermind.models.Game to usantatecla.mastermind.models.Memento--><path codeLine="30" d="M444.8445,791.071 C404.3515,856.011 354.6215,935.765 319.2854,992.434 " fill="none" id="usantatecla.mastermind.models.Game-to-usantatecla.mastermind.models.Memento" style="stroke:#A80036;stroke-width:1.0;stroke-dasharray:7.0,7.0;"/><polygon fill="#A80036" points="316.5535,996.815,324.7098,991.2946,319.1991,992.5723,317.9214,987.0616,316.5535,996.815" style="stroke:#A80036;stroke-width:1.0;"/><!--MD5=[01a99d6913bdd4a18a81374246c9149d]
link usantatecla.mastermind.models.Game to usantatecla.mastermind.models.Combination--><path codeLine="31" d="M596.3955,791.09 C610.5455,810.671 624.5235,830.015 636.4365,846.501 " fill="none" id="usantatecla.mastermind.models.Game-to-usantatecla.mastermind.models.Combination" style="stroke:#A80036;stroke-width:1.0;stroke-dasharray:7.0,7.0;"/><polygon fill="#A80036" points="639.4195,850.629,637.3904,840.9914,636.491,846.5763,630.9061,845.6769,639.4195,850.629" style="stroke:#A80036;stroke-width:1.0;"/><!--MD5=[d42c6541bf6356f83238a09d3722b353]
link usantatecla.mastermind.models.Game to Color--><path codeLine="32" d="M633.7195,774.844 C640.8925,780.363 648.0365,785.784 655.0375,791 C764.8155,872.791 820.4575,875.762 884.0375,997 C958.7815,1139.526 961.3615,1200.694 923.0375,1357 C920.4145,1367.6972 915.8125,1378.578 910.7565,1388.4409 " fill="none" id="usantatecla.mastermind.models.Game-to-Color" style="stroke:#A80036;stroke-width:1.0;stroke-dasharray:7.0,7.0;"/><polygon fill="#A80036" points="908.4075,1392.8965,916.1435,1386.8011,910.7396,1388.4737,909.067,1383.0698,908.4075,1392.8965" style="stroke:#A80036;stroke-width:1.0;"/><!--MD5=[7cc7531928e45531ce0658eadd8d0dda]
link usantatecla.mastermind.models.Memento to usantatecla.mastermind.models.Result--><path codeLine="43" d="M406.2929,1140.851 C406.2929,1140.851 504.6135,1195.755 545.4075,1218.534 " fill="none" id="usantatecla.mastermind.models.Memento-usantatecla.mastermind.models.Result" style="stroke:#A80036;stroke-width:1.0;"/><polygon fill="#A80036" points="556.9095,1224.957,551.0021,1217.0765,552.5441,1222.5191,547.1014,1224.0611,556.9095,1224.957" style="stroke:#A80036;stroke-width:1.0;"/><line style="stroke:#A80036;stroke-width:1.0;" x1="552.5441" x2="545.56" y1="1222.5191" y2="1218.6195"/><polygon fill="#A80036" points="395.8155,1135.001,399.1042,1141.4185,406.2929,1140.851,403.0042,1134.4335,395.8155,1135.001" style="stroke:#A80036;stroke-width:1.0;"/><text fill="#000000" font-family="sans-serif" font-size="13" lengthAdjust="spacingAndGlyphs" textLength="7" x="542.0751" y="1216.9606">*</text><!--MD5=[fdb26e297b5f301854d1d570f29f743f]
link usantatecla.mastermind.models.Memento to usantatecla.mastermind.models.ProposedCombination--><path codeLine="44" d="M292.7378,1146.6837 C292.7378,1146.6837 301.6205,1184.529 305.6255,1201.593 " fill="none" id="usantatecla.mastermind.models.Memento-usantatecla.mastermind.models.ProposedCombination" style="stroke:#A80036;stroke-width:1.0;"/><polygon fill="#A80036" points="308.5995,1214.263,310.4374,1204.5872,307.4571,1209.3952,302.649,1206.4149,308.5995,1214.263" style="stroke:#A80036;stroke-width:1.0;"/><line style="stroke:#A80036;stroke-width:1.0;" x1="307.4571" x2="305.629" y1="1209.3952" y2="1201.6075"/><polygon fill="#A80036" points="289.9965,1135.001,287.4729,1141.7561,292.7378,1146.6837,295.2613,1139.9286,289.9965,1135.001" style="stroke:#A80036;stroke-width:1.0;"/><text fill="#000000" font-family="sans-serif" font-size="13" lengthAdjust="spacingAndGlyphs" textLength="7" x="299.4988" y="1203.2749">*</text><!--MD5=[c8e3115d06e825a18a556418b72e64a9]
reverse link usantatecla.mastermind.models.Combination to usantatecla.mastermind.models.ProposedCombination--><path codeLine="52" d="M598.9055,935.974 C573.8455,952.708 546.7805,973.641 526.0375,997 C479.6855,1049.196 493.1385,1079.319 451.0375,1135 C429.4625,1163.534 401.5515,1191.708 377.0395,1214.329 " fill="none" id="usantatecla.mastermind.models.Combination-backto-usantatecla.mastermind.models.ProposedCombination" style="stroke:#A80036;stroke-width:1.0;"/><polygon fill="none" points="595.2245,930.018,615.8315,925.082,602.8005,941.791,595.2245,930.018" style="stroke:#A80036;stroke-width:1.0;"/><!--MD5=[f29c4a14d129a58d848eec9cd947b4db]
link usantatecla.mastermind.models.ProposedCombination to Color--><path codeLine="53" d="M423.7155,1313.61 C459.6575,1329.097 500.5864,1345.244 539.0375,1357 C630.4955,1384.963 739.0325,1404.3891 810.2845,1415.3468 " fill="none" id="usantatecla.mastermind.models.ProposedCombination-to-Color" style="stroke:#A80036;stroke-width:1.0;stroke-dasharray:7.0,7.0;"/><polygon fill="#A80036" points="815.3495,1416.1212,807.0574,1410.8069,810.4069,1415.3655,805.8483,1418.715,815.3495,1416.1212" style="stroke:#A80036;stroke-width:1.0;"/><!--MD5=[0f3a96e3905d4a800402494415e250c4]
link usantatecla.mastermind.models.Registry to usantatecla.mastermind.models.Memento--><path codeLine="65" d="M401.1488,514.6364 C401.1488,514.6364 384.9444,547.953 379.0375,564 C326.4475,706.868 297.2234,882.874 283.6425,983.692 " fill="none" id="usantatecla.mastermind.models.Registry-usantatecla.mastermind.models.Memento" style="stroke:#A80036;stroke-width:1.0;"/><polygon fill="#A80036" points="281.9065,996.807,287.0528,988.4097,282.5625,991.8502,279.122,987.36,281.9065,996.807" style="stroke:#A80036;stroke-width:1.0;"/><line style="stroke:#A80036;stroke-width:1.0;" x1="282.5625" x2="283.612" y1="991.8502" y2="983.919"/><polygon fill="#A80036" points="406.7295,504.013,400.398,507.4645,401.1488,514.6364,407.4802,511.1849,406.7295,504.013" style="stroke:#A80036;stroke-width:1.0;"/><text fill="#000000" font-family="sans-serif" font-size="13" lengthAdjust="spacingAndGlyphs" textLength="7" x="275.357" y="985.9907">*</text><!--MD5=[66eb1f73006288237bc7dfb21b3b50e3]
link usantatecla.mastermind.models.Registry to usantatecla.mastermind.models.Game--><path codeLine="66" d="M473.9963,515.9184 C473.9963,515.9184 480.0225,539.496 482.9224,550.846 " fill="none" id="usantatecla.mastermind.models.Registry-usantatecla.mastermind.models.Game" style="stroke:#A80036;stroke-width:1.0;"/><polygon fill="#A80036" points="486.1955,563.651,487.8417,553.9407,484.9571,558.8068,480.091,555.9221,486.1955,563.651" style="stroke:#A80036;stroke-width:1.0;"/><line style="stroke:#A80036;stroke-width:1.0;" x1="484.9571" x2="482.977" y1="558.8068" y2="551.056"/><polygon fill="#A80036" points="471.0255,504.292,468.6354,511.0955,473.9963,515.9184,476.3864,509.1149,471.0255,504.292" style="stroke:#A80036;stroke-width:1.0;"/><!--MD5=[6f6994a70a46872d34bd35a5dd21f76b]
link usantatecla.mastermind.models.Result to usantatecla.mastermind.models.Combination--><path codeLine="77" d="M693.0935,1236.829 C736.2545,1216.247 788.5935,1182.961 814.0375,1135 C842.7805,1080.819 842.2105,1051.48 814.0375,997 C796.0645,962.244 760.1825,936.779 728.7355,919.986 " fill="none" id="usantatecla.mastermind.models.Result-to-usantatecla.mastermind.models.Combination" style="stroke:#A80036;stroke-width:1.0;stroke-dasharray:7.0,7.0;"/><polygon fill="#A80036" points="724.1305,917.571,730.2436,925.293,728.5586,919.893,733.9587,918.208,724.1305,917.571" style="stroke:#A80036;stroke-width:1.0;"/><!--MD5=[c1581850849ed6ede223799cd35a067f]
reverse link usantatecla.mastermind.models.Combination to usantatecla.mastermind.models.SecretCombination--><path codeLine="83" d="M670.0375,957.308 C670.0375,981.406 670.0375,1008.129 670.0375,1028.926 " fill="none" id="usantatecla.mastermind.models.Combination-backto-usantatecla.mastermind.models.SecretCombination" style="stroke:#A80036;stroke-width:1.0;"/><polygon fill="none" points="663.0375,957.023,670.0375,937.022,677.0375,957.022,663.0375,957.023" style="stroke:#A80036;stroke-width:1.0;"/><!--MD5=[37df5b907d636f1fcade6857244b0a7e]
link usantatecla.mastermind.models.SecretCombination to usantatecla.mastermind.models.Result--><path codeLine="84" d="M661.6785,1103.407 C656.1285,1127.581 648.6475,1160.165 641.8925,1189.588 " fill="none" id="usantatecla.mastermind.models.SecretCombination-to-usantatecla.mastermind.models.Result" style="stroke:#A80036;stroke-width:1.0;stroke-dasharray:7.0,7.0;"/><polygon fill="#A80036" points="640.7275,1194.66,646.6391,1186.7827,641.8458,1189.7867,638.8418,1184.9933,640.7275,1194.66" style="stroke:#A80036;stroke-width:1.0;"/><!--MD5=[be5e6334e25a1733719410e897fbe715]
link usantatecla.mastermind.models.SecretCombination to usantatecla.mastermind.models.ProposedCombination--><path codeLine="85" d="M605.4345,1103.178 C550.9555,1133.686 472.3504,1177.705 411.4224,1211.824 " fill="none" id="usantatecla.mastermind.models.SecretCombination-to-usantatecla.mastermind.models.ProposedCombination" style="stroke:#A80036;stroke-width:1.0;stroke-dasharray:7.0,7.0;"/><polygon fill="#A80036" points="406.6975,1214.47,416.5042,1213.5607,411.0595,1212.0262,412.5941,1206.5814,406.6975,1214.47" style="stroke:#A80036;stroke-width:1.0;"/><!--MD5=[e41eb31a07e3391b118b54a8a827bca8]
link usantatecla.mastermind.models.SecretCombination to Color--><path codeLine="86" d="M691.8375,1103.066 C733.1165,1171.356 822.3045,1318.907 864.2985,1388.3803 " fill="none" id="usantatecla.mastermind.models.SecretCombination-to-Color" style="stroke:#A80036;stroke-width:1.0;stroke-dasharray:7.0,7.0;"/><polygon fill="#A80036" points="866.9945,1392.8418,865.7614,1383.0704,864.4077,1388.5629,858.9152,1387.2092,866.9945,1392.8418" style="stroke:#A80036;stroke-width:1.0;"/><!--MD5=[57104eaeca2c6a63cb966fb4840c23f7]
link usantatecla.mastermind.models.Session to usantatecla.mastermind.models.State--><path codeLine="106" d="M663.3227,304.7968 C663.3227,304.7968 685.3195,348.72 694.6585,367.36 " fill="none" id="usantatecla.mastermind.models.Session-usantatecla.mastermind.models.State" style="stroke:#A80036;stroke-width:1.0;"/><polygon fill="#A80036" points="700.5895,379.2,700.1403,369.3614,698.3525,374.7283,692.9856,372.9405,700.5895,379.2" style="stroke:#A80036;stroke-width:1.0;"/><line style="stroke:#A80036;stroke-width:1.0;" x1="698.3525" x2="694.7665" y1="374.7283" y2="367.575"/><polygon fill="#A80036" points="657.9435,294.07,657.0575,301.2265,663.3227,304.7968,664.2087,297.6403,657.9435,294.07" style="stroke:#A80036;stroke-width:1.0;"/><!--MD5=[351d28349d13c21601c987b8d0501494]
link usantatecla.mastermind.models.Session to usantatecla.mastermind.models.Game--><path codeLine="107" d="M573.4029,305.925 C573.4029,305.925 546.5025,476.697 534.8735,550.543 " fill="none" id="usantatecla.mastermind.models.Session-usantatecla.mastermind.models.Game" style="stroke:#A80036;stroke-width:1.0;"/><polygon fill="#A80036" points="532.8135,563.625,538.1642,555.3564,533.5909,558.6858,530.2614,554.1125,532.8135,563.625" style="stroke:#A80036;stroke-width:1.0;"/><line style="stroke:#A80036;stroke-width:1.0;" x1="533.5909" x2="534.8355" y1="558.6858" y2="550.7835"/><polygon fill="#A80036" points="575.2625,294.07,570.381,299.3777,573.4029,305.925,578.2843,300.6174,575.2625,294.07" style="stroke:#A80036;stroke-width:1.0;"/><!--MD5=[53fd54293451b4d3a90c3ecee2f2bc69]
link usantatecla.mastermind.models.Session to usantatecla.mastermind.models.Registry--><path codeLine="108" d="M520.0518,304.581 C520.0518,304.581 505.8395,330.37 499.3345,342.17 " fill="none" id="usantatecla.mastermind.models.Session-usantatecla.mastermind.models.Registry" style="stroke:#A80036;stroke-width:1.0;"/><polygon fill="#A80036" points="492.9405,353.77,500.792,347.8242,495.357,349.3928,493.7884,343.9577,492.9405,353.77" style="stroke:#A80036;stroke-width:1.0;"/><line style="stroke:#A80036;stroke-width:1.0;" x1="495.357" x2="499.2145" y1="349.3928" y2="342.39"/><polygon fill="#A80036" points="525.8415,294.07,519.443,297.3956,520.0518,304.581,526.4503,301.2554,525.8415,294.07" style="stroke:#A80036;stroke-width:1.0;"/><!--MD5=[c743fe4468d8cb20888d9e1b2fe12f48]
link usantatecla.mastermind.models.Session to TCPIP--><path codeLine="109" d="M725.1318,206.6323 C725.1318,206.6323 952.0495,288.28 1055.0375,354 C1071.7375,364.66 1088.0775,379.08 1101.5275,392.37 " fill="none" id="usantatecla.mastermind.models.Session-TCPIP" style="stroke:#A80036;stroke-width:1.0;"/><polygon fill="#A80036" points="1110.7675,401.77,1107.3106,392.5477,1107.2623,398.2044,1101.6056,398.156,1110.7675,401.77" style="stroke:#A80036;stroke-width:1.0;"/><line style="stroke:#A80036;stroke-width:1.0;" x1="1107.2623" x2="1101.6524" y1="398.2044" y2="392.5"/><polygon fill="#A80036" points="713.7205,202.92,718.1887,208.5799,725.1318,206.6323,720.6636,200.9724,713.7205,202.92" style="stroke:#A80036;stroke-width:1.0;"/><!--MD5=[c49e07871af8abf6b9a3f782d2225326]
link usantatecla.mastermind.models.Session to usantatecla.mastermind.models.ProposedCombination--><path codeLine="110" d="M476.5305,214.58 C313.7865,286.54 41.0375,442.1 41.0375,676.5 C41.0375,676.5 41.0375,676.5 41.0375,895 C41.0375,1002.291 6,1046.763 67.0375,1135 C99.2531,1181.571 153.6045,1212.135 203.6925,1231.673 " fill="none" id="usantatecla.mastermind.models.Session-to-usantatecla.mastermind.models.ProposedCombination" style="stroke:#A80036;stroke-width:1.0;stroke-dasharray:7.0,7.0;"/><polygon fill="#A80036" points="208.5255,1233.529,201.5584,1226.5677,203.858,1231.736,198.6896,1234.0356,208.5255,1233.529" style="stroke:#A80036;stroke-width:1.0;"/><!--MD5=[96a803e4d4741df100f451c19dfa9527]
link usantatecla.mastermind.models.Session to usantatecla.mastermind.models.StateValue--><path codeLine="111" d="M586.8605,294.3 C586.3945,358.46 591.6125,436.9 613.0375,504 C622.6395,534.069 634.2555,537.266 651.0375,564 C663.1585,583.308 676.3845,604.526 688.0445,623.282 " fill="none" id="usantatecla.mastermind.models.Session-to-usantatecla.mastermind.models.StateValue" style="stroke:#A80036;stroke-width:1.0;stroke-dasharray:7.0,7.0;"/><polygon fill="#A80036" points="690.9735,627.995,689.6194,618.2397,688.3339,623.7485,682.825,622.463,690.9735,627.995" style="stroke:#A80036;stroke-width:1.0;"/><!--MD5=[ccefd82823781e90db7f380222ba1bb7]
link usantatecla.mastermind.models.Session to Color--><path codeLine="112" d="M713.6295,238.23 C842.1295,323.75 1029.0375,481.624 1029.0375,676.5 C1029.0375,676.5 1029.0375,676.5 1029.0375,1067 C1029.0375,1199.385 1027.4275,1242.467 961.0375,1357 C954.2115,1368.7753 944.7385,1379.7436 934.8465,1389.3148 " fill="none" id="usantatecla.mastermind.models.Session-to-Color" style="stroke:#A80036;stroke-width:1.0;stroke-dasharray:7.0,7.0;"/><polygon fill="#A80036" points="931.1865,1392.7766,940.4736,1389.498,934.8189,1389.3407,934.9762,1383.6861,931.1865,1392.7766" style="stroke:#A80036;stroke-width:1.0;"/><!--MD5=[9023905e33852f54aab14668064e9227]
link usantatecla.mastermind.models.State to usantatecla.mastermind.models.StateValue--><path codeLine="120" d="M724.0523,490.6984 C724.0523,490.6984 722.6505,577.069 722.0425,614.579 " fill="none" id="usantatecla.mastermind.models.State-usantatecla.mastermind.models.StateValue" style="stroke:#A80036;stroke-width:1.0;"/><polygon fill="#A80036" points="721.8265,627.901,725.9713,618.9668,721.9072,622.9017,717.9724,618.8376,721.8265,627.901" style="stroke:#A80036;stroke-width:1.0;"/><line style="stroke:#A80036;stroke-width:1.0;" x1="721.9072" x2="722.037" y1="622.9017" y2="614.9025"/><polygon fill="#A80036" points="724.2475,478.7,720.1504,484.6342,724.0523,490.6984,728.1493,484.7643,724.2475,478.7" style="stroke:#A80036;stroke-width:1.0;"/><!--MD5=[dad666621b863b43c9d4fc297b770e0a]
@startuml
enum Color as "usantatecla.\nmastermind.types.\nColor"
class TCPIP as "usantatecla.\nutils.TCPIP"

abstract class usantatecla.mastermind.models.Combination {
    - {static} WIDTH: int
    # Combination()
    + {static} getWidth(): int
}
usantatecla.mastermind.models.Combination *-down-> "*" Color

class usantatecla.mastermind.models.Game {
    - {static} MAX_LONG: int
    - attempts: int
    ~ Game()
    ~ clear()
    ~ addProposeCombination(List<Color>)
    ~ createMemento(): Memento
    ~ set(Memento)
    ~ isLooser(): boolean
    ~ isWinner(): boolean
    ~ getAttempts(): int
    ~ getColors(int): List<Color>
    ~ getBlacks(int): int
    ~ getWhites(int): int
    ~ getWidth(): int
}
usantatecla.mastermind.models.Game *-down-> usantatecla.mastermind.models.SecretCombination
usantatecla.mastermind.models.Game *-down-> "0..*" usantatecla.mastermind.models.Result
usantatecla.mastermind.models.Game *-down-> "0..*" usantatecla.mastermind.models.ProposedCombination
usantatecla.mastermind.models.Game .down.> usantatecla.mastermind.models.Memento
usantatecla.mastermind.models.Game .down.> usantatecla.mastermind.models.Combination
usantatecla.mastermind.models.Game .down.> Color

class  usantatecla.mastermind.models.Memento{
    - attempts: int
    ~ Memento(int)
    ~ set(ProposedCombination, Result)
    ~ getProposedCombination(int): ProposedCombination
    ~ getResult(int): Result
    ~ getSize(): int
    ~ getAttempts(): int
}
usantatecla.mastermind.models.Memento *-down-> "*"usantatecla.mastermind.models.Result
usantatecla.mastermind.models.Memento *-down-> "*"usantatecla.mastermind.models.ProposedCombination

class usantatecla.mastermind.models.ProposedCombination {
    ~ ProposedCombination(List<Color>)
    ~ contains(Color, int): boolean
    ~ contains(Color): boolean
    ~ copy(): ProposedCombination
}
usantatecla.mastermind.models.Combination <|-down- usantatecla.mastermind.models.ProposedCombination
usantatecla.mastermind.models.ProposedCombination .down.> Color

class  usantatecla.mastermind.models.Registry{
    - firstPrevious: int
    ~ Registry(Game)
    ~ registry()
    ~ undo(Game)
    ~ redo(Game)
    ~ undoable(): boolean
    ~ redoable(): boolean
    ~ reset()
}
usantatecla.mastermind.models.Registry *-down-> "*"usantatecla.mastermind.models.Memento
usantatecla.mastermind.models.Registry *-down-> usantatecla.mastermind.models.Game

class usantatecla.mastermind.models.Result {
    - blacks: int
    - whites: int
    ~ Result(int, int)
    ~ isWinner(): boolean
    ~ getBlacks(): int
    ~ getWhites(): int
    ~ copy(): Result
}
usantatecla.mastermind.models.Result .down.> usantatecla.mastermind.models.Combination

class usantatecla.mastermind.models.SecretCombination {
    ~ SecretCombination()
    ~ getResult(ProposedCombination): Result
}
usantatecla.mastermind.models.Combination <|-down- usantatecla.mastermind.models.SecretCombination
usantatecla.mastermind.models.SecretCombination .down.> usantatecla.mastermind.models.Result
usantatecla.mastermind.models.SecretCombination .down.> usantatecla.mastermind.models.ProposedCombination
usantatecla.mastermind.models.SecretCombination .down.> Color

class  usantatecla.mastermind.models.Session{
    + Session(TCPIP)
    + next()
    + addProposeCombination(List<Color>)
    + undoable(): boolean
    + redoable(): boolean
    + undo()
    + redo()
    + clearGame()
    + isWinner(): boolean
    + isLooser(): boolean
    + getWidth(): int
    + getAttempts(): int
    + getColors(int): List<Color>
    + getBlacks(int): int
    + getWhites(int): int
    + getValueState(): StateValue
}
usantatecla.mastermind.models.Session *-down-> usantatecla.mastermind.models.State
usantatecla.mastermind.models.Session *-down-> usantatecla.mastermind.models.Game
usantatecla.mastermind.models.Session *-down-> usantatecla.mastermind.models.Registry
usantatecla.mastermind.models.Session *-down-> TCPIP
usantatecla.mastermind.models.Session .down.> usantatecla.mastermind.models.ProposedCombination
usantatecla.mastermind.models.Session .down.> usantatecla.mastermind.models.StateValue
usantatecla.mastermind.models.Session .down.> Color

class usantatecla.mastermind.models.State {
    ~ State()
    ~ next()
    ~ reset()
    ~ getValueState(): StateValue
}
usantatecla.mastermind.models.State *-down-> usantatecla.mastermind.models.StateValue

enum usantatecla.mastermind.models.StateValue {
    + INITIAL
    + IN_GAME
    + FINAL
    + EXIT
}
@enduml

PlantUML version 1.2020.24(Fri Dec 18 17:00:36 UTC 2020)
(GPL source distribution)
Java Runtime: Java(TM) SE Runtime Environment
JVM: Java HotSpot(TM) 64-Bit Server VM
Default Encoding: UTF-8
Language: en
Country: US
--></g></svg>