<?xml version="1.0" encoding="UTF-8" standalone="no"?><svg xmlns="http://www.w3.org/2000/svg" xmlns:xlink="http://www.w3.org/1999/xlink" contentScriptType="application/ecmascript" contentStyleType="text/css" height="606px" preserveAspectRatio="none" style="width:1242px;height:606px;" version="1.1" viewBox="0 0 1242 606" width="1242px" zoomAndPan="magnify"><defs><filter height="300%" id="f1mzv29hvyjad2" width="300%" x="-1" y="-1"><feGaussianBlur result="blurOut" stdDeviation="2.0"/><feColorMatrix in="blurOut" result="blurOut2" type="matrix" values="0 0 0 0 0 0 0 0 0 0 0 0 0 0 0 0 0 0 .4 0"/><feOffset dx="4.0" dy="4.0" in="blurOut2" result="blurOut3"/><feBlend in="SourceGraphic" in2="blurOut3" mode="normal"/></filter></defs><g><!--MD5=[908cbfa8709a8ec6ee3beb0409fea32c]
cluster usantatecla.utils--><polygon fill="#FFFFFF" filter="url(#f1mzv29hvyjad2)" points="16,6,162,6,169,28.2969,852,28.2969,852,495,16,495,16,6" style="stroke:#000000;stroke-width:1.5;"/><line style="stroke:#000000;stroke-width:1.5;" x1="16" x2="169" y1="28.2969" y2="28.2969"/><text fill="#000000" font-family="sans-serif" font-size="14" font-weight="bold" lengthAdjust="spacingAndGlyphs" textLength="140" x="20" y="20.9951">usantatecla.utils</text><!--MD5=[5f6eaca964039dd95284677bcb120bda]
class usantatecla.utils.views.ColorCode--><rect codeLine="6" fill="#FEFECE" filter="url(#f1mzv29hvyjad2)" height="188.8516" id="usantatecla.utils.views.ColorCode" style="stroke:#A80036;stroke-width:1.5;" width="183" x="246.5" y="41"/><ellipse cx="301.75" cy="57" fill="#EB937F" rx="11" ry="11" style="stroke:#A80036;stroke-width:1.0;"/><path d="M300.5469,57.875 L302,57.875 L302,57.9844 C302,58.3906 302.0313,58.5469 302.1094,58.7031 C302.2656,58.9531 302.5469,59.1094 302.8438,59.1094 C303.0938,59.1094 303.3594,58.9688 303.5156,58.75 C303.6406,58.5938 303.6719,58.4375 303.6719,57.9844 L303.6719,56.0625 C303.6719,55.9063 303.6719,55.8594 303.6563,55.7031 C303.5938,55.2344 303.2813,54.9219 302.8281,54.9219 C302.5781,54.9219 302.3125,55.0625 302.1406,55.2813 C302.0313,55.4531 302,55.6094 302,56.0625 L302,56.1875 L300.5469,56.1875 L300.5469,53.7813 L304.5313,53.7813 L304.5313,54.6406 C304.5313,55.0469 304.5625,55.2188 304.6406,55.375 C304.8125,55.625 305.0938,55.7813 305.375,55.7813 C305.6406,55.7813 305.9063,55.6406 306.0781,55.4219 C306.1875,55.25 306.2188,55.1094 306.2188,54.6406 L306.2188,52.0938 L298.5938,52.0938 C298.1563,52.0938 298.0313,52.1094 297.875,52.2031 C297.625,52.3594 297.4688,52.6563 297.4688,52.9375 C297.4688,53.2188 297.6094,53.4688 297.8281,53.6406 C297.9844,53.75 298.1719,53.7813 298.5938,53.7813 L298.8438,53.7813 L298.8438,60.2969 L298.5938,60.2969 C298.1875,60.2969 298.0313,60.3125 297.875,60.4219 C297.625,60.5938 297.4688,60.8594 297.4688,61.1563 C297.4688,61.4219 297.6094,61.6719 297.8281,61.8281 C297.9688,61.9531 298.2031,62 298.5938,62 L306.5938,62 L306.5938,59.4219 C306.5938,58.9844 306.5625,58.8438 306.4844,58.6875 C306.3125,58.4375 306.0313,58.2813 305.75,58.2813 C305.4844,58.2813 305.2188,58.3906 305.0469,58.6406 C304.9375,58.7969 304.9063,58.9375 304.9063,59.4219 L304.9063,60.2969 L300.5469,60.2969 L300.5469,57.875 Z " fill="#000000"/><text fill="#000000" font-family="sans-serif" font-size="12" lengthAdjust="spacingAndGlyphs" textLength="64" x="322.25" y="61.1543">ColorCode</text><line style="stroke:#A80036;stroke-width:1.5;" x1="247.5" x2="428.5" y1="73" y2="73"/><ellipse cx="257.5" cy="84" fill="none" rx="3" ry="3" style="stroke:#038048;stroke-width:1.0;"/><text fill="#000000" font-family="sans-serif" font-size="11" lengthAdjust="spacingAndGlyphs" textLength="23" x="266.5" y="87.2104">RED</text><ellipse cx="257.5" cy="96.8047" fill="none" rx="3" ry="3" style="stroke:#038048;stroke-width:1.0;"/><text fill="#000000" font-family="sans-serif" font-size="11" lengthAdjust="spacingAndGlyphs" textLength="29" x="266.5" y="100.0151">BLUE</text><ellipse cx="257.5" cy="109.6094" fill="none" rx="3" ry="3" style="stroke:#038048;stroke-width:1.0;"/><text fill="#000000" font-family="sans-serif" font-size="11" lengthAdjust="spacingAndGlyphs" textLength="46" x="266.5" y="112.8198">YELLOW</text><ellipse cx="257.5" cy="122.4141" fill="none" rx="3" ry="3" style="stroke:#038048;stroke-width:1.0;"/><text fill="#000000" font-family="sans-serif" font-size="11" lengthAdjust="spacingAndGlyphs" textLength="38" x="266.5" y="125.6245">GREEN</text><ellipse cx="257.5" cy="135.2188" fill="none" rx="3" ry="3" style="stroke:#038048;stroke-width:1.0;"/><text fill="#000000" font-family="sans-serif" font-size="11" lengthAdjust="spacingAndGlyphs" textLength="48" x="266.5" y="138.4292">ORANGE</text><ellipse cx="257.5" cy="148.0234" fill="none" rx="3" ry="3" style="stroke:#038048;stroke-width:1.0;"/><text fill="#000000" font-family="sans-serif" font-size="11" lengthAdjust="spacingAndGlyphs" textLength="40" x="266.5" y="151.2339">PURPLE</text><ellipse cx="257.5" cy="160.8281" fill="none" rx="3" ry="3" style="stroke:#038048;stroke-width:1.0;"/><text fill="#000000" font-family="sans-serif" font-size="11" lengthAdjust="spacingAndGlyphs" textLength="81" x="266.5" y="164.0386">RESET_COLOR</text><rect fill="none" height="6" style="stroke:#C82930;stroke-width:1.0;" width="6" x="254.5" y="170.6328"/><text fill="#000000" font-family="sans-serif" font-size="11" lengthAdjust="spacingAndGlyphs" textLength="67" x="266.5" y="176.8433">color: String</text><line style="stroke:#A80036;stroke-width:1.5;" x1="247.5" x2="428.5" y1="183.4375" y2="183.4375"/><polygon fill="#4177AF" points="257.5,190.4375,253.5,196.4375,261.5,196.4375" style="stroke:#1963A0;stroke-width:1.0;"/><text fill="#000000" font-family="sans-serif" font-size="11" lengthAdjust="spacingAndGlyphs" textLength="100" x="266.5" y="197.6479">ColorCode(String)</text><ellipse cx="257.5" cy="207.2422" fill="#84BE84" rx="3" ry="3" style="stroke:#038048;stroke-width:1.0;"/><text fill="#000000" font-family="sans-serif" font-size="11" lengthAdjust="spacingAndGlyphs" textLength="96" x="266.5" y="210.4526">getColor(): String</text><ellipse cx="257.5" cy="220.0469" fill="#84BE84" rx="3" ry="3" style="stroke:#038048;stroke-width:1.0;"/><text fill="#000000" font-family="sans-serif" font-size="11" lengthAdjust="spacingAndGlyphs" text-decoration="underline" textLength="157" x="266.5" y="223.2573">getColorByIndex(int): String</text><!--MD5=[5a5a2ad444bc00c1498d76ebf80a1dc4]
class usantatecla.utils.views.Console--><rect codeLine="20" fill="#FEFECE" filter="url(#f1mzv29hvyjad2)" height="188.8516" id="usantatecla.utils.views.Console" style="stroke:#A80036;stroke-width:1.5;" width="166" x="39" y="290"/><ellipse cx="93.25" cy="306" fill="#ADD1B2" rx="11" ry="11" style="stroke:#A80036;stroke-width:1.0;"/><path d="M95.5938,301.6719 C94.6563,301.2344 94.0625,301.0938 93.1875,301.0938 C90.5625,301.0938 88.5625,303.1719 88.5625,305.8906 L88.5625,307.0156 C88.5625,309.5938 90.6719,311.4844 93.5625,311.4844 C94.7813,311.4844 95.9375,311.1875 96.6875,310.6406 C97.2656,310.2344 97.5938,309.7813 97.5938,309.3906 C97.5938,308.9375 97.2031,308.5469 96.7344,308.5469 C96.5156,308.5469 96.3125,308.625 96.125,308.8125 C95.6719,309.2969 95.6719,309.2969 95.4844,309.3906 C95.0625,309.6563 94.375,309.7813 93.6094,309.7813 C91.5625,309.7813 90.2656,308.6875 90.2656,306.9844 L90.2656,305.8906 C90.2656,304.1094 91.5156,302.7969 93.25,302.7969 C93.8281,302.7969 94.4375,302.9531 94.9063,303.2031 C95.3906,303.4844 95.5625,303.7031 95.6563,304.1094 C95.7188,304.5156 95.75,304.6406 95.8906,304.7656 C96.0313,304.9063 96.2656,305.0156 96.4844,305.0156 C96.75,305.0156 97.0156,304.875 97.1875,304.6563 C97.2969,304.5 97.3281,304.3125 97.3281,303.8906 L97.3281,302.4688 C97.3281,302.0313 97.3125,301.9063 97.2188,301.75 C97.0625,301.4844 96.7813,301.3438 96.4844,301.3438 C96.1875,301.3438 95.9844,301.4375 95.7656,301.75 L95.5938,301.6719 Z " fill="#000000"/><text fill="#000000" font-family="sans-serif" font-size="12" lengthAdjust="spacingAndGlyphs" textLength="49" x="113.75" y="310.1543">Console</text><line style="stroke:#A80036;stroke-width:1.5;" x1="40" x2="204" y1="322" y2="322"/><rect fill="none" height="6" style="stroke:#C82930;stroke-width:1.0;" width="6" x="47" y="330"/><text fill="#000000" font-family="sans-serif" font-size="11" lengthAdjust="spacingAndGlyphs" text-decoration="underline" textLength="97" x="59" y="336.2104">console: Console</text><line style="stroke:#A80036;stroke-width:1.5;" x1="40" x2="204" y1="342.8047" y2="342.8047"/><ellipse cx="50" cy="353.8047" fill="#84BE84" rx="3" ry="3" style="stroke:#038048;stroke-width:1.0;"/><text fill="#000000" font-family="sans-serif" font-size="11" lengthAdjust="spacingAndGlyphs" text-decoration="underline" textLength="128" x="59" y="357.0151">getInstance(): Console</text><ellipse cx="50" cy="366.6094" fill="#84BE84" rx="3" ry="3" style="stroke:#038048;stroke-width:1.0;"/><text fill="#000000" font-family="sans-serif" font-size="11" lengthAdjust="spacingAndGlyphs" textLength="140" x="59" y="369.8198">readString(String): String</text><ellipse cx="50" cy="379.4141" fill="#84BE84" rx="3" ry="3" style="stroke:#038048;stroke-width:1.0;"/><text fill="#000000" font-family="sans-serif" font-size="11" lengthAdjust="spacingAndGlyphs" textLength="107" x="59" y="382.6245">readString(): String</text><ellipse cx="50" cy="392.2188" fill="#84BE84" rx="3" ry="3" style="stroke:#038048;stroke-width:1.0;"/><text fill="#000000" font-family="sans-serif" font-size="11" lengthAdjust="spacingAndGlyphs" textLength="102" x="59" y="395.4292">readInt(String): int</text><ellipse cx="50" cy="405.0234" fill="#84BE84" rx="3" ry="3" style="stroke:#038048;stroke-width:1.0;"/><text fill="#000000" font-family="sans-serif" font-size="11" lengthAdjust="spacingAndGlyphs" textLength="124" x="59" y="408.2339">readChar(String): char</text><ellipse cx="50" cy="417.8281" fill="#84BE84" rx="3" ry="3" style="stroke:#038048;stroke-width:1.0;"/><text fill="#000000" font-family="sans-serif" font-size="11" lengthAdjust="spacingAndGlyphs" textLength="46" x="59" y="421.0386">writeln()</text><ellipse cx="50" cy="430.6328" fill="#84BE84" rx="3" ry="3" style="stroke:#038048;stroke-width:1.0;"/><text fill="#000000" font-family="sans-serif" font-size="11" lengthAdjust="spacingAndGlyphs" textLength="69" x="59" y="433.8433">write(String)</text><ellipse cx="50" cy="443.4375" fill="#84BE84" rx="3" ry="3" style="stroke:#038048;stroke-width:1.0;"/><text fill="#000000" font-family="sans-serif" font-size="11" lengthAdjust="spacingAndGlyphs" textLength="79" x="59" y="446.6479">writeln(String)</text><ellipse cx="50" cy="456.2422" fill="#84BE84" rx="3" ry="3" style="stroke:#038048;stroke-width:1.0;"/><text fill="#000000" font-family="sans-serif" font-size="11" lengthAdjust="spacingAndGlyphs" textLength="60" x="59" y="459.4526">write(char)</text><rect fill="#F24D5C" height="6" style="stroke:#C82930;stroke-width:1.0;" width="6" x="47" y="466.0469"/><text fill="#000000" font-family="sans-serif" font-size="11" lengthAdjust="spacingAndGlyphs" textLength="95" x="59" y="472.2573">writeError(String)</text><!--MD5=[115031fed92a4467bd358dd9ee6729dd]
class usantatecla.utils.views.YesNoDialog--><rect codeLine="35" fill="#FEFECE" filter="url(#f1mzv29hvyjad2)" height="150.4375" id="usantatecla.utils.views.YesNoDialog" style="stroke:#A80036;stroke-width:1.5;" width="179" x="32.5" y="60.5"/><ellipse cx="79.75" cy="76.5" fill="#ADD1B2" rx="11" ry="11" style="stroke:#A80036;stroke-width:1.0;"/><path d="M82.0938,72.1719 C81.1563,71.7344 80.5625,71.5938 79.6875,71.5938 C77.0625,71.5938 75.0625,73.6719 75.0625,76.3906 L75.0625,77.5156 C75.0625,80.0938 77.1719,81.9844 80.0625,81.9844 C81.2813,81.9844 82.4375,81.6875 83.1875,81.1406 C83.7656,80.7344 84.0938,80.2813 84.0938,79.8906 C84.0938,79.4375 83.7031,79.0469 83.2344,79.0469 C83.0156,79.0469 82.8125,79.125 82.625,79.3125 C82.1719,79.7969 82.1719,79.7969 81.9844,79.8906 C81.5625,80.1563 80.875,80.2813 80.1094,80.2813 C78.0625,80.2813 76.7656,79.1875 76.7656,77.4844 L76.7656,76.3906 C76.7656,74.6094 78.0156,73.2969 79.75,73.2969 C80.3281,73.2969 80.9375,73.4531 81.4063,73.7031 C81.8906,73.9844 82.0625,74.2031 82.1563,74.6094 C82.2188,75.0156 82.25,75.1406 82.3906,75.2656 C82.5313,75.4063 82.7656,75.5156 82.9844,75.5156 C83.25,75.5156 83.5156,75.375 83.6875,75.1563 C83.7969,75 83.8281,74.8125 83.8281,74.3906 L83.8281,72.9688 C83.8281,72.5313 83.8125,72.4063 83.7188,72.25 C83.5625,71.9844 83.2813,71.8438 82.9844,71.8438 C82.6875,71.8438 82.4844,71.9375 82.2656,72.25 L82.0938,72.1719 Z " fill="#000000"/><text fill="#000000" font-family="sans-serif" font-size="12" lengthAdjust="spacingAndGlyphs" textLength="76" x="100.25" y="80.6543">YesNoDialog</text><line style="stroke:#A80036;stroke-width:1.5;" x1="33.5" x2="210.5" y1="92.5" y2="92.5"/><rect fill="none" height="6" style="stroke:#C82930;stroke-width:1.0;" width="6" x="40.5" y="100.5"/><text fill="#000000" font-family="sans-serif" font-size="11" lengthAdjust="spacingAndGlyphs" text-decoration="underline" textLength="97" x="52.5" y="106.7104">AFIRMATIVE: char</text><rect fill="none" height="6" style="stroke:#C82930;stroke-width:1.0;" width="6" x="40.5" y="113.3047"/><text fill="#000000" font-family="sans-serif" font-size="11" lengthAdjust="spacingAndGlyphs" text-decoration="underline" textLength="88" x="52.5" y="119.5151">NEGATIVE: char</text><rect fill="none" height="6" style="stroke:#C82930;stroke-width:1.0;" width="6" x="40.5" y="126.1094"/><text fill="#000000" font-family="sans-serif" font-size="11" lengthAdjust="spacingAndGlyphs" text-decoration="underline" textLength="99" x="52.5" y="132.3198">QUESTION: String</text><rect fill="none" height="6" style="stroke:#C82930;stroke-width:1.0;" width="6" x="40.5" y="138.9141"/><text fill="#000000" font-family="sans-serif" font-size="11" lengthAdjust="spacingAndGlyphs" text-decoration="underline" textLength="96" x="52.5" y="145.1245">MESSAGE: String</text><line style="stroke:#A80036;stroke-width:1.5;" x1="33.5" x2="210.5" y1="151.7188" y2="151.7188"/><ellipse cx="43.5" cy="162.7188" fill="#84BE84" rx="3" ry="3" style="stroke:#038048;stroke-width:1.0;"/><text fill="#000000" font-family="sans-serif" font-size="11" lengthAdjust="spacingAndGlyphs" textLength="80" x="52.5" y="165.9292">YesNoDialog()</text><ellipse cx="43.5" cy="175.5234" fill="#84BE84" rx="3" ry="3" style="stroke:#038048;stroke-width:1.0;"/><text fill="#000000" font-family="sans-serif" font-size="11" lengthAdjust="spacingAndGlyphs" textLength="120" x="52.5" y="178.7339">read(String): boolean</text><rect fill="#F24D5C" height="6" style="stroke:#C82930;stroke-width:1.0;" width="6" x="40.5" y="185.3281"/><text fill="#000000" font-family="sans-serif" font-size="11" lengthAdjust="spacingAndGlyphs" text-decoration="underline" textLength="153" x="52.5" y="191.5386">isAfirmative(char): boolean</text><rect fill="#F24D5C" height="6" style="stroke:#C82930;stroke-width:1.0;" width="6" x="40.5" y="198.1328"/><text fill="#000000" font-family="sans-serif" font-size="11" lengthAdjust="spacingAndGlyphs" text-decoration="underline" textLength="146" x="52.5" y="204.3433">isNegative(char): boolean</text><!--MD5=[b0b725b3db639de93c4e5e8714f3aefc]
class usantatecla.utils.models.ClosedInterval--><rect codeLine="47" fill="#FEFECE" filter="url(#f1mzv29hvyjad2)" height="99.2188" id="usantatecla.utils.models.ClosedInterval" style="stroke:#A80036;stroke-width:1.5;" width="151" x="684.5" y="86"/><ellipse cx="714.35" cy="102" fill="#ADD1B2" rx="11" ry="11" style="stroke:#A80036;stroke-width:1.0;"/><path d="M716.6938,97.6719 C715.7563,97.2344 715.1625,97.0938 714.2875,97.0938 C711.6625,97.0938 709.6625,99.1719 709.6625,101.8906 L709.6625,103.0156 C709.6625,105.5938 711.7719,107.4844 714.6625,107.4844 C715.8813,107.4844 717.0375,107.1875 717.7875,106.6406 C718.3656,106.2344 718.6938,105.7813 718.6938,105.3906 C718.6938,104.9375 718.3031,104.5469 717.8344,104.5469 C717.6156,104.5469 717.4125,104.625 717.225,104.8125 C716.7719,105.2969 716.7719,105.2969 716.5844,105.3906 C716.1625,105.6563 715.475,105.7813 714.7094,105.7813 C712.6625,105.7813 711.3656,104.6875 711.3656,102.9844 L711.3656,101.8906 C711.3656,100.1094 712.6156,98.7969 714.35,98.7969 C714.9281,98.7969 715.5375,98.9531 716.0063,99.2031 C716.4906,99.4844 716.6625,99.7031 716.7563,100.1094 C716.8188,100.5156 716.85,100.6406 716.9906,100.7656 C717.1313,100.9063 717.3656,101.0156 717.5844,101.0156 C717.85,101.0156 718.1156,100.875 718.2875,100.6563 C718.3969,100.5 718.4281,100.3125 718.4281,99.8906 L718.4281,98.4688 C718.4281,98.0313 718.4125,97.9063 718.3188,97.75 C718.1625,97.4844 717.8813,97.3438 717.5844,97.3438 C717.2875,97.3438 717.0844,97.4375 716.8656,97.75 L716.6938,97.6719 Z " fill="#000000"/><text fill="#000000" font-family="sans-serif" font-size="12" lengthAdjust="spacingAndGlyphs" textLength="86" x="731.65" y="106.1543">ClosedInterval</text><line style="stroke:#A80036;stroke-width:1.5;" x1="685.5" x2="834.5" y1="118" y2="118"/><rect fill="none" height="6" style="stroke:#C82930;stroke-width:1.0;" width="6" x="692.5" y="126"/><text fill="#000000" font-family="sans-serif" font-size="11" lengthAdjust="spacingAndGlyphs" textLength="42" x="704.5" y="132.2104">min: int</text><rect fill="none" height="6" style="stroke:#C82930;stroke-width:1.0;" width="6" x="692.5" y="138.8047"/><text fill="#000000" font-family="sans-serif" font-size="11" lengthAdjust="spacingAndGlyphs" textLength="46" x="704.5" y="145.0151">max: int</text><line style="stroke:#A80036;stroke-width:1.5;" x1="685.5" x2="834.5" y1="151.6094" y2="151.6094"/><ellipse cx="695.5" cy="162.6094" fill="#84BE84" rx="3" ry="3" style="stroke:#038048;stroke-width:1.0;"/><text fill="#000000" font-family="sans-serif" font-size="11" lengthAdjust="spacingAndGlyphs" textLength="125" x="704.5" y="165.8198">ClosedInterval(int, int)</text><ellipse cx="695.5" cy="175.4141" fill="#84BE84" rx="3" ry="3" style="stroke:#038048;stroke-width:1.0;"/><text fill="#000000" font-family="sans-serif" font-size="11" lengthAdjust="spacingAndGlyphs" textLength="122" x="704.5" y="178.6245">includes(int): boolean</text><!--MD5=[2ff24773f9ecf34307231bd9c286b014]
class usantatecla.utils.Command--><rect codeLine="54" fill="#FEFECE" filter="url(#f1mzv29hvyjad2)" height="112.0234" id="usantatecla.utils.Command" style="stroke:#A80036;stroke-width:1.5;" width="131" x="240.5" y="328.5"/><ellipse cx="272.15" cy="344.5" fill="#A9DCDF" rx="11" ry="11" style="stroke:#A80036;stroke-width:1.0;"/><path d="M274.2281,346.3125 L274.6188,347.2969 L274.2281,347.2969 C273.775,347.2969 273.6656,347.3125 273.5094,347.4219 C273.2594,347.5781 273.1031,347.8594 273.1031,348.1563 C273.1031,348.4219 273.2438,348.6719 273.4625,348.8281 C273.6031,348.9531 273.8063,349 274.2281,349 L276.5875,349 C276.9469,349 277.1656,348.9688 277.3063,348.875 C277.5563,348.7344 277.7125,348.4375 277.7125,348.1563 C277.7125,347.875 277.5719,347.625 277.3531,347.4688 C277.1813,347.3281 277.025,347.2969 276.5563,347.2969 L273.1656,339.0938 L269.4938,339.0938 C269.0406,339.0938 268.9156,339.1094 268.7594,339.2031 C268.5094,339.375 268.3531,339.6563 268.3531,339.9375 C268.3531,340.2188 268.4938,340.4688 268.7125,340.6406 C268.8844,340.75 269.0563,340.7813 269.4938,340.7813 L270.5719,340.7813 L267.9313,347.2969 C267.5094,347.2969 267.3531,347.3125 267.1969,347.4219 C266.9469,347.5781 266.7906,347.8594 266.7906,348.1563 C266.7906,348.7188 267.1656,349 267.9156,349 L270.1813,349 C270.5406,349 270.7594,348.9688 270.8844,348.875 C271.15,348.7344 271.2906,348.4375 271.2906,348.1563 C271.2906,347.875 271.1656,347.625 270.9469,347.4531 C270.775,347.3281 270.6344,347.2969 270.1813,347.2969 L269.7906,347.2969 L270.1813,346.3125 L274.2281,346.3125 Z M273.525,344.6094 L270.8531,344.6094 L272.1969,341.3438 L273.525,344.6094 Z " fill="#000000"/><text fill="#000000" font-family="sans-serif" font-size="12" font-style="italic" lengthAdjust="spacingAndGlyphs" textLength="62" x="289.85" y="348.6543">Command</text><line style="stroke:#A80036;stroke-width:1.5;" x1="241.5" x2="370.5" y1="360.5" y2="360.5"/><polygon fill="none" points="251.5,366.5,255.5,370.5,251.5,374.5,247.5,370.5" style="stroke:#B38D22;stroke-width:1.0;"/><text fill="#000000" font-family="sans-serif" font-size="11" lengthAdjust="spacingAndGlyphs" textLength="62" x="260.5" y="374.7104">title: String</text><line style="stroke:#A80036;stroke-width:1.5;" x1="241.5" x2="370.5" y1="381.3047" y2="381.3047"/><polygon fill="#FFFF44" points="251.5,387.3047,255.5,391.3047,251.5,395.3047,247.5,391.3047" style="stroke:#B38D22;stroke-width:1.0;"/><text fill="#000000" font-family="sans-serif" font-size="11" lengthAdjust="spacingAndGlyphs" textLength="99" x="260.5" y="395.5151">Command(String)</text><polygon fill="#FFFF44" points="251.5,400.1094,255.5,404.1094,251.5,408.1094,247.5,404.1094" style="stroke:#B38D22;stroke-width:1.0;"/><text fill="#000000" font-family="sans-serif" font-size="11" font-style="italic" lengthAdjust="spacingAndGlyphs" textLength="53" x="260.5" y="408.3198">execute()</text><polygon fill="#FFFF44" points="251.5,412.9141,255.5,416.9141,251.5,420.9141,247.5,416.9141" style="stroke:#B38D22;stroke-width:1.0;"/><text fill="#000000" font-family="sans-serif" font-size="11" font-style="italic" lengthAdjust="spacingAndGlyphs" textLength="105" x="260.5" y="421.1245">isActive(): boolean</text><polygon fill="#4177AF" points="251.5,426.7188,247.5,432.7188,255.5,432.7188" style="stroke:#1963A0;stroke-width:1.0;"/><text fill="#000000" font-family="sans-serif" font-size="11" lengthAdjust="spacingAndGlyphs" textLength="92" x="260.5" y="433.9292">getTitle(): String</text><!--MD5=[400f0a551c807dfb779cbf26cfa29e33]
class usantatecla.utils.Menu--><rect codeLine="62" fill="#FEFECE" filter="url(#f1mzv29hvyjad2)" height="112.0234" id="usantatecla.utils.Menu" style="stroke:#A80036;stroke-width:1.5;" width="233" x="406.5" y="328.5"/><ellipse cx="502.25" cy="344.5" fill="#A9DCDF" rx="11" ry="11" style="stroke:#A80036;stroke-width:1.0;"/><path d="M504.3281,346.3125 L504.7188,347.2969 L504.3281,347.2969 C503.875,347.2969 503.7656,347.3125 503.6094,347.4219 C503.3594,347.5781 503.2031,347.8594 503.2031,348.1563 C503.2031,348.4219 503.3438,348.6719 503.5625,348.8281 C503.7031,348.9531 503.9063,349 504.3281,349 L506.6875,349 C507.0469,349 507.2656,348.9688 507.4063,348.875 C507.6563,348.7344 507.8125,348.4375 507.8125,348.1563 C507.8125,347.875 507.6719,347.625 507.4531,347.4688 C507.2813,347.3281 507.125,347.2969 506.6563,347.2969 L503.2656,339.0938 L499.5938,339.0938 C499.1406,339.0938 499.0156,339.1094 498.8594,339.2031 C498.6094,339.375 498.4531,339.6563 498.4531,339.9375 C498.4531,340.2188 498.5938,340.4688 498.8125,340.6406 C498.9844,340.75 499.1563,340.7813 499.5938,340.7813 L500.6719,340.7813 L498.0313,347.2969 C497.6094,347.2969 497.4531,347.3125 497.2969,347.4219 C497.0469,347.5781 496.8906,347.8594 496.8906,348.1563 C496.8906,348.7188 497.2656,349 498.0156,349 L500.2813,349 C500.6406,349 500.8594,348.9688 500.9844,348.875 C501.25,348.7344 501.3906,348.4375 501.3906,348.1563 C501.3906,347.875 501.2656,347.625 501.0469,347.4531 C500.875,347.3281 500.7344,347.2969 500.2813,347.2969 L499.8906,347.2969 L500.2813,346.3125 L504.3281,346.3125 Z M503.625,344.6094 L500.9531,344.6094 L502.2969,341.3438 L503.625,344.6094 Z " fill="#000000"/><text fill="#000000" font-family="sans-serif" font-size="12" font-style="italic" lengthAdjust="spacingAndGlyphs" textLength="33" x="522.75" y="348.6543">Menu</text><line style="stroke:#A80036;stroke-width:1.5;" x1="407.5" x2="638.5" y1="360.5" y2="360.5"/><rect fill="none" height="6" style="stroke:#C82930;stroke-width:1.0;" width="6" x="414.5" y="368.5"/><text fill="#000000" font-family="sans-serif" font-size="11" lengthAdjust="spacingAndGlyphs" text-decoration="underline" textLength="82" x="426.5" y="374.7104">OPTION: String</text><rect fill="none" height="6" style="stroke:#C82930;stroke-width:1.0;" width="6" x="414.5" y="381.3047"/><text fill="#000000" font-family="sans-serif" font-size="11" lengthAdjust="spacingAndGlyphs" textLength="207" x="426.5" y="387.5151">commandList: ArrayList&lt;Command&gt;</text><line style="stroke:#A80036;stroke-width:1.5;" x1="407.5" x2="638.5" y1="394.1094" y2="394.1094"/><ellipse cx="417.5" cy="405.1094" fill="#84BE84" rx="3" ry="3" style="stroke:#038048;stroke-width:1.0;"/><text fill="#000000" font-family="sans-serif" font-size="11" lengthAdjust="spacingAndGlyphs" textLength="39" x="426.5" y="408.3198">Menu()</text><ellipse cx="417.5" cy="417.9141" fill="#84BE84" rx="3" ry="3" style="stroke:#038048;stroke-width:1.0;"/><text fill="#000000" font-family="sans-serif" font-size="11" lengthAdjust="spacingAndGlyphs" textLength="56" x="426.5" y="421.1245">execute()</text><polygon fill="#FFFF44" points="417.5,425.7188,421.5,429.7188,417.5,433.7188,413.5,429.7188" style="stroke:#B38D22;stroke-width:1.0;"/><text fill="#000000" font-family="sans-serif" font-size="11" lengthAdjust="spacingAndGlyphs" textLength="145" x="426.5" y="433.9292">addCommand(Command)</text><!--MD5=[b54aafc10fc716cc93b09543fbb9b3f2]
class usantatecla.utils.TCPIP--><rect codeLine="70" fill="#FEFECE" filter="url(#f1mzv29hvyjad2)" height="163.2422" id="usantatecla.utils.TCPIP" style="stroke:#A80036;stroke-width:1.5;" width="184" x="465" y="54"/><ellipse cx="537.75" cy="70" fill="#ADD1B2" rx="11" ry="11" style="stroke:#A80036;stroke-width:1.0;"/><path d="M540.0938,65.6719 C539.1563,65.2344 538.5625,65.0938 537.6875,65.0938 C535.0625,65.0938 533.0625,67.1719 533.0625,69.8906 L533.0625,71.0156 C533.0625,73.5938 535.1719,75.4844 538.0625,75.4844 C539.2813,75.4844 540.4375,75.1875 541.1875,74.6406 C541.7656,74.2344 542.0938,73.7813 542.0938,73.3906 C542.0938,72.9375 541.7031,72.5469 541.2344,72.5469 C541.0156,72.5469 540.8125,72.625 540.625,72.8125 C540.1719,73.2969 540.1719,73.2969 539.9844,73.3906 C539.5625,73.6563 538.875,73.7813 538.1094,73.7813 C536.0625,73.7813 534.7656,72.6875 534.7656,70.9844 L534.7656,69.8906 C534.7656,68.1094 536.0156,66.7969 537.75,66.7969 C538.3281,66.7969 538.9375,66.9531 539.4063,67.2031 C539.8906,67.4844 540.0625,67.7031 540.1563,68.1094 C540.2188,68.5156 540.25,68.6406 540.3906,68.7656 C540.5313,68.9063 540.7656,69.0156 540.9844,69.0156 C541.25,69.0156 541.5156,68.875 541.6875,68.6563 C541.7969,68.5 541.8281,68.3125 541.8281,67.8906 L541.8281,66.4688 C541.8281,66.0313 541.8125,65.9063 541.7188,65.75 C541.5625,65.4844 541.2813,65.3438 540.9844,65.3438 C540.6875,65.3438 540.4844,65.4375 540.2656,65.75 L540.0938,65.6719 Z " fill="#000000"/><text fill="#000000" font-family="sans-serif" font-size="12" lengthAdjust="spacingAndGlyphs" textLength="30" x="558.25" y="74.1543">TCPIP</text><line style="stroke:#A80036;stroke-width:1.5;" x1="466" x2="648" y1="86" y2="86"/><line style="stroke:#A80036;stroke-width:1.5;" x1="466" x2="648" y1="94" y2="94"/><ellipse cx="476" cy="105" fill="#84BE84" rx="3" ry="3" style="stroke:#038048;stroke-width:1.0;"/><text fill="#000000" font-family="sans-serif" font-size="11" lengthAdjust="spacingAndGlyphs" textLength="77" x="485" y="108.2104">TCPIP(Socket)</text><ellipse cx="476" cy="117.8047" fill="#84BE84" rx="3" ry="3" style="stroke:#038048;stroke-width:1.0;"/><text fill="#000000" font-family="sans-serif" font-size="11" lengthAdjust="spacingAndGlyphs" textLength="158" x="485" y="121.0151">TCPIP(ServerSocket,Socket)</text><ellipse cx="476" cy="130.6094" fill="#84BE84" rx="3" ry="3" style="stroke:#038048;stroke-width:1.0;"/><text fill="#000000" font-family="sans-serif" font-size="11" lengthAdjust="spacingAndGlyphs" textLength="69" x="485" y="133.8198">send(String)</text><ellipse cx="476" cy="143.4141" fill="#84BE84" rx="3" ry="3" style="stroke:#038048;stroke-width:1.0;"/><text fill="#000000" font-family="sans-serif" font-size="11" lengthAdjust="spacingAndGlyphs" textLength="50" x="485" y="146.6245">send(int)</text><ellipse cx="476" cy="156.2188" fill="#84BE84" rx="3" ry="3" style="stroke:#038048;stroke-width:1.0;"/><text fill="#000000" font-family="sans-serif" font-size="11" lengthAdjust="spacingAndGlyphs" textLength="82" x="485" y="159.4292">send(boolean)</text><ellipse cx="476" cy="169.0234" fill="#84BE84" rx="3" ry="3" style="stroke:#038048;stroke-width:1.0;"/><text fill="#000000" font-family="sans-serif" font-size="11" lengthAdjust="spacingAndGlyphs" textLength="116" x="485" y="172.2339">receiveLine(): String</text><ellipse cx="476" cy="181.8281" fill="#84BE84" rx="3" ry="3" style="stroke:#038048;stroke-width:1.0;"/><text fill="#000000" font-family="sans-serif" font-size="11" lengthAdjust="spacingAndGlyphs" textLength="152" x="485" y="185.0386">receiveBoolean(): boolean</text><ellipse cx="476" cy="194.6328" fill="#84BE84" rx="3" ry="3" style="stroke:#038048;stroke-width:1.0;"/><text fill="#000000" font-family="sans-serif" font-size="11" lengthAdjust="spacingAndGlyphs" textLength="87" x="485" y="197.8433">receiveInt(): int</text><ellipse cx="476" cy="207.4375" fill="#84BE84" rx="3" ry="3" style="stroke:#038048;stroke-width:1.0;"/><text fill="#000000" font-family="sans-serif" font-size="11" lengthAdjust="spacingAndGlyphs" textLength="38" x="485" y="210.6479">close()</text><!--MD5=[ee4f8f5c2b5eaa5df2ba8c0614cd4e83]
class BufferedReader--><rect codeLine="1" fill="#FEFECE" filter="url(#f1mzv29hvyjad2)" height="53.9375" id="BufferedReader" style="stroke:#A80036;stroke-width:1.5;" width="127" x="343.5" y="539"/><ellipse cx="358.5" cy="557.9688" fill="#ADD1B2" rx="11" ry="11" style="stroke:#A80036;stroke-width:1.0;"/><path d="M360.8438,553.6406 C359.9063,553.2031 359.3125,553.0625 358.4375,553.0625 C355.8125,553.0625 353.8125,555.1406 353.8125,557.8594 L353.8125,558.9844 C353.8125,561.5625 355.9219,563.4531 358.8125,563.4531 C360.0313,563.4531 361.1875,563.1563 361.9375,562.6094 C362.5156,562.2031 362.8438,561.75 362.8438,561.3594 C362.8438,560.9063 362.4531,560.5156 361.9844,560.5156 C361.7656,560.5156 361.5625,560.5938 361.375,560.7813 C360.9219,561.2656 360.9219,561.2656 360.7344,561.3594 C360.3125,561.625 359.625,561.75 358.8594,561.75 C356.8125,561.75 355.5156,560.6563 355.5156,558.9531 L355.5156,557.8594 C355.5156,556.0781 356.7656,554.7656 358.5,554.7656 C359.0781,554.7656 359.6875,554.9219 360.1563,555.1719 C360.6406,555.4531 360.8125,555.6719 360.9063,556.0781 C360.9688,556.4844 361,556.6094 361.1406,556.7344 C361.2813,556.875 361.5156,556.9844 361.7344,556.9844 C362,556.9844 362.2656,556.8438 362.4375,556.625 C362.5469,556.4688 362.5781,556.2813 362.5781,555.8594 L362.5781,554.4375 C362.5781,554 362.5625,553.875 362.4688,553.7188 C362.3125,553.4531 362.0313,553.3125 361.7344,553.3125 C361.4375,553.3125 361.2344,553.4063 361.0156,553.7188 L360.8438,553.6406 Z " fill="#000000"/><text fill="#000000" font-family="sans-serif" font-size="12" lengthAdjust="spacingAndGlyphs" textLength="41" x="399.5" y="555.1387">java.io.</text><text fill="#000000" font-family="sans-serif" font-size="12" lengthAdjust="spacingAndGlyphs" textLength="95" x="372.5" y="569.1074">BufferedReader</text><line style="stroke:#A80036;stroke-width:1.5;" x1="344.5" x2="469.5" y1="576.9375" y2="576.9375"/><line style="stroke:#A80036;stroke-width:1.5;" x1="344.5" x2="469.5" y1="584.9375" y2="584.9375"/><!--MD5=[6ed73ad3462fbaf9c926750dc84dff97]
class PrintWritter--><rect codeLine="2" fill="#FEFECE" filter="url(#f1mzv29hvyjad2)" height="53.9375" id="PrintWritter" style="stroke:#A80036;stroke-width:1.5;" width="94" x="868" y="357.5"/><ellipse cx="883" cy="376.4688" fill="#ADD1B2" rx="11" ry="11" style="stroke:#A80036;stroke-width:1.0;"/><path d="M885.3438,372.1406 C884.4063,371.7031 883.8125,371.5625 882.9375,371.5625 C880.3125,371.5625 878.3125,373.6406 878.3125,376.3594 L878.3125,377.4844 C878.3125,380.0625 880.4219,381.9531 883.3125,381.9531 C884.5313,381.9531 885.6875,381.6563 886.4375,381.1094 C887.0156,380.7031 887.3438,380.25 887.3438,379.8594 C887.3438,379.4063 886.9531,379.0156 886.4844,379.0156 C886.2656,379.0156 886.0625,379.0938 885.875,379.2813 C885.4219,379.7656 885.4219,379.7656 885.2344,379.8594 C884.8125,380.125 884.125,380.25 883.3594,380.25 C881.3125,380.25 880.0156,379.1563 880.0156,377.4531 L880.0156,376.3594 C880.0156,374.5781 881.2656,373.2656 883,373.2656 C883.5781,373.2656 884.1875,373.4219 884.6563,373.6719 C885.1406,373.9531 885.3125,374.1719 885.4063,374.5781 C885.4688,374.9844 885.5,375.1094 885.6406,375.2344 C885.7813,375.375 886.0156,375.4844 886.2344,375.4844 C886.5,375.4844 886.7656,375.3438 886.9375,375.125 C887.0469,374.9688 887.0781,374.7813 887.0781,374.3594 L887.0781,372.9375 C887.0781,372.5 887.0625,372.375 886.9688,372.2188 C886.8125,371.9531 886.5313,371.8125 886.2344,371.8125 C885.9375,371.8125 885.7344,371.9063 885.5156,372.2188 L885.3438,372.1406 Z " fill="#000000"/><text fill="#000000" font-family="sans-serif" font-size="12" lengthAdjust="spacingAndGlyphs" textLength="41" x="907.5" y="373.6387">java.io.</text><text fill="#000000" font-family="sans-serif" font-size="12" lengthAdjust="spacingAndGlyphs" textLength="62" x="897" y="387.6074">PrintWriter</text><line style="stroke:#A80036;stroke-width:1.5;" x1="869" x2="961" y1="395.4375" y2="395.4375"/><line style="stroke:#A80036;stroke-width:1.5;" x1="869" x2="961" y1="403.4375" y2="403.4375"/><!--MD5=[c9cd79131da610b90176c146d68cd99a]
class ServerSocket--><rect codeLine="3" fill="#FEFECE" filter="url(#f1mzv29hvyjad2)" height="53.9375" id="ServerSocket" style="stroke:#A80036;stroke-width:1.5;" width="115" x="997.5" y="357.5"/><ellipse cx="1012.5" cy="376.4688" fill="#ADD1B2" rx="11" ry="11" style="stroke:#A80036;stroke-width:1.0;"/><path d="M1014.8438,372.1406 C1013.9063,371.7031 1013.3125,371.5625 1012.4375,371.5625 C1009.8125,371.5625 1007.8125,373.6406 1007.8125,376.3594 L1007.8125,377.4844 C1007.8125,380.0625 1009.9219,381.9531 1012.8125,381.9531 C1014.0313,381.9531 1015.1875,381.6563 1015.9375,381.1094 C1016.5156,380.7031 1016.8438,380.25 1016.8438,379.8594 C1016.8438,379.4063 1016.4531,379.0156 1015.9844,379.0156 C1015.7656,379.0156 1015.5625,379.0938 1015.375,379.2813 C1014.9219,379.7656 1014.9219,379.7656 1014.7344,379.8594 C1014.3125,380.125 1013.625,380.25 1012.8594,380.25 C1010.8125,380.25 1009.5156,379.1563 1009.5156,377.4531 L1009.5156,376.3594 C1009.5156,374.5781 1010.7656,373.2656 1012.5,373.2656 C1013.0781,373.2656 1013.6875,373.4219 1014.1563,373.6719 C1014.6406,373.9531 1014.8125,374.1719 1014.9063,374.5781 C1014.9688,374.9844 1015,375.1094 1015.1406,375.2344 C1015.2813,375.375 1015.5156,375.4844 1015.7344,375.4844 C1016,375.4844 1016.2656,375.3438 1016.4375,375.125 C1016.5469,374.9688 1016.5781,374.7813 1016.5781,374.3594 L1016.5781,372.9375 C1016.5781,372.5 1016.5625,372.375 1016.4688,372.2188 C1016.3125,371.9531 1016.0313,371.8125 1015.7344,371.8125 C1015.4375,371.8125 1015.2344,371.9063 1015.0156,372.2188 L1014.8438,372.1406 Z " fill="#000000"/><text fill="#000000" font-family="sans-serif" font-size="12" lengthAdjust="spacingAndGlyphs" textLength="49" x="1043.5" y="373.6387">java.net.</text><text fill="#000000" font-family="sans-serif" font-size="12" lengthAdjust="spacingAndGlyphs" textLength="83" x="1026.5" y="387.6074">ServerSocket</text><line style="stroke:#A80036;stroke-width:1.5;" x1="998.5" x2="1111.5" y1="395.4375" y2="395.4375"/><line style="stroke:#A80036;stroke-width:1.5;" x1="998.5" x2="1111.5" y1="403.4375" y2="403.4375"/><!--MD5=[8f07f51d887e64eddc161f608ee0ddb0]
class Socket--><rect codeLine="4" fill="#FEFECE" filter="url(#f1mzv29hvyjad2)" height="53.9375" id="Socket" style="stroke:#A80036;stroke-width:1.5;" width="81" x="1147.5" y="357.5"/><ellipse cx="1162.5" cy="376.4688" fill="#ADD1B2" rx="11" ry="11" style="stroke:#A80036;stroke-width:1.0;"/><path d="M1164.8438,372.1406 C1163.9063,371.7031 1163.3125,371.5625 1162.4375,371.5625 C1159.8125,371.5625 1157.8125,373.6406 1157.8125,376.3594 L1157.8125,377.4844 C1157.8125,380.0625 1159.9219,381.9531 1162.8125,381.9531 C1164.0313,381.9531 1165.1875,381.6563 1165.9375,381.1094 C1166.5156,380.7031 1166.8438,380.25 1166.8438,379.8594 C1166.8438,379.4063 1166.4531,379.0156 1165.9844,379.0156 C1165.7656,379.0156 1165.5625,379.0938 1165.375,379.2813 C1164.9219,379.7656 1164.9219,379.7656 1164.7344,379.8594 C1164.3125,380.125 1163.625,380.25 1162.8594,380.25 C1160.8125,380.25 1159.5156,379.1563 1159.5156,377.4531 L1159.5156,376.3594 C1159.5156,374.5781 1160.7656,373.2656 1162.5,373.2656 C1163.0781,373.2656 1163.6875,373.4219 1164.1563,373.6719 C1164.6406,373.9531 1164.8125,374.1719 1164.9063,374.5781 C1164.9688,374.9844 1165,375.1094 1165.1406,375.2344 C1165.2813,375.375 1165.5156,375.4844 1165.7344,375.4844 C1166,375.4844 1166.2656,375.3438 1166.4375,375.125 C1166.5469,374.9688 1166.5781,374.7813 1166.5781,374.3594 L1166.5781,372.9375 C1166.5781,372.5 1166.5625,372.375 1166.4688,372.2188 C1166.3125,371.9531 1166.0313,371.8125 1165.7344,371.8125 C1165.4375,371.8125 1165.2344,371.9063 1165.0156,372.2188 L1164.8438,372.1406 Z " fill="#000000"/><text fill="#000000" font-family="sans-serif" font-size="12" lengthAdjust="spacingAndGlyphs" textLength="49" x="1176.5" y="373.6387">java.net.</text><text fill="#000000" font-family="sans-serif" font-size="12" lengthAdjust="spacingAndGlyphs" textLength="42" x="1180" y="387.6074">Socket</text><line style="stroke:#A80036;stroke-width:1.5;" x1="1148.5" x2="1227.5" y1="395.4375" y2="395.4375"/><line style="stroke:#A80036;stroke-width:1.5;" x1="1148.5" x2="1227.5" y1="403.4375" y2="403.4375"/><!--MD5=[14426ff67e875e6661b88179367ed759]
link usantatecla.utils.views.Console to BufferedReader--><path codeLine="33" d="M202.5399,487.1086 C202.5399,487.1086 216.266,498.4627 223,503 C255.102,524.6286 295.426,539.3285 330.137,548.9637 " fill="none" id="usantatecla.utils.views.Console-BufferedReader" style="stroke:#A80036;stroke-width:1.0;"/><polygon fill="#A80036" points="343.137,552.4124,335.4633,546.2387,338.3041,551.1305,333.4123,553.9713,343.137,552.4124" style="stroke:#A80036;stroke-width:1.0;"/><line style="stroke:#A80036;stroke-width:1.0;" x1="338.3041" x2="330.5715" y1="551.1305" y2="549.0789"/><polygon fill="#A80036" points="193.672,479.024,195.4111,486.0223,202.5399,487.1086,200.8008,480.1103,193.672,479.024" style="stroke:#A80036;stroke-width:1.0;"/><!--MD5=[bef9209ee563bd0cab945b38e8120dbd]
link usantatecla.utils.views.YesNoDialog to usantatecla.utils.views.Console--><path codeLine="45" d="M122,210.608 C122,233.824 122,259.829 122,284.478 " fill="none" id="usantatecla.utils.views.YesNoDialog-to-usantatecla.utils.views.Console" style="stroke:#A80036;stroke-width:1.0;stroke-dasharray:7.0,7.0;"/><polygon fill="#A80036" points="122,289.715,126,280.715,122,284.715,118,280.715,122,289.715" style="stroke:#A80036;stroke-width:1.0;"/><!--MD5=[ec693076c7e85548efa2414dfa1450e7]
link usantatecla.utils.TCPIP to BufferedReader--><path codeLine="82" d="M628.3178,227.5783 C628.3178,227.5783 650.717,268.846 657,290 C683.952,380.749 715.329,428.438 657,503 C635.734,530.1843 549.215,547.1278 483.87,556.2967 " fill="none" id="usantatecla.utils.TCPIP-BufferedReader" style="stroke:#A80036;stroke-width:1.0;"/><polygon fill="#A80036" points="470.694,558.0818,480.1496,560.837,475.6487,557.4104,479.0753,552.9095,470.694,558.0818" style="stroke:#A80036;stroke-width:1.0;"/><line style="stroke:#A80036;stroke-width:1.0;" x1="475.6487" x2="483.576" y1="557.4104" y2="556.3364"/><polygon fill="#A80036" points="621.984,217.386,621.7534,224.5934,628.3178,227.5783,628.5483,220.3709,621.984,217.386" style="stroke:#A80036;stroke-width:1.0;"/><!--MD5=[738eb5764bab408bd5792b0f06e7784d]
link usantatecla.utils.TCPIP to PrintWritter--><path codeLine="83" d="M656.2266,223.5771 C656.2266,223.5771 663.717,228.168 667,230 C742.478,272.126 782.966,237.982 852,290 C871.198,304.466 886.475,326.57 897.175,345.655 " fill="none" id="usantatecla.utils.TCPIP-PrintWritter" style="stroke:#A80036;stroke-width:1.0;"/><polygon fill="#A80036" points="903.39,357.35,902.6983,347.5255,901.0434,352.9348,895.634,351.28,903.39,357.35" style="stroke:#A80036;stroke-width:1.0;"/><line style="stroke:#A80036;stroke-width:1.0;" x1="901.0434" x2="897.289" y1="352.9348" y2="345.8705"/><polygon fill="#A80036" points="646.187,217.004,649.0158,223.6371,656.2266,223.5771,653.3979,216.944,646.187,217.004" style="stroke:#A80036;stroke-width:1.0;"/><!--MD5=[f0653438b85e7266a36ec0f1800c5295]
link usantatecla.utils.TCPIP to ServerSocket--><path codeLine="84" d="M654.6074,223.4219 C654.6074,223.4219 663.158,228.158 667,230 C794.731,291.22 858.662,216.924 980,290 C1002.5,303.552 1021.05,326.471 1034.07,346.226 " fill="none" id="usantatecla.utils.TCPIP-ServerSocket" style="stroke:#A80036;stroke-width:1.0;"/><polygon fill="#A80036" points="1041.08,357.397,1039.677,347.6486,1038.4191,353.1638,1032.9039,351.906,1041.08,357.397" style="stroke:#A80036;stroke-width:1.0;"/><line style="stroke:#A80036;stroke-width:1.0;" x1="1038.4191" x2="1034.17" y1="353.1638" y2="346.388"/><polygon fill="#A80036" points="644.358,217.181,647.4024,223.7179,654.6074,223.4219,651.563,216.885,644.358,217.181" style="stroke:#A80036;stroke-width:1.0;"/><!--MD5=[9caa9b6a45313e62939b645ee296af54]
link usantatecla.utils.TCPIP to Socket--><path codeLine="85" d="M653.4636,223.194 C653.4636,223.194 662.805,228.143 667,230 C856.744,313.981 955.556,177.64 1130,290 C1149.99,302.874 1164.25,325.329 1173.63,345.007 " fill="none" id="usantatecla.utils.TCPIP-Socket" style="stroke:#A80036;stroke-width:1.0;"/><polygon fill="#A80036" points="1178.97,357.098,1178.9939,347.2492,1176.9504,352.524,1171.6756,350.4805,1178.97,357.098" style="stroke:#A80036;stroke-width:1.0;"/><line style="stroke:#A80036;stroke-width:1.0;" x1="1176.9504" x2="1173.715" y1="352.524" y2="345.207"/><polygon fill="#A80036" points="643.132,217.09,646.2631,223.5859,653.4636,223.194,650.3324,216.6981,643.132,217.09" style="stroke:#A80036;stroke-width:1.0;"/><!--MD5=[36b719ed66d94dfa23919aee4964ff72]
link usantatecla.utils.views.ColorCode to usantatecla.utils.models.ClosedInterval--><!--MD5=[0dfdc2c4fb3dd28ff71f394aaeab421b]
link usantatecla.utils.views.ColorCode to usantatecla.utils.Command--><!--MD5=[79f9aa8b8d7e7d0ac70c35b3697ea925]
link usantatecla.utils.Command to usantatecla.utils.Menu--><!--MD5=[c371a0a7ac3f8b6463c59f98df2bc7bb]
@startuml
class BufferedReader as "java.io.\nBufferedReader"{}
class PrintWritter as "java.io.\nPrintWriter" {}
class ServerSocket as "java.net.\nServerSocket" {}
class Socket as "java.net.\nSocket" {}

enum usantatecla.utils.views.ColorCode{
    + RED
    + BLUE
    + YELLOW
    + GREEN
    + ORANGE
    + PURPLE
    + RESET_COLOR
    - color: String
    ~ ColorCode(String)
    + getColor(): String
    + {static} getColorByIndex(int): String
}

class usantatecla.utils.views.Console{
    - {static} console: Console
    + {static} getInstance(): Console
    + readString(String): String
    + readString(): String
    + readInt(String): int
    + readChar(String): char
    + writeln()
    + write(String)
    + writeln(String)
    + write(char)
    - writeError(String)
}
usantatecla.utils.views.Console *-down-> BufferedReader

class  usantatecla.utils.views.YesNoDialog{
    - {static} AFIRMATIVE: char
    - {static} NEGATIVE: char
    - {static} QUESTION: String
    - {static} MESSAGE: String
    + YesNoDialog()
    + read(String): boolean
    - {static} isAfirmative(char): boolean
    - {static} isNegative(char): boolean
}
usantatecla.utils.views.YesNoDialog ..> usantatecla.utils.views.Console

class  usantatecla.utils.models.ClosedInterval{
    - min: int
    - max: int
    + ClosedInterval(int, int)
    + includes(int): boolean
}

abstract  usantatecla.utils.Command{
    # title: String
    # Command(String)
    # {abstract} execute()
    # {abstract} isActive(): boolean
    ~ getTitle(): String
}

abstract  usantatecla.utils.Menu{
    - {static} OPTION: String
    - commandList: ArrayList<Command>
    + Menu()
    + execute()
    # addCommand(Command)
}

class usantatecla.utils.TCPIP{
    + TCPIP(Socket)
    + TCPIP(ServerSocket,Socket)
    + send(String)
    + send(int)
    + send(boolean)
    + receiveLine(): String
    + receiveBoolean(): boolean
    + receiveInt(): int
    + close()
} 

usantatecla.utils.TCPIP *-down-> BufferedReader
usantatecla.utils.TCPIP *-down-> PrintWritter
usantatecla.utils.TCPIP *-down-> ServerSocket
usantatecla.utils.TCPIP *-down-> Socket
@enduml

PlantUML version 1.2020.24(Fri Dec 18 17:00:36 UTC 2020)
(GPL source distribution)
Java Runtime: Java(TM) SE Runtime Environment
JVM: Java HotSpot(TM) 64-Bit Server VM
Default Encoding: UTF-8
Language: en
Country: US
--></g></svg>