<?xml version="1.0" encoding="UTF-8" standalone="no"?><svg xmlns="http://www.w3.org/2000/svg" xmlns:xlink="http://www.w3.org/1999/xlink" contentScriptType="application/ecmascript" contentStyleType="text/css" height="1032px" preserveAspectRatio="none" style="width:1881px;height:1032px;" version="1.1" viewBox="0 0 1881 1032" width="1881px" zoomAndPan="magnify"><defs><filter height="300%" id="f15p0s98kzcte9" width="300%" x="-1" y="-1"><feGaussianBlur result="blurOut" stdDeviation="2.0"/><feColorMatrix in="blurOut" result="blurOut2" type="matrix" values="0 0 0 0 0 0 0 0 0 0 0 0 0 0 0 0 0 0 .4 0"/><feOffset dx="4.0" dy="4.0" in="blurOut2" result="blurOut3"/><feBlend in="SourceGraphic" in2="blurOut3" mode="normal"/></filter></defs><g><!--MD5=[45607799a901819e6cc4b6d8cd00ce6c]
cluster usantatecla.mastermind.controllers--><polygon fill="#FFFFFF" filter="url(#f15p0s98kzcte9)" points="803.6331,6,1104.6331,6,1111.6331,28.2969,1694.6361,28.2969,1694.6361,907,803.6331,907,803.6331,6" style="stroke:#000000;stroke-width:1.5;"/><line style="stroke:#000000;stroke-width:1.5;" x1="803.6331" x2="1111.6331" y1="28.2969" y2="28.2969"/><text fill="#000000" font-family="sans-serif" font-size="14" font-weight="bold" lengthAdjust="spacingAndGlyphs" textLength="295" x="807.6331" y="20.9951">usantatecla.mastermind.controllers</text><!--MD5=[dc742e7f47788fccadc22474665bada4]
class usantatecla.mastermind.controllers.AcceptorController--><rect codeLine="9" fill="#FEFECE" filter="url(#f15p0s98kzcte9)" height="73.6094" id="usantatecla.mastermind.controllers.AcceptorController" style="stroke:#A80036;stroke-width:1.5;" width="221" x="1000.1331" y="187"/><ellipse cx="1050.3831" cy="203" fill="#A9DCDF" rx="11" ry="11" style="stroke:#A80036;stroke-width:1.0;"/><path d="M1052.4612,204.8125 L1052.8519,205.7969 L1052.4612,205.7969 C1052.0081,205.7969 1051.8987,205.8125 1051.7425,205.9219 C1051.4925,206.0781 1051.3362,206.3594 1051.3362,206.6563 C1051.3362,206.9219 1051.4769,207.1719 1051.6956,207.3281 C1051.8362,207.4531 1052.0394,207.5 1052.4612,207.5 L1054.8206,207.5 C1055.18,207.5 1055.3987,207.4688 1055.5394,207.375 C1055.7894,207.2344 1055.9456,206.9375 1055.9456,206.6563 C1055.9456,206.375 1055.805,206.125 1055.5862,205.9688 C1055.4144,205.8281 1055.2581,205.7969 1054.7894,205.7969 L1051.3987,197.5938 L1047.7269,197.5938 C1047.2737,197.5938 1047.1487,197.6094 1046.9925,197.7031 C1046.7425,197.875 1046.5862,198.1563 1046.5862,198.4375 C1046.5862,198.7188 1046.7269,198.9688 1046.9456,199.1406 C1047.1175,199.25 1047.2894,199.2813 1047.7269,199.2813 L1048.805,199.2813 L1046.1644,205.7969 C1045.7425,205.7969 1045.5862,205.8125 1045.43,205.9219 C1045.18,206.0781 1045.0237,206.3594 1045.0237,206.6563 C1045.0237,207.2188 1045.3987,207.5 1046.1487,207.5 L1048.4144,207.5 C1048.7737,207.5 1048.9925,207.4688 1049.1175,207.375 C1049.3831,207.2344 1049.5237,206.9375 1049.5237,206.6563 C1049.5237,206.375 1049.3987,206.125 1049.18,205.9531 C1049.0081,205.8281 1048.8675,205.7969 1048.4144,205.7969 L1048.0237,205.7969 L1048.4144,204.8125 L1052.4612,204.8125 Z M1051.7581,203.1094 L1049.0862,203.1094 L1050.43,199.8438 L1051.7581,203.1094 Z " fill="#000000"/><text fill="#000000" font-family="sans-serif" font-size="12" font-style="italic" lengthAdjust="spacingAndGlyphs" textLength="112" x="1070.8831" y="207.1543">AcceptorController</text><line style="stroke:#A80036;stroke-width:1.5;" x1="1001.1331" x2="1220.1331" y1="219" y2="219"/><line style="stroke:#A80036;stroke-width:1.5;" x1="1001.1331" x2="1220.1331" y1="227" y2="227"/><polygon fill="#4177AF" points="1011.1331,234,1007.1331,240,1015.1331,240" style="stroke:#1963A0;stroke-width:1.0;"/><text fill="#000000" font-family="sans-serif" font-size="11" lengthAdjust="spacingAndGlyphs" textLength="195" x="1020.1331" y="241.2104">AcceptorController(Session, TCPIP)</text><ellipse cx="1011.1331" cy="250.8047" fill="#84BE84" rx="3" ry="3" style="stroke:#038048;stroke-width:1.0;"/><text fill="#000000" font-family="sans-serif" font-size="11" font-style="italic" lengthAdjust="spacingAndGlyphs" textLength="143" x="1020.1331" y="254.0151">accept(ControllersVisitor)</text><!--MD5=[877f7580c8bbbe21e5afc74b6ea1e072]
class usantatecla.mastermind.controllers.ControllersVisitor--><rect codeLine="26" fill="#FEFECE" filter="url(#f15p0s98kzcte9)" height="86.4141" id="usantatecla.mastermind.controllers.ControllersVisitor" style="stroke:#A80036;stroke-width:1.5;" width="159" x="1086.1361" y="321"/><ellipse cx="1112.8361" cy="337" fill="#B4A7E5" rx="11" ry="11" style="stroke:#A80036;stroke-width:1.0;"/><path d="M1113.7892,333.7813 L1115.508,333.7813 C1115.8986,333.7813 1116.0861,333.75 1116.2111,333.6719 C1116.4767,333.5156 1116.6174,333.2344 1116.6174,332.9375 C1116.6174,332.6719 1116.508,332.4063 1116.2736,332.2344 C1116.1017,332.125 1115.9611,332.0938 1115.508,332.0938 L1110.3674,332.0938 C1109.9299,332.0938 1109.8049,332.1094 1109.6486,332.2031 C1109.3986,332.3594 1109.2424,332.6563 1109.2424,332.9375 C1109.2424,333.2188 1109.383,333.4688 1109.6017,333.6406 C1109.758,333.75 1109.9455,333.7813 1110.3674,333.7813 L1112.0861,333.7813 L1112.0861,340.2969 L1110.3674,340.2969 C1109.9299,340.2969 1109.8049,340.3125 1109.6486,340.4219 C1109.3986,340.5781 1109.2424,340.8594 1109.2424,341.1563 C1109.2424,341.4063 1109.383,341.6719 1109.6017,341.8281 C1109.758,341.9531 1109.9611,342 1110.3674,342 L1115.508,342 C1116.258,342 1116.6174,341.7188 1116.6174,341.1563 C1116.6174,340.875 1116.508,340.625 1116.2736,340.4531 C1116.1017,340.3281 1115.9611,340.2969 1115.508,340.2969 L1113.7892,340.2969 L1113.7892,333.7813 Z " fill="#000000"/><text fill="#000000" font-family="sans-serif" font-size="12" font-style="italic" lengthAdjust="spacingAndGlyphs" textLength="101" x="1129.4361" y="341.1543">ControllersVisitor</text><line style="stroke:#A80036;stroke-width:1.5;" x1="1087.1361" x2="1244.1361" y1="353" y2="353"/><line style="stroke:#A80036;stroke-width:1.5;" x1="1087.1361" x2="1244.1361" y1="361" y2="361"/><polygon fill="#4177AF" points="1097.1361,368,1093.1361,374,1101.1361,374" style="stroke:#1963A0;stroke-width:1.0;"/><text fill="#000000" font-family="sans-serif" font-size="11" lengthAdjust="spacingAndGlyphs" textLength="113" x="1106.1361" y="375.2104">visit(StartController)</text><polygon fill="#4177AF" points="1097.1361,380.8047,1093.1361,386.8047,1101.1361,386.8047" style="stroke:#1963A0;stroke-width:1.0;"/><text fill="#000000" font-family="sans-serif" font-size="11" lengthAdjust="spacingAndGlyphs" textLength="109" x="1106.1361" y="388.0151">visit(PlayController)</text><polygon fill="#4177AF" points="1097.1361,393.6094,1093.1361,399.6094,1101.1361,399.6094" style="stroke:#1963A0;stroke-width:1.0;"/><text fill="#000000" font-family="sans-serif" font-size="11" lengthAdjust="spacingAndGlyphs" textLength="133" x="1106.1361" y="400.8198">visit(ResumeController)</text><!--MD5=[e0d21a3c8ca66756a771586930837509]
class usantatecla.mastermind.controllers.Controller--><rect codeLine="18" fill="#FEFECE" filter="url(#f15p0s98kzcte9)" height="86.4141" id="usantatecla.mastermind.controllers.Controller" style="stroke:#A80036;stroke-width:1.5;" width="188" x="1490.6361" y="41"/><ellipse cx="1551.3861" cy="57" fill="#A9DCDF" rx="11" ry="11" style="stroke:#A80036;stroke-width:1.0;"/><path d="M1553.4642,58.8125 L1553.8549,59.7969 L1553.4642,59.7969 C1553.0111,59.7969 1552.9017,59.8125 1552.7455,59.9219 C1552.4955,60.0781 1552.3392,60.3594 1552.3392,60.6563 C1552.3392,60.9219 1552.4799,61.1719 1552.6986,61.3281 C1552.8392,61.4531 1553.0424,61.5 1553.4642,61.5 L1555.8236,61.5 C1556.183,61.5 1556.4017,61.4688 1556.5424,61.375 C1556.7924,61.2344 1556.9486,60.9375 1556.9486,60.6563 C1556.9486,60.375 1556.808,60.125 1556.5892,59.9688 C1556.4174,59.8281 1556.2611,59.7969 1555.7924,59.7969 L1552.4017,51.5938 L1548.7299,51.5938 C1548.2767,51.5938 1548.1517,51.6094 1547.9955,51.7031 C1547.7455,51.875 1547.5892,52.1563 1547.5892,52.4375 C1547.5892,52.7188 1547.7299,52.9688 1547.9486,53.1406 C1548.1205,53.25 1548.2924,53.2813 1548.7299,53.2813 L1549.808,53.2813 L1547.1674,59.7969 C1546.7455,59.7969 1546.5892,59.8125 1546.433,59.9219 C1546.183,60.0781 1546.0267,60.3594 1546.0267,60.6563 C1546.0267,61.2188 1546.4017,61.5 1547.1517,61.5 L1549.4174,61.5 C1549.7767,61.5 1549.9955,61.4688 1550.1205,61.375 C1550.3861,61.2344 1550.5267,60.9375 1550.5267,60.6563 C1550.5267,60.375 1550.4017,60.125 1550.183,59.9531 C1550.0111,59.8281 1549.8705,59.7969 1549.4174,59.7969 L1549.0267,59.7969 L1549.4174,58.8125 L1553.4642,58.8125 Z M1552.7611,57.1094 L1550.0892,57.1094 L1551.433,53.8438 L1552.7611,57.1094 Z " fill="#000000"/><text fill="#000000" font-family="sans-serif" font-size="12" font-style="italic" lengthAdjust="spacingAndGlyphs" textLength="58" x="1571.8861" y="61.1543">Controller</text><line style="stroke:#A80036;stroke-width:1.5;" x1="1491.6361" x2="1677.6361" y1="73" y2="73"/><line style="stroke:#A80036;stroke-width:1.5;" x1="1491.6361" x2="1677.6361" y1="81" y2="81"/><polygon fill="#4177AF" points="1501.6361,88,1497.6361,94,1505.6361,94" style="stroke:#1963A0;stroke-width:1.0;"/><text fill="#000000" font-family="sans-serif" font-size="11" lengthAdjust="spacingAndGlyphs" textLength="108" x="1510.6361" y="95.2104">Controller(Session)</text><ellipse cx="1501.6361" cy="104.8047" fill="#84BE84" rx="3" ry="3" style="stroke:#038048;stroke-width:1.0;"/><text fill="#000000" font-family="sans-serif" font-size="11" lengthAdjust="spacingAndGlyphs" textLength="80" x="1510.6361" y="108.0151">getWidth(): int</text><ellipse cx="1501.6361" cy="117.6094" fill="#84BE84" rx="3" ry="3" style="stroke:#038048;stroke-width:1.0;"/><text fill="#000000" font-family="sans-serif" font-size="11" lengthAdjust="spacingAndGlyphs" textLength="162" x="1510.6361" y="120.8198">getValueState(): StateValue</text><!--MD5=[c20948aa6f904689435480ad9a30530a]
class usantatecla.mastermind.controllers.StartController--><rect codeLine="109" fill="#FEFECE" filter="url(#f15p0s98kzcte9)" height="86.4141" id="usantatecla.mastermind.controllers.StartController" style="stroke:#A80036;stroke-width:1.5;" width="194" x="1068.6361" y="531"/><ellipse cx="1117.8861" cy="547" fill="#ADD1B2" rx="11" ry="11" style="stroke:#A80036;stroke-width:1.0;"/><path d="M1120.2299,542.6719 C1119.2924,542.2344 1118.6986,542.0938 1117.8236,542.0938 C1115.1986,542.0938 1113.1986,544.1719 1113.1986,546.8906 L1113.1986,548.0156 C1113.1986,550.5938 1115.308,552.4844 1118.1986,552.4844 C1119.4174,552.4844 1120.5736,552.1875 1121.3236,551.6406 C1121.9017,551.2344 1122.2299,550.7813 1122.2299,550.3906 C1122.2299,549.9375 1121.8392,549.5469 1121.3705,549.5469 C1121.1517,549.5469 1120.9486,549.625 1120.7611,549.8125 C1120.308,550.2969 1120.308,550.2969 1120.1205,550.3906 C1119.6986,550.6563 1119.0111,550.7813 1118.2455,550.7813 C1116.1986,550.7813 1114.9017,549.6875 1114.9017,547.9844 L1114.9017,546.8906 C1114.9017,545.1094 1116.1517,543.7969 1117.8861,543.7969 C1118.4642,543.7969 1119.0736,543.9531 1119.5424,544.2031 C1120.0267,544.4844 1120.1986,544.7031 1120.2924,545.1094 C1120.3549,545.5156 1120.3861,545.6406 1120.5267,545.7656 C1120.6674,545.9063 1120.9017,546.0156 1121.1205,546.0156 C1121.3861,546.0156 1121.6517,545.875 1121.8236,545.6563 C1121.933,545.5 1121.9642,545.3125 1121.9642,544.8906 L1121.9642,543.4688 C1121.9642,543.0313 1121.9486,542.9063 1121.8549,542.75 C1121.6986,542.4844 1121.4174,542.3438 1121.1205,542.3438 C1120.8236,542.3438 1120.6205,542.4375 1120.4017,542.75 L1120.2299,542.6719 Z " fill="#000000"/><text fill="#000000" font-family="sans-serif" font-size="12" lengthAdjust="spacingAndGlyphs" textLength="87" x="1138.3861" y="551.1543">StartController</text><line style="stroke:#A80036;stroke-width:1.5;" x1="1069.6361" x2="1261.6361" y1="563" y2="563"/><line style="stroke:#A80036;stroke-width:1.5;" x1="1069.6361" x2="1261.6361" y1="571" y2="571"/><ellipse cx="1079.6361" cy="582" fill="#84BE84" rx="3" ry="3" style="stroke:#038048;stroke-width:1.0;"/><text fill="#000000" font-family="sans-serif" font-size="11" lengthAdjust="spacingAndGlyphs" textLength="168" x="1088.6361" y="585.2104">StartController(Session,TCPIP)</text><ellipse cx="1079.6361" cy="594.8047" fill="#84BE84" rx="3" ry="3" style="stroke:#038048;stroke-width:1.0;"/><text fill="#000000" font-family="sans-serif" font-size="11" lengthAdjust="spacingAndGlyphs" textLength="33" x="1088.6361" y="598.0151">start()</text><ellipse cx="1079.6361" cy="607.6094" fill="#84BE84" rx="3" ry="3" style="stroke:#038048;stroke-width:1.0;"/><text fill="#000000" font-family="sans-serif" font-size="11" lengthAdjust="spacingAndGlyphs" textLength="142" x="1088.6361" y="610.8198">accept(ControllersVisitor)</text><!--MD5=[889d323ee88e76c035a2f6f92d120af6]
class usantatecla.mastermind.controllers.PlayController--><rect codeLine="48" fill="#FEFECE" filter="url(#f15p0s98kzcte9)" height="214.4609" id="usantatecla.mastermind.controllers.PlayController" style="stroke:#A80036;stroke-width:1.5;" width="270" x="1297.6361" y="467"/><ellipse cx="1387.3861" cy="483" fill="#ADD1B2" rx="11" ry="11" style="stroke:#A80036;stroke-width:1.0;"/><path d="M1389.7299,478.6719 C1388.7924,478.2344 1388.1986,478.0938 1387.3236,478.0938 C1384.6986,478.0938 1382.6986,480.1719 1382.6986,482.8906 L1382.6986,484.0156 C1382.6986,486.5938 1384.808,488.4844 1387.6986,488.4844 C1388.9174,488.4844 1390.0736,488.1875 1390.8236,487.6406 C1391.4017,487.2344 1391.7299,486.7813 1391.7299,486.3906 C1391.7299,485.9375 1391.3392,485.5469 1390.8705,485.5469 C1390.6517,485.5469 1390.4486,485.625 1390.2611,485.8125 C1389.808,486.2969 1389.808,486.2969 1389.6205,486.3906 C1389.1986,486.6563 1388.5111,486.7813 1387.7455,486.7813 C1385.6986,486.7813 1384.4017,485.6875 1384.4017,483.9844 L1384.4017,482.8906 C1384.4017,481.1094 1385.6517,479.7969 1387.3861,479.7969 C1387.9642,479.7969 1388.5736,479.9531 1389.0424,480.2031 C1389.5267,480.4844 1389.6986,480.7031 1389.7924,481.1094 C1389.8549,481.5156 1389.8861,481.6406 1390.0267,481.7656 C1390.1674,481.9063 1390.4017,482.0156 1390.6205,482.0156 C1390.8861,482.0156 1391.1517,481.875 1391.3236,481.6563 C1391.433,481.5 1391.4642,481.3125 1391.4642,480.8906 L1391.4642,479.4688 C1391.4642,479.0313 1391.4486,478.9063 1391.3549,478.75 C1391.1986,478.4844 1390.9174,478.3438 1390.6205,478.3438 C1390.3236,478.3438 1390.1205,478.4375 1389.9017,478.75 L1389.7299,478.6719 Z " fill="#000000"/><text fill="#000000" font-family="sans-serif" font-size="12" lengthAdjust="spacingAndGlyphs" textLength="82" x="1407.8861" y="487.1543">PlayController</text><line style="stroke:#A80036;stroke-width:1.5;" x1="1298.6361" x2="1566.6361" y1="499" y2="499"/><line style="stroke:#A80036;stroke-width:1.5;" x1="1298.6361" x2="1566.6361" y1="507" y2="507"/><ellipse cx="1308.6361" cy="518" fill="#84BE84" rx="3" ry="3" style="stroke:#038048;stroke-width:1.0;"/><text fill="#000000" font-family="sans-serif" font-size="11" lengthAdjust="spacingAndGlyphs" textLength="164" x="1317.6361" y="521.2104">PlayController(Session,TCPIP)</text><ellipse cx="1308.6361" cy="530.8047" fill="#84BE84" rx="3" ry="3" style="stroke:#038048;stroke-width:1.0;"/><text fill="#000000" font-family="sans-serif" font-size="11" lengthAdjust="spacingAndGlyphs" textLength="244" x="1317.6361" y="534.0151">addProposeCombination(List&lt;Color&gt;): Error</text><ellipse cx="1308.6361" cy="543.6094" fill="#84BE84" rx="3" ry="3" style="stroke:#038048;stroke-width:1.0;"/><text fill="#000000" font-family="sans-serif" font-size="11" lengthAdjust="spacingAndGlyphs" textLength="36" x="1317.6361" y="546.8198">undo()</text><ellipse cx="1308.6361" cy="556.4141" fill="#84BE84" rx="3" ry="3" style="stroke:#038048;stroke-width:1.0;"/><text fill="#000000" font-family="sans-serif" font-size="11" lengthAdjust="spacingAndGlyphs" textLength="34" x="1317.6361" y="559.6245">redo()</text><ellipse cx="1308.6361" cy="569.2188" fill="#84BE84" rx="3" ry="3" style="stroke:#038048;stroke-width:1.0;"/><text fill="#000000" font-family="sans-serif" font-size="11" lengthAdjust="spacingAndGlyphs" textLength="114" x="1317.6361" y="572.4292">undoable(): boolean</text><ellipse cx="1308.6361" cy="582.0234" fill="#84BE84" rx="3" ry="3" style="stroke:#038048;stroke-width:1.0;"/><text fill="#000000" font-family="sans-serif" font-size="11" lengthAdjust="spacingAndGlyphs" textLength="112" x="1317.6361" y="585.2339">redoable(): boolean</text><ellipse cx="1308.6361" cy="594.8281" fill="#84BE84" rx="3" ry="3" style="stroke:#038048;stroke-width:1.0;"/><text fill="#000000" font-family="sans-serif" font-size="11" lengthAdjust="spacingAndGlyphs" textLength="110" x="1317.6361" y="598.0386">isWinner(): boolean</text><ellipse cx="1308.6361" cy="607.6328" fill="#84BE84" rx="3" ry="3" style="stroke:#038048;stroke-width:1.0;"/><text fill="#000000" font-family="sans-serif" font-size="11" lengthAdjust="spacingAndGlyphs" textLength="108" x="1317.6361" y="610.8433">isLooser(): boolean</text><ellipse cx="1308.6361" cy="620.4375" fill="#84BE84" rx="3" ry="3" style="stroke:#038048;stroke-width:1.0;"/><text fill="#000000" font-family="sans-serif" font-size="11" lengthAdjust="spacingAndGlyphs" textLength="100" x="1317.6361" y="623.6479">getAttempts(): int</text><ellipse cx="1308.6361" cy="633.2422" fill="#84BE84" rx="3" ry="3" style="stroke:#038048;stroke-width:1.0;"/><text fill="#000000" font-family="sans-serif" font-size="11" lengthAdjust="spacingAndGlyphs" textLength="149" x="1317.6361" y="636.4526">getColors(int): List&lt;Color&gt;</text><ellipse cx="1308.6361" cy="646.0469" fill="#84BE84" rx="3" ry="3" style="stroke:#038048;stroke-width:1.0;"/><text fill="#000000" font-family="sans-serif" font-size="11" lengthAdjust="spacingAndGlyphs" textLength="98" x="1317.6361" y="649.2573">getBlacks(int): int</text><ellipse cx="1308.6361" cy="658.8516" fill="#84BE84" rx="3" ry="3" style="stroke:#038048;stroke-width:1.0;"/><text fill="#000000" font-family="sans-serif" font-size="11" lengthAdjust="spacingAndGlyphs" textLength="101" x="1317.6361" y="662.062">getWhites(int): int</text><ellipse cx="1308.6361" cy="671.6563" fill="#84BE84" rx="3" ry="3" style="stroke:#038048;stroke-width:1.0;"/><text fill="#000000" font-family="sans-serif" font-size="11" lengthAdjust="spacingAndGlyphs" textLength="142" x="1317.6361" y="674.8667">accept(ControllersVisitor)</text><!--MD5=[ba414607f34a8f1ff5e5377db4b3dfd8]
class usantatecla.mastermind.controllers.ResumeController--><rect codeLine="98" fill="#FEFECE" filter="url(#f15p0s98kzcte9)" height="86.4141" id="usantatecla.mastermind.controllers.ResumeController" style="stroke:#A80036;stroke-width:1.5;" width="214" x="819.6331" y="531"/><ellipse cx="868.8831" cy="547" fill="#ADD1B2" rx="11" ry="11" style="stroke:#A80036;stroke-width:1.0;"/><path d="M871.2268,542.6719 C870.2893,542.2344 869.6956,542.0938 868.8206,542.0938 C866.1956,542.0938 864.1956,544.1719 864.1956,546.8906 L864.1956,548.0156 C864.1956,550.5938 866.305,552.4844 869.1956,552.4844 C870.4143,552.4844 871.5706,552.1875 872.3206,551.6406 C872.8987,551.2344 873.2268,550.7813 873.2268,550.3906 C873.2268,549.9375 872.8362,549.5469 872.3675,549.5469 C872.1487,549.5469 871.9456,549.625 871.7581,549.8125 C871.305,550.2969 871.305,550.2969 871.1175,550.3906 C870.6956,550.6563 870.0081,550.7813 869.2425,550.7813 C867.1956,550.7813 865.8987,549.6875 865.8987,547.9844 L865.8987,546.8906 C865.8987,545.1094 867.1487,543.7969 868.8831,543.7969 C869.4612,543.7969 870.0706,543.9531 870.5393,544.2031 C871.0237,544.4844 871.1956,544.7031 871.2893,545.1094 C871.3518,545.5156 871.3831,545.6406 871.5237,545.7656 C871.6643,545.9063 871.8987,546.0156 872.1175,546.0156 C872.3831,546.0156 872.6487,545.875 872.8206,545.6563 C872.93,545.5 872.9612,545.3125 872.9612,544.8906 L872.9612,543.4688 C872.9612,543.0313 872.9456,542.9063 872.8518,542.75 C872.6956,542.4844 872.4143,542.3438 872.1175,542.3438 C871.8206,542.3438 871.6175,542.4375 871.3987,542.75 L871.2268,542.6719 Z " fill="#000000"/><text fill="#000000" font-family="sans-serif" font-size="12" lengthAdjust="spacingAndGlyphs" textLength="107" x="889.3831" y="551.1543">ResumeController</text><line style="stroke:#A80036;stroke-width:1.5;" x1="820.6331" x2="1032.6331" y1="563" y2="563"/><line style="stroke:#A80036;stroke-width:1.5;" x1="820.6331" x2="1032.6331" y1="571" y2="571"/><ellipse cx="830.6331" cy="582" fill="#84BE84" rx="3" ry="3" style="stroke:#038048;stroke-width:1.0;"/><text fill="#000000" font-family="sans-serif" font-size="11" lengthAdjust="spacingAndGlyphs" textLength="188" x="839.6331" y="585.2104">ResumeController(Session,TCPIP)</text><ellipse cx="830.6331" cy="594.8047" fill="#84BE84" rx="3" ry="3" style="stroke:#038048;stroke-width:1.0;"/><text fill="#000000" font-family="sans-serif" font-size="11" lengthAdjust="spacingAndGlyphs" textLength="98" x="839.6331" y="598.0151">resume(boolean)</text><ellipse cx="830.6331" cy="607.6094" fill="#84BE84" rx="3" ry="3" style="stroke:#038048;stroke-width:1.0;"/><text fill="#000000" font-family="sans-serif" font-size="11" lengthAdjust="spacingAndGlyphs" textLength="142" x="839.6331" y="610.8198">accept(ControllersVisitor)</text><!--MD5=[94a6d75594c4867cc1b5bdf8bdcd38a2]
class usantatecla.mastermind.controllers.Logic--><rect codeLine="35" fill="#FEFECE" filter="url(#f15p0s98kzcte9)" height="86.4141" id="usantatecla.mastermind.controllers.Logic" style="stroke:#A80036;stroke-width:1.5;" width="220" x="853.6331" y="41"/><ellipse cx="943.3831" cy="57" fill="#ADD1B2" rx="11" ry="11" style="stroke:#A80036;stroke-width:1.0;"/><path d="M945.7268,52.6719 C944.7893,52.2344 944.1956,52.0938 943.3206,52.0938 C940.6956,52.0938 938.6956,54.1719 938.6956,56.8906 L938.6956,58.0156 C938.6956,60.5938 940.805,62.4844 943.6956,62.4844 C944.9143,62.4844 946.0706,62.1875 946.8206,61.6406 C947.3987,61.2344 947.7268,60.7813 947.7268,60.3906 C947.7268,59.9375 947.3362,59.5469 946.8675,59.5469 C946.6487,59.5469 946.4456,59.625 946.2581,59.8125 C945.805,60.2969 945.805,60.2969 945.6175,60.3906 C945.1956,60.6563 944.5081,60.7813 943.7425,60.7813 C941.6956,60.7813 940.3987,59.6875 940.3987,57.9844 L940.3987,56.8906 C940.3987,55.1094 941.6487,53.7969 943.3831,53.7969 C943.9612,53.7969 944.5706,53.9531 945.0393,54.2031 C945.5237,54.4844 945.6956,54.7031 945.7893,55.1094 C945.8518,55.5156 945.8831,55.6406 946.0237,55.7656 C946.1643,55.9063 946.3987,56.0156 946.6175,56.0156 C946.8831,56.0156 947.1487,55.875 947.3206,55.6563 C947.43,55.5 947.4612,55.3125 947.4612,54.8906 L947.4612,53.4688 C947.4612,53.0313 947.4456,52.9063 947.3518,52.75 C947.1956,52.4844 946.9143,52.3438 946.6175,52.3438 C946.3206,52.3438 946.1175,52.4375 945.8987,52.75 L945.7268,52.6719 Z " fill="#000000"/><text fill="#000000" font-family="sans-serif" font-size="12" lengthAdjust="spacingAndGlyphs" textLength="32" x="963.8831" y="61.1543">Logic</text><line style="stroke:#A80036;stroke-width:1.5;" x1="854.6331" x2="1072.6331" y1="73" y2="73"/><line style="stroke:#A80036;stroke-width:1.5;" x1="854.6331" x2="1072.6331" y1="81" y2="81"/><ellipse cx="864.6331" cy="92" fill="#84BE84" rx="3" ry="3" style="stroke:#038048;stroke-width:1.0;"/><text fill="#000000" font-family="sans-serif" font-size="11" lengthAdjust="spacingAndGlyphs" textLength="83" x="873.6331" y="95.2104">Logic(boolean)</text><ellipse cx="864.6331" cy="104.8047" fill="#84BE84" rx="3" ry="3" style="stroke:#038048;stroke-width:1.0;"/><text fill="#000000" font-family="sans-serif" font-size="11" lengthAdjust="spacingAndGlyphs" textLength="194" x="873.6331" y="108.0151">getController(): AcceptorController</text><ellipse cx="864.6331" cy="117.6094" fill="#84BE84" rx="3" ry="3" style="stroke:#038048;stroke-width:1.0;"/><text fill="#000000" font-family="sans-serif" font-size="11" lengthAdjust="spacingAndGlyphs" textLength="38" x="873.6331" y="120.8198">close()</text><!--MD5=[71ea1457370bc7d349149836b00bab29]
class usantatecla.mastermind.controllers.PlayController--><rect codeLine="74" fill="#FEFECE" filter="url(#f15p0s98kzcte9)" height="150.4375" id="usantatecla.mastermind.controllers.PlayController" style="stroke:#A80036;stroke-width:1.5;" width="270" x="1297.6361" y="741"/><ellipse cx="1372.8861" cy="757" fill="#ADD1B2" rx="11" ry="11" style="stroke:#A80036;stroke-width:1.0;"/><path d="M1375.2299,752.6719 C1374.2924,752.2344 1373.6986,752.0938 1372.8236,752.0938 C1370.1986,752.0938 1368.1986,754.1719 1368.1986,756.8906 L1368.1986,758.0156 C1368.1986,760.5938 1370.308,762.4844 1373.1986,762.4844 C1374.4174,762.4844 1375.5736,762.1875 1376.3236,761.6406 C1376.9017,761.2344 1377.2299,760.7813 1377.2299,760.3906 C1377.2299,759.9375 1376.8392,759.5469 1376.3705,759.5469 C1376.1517,759.5469 1375.9486,759.625 1375.7611,759.8125 C1375.308,760.2969 1375.308,760.2969 1375.1205,760.3906 C1374.6986,760.6563 1374.0111,760.7813 1373.2455,760.7813 C1371.1986,760.7813 1369.9017,759.6875 1369.9017,757.9844 L1369.9017,756.8906 C1369.9017,755.1094 1371.1517,753.7969 1372.8861,753.7969 C1373.4642,753.7969 1374.0736,753.9531 1374.5424,754.2031 C1375.0267,754.4844 1375.1986,754.7031 1375.2924,755.1094 C1375.3549,755.5156 1375.3861,755.6406 1375.5267,755.7656 C1375.6674,755.9063 1375.9017,756.0156 1376.1205,756.0156 C1376.3861,756.0156 1376.6517,755.875 1376.8236,755.6563 C1376.933,755.5 1376.9642,755.3125 1376.9642,754.8906 L1376.9642,753.4688 C1376.9642,753.0313 1376.9486,752.9063 1376.8549,752.75 C1376.6986,752.4844 1376.4174,752.3438 1376.1205,752.3438 C1375.8236,752.3438 1375.6205,752.4375 1375.4017,752.75 L1375.2299,752.6719 Z " fill="#000000"/><text fill="#000000" font-family="sans-serif" font-size="12" lengthAdjust="spacingAndGlyphs" textLength="111" x="1393.3861" y="761.1543">ProposalController</text><line style="stroke:#A80036;stroke-width:1.5;" x1="1298.6361" x2="1566.6361" y1="773" y2="773"/><line style="stroke:#A80036;stroke-width:1.5;" x1="1298.6361" x2="1566.6361" y1="781" y2="781"/><polygon fill="#4177AF" points="1308.6361,788,1304.6361,794,1312.6361,794" style="stroke:#1963A0;stroke-width:1.0;"/><text fill="#000000" font-family="sans-serif" font-size="11" lengthAdjust="spacingAndGlyphs" textLength="155" x="1317.6361" y="795.2104">ProposalController(Session)</text><polygon fill="#4177AF" points="1308.6361,800.8047,1304.6361,806.8047,1312.6361,806.8047" style="stroke:#1963A0;stroke-width:1.0;"/><text fill="#000000" font-family="sans-serif" font-size="11" lengthAdjust="spacingAndGlyphs" textLength="244" x="1317.6361" y="808.0151">addProposeCombination(List&lt;Color&gt;): Error</text><polygon fill="#4177AF" points="1308.6361,813.6094,1304.6361,819.6094,1312.6361,819.6094" style="stroke:#1963A0;stroke-width:1.0;"/><text fill="#000000" font-family="sans-serif" font-size="11" lengthAdjust="spacingAndGlyphs" textLength="110" x="1317.6361" y="820.8198">isWinner(): boolean</text><polygon fill="#4177AF" points="1308.6361,826.4141,1304.6361,832.4141,1312.6361,832.4141" style="stroke:#1963A0;stroke-width:1.0;"/><text fill="#000000" font-family="sans-serif" font-size="11" lengthAdjust="spacingAndGlyphs" textLength="108" x="1317.6361" y="833.6245">isLooser(): boolean</text><polygon fill="#4177AF" points="1308.6361,839.2188,1304.6361,845.2188,1312.6361,845.2188" style="stroke:#1963A0;stroke-width:1.0;"/><text fill="#000000" font-family="sans-serif" font-size="11" lengthAdjust="spacingAndGlyphs" textLength="100" x="1317.6361" y="846.4292">getAttempts(): int</text><polygon fill="#4177AF" points="1308.6361,852.0234,1304.6361,858.0234,1312.6361,858.0234" style="stroke:#1963A0;stroke-width:1.0;"/><text fill="#000000" font-family="sans-serif" font-size="11" lengthAdjust="spacingAndGlyphs" textLength="149" x="1317.6361" y="859.2339">getColors(int): List&lt;Color&gt;</text><polygon fill="#4177AF" points="1308.6361,864.8281,1304.6361,870.8281,1312.6361,870.8281" style="stroke:#1963A0;stroke-width:1.0;"/><text fill="#000000" font-family="sans-serif" font-size="11" lengthAdjust="spacingAndGlyphs" textLength="98" x="1317.6361" y="872.0386">getBlacks(int): int</text><polygon fill="#4177AF" points="1308.6361,877.6328,1304.6361,883.6328,1312.6361,883.6328" style="stroke:#1963A0;stroke-width:1.0;"/><text fill="#000000" font-family="sans-serif" font-size="11" lengthAdjust="spacingAndGlyphs" textLength="101" x="1317.6361" y="884.8433">getWhites(int): int</text><!--MD5=[151d2f6508794d65f8147ab4cfc9408d]
class usantatecla.mastermind.controllers.UndoController--><rect codeLine="120" fill="#FEFECE" filter="url(#f15p0s98kzcte9)" height="86.4141" id="usantatecla.mastermind.controllers.UndoController" style="stroke:#A80036;stroke-width:1.5;" width="163" x="1099.1361" y="773"/><ellipse cx="1132.1361" cy="789" fill="#ADD1B2" rx="11" ry="11" style="stroke:#A80036;stroke-width:1.0;"/><path d="M1134.4799,784.6719 C1133.5424,784.2344 1132.9486,784.0938 1132.0736,784.0938 C1129.4486,784.0938 1127.4486,786.1719 1127.4486,788.8906 L1127.4486,790.0156 C1127.4486,792.5938 1129.558,794.4844 1132.4486,794.4844 C1133.6674,794.4844 1134.8236,794.1875 1135.5736,793.6406 C1136.1517,793.2344 1136.4799,792.7813 1136.4799,792.3906 C1136.4799,791.9375 1136.0892,791.5469 1135.6205,791.5469 C1135.4017,791.5469 1135.1986,791.625 1135.0111,791.8125 C1134.558,792.2969 1134.558,792.2969 1134.3705,792.3906 C1133.9486,792.6563 1133.2611,792.7813 1132.4955,792.7813 C1130.4486,792.7813 1129.1517,791.6875 1129.1517,789.9844 L1129.1517,788.8906 C1129.1517,787.1094 1130.4017,785.7969 1132.1361,785.7969 C1132.7142,785.7969 1133.3236,785.9531 1133.7924,786.2031 C1134.2767,786.4844 1134.4486,786.7031 1134.5424,787.1094 C1134.6049,787.5156 1134.6361,787.6406 1134.7767,787.7656 C1134.9174,787.9063 1135.1517,788.0156 1135.3705,788.0156 C1135.6361,788.0156 1135.9017,787.875 1136.0736,787.6563 C1136.183,787.5 1136.2142,787.3125 1136.2142,786.8906 L1136.2142,785.4688 C1136.2142,785.0313 1136.1986,784.9063 1136.1049,784.75 C1135.9486,784.4844 1135.6674,784.3438 1135.3705,784.3438 C1135.0736,784.3438 1134.8705,784.4375 1134.6517,784.75 L1134.4799,784.6719 Z " fill="#000000"/><text fill="#000000" font-family="sans-serif" font-size="12" lengthAdjust="spacingAndGlyphs" textLength="91" x="1150.1361" y="793.1543">UndoController</text><line style="stroke:#A80036;stroke-width:1.5;" x1="1100.1361" x2="1261.1361" y1="805" y2="805"/><line style="stroke:#A80036;stroke-width:1.5;" x1="1100.1361" x2="1261.1361" y1="813" y2="813"/><polygon fill="#4177AF" points="1110.1361,820,1106.1361,826,1114.1361,826" style="stroke:#1963A0;stroke-width:1.0;"/><text fill="#000000" font-family="sans-serif" font-size="11" lengthAdjust="spacingAndGlyphs" textLength="137" x="1119.1361" y="827.2104">UndoController(Session)</text><polygon fill="#4177AF" points="1110.1361,832.8047,1106.1361,838.8047,1114.1361,838.8047" style="stroke:#1963A0;stroke-width:1.0;"/><text fill="#000000" font-family="sans-serif" font-size="11" lengthAdjust="spacingAndGlyphs" textLength="36" x="1119.1361" y="840.0151">undo()</text><polygon fill="#4177AF" points="1110.1361,845.6094,1106.1361,851.6094,1114.1361,851.6094" style="stroke:#1963A0;stroke-width:1.0;"/><text fill="#000000" font-family="sans-serif" font-size="11" lengthAdjust="spacingAndGlyphs" textLength="114" x="1119.1361" y="852.8198">undoable(): boolean</text><!--MD5=[ad403d85d3aa729c37503f477ae09c63]
class usantatecla.mastermind.controllers.RedoController--><rect codeLine="90" fill="#FEFECE" filter="url(#f15p0s98kzcte9)" height="86.4141" id="usantatecla.mastermind.controllers.RedoController" style="stroke:#A80036;stroke-width:1.5;" width="163" x="901.1331" y="773"/><ellipse cx="934.5831" cy="789" fill="#ADD1B2" rx="11" ry="11" style="stroke:#A80036;stroke-width:1.0;"/><path d="M936.9269,784.6719 C935.9894,784.2344 935.3956,784.0938 934.5206,784.0938 C931.8956,784.0938 929.8956,786.1719 929.8956,788.8906 L929.8956,790.0156 C929.8956,792.5938 932.005,794.4844 934.8956,794.4844 C936.1144,794.4844 937.2706,794.1875 938.0206,793.6406 C938.5987,793.2344 938.9269,792.7813 938.9269,792.3906 C938.9269,791.9375 938.5362,791.5469 938.0675,791.5469 C937.8487,791.5469 937.6456,791.625 937.4581,791.8125 C937.005,792.2969 937.005,792.2969 936.8175,792.3906 C936.3956,792.6563 935.7081,792.7813 934.9425,792.7813 C932.8956,792.7813 931.5987,791.6875 931.5987,789.9844 L931.5987,788.8906 C931.5987,787.1094 932.8487,785.7969 934.5831,785.7969 C935.1612,785.7969 935.7706,785.9531 936.2394,786.2031 C936.7237,786.4844 936.8956,786.7031 936.9894,787.1094 C937.0519,787.5156 937.0831,787.6406 937.2237,787.7656 C937.3644,787.9063 937.5987,788.0156 937.8175,788.0156 C938.0831,788.0156 938.3487,787.875 938.5206,787.6563 C938.63,787.5 938.6612,787.3125 938.6612,786.8906 L938.6612,785.4688 C938.6612,785.0313 938.6456,784.9063 938.5519,784.75 C938.3956,784.4844 938.1144,784.3438 937.8175,784.3438 C937.5206,784.3438 937.3175,784.4375 937.0987,784.75 L936.9269,784.6719 Z " fill="#000000"/><text fill="#000000" font-family="sans-serif" font-size="12" lengthAdjust="spacingAndGlyphs" textLength="90" x="952.6831" y="793.1543">RedoController</text><line style="stroke:#A80036;stroke-width:1.5;" x1="902.1331" x2="1063.1331" y1="805" y2="805"/><line style="stroke:#A80036;stroke-width:1.5;" x1="902.1331" x2="1063.1331" y1="813" y2="813"/><polygon fill="#4177AF" points="912.1331,820,908.1331,826,916.1331,826" style="stroke:#1963A0;stroke-width:1.0;"/><text fill="#000000" font-family="sans-serif" font-size="11" lengthAdjust="spacingAndGlyphs" textLength="137" x="921.1331" y="827.2104">RedoController(Session)</text><polygon fill="#4177AF" points="912.1331,832.8047,908.1331,838.8047,916.1331,838.8047" style="stroke:#1963A0;stroke-width:1.0;"/><text fill="#000000" font-family="sans-serif" font-size="11" lengthAdjust="spacingAndGlyphs" textLength="34" x="921.1331" y="840.0151">redo()</text><polygon fill="#4177AF" points="912.1331,845.6094,908.1331,851.6094,916.1331,851.6094" style="stroke:#1963A0;stroke-width:1.0;"/><text fill="#000000" font-family="sans-serif" font-size="11" lengthAdjust="spacingAndGlyphs" textLength="112" x="921.1331" y="852.8198">redoable(): boolean</text><!--MD5=[28491d17d5ee38c9c116625a5ffc259a]
class Combination--><rect codeLine="1" fill="#FEFECE" filter="url(#f15p0s98kzcte9)" height="67.9063" id="Combination" style="stroke:#A80036;stroke-width:1.5;" width="156" x="1250.6361" y="951"/><ellipse cx="1265.6361" cy="976.9531" fill="#A9DCDF" rx="11" ry="11" style="stroke:#A80036;stroke-width:1.0;"/><path d="M1267.7142,978.7656 L1268.1049,979.75 L1267.7142,979.75 C1267.2611,979.75 1267.1517,979.7656 1266.9955,979.875 C1266.7455,980.0313 1266.5892,980.3125 1266.5892,980.6094 C1266.5892,980.875 1266.7299,981.125 1266.9486,981.2813 C1267.0892,981.4063 1267.2924,981.4531 1267.7142,981.4531 L1270.0736,981.4531 C1270.433,981.4531 1270.6517,981.4219 1270.7924,981.3281 C1271.0424,981.1875 1271.1986,980.8906 1271.1986,980.6094 C1271.1986,980.3281 1271.058,980.0781 1270.8392,979.9219 C1270.6674,979.7813 1270.5111,979.75 1270.0424,979.75 L1266.6517,971.5469 L1262.9799,971.5469 C1262.5267,971.5469 1262.4017,971.5625 1262.2455,971.6563 C1261.9955,971.8281 1261.8392,972.1094 1261.8392,972.3906 C1261.8392,972.6719 1261.9799,972.9219 1262.1986,973.0938 C1262.3705,973.2031 1262.5424,973.2344 1262.9799,973.2344 L1264.058,973.2344 L1261.4174,979.75 C1260.9955,979.75 1260.8392,979.7656 1260.683,979.875 C1260.433,980.0313 1260.2767,980.3125 1260.2767,980.6094 C1260.2767,981.1719 1260.6517,981.4531 1261.4017,981.4531 L1263.6674,981.4531 C1264.0267,981.4531 1264.2455,981.4219 1264.3705,981.3281 C1264.6361,981.1875 1264.7767,980.8906 1264.7767,980.6094 C1264.7767,980.3281 1264.6517,980.0781 1264.433,979.9063 C1264.2611,979.7813 1264.1205,979.75 1263.6674,979.75 L1263.2767,979.75 L1263.6674,978.7656 L1267.7142,978.7656 Z M1267.0111,977.0625 L1264.3392,977.0625 L1265.683,973.7969 L1267.0111,977.0625 Z " fill="#000000"/><text fill="#000000" font-family="sans-serif" font-size="12" font-style="italic" lengthAdjust="spacingAndGlyphs" textLength="74" x="1304.6361" y="967.1387">usantatecla.</text><text fill="#000000" font-family="sans-serif" font-size="12" font-style="italic" lengthAdjust="spacingAndGlyphs" textLength="124" x="1279.6361" y="981.1074">mastermind.models.</text><text fill="#000000" font-family="sans-serif" font-size="12" font-style="italic" lengthAdjust="spacingAndGlyphs" textLength="76" x="1303.6361" y="995.0762">Combination</text><line style="stroke:#A80036;stroke-width:1.5;" x1="1251.6361" x2="1405.6361" y1="1002.9063" y2="1002.9063"/><line style="stroke:#A80036;stroke-width:1.5;" x1="1251.6361" x2="1405.6361" y1="1010.9063" y2="1010.9063"/><!--MD5=[2ca1536628238a7dc78c5d90808014f9]
class Session--><rect codeLine="2" fill="#FEFECE" filter="url(#f15p0s98kzcte9)" height="67.9063" id="Session" style="stroke:#A80036;stroke-width:1.5;" width="154" x="483.6331" y="951"/><ellipse cx="498.6331" cy="976.9531" fill="#ADD1B2" rx="11" ry="11" style="stroke:#A80036;stroke-width:1.0;"/><path d="M500.9769,972.625 C500.0394,972.1875 499.4456,972.0469 498.5706,972.0469 C495.9456,972.0469 493.9456,974.125 493.9456,976.8438 L493.9456,977.9688 C493.9456,980.5469 496.055,982.4375 498.9456,982.4375 C500.1644,982.4375 501.3206,982.1406 502.0706,981.5938 C502.6487,981.1875 502.9769,980.7344 502.9769,980.3438 C502.9769,979.8906 502.5862,979.5 502.1175,979.5 C501.8987,979.5 501.6956,979.5781 501.5081,979.7656 C501.055,980.25 501.055,980.25 500.8675,980.3438 C500.4456,980.6094 499.7581,980.7344 498.9925,980.7344 C496.9456,980.7344 495.6487,979.6406 495.6487,977.9375 L495.6487,976.8438 C495.6487,975.0625 496.8987,973.75 498.6331,973.75 C499.2112,973.75 499.8206,973.9063 500.2894,974.1563 C500.7737,974.4375 500.9456,974.6563 501.0394,975.0625 C501.1019,975.4688 501.1331,975.5938 501.2737,975.7188 C501.4144,975.8594 501.6487,975.9688 501.8675,975.9688 C502.1331,975.9688 502.3987,975.8281 502.5706,975.6094 C502.68,975.4531 502.7112,975.2656 502.7112,974.8438 L502.7112,973.4219 C502.7112,972.9844 502.6956,972.8594 502.6019,972.7031 C502.4456,972.4375 502.1644,972.2969 501.8675,972.2969 C501.5706,972.2969 501.3675,972.3906 501.1487,972.7031 L500.9769,972.625 Z " fill="#000000"/><text fill="#000000" font-family="sans-serif" font-size="12" lengthAdjust="spacingAndGlyphs" textLength="71" x="538.1331" y="967.1387">usantatecla.</text><text fill="#000000" font-family="sans-serif" font-size="12" lengthAdjust="spacingAndGlyphs" textLength="122" x="512.6331" y="981.1074">mastermind.models.</text><text fill="#000000" font-family="sans-serif" font-size="12" lengthAdjust="spacingAndGlyphs" textLength="48" x="549.6331" y="995.0762">Session</text><line style="stroke:#A80036;stroke-width:1.5;" x1="484.6331" x2="636.6331" y1="1002.9063" y2="1002.9063"/><line style="stroke:#A80036;stroke-width:1.5;" x1="484.6331" x2="636.6331" y1="1010.9063" y2="1010.9063"/><!--MD5=[167506e288131cdf3986fedef83acd94]
class StateValue--><rect codeLine="3" fill="#FEFECE" filter="url(#f15p0s98kzcte9)" height="67.9063" id="StateValue" style="stroke:#A80036;stroke-width:1.5;" width="154" x="1713.6361" y="190"/><ellipse cx="1728.6361" cy="215.9531" fill="#ADD1B2" rx="11" ry="11" style="stroke:#A80036;stroke-width:1.0;"/><path d="M1730.9799,211.625 C1730.0424,211.1875 1729.4486,211.0469 1728.5736,211.0469 C1725.9486,211.0469 1723.9486,213.125 1723.9486,215.8438 L1723.9486,216.9688 C1723.9486,219.5469 1726.058,221.4375 1728.9486,221.4375 C1730.1674,221.4375 1731.3236,221.1406 1732.0736,220.5938 C1732.6517,220.1875 1732.9799,219.7344 1732.9799,219.3438 C1732.9799,218.8906 1732.5892,218.5 1732.1205,218.5 C1731.9017,218.5 1731.6986,218.5781 1731.5111,218.7656 C1731.058,219.25 1731.058,219.25 1730.8705,219.3438 C1730.4486,219.6094 1729.7611,219.7344 1728.9955,219.7344 C1726.9486,219.7344 1725.6517,218.6406 1725.6517,216.9375 L1725.6517,215.8438 C1725.6517,214.0625 1726.9017,212.75 1728.6361,212.75 C1729.2142,212.75 1729.8236,212.9063 1730.2924,213.1563 C1730.7767,213.4375 1730.9486,213.6563 1731.0424,214.0625 C1731.1049,214.4688 1731.1361,214.5938 1731.2767,214.7188 C1731.4174,214.8594 1731.6517,214.9688 1731.8705,214.9688 C1732.1361,214.9688 1732.4017,214.8281 1732.5736,214.6094 C1732.683,214.4531 1732.7142,214.2656 1732.7142,213.8438 L1732.7142,212.4219 C1732.7142,211.9844 1732.6986,211.8594 1732.6049,211.7031 C1732.4486,211.4375 1732.1674,211.2969 1731.8705,211.2969 C1731.5736,211.2969 1731.3705,211.3906 1731.1517,211.7031 L1730.9799,211.625 Z " fill="#000000"/><text fill="#000000" font-family="sans-serif" font-size="12" lengthAdjust="spacingAndGlyphs" textLength="71" x="1768.1361" y="206.1387">usantatecla.</text><text fill="#000000" font-family="sans-serif" font-size="12" lengthAdjust="spacingAndGlyphs" textLength="122" x="1742.6361" y="220.1074">mastermind.models.</text><text fill="#000000" font-family="sans-serif" font-size="12" lengthAdjust="spacingAndGlyphs" textLength="64" x="1771.6361" y="234.0762">StateValue</text><line style="stroke:#A80036;stroke-width:1.5;" x1="1714.6361" x2="1866.6361" y1="241.9063" y2="241.9063"/><line style="stroke:#A80036;stroke-width:1.5;" x1="1714.6361" x2="1866.6361" y1="249.9063" y2="249.9063"/><!--MD5=[18eee71c88ab61f27581b8cbdd3ef5ee]
class Color--><rect codeLine="4" fill="#FEFECE" filter="url(#f15p0s98kzcte9)" height="67.9063" id="Color" style="stroke:#A80036;stroke-width:1.5;" width="143" x="1620.1361" y="951"/><ellipse cx="1635.1361" cy="976.9531" fill="#EB937F" rx="11" ry="11" style="stroke:#A80036;stroke-width:1.0;"/><path d="M1633.933,977.8281 L1635.3861,977.8281 L1635.3861,977.9375 C1635.3861,978.3438 1635.4174,978.5 1635.4955,978.6563 C1635.6517,978.9063 1635.933,979.0625 1636.2299,979.0625 C1636.4799,979.0625 1636.7455,978.9219 1636.9017,978.7031 C1637.0267,978.5469 1637.058,978.3906 1637.058,977.9375 L1637.058,976.0156 C1637.058,975.8594 1637.058,975.8125 1637.0424,975.6563 C1636.9799,975.1875 1636.6674,974.875 1636.2142,974.875 C1635.9642,974.875 1635.6986,975.0156 1635.5267,975.2344 C1635.4174,975.4063 1635.3861,975.5625 1635.3861,976.0156 L1635.3861,976.1406 L1633.933,976.1406 L1633.933,973.7344 L1637.9174,973.7344 L1637.9174,974.5938 C1637.9174,975 1637.9486,975.1719 1638.0267,975.3281 C1638.1986,975.5781 1638.4799,975.7344 1638.7611,975.7344 C1639.0267,975.7344 1639.2924,975.5938 1639.4642,975.375 C1639.5736,975.2031 1639.6049,975.0625 1639.6049,974.5938 L1639.6049,972.0469 L1631.9799,972.0469 C1631.5424,972.0469 1631.4174,972.0625 1631.2611,972.1563 C1631.0111,972.3125 1630.8549,972.6094 1630.8549,972.8906 C1630.8549,973.1719 1630.9955,973.4219 1631.2142,973.5938 C1631.3705,973.7031 1631.558,973.7344 1631.9799,973.7344 L1632.2299,973.7344 L1632.2299,980.25 L1631.9799,980.25 C1631.5736,980.25 1631.4174,980.2656 1631.2611,980.375 C1631.0111,980.5469 1630.8549,980.8125 1630.8549,981.1094 C1630.8549,981.375 1630.9955,981.625 1631.2142,981.7813 C1631.3549,981.9063 1631.5892,981.9531 1631.9799,981.9531 L1639.9799,981.9531 L1639.9799,979.375 C1639.9799,978.9375 1639.9486,978.7969 1639.8705,978.6406 C1639.6986,978.3906 1639.4174,978.2344 1639.1361,978.2344 C1638.8705,978.2344 1638.6049,978.3438 1638.433,978.5938 C1638.3236,978.75 1638.2924,978.8906 1638.2924,979.375 L1638.2924,980.25 L1633.933,980.25 L1633.933,977.8281 Z " fill="#000000"/><text fill="#000000" font-family="sans-serif" font-size="12" lengthAdjust="spacingAndGlyphs" textLength="71" x="1669.1361" y="967.1387">usantatecla.</text><text fill="#000000" font-family="sans-serif" font-size="12" lengthAdjust="spacingAndGlyphs" textLength="111" x="1649.1361" y="981.1074">mastermind.types.</text><text fill="#000000" font-family="sans-serif" font-size="12" lengthAdjust="spacingAndGlyphs" textLength="32" x="1688.6361" y="995.0762">Color</text><line style="stroke:#A80036;stroke-width:1.5;" x1="1621.1361" x2="1762.1361" y1="1002.9063" y2="1002.9063"/><line style="stroke:#A80036;stroke-width:1.5;" x1="1621.1361" x2="1762.1361" y1="1010.9063" y2="1010.9063"/><!--MD5=[b8cfd8c4119a3b0a7a46bfc5fc780f85]
class Error--><rect codeLine="5" fill="#FEFECE" filter="url(#f15p0s98kzcte9)" height="67.9063" id="Error" style="stroke:#A80036;stroke-width:1.5;" width="143" x="1442.1361" y="951"/><ellipse cx="1457.1361" cy="976.9531" fill="#EB937F" rx="11" ry="11" style="stroke:#A80036;stroke-width:1.0;"/><path d="M1455.933,977.8281 L1457.3861,977.8281 L1457.3861,977.9375 C1457.3861,978.3438 1457.4174,978.5 1457.4955,978.6563 C1457.6517,978.9063 1457.933,979.0625 1458.2299,979.0625 C1458.4799,979.0625 1458.7455,978.9219 1458.9017,978.7031 C1459.0267,978.5469 1459.058,978.3906 1459.058,977.9375 L1459.058,976.0156 C1459.058,975.8594 1459.058,975.8125 1459.0424,975.6563 C1458.9799,975.1875 1458.6674,974.875 1458.2142,974.875 C1457.9642,974.875 1457.6986,975.0156 1457.5267,975.2344 C1457.4174,975.4063 1457.3861,975.5625 1457.3861,976.0156 L1457.3861,976.1406 L1455.933,976.1406 L1455.933,973.7344 L1459.9174,973.7344 L1459.9174,974.5938 C1459.9174,975 1459.9486,975.1719 1460.0267,975.3281 C1460.1986,975.5781 1460.4799,975.7344 1460.7611,975.7344 C1461.0267,975.7344 1461.2924,975.5938 1461.4642,975.375 C1461.5736,975.2031 1461.6049,975.0625 1461.6049,974.5938 L1461.6049,972.0469 L1453.9799,972.0469 C1453.5424,972.0469 1453.4174,972.0625 1453.2611,972.1563 C1453.0111,972.3125 1452.8549,972.6094 1452.8549,972.8906 C1452.8549,973.1719 1452.9955,973.4219 1453.2142,973.5938 C1453.3705,973.7031 1453.558,973.7344 1453.9799,973.7344 L1454.2299,973.7344 L1454.2299,980.25 L1453.9799,980.25 C1453.5736,980.25 1453.4174,980.2656 1453.2611,980.375 C1453.0111,980.5469 1452.8549,980.8125 1452.8549,981.1094 C1452.8549,981.375 1452.9955,981.625 1453.2142,981.7813 C1453.3549,981.9063 1453.5892,981.9531 1453.9799,981.9531 L1461.9799,981.9531 L1461.9799,979.375 C1461.9799,978.9375 1461.9486,978.7969 1461.8705,978.6406 C1461.6986,978.3906 1461.4174,978.2344 1461.1361,978.2344 C1460.8705,978.2344 1460.6049,978.3438 1460.433,978.5938 C1460.3236,978.75 1460.2924,978.8906 1460.2924,979.375 L1460.2924,980.25 L1455.933,980.25 L1455.933,977.8281 Z " fill="#000000"/><text fill="#000000" font-family="sans-serif" font-size="12" lengthAdjust="spacingAndGlyphs" textLength="71" x="1491.1361" y="967.1387">usantatecla.</text><text fill="#000000" font-family="sans-serif" font-size="12" lengthAdjust="spacingAndGlyphs" textLength="111" x="1471.1361" y="981.1074">mastermind.types.</text><text fill="#000000" font-family="sans-serif" font-size="12" lengthAdjust="spacingAndGlyphs" textLength="30" x="1511.6361" y="995.0762">Error</text><line style="stroke:#A80036;stroke-width:1.5;" x1="1443.1361" x2="1584.1361" y1="1002.9063" y2="1002.9063"/><line style="stroke:#A80036;stroke-width:1.5;" x1="1443.1361" x2="1584.1361" y1="1010.9063" y2="1010.9063"/><!--MD5=[38245488e518838837f988240300d459]
class TCPIP--><rect codeLine="6" fill="#FEFECE" filter="url(#f15p0s98kzcte9)" height="67.9063" id="TCPIP" style="stroke:#A80036;stroke-width:1.5;" width="174" x="333.6331" y="782"/><ellipse cx="348.6331" cy="807.9531" fill="#ADD1B2" rx="11" ry="11" style="stroke:#A80036;stroke-width:1.0;"/><path d="M350.9769,803.625 C350.0394,803.1875 349.4456,803.0469 348.5706,803.0469 C345.9456,803.0469 343.9456,805.125 343.9456,807.8438 L343.9456,808.9688 C343.9456,811.5469 346.055,813.4375 348.9456,813.4375 C350.1644,813.4375 351.3206,813.1406 352.0706,812.5938 C352.6487,812.1875 352.9769,811.7344 352.9769,811.3438 C352.9769,810.8906 352.5862,810.5 352.1175,810.5 C351.8987,810.5 351.6956,810.5781 351.5081,810.7656 C351.055,811.25 351.055,811.25 350.8675,811.3438 C350.4456,811.6094 349.7581,811.7344 348.9925,811.7344 C346.9456,811.7344 345.6487,810.6406 345.6487,808.9375 L345.6487,807.8438 C345.6487,806.0625 346.8987,804.75 348.6331,804.75 C349.2112,804.75 349.8206,804.9063 350.2894,805.1563 C350.7737,805.4375 350.9456,805.6563 351.0394,806.0625 C351.1019,806.4688 351.1331,806.5938 351.2737,806.7188 C351.4144,806.8594 351.6487,806.9688 351.8675,806.9688 C352.1331,806.9688 352.3987,806.8281 352.5706,806.6094 C352.68,806.4531 352.7112,806.2656 352.7112,805.8438 L352.7112,804.4219 C352.7112,803.9844 352.6956,803.8594 352.6019,803.7031 C352.4456,803.4375 352.1644,803.2969 351.8675,803.2969 C351.5706,803.2969 351.3675,803.3906 351.1487,803.7031 L350.9769,803.625 Z " fill="#000000"/><text fill="#000000" font-family="sans-serif" font-size="12" lengthAdjust="spacingAndGlyphs" textLength="71" x="398.1331" y="798.1387">usantatecla.</text><text fill="#000000" font-family="sans-serif" font-size="12" lengthAdjust="spacingAndGlyphs" textLength="142" x="362.6331" y="812.1074">mastermind.distributed.</text><text fill="#000000" font-family="sans-serif" font-size="12" lengthAdjust="spacingAndGlyphs" textLength="104" x="381.6331" y="826.0762">dispatchers.TCPIP</text><line style="stroke:#A80036;stroke-width:1.5;" x1="334.6331" x2="506.6331" y1="833.9063" y2="833.9063"/><line style="stroke:#A80036;stroke-width:1.5;" x1="334.6331" x2="506.6331" y1="841.9063" y2="841.9063"/><!--MD5=[5484e4d01f76af1aea2c14d6b0b115c5]
class FrameType--><rect codeLine="7" fill="#FEFECE" filter="url(#f15p0s98kzcte9)" height="67.9063" id="FrameType" style="stroke:#A80036;stroke-width:1.5;" width="174" x="613.6331" y="782"/><ellipse cx="628.6331" cy="807.9531" fill="#ADD1B2" rx="11" ry="11" style="stroke:#A80036;stroke-width:1.0;"/><path d="M630.9768,803.625 C630.0393,803.1875 629.4456,803.0469 628.5706,803.0469 C625.9456,803.0469 623.9456,805.125 623.9456,807.8438 L623.9456,808.9688 C623.9456,811.5469 626.055,813.4375 628.9456,813.4375 C630.1643,813.4375 631.3206,813.1406 632.0706,812.5938 C632.6487,812.1875 632.9768,811.7344 632.9768,811.3438 C632.9768,810.8906 632.5862,810.5 632.1175,810.5 C631.8987,810.5 631.6956,810.5781 631.5081,810.7656 C631.055,811.25 631.055,811.25 630.8675,811.3438 C630.4456,811.6094 629.7581,811.7344 628.9925,811.7344 C626.9456,811.7344 625.6487,810.6406 625.6487,808.9375 L625.6487,807.8438 C625.6487,806.0625 626.8987,804.75 628.6331,804.75 C629.2112,804.75 629.8206,804.9063 630.2893,805.1563 C630.7737,805.4375 630.9456,805.6563 631.0393,806.0625 C631.1018,806.4688 631.1331,806.5938 631.2737,806.7188 C631.4143,806.8594 631.6487,806.9688 631.8675,806.9688 C632.1331,806.9688 632.3987,806.8281 632.5706,806.6094 C632.68,806.4531 632.7112,806.2656 632.7112,805.8438 L632.7112,804.4219 C632.7112,803.9844 632.6956,803.8594 632.6018,803.7031 C632.4456,803.4375 632.1643,803.2969 631.8675,803.2969 C631.5706,803.2969 631.3675,803.3906 631.1487,803.7031 L630.9768,803.625 Z " fill="#000000"/><text fill="#000000" font-family="sans-serif" font-size="12" lengthAdjust="spacingAndGlyphs" textLength="71" x="678.1331" y="798.1387">usantatecla.</text><text fill="#000000" font-family="sans-serif" font-size="12" lengthAdjust="spacingAndGlyphs" textLength="142" x="642.6331" y="812.1074">mastermind.distributed.</text><text fill="#000000" font-family="sans-serif" font-size="12" lengthAdjust="spacingAndGlyphs" textLength="142" x="642.6331" y="826.0762">dispatchers.FrameType</text><line style="stroke:#A80036;stroke-width:1.5;" x1="614.6331" x2="786.6331" y1="833.9063" y2="833.9063"/><line style="stroke:#A80036;stroke-width:1.5;" x1="614.6331" x2="786.6331" y1="841.9063" y2="841.9063"/><!--MD5=[bd9164636500d3b653f7d33ed9772956]
link usantatecla.mastermind.controllers.AcceptorController to usantatecla.mastermind.controllers.ControllersVisitor--><path codeLine="13" d="M1125.0861,261.258 C1131.7161,277.901 1139.6661,297.852 1146.7661,315.661 " fill="none" id="usantatecla.mastermind.controllers.AcceptorController-to-usantatecla.mastermind.controllers.ControllersVisitor" style="stroke:#A80036;stroke-width:1.0;stroke-dasharray:7.0,7.0;"/><polygon fill="#A80036" points="1148.7461,320.622,1149.1279,310.7805,1146.8941,315.9776,1141.697,313.7438,1148.7461,320.622" style="stroke:#A80036;stroke-width:1.0;"/><!--MD5=[8b9ba24f1d3866548dbbede2342825f8]
link usantatecla.mastermind.controllers.AcceptorController to TCPIP--><path codeLine="14" d="M1062.3661,261.008 C1000.7831,307.349 891.4911,390.963 801.6331,467 C672.5601,576.22 526.7131,713.551 458.9841,778.175 " fill="none" id="usantatecla.mastermind.controllers.AcceptorController-to-TCPIP" style="stroke:#A80036;stroke-width:1.0;stroke-dasharray:7.0,7.0;"/><polygon fill="#A80036" points="455.0301,781.949,464.3022,778.6281,458.6468,778.4966,458.7783,772.8413,455.0301,781.949" style="stroke:#A80036;stroke-width:1.0;"/><!--MD5=[7ac7fe15ca39646e30691395f707f455]
link usantatecla.mastermind.controllers.AcceptorController to Session--><path codeLine="15" d="M999.9461,250.037 C802.9751,301.661 400.3081,441.144 272.6331,741 C242.3381,812.152 224.7421,854.28 272.6331,915 C297.8581,946.9823 402.1851,965.8072 478.0331,975.5101 " fill="none" id="usantatecla.mastermind.controllers.AcceptorController-to-Session" style="stroke:#A80036;stroke-width:1.0;stroke-dasharray:7.0,7.0;"/><polygon fill="#A80036" points="483.4431,976.193,475.0159,971.0958,478.4826,975.5659,474.0125,979.0326,483.4431,976.193" style="stroke:#A80036;stroke-width:1.0;"/><!--MD5=[1d9650d1233ef7443512890ab3c22f04]
reverse link usantatecla.mastermind.controllers.Controller to usantatecla.mastermind.controllers.AcceptorController--><path codeLine="16" d="M1471.2161,118.022 C1395.5061,140.063 1296.4461,168.904 1221.3061,190.777 " fill="none" id="usantatecla.mastermind.controllers.Controller-backto-usantatecla.mastermind.controllers.AcceptorController" style="stroke:#A80036;stroke-width:1.0;"/><polygon fill="none" points="1469.2561,111.299,1490.4161,112.429,1473.1761,124.741,1469.2561,111.299" style="stroke:#A80036;stroke-width:1.0;"/><!--MD5=[3def74b1efc7c5ae01d4ee2634d4ae23]
link usantatecla.mastermind.controllers.Controller to Session--><path codeLine="23" d="M1478.6449,94.1362 C1478.6449,94.1362 138.6334,226.657 138.6334,363 C138.6334,363 138.6334,363 138.6334,575 C138.6334,732.14 120.7673,807.767 235.6331,915 C269.1871,946.3236 386.6391,965.369 470.7001,975.2957 " fill="none" id="usantatecla.mastermind.controllers.Controller-Session" style="stroke:#A80036;stroke-width:1.0;"/><polygon fill="#A80036" points="483.6261,976.782,475.1422,971.7796,478.6589,976.2106,474.2279,979.7272,483.6261,976.782" style="stroke:#A80036;stroke-width:1.0;"/><line style="stroke:#A80036;stroke-width:1.0;" x1="478.6589" x2="470.7111" y1="976.2106" y2="975.2969"/><polygon fill="#A80036" points="1490.5961,93.055,1484.2601,89.6119,1478.6449,94.1362,1484.9809,97.5793,1490.5961,93.055" style="stroke:#A80036;stroke-width:1.0;"/><!--MD5=[b311d6885a0e441bbd785876252fc1bc]
link usantatecla.mastermind.controllers.Controller to StateValue--><path codeLine="24" d="M1647.5561,127.154 C1676.0861,146.265 1709.4761,168.631 1736.8161,186.948 " fill="none" id="usantatecla.mastermind.controllers.Controller-to-StateValue" style="stroke:#A80036;stroke-width:1.0;stroke-dasharray:7.0,7.0;"/><polygon fill="#A80036" points="1741.1561,189.852,1735.9102,181.5165,1737.0038,187.0666,1731.4536,188.1602,1741.1561,189.852" style="stroke:#A80036;stroke-width:1.0;"/><!--MD5=[7fdf48b556a1c9826cc0cc4ec2a626dc]
link usantatecla.mastermind.controllers.ControllersVisitor to usantatecla.mastermind.controllers.StartController--><path codeLine="31" d="M1155.1561,407.092 C1152.2661,441.487 1152.1361,490.087 1154.7561,525.799 " fill="none" id="usantatecla.mastermind.controllers.ControllersVisitor-to-usantatecla.mastermind.controllers.StartController" style="stroke:#A80036;stroke-width:1.0;stroke-dasharray:7.0,7.0;"/><polygon fill="#A80036" points="1155.1561,530.971,1158.4373,521.6848,1154.7636,525.9864,1150.462,522.3127,1155.1561,530.971" style="stroke:#A80036;stroke-width:1.0;"/><!--MD5=[bd475fd0ce301a7b572805ffdb34a310]
link usantatecla.mastermind.controllers.StartController to usantatecla.mastermind.controllers.ControllersVisitor--><path codeLine="115" d="M1176.7261,530.971 C1179.7861,496.592 1179.9261,447.994 1177.1561,412.266 " fill="none" id="usantatecla.mastermind.controllers.StartController-to-usantatecla.mastermind.controllers.ControllersVisitor" style="stroke:#A80036;stroke-width:1.0;stroke-dasharray:7.0,7.0;"/><polygon fill="#A80036" points="1176.7261,407.092,1173.4851,416.3923,1177.1401,412.0748,1181.4576,415.7299,1176.7261,407.092" style="stroke:#A80036;stroke-width:1.0;"/><!--MD5=[c238b71c29378ca7025366ba24b22fff]
link usantatecla.mastermind.controllers.ControllersVisitor to usantatecla.mastermind.controllers.PlayController--><path codeLine="32" d="M1209.1861,407.092 C1232.6261,426.632 1262.8461,450.757 1293.4561,474.499 " fill="none" id="usantatecla.mastermind.controllers.ControllersVisitor-to-usantatecla.mastermind.controllers.PlayController" style="stroke:#A80036;stroke-width:1.0;stroke-dasharray:7.0,7.0;"/><polygon fill="#A80036" points="1297.5861,477.694,1292.9336,469.0133,1293.6379,474.6262,1288.025,475.3305,1297.5861,477.694" style="stroke:#A80036;stroke-width:1.0;"/><!--MD5=[5fda9894aef5495f7be60836ed04b7b6]
link usantatecla.mastermind.controllers.PlayController to usantatecla.mastermind.controllers.ControllersVisitor--><path codeLine="67" d="M1309.8961,466.872 C1284.2061,446.891 1257.9761,427.016 1235.0161,410.196 " fill="none" id="usantatecla.mastermind.controllers.PlayController-to-usantatecla.mastermind.controllers.ControllersVisitor" style="stroke:#A80036;stroke-width:1.0;stroke-dasharray:7.0,7.0;"/><polygon fill="#A80036" points="1230.7661,407.092,1235.663,415.6372,1234.7998,410.0466,1240.3904,409.1833,1230.7661,407.092" style="stroke:#A80036;stroke-width:1.0;"/><!--MD5=[ec7073da616e8e4af445466fbcd0dd68]
link usantatecla.mastermind.controllers.ControllersVisitor to usantatecla.mastermind.controllers.ResumeController--><path codeLine="33" d="M1106.7861,407.092 C1063.6861,442.051 1006.5651,491.684 968.1131,527.544 " fill="none" id="usantatecla.mastermind.controllers.ControllersVisitor-to-usantatecla.mastermind.controllers.ResumeController" style="stroke:#A80036;stroke-width:1.0;stroke-dasharray:7.0,7.0;"/><polygon fill="#A80036" points="964.4511,530.971,973.7549,527.7401,968.1011,527.5538,968.2874,521.9,964.4511,530.971" style="stroke:#A80036;stroke-width:1.0;"/><!--MD5=[5b5517e0bcba9fd2a01b3c4b592546c0]
link usantatecla.mastermind.controllers.ResumeController to usantatecla.mastermind.controllers.ControllersVisitor--><path codeLine="104" d="M986.0181,530.971 C1029.2771,496.029 1086.4061,446.396 1124.7161,410.52 " fill="none" id="usantatecla.mastermind.controllers.ResumeController-to-usantatecla.mastermind.controllers.ControllersVisitor" style="stroke:#A80036;stroke-width:1.0;stroke-dasharray:7.0,7.0;"/><polygon fill="#A80036" points="1128.3661,407.092,1119.0641,410.3281,1124.718,410.5112,1124.5348,416.1651,1128.3661,407.092" style="stroke:#A80036;stroke-width:1.0;"/><!--MD5=[de0ca0b10a767fc31717304f2f1a45a5]
link usantatecla.mastermind.controllers.Logic to Session--><path codeLine="40" d="M841.5303,92.0584 C841.5303,92.0584 166.3151,139.928 112.6334,187 C51.9275,240.231 67.6334,282.261 67.6334,363 C67.6334,363 67.6334,363 67.6334,575 C67.6334,727.429 6,806.079 112.6334,915 C161.0041,964.4086 354.0631,978.4979 470.3801,982.4758 " fill="none" id="usantatecla.mastermind.controllers.Logic-Session" style="stroke:#A80036;stroke-width:1.0;"/><polygon fill="#A80036" points="483.4731,982.8921,474.6051,978.6073,478.4756,982.7328,474.3502,986.6033,483.4731,982.8921" style="stroke:#A80036;stroke-width:1.0;"/><line style="stroke:#A80036;stroke-width:1.0;" x1="478.4756" x2="470.4801" y1="982.7328" y2="982.4789"/><polygon fill="#A80036" points="853.5071,91.312,847.2699,87.6929,841.5303,92.0584,847.7675,95.6775,853.5071,91.312" style="stroke:#A80036;stroke-width:1.0;"/><!--MD5=[d4e971768f4879fedf61c3b3dae7f6ab]
link usantatecla.mastermind.controllers.Logic to StateValue--><path codeLine="41" d="M1085.7142,93.7751 C1085.7142,93.7751 1484.7161,133.688 1694.6361,187 C1696.7661,187.542 1698.9261,188.116 1701.0861,188.717 " fill="none" id="usantatecla.mastermind.controllers.Logic-StateValue" style="stroke:#A80036;stroke-width:1.0;"/><polygon fill="#A80036" points="1713.5561,192.43,1706.0741,186.0254,1708.7645,191.0015,1703.7884,193.6919,1713.5561,192.43" style="stroke:#A80036;stroke-width:1.0;"/><line style="stroke:#A80036;stroke-width:1.0;" x1="1708.7645" x2="1701.0961" y1="191.0015" y2="188.7205"/><polygon fill="#A80036" points="1073.7561,92.773,1079.4011,97.2601,1085.7142,93.7751,1080.0692,89.288,1073.7561,92.773" style="stroke:#A80036;stroke-width:1.0;"/><!--MD5=[1a3df59fc0ef8f0373c097da6f173eea]
link usantatecla.mastermind.controllers.Logic to usantatecla.mastermind.controllers.AcceptorController--><path codeLine="42" d="M1017.2859,135.3673 C1017.2859,135.3673 1048.3081,164.491 1062.4361,177.756 " fill="none" id="usantatecla.mastermind.controllers.Logic-usantatecla.mastermind.controllers.AcceptorController" style="stroke:#A80036;stroke-width:1.0;"/><polygon fill="#A80036" points="1071.9661,186.697,1068.1431,177.6204,1068.3211,183.2745,1062.667,183.4525,1071.9661,186.697" style="stroke:#A80036;stroke-width:1.0;"/><line style="stroke:#A80036;stroke-width:1.0;" x1="1068.3211" x2="1062.4811" y1="183.2745" y2="177.7995"/><polygon fill="#A80036" points="1008.5371,127.154,1010.1737,134.1769,1017.2859,135.3673,1015.6493,128.3444,1008.5371,127.154" style="stroke:#A80036;stroke-width:1.0;"/><!--MD5=[7b4d3b9373751c5d43acf45bd3655ae0]
link usantatecla.mastermind.controllers.Logic to usantatecla.mastermind.controllers.StartController--><path codeLine="43" d="M964.6021,139.0339 C964.6021,139.0339 971.1991,221.659 982.6331,261 C1011.5061,360.344 1079.0061,461.037 1123.4561,520.2 " fill="none" id="usantatecla.mastermind.controllers.Logic-usantatecla.mastermind.controllers.StartController" style="stroke:#A80036;stroke-width:1.0;"/><polygon fill="#A80036" points="1131.4761,530.754,1129.2192,521.1672,1128.4524,526.7719,1122.8478,526.0051,1131.4761,530.754" style="stroke:#A80036;stroke-width:1.0;"/><line style="stroke:#A80036;stroke-width:1.0;" x1="1128.4524" x2="1123.6111" y1="526.7719" y2="520.4025"/><polygon fill="#A80036" points="964.0641,127.046,960.3371,133.2193,964.6021,139.0339,968.3291,132.8606,964.0641,127.046" style="stroke:#A80036;stroke-width:1.0;"/><!--MD5=[6c1261b498854354e131fb5bbc9fb8c9]
link usantatecla.mastermind.controllers.Logic to usantatecla.mastermind.controllers.PlayController--><path codeLine="44" d="M1085.2382,109.1604 C1085.2382,109.1604 1196.0561,149.039 1238.6361,187 C1318.3961,258.125 1369.4761,369.661 1399.0861,454.585 " fill="none" id="usantatecla.mastermind.controllers.Logic-usantatecla.mastermind.controllers.PlayController" style="stroke:#A80036;stroke-width:1.0;"/><polygon fill="#A80036" points="1403.2961,466.914,1404.1701,457.104,1401.6789,462.1828,1396.6002,459.6915,1403.2961,466.914" style="stroke:#A80036;stroke-width:1.0;"/><line style="stroke:#A80036;stroke-width:1.0;" x1="1401.6789" x2="1399.0911" y1="462.1828" y2="454.6125"/><polygon fill="#A80036" points="1073.6961,105.877,1078.3727,111.3661,1085.2382,109.1604,1080.5616,103.6714,1073.6961,105.877" style="stroke:#A80036;stroke-width:1.0;"/><!--MD5=[07f4f2174253deef40735c6f426cde58]
link usantatecla.mastermind.controllers.Logic to usantatecla.mastermind.controllers.ResumeController--><path codeLine="45" d="M958.7,139.1227 C958.7,139.1227 955.8561,171.787 954.6331,187 C945.1811,304.588 935.5241,442.445 930.3891,517.46 " fill="none" id="usantatecla.mastermind.controllers.Logic-usantatecla.mastermind.controllers.ResumeController" style="stroke:#A80036;stroke-width:1.0;"/><polygon fill="#A80036" points="929.4841,530.717,934.088,522.0104,929.8248,525.7286,926.1066,521.4654,929.4841,530.717" style="stroke:#A80036;stroke-width:1.0;"/><line style="stroke:#A80036;stroke-width:1.0;" x1="929.8248" x2="930.3696" y1="525.7286" y2="517.747"/><polygon fill="#A80036" points="959.7641,127.17,955.2478,132.7917,958.7,139.1227,963.2163,133.5011,959.7641,127.17" style="stroke:#A80036;stroke-width:1.0;"/><!--MD5=[de9265a48c437783da8d693aedd63e8b]
link usantatecla.mastermind.controllers.Logic to TCPIP--><path codeLine="46" d="M894.8339,134.2537 C894.8339,134.2537 651.9161,327.832 557.6331,467 C491.3461,564.845 450.0621,699.479 431.7371,769.123 " fill="none" id="usantatecla.mastermind.controllers.Logic-TCPIP" style="stroke:#A80036;stroke-width:1.0;"/><polygon fill="#A80036" points="428.4791,781.752,434.6004,774.0365,429.7281,776.9105,426.8541,772.0381,428.4791,781.752" style="stroke:#A80036;stroke-width:1.0;"/><line style="stroke:#A80036;stroke-width:1.0;" x1="429.7281" x2="431.7266" y1="776.9105" y2="769.1635"/><polygon fill="#A80036" points="904.4491,127.074,897.2483,127.4588,894.8339,134.2537,902.0348,133.8689,904.4491,127.074" style="stroke:#A80036;stroke-width:1.0;"/><!--MD5=[379f0ccdbcf769b62d1e7fd0ac123734]
reverse link usantatecla.mastermind.controllers.AcceptorController to usantatecla.mastermind.controllers.PlayController--><path codeLine="63" d="M1198.1261,271.625 C1220.5261,285.796 1243.6261,302.559 1262.6361,321 C1306.3761,363.446 1345.2561,418.888 1374.7561,466.958 " fill="none" id="usantatecla.mastermind.controllers.AcceptorController-backto-usantatecla.mastermind.controllers.PlayController" style="stroke:#A80036;stroke-width:1.0;"/><polygon fill="none" points="1194.2461,277.459,1180.8061,261.072,1201.5361,265.504,1194.2461,277.459" style="stroke:#A80036;stroke-width:1.0;"/><!--MD5=[4c5bcb0e1da525904d64689d4ef66eaa]
link usantatecla.mastermind.controllers.PlayController to usantatecla.mastermind.controllers.PlayController--><path codeLine="64" d="M1432.6361,693.316 C1432.6361,693.316 1432.6361,716.705 1432.6361,727.421 " fill="none" id="usantatecla.mastermind.controllers.PlayController-usantatecla.mastermind.controllers.PlayController" style="stroke:#A80036;stroke-width:1.0;"/><polygon fill="#A80036" points="1432.6361,740.768,1436.6361,731.768,1432.6361,735.768,1428.6361,731.768,1432.6361,740.768" style="stroke:#A80036;stroke-width:1.0;"/><line style="stroke:#A80036;stroke-width:1.0;" x1="1432.6361" x2="1432.6361" y1="735.768" y2="727.768"/><polygon fill="#A80036" points="1432.6361,681.316,1428.6361,687.316,1432.6361,693.316,1436.6361,687.316,1432.6361,681.316" style="stroke:#A80036;stroke-width:1.0;"/><!--MD5=[e06829587bde9738332d67350ab6c02e]
link usantatecla.mastermind.controllers.PlayController to usantatecla.mastermind.controllers.UndoController--><path codeLine="65" d="M1312.319,689.5945 C1312.319,689.5945 1257.2261,742.059 1234.6261,763.578 " fill="none" id="usantatecla.mastermind.controllers.PlayController-usantatecla.mastermind.controllers.UndoController" style="stroke:#A80036;stroke-width:1.0;"/><polygon fill="#A80036" points="1224.9161,772.825,1234.1933,769.5185,1228.5382,769.3782,1228.6785,763.7231,1224.9161,772.825" style="stroke:#A80036;stroke-width:1.0;"/><line style="stroke:#A80036;stroke-width:1.0;" x1="1228.5382" x2="1234.3311" y1="769.3782" y2="763.8595"/><polygon fill="#A80036" points="1321.0061,681.316,1313.903,682.5595,1312.319,689.5945,1319.422,688.351,1321.0061,681.316" style="stroke:#A80036;stroke-width:1.0;"/><!--MD5=[9e5799599a74453d548db4793f1ed649]
link usantatecla.mastermind.controllers.PlayController to usantatecla.mastermind.controllers.RedoController--><path codeLine="66" d="M1286.9485,677.3457 C1286.9485,677.3457 1281.6861,680.009 1279.6361,681 C1196.8361,721.001 1163.6961,699.516 1081.6361,741 C1068.3061,747.739 1054.9061,756.284 1042.4551,765.156 " fill="none" id="usantatecla.mastermind.controllers.PlayController-usantatecla.mastermind.controllers.RedoController" style="stroke:#A80036;stroke-width:1.0;"/><polygon fill="#A80036" points="1031.7881,772.998,1041.4086,770.8895,1035.8165,770.0362,1036.6697,764.4441,1031.7881,772.998" style="stroke:#A80036;stroke-width:1.0;"/><line style="stroke:#A80036;stroke-width:1.0;" x1="1035.8165" x2="1042.2621" y1="770.0362" y2="765.2975"/><polygon fill="#A80036" points="1297.5661,671.754,1290.3934,671.0106,1286.9485,677.3457,1294.1212,678.089,1297.5661,671.754" style="stroke:#A80036;stroke-width:1.0;"/><!--MD5=[a4458679fa4e0fcda8bf8fe1b89db6b5]
link usantatecla.mastermind.controllers.PlayController to Session--><path codeLine="68" d="M1297.6061,673.077 C1291.6461,675.954 1285.6361,678.614 1279.6361,681 C1114.1961,746.717 1025.6131,633.628 883.6331,741 C815.8921,792.229 869.0361,859.633 804.6331,915 C759.6821,953.6443 694.5111,970.7254 642.8271,978.2359 " fill="none" id="usantatecla.mastermind.controllers.PlayController-to-Session" style="stroke:#A80036;stroke-width:1.0;stroke-dasharray:7.0,7.0;"/><polygon fill="#A80036" points="637.8691,978.9332,647.3381,981.642,642.8205,978.2375,646.225,973.7198,637.8691,978.9332" style="stroke:#A80036;stroke-width:1.0;"/><!--MD5=[7cceb1c652af3bb106a05c60cfa6315b]
link usantatecla.mastermind.controllers.PlayController to Color--><path codeLine="69" d="M1567.7961,676.173 C1587.9661,695.915 1606.8961,717.767 1621.6361,741 C1662.7861,805.875 1680.3861,895.6 1687.4061,945.8894 " fill="none" id="usantatecla.mastermind.controllers.PlayController-to-Color" style="stroke:#A80036;stroke-width:1.0;stroke-dasharray:7.0,7.0;"/><polygon fill="#A80036" points="1688.0861,950.9287,1690.8358,941.4715,1687.4118,945.9744,1682.9089,942.5504,1688.0861,950.9287" style="stroke:#A80036;stroke-width:1.0;"/><!--MD5=[a00fa74810429ad005db5948e3e13f5a]
link usantatecla.mastermind.controllers.PlayController to Error--><path codeLine="70" d="M1550.7861,681.298 C1564.9861,699.725 1577.3661,719.825 1585.6361,741 C1613.7661,813.035 1615.9861,843.872 1585.6361,915 C1580.5761,926.8435 1572.3861,937.6293 1563.3061,946.9723 " fill="none" id="usantatecla.mastermind.controllers.PlayController-to-Error" style="stroke:#A80036;stroke-width:1.0;stroke-dasharray:7.0,7.0;"/><polygon fill="#A80036" points="1559.3561,950.887,1568.5649,947.3945,1562.9081,947.368,1562.9346,941.7112,1559.3561,950.887" style="stroke:#A80036;stroke-width:1.0;"/><!--MD5=[446f53ac1856f52de7a41169b96a9420]
link usantatecla.mastermind.controllers.PlayController to TCPIP--><path codeLine="71" d="M1297.3361,673.767 C1291.4761,676.429 1285.5561,678.859 1279.6361,681 C992.6231,784.692 891.7781,667.343 595.6331,741 C559.6311,749.955 521.4851,765.324 490.0281,779.743 " fill="none" id="usantatecla.mastermind.controllers.PlayController-to-TCPIP" style="stroke:#A80036;stroke-width:1.0;stroke-dasharray:7.0,7.0;"/><polygon fill="#A80036" points="485.4371,781.863,495.2849,781.7215,489.9765,779.7669,491.9312,774.4585,485.4371,781.863" style="stroke:#A80036;stroke-width:1.0;"/><!--MD5=[76d2d7fb37c016a1529c865eefcb8643]
link usantatecla.mastermind.controllers.PlayController to FrameType--><path codeLine="72" d="M1297.2261,673.48 C1291.3961,676.222 1285.5161,678.747 1279.6361,681 C1080.4961,757.239 1002.1081,663.06 803.6331,741 C781.1501,749.829 759.0211,764.68 741.0731,778.771 " fill="none" id="usantatecla.mastermind.controllers.PlayController-to-FrameType" style="stroke:#A80036;stroke-width:1.0;stroke-dasharray:7.0,7.0;"/><polygon fill="#A80036" points="737.0731,781.952,746.6065,779.4792,740.9859,778.8392,741.6259,773.2186,737.0731,781.952" style="stroke:#A80036;stroke-width:1.0;"/><!--MD5=[355b9902740da4b2ec85e8089918fd93]
reverse link usantatecla.mastermind.controllers.Controller to usantatecla.mastermind.controllers.PlayController--><path codeLine="84" d="M1629.9861,143.902 C1638.0761,157.385 1645.3061,172.142 1649.6361,187 C1711.0861,397.78 1756.5861,489.256 1649.6361,681 C1631.0261,714.352 1600.3261,740.441 1567.7961,760.375 " fill="none" id="usantatecla.mastermind.controllers.Controller-backto-usantatecla.mastermind.controllers.PlayController" style="stroke:#A80036;stroke-width:1.0;"/><polygon fill="none" points="1624.0361,147.596,1619.0161,127.01,1635.7761,139.971,1624.0361,147.596" style="stroke:#A80036;stroke-width:1.0;"/><!--MD5=[9ab8b060fd1c6972838e9ee712ff95cb]
link usantatecla.mastermind.controllers.PlayController to Session--><path codeLine="85" d="M1331.0961,891.226 C1314.5361,900.584 1297.0761,908.974 1279.6361,915 C1163.8461,955.0063 806.0011,974.1376 643.0151,980.955 " fill="none" id="usantatecla.mastermind.controllers.PlayController-to-Session" style="stroke:#A80036;stroke-width:1.0;stroke-dasharray:7.0,7.0;"/><polygon fill="#A80036" points="637.7751,981.1727,646.9341,984.7938,642.7707,980.9641,646.6004,976.8008,637.7751,981.1727" style="stroke:#A80036;stroke-width:1.0;"/><!--MD5=[765bda7c14cd5ed1cc66a669d2aefa21]
link usantatecla.mastermind.controllers.PlayController to Combination--><path codeLine="86" d="M1386.4161,891.221 C1374.5061,910.331 1362.1961,930.0982 1352.0161,946.4505 " fill="none" id="usantatecla.mastermind.controllers.PlayController-to-Combination" style="stroke:#A80036;stroke-width:1.0;stroke-dasharray:7.0,7.0;"/><polygon fill="#A80036" points="1349.2061,950.9688,1357.36,945.4449,1351.8499,946.7249,1350.5698,941.2148,1349.2061,950.9688" style="stroke:#A80036;stroke-width:1.0;"/><!--MD5=[69852a3216d5517651367a7065e7f1c9]
link usantatecla.mastermind.controllers.PlayController to Color--><path codeLine="87" d="M1547.7461,891.221 C1578.3961,910.985 1610.1361,931.4505 1635.9761,948.1155 " fill="none" id="usantatecla.mastermind.controllers.PlayController-to-Color" style="stroke:#A80036;stroke-width:1.0;stroke-dasharray:7.0,7.0;"/><polygon fill="#A80036" points="1640.4061,950.9688,1635.0163,942.7256,1636.206,948.256,1630.6757,949.4457,1640.4061,950.9688" style="stroke:#A80036;stroke-width:1.0;"/><!--MD5=[aec0234761dc3837780669c056a8373c]
link usantatecla.mastermind.controllers.PlayController to Error--><path codeLine="88" d="M1468.6361,891.221 C1477.9061,910.331 1487.4861,930.0982 1495.4161,946.4505 " fill="none" id="usantatecla.mastermind.controllers.PlayController-to-Error" style="stroke:#A80036;stroke-width:1.0;stroke-dasharray:7.0,7.0;"/><polygon fill="#A80036" points="1497.6161,950.9688,1497.2886,941.1254,1495.4346,946.4698,1490.0902,944.6158,1497.6161,950.9688" style="stroke:#A80036;stroke-width:1.0;"/><!--MD5=[c261ca396b56eef96f31726476ebc83a]
reverse link usantatecla.mastermind.controllers.Controller to usantatecla.mastermind.controllers.RedoController--><path codeLine="95" d="M1589.3261,147.44 C1599.5761,292.291 1620.3861,641.864 1585.6361,681 C1510.7361,765.338 1186.3661,699.144 1081.6361,741 C1062.7061,748.565 1044.1901,760.706 1028.3901,772.985 " fill="none" id="usantatecla.mastermind.controllers.Controller-backto-usantatecla.mastermind.controllers.RedoController" style="stroke:#A80036;stroke-width:1.0;"/><polygon fill="none" points="1582.3261,147.669,1587.8761,127.217,1596.2961,146.662,1582.3261,147.669" style="stroke:#A80036;stroke-width:1.0;"/><!--MD5=[6949940d570fa604284c61d29fe92a26]
link usantatecla.mastermind.controllers.RedoController to Session--><path codeLine="96" d="M944.3021,859.221 C924.1901,878.952 898.0611,901.105 870.6331,915 C798.6091,951.4879 707.5511,968.8094 642.8011,976.9526 " fill="none" id="usantatecla.mastermind.controllers.RedoController-to-Session" style="stroke:#A80036;stroke-width:1.0;stroke-dasharray:7.0,7.0;"/><polygon fill="#A80036" points="637.7941,977.5705,647.2165,980.4372,642.7564,976.9576,646.2359,972.4975,637.7941,977.5705" style="stroke:#A80036;stroke-width:1.0;"/><!--MD5=[2264cd0d86bf15401f4cc8d2024044e5]
reverse link usantatecla.mastermind.controllers.AcceptorController to usantatecla.mastermind.controllers.ResumeController--><path codeLine="103" d="M1078.6961,278.484 C1070.6861,292.248 1062.2061,307.1 1054.6361,321 C1014.9461,393.816 971.8751,480.315 947.1841,530.698 " fill="none" id="usantatecla.mastermind.controllers.AcceptorController-backto-usantatecla.mastermind.controllers.ResumeController" style="stroke:#A80036;stroke-width:1.0;"/><polygon fill="none" points="1072.6961,274.885,1088.8561,261.186,1084.7661,281.976,1072.6961,274.885" style="stroke:#A80036;stroke-width:1.0;"/><!--MD5=[3af92274176a956758db217dff904abe]
link usantatecla.mastermind.controllers.ResumeController to Session--><path codeLine="105" d="M819.5231,588.489 C661.1341,610.882 376.5561,661.318 315.6331,741 C268.6631,802.435 268.9471,853.349 315.6331,915 C335.4831,941.2127 415.0471,960.2667 478.1921,971.6269 " fill="none" id="usantatecla.mastermind.controllers.ResumeController-to-Session" style="stroke:#A80036;stroke-width:1.0;stroke-dasharray:7.0,7.0;"/><polygon fill="#A80036" points="483.4771,972.5667,475.3168,967.0523,478.5544,971.691,473.9157,974.9286,483.4771,972.5667" style="stroke:#A80036;stroke-width:1.0;"/><!--MD5=[47c7081cb7b06d4ab31221eb602070d0]
link usantatecla.mastermind.controllers.ResumeController to TCPIP--><path codeLine="106" d="M819.4881,614.504 C739.3511,645.445 627.9741,691.433 534.6331,741 C513.4181,752.266 491.0491,766.274 471.7981,779.061 " fill="none" id="usantatecla.mastermind.controllers.ResumeController-to-TCPIP" style="stroke:#A80036;stroke-width:1.0;stroke-dasharray:7.0,7.0;"/><polygon fill="#A80036" points="467.4851,781.94,477.191,780.2682,471.6432,779.1632,472.7482,773.6153,467.4851,781.94" style="stroke:#A80036;stroke-width:1.0;"/><!--MD5=[d3d2637dd33fc9d75346f13a6e870185]
link usantatecla.mastermind.controllers.ResumeController to FrameType--><path codeLine="107" d="M887.0091,617.079 C844.1221,662.623 776.3921,734.548 735.4721,778.004 " fill="none" id="usantatecla.mastermind.controllers.ResumeController-to-FrameType" style="stroke:#A80036;stroke-width:1.0;stroke-dasharray:7.0,7.0;"/><polygon fill="#A80036" points="731.8411,781.859,740.9229,778.0483,735.2686,778.2186,735.0983,772.5643,731.8411,781.859" style="stroke:#A80036;stroke-width:1.0;"/><!--MD5=[02047fc267f90dbff0ceeeb40ca60065]
reverse link usantatecla.mastermind.controllers.AcceptorController to usantatecla.mastermind.controllers.StartController--><path codeLine="114" d="M1082.1561,279.582 C1076.5661,292.796 1071.5361,307.122 1068.6361,321 C1060.8061,358.412 1058.6461,370.106 1068.6361,407 C1081.0161,452.751 1109.5061,498.821 1132.4261,530.781 " fill="none" id="usantatecla.mastermind.controllers.AcceptorController-backto-usantatecla.mastermind.controllers.StartController" style="stroke:#A80036;stroke-width:1.0;"/><polygon fill="none" points="1075.8761,276.473,1090.5661,261.198,1088.6061,282.297,1075.8761,276.473" style="stroke:#A80036;stroke-width:1.0;"/><!--MD5=[af330a5675265c8717d1c63023b47a90]
link usantatecla.mastermind.controllers.StartController to Session--><path codeLine="116" d="M1131.4961,617.214 C1110.6361,639.969 1081.9861,666.32 1050.6361,681 C958.2701,724.247 668.1781,669.316 595.6331,741 C541.4441,794.546 545.8621,891.774 553.4651,945.5874 " fill="none" id="usantatecla.mastermind.controllers.StartController-to-Session" style="stroke:#A80036;stroke-width:1.0;stroke-dasharray:7.0,7.0;"/><polygon fill="#A80036" points="554.2081,950.6567,556.8589,941.1713,553.4821,945.7097,548.9437,942.3329,554.2081,950.6567" style="stroke:#A80036;stroke-width:1.0;"/><!--MD5=[61085f23586d8a71cc2433a5d5a67c85]
link usantatecla.mastermind.controllers.StartController to TCPIP--><path codeLine="117" d="M1131.8261,617.128 C1110.9761,640.004 1082.2261,666.504 1050.6361,681 C840.7951,777.294 751.8481,662.753 534.6331,741 C510.1781,749.81 485.6591,764.741 465.6611,778.893 " fill="none" id="usantatecla.mastermind.controllers.StartController-to-TCPIP" style="stroke:#A80036;stroke-width:1.0;stroke-dasharray:7.0,7.0;"/><polygon fill="#A80036" points="461.4631,781.899,471.1097,779.9135,465.529,778.9889,466.4536,773.4081,461.4631,781.899" style="stroke:#A80036;stroke-width:1.0;"/><!--MD5=[b2a02c13122907df19aebf9cafe66ff8]
link usantatecla.mastermind.controllers.StartController to FrameType--><path codeLine="118" d="M1129.8661,617.015 C1108.9061,639.129 1080.6761,664.918 1050.6361,681 C951.0361,734.316 906.2891,693.839 803.6331,741 C782.6061,750.66 761.4851,764.86 743.8901,778.244 " fill="none" id="usantatecla.mastermind.controllers.StartController-to-FrameType" style="stroke:#A80036;stroke-width:1.0;stroke-dasharray:7.0,7.0;"/><polygon fill="#A80036" points="739.4951,781.626,749.067,779.3066,743.4574,778.5764,744.1876,772.9669,739.4951,781.626" style="stroke:#A80036;stroke-width:1.0;"/><!--MD5=[08ab9648594bbb5d181ba39b960dc928]
reverse link usantatecla.mastermind.controllers.Controller to usantatecla.mastermind.controllers.UndoController--><path codeLine="125" d="M1604.3461,146.456 C1607.7961,159.694 1610.8461,173.706 1612.6361,187 C1619.9661,241.397 1647.8361,638.887 1612.6361,681 C1516.1861,796.381 1417.5461,681.045 1279.6361,741 C1261.3361,748.956 1243.2661,760.898 1227.6661,772.879 " fill="none" id="usantatecla.mastermind.controllers.Controller-backto-usantatecla.mastermind.controllers.UndoController" style="stroke:#A80036;stroke-width:1.0;"/><polygon fill="none" points="1597.5961,148.301,1598.9361,127.153,1611.0761,144.519,1597.5961,148.301" style="stroke:#A80036;stroke-width:1.0;"/><!--MD5=[9cb27cffd757e6232e1deb30d45926dc]
link usantatecla.mastermind.controllers.UndoController to Session--><path codeLine="126" d="M1149.2161,859.014 C1131.6561,879.329 1108.0161,902.061 1081.6361,915 C1006.2381,951.9792 769.9021,971.4536 643.0511,979.4776 " fill="none" id="usantatecla.mastermind.controllers.UndoController-to-Session" style="stroke:#A80036;stroke-width:1.0;stroke-dasharray:7.0,7.0;"/><polygon fill="#A80036" points="637.8401,979.8046,647.0737,983.231,642.8302,979.4903,646.5709,975.2468,637.8401,979.8046" style="stroke:#A80036;stroke-width:1.0;"/><!--MD5=[6c128e926280b4bc274c5ce9aa8f2263]
@startuml
abstract class Combination as "usantatecla.\nmastermind.models.\nCombination"
class Session as "usantatecla.\nmastermind.models.\nSession"
class StateValue as "usantatecla.\nmastermind.models.\nStateValue"
enum Color as "usantatecla.\nmastermind.types.\nColor"
enum Error as "usantatecla.\nmastermind.types.\nError"
class TCPIP as "usantatecla.\nmastermind.distributed.\ndispatchers.TCPIP"
class FrameType as "usantatecla.\nmastermind.distributed.\ndispatchers.FrameType"

abstract class  usantatecla.mastermind.controllers.AcceptorController{
    ~ AcceptorController(Session, TCPIP)
    + {abstract}accept(ControllersVisitor)
}
usantatecla.mastermind.controllers.AcceptorController .down.> usantatecla.mastermind.controllers.ControllersVisitor
usantatecla.mastermind.controllers.AcceptorController .down.> TCPIP
usantatecla.mastermind.controllers.AcceptorController .down.> Session
usantatecla.mastermind.controllers.Controller <|-down- usantatecla.mastermind.controllers.AcceptorController

abstract class  usantatecla.mastermind.controllers.Controller{
    ~ Controller(Session)
    + getWidth(): int
    + getValueState(): StateValue
}
usantatecla.mastermind.controllers.Controller *-down-> Session
usantatecla.mastermind.controllers.Controller .down.> StateValue

interface  usantatecla.mastermind.controllers.ControllersVisitor{
    ~ visit(StartController)
    ~ visit(PlayController)
    ~ visit(ResumeController)
}
usantatecla.mastermind.controllers.ControllersVisitor .down.> usantatecla.mastermind.controllers.StartController
usantatecla.mastermind.controllers.ControllersVisitor .down.> usantatecla.mastermind.controllers.PlayController
usantatecla.mastermind.controllers.ControllersVisitor .down.> usantatecla.mastermind.controllers.ResumeController

class  usantatecla.mastermind.controllers.Logic{
    + Logic(boolean)
    + getController(): AcceptorController
    + close()
}
usantatecla.mastermind.controllers.Logic *-down-> Session
usantatecla.mastermind.controllers.Logic *-down-> StateValue
usantatecla.mastermind.controllers.Logic *-down-> usantatecla.mastermind.controllers.AcceptorController
usantatecla.mastermind.controllers.Logic *-down-> usantatecla.mastermind.controllers.StartController
usantatecla.mastermind.controllers.Logic *-down-> usantatecla.mastermind.controllers.PlayController
usantatecla.mastermind.controllers.Logic *-down-> usantatecla.mastermind.controllers.ResumeController
usantatecla.mastermind.controllers.Logic *-down-> TCPIP

class  usantatecla.mastermind.controllers.PlayController{
    + PlayController(Session,TCPIP)
    + addProposeCombination(List<Color>): Error
    + undo()
    + redo()
    + undoable(): boolean
    + redoable(): boolean
    + isWinner(): boolean
    + isLooser(): boolean
    + getAttempts(): int
    + getColors(int): List<Color>
    + getBlacks(int): int
    + getWhites(int): int
    + accept(ControllersVisitor)
}
usantatecla.mastermind.controllers.AcceptorController <|-down- usantatecla.mastermind.controllers.PlayController
usantatecla.mastermind.controllers.PlayController *-down-> usantatecla.mastermind.controllers.PlayController
usantatecla.mastermind.controllers.PlayController *-down-> usantatecla.mastermind.controllers.UndoController
usantatecla.mastermind.controllers.PlayController *-down-> usantatecla.mastermind.controllers.RedoController
usantatecla.mastermind.controllers.PlayController .down.> usantatecla.mastermind.controllers.ControllersVisitor
usantatecla.mastermind.controllers.PlayController .down.> Session
usantatecla.mastermind.controllers.PlayController .down.> Color
usantatecla.mastermind.controllers.PlayController .down.> Error
usantatecla.mastermind.controllers.PlayController .down.> TCPIP
usantatecla.mastermind.controllers.PlayController .down.> FrameType

class  usantatecla.mastermind.controllers.PlayController{
    ~ ProposalController(Session)
    ~ addProposeCombination(List<Color>): Error
    ~ isWinner(): boolean
    ~ isLooser(): boolean
    ~ getAttempts(): int
    ~ getColors(int): List<Color>
    ~ getBlacks(int): int
    ~ getWhites(int): int
}
usantatecla.mastermind.controllers.Controller <|-down- usantatecla.mastermind.controllers.PlayController
usantatecla.mastermind.controllers.PlayController .down.> Session
usantatecla.mastermind.controllers.PlayController .down.> Combination
usantatecla.mastermind.controllers.PlayController .down.> Color
usantatecla.mastermind.controllers.PlayController .down.> Error

class  usantatecla.mastermind.controllers.RedoController{
    ~ RedoController(Session)
    ~ redo()
    ~ redoable(): boolean
}
usantatecla.mastermind.controllers.Controller <|-down- usantatecla.mastermind.controllers.RedoController
usantatecla.mastermind.controllers.RedoController .down.> Session

class  usantatecla.mastermind.controllers.ResumeController{
    + ResumeController(Session,TCPIP)
    + resume(boolean)
    + accept(ControllersVisitor)
}
usantatecla.mastermind.controllers.AcceptorController <|-down- usantatecla.mastermind.controllers.ResumeController
usantatecla.mastermind.controllers.ResumeController .down.> usantatecla.mastermind.controllers.ControllersVisitor
usantatecla.mastermind.controllers.ResumeController .down.> Session
usantatecla.mastermind.controllers.ResumeController .down.> TCPIP
usantatecla.mastermind.controllers.ResumeController .down.> FrameType

class  usantatecla.mastermind.controllers.StartController{
    + StartController(Session,TCPIP)
    + start()
    + accept(ControllersVisitor)
}
usantatecla.mastermind.controllers.AcceptorController <|-down- usantatecla.mastermind.controllers.StartController
usantatecla.mastermind.controllers.StartController .down.> usantatecla.mastermind.controllers.ControllersVisitor
usantatecla.mastermind.controllers.StartController .down.> Session
usantatecla.mastermind.controllers.StartController .down.> TCPIP
usantatecla.mastermind.controllers.StartController .down.> FrameType

class  usantatecla.mastermind.controllers.UndoController{
    ~ UndoController(Session)
    ~ undo()
    ~ undoable(): boolean
}
usantatecla.mastermind.controllers.Controller <|-down- usantatecla.mastermind.controllers.UndoController
usantatecla.mastermind.controllers.UndoController .down.> Session
@enduml

PlantUML version 1.2020.23beta3(Unknown compile time)
(GPL source distribution)
Java Runtime: Java(TM) SE Runtime Environment
JVM: Java HotSpot(TM) 64-Bit Server VM
Default Encoding: UTF-8
Language: en
Country: US
--></g></svg>