<?xml version="1.0" encoding="UTF-8" standalone="no"?><svg xmlns="http://www.w3.org/2000/svg" xmlns:xlink="http://www.w3.org/1999/xlink" contentScriptType="application/ecmascript" contentStyleType="text/css" height="1085px" preserveAspectRatio="none" style="width:1322px;height:1085px;" version="1.1" viewBox="0 0 1322 1085" width="1322px" zoomAndPan="magnify"><defs><filter height="300%" id="f1qorf3e7qjxuh" width="300%" x="-1" y="-1"><feGaussianBlur result="blurOut" stdDeviation="2.0"/><feColorMatrix in="blurOut" result="blurOut2" type="matrix" values="0 0 0 0 0 0 0 0 0 0 0 0 0 0 0 0 0 0 .4 0"/><feOffset dx="4.0" dy="4.0" in="blurOut2" result="blurOut3"/><feBlend in="SourceGraphic" in2="blurOut3" mode="normal"/></filter></defs><g><!--MD5=[9be0839337cfdab5d118a2e29cf0a8c4]
cluster usantatecla.mastermind--><polygon fill="#FFFFFF" filter="url(#f1qorf3e7qjxuh)" points="16,6,223,6,230,28.2969,962,28.2969,962,979,16,979,16,6" style="stroke: #000000; stroke-width: 1.5;"/><line style="stroke: #000000; stroke-width: 1.5;" x1="16" x2="230" y1="28.2969" y2="28.2969"/><text fill="#000000" font-family="sans-serif" font-size="14" font-weight="bold" lengthAdjust="spacingAndGlyphs" textLength="201" x="20" y="20.9951">usantatecla.mastermind</text><!--MD5=[7283a9eed84464550b6d5ebf39c68b05]
class Mastermind--><rect codeLine="2" fill="#FEFECE" filter="url(#f1qorf3e7qjxuh)" height="99.2188" id="Mastermind" style="stroke: #A80036; stroke-width: 1.5;" width="185" x="275.5" y="41"/><ellipse cx="328.75" cy="57" fill="#ADD1B2" rx="11" ry="11" style="stroke: #A80036; stroke-width: 1.0;"/><path d="M331.0938,52.6719 C330.1563,52.2344 329.5625,52.0938 328.6875,52.0938 C326.0625,52.0938 324.0625,54.1719 324.0625,56.8906 L324.0625,58.0156 C324.0625,60.5938 326.1719,62.4844 329.0625,62.4844 C330.2813,62.4844 331.4375,62.1875 332.1875,61.6406 C332.7656,61.2344 333.0938,60.7813 333.0938,60.3906 C333.0938,59.9375 332.7031,59.5469 332.2344,59.5469 C332.0156,59.5469 331.8125,59.625 331.625,59.8125 C331.1719,60.2969 331.1719,60.2969 330.9844,60.3906 C330.5625,60.6563 329.875,60.7813 329.1094,60.7813 C327.0625,60.7813 325.7656,59.6875 325.7656,57.9844 L325.7656,56.8906 C325.7656,55.1094 327.0156,53.7969 328.75,53.7969 C329.3281,53.7969 329.9375,53.9531 330.4063,54.2031 C330.8906,54.4844 331.0625,54.7031 331.1563,55.1094 C331.2188,55.5156 331.25,55.6406 331.3906,55.7656 C331.5313,55.9063 331.7656,56.0156 331.9844,56.0156 C332.25,56.0156 332.5156,55.875 332.6875,55.6563 C332.7969,55.5 332.8281,55.3125 332.8281,54.8906 L332.8281,53.4688 C332.8281,53.0313 332.8125,52.9063 332.7188,52.75 C332.5625,52.4844 332.2813,52.3438 331.9844,52.3438 C331.6875,52.3438 331.4844,52.4375 331.2656,52.75 L331.0938,52.6719 Z "/><text fill="#000000" font-family="sans-serif" font-size="12" lengthAdjust="spacingAndGlyphs" textLength="70" x="349.25" y="61.1543">Mastermind</text><line style="stroke: #A80036; stroke-width: 1.5;" x1="276.5" x2="459.5" y1="73" y2="73"/><line style="stroke: #A80036; stroke-width: 1.5;" x1="276.5" x2="459.5" y1="81" y2="81"/><ellipse cx="286.5" cy="92" fill="#84BE84" rx="3" ry="3" style="stroke: #038048; stroke-width: 1.0;"/><text fill="#000000" font-family="sans-serif" font-size="11" lengthAdjust="spacingAndGlyphs" textLength="32" x="295.5" y="95.2104">play()</text><rect fill="#F24D5C" height="6" style="stroke: #C82930; stroke-width: 1.0;" width="6" x="283.5" y="101.8047"/><text fill="#000000" font-family="sans-serif" font-size="11" lengthAdjust="spacingAndGlyphs" textLength="67" x="295.5" y="108.0151">playGame()</text><rect fill="#F24D5C" height="6" style="stroke: #C82930; stroke-width: 1.0;" width="6" x="283.5" y="114.6094"/><text fill="#000000" font-family="sans-serif" font-size="11" lengthAdjust="spacingAndGlyphs" textLength="159" x="295.5" y="120.8198">isResumedGame(): boolean</text><ellipse cx="286.5" cy="130.4141" fill="#84BE84" rx="3" ry="3" style="stroke: #038048; stroke-width: 1.0;"/><text fill="#000000" font-family="sans-serif" font-size="11" lengthAdjust="spacingAndGlyphs" text-decoration="underline" textLength="77" x="295.5" y="133.6245">main(String[])</text><!--MD5=[9563755d011c5cec7ec66dc53565a59e]
class Board--><rect codeLine="10" fill="#FEFECE" filter="url(#f1qorf3e7qjxuh)" height="150.4375" id="Board" style="stroke: #A80036; stroke-width: 1.5;" width="178" x="217" y="200"/><ellipse cx="283.75" cy="216" fill="#ADD1B2" rx="11" ry="11" style="stroke: #A80036; stroke-width: 1.0;"/><path d="M286.0938,211.6719 C285.1563,211.2344 284.5625,211.0938 283.6875,211.0938 C281.0625,211.0938 279.0625,213.1719 279.0625,215.8906 L279.0625,217.0156 C279.0625,219.5938 281.1719,221.4844 284.0625,221.4844 C285.2813,221.4844 286.4375,221.1875 287.1875,220.6406 C287.7656,220.2344 288.0938,219.7813 288.0938,219.3906 C288.0938,218.9375 287.7031,218.5469 287.2344,218.5469 C287.0156,218.5469 286.8125,218.625 286.625,218.8125 C286.1719,219.2969 286.1719,219.2969 285.9844,219.3906 C285.5625,219.6563 284.875,219.7813 284.1094,219.7813 C282.0625,219.7813 280.7656,218.6875 280.7656,216.9844 L280.7656,215.8906 C280.7656,214.1094 282.0156,212.7969 283.75,212.7969 C284.3281,212.7969 284.9375,212.9531 285.4063,213.2031 C285.8906,213.4844 286.0625,213.7031 286.1563,214.1094 C286.2188,214.5156 286.25,214.6406 286.3906,214.7656 C286.5313,214.9063 286.7656,215.0156 286.9844,215.0156 C287.25,215.0156 287.5156,214.875 287.6875,214.6563 C287.7969,214.5 287.8281,214.3125 287.8281,213.8906 L287.8281,212.4688 C287.8281,212.0313 287.8125,211.9063 287.7188,211.75 C287.5625,211.4844 287.2813,211.3438 286.9844,211.3438 C286.6875,211.3438 286.4844,211.4375 286.2656,211.75 L286.0938,211.6719 Z "/><text fill="#000000" font-family="sans-serif" font-size="12" lengthAdjust="spacingAndGlyphs" textLength="36" x="304.25" y="220.1543">Board</text><line style="stroke: #A80036; stroke-width: 1.5;" x1="218" x2="394" y1="232" y2="232"/><rect fill="none" height="6" style="stroke: #C82930; stroke-width: 1.0;" width="6" x="225" y="240"/><text fill="#000000" font-family="sans-serif" font-size="11" lengthAdjust="spacingAndGlyphs" text-decoration="underline" textLength="104" x="237" y="246.2104">MAX_ATTEMPS: int</text><rect fill="none" height="6" style="stroke: #C82930; stroke-width: 1.0;" width="6" x="225" y="252.8047"/><text fill="#000000" font-family="sans-serif" font-size="11" lengthAdjust="spacingAndGlyphs" textLength="72" x="237" y="259.0151">attempts: int</text><line style="stroke: #A80036; stroke-width: 1.5;" x1="218" x2="394" y1="265.6094" y2="265.6094"/><polygon fill="#4177AF" points="228,272.6094,224,278.6094,232,278.6094" style="stroke: #1963A0; stroke-width: 1.0;"/><text fill="#000000" font-family="sans-serif" font-size="11" lengthAdjust="spacingAndGlyphs" textLength="41" x="237" y="279.8198">Board()</text><ellipse cx="228" cy="289.4141" fill="#84BE84" rx="3" ry="3" style="stroke: #038048; stroke-width: 1.0;"/><text fill="#000000" font-family="sans-serif" font-size="11" lengthAdjust="spacingAndGlyphs" textLength="46" x="237" y="292.6245">writeln()</text><ellipse cx="228" cy="302.2188" fill="#84BE84" rx="3" ry="3" style="stroke: #038048; stroke-width: 1.0;"/><text fill="#000000" font-family="sans-serif" font-size="11" lengthAdjust="spacingAndGlyphs" textLength="152" x="237" y="305.4292">add(ProposedCombination)</text><ellipse cx="228" cy="315.0234" fill="#84BE84" rx="3" ry="3" style="stroke: #038048; stroke-width: 1.0;"/><text fill="#000000" font-family="sans-serif" font-size="11" lengthAdjust="spacingAndGlyphs" textLength="117" x="237" y="318.2339">isFinished(): boolean</text><ellipse cx="228" cy="327.8281" fill="#84BE84" rx="3" ry="3" style="stroke: #038048; stroke-width: 1.0;"/><text fill="#000000" font-family="sans-serif" font-size="11" lengthAdjust="spacingAndGlyphs" textLength="110" x="237" y="331.0386">isWinner(): boolean</text><rect fill="#F24D5C" height="6" style="stroke: #C82930; stroke-width: 1.0;" width="6" x="225" y="337.6328"/><text fill="#000000" font-family="sans-serif" font-size="11" lengthAdjust="spacingAndGlyphs" textLength="108" x="237" y="343.8433">isLooser(): boolean</text><!--MD5=[28491d17d5ee38c9c116625a5ffc259a]
class Combination--><rect codeLine="21" fill="#FEFECE" filter="url(#f1qorf3e7qjxuh)" height="73.6094" id="Combination" style="stroke: #A80036; stroke-width: 1.5;" width="132" x="557" y="238"/><ellipse cx="582.8" cy="254" fill="#A9DCDF" rx="11" ry="11" style="stroke: #A80036; stroke-width: 1.0;"/><path d="M584.8781,255.8125 L585.2688,256.7969 L584.8781,256.7969 C584.425,256.7969 584.3156,256.8125 584.1594,256.9219 C583.9094,257.0781 583.7531,257.3594 583.7531,257.6563 C583.7531,257.9219 583.8938,258.1719 584.1125,258.3281 C584.2531,258.4531 584.4563,258.5 584.8781,258.5 L587.2375,258.5 C587.5969,258.5 587.8156,258.4688 587.9563,258.375 C588.2063,258.2344 588.3625,257.9375 588.3625,257.6563 C588.3625,257.375 588.2219,257.125 588.0031,256.9688 C587.8313,256.8281 587.675,256.7969 587.2063,256.7969 L583.8156,248.5938 L580.1438,248.5938 C579.6906,248.5938 579.5656,248.6094 579.4094,248.7031 C579.1594,248.875 579.0031,249.1563 579.0031,249.4375 C579.0031,249.7188 579.1438,249.9688 579.3625,250.1406 C579.5344,250.25 579.7063,250.2813 580.1438,250.2813 L581.2219,250.2813 L578.5813,256.7969 C578.1594,256.7969 578.0031,256.8125 577.8469,256.9219 C577.5969,257.0781 577.4406,257.3594 577.4406,257.6563 C577.4406,258.2188 577.8156,258.5 578.5656,258.5 L580.8313,258.5 C581.1906,258.5 581.4094,258.4688 581.5344,258.375 C581.8,258.2344 581.9406,257.9375 581.9406,257.6563 C581.9406,257.375 581.8156,257.125 581.5969,256.9531 C581.425,256.8281 581.2844,256.7969 580.8313,256.7969 L580.4406,256.7969 L580.8313,255.8125 L584.8781,255.8125 Z M584.175,254.1094 L581.5031,254.1094 L582.8469,250.8438 L584.175,254.1094 Z "/><text fill="#000000" font-family="sans-serif" font-size="12" font-style="italic" lengthAdjust="spacingAndGlyphs" textLength="76" x="599.2" y="258.1543">Combination</text><line style="stroke: #A80036; stroke-width: 1.5;" x1="558" x2="688" y1="270" y2="270"/><polygon fill="none" points="568,276,572,280,568,284,564,280" style="stroke: #B38D22; stroke-width: 1.0;"/><text fill="#000000" font-family="sans-serif" font-size="11" lengthAdjust="spacingAndGlyphs" textLength="106" x="577" y="284.2104">colors: List&lt;Color&gt;</text><line style="stroke: #A80036; stroke-width: 1.5;" x1="558" x2="688" y1="290.8047" y2="290.8047"/><polygon fill="#FFFF44" points="568,296.8047,572,300.8047,568,304.8047,564,300.8047" style="stroke: #B38D22; stroke-width: 1.0;"/><text fill="#000000" font-family="sans-serif" font-size="11" lengthAdjust="spacingAndGlyphs" textLength="83" x="577" y="305.0151">Combination ()</text><!--MD5=[e370ee5c0c15ce04544d5f5a73174d72]
class SecretCombination--><rect codeLine="26" fill="#FEFECE" filter="url(#f1qorf3e7qjxuh)" height="86.4141" id="SecretCombination" style="stroke: #A80036; stroke-width: 1.5;" width="253" x="496.5" y="500"/><ellipse cx="561.75" cy="516" fill="#ADD1B2" rx="11" ry="11" style="stroke: #A80036; stroke-width: 1.0;"/><path d="M564.0938,511.6719 C563.1563,511.2344 562.5625,511.0938 561.6875,511.0938 C559.0625,511.0938 557.0625,513.1719 557.0625,515.8906 L557.0625,517.0156 C557.0625,519.5938 559.1719,521.4844 562.0625,521.4844 C563.2813,521.4844 564.4375,521.1875 565.1875,520.6406 C565.7656,520.2344 566.0938,519.7813 566.0938,519.3906 C566.0938,518.9375 565.7031,518.5469 565.2344,518.5469 C565.0156,518.5469 564.8125,518.625 564.625,518.8125 C564.1719,519.2969 564.1719,519.2969 563.9844,519.3906 C563.5625,519.6563 562.875,519.7813 562.1094,519.7813 C560.0625,519.7813 558.7656,518.6875 558.7656,516.9844 L558.7656,515.8906 C558.7656,514.1094 560.0156,512.7969 561.75,512.7969 C562.3281,512.7969 562.9375,512.9531 563.4063,513.2031 C563.8906,513.4844 564.0625,513.7031 564.1563,514.1094 C564.2188,514.5156 564.25,514.6406 564.3906,514.7656 C564.5313,514.9063 564.7656,515.0156 564.9844,515.0156 C565.25,515.0156 565.5156,514.875 565.6875,514.6563 C565.7969,514.5 565.8281,514.3125 565.8281,513.8906 L565.8281,512.4688 C565.8281,512.0313 565.8125,511.9063 565.7188,511.75 C565.5625,511.4844 565.2813,511.3438 564.9844,511.3438 C564.6875,511.3438 564.4844,511.4375 564.2656,511.75 L564.0938,511.6719 Z "/><text fill="#000000" font-family="sans-serif" font-size="12" lengthAdjust="spacingAndGlyphs" textLength="114" x="582.25" y="520.1543">SecretCombination</text><line style="stroke: #A80036; stroke-width: 1.5;" x1="497.5" x2="748.5" y1="532" y2="532"/><line style="stroke: #A80036; stroke-width: 1.5;" x1="497.5" x2="748.5" y1="540" y2="540"/><polygon fill="#4177AF" points="507.5,547,503.5,553,511.5,553" style="stroke: #1963A0; stroke-width: 1.0;"/><text fill="#000000" font-family="sans-serif" font-size="11" lengthAdjust="spacingAndGlyphs" textLength="117" x="516.5" y="554.2104">SecretCombination()</text><polygon fill="#4177AF" points="507.5,559.8047,503.5,565.8047,511.5,565.8047" style="stroke: #1963A0; stroke-width: 1.0;"/><text fill="#000000" font-family="sans-serif" font-size="11" lengthAdjust="spacingAndGlyphs" textLength="227" x="516.5" y="567.0151">getResult(ProposedCombination): Result</text><polygon fill="#4177AF" points="507.5,572.6094,503.5,578.6094,511.5,578.6094" style="stroke: #1963A0; stroke-width: 1.0;"/><text fill="#000000" font-family="sans-serif" font-size="11" lengthAdjust="spacingAndGlyphs" textLength="46" x="516.5" y="579.8198">writeln()</text><!--MD5=[cf489b19c51ee25e76ddca093e62e620]
class ProposedCombination--><rect codeLine="32" fill="#FEFECE" filter="url(#f1qorf3e7qjxuh)" height="112.0234" id="ProposedCombination" style="stroke: #A80036; stroke-width: 1.5;" width="184" x="277" y="487"/><ellipse cx="301" cy="503" fill="#ADD1B2" rx="11" ry="11" style="stroke: #A80036; stroke-width: 1.0;"/><path d="M303.3438,498.6719 C302.4063,498.2344 301.8125,498.0938 300.9375,498.0938 C298.3125,498.0938 296.3125,500.1719 296.3125,502.8906 L296.3125,504.0156 C296.3125,506.5938 298.4219,508.4844 301.3125,508.4844 C302.5313,508.4844 303.6875,508.1875 304.4375,507.6406 C305.0156,507.2344 305.3438,506.7813 305.3438,506.3906 C305.3438,505.9375 304.9531,505.5469 304.4844,505.5469 C304.2656,505.5469 304.0625,505.625 303.875,505.8125 C303.4219,506.2969 303.4219,506.2969 303.2344,506.3906 C302.8125,506.6563 302.125,506.7813 301.3594,506.7813 C299.3125,506.7813 298.0156,505.6875 298.0156,503.9844 L298.0156,502.8906 C298.0156,501.1094 299.2656,499.7969 301,499.7969 C301.5781,499.7969 302.1875,499.9531 302.6563,500.2031 C303.1406,500.4844 303.3125,500.7031 303.4063,501.1094 C303.4688,501.5156 303.5,501.6406 303.6406,501.7656 C303.7813,501.9063 304.0156,502.0156 304.2344,502.0156 C304.5,502.0156 304.7656,501.875 304.9375,501.6563 C305.0469,501.5 305.0781,501.3125 305.0781,500.8906 L305.0781,499.4688 C305.0781,499.0313 305.0625,498.9063 304.9688,498.75 C304.8125,498.4844 304.5313,498.3438 304.2344,498.3438 C303.9375,498.3438 303.7344,498.4375 303.5156,498.75 L303.3438,498.6719 Z "/><text fill="#000000" font-family="sans-serif" font-size="12" lengthAdjust="spacingAndGlyphs" textLength="132" x="317" y="507.1543">ProposedCombination</text><line style="stroke: #A80036; stroke-width: 1.5;" x1="278" x2="460" y1="519" y2="519"/><line style="stroke: #A80036; stroke-width: 1.5;" x1="278" x2="460" y1="527" y2="527"/><polygon fill="#4177AF" points="288,534,284,540,292,540" style="stroke: #1963A0; stroke-width: 1.0;"/><text fill="#000000" font-family="sans-serif" font-size="11" lengthAdjust="spacingAndGlyphs" textLength="36" x="297" y="541.2104">write()</text><polygon fill="#4177AF" points="288,546.8047,284,552.8047,292,552.8047" style="stroke: #1963A0; stroke-width: 1.0;"/><text fill="#000000" font-family="sans-serif" font-size="11" lengthAdjust="spacingAndGlyphs" textLength="34" x="297" y="554.0151">read()</text><rect fill="#F24D5C" height="6" style="stroke: #C82930; stroke-width: 1.0;" width="6" x="285" y="560.6094"/><text fill="#000000" font-family="sans-serif" font-size="11" lengthAdjust="spacingAndGlyphs" textLength="133" x="297" y="566.8198">checkError(String): Error</text><polygon fill="#4177AF" points="288,572.4141,284,578.4141,292,578.4141" style="stroke: #1963A0; stroke-width: 1.0;"/><text fill="#000000" font-family="sans-serif" font-size="11" lengthAdjust="spacingAndGlyphs" textLength="158" x="297" y="579.6245">contains(Color, int): boolean</text><polygon fill="#4177AF" points="288,585.2188,284,591.2188,292,591.2188" style="stroke: #1963A0; stroke-width: 1.0;"/><text fill="#000000" font-family="sans-serif" font-size="11" lengthAdjust="spacingAndGlyphs" textLength="137" x="297" y="592.4292">contains(Color): boolean</text><!--MD5=[2741598bdf59a7d7e0d5c97658fd3022]
class Result--><rect codeLine="40" fill="#FEFECE" filter="url(#f1qorf3e7qjxuh)" height="124.8281" id="Result" style="stroke: #A80036; stroke-width: 1.5;" width="136" x="106" y="480.5"/><ellipse cx="151.75" cy="496.5" fill="#ADD1B2" rx="11" ry="11" style="stroke: #A80036; stroke-width: 1.0;"/><path d="M154.0938,492.1719 C153.1563,491.7344 152.5625,491.5938 151.6875,491.5938 C149.0625,491.5938 147.0625,493.6719 147.0625,496.3906 L147.0625,497.5156 C147.0625,500.0938 149.1719,501.9844 152.0625,501.9844 C153.2813,501.9844 154.4375,501.6875 155.1875,501.1406 C155.7656,500.7344 156.0938,500.2813 156.0938,499.8906 C156.0938,499.4375 155.7031,499.0469 155.2344,499.0469 C155.0156,499.0469 154.8125,499.125 154.625,499.3125 C154.1719,499.7969 154.1719,499.7969 153.9844,499.8906 C153.5625,500.1563 152.875,500.2813 152.1094,500.2813 C150.0625,500.2813 148.7656,499.1875 148.7656,497.4844 L148.7656,496.3906 C148.7656,494.6094 150.0156,493.2969 151.75,493.2969 C152.3281,493.2969 152.9375,493.4531 153.4063,493.7031 C153.8906,493.9844 154.0625,494.2031 154.1563,494.6094 C154.2188,495.0156 154.25,495.1406 154.3906,495.2656 C154.5313,495.4063 154.7656,495.5156 154.9844,495.5156 C155.25,495.5156 155.5156,495.375 155.6875,495.1563 C155.7969,495 155.8281,494.8125 155.8281,494.3906 L155.8281,492.9688 C155.8281,492.5313 155.8125,492.4063 155.7188,492.25 C155.5625,491.9844 155.2813,491.8438 154.9844,491.8438 C154.6875,491.8438 154.4844,491.9375 154.2656,492.25 L154.0938,492.1719 Z "/><text fill="#000000" font-family="sans-serif" font-size="12" lengthAdjust="spacingAndGlyphs" textLength="36" x="172.25" y="500.6543">Result</text><line style="stroke: #A80036; stroke-width: 1.5;" x1="107" x2="241" y1="512.5" y2="512.5"/><ellipse cx="117" cy="523.5" fill="none" rx="3" ry="3" style="stroke: #038048; stroke-width: 1.0;"/><text fill="#000000" font-family="sans-serif" font-size="11" lengthAdjust="spacingAndGlyphs" text-decoration="underline" textLength="59" x="126" y="526.7104">WIDTH: int</text><rect fill="none" height="6" style="stroke: #C82930; stroke-width: 1.0;" width="6" x="114" y="533.3047"/><text fill="#000000" font-family="sans-serif" font-size="11" lengthAdjust="spacingAndGlyphs" textLength="56" x="126" y="539.5151">blacks: int</text><rect fill="none" height="6" style="stroke: #C82930; stroke-width: 1.0;" width="6" x="114" y="546.1094"/><text fill="#000000" font-family="sans-serif" font-size="11" lengthAdjust="spacingAndGlyphs" textLength="58" x="126" y="552.3198">whites: int</text><line style="stroke: #A80036; stroke-width: 1.5;" x1="107" x2="241" y1="558.9141" y2="558.9141"/><polygon fill="#4177AF" points="117,565.9141,113,571.9141,121,571.9141" style="stroke: #1963A0; stroke-width: 1.0;"/><text fill="#000000" font-family="sans-serif" font-size="11" lengthAdjust="spacingAndGlyphs" textLength="78" x="126" y="573.1245">Result(int, int)</text><polygon fill="#4177AF" points="117,578.7188,113,584.7188,121,584.7188" style="stroke: #1963A0; stroke-width: 1.0;"/><text fill="#000000" font-family="sans-serif" font-size="11" lengthAdjust="spacingAndGlyphs" textLength="110" x="126" y="585.9292">isWinner(): boolean</text><polygon fill="#4177AF" points="117,591.5234,113,597.5234,121,597.5234" style="stroke: #1963A0; stroke-width: 1.0;"/><text fill="#000000" font-family="sans-serif" font-size="11" lengthAdjust="spacingAndGlyphs" textLength="46" x="126" y="598.7339">writeln()</text><!--MD5=[18eee71c88ab61f27581b8cbdd3ef5ee]
class Color--><rect codeLine="49" fill="#FEFECE" filter="url(#f1qorf3e7qjxuh)" height="265.6797" id="Color" style="stroke: #A80036; stroke-width: 1.5;" width="161" x="784.5" y="410"/><ellipse cx="844.75" cy="426" fill="#EB937F" rx="11" ry="11" style="stroke: #A80036; stroke-width: 1.0;"/><path d="M843.5469,426.875 L845,426.875 L845,426.9844 C845,427.3906 845.0313,427.5469 845.1094,427.7031 C845.2656,427.9531 845.5469,428.1094 845.8438,428.1094 C846.0938,428.1094 846.3594,427.9688 846.5156,427.75 C846.6406,427.5938 846.6719,427.4375 846.6719,426.9844 L846.6719,425.0625 C846.6719,424.9063 846.6719,424.8594 846.6563,424.7031 C846.5938,424.2344 846.2813,423.9219 845.8281,423.9219 C845.5781,423.9219 845.3125,424.0625 845.1406,424.2813 C845.0313,424.4531 845,424.6094 845,425.0625 L845,425.1875 L843.5469,425.1875 L843.5469,422.7813 L847.5313,422.7813 L847.5313,423.6406 C847.5313,424.0469 847.5625,424.2188 847.6406,424.375 C847.8125,424.625 848.0938,424.7813 848.375,424.7813 C848.6406,424.7813 848.9063,424.6406 849.0781,424.4219 C849.1875,424.25 849.2188,424.1094 849.2188,423.6406 L849.2188,421.0938 L841.5938,421.0938 C841.1563,421.0938 841.0313,421.1094 840.875,421.2031 C840.625,421.3594 840.4688,421.6563 840.4688,421.9375 C840.4688,422.2188 840.6094,422.4688 840.8281,422.6406 C840.9844,422.75 841.1719,422.7813 841.5938,422.7813 L841.8438,422.7813 L841.8438,429.2969 L841.5938,429.2969 C841.1875,429.2969 841.0313,429.3125 840.875,429.4219 C840.625,429.5938 840.4688,429.8594 840.4688,430.1563 C840.4688,430.4219 840.6094,430.6719 840.8281,430.8281 C840.9688,430.9531 841.2031,431 841.5938,431 L849.5938,431 L849.5938,428.4219 C849.5938,427.9844 849.5625,427.8438 849.4844,427.6875 C849.3125,427.4375 849.0313,427.2813 848.75,427.2813 C848.4844,427.2813 848.2188,427.3906 848.0469,427.6406 C847.9375,427.7969 847.9063,427.9375 847.9063,428.4219 L847.9063,429.2969 L843.5469,429.2969 L843.5469,426.875 Z "/><text fill="#000000" font-family="sans-serif" font-size="12" lengthAdjust="spacingAndGlyphs" textLength="32" x="865.25" y="430.1543">Color</text><line style="stroke: #A80036; stroke-width: 1.5;" x1="785.5" x2="944.5" y1="442" y2="442"/><ellipse cx="795.5" cy="453" fill="none" rx="3" ry="3" style="stroke: #038048; stroke-width: 1.0;"/><text fill="#000000" font-family="sans-serif" font-size="11" lengthAdjust="spacingAndGlyphs" textLength="23" x="804.5" y="456.2104">RED</text><ellipse cx="795.5" cy="465.8047" fill="none" rx="3" ry="3" style="stroke: #038048; stroke-width: 1.0;"/><text fill="#000000" font-family="sans-serif" font-size="11" lengthAdjust="spacingAndGlyphs" textLength="29" x="804.5" y="469.0151">BLUE</text><ellipse cx="795.5" cy="478.6094" fill="none" rx="3" ry="3" style="stroke: #038048; stroke-width: 1.0;"/><text fill="#000000" font-family="sans-serif" font-size="11" lengthAdjust="spacingAndGlyphs" textLength="46" x="804.5" y="481.8198">YELLOW</text><ellipse cx="795.5" cy="491.4141" fill="none" rx="3" ry="3" style="stroke: #038048; stroke-width: 1.0;"/><text fill="#000000" font-family="sans-serif" font-size="11" lengthAdjust="spacingAndGlyphs" textLength="38" x="804.5" y="494.6245">GREEN</text><ellipse cx="795.5" cy="504.2188" fill="none" rx="3" ry="3" style="stroke: #038048; stroke-width: 1.0;"/><text fill="#000000" font-family="sans-serif" font-size="11" lengthAdjust="spacingAndGlyphs" textLength="48" x="804.5" y="507.4292">ORANGE</text><ellipse cx="795.5" cy="517.0234" fill="none" rx="3" ry="3" style="stroke: #038048; stroke-width: 1.0;"/><text fill="#000000" font-family="sans-serif" font-size="11" lengthAdjust="spacingAndGlyphs" textLength="40" x="804.5" y="520.2339">PURPLE</text><ellipse cx="795.5" cy="529.8281" fill="none" rx="3" ry="3" style="stroke: #038048; stroke-width: 1.0;"/><text fill="#000000" font-family="sans-serif" font-size="11" lengthAdjust="spacingAndGlyphs" textLength="73" x="804.5" y="533.0386">NULL_COLOR</text><rect fill="none" height="6" style="stroke: #C82930; stroke-width: 1.0;" width="6" x="792.5" y="539.6328"/><text fill="#000000" font-family="sans-serif" font-size="11" lengthAdjust="spacingAndGlyphs" textLength="70" x="804.5" y="545.8433">initial: String</text><rect fill="none" height="6" style="stroke: #C82930; stroke-width: 1.0;" width="6" x="792.5" y="552.4375"/><text fill="#000000" font-family="sans-serif" font-size="11" lengthAdjust="spacingAndGlyphs" text-decoration="underline" textLength="121" x="804.5" y="558.6479">RESET_COLOR: String</text><line style="stroke: #A80036; stroke-width: 1.5;" x1="785.5" x2="944.5" y1="565.2422" y2="565.2422"/><rect fill="#F24D5C" height="6" style="stroke: #C82930; stroke-width: 1.0;" width="6" x="792.5" y="573.2422"/><text fill="#000000" font-family="sans-serif" font-size="11" lengthAdjust="spacingAndGlyphs" textLength="37" x="804.5" y="579.4526">Color()</text><rect fill="#F24D5C" height="6" style="stroke: #C82930; stroke-width: 1.0;" width="6" x="792.5" y="586.0469"/><text fill="#000000" font-family="sans-serif" font-size="11" lengthAdjust="spacingAndGlyphs" textLength="61" x="804.5" y="592.2573">Color(char)</text><polygon fill="#4177AF" points="795.5,597.8516,791.5,603.8516,799.5,603.8516" style="stroke: #1963A0; stroke-width: 1.0;"/><text fill="#000000" font-family="sans-serif" font-size="11" lengthAdjust="spacingAndGlyphs" text-decoration="underline" textLength="103" x="804.5" y="605.062">getInitials(): String</text><polygon fill="#4177AF" points="795.5,610.6563,791.5,616.6563,799.5,616.6563" style="stroke: #1963A0; stroke-width: 1.0;"/><text fill="#000000" font-family="sans-serif" font-size="11" lengthAdjust="spacingAndGlyphs" text-decoration="underline" textLength="135" x="804.5" y="617.8667">getInstance(char): Color</text><polygon fill="#4177AF" points="795.5,623.4609,791.5,629.4609,799.5,629.4609" style="stroke: #1963A0; stroke-width: 1.0;"/><text fill="#000000" font-family="sans-serif" font-size="11" lengthAdjust="spacingAndGlyphs" text-decoration="underline" textLength="65" x="804.5" y="630.6714">length(): int</text><polygon fill="#4177AF" points="795.5,636.2656,791.5,642.2656,799.5,642.2656" style="stroke: #1963A0; stroke-width: 1.0;"/><text fill="#000000" font-family="sans-serif" font-size="11" lengthAdjust="spacingAndGlyphs" text-decoration="underline" textLength="77" x="804.5" y="643.4761">get(int): Color</text><polygon fill="#4177AF" points="795.5,649.0703,791.5,655.0703,799.5,655.0703" style="stroke: #1963A0; stroke-width: 1.0;"/><text fill="#000000" font-family="sans-serif" font-size="11" lengthAdjust="spacingAndGlyphs" textLength="36" x="804.5" y="656.2808">write()</text><polygon fill="#4177AF" points="795.5,661.875,791.5,667.875,799.5,667.875" style="stroke: #1963A0; stroke-width: 1.0;"/><text fill="#000000" font-family="sans-serif" font-size="11" lengthAdjust="spacingAndGlyphs" textLength="91" x="804.5" y="669.0854">isNull(): boolean</text><!--MD5=[b8cfd8c4119a3b0a7a46bfc5fc780f85]
class Error--><rect codeLine="69" fill="#FEFECE" filter="url(#f1qorf3e7qjxuh)" height="163.2422" id="Error" style="stroke: #A80036; stroke-width: 1.5;" width="152" x="321" y="768"/><ellipse cx="377.75" cy="784" fill="#EB937F" rx="11" ry="11" style="stroke: #A80036; stroke-width: 1.0;"/><path d="M376.5469,784.875 L378,784.875 L378,784.9844 C378,785.3906 378.0313,785.5469 378.1094,785.7031 C378.2656,785.9531 378.5469,786.1094 378.8438,786.1094 C379.0938,786.1094 379.3594,785.9688 379.5156,785.75 C379.6406,785.5938 379.6719,785.4375 379.6719,784.9844 L379.6719,783.0625 C379.6719,782.9063 379.6719,782.8594 379.6563,782.7031 C379.5938,782.2344 379.2813,781.9219 378.8281,781.9219 C378.5781,781.9219 378.3125,782.0625 378.1406,782.2813 C378.0313,782.4531 378,782.6094 378,783.0625 L378,783.1875 L376.5469,783.1875 L376.5469,780.7813 L380.5313,780.7813 L380.5313,781.6406 C380.5313,782.0469 380.5625,782.2188 380.6406,782.375 C380.8125,782.625 381.0938,782.7813 381.375,782.7813 C381.6406,782.7813 381.9063,782.6406 382.0781,782.4219 C382.1875,782.25 382.2188,782.1094 382.2188,781.6406 L382.2188,779.0938 L374.5938,779.0938 C374.1563,779.0938 374.0313,779.1094 373.875,779.2031 C373.625,779.3594 373.4688,779.6563 373.4688,779.9375 C373.4688,780.2188 373.6094,780.4688 373.8281,780.6406 C373.9844,780.75 374.1719,780.7813 374.5938,780.7813 L374.8438,780.7813 L374.8438,787.2969 L374.5938,787.2969 C374.1875,787.2969 374.0313,787.3125 373.875,787.4219 C373.625,787.5938 373.4688,787.8594 373.4688,788.1563 C373.4688,788.4219 373.6094,788.6719 373.8281,788.8281 C373.9688,788.9531 374.2031,789 374.5938,789 L382.5938,789 L382.5938,786.4219 C382.5938,785.9844 382.5625,785.8438 382.4844,785.6875 C382.3125,785.4375 382.0313,785.2813 381.75,785.2813 C381.4844,785.2813 381.2188,785.3906 381.0469,785.6406 C380.9375,785.7969 380.9063,785.9375 380.9063,786.4219 L380.9063,787.2969 L376.5469,787.2969 L376.5469,784.875 Z "/><text fill="#000000" font-family="sans-serif" font-size="12" lengthAdjust="spacingAndGlyphs" textLength="30" x="398.25" y="788.1543">Error</text><line style="stroke: #A80036; stroke-width: 1.5;" x1="322" x2="472" y1="800" y2="800"/><ellipse cx="332" cy="811" fill="none" rx="3" ry="3" style="stroke: #038048; stroke-width: 1.0;"/><text fill="#000000" font-family="sans-serif" font-size="11" lengthAdjust="spacingAndGlyphs" textLength="71" x="341" y="814.2104">DUPLICATED</text><ellipse cx="332" cy="823.8047" fill="none" rx="3" ry="3" style="stroke: #038048; stroke-width: 1.0;"/><text fill="#000000" font-family="sans-serif" font-size="11" lengthAdjust="spacingAndGlyphs" textLength="126" x="341" y="827.0151">WRONG_CHARACTERS</text><ellipse cx="332" cy="836.6094" fill="none" rx="3" ry="3" style="stroke: #038048; stroke-width: 1.0;"/><text fill="#000000" font-family="sans-serif" font-size="11" lengthAdjust="spacingAndGlyphs" textLength="95" x="341" y="839.8198">WRONG_LENGTH</text><ellipse cx="332" cy="849.4141" fill="none" rx="3" ry="3" style="stroke: #038048; stroke-width: 1.0;"/><text fill="#000000" font-family="sans-serif" font-size="11" lengthAdjust="spacingAndGlyphs" textLength="71" x="341" y="852.6245">NULL_ERROR</text><rect fill="none" height="6" style="stroke: #C82930; stroke-width: 1.0;" width="6" x="329" y="859.2188"/><text fill="#000000" font-family="sans-serif" font-size="11" lengthAdjust="spacingAndGlyphs" textLength="93" x="341" y="865.4292">message: String</text><line style="stroke: #A80036; stroke-width: 1.5;" x1="322" x2="472" y1="872.0234" y2="872.0234"/><rect fill="#F24D5C" height="6" style="stroke: #C82930; stroke-width: 1.0;" width="6" x="329" y="880.0234"/><text fill="#000000" font-family="sans-serif" font-size="11" lengthAdjust="spacingAndGlyphs" textLength="34" x="341" y="886.2339">Error()</text><rect fill="#F24D5C" height="6" style="stroke: #C82930; stroke-width: 1.0;" width="6" x="329" y="892.8281"/><text fill="#000000" font-family="sans-serif" font-size="11" lengthAdjust="spacingAndGlyphs" textLength="67" x="341" y="899.0386">Error(String)</text><polygon fill="#4177AF" points="332,904.6328,328,910.6328,336,910.6328" style="stroke: #1963A0; stroke-width: 1.0;"/><text fill="#000000" font-family="sans-serif" font-size="11" lengthAdjust="spacingAndGlyphs" textLength="46" x="341" y="911.8433">writeln()</text><ellipse cx="332" cy="921.4375" fill="#84BE84" rx="3" ry="3" style="stroke: #038048; stroke-width: 1.0;"/><text fill="#000000" font-family="sans-serif" font-size="11" lengthAdjust="spacingAndGlyphs" textLength="91" x="341" y="924.6479">isNull(): boolean</text><!--MD5=[bea5b0d46523efab5ea1c1d339f396f0]
class Message--><rect codeLine="81" fill="#FEFECE" filter="url(#f1qorf3e7qjxuh)" height="227.2656" id="Message" style="stroke: #A80036; stroke-width: 1.5;" width="173" x="87.5" y="736"/><ellipse cx="142.25" cy="752" fill="#EB937F" rx="11" ry="11" style="stroke: #A80036; stroke-width: 1.0;"/><path d="M141.0469,752.875 L142.5,752.875 L142.5,752.9844 C142.5,753.3906 142.5313,753.5469 142.6094,753.7031 C142.7656,753.9531 143.0469,754.1094 143.3438,754.1094 C143.5938,754.1094 143.8594,753.9688 144.0156,753.75 C144.1406,753.5938 144.1719,753.4375 144.1719,752.9844 L144.1719,751.0625 C144.1719,750.9063 144.1719,750.8594 144.1563,750.7031 C144.0938,750.2344 143.7813,749.9219 143.3281,749.9219 C143.0781,749.9219 142.8125,750.0625 142.6406,750.2813 C142.5313,750.4531 142.5,750.6094 142.5,751.0625 L142.5,751.1875 L141.0469,751.1875 L141.0469,748.7813 L145.0313,748.7813 L145.0313,749.6406 C145.0313,750.0469 145.0625,750.2188 145.1406,750.375 C145.3125,750.625 145.5938,750.7813 145.875,750.7813 C146.1406,750.7813 146.4063,750.6406 146.5781,750.4219 C146.6875,750.25 146.7188,750.1094 146.7188,749.6406 L146.7188,747.0938 L139.0938,747.0938 C138.6563,747.0938 138.5313,747.1094 138.375,747.2031 C138.125,747.3594 137.9688,747.6563 137.9688,747.9375 C137.9688,748.2188 138.1094,748.4688 138.3281,748.6406 C138.4844,748.75 138.6719,748.7813 139.0938,748.7813 L139.3438,748.7813 L139.3438,755.2969 L139.0938,755.2969 C138.6875,755.2969 138.5313,755.3125 138.375,755.4219 C138.125,755.5938 137.9688,755.8594 137.9688,756.1563 C137.9688,756.4219 138.1094,756.6719 138.3281,756.8281 C138.4688,756.9531 138.7031,757 139.0938,757 L147.0938,757 L147.0938,754.4219 C147.0938,753.9844 147.0625,753.8438 146.9844,753.6875 C146.8125,753.4375 146.5313,753.2813 146.25,753.2813 C145.9844,753.2813 145.7188,753.3906 145.5469,753.6406 C145.4375,753.7969 145.4063,753.9375 145.4063,754.4219 L145.4063,755.2969 L141.0469,755.2969 L141.0469,752.875 Z "/><text fill="#000000" font-family="sans-serif" font-size="12" lengthAdjust="spacingAndGlyphs" textLength="55" x="162.75" y="756.1543">Message</text><line style="stroke: #A80036; stroke-width: 1.5;" x1="88.5" x2="259.5" y1="768" y2="768"/><ellipse cx="98.5" cy="779" fill="none" rx="3" ry="3" style="stroke: #038048; stroke-width: 1.0;"/><text fill="#000000" font-family="sans-serif" font-size="11" lengthAdjust="spacingAndGlyphs" textLength="59" x="107.5" y="782.2104">ATTEMPTS</text><ellipse cx="98.5" cy="791.8047" fill="none" rx="3" ry="3" style="stroke: #038048; stroke-width: 1.0;"/><text fill="#000000" font-family="sans-serif" font-size="11" lengthAdjust="spacingAndGlyphs" textLength="130" x="107.5" y="795.0151">SECRET_COMBINATION</text><ellipse cx="98.5" cy="804.6094" fill="none" rx="3" ry="3" style="stroke: #038048; stroke-width: 1.0;"/><text fill="#000000" font-family="sans-serif" font-size="11" lengthAdjust="spacingAndGlyphs" textLength="46" x="107.5" y="807.8198">RESUME</text><ellipse cx="98.5" cy="817.4141" fill="none" rx="3" ry="3" style="stroke: #038048; stroke-width: 1.0;"/><text fill="#000000" font-family="sans-serif" font-size="11" lengthAdjust="spacingAndGlyphs" textLength="43" x="107.5" y="820.6245">RESULT</text><ellipse cx="98.5" cy="830.2188" fill="none" rx="3" ry="3" style="stroke: #038048; stroke-width: 1.0;"/><text fill="#000000" font-family="sans-serif" font-size="11" lengthAdjust="spacingAndGlyphs" textLength="147" x="107.5" y="833.4292">PROPOSED_COMBINATION</text><ellipse cx="98.5" cy="843.0234" fill="none" rx="3" ry="3" style="stroke: #038048; stroke-width: 1.0;"/><text fill="#000000" font-family="sans-serif" font-size="11" lengthAdjust="spacingAndGlyphs" textLength="30" x="107.5" y="846.2339">TITLE</text><ellipse cx="98.5" cy="855.8281" fill="none" rx="3" ry="3" style="stroke: #038048; stroke-width: 1.0;"/><text fill="#000000" font-family="sans-serif" font-size="11" lengthAdjust="spacingAndGlyphs" textLength="44" x="107.5" y="859.0386">WINNER</text><ellipse cx="98.5" cy="868.6328" fill="none" rx="3" ry="3" style="stroke: #038048; stroke-width: 1.0;"/><text fill="#000000" font-family="sans-serif" font-size="11" lengthAdjust="spacingAndGlyphs" textLength="46" x="107.5" y="871.8433">LOOSER</text><rect fill="none" height="6" style="stroke: #C82930; stroke-width: 1.0;" width="6" x="95.5" y="878.4375"/><text fill="#000000" font-family="sans-serif" font-size="11" lengthAdjust="spacingAndGlyphs" textLength="93" x="107.5" y="884.6479">message: String</text><line style="stroke: #A80036; stroke-width: 1.5;" x1="88.5" x2="259.5" y1="891.2422" y2="891.2422"/><rect fill="#F24D5C" height="6" style="stroke: #C82930; stroke-width: 1.0;" width="6" x="95.5" y="899.2422"/><text fill="#000000" font-family="sans-serif" font-size="11" lengthAdjust="spacingAndGlyphs" textLength="92" x="107.5" y="905.4526">Message(String)</text><polygon fill="#4177AF" points="98.5,911.0469,94.5,917.0469,102.5,917.0469" style="stroke: #1963A0; stroke-width: 1.0;"/><text fill="#000000" font-family="sans-serif" font-size="11" lengthAdjust="spacingAndGlyphs" textLength="36" x="107.5" y="918.2573">write()</text><polygon fill="#4177AF" points="98.5,923.8516,94.5,929.8516,102.5,929.8516" style="stroke: #1963A0; stroke-width: 1.0;"/><text fill="#000000" font-family="sans-serif" font-size="11" lengthAdjust="spacingAndGlyphs" textLength="46" x="107.5" y="931.062">writeln()</text><polygon fill="#4177AF" points="98.5,936.6563,94.5,942.6563,102.5,942.6563" style="stroke: #1963A0; stroke-width: 1.0;"/><text fill="#000000" font-family="sans-serif" font-size="11" lengthAdjust="spacingAndGlyphs" textLength="60" x="107.5" y="943.8667">writeln(int)</text><polygon fill="#4177AF" points="98.5,949.4609,94.5,955.4609,102.5,955.4609" style="stroke: #1963A0; stroke-width: 1.0;"/><text fill="#000000" font-family="sans-serif" font-size="11" lengthAdjust="spacingAndGlyphs" textLength="81" x="107.5" y="956.6714">writeln(int, int)</text><!--MD5=[315b61b427ec618d6861d47eee00cca3]
class Console--><rect codeLine="121" fill="#FEFECE" filter="url(#f1qorf3e7qjxuh)" height="48" id="Console" style="stroke: #A80036; stroke-width: 1.5;" width="179" x="487.5" y="1023"/><ellipse cx="502.5" cy="1039" fill="#ADD1B2" rx="11" ry="11" style="stroke: #A80036; stroke-width: 1.0;"/><path d="M504.8438,1034.6719 C503.9063,1034.2344 503.3125,1034.0938 502.4375,1034.0938 C499.8125,1034.0938 497.8125,1036.1719 497.8125,1038.8906 L497.8125,1040.0156 C497.8125,1042.5938 499.9219,1044.4844 502.8125,1044.4844 C504.0313,1044.4844 505.1875,1044.1875 505.9375,1043.6406 C506.5156,1043.2344 506.8438,1042.7813 506.8438,1042.3906 C506.8438,1041.9375 506.4531,1041.5469 505.9844,1041.5469 C505.7656,1041.5469 505.5625,1041.625 505.375,1041.8125 C504.9219,1042.2969 504.9219,1042.2969 504.7344,1042.3906 C504.3125,1042.6563 503.625,1042.7813 502.8594,1042.7813 C500.8125,1042.7813 499.5156,1041.6875 499.5156,1039.9844 L499.5156,1038.8906 C499.5156,1037.1094 500.7656,1035.7969 502.5,1035.7969 C503.0781,1035.7969 503.6875,1035.9531 504.1563,1036.2031 C504.6406,1036.4844 504.8125,1036.7031 504.9063,1037.1094 C504.9688,1037.5156 505,1037.6406 505.1406,1037.7656 C505.2813,1037.9063 505.5156,1038.0156 505.7344,1038.0156 C506,1038.0156 506.2656,1037.875 506.4375,1037.6563 C506.5469,1037.5 506.5781,1037.3125 506.5781,1036.8906 L506.5781,1035.4688 C506.5781,1035.0313 506.5625,1034.9063 506.4688,1034.75 C506.3125,1034.4844 506.0313,1034.3438 505.7344,1034.3438 C505.4375,1034.3438 505.2344,1034.4375 505.0156,1034.75 L504.8438,1034.6719 Z "/><text fill="#000000" font-family="sans-serif" font-size="12" lengthAdjust="spacingAndGlyphs" textLength="147" x="516.5" y="1043.1543">usantatecla.utils.views.Console</text><line style="stroke: #A80036; stroke-width: 1.5;" x1="488.5" x2="665.5" y1="1055" y2="1055"/><line style="stroke: #A80036; stroke-width: 1.5;" x1="488.5" x2="665.5" y1="1063" y2="1063"/><!--MD5=[d93cf99d2b92276f27fe8dbf15140505]
class YesNoDialog--><rect codeLine="126" fill="#FEFECE" filter="url(#f1qorf3e7qjxuh)" height="48" id="YesNoDialog" style="stroke: #A80036; stroke-width: 1.5;" width="206" x="978" y="251"/><ellipse cx="993" cy="267" fill="#ADD1B2" rx="11" ry="11" style="stroke: #A80036; stroke-width: 1.0;"/><path d="M995.3438,262.6719 C994.4063,262.2344 993.8125,262.0938 992.9375,262.0938 C990.3125,262.0938 988.3125,264.1719 988.3125,266.8906 L988.3125,268.0156 C988.3125,270.5938 990.4219,272.4844 993.3125,272.4844 C994.5313,272.4844 995.6875,272.1875 996.4375,271.6406 C997.0156,271.2344 997.3438,270.7813 997.3438,270.3906 C997.3438,269.9375 996.9531,269.5469 996.4844,269.5469 C996.2656,269.5469 996.0625,269.625 995.875,269.8125 C995.4219,270.2969 995.4219,270.2969 995.2344,270.3906 C994.8125,270.6563 994.125,270.7813 993.3594,270.7813 C991.3125,270.7813 990.0156,269.6875 990.0156,267.9844 L990.0156,266.8906 C990.0156,265.1094 991.2656,263.7969 993,263.7969 C993.5781,263.7969 994.1875,263.9531 994.6563,264.2031 C995.1406,264.4844 995.3125,264.7031 995.4063,265.1094 C995.4688,265.5156 995.5,265.6406 995.6406,265.7656 C995.7813,265.9063 996.0156,266.0156 996.2344,266.0156 C996.5,266.0156 996.7656,265.875 996.9375,265.6563 C997.0469,265.5 997.0781,265.3125 997.0781,264.8906 L997.0781,263.4688 C997.0781,263.0313 997.0625,262.9063 996.9688,262.75 C996.8125,262.4844 996.5313,262.3438 996.2344,262.3438 C995.9375,262.3438 995.7344,262.4375 995.5156,262.75 L995.3438,262.6719 Z "/><text fill="#000000" font-family="sans-serif" font-size="12" lengthAdjust="spacingAndGlyphs" textLength="174" x="1007" y="271.1543">usantatecla.utils.views.YesNoDialog</text><line style="stroke: #A80036; stroke-width: 1.5;" x1="979" x2="1183" y1="283" y2="283"/><line style="stroke: #A80036; stroke-width: 1.5;" x1="979" x2="1183" y1="291" y2="291"/><!--MD5=[ce3aceb15685c4a66d1e1b8ea7e2c984]
class ColorCode--><rect codeLine="130" fill="#FEFECE" filter="url(#f1qorf3e7qjxuh)" height="48" id="ColorCode" style="stroke: #A80036; stroke-width: 1.5;" width="194" x="978" y="825.5"/><ellipse cx="993" cy="841.5" fill="#EB937F" rx="11" ry="11" style="stroke: #A80036; stroke-width: 1.0;"/><path d="M991.7969,842.375 L993.25,842.375 L993.25,842.4844 C993.25,842.8906 993.2813,843.0469 993.3594,843.2031 C993.5156,843.4531 993.7969,843.6094 994.0938,843.6094 C994.3438,843.6094 994.6094,843.4688 994.7656,843.25 C994.8906,843.0938 994.9219,842.9375 994.9219,842.4844 L994.9219,840.5625 C994.9219,840.4063 994.9219,840.3594 994.9063,840.2031 C994.8438,839.7344 994.5313,839.4219 994.0781,839.4219 C993.8281,839.4219 993.5625,839.5625 993.3906,839.7813 C993.2813,839.9531 993.25,840.1094 993.25,840.5625 L993.25,840.6875 L991.7969,840.6875 L991.7969,838.2813 L995.7813,838.2813 L995.7813,839.1406 C995.7813,839.5469 995.8125,839.7188 995.8906,839.875 C996.0625,840.125 996.3438,840.2813 996.625,840.2813 C996.8906,840.2813 997.1563,840.1406 997.3281,839.9219 C997.4375,839.75 997.4688,839.6094 997.4688,839.1406 L997.4688,836.5938 L989.8438,836.5938 C989.4063,836.5938 989.2813,836.6094 989.125,836.7031 C988.875,836.8594 988.7188,837.1563 988.7188,837.4375 C988.7188,837.7188 988.8594,837.9688 989.0781,838.1406 C989.2344,838.25 989.4219,838.2813 989.8438,838.2813 L990.0938,838.2813 L990.0938,844.7969 L989.8438,844.7969 C989.4375,844.7969 989.2813,844.8125 989.125,844.9219 C988.875,845.0938 988.7188,845.3594 988.7188,845.6563 C988.7188,845.9219 988.8594,846.1719 989.0781,846.3281 C989.2188,846.4531 989.4531,846.5 989.8438,846.5 L997.8438,846.5 L997.8438,843.9219 C997.8438,843.4844 997.8125,843.3438 997.7344,843.1875 C997.5625,842.9375 997.2813,842.7813 997,842.7813 C996.7344,842.7813 996.4688,842.8906 996.2969,843.1406 C996.1875,843.2969 996.1563,843.4375 996.1563,843.9219 L996.1563,844.7969 L991.7969,844.7969 L991.7969,842.375 Z "/><text fill="#000000" font-family="sans-serif" font-size="12" lengthAdjust="spacingAndGlyphs" textLength="162" x="1007" y="845.6543">usantatecla.utils.views.ColorCode</text><line style="stroke: #A80036; stroke-width: 1.5;" x1="979" x2="1171" y1="857.5" y2="857.5"/><line style="stroke: #A80036; stroke-width: 1.5;" x1="979" x2="1171" y1="865.5" y2="865.5"/><!--MD5=[ba28573f2062cf9f5d1d4aa517f0cc38]
link Mastermind to Board--><path codeLine="100" d="M347.5255,151.7694 C347.5255,151.7694 339.418,175.632 335.455,187.297 " fill="none" id="Mastermind-Board" style="stroke: #A80036; stroke-width: 1.0;"/><polygon fill="#A80036" points="331.181,199.879,337.8631,192.6437,332.7891,195.1447,330.2882,190.0707,331.181,199.879" style="stroke: #A80036; stroke-width: 1.0;"/><line style="stroke: #A80036; stroke-width: 1.0;" x1="332.7891" x2="335.3625" y1="195.1447" y2="187.5705"/><polygon fill="#A80036" points="351.385,140.407,345.6678,144.8017,347.5255,151.7694,353.2427,147.3747,351.385,140.407" style="stroke: #A80036; stroke-width: 1.0;"/><!--MD5=[165aae362738a81ed253bf2cad9e16e5]
link Mastermind to ProposedCombination--><path codeLine="101" d="M392.419,140.229 C400.316,158.501 408.05,179.75 412,200 C431.103,297.94 407.077,413.392 388.002,481.99 " fill="none" id="Mastermind-to-ProposedCombination" style="stroke: #A80036; stroke-width: 1.0; stroke-dasharray: 7.0,7.0;"/><polygon fill="#A80036" points="386.637,486.847,392.9211,479.2635,387.9887,482.0332,385.219,477.1008,386.637,486.847" style="stroke: #A80036; stroke-width: 1.0;"/><!--MD5=[5e915b8ab835b2366405aaf6901e131b]
link Board to SecretCombination--><path codeLine="102" d="M404.8868,350.9556 C404.8868,350.9556 455.053,390.665 478,410 C508.721,435.885 541.931,465.955 568.806,490.851 " fill="none" id="Board-SecretCombination" style="stroke: #A80036; stroke-width: 1.0;"/><polygon fill="#A80036" points="578.405,499.771,574.5361,490.7139,574.7427,496.367,569.0896,496.5736,578.405,499.771" style="stroke: #A80036; stroke-width: 1.0;"/><line style="stroke: #A80036; stroke-width: 1.0;" x1="574.7427" x2="568.8825" y1="496.367" y2="490.9215"/><polygon fill="#A80036" points="395.421,343.58,397.6953,350.423,404.8868,350.9556,402.6124,344.1125,395.421,343.58" style="stroke: #A80036; stroke-width: 1.0;"/><!--MD5=[e0b5d9907fda64872c10fd6493e0c51f]
link Board to ProposedCombination--><path codeLine="103" d="M326.3155,361.7727 C326.3155,361.7727 344.848,440.023 352.852,473.82 " fill="none" id="Board-ProposedCombination" style="stroke: #A80036; stroke-width: 1.0;"/><polygon fill="#A80036" points="355.94,486.859,357.7584,477.1795,354.7878,481.9936,349.9737,479.023,355.94,486.859" style="stroke: #A80036; stroke-width: 1.0;"/><line style="stroke: #A80036; stroke-width: 1.0;" x1="354.7878" x2="352.9445" y1="481.9936" y2="474.2095"/><polygon fill="#FFFFFF" points="323.549,350.096,321.04,356.8566,326.3155,361.7727,328.8245,355.0122,323.549,350.096" style="stroke: #A80036; stroke-width: 1.0;"/><text fill="#000000" font-family="sans-serif" font-size="13" lengthAdjust="spacingAndGlyphs" textLength="32" x="320.2167" y="475.7789">0..10</text><!--MD5=[8dd95aff79c51151a18c835e3410b3cd]
link Board to Result--><path codeLine="104" d="M263.8972,360.8454 C263.8972,360.8454 226.85,435.499 210.45,468.548 " fill="none" id="Board-Result" style="stroke: #A80036; stroke-width: 1.0;"/><polygon fill="#A80036" points="204.557,480.423,212.1408,474.1392,206.7797,475.9442,204.9747,470.583,204.557,480.423" style="stroke: #A80036; stroke-width: 1.0;"/><line style="stroke: #A80036; stroke-width: 1.0;" x1="206.7797" x2="210.3355" y1="475.9442" y2="468.7785"/><polygon fill="#FFFFFF" points="269.231,350.096,262.9809,353.6928,263.8972,360.8454,270.1472,357.2487,269.231,350.096" style="stroke: #A80036; stroke-width: 1.0;"/><text fill="#000000" font-family="sans-serif" font-size="13" lengthAdjust="spacingAndGlyphs" textLength="32" x="174.2402" y="469.4049">0..10</text><!--MD5=[6e8433e42d71f9427401b78cd95c6f0c]
link Combination to Color--><path codeLine="106" d="M674.9141,320.1471 C674.9141,320.1471 738.807,378.497 767,410 C769.993,413.345 772.989,416.777 775.975,420.273 " fill="none" id="Combination-Color" style="stroke: #A80036; stroke-width: 1.0;"/><polygon fill="#A80036" points="784.355,430.275,781.641,420.8075,781.1439,426.4424,775.5089,425.9453,784.355,430.275" style="stroke: #A80036; stroke-width: 1.0;"/><line style="stroke: #A80036; stroke-width: 1.0;" x1="781.1439" x2="776.0055" y1="426.4424" y2="420.31"/><polygon fill="#A80036" points="665.906,312.219,667.7674,319.1857,674.9141,320.1471,673.0527,313.1803,665.906,312.219" style="stroke: #A80036; stroke-width: 1.0;"/><text fill="#000000" font-family="sans-serif" font-size="13" lengthAdjust="spacingAndGlyphs" textLength="8" x="768.5518" y="416.2795">4</text><!--MD5=[ed81d3472c9069d2de3c2f5cd308846f]
reverse link Combination to SecretCombination--><path codeLine="107" d="M623,332.454 C623,382.529 623,454.553 623,499.783 " fill="none" id="Combination-backto-SecretCombination" style="stroke: #A80036; stroke-width: 1.0;"/><polygon fill="none" points="616,332.151,623,312.151,630,332.151,616,332.151" style="stroke: #A80036; stroke-width: 1.0;"/><!--MD5=[2f10888865b2f559cc24db01ac34cee3]
reverse link Combination to ProposedCombination--><path codeLine="108" d="M566.439,325.59 C539.229,350.201 506.605,380.842 479,410 C456.03,434.262 432.104,462.56 412.455,486.719 " fill="none" id="Combination-backto-ProposedCombination" style="stroke: #A80036; stroke-width: 1.0;"/><polygon fill="none" points="561.78,320.365,581.342,312.22,571.129,330.786,561.78,320.365" style="stroke: #A80036; stroke-width: 1.0;"/><!--MD5=[03e1adeaed11e2ac298b9b43cd912fbb]
link ProposedCombination to Error--><path codeLine="109" d="M374.071,599.143 C378.269,644.8 384.306,710.455 389.132,762.935 " fill="none" id="ProposedCombination-to-Error" style="stroke: #A80036; stroke-width: 1.0; stroke-dasharray: 7.0,7.0;"/><polygon fill="#A80036" points="389.595,767.972,392.7527,758.6431,389.1364,762.9931,384.7864,759.3768,389.595,767.972" style="stroke: #A80036; stroke-width: 1.0;"/><!--MD5=[c90363da1e54012406e61a987ebdf2c8]
link Mastermind to Message--><path codeLine="112" d="M278.144,140.123 C251.079,157.072 222.382,177.534 199,200 C116.846,278.933 86.2512,301.343 52,410 C16.4577,522.753 16.1846,563.333 52,676 C59.3659,699.171 71.0966,721.908 84.4379,742.882 " fill="none" id="Mastermind-to-Message" style="stroke: #A80036; stroke-width: 1.0; stroke-dasharray: 7.0,7.0;"/><polygon fill="#A80036" points="87.3083,747.331,85.7912,737.5997,84.598,743.1293,79.0684,741.9361,87.3083,747.331" style="stroke: #A80036; stroke-width: 1.0;"/><!--MD5=[f93e57f7ded8581437b27fa1712e0f0d]
link Board to Message--><path codeLine="113" d="M216.977,306.147 C169.614,327.26 115.589,360.658 88,410 C32.5244,509.217 68.7279,638.512 109.836,730.949 " fill="none" id="Board-to-Message" style="stroke: #A80036; stroke-width: 1.0; stroke-dasharray: 7.0,7.0;"/><polygon fill="#A80036" points="111.922,735.599,111.8889,725.7502,109.8759,731.0368,104.5893,729.0239,111.922,735.599" style="stroke: #A80036; stroke-width: 1.0;"/><!--MD5=[b9347c562a69bbba75d70bb21299d009]
link ProposedCombination to Message--><path codeLine="114" d="M333.687,599.143 C310.083,636.001 278.134,685.891 249.015,731.362 " fill="none" id="ProposedCombination-to-Message" style="stroke: #A80036; stroke-width: 1.0; stroke-dasharray: 7.0,7.0;"/><polygon fill="#A80036" points="246.206,735.748,254.4291,730.3276,248.9032,731.5379,247.6929,726.012,246.206,735.748" style="stroke: #A80036; stroke-width: 1.0;"/><!--MD5=[478a268921f9a7a4cb7b8daeb48ad6b0]
link Result to Message--><path codeLine="115" d="M174,605.62 C174,641.524 174,687.999 174,730.668 " fill="none" id="Result-to-Message" style="stroke: #A80036; stroke-width: 1.0; stroke-dasharray: 7.0,7.0;"/><polygon fill="#A80036" points="174,735.852,178,726.852,174,730.852,170,726.852,174,735.852" style="stroke: #A80036; stroke-width: 1.0;"/><!--MD5=[922eb40535b2da68a8faa8740884533b]
link Board to Console--><path codeLine="137" d="M395.212,308.187 C438.206,322.702 490.79,339.014 539,350 C724.565,392.286 796.3,318.166 963,410 C1129.53,501.741 1174.42,557.539 1240,736 C1278.48,840.709 1315.3,904.697 1240,987 C1202.42,1028.0778 845.664,1040.7448 671.603,1044.4971 " fill="none" id="Board-to-Console" style="stroke: #A80036; stroke-width: 1.0; stroke-dasharray: 7.0,7.0;"/><polygon fill="#A80036" points="666.507,1044.6055,675.5906,1048.4117,671.5059,1044.4984,675.4192,1040.4136,666.507,1044.6055" style="stroke: #A80036; stroke-width: 1.0;"/><!--MD5=[913a83e29969536c5e075cf265ec81cd]
link Color to Console--><path codeLine="138" d="M945.54,566.207 C1023.71,592.536 1137.95,644.79 1190,736 C1245.29,832.888 1265.01,904.426 1190,987 C1155.89,1024.5543 835.356,1038.8546 671.896,1043.7388 " fill="none" id="Color-to-Console" style="stroke: #A80036; stroke-width: 1.0; stroke-dasharray: 7.0,7.0;"/><polygon fill="#A80036" points="666.627,1043.8945,675.7419,1047.6253,671.6248,1043.7459,675.5042,1039.6288,666.627,1043.8945" style="stroke: #A80036; stroke-width: 1.0;"/><!--MD5=[e1c0657851f1818bbfea224ef31533f7]
link Color to ColorCode--><path codeLine="139" d="M945.591,660.857 C985.826,719.198 1031.12,784.88 1056.03,820.998 " fill="none" id="Color-to-ColorCode" style="stroke: #A80036; stroke-width: 1.0; stroke-dasharray: 7.0,7.0;"/><polygon fill="#A80036" points="1058.97,825.253,1057.1514,815.5735,1056.1306,821.1375,1050.5666,820.1166,1058.97,825.253" style="stroke: #A80036; stroke-width: 1.0;"/><!--MD5=[702d0bc4071943235df53e25e5a40cdb]
link Error to Console--><path codeLine="140" d="M462.885,931.331 C478.865,949.999 496.197,969.505 513,987 C523.535,997.9693 535.678,1009.4323 546.536,1019.3056 " fill="none" id="Error-to-Console" style="stroke: #A80036; stroke-width: 1.0; stroke-dasharray: 7.0,7.0;"/><polygon fill="#A80036" points="550.473,1022.8673,546.4822,1013.8632,546.7651,1019.513,541.1153,1019.7958,550.473,1022.8673" style="stroke: #A80036; stroke-width: 1.0;"/><!--MD5=[fde603ad956a440325a7db2e94c3d038]
link Message to Console--><path codeLine="141" d="M260.673,956.209 C273.861,967.905 288.084,978.6005 303,987 C357.732,1017.8207 426.934,1032.5606 482.099,1039.6004 " fill="none" id="Message-to-Console" style="stroke: #A80036; stroke-width: 1.0; stroke-dasharray: 7.0,7.0;"/><polygon fill="#A80036" points="487.392,1040.2579,478.9531,1035.18,482.4301,1039.6422,477.9679,1043.1191,487.392,1040.2579" style="stroke: #A80036; stroke-width: 1.0;"/><!--MD5=[6bfe31e80e6e77060baa4b8d6064148a]
link ProposedCombination to Console--><path codeLine="142" d="M409.785,599.141 C435.701,636.277 468.33,687.208 490,736 C533.961,834.98 561.213,961.705 571.867,1017.4824 " fill="none" id="ProposedCombination-to-Console" style="stroke: #A80036; stroke-width: 1.0; stroke-dasharray: 7.0,7.0;"/><polygon fill="#A80036" points="572.847,1022.6554,575.1032,1013.0685,571.917,1017.7426,567.2428,1014.5564,572.847,1022.6554" style="stroke: #A80036; stroke-width: 1.0;"/><!--MD5=[336a78eb14894e486e0ed36e439320b7]
link SecretCombination to Console--><path codeLine="143" d="M619.118,586.368 C609.974,686.157 587.275,933.871 579.591,1017.7291 " fill="none" id="SecretCombination-to-Console" style="stroke: #A80036; stroke-width: 1.0; stroke-dasharray: 7.0,7.0;"/><polygon fill="#A80036" points="579.128,1022.7781,583.9327,1014.1807,579.5843,1017.799,575.9661,1013.4506,579.128,1022.7781" style="stroke: #A80036; stroke-width: 1.0;"/><!--MD5=[1499d68dab61e96ede2ae386f5ea1cf6]
link Mastermind to YesNoDialog--><path codeLine="144" d="M460.703,97.652 C580.109,107.974 792.45,134.53 962,200 C992.553,211.798 1023.88,231.651 1046.72,247.825 " fill="none" id="Mastermind-to-YesNoDialog" style="stroke: #A80036; stroke-width: 1.0; stroke-dasharray: 7.0,7.0;"/><polygon fill="#A80036" points="1050.88,250.799,1045.8729,242.3179,1046.8084,247.8969,1041.2295,248.8324,1050.88,250.799" style="stroke: #A80036; stroke-width: 1.0;"/><!--MD5=[3e01cd7d906dc82ab78272873480fc06]
@startuml
package usantatecla.mastermind {
class Mastermind {
	+ play()
	- playGame()
	- isResumedGame(): boolean 
	+ {static} main(String[])
}


class Board {
  - MAX_ATTEMPS: {static} int 
  - attempts: int 
  ~ Board()
  + writeln()
  + add(ProposedCombination)
  + isFinished(): boolean 
  + isWinner(): boolean 
  - isLooser(): boolean 
}

abstract class Combination {
	# colors: List<Color> 
	# Combination ()
}

class SecretCombination {
	~ SecretCombination()
	~ getResult(ProposedCombination): Result 
	~ writeln()
}

class ProposedCombination {
	~write()
	~read()
	- checkError(String): Error 
	~ contains(Color, int): boolean 
	~ contains(Color): boolean 
}

class Result{
	+ WIDTH: {static} int 
	- blacks: int 
	- whites: int 
	~ Result(int, int)
	~ isWinner(): boolean 
	~ writeln()
}

enum Color {
	+ RED
	+ BLUE
	+ YELLOW
	+ GREEN
	+ ORANGE
	+ PURPLE
	+ NULL_COLOR
	- initial: String 
	- RESET_COLOR: {static} String 
	- Color()
	- Color(char)
	~ {static} getInitials(): String 
	~ {static} getInstance(char): Color
	~ {static} length(): int 
	~ {static} get(int): Color 
	~ write()
	~ isNull(): boolean 
}

enum Error {
	+ DUPLICATED
	+ WRONG_CHARACTERS
	+ WRONG_LENGTH
	+ NULL_ERROR
	- message: String
	- Error()
	- Error(String)
	~ writeln()
	+ isNull(): boolean 
}

enum Message {
	+ ATTEMPTS
	+ SECRET_COMBINATION
	+ RESUME
	+ RESULT
	+ PROPOSED_COMBINATION
	+ TITLE
	+ WINNER
	+ LOOSER
	- message: String 
	- Message(String)
	~ write()
	~ writeln()
	~ writeln(int)
	~ writeln(int, int)
}



Mastermind *-down-> Board 
Mastermind .down.> ProposedCombination
Board *-down-> SecretCombination 
Board o-down-> "0..10" ProposedCombination 
Board o-down-> "0..10" Result 

Combination *-down-> "4" Color 
Combination <|-down- SecretCombination
Combination <|-down- ProposedCombination
ProposedCombination .down.> Error


Mastermind .down.> Message
Board .down.> Message
ProposedCombination .down.> Message
Result .down.> Message

}



class Console as "usantatecla.utils.views.Console" {


}

class YesNoDialog as "usantatecla.utils.views.YesNoDialog" {

}

enum ColorCode as "usantatecla.utils.views.ColorCode" {

}




Board .down.> Console
Color .down.> Console
Color .down.> ColorCode 
Error .down.> Console
Message .down.> Console
ProposedCombination .down.> Console
SecretCombination .down.> Console
Mastermind .down.> YesNoDialog
@enduml

PlantUML version 1.2020.20beta7(Unknown compile time)
(GPL source distribution)
Java Runtime: Java(TM) SE Runtime Environment
JVM: Java HotSpot(TM) 64-Bit Server VM
Default Encoding: UTF-8
Language: en
Country: US
--></g></svg>