<?xml version="1.0" encoding="UTF-8" standalone="no"?><svg xmlns="http://www.w3.org/2000/svg" xmlns:xlink="http://www.w3.org/1999/xlink" contentScriptType="application/ecmascript" contentStyleType="text/css" height="677px" preserveAspectRatio="none" style="width:562px;height:677px;" version="1.1" viewBox="0 0 562 677" width="562px" zoomAndPan="magnify"><defs><filter height="300%" id="f1ms2sqhk3ea6r" width="300%" x="-1" y="-1"><feGaussianBlur result="blurOut" stdDeviation="2.0"/><feColorMatrix in="blurOut" result="blurOut2" type="matrix" values="0 0 0 0 0 0 0 0 0 0 0 0 0 0 0 0 0 0 .4 0"/><feOffset dx="4.0" dy="4.0" in="blurOut2" result="blurOut3"/><feBlend in="SourceGraphic" in2="blurOut3" mode="normal"/></filter></defs><g><!--MD5=[073ce8cb2fd2a0b2556785fe35fbd544]
cluster usantatecla.mastermind.models--><polygon fill="#FFFFFF" filter="url(#f1ms2sqhk3ea6r)" points="16,6,286,6,293,28.2969,511,28.2969,511,552,16,552,16,6" style="stroke:#000000;stroke-width:1.5;"/><line style="stroke:#000000;stroke-width:1.5;" x1="16" x2="293" y1="28.2969" y2="28.2969"/><text fill="#000000" font-family="sans-serif" font-size="14" font-weight="bold" lengthAdjust="spacingAndGlyphs" textLength="264" x="20" y="20.9951">usantatecla.mastermind.models</text><!--MD5=[9e09d6096b99d1406435ac08840c9240]
class usantatecla.mastermind.models.Combination--><rect codeLine="3" fill="#FEFECE" filter="url(#f1ms2sqhk3ea6r)" height="86.4141" id="usantatecla.mastermind.models.Combination" style="stroke:#A80036;stroke-width:1.5;" width="108" x="387" y="86"/><ellipse cx="402" cy="102" fill="#A9DCDF" rx="11" ry="11" style="stroke:#A80036;stroke-width:1.0;"/><path d="M404.0781,103.8125 L404.4688,104.7969 L404.0781,104.7969 C403.625,104.7969 403.5156,104.8125 403.3594,104.9219 C403.1094,105.0781 402.9531,105.3594 402.9531,105.6563 C402.9531,105.9219 403.0938,106.1719 403.3125,106.3281 C403.4531,106.4531 403.6563,106.5 404.0781,106.5 L406.4375,106.5 C406.7969,106.5 407.0156,106.4688 407.1563,106.375 C407.4063,106.2344 407.5625,105.9375 407.5625,105.6563 C407.5625,105.375 407.4219,105.125 407.2031,104.9688 C407.0313,104.8281 406.875,104.7969 406.4063,104.7969 L403.0156,96.5938 L399.3438,96.5938 C398.8906,96.5938 398.7656,96.6094 398.6094,96.7031 C398.3594,96.875 398.2031,97.1563 398.2031,97.4375 C398.2031,97.7188 398.3438,97.9688 398.5625,98.1406 C398.7344,98.25 398.9063,98.2813 399.3438,98.2813 L400.4219,98.2813 L397.7813,104.7969 C397.3594,104.7969 397.2031,104.8125 397.0469,104.9219 C396.7969,105.0781 396.6406,105.3594 396.6406,105.6563 C396.6406,106.2188 397.0156,106.5 397.7656,106.5 L400.0313,106.5 C400.3906,106.5 400.6094,106.4688 400.7344,106.375 C401,106.2344 401.1406,105.9375 401.1406,105.6563 C401.1406,105.375 401.0156,105.125 400.7969,104.9531 C400.625,104.8281 400.4844,104.7969 400.0313,104.7969 L399.6406,104.7969 L400.0313,103.8125 L404.0781,103.8125 Z M403.375,102.1094 L400.7031,102.1094 L402.0469,98.8438 L403.375,102.1094 Z " fill="#000000"/><text fill="#000000" font-family="sans-serif" font-size="12" font-style="italic" lengthAdjust="spacingAndGlyphs" textLength="76" x="416" y="106.1543">Combination</text><line style="stroke:#A80036;stroke-width:1.5;" x1="388" x2="494" y1="118" y2="118"/><rect fill="none" height="6" style="stroke:#C82930;stroke-width:1.0;" width="6" x="395" y="126"/><text fill="#000000" font-family="sans-serif" font-size="11" lengthAdjust="spacingAndGlyphs" text-decoration="underline" textLength="59" x="407" y="132.2104">WIDTH: int</text><line style="stroke:#A80036;stroke-width:1.5;" x1="388" x2="494" y1="138.8047" y2="138.8047"/><polygon fill="#FFFF44" points="398,144.8047,402,148.8047,398,152.8047,394,148.8047" style="stroke:#B38D22;stroke-width:1.0;"/><text fill="#000000" font-family="sans-serif" font-size="11" lengthAdjust="spacingAndGlyphs" textLength="79" x="407" y="153.0151">Combination()</text><ellipse cx="398" cy="162.6094" fill="#84BE84" rx="3" ry="3" style="stroke:#038048;stroke-width:1.0;"/><text fill="#000000" font-family="sans-serif" font-size="11" lengthAdjust="spacingAndGlyphs" text-decoration="underline" textLength="80" x="407" y="165.8198">getWidth(): int</text><!--MD5=[133b2a20d5a8d4980692cee85e8c0684]
class usantatecla.mastermind.models.Game--><rect codeLine="10" fill="#FEFECE" filter="url(#f1ms2sqhk3ea6r)" height="176.0469" id="usantatecla.mastermind.models.Game" style="stroke:#A80036;stroke-width:1.5;" width="320" x="32" y="41"/><ellipse cx="170.25" cy="57" fill="#ADD1B2" rx="11" ry="11" style="stroke:#A80036;stroke-width:1.0;"/><path d="M172.5938,52.6719 C171.6563,52.2344 171.0625,52.0938 170.1875,52.0938 C167.5625,52.0938 165.5625,54.1719 165.5625,56.8906 L165.5625,58.0156 C165.5625,60.5938 167.6719,62.4844 170.5625,62.4844 C171.7813,62.4844 172.9375,62.1875 173.6875,61.6406 C174.2656,61.2344 174.5938,60.7813 174.5938,60.3906 C174.5938,59.9375 174.2031,59.5469 173.7344,59.5469 C173.5156,59.5469 173.3125,59.625 173.125,59.8125 C172.6719,60.2969 172.6719,60.2969 172.4844,60.3906 C172.0625,60.6563 171.375,60.7813 170.6094,60.7813 C168.5625,60.7813 167.2656,59.6875 167.2656,57.9844 L167.2656,56.8906 C167.2656,55.1094 168.5156,53.7969 170.25,53.7969 C170.8281,53.7969 171.4375,53.9531 171.9063,54.2031 C172.3906,54.4844 172.5625,54.7031 172.6563,55.1094 C172.7188,55.5156 172.75,55.6406 172.8906,55.7656 C173.0313,55.9063 173.2656,56.0156 173.4844,56.0156 C173.75,56.0156 174.0156,55.875 174.1875,55.6563 C174.2969,55.5 174.3281,55.3125 174.3281,54.8906 L174.3281,53.4688 C174.3281,53.0313 174.3125,52.9063 174.2188,52.75 C174.0625,52.4844 173.7813,52.3438 173.4844,52.3438 C173.1875,52.3438 172.9844,52.4375 172.7656,52.75 L172.5938,52.6719 Z " fill="#000000"/><text fill="#000000" font-family="sans-serif" font-size="12" lengthAdjust="spacingAndGlyphs" textLength="35" x="190.75" y="61.1543">Game</text><line style="stroke:#A80036;stroke-width:1.5;" x1="33" x2="351" y1="73" y2="73"/><rect fill="none" height="6" style="stroke:#C82930;stroke-width:1.0;" width="6" x="40" y="81"/><text fill="#000000" font-family="sans-serif" font-size="11" lengthAdjust="spacingAndGlyphs" text-decoration="underline" textLength="84" x="52" y="87.2104">MAX_LONG: int</text><rect fill="none" height="6" style="stroke:#C82930;stroke-width:1.0;" width="6" x="40" y="93.8047"/><text fill="#000000" font-family="sans-serif" font-size="11" lengthAdjust="spacingAndGlyphs" textLength="72" x="52" y="100.0151">attempts: int</text><line style="stroke:#A80036;stroke-width:1.5;" x1="33" x2="351" y1="106.6094" y2="106.6094"/><ellipse cx="43" cy="117.6094" fill="#84BE84" rx="3" ry="3" style="stroke:#038048;stroke-width:1.0;"/><text fill="#000000" font-family="sans-serif" font-size="11" lengthAdjust="spacingAndGlyphs" textLength="43" x="52" y="120.8198">Game()</text><ellipse cx="43" cy="130.4141" fill="#84BE84" rx="3" ry="3" style="stroke:#038048;stroke-width:1.0;"/><text fill="#000000" font-family="sans-serif" font-size="11" lengthAdjust="spacingAndGlyphs" textLength="38" x="52" y="133.6245">reset()</text><ellipse cx="43" cy="143.2188" fill="#84BE84" rx="3" ry="3" style="stroke:#038048;stroke-width:1.0;"/><text fill="#000000" font-family="sans-serif" font-size="11" lengthAdjust="spacingAndGlyphs" textLength="268" x="52" y="146.4292">addProposeCombination(ProposedCombination)</text><ellipse cx="43" cy="156.0234" fill="#84BE84" rx="3" ry="3" style="stroke:#038048;stroke-width:1.0;"/><text fill="#000000" font-family="sans-serif" font-size="11" lengthAdjust="spacingAndGlyphs" textLength="108" x="52" y="159.2339">isLooser(): boolean</text><ellipse cx="43" cy="168.8281" fill="#84BE84" rx="3" ry="3" style="stroke:#038048;stroke-width:1.0;"/><text fill="#000000" font-family="sans-serif" font-size="11" lengthAdjust="spacingAndGlyphs" textLength="110" x="52" y="172.0386">isWinner(): boolean</text><ellipse cx="43" cy="181.6328" fill="#84BE84" rx="3" ry="3" style="stroke:#038048;stroke-width:1.0;"/><text fill="#000000" font-family="sans-serif" font-size="11" lengthAdjust="spacingAndGlyphs" textLength="100" x="52" y="184.8433">getAttempts(): int</text><ellipse cx="43" cy="194.4375" fill="#84BE84" rx="3" ry="3" style="stroke:#038048;stroke-width:1.0;"/><text fill="#000000" font-family="sans-serif" font-size="11" lengthAdjust="spacingAndGlyphs" textLength="294" x="52" y="197.6479">getProposedCombination(int): ProposedCombination</text><ellipse cx="43" cy="207.2422" fill="#84BE84" rx="3" ry="3" style="stroke:#038048;stroke-width:1.0;"/><text fill="#000000" font-family="sans-serif" font-size="11" lengthAdjust="spacingAndGlyphs" textLength="118" x="52" y="210.4526">getResult(int): Result</text><!--MD5=[a212aeeb69ab78e602f8fa1f3e5ba19f]
class usantatecla.mastermind.models.SecretCombination--><rect codeLine="45" fill="#FEFECE" filter="url(#f1ms2sqhk3ea6r)" height="73.6094" id="usantatecla.mastermind.models.SecretCombination" style="stroke:#A80036;stroke-width:1.5;" width="253" x="204.5" y="277"/><ellipse cx="269.75" cy="293" fill="#ADD1B2" rx="11" ry="11" style="stroke:#A80036;stroke-width:1.0;"/><path d="M272.0938,288.6719 C271.1563,288.2344 270.5625,288.0938 269.6875,288.0938 C267.0625,288.0938 265.0625,290.1719 265.0625,292.8906 L265.0625,294.0156 C265.0625,296.5938 267.1719,298.4844 270.0625,298.4844 C271.2813,298.4844 272.4375,298.1875 273.1875,297.6406 C273.7656,297.2344 274.0938,296.7813 274.0938,296.3906 C274.0938,295.9375 273.7031,295.5469 273.2344,295.5469 C273.0156,295.5469 272.8125,295.625 272.625,295.8125 C272.1719,296.2969 272.1719,296.2969 271.9844,296.3906 C271.5625,296.6563 270.875,296.7813 270.1094,296.7813 C268.0625,296.7813 266.7656,295.6875 266.7656,293.9844 L266.7656,292.8906 C266.7656,291.1094 268.0156,289.7969 269.75,289.7969 C270.3281,289.7969 270.9375,289.9531 271.4063,290.2031 C271.8906,290.4844 272.0625,290.7031 272.1563,291.1094 C272.2188,291.5156 272.25,291.6406 272.3906,291.7656 C272.5313,291.9063 272.7656,292.0156 272.9844,292.0156 C273.25,292.0156 273.5156,291.875 273.6875,291.6563 C273.7969,291.5 273.8281,291.3125 273.8281,290.8906 L273.8281,289.4688 C273.8281,289.0313 273.8125,288.9063 273.7188,288.75 C273.5625,288.4844 273.2813,288.3438 272.9844,288.3438 C272.6875,288.3438 272.4844,288.4375 272.2656,288.75 L272.0938,288.6719 Z " fill="#000000"/><text fill="#000000" font-family="sans-serif" font-size="12" lengthAdjust="spacingAndGlyphs" textLength="114" x="290.25" y="297.1543">SecretCombination</text><line style="stroke:#A80036;stroke-width:1.5;" x1="205.5" x2="456.5" y1="309" y2="309"/><line style="stroke:#A80036;stroke-width:1.5;" x1="205.5" x2="456.5" y1="317" y2="317"/><polygon fill="#4177AF" points="215.5,324,211.5,330,219.5,330" style="stroke:#1963A0;stroke-width:1.0;"/><text fill="#000000" font-family="sans-serif" font-size="11" lengthAdjust="spacingAndGlyphs" textLength="117" x="224.5" y="331.2104">SecretCombination()</text><polygon fill="#4177AF" points="215.5,336.8047,211.5,342.8047,219.5,342.8047" style="stroke:#1963A0;stroke-width:1.0;"/><text fill="#000000" font-family="sans-serif" font-size="11" lengthAdjust="spacingAndGlyphs" textLength="227" x="224.5" y="344.0151">getResult(ProposedCombination): Result</text><!--MD5=[f33d10797af0f3b71126f0e937fc2775]
class usantatecla.mastermind.models.Result--><rect codeLine="34" fill="#FEFECE" filter="url(#f1ms2sqhk3ea6r)" height="124.8281" id="usantatecla.mastermind.models.Result" style="stroke:#A80036;stroke-width:1.5;" width="136" x="69" y="411"/><ellipse cx="114.75" cy="427" fill="#ADD1B2" rx="11" ry="11" style="stroke:#A80036;stroke-width:1.0;"/><path d="M117.0938,422.6719 C116.1563,422.2344 115.5625,422.0938 114.6875,422.0938 C112.0625,422.0938 110.0625,424.1719 110.0625,426.8906 L110.0625,428.0156 C110.0625,430.5938 112.1719,432.4844 115.0625,432.4844 C116.2813,432.4844 117.4375,432.1875 118.1875,431.6406 C118.7656,431.2344 119.0938,430.7813 119.0938,430.3906 C119.0938,429.9375 118.7031,429.5469 118.2344,429.5469 C118.0156,429.5469 117.8125,429.625 117.625,429.8125 C117.1719,430.2969 117.1719,430.2969 116.9844,430.3906 C116.5625,430.6563 115.875,430.7813 115.1094,430.7813 C113.0625,430.7813 111.7656,429.6875 111.7656,427.9844 L111.7656,426.8906 C111.7656,425.1094 113.0156,423.7969 114.75,423.7969 C115.3281,423.7969 115.9375,423.9531 116.4063,424.2031 C116.8906,424.4844 117.0625,424.7031 117.1563,425.1094 C117.2188,425.5156 117.25,425.6406 117.3906,425.7656 C117.5313,425.9063 117.7656,426.0156 117.9844,426.0156 C118.25,426.0156 118.5156,425.875 118.6875,425.6563 C118.7969,425.5 118.8281,425.3125 118.8281,424.8906 L118.8281,423.4688 C118.8281,423.0313 118.8125,422.9063 118.7188,422.75 C118.5625,422.4844 118.2813,422.3438 117.9844,422.3438 C117.6875,422.3438 117.4844,422.4375 117.2656,422.75 L117.0938,422.6719 Z " fill="#000000"/><text fill="#000000" font-family="sans-serif" font-size="12" lengthAdjust="spacingAndGlyphs" textLength="36" x="135.25" y="431.1543">Result</text><line style="stroke:#A80036;stroke-width:1.5;" x1="70" x2="204" y1="443" y2="443"/><rect fill="none" height="6" style="stroke:#C82930;stroke-width:1.0;" width="6" x="77" y="451"/><text fill="#000000" font-family="sans-serif" font-size="11" lengthAdjust="spacingAndGlyphs" textLength="56" x="89" y="457.2104">blacks: int</text><rect fill="none" height="6" style="stroke:#C82930;stroke-width:1.0;" width="6" x="77" y="463.8047"/><text fill="#000000" font-family="sans-serif" font-size="11" lengthAdjust="spacingAndGlyphs" textLength="58" x="89" y="470.0151">whites: int</text><line style="stroke:#A80036;stroke-width:1.5;" x1="70" x2="204" y1="476.6094" y2="476.6094"/><polygon fill="#4177AF" points="80,483.6094,76,489.6094,84,489.6094" style="stroke:#1963A0;stroke-width:1.0;"/><text fill="#000000" font-family="sans-serif" font-size="11" lengthAdjust="spacingAndGlyphs" textLength="78" x="89" y="490.8198">Result(int, int)</text><polygon fill="#4177AF" points="80,496.4141,76,502.4141,84,502.4141" style="stroke:#1963A0;stroke-width:1.0;"/><text fill="#000000" font-family="sans-serif" font-size="11" lengthAdjust="spacingAndGlyphs" textLength="110" x="89" y="503.6245">isWinner(): boolean</text><ellipse cx="80" cy="513.2188" fill="#84BE84" rx="3" ry="3" style="stroke:#038048;stroke-width:1.0;"/><text fill="#000000" font-family="sans-serif" font-size="11" lengthAdjust="spacingAndGlyphs" textLength="84" x="89" y="516.4292">getBlacks(): int</text><ellipse cx="80" cy="526.0234" fill="#84BE84" rx="3" ry="3" style="stroke:#038048;stroke-width:1.0;"/><text fill="#000000" font-family="sans-serif" font-size="11" lengthAdjust="spacingAndGlyphs" textLength="87" x="89" y="529.2339">getWhites(): int</text><!--MD5=[29c0d014c840bf5e3383a02197df5a5a]
class usantatecla.mastermind.models.ProposedCombination--><rect codeLine="26" fill="#FEFECE" filter="url(#f1ms2sqhk3ea6r)" height="86.4141" id="usantatecla.mastermind.models.ProposedCombination" style="stroke:#A80036;stroke-width:1.5;" width="184" x="240" y="430.5"/><ellipse cx="264" cy="446.5" fill="#ADD1B2" rx="11" ry="11" style="stroke:#A80036;stroke-width:1.0;"/><path d="M266.3438,442.1719 C265.4063,441.7344 264.8125,441.5938 263.9375,441.5938 C261.3125,441.5938 259.3125,443.6719 259.3125,446.3906 L259.3125,447.5156 C259.3125,450.0938 261.4219,451.9844 264.3125,451.9844 C265.5313,451.9844 266.6875,451.6875 267.4375,451.1406 C268.0156,450.7344 268.3438,450.2813 268.3438,449.8906 C268.3438,449.4375 267.9531,449.0469 267.4844,449.0469 C267.2656,449.0469 267.0625,449.125 266.875,449.3125 C266.4219,449.7969 266.4219,449.7969 266.2344,449.8906 C265.8125,450.1563 265.125,450.2813 264.3594,450.2813 C262.3125,450.2813 261.0156,449.1875 261.0156,447.4844 L261.0156,446.3906 C261.0156,444.6094 262.2656,443.2969 264,443.2969 C264.5781,443.2969 265.1875,443.4531 265.6563,443.7031 C266.1406,443.9844 266.3125,444.2031 266.4063,444.6094 C266.4688,445.0156 266.5,445.1406 266.6406,445.2656 C266.7813,445.4063 267.0156,445.5156 267.2344,445.5156 C267.5,445.5156 267.7656,445.375 267.9375,445.1563 C268.0469,445 268.0781,444.8125 268.0781,444.3906 L268.0781,442.9688 C268.0781,442.5313 268.0625,442.4063 267.9688,442.25 C267.8125,441.9844 267.5313,441.8438 267.2344,441.8438 C266.9375,441.8438 266.7344,441.9375 266.5156,442.25 L266.3438,442.1719 Z " fill="#000000"/><text fill="#000000" font-family="sans-serif" font-size="12" lengthAdjust="spacingAndGlyphs" textLength="132" x="280" y="450.6543">ProposedCombination</text><line style="stroke:#A80036;stroke-width:1.5;" x1="241" x2="423" y1="462.5" y2="462.5"/><line style="stroke:#A80036;stroke-width:1.5;" x1="241" x2="423" y1="470.5" y2="470.5"/><polygon fill="#4177AF" points="251,477.5,247,483.5,255,483.5" style="stroke:#1963A0;stroke-width:1.0;"/><text fill="#000000" font-family="sans-serif" font-size="11" lengthAdjust="spacingAndGlyphs" textLength="158" x="260" y="484.7104">contains(Color, int): boolean</text><polygon fill="#4177AF" points="251,490.3047,247,496.3047,255,496.3047" style="stroke:#1963A0;stroke-width:1.0;"/><text fill="#000000" font-family="sans-serif" font-size="11" lengthAdjust="spacingAndGlyphs" textLength="137" x="260" y="497.5151">contains(Color): boolean</text><ellipse cx="251" cy="507.1094" fill="#84BE84" rx="3" ry="3" style="stroke:#038048;stroke-width:1.0;"/><text fill="#000000" font-family="sans-serif" font-size="11" lengthAdjust="spacingAndGlyphs" textLength="135" x="260" y="510.3198">getColors(): List&lt;Color&gt;</text><!--MD5=[18eee71c88ab61f27581b8cbdd3ef5ee]
class Color--><rect codeLine="1" fill="#FEFECE" filter="url(#f1ms2sqhk3ea6r)" height="67.9063" id="Color" style="stroke:#A80036;stroke-width:1.5;" width="143" x="405.5" y="596"/><ellipse cx="420.5" cy="621.9531" fill="#EB937F" rx="11" ry="11" style="stroke:#A80036;stroke-width:1.0;"/><path d="M419.2969,622.8281 L420.75,622.8281 L420.75,622.9375 C420.75,623.3438 420.7813,623.5 420.8594,623.6563 C421.0156,623.9063 421.2969,624.0625 421.5938,624.0625 C421.8438,624.0625 422.1094,623.9219 422.2656,623.7031 C422.3906,623.5469 422.4219,623.3906 422.4219,622.9375 L422.4219,621.0156 C422.4219,620.8594 422.4219,620.8125 422.4063,620.6563 C422.3438,620.1875 422.0313,619.875 421.5781,619.875 C421.3281,619.875 421.0625,620.0156 420.8906,620.2344 C420.7813,620.4063 420.75,620.5625 420.75,621.0156 L420.75,621.1406 L419.2969,621.1406 L419.2969,618.7344 L423.2813,618.7344 L423.2813,619.5938 C423.2813,620 423.3125,620.1719 423.3906,620.3281 C423.5625,620.5781 423.8438,620.7344 424.125,620.7344 C424.3906,620.7344 424.6563,620.5938 424.8281,620.375 C424.9375,620.2031 424.9688,620.0625 424.9688,619.5938 L424.9688,617.0469 L417.3438,617.0469 C416.9063,617.0469 416.7813,617.0625 416.625,617.1563 C416.375,617.3125 416.2188,617.6094 416.2188,617.8906 C416.2188,618.1719 416.3594,618.4219 416.5781,618.5938 C416.7344,618.7031 416.9219,618.7344 417.3438,618.7344 L417.5938,618.7344 L417.5938,625.25 L417.3438,625.25 C416.9375,625.25 416.7813,625.2656 416.625,625.375 C416.375,625.5469 416.2188,625.8125 416.2188,626.1094 C416.2188,626.375 416.3594,626.625 416.5781,626.7813 C416.7188,626.9063 416.9531,626.9531 417.3438,626.9531 L425.3438,626.9531 L425.3438,624.375 C425.3438,623.9375 425.3125,623.7969 425.2344,623.6406 C425.0625,623.3906 424.7813,623.2344 424.5,623.2344 C424.2344,623.2344 423.9688,623.3438 423.7969,623.5938 C423.6875,623.75 423.6563,623.8906 423.6563,624.375 L423.6563,625.25 L419.2969,625.25 L419.2969,622.8281 Z " fill="#000000"/><text fill="#000000" font-family="sans-serif" font-size="12" lengthAdjust="spacingAndGlyphs" textLength="71" x="454.5" y="612.1387">usantatecla.</text><text fill="#000000" font-family="sans-serif" font-size="12" lengthAdjust="spacingAndGlyphs" textLength="111" x="434.5" y="626.1074">mastermind.types.</text><text fill="#000000" font-family="sans-serif" font-size="12" lengthAdjust="spacingAndGlyphs" textLength="32" x="474" y="640.0762">Color</text><line style="stroke:#A80036;stroke-width:1.5;" x1="406.5" x2="547.5" y1="647.9063" y2="647.9063"/><line style="stroke:#A80036;stroke-width:1.5;" x1="406.5" x2="547.5" y1="655.9063" y2="655.9063"/><!--MD5=[7a35cd41e558152cf7fe37e82b6d55e9]
link usantatecla.mastermind.models.Combination to Color--><path codeLine="8" d="M463.8428,183.3134 C463.8428,183.3134 485.797,245.546 491,277 C508.928,385.385 494.805,514.97 484.782,582.6441 " fill="none" id="usantatecla.mastermind.models.Combination-Color" style="stroke:#A80036;stroke-width:1.0;"/><polygon fill="#A80036" points="482.781,595.7222,488.0965,587.4309,483.5374,590.7797,480.1885,586.2207,482.781,595.7222" style="stroke:#A80036;stroke-width:1.0;"/><line style="stroke:#A80036;stroke-width:1.0;" x1="483.5374" x2="484.7475" y1="590.7797" y2="582.8718"/><polygon fill="#A80036" points="459.461,172.142,457.9281,179.1883,463.8428,183.3134,465.3757,176.2671,459.461,172.142" style="stroke:#A80036;stroke-width:1.0;"/><text fill="#000000" font-family="sans-serif" font-size="13" lengthAdjust="spacingAndGlyphs" textLength="7" x="476.2158" y="584.8468">*</text><!--MD5=[12c828a60891e76557ccb918ce156a05]
link usantatecla.mastermind.models.Game to usantatecla.mastermind.models.SecretCombination--><path codeLine="22" d="M265.5009,226.7683 C265.5009,226.7683 286.516,254.435 295.473,266.227 " fill="none" id="usantatecla.mastermind.models.Game-usantatecla.mastermind.models.SecretCombination" style="stroke:#A80036;stroke-width:1.0;"/><polygon fill="#A80036" points="303.393,276.654,301.135,267.0675,300.3689,272.6722,294.7641,271.9061,303.393,276.654" style="stroke:#A80036;stroke-width:1.0;"/><line style="stroke:#A80036;stroke-width:1.0;" x1="300.3689" x2="295.5295" y1="272.6722" y2="266.301"/><polygon fill="#A80036" points="258.243,217.212,258.6865,224.4095,265.5009,226.7683,265.0574,219.5709,258.243,217.212" style="stroke:#A80036;stroke-width:1.0;"/><!--MD5=[280ea308128396330f7bbc2193cef62d]
link usantatecla.mastermind.models.Game to usantatecla.mastermind.models.Result--><path codeLine="23" d="M138.0539,228.1231 C138.0539,228.1231 125.588,261.118 122,277 C113.147,316.183 115.643,360.784 120.907,397.482 " fill="none" id="usantatecla.mastermind.models.Game-usantatecla.mastermind.models.Result" style="stroke:#A80036;stroke-width:1.0;"/><polygon fill="#A80036" points="122.955,410.62,125.5206,401.1112,122.1846,405.6797,117.6161,402.3438,122.955,410.62" style="stroke:#A80036;stroke-width:1.0;"/><line style="stroke:#A80036;stroke-width:1.0;" x1="122.1846" x2="120.9525" y1="405.6797" y2="397.775"/><polygon fill="#A80036" points="142.801,217.102,136.7538,221.0302,138.0539,228.1231,144.1012,224.1949,142.801,217.102" style="stroke:#A80036;stroke-width:1.0;"/><text fill="#000000" font-family="sans-serif" font-size="13" lengthAdjust="spacingAndGlyphs" textLength="7" x="114.036" y="400.0057">*</text><!--MD5=[e6a772672154e2b4215389ae3fc2764d]
link usantatecla.mastermind.models.Game to usantatecla.mastermind.models.ProposedCombination--><path codeLine="24" d="M171.3126,229.0463 C171.3126,229.0463 169.72,313.975 187,351 C200.248,379.385 223.75,403.484 248.028,422.55 " fill="none" id="usantatecla.mastermind.models.Game-usantatecla.mastermind.models.ProposedCombination" style="stroke:#A80036;stroke-width:1.0;"/><polygon fill="#A80036" points="258.453,430.412,253.6761,421.7992,254.4611,427.4013,248.8589,428.1863,258.453,430.412" style="stroke:#A80036;stroke-width:1.0;"/><line style="stroke:#A80036;stroke-width:1.0;" x1="254.4611" x2="248.073" y1="427.4013" y2="422.584"/><polygon fill="#A80036" points="172.576,217.113,167.9666,222.6585,171.3126,229.0463,175.9221,223.5008,172.576,217.113" style="stroke:#A80036;stroke-width:1.0;"/><text fill="#000000" font-family="sans-serif" font-size="13" lengthAdjust="spacingAndGlyphs" textLength="7" x="239.1736" y="419.394">*</text><!--MD5=[c8e3115d06e825a18a556418b72e64a9]
reverse link usantatecla.mastermind.models.Combination to usantatecla.mastermind.models.ProposedCombination--><path codeLine="31" d="M468.437,191.124 C484.85,237.02 498.406,300.4 475,351 C460.024,383.376 431.696,410.285 404.179,430.48 " fill="none" id="usantatecla.mastermind.models.Combination-backto-usantatecla.mastermind.models.ProposedCombination" style="stroke:#A80036;stroke-width:1.0;"/><polygon fill="none" points="461.845,193.484,461.2,172.304,474.912,188.459,461.845,193.484" style="stroke:#A80036;stroke-width:1.0;"/><!--MD5=[f29c4a14d129a58d848eec9cd947b4db]
link usantatecla.mastermind.models.ProposedCombination to Color--><path codeLine="32" d="M371.622,516.718 C393.737,540.282 421.03,569.3633 442.299,592.0251 " fill="none" id="usantatecla.mastermind.models.ProposedCombination-to-Color" style="stroke:#A80036;stroke-width:1.0;stroke-dasharray:7.0,7.0;"/><polygon fill="#A80036" points="445.927,595.8914,442.6863,586.591,442.506,592.245,436.852,592.0647,445.927,595.8914" style="stroke:#A80036;stroke-width:1.0;"/><!--MD5=[6f6994a70a46872d34bd35a5dd21f76b]
link usantatecla.mastermind.models.Result to usantatecla.mastermind.models.Combination--><path codeLine="43" d="M137.831,410.989 C141.62,368.344 153.399,312.969 187,277 C245.141,214.761 298.655,265.018 369,217 C384.837,206.189 399.083,190.94 410.641,176.222 " fill="none" id="usantatecla.mastermind.models.Result-to-usantatecla.mastermind.models.Combination" style="stroke:#A80036;stroke-width:1.0;stroke-dasharray:7.0,7.0;"/><polygon fill="#A80036" points="413.829,172.089,405.1661,176.7746,410.7762,176.0489,411.5019,181.659,413.829,172.089" style="stroke:#A80036;stroke-width:1.0;"/><!--MD5=[c1581850849ed6ede223799cd35a067f]
reverse link usantatecla.mastermind.models.Combination to usantatecla.mastermind.models.SecretCombination--><path codeLine="49" d="M405.15,189.642 C387.828,218.458 367.612,252.092 352.667,276.954 " fill="none" id="usantatecla.mastermind.models.Combination-backto-usantatecla.mastermind.models.SecretCombination" style="stroke:#A80036;stroke-width:1.0;"/><polygon fill="none" points="399.184,185.979,415.487,172.444,411.183,193.192,399.184,185.979" style="stroke:#A80036;stroke-width:1.0;"/><!--MD5=[37df5b907d636f1fcade6857244b0a7e]
link usantatecla.mastermind.models.SecretCombination to usantatecla.mastermind.models.Result--><path codeLine="50" d="M286.492,351.134 C263.663,369.668 235.281,392.71 209.401,413.721 " fill="none" id="usantatecla.mastermind.models.SecretCombination-to-usantatecla.mastermind.models.Result" style="stroke:#A80036;stroke-width:1.0;stroke-dasharray:7.0,7.0;"/><polygon fill="#A80036" points="205.27,417.074,214.7787,414.5081,209.1522,413.9231,209.7373,408.2966,205.27,417.074" style="stroke:#A80036;stroke-width:1.0;"/><!--MD5=[be5e6334e25a1733719410e897fbe715]
link usantatecla.mastermind.models.SecretCombination to usantatecla.mastermind.models.ProposedCombination--><path codeLine="51" d="M331.229,351.134 C331.369,373.179 331.55,401.599 331.701,425.396 " fill="none" id="usantatecla.mastermind.models.SecretCombination-to-usantatecla.mastermind.models.ProposedCombination" style="stroke:#A80036;stroke-width:1.0;stroke-dasharray:7.0,7.0;"/><polygon fill="#A80036" points="331.733,430.4,335.6764,421.375,331.7016,425.4001,327.6765,421.4253,331.733,430.4" style="stroke:#A80036;stroke-width:1.0;"/><!--MD5=[e41eb31a07e3391b118b54a8a827bca8]
link usantatecla.mastermind.models.SecretCombination to Color--><path codeLine="52" d="M386.568,351.081 C406.812,367.038 427.92,387.531 441,411 C472.648,467.784 478.171,544.921 478.289,590.5798 " fill="none" id="usantatecla.mastermind.models.SecretCombination-to-Color" style="stroke:#A80036;stroke-width:1.0;stroke-dasharray:7.0,7.0;"/><polygon fill="#A80036" points="478.28,595.7156,482.2965,586.7229,478.2891,590.7156,474.2965,586.7083,478.28,595.7156" style="stroke:#A80036;stroke-width:1.0;"/><!--MD5=[774bb956d1aada0c12386cd3a2f1e10f]
@startuml
enum Color as "usantatecla.\nmastermind.types.\nColor"

abstract class usantatecla.mastermind.models.Combination {
    - {static} WIDTH: int
    # Combination()
    + {static} getWidth(): int
}
usantatecla.mastermind.models.Combination *-down-> "*" Color

class usantatecla.mastermind.models.Game {
    - {static} MAX_LONG: int
    - attempts: int
    + Game()
    + reset()
    + addProposeCombination(ProposedCombination)
    + isLooser(): boolean
    + isWinner(): boolean
    + getAttempts(): int
    + getProposedCombination(int): ProposedCombination
    + getResult(int): Result
}
usantatecla.mastermind.models.Game *-down-> usantatecla.mastermind.models.SecretCombination
usantatecla.mastermind.models.Game *-down-> "*" usantatecla.mastermind.models.Result
usantatecla.mastermind.models.Game *-down-> "*" usantatecla.mastermind.models.ProposedCombination

class usantatecla.mastermind.models.ProposedCombination {
    ~ contains(Color, int): boolean
    ~ contains(Color): boolean
    + getColors(): List<Color>
}
usantatecla.mastermind.models.ProposedCombination -up-|> usantatecla.mastermind.models.Combination
usantatecla.mastermind.models.ProposedCombination ..> Color

class usantatecla.mastermind.models.Result {
    - blacks: int
    - whites: int
    ~ Result(int, int)
    ~ isWinner(): boolean
    + getBlacks(): int
    + getWhites(): int
}

usantatecla.mastermind.models.Result ..> usantatecla.mastermind.models.Combination

class usantatecla.mastermind.models.SecretCombination {
    ~ SecretCombination()
    ~ getResult(ProposedCombination): Result
}
usantatecla.mastermind.models.SecretCombination -up-|> usantatecla.mastermind.models.Combination
usantatecla.mastermind.models.SecretCombination ..> usantatecla.mastermind.models.Result
usantatecla.mastermind.models.SecretCombination ..> usantatecla.mastermind.models.ProposedCombination
usantatecla.mastermind.models.SecretCombination ..> Color
@enduml

PlantUML version 1.2020.22beta2(Unknown compile time)
(GPL source distribution)
Java Runtime: Java(TM) SE Runtime Environment
JVM: Java HotSpot(TM) 64-Bit Server VM
Default Encoding: UTF-8
Language: en
Country: US
--></g></svg>