<?xml version="1.0" encoding="UTF-8" standalone="no"?><svg xmlns="http://www.w3.org/2000/svg" xmlns:xlink="http://www.w3.org/1999/xlink" contentScriptType="application/ecmascript" contentStyleType="text/css" height="529px" preserveAspectRatio="none" style="width:1305px;height:529px;" version="1.1" viewBox="0 0 1305 529" width="1305px" zoomAndPan="magnify"><defs><filter height="300%" id="f1rrnq4yv3sjo5" width="300%" x="-1" y="-1"><feGaussianBlur result="blurOut" stdDeviation="2.0"/><feColorMatrix in="blurOut" result="blurOut2" type="matrix" values="0 0 0 0 0 0 0 0 0 0 0 0 0 0 0 0 0 0 .4 0"/><feOffset dx="4.0" dy="4.0" in="blurOut2" result="blurOut3"/><feBlend in="SourceGraphic" in2="blurOut3" mode="normal"/></filter></defs><g><!--MD5=[29d5d00c8f272934fcfbf235a28c504f]
cluster usantatecla.mastermind.views--><polygon fill="#FFFFFF" filter="url(#f1rrnq4yv3sjo5)" points="16,6,273,6,280,28.2969,790,28.2969,790,418,16,418,16,6" style="stroke:#000000;stroke-width:1.5;"/><line style="stroke:#000000;stroke-width:1.5;" x1="16" x2="280" y1="28.2969" y2="28.2969"/><text fill="#000000" font-family="sans-serif" font-size="14" font-weight="bold" lengthAdjust="spacingAndGlyphs" textLength="251" x="20" y="20.9951">usantatecla.mastermind.views</text><!--MD5=[ba33fe1da85dc20f705667e89649af02]
class usantatecla.mastermind.views.WithGameView--><rect codeLine="5" fill="#FEFECE" filter="url(#f1rrnq4yv3sjo5)" height="60.8047" id="usantatecla.mastermind.views.WithGameView" style="stroke:#A80036;stroke-width:1.5;" width="157" x="240.5" y="105"/><ellipse cx="270.8" cy="121" fill="#A9DCDF" rx="11" ry="11" style="stroke:#A80036;stroke-width:1.0;"/><path d="M272.8781,122.8125 L273.2688,123.7969 L272.8781,123.7969 C272.425,123.7969 272.3156,123.8125 272.1594,123.9219 C271.9094,124.0781 271.7531,124.3594 271.7531,124.6563 C271.7531,124.9219 271.8938,125.1719 272.1125,125.3281 C272.2531,125.4531 272.4563,125.5 272.8781,125.5 L275.2375,125.5 C275.5969,125.5 275.8156,125.4688 275.9563,125.375 C276.2063,125.2344 276.3625,124.9375 276.3625,124.6563 C276.3625,124.375 276.2219,124.125 276.0031,123.9688 C275.8313,123.8281 275.675,123.7969 275.2063,123.7969 L271.8156,115.5938 L268.1438,115.5938 C267.6906,115.5938 267.5656,115.6094 267.4094,115.7031 C267.1594,115.875 267.0031,116.1563 267.0031,116.4375 C267.0031,116.7188 267.1438,116.9688 267.3625,117.1406 C267.5344,117.25 267.7063,117.2813 268.1438,117.2813 L269.2219,117.2813 L266.5813,123.7969 C266.1594,123.7969 266.0031,123.8125 265.8469,123.9219 C265.5969,124.0781 265.4406,124.3594 265.4406,124.6563 C265.4406,125.2188 265.8156,125.5 266.5656,125.5 L268.8313,125.5 C269.1906,125.5 269.4094,125.4688 269.5344,125.375 C269.8,125.2344 269.9406,124.9375 269.9406,124.6563 C269.9406,124.375 269.8156,124.125 269.5969,123.9531 C269.425,123.8281 269.2844,123.7969 268.8313,123.7969 L268.4406,123.7969 L268.8313,122.8125 L272.8781,122.8125 Z M272.175,121.1094 L269.5031,121.1094 L270.8469,117.8438 L272.175,121.1094 Z " fill="#000000"/><text fill="#000000" font-family="sans-serif" font-size="12" font-style="italic" lengthAdjust="spacingAndGlyphs" textLength="91" x="288.2" y="125.1543">WithGameView</text><line style="stroke:#A80036;stroke-width:1.5;" x1="241.5" x2="396.5" y1="137" y2="137"/><line style="stroke:#A80036;stroke-width:1.5;" x1="241.5" x2="396.5" y1="145" y2="145"/><ellipse cx="251.5" cy="156" fill="#84BE84" rx="3" ry="3" style="stroke:#038048;stroke-width:1.0;"/><text fill="#000000" font-family="sans-serif" font-size="11" lengthAdjust="spacingAndGlyphs" textLength="131" x="260.5" y="159.2104">WithGameView(Game)</text><!--MD5=[dab5b8162ddba5d4d249ad537ad64188]
class usantatecla.mastermind.views.ColorView--><rect codeLine="10" fill="#FEFECE" filter="url(#f1rrnq4yv3sjo5)" height="124.8281" id="usantatecla.mastermind.views.ColorView" style="stroke:#A80036;stroke-width:1.5;" width="161" x="432.5" y="73"/><ellipse cx="479.75" cy="89" fill="#A9DCDF" rx="11" ry="11" style="stroke:#A80036;stroke-width:1.0;"/><path d="M481.8281,90.8125 L482.2188,91.7969 L481.8281,91.7969 C481.375,91.7969 481.2656,91.8125 481.1094,91.9219 C480.8594,92.0781 480.7031,92.3594 480.7031,92.6563 C480.7031,92.9219 480.8438,93.1719 481.0625,93.3281 C481.2031,93.4531 481.4063,93.5 481.8281,93.5 L484.1875,93.5 C484.5469,93.5 484.7656,93.4688 484.9063,93.375 C485.1563,93.2344 485.3125,92.9375 485.3125,92.6563 C485.3125,92.375 485.1719,92.125 484.9531,91.9688 C484.7813,91.8281 484.625,91.7969 484.1563,91.7969 L480.7656,83.5938 L477.0938,83.5938 C476.6406,83.5938 476.5156,83.6094 476.3594,83.7031 C476.1094,83.875 475.9531,84.1563 475.9531,84.4375 C475.9531,84.7188 476.0938,84.9688 476.3125,85.1406 C476.4844,85.25 476.6563,85.2813 477.0938,85.2813 L478.1719,85.2813 L475.5313,91.7969 C475.1094,91.7969 474.9531,91.8125 474.7969,91.9219 C474.5469,92.0781 474.3906,92.3594 474.3906,92.6563 C474.3906,93.2188 474.7656,93.5 475.5156,93.5 L477.7813,93.5 C478.1406,93.5 478.3594,93.4688 478.4844,93.375 C478.75,93.2344 478.8906,92.9375 478.8906,92.6563 C478.8906,92.375 478.7656,92.125 478.5469,91.9531 C478.375,91.8281 478.2344,91.7969 477.7813,91.7969 L477.3906,91.7969 L477.7813,90.8125 L481.8281,90.8125 Z M481.125,89.1094 L478.4531,89.1094 L479.7969,85.8438 L481.125,89.1094 Z " fill="#000000"/><text fill="#000000" font-family="sans-serif" font-size="12" font-style="italic" lengthAdjust="spacingAndGlyphs" textLength="58" x="500.25" y="93.1543">ColorView</text><line style="stroke:#A80036;stroke-width:1.5;" x1="433.5" x2="592.5" y1="105" y2="105"/><ellipse cx="443.5" cy="116" fill="none" rx="3" ry="3" style="stroke:#038048;stroke-width:1.0;"/><text fill="#000000" font-family="sans-serif" font-size="11" lengthAdjust="spacingAndGlyphs" text-decoration="underline" textLength="89" x="452.5" y="119.2104">INITIALS: char []</text><line style="stroke:#A80036;stroke-width:1.5;" x1="433.5" x2="592.5" y1="125.8047" y2="125.8047"/><polygon fill="#FFFF44" points="443.5,131.8047,447.5,135.8047,443.5,139.8047,439.5,135.8047" style="stroke:#B38D22;stroke-width:1.0;"/><text fill="#000000" font-family="sans-serif" font-size="11" lengthAdjust="spacingAndGlyphs" textLength="65" x="452.5" y="140.0151">ColorView()</text><polygon fill="#FFFF44" points="443.5,144.6094,447.5,148.6094,443.5,152.6094,439.5,148.6094" style="stroke:#B38D22;stroke-width:1.0;"/><text fill="#000000" font-family="sans-serif" font-size="11" lengthAdjust="spacingAndGlyphs" textLength="94" x="452.5" y="152.8198">ColorView(Color)</text><ellipse cx="443.5" cy="162.4141" fill="#84BE84" rx="3" ry="3" style="stroke:#038048;stroke-width:1.0;"/><text fill="#000000" font-family="sans-serif" font-size="11" lengthAdjust="spacingAndGlyphs" textLength="97" x="452.5" y="165.6245">allInitials(): String</text><polygon fill="#FFFF44" points="443.5,170.2188,447.5,174.2188,443.5,178.2188,439.5,174.2188" style="stroke:#B38D22;stroke-width:1.0;"/><text fill="#000000" font-family="sans-serif" font-size="11" font-style="italic" lengthAdjust="spacingAndGlyphs" textLength="131" x="452.5" y="178.4292">resultInitials(int): String</text><ellipse cx="443.5" cy="188.0234" fill="#84BE84" rx="3" ry="3" style="stroke:#038048;stroke-width:1.0;"/><text fill="#000000" font-family="sans-serif" font-size="11" lengthAdjust="spacingAndGlyphs" text-decoration="underline" textLength="135" x="452.5" y="191.2339">getInstance(char): Color</text><!--MD5=[bd953d99961dd365a3924fc1e98cf727]
class usantatecla.mastermind.views.ErrorView--><rect codeLine="20" fill="#FEFECE" filter="url(#f1rrnq4yv3sjo5)" height="99.2188" id="usantatecla.mastermind.views.ErrorView" style="stroke:#A80036;stroke-width:1.5;" width="145" x="628.5" y="86"/><ellipse cx="668.25" cy="102" fill="#A9DCDF" rx="11" ry="11" style="stroke:#A80036;stroke-width:1.0;"/><path d="M670.3281,103.8125 L670.7188,104.7969 L670.3281,104.7969 C669.875,104.7969 669.7656,104.8125 669.6094,104.9219 C669.3594,105.0781 669.2031,105.3594 669.2031,105.6563 C669.2031,105.9219 669.3438,106.1719 669.5625,106.3281 C669.7031,106.4531 669.9063,106.5 670.3281,106.5 L672.6875,106.5 C673.0469,106.5 673.2656,106.4688 673.4063,106.375 C673.6563,106.2344 673.8125,105.9375 673.8125,105.6563 C673.8125,105.375 673.6719,105.125 673.4531,104.9688 C673.2813,104.8281 673.125,104.7969 672.6563,104.7969 L669.2656,96.5938 L665.5938,96.5938 C665.1406,96.5938 665.0156,96.6094 664.8594,96.7031 C664.6094,96.875 664.4531,97.1563 664.4531,97.4375 C664.4531,97.7188 664.5938,97.9688 664.8125,98.1406 C664.9844,98.25 665.1563,98.2813 665.5938,98.2813 L666.6719,98.2813 L664.0313,104.7969 C663.6094,104.7969 663.4531,104.8125 663.2969,104.9219 C663.0469,105.0781 662.8906,105.3594 662.8906,105.6563 C662.8906,106.2188 663.2656,106.5 664.0156,106.5 L666.2813,106.5 C666.6406,106.5 666.8594,106.4688 666.9844,106.375 C667.25,106.2344 667.3906,105.9375 667.3906,105.6563 C667.3906,105.375 667.2656,105.125 667.0469,104.9531 C666.875,104.8281 666.7344,104.7969 666.2813,104.7969 L665.8906,104.7969 L666.2813,103.8125 L670.3281,103.8125 Z M669.625,102.1094 L666.9531,102.1094 L668.2969,98.8438 L669.625,102.1094 Z " fill="#000000"/><text fill="#000000" font-family="sans-serif" font-size="12" font-style="italic" lengthAdjust="spacingAndGlyphs" textLength="58" x="687.75" y="106.1543">ErrorView</text><line style="stroke:#A80036;stroke-width:1.5;" x1="629.5" x2="772.5" y1="118" y2="118"/><ellipse cx="639.5" cy="129" fill="none" rx="3" ry="3" style="stroke:#038048;stroke-width:1.0;"/><text fill="#000000" font-family="sans-serif" font-size="11" lengthAdjust="spacingAndGlyphs" textLength="116" x="648.5" y="132.2104">MESSAGES: String []</text><line style="stroke:#A80036;stroke-width:1.5;" x1="629.5" x2="772.5" y1="138.8047" y2="138.8047"/><polygon fill="#FFFF44" points="639.5,144.8047,643.5,148.8047,639.5,152.8047,635.5,148.8047" style="stroke:#B38D22;stroke-width:1.0;"/><text fill="#000000" font-family="sans-serif" font-size="11" lengthAdjust="spacingAndGlyphs" textLength="62" x="648.5" y="153.0151">ErrorView()</text><ellipse cx="639.5" cy="162.6094" fill="#84BE84" rx="3" ry="3" style="stroke:#038048;stroke-width:1.0;"/><text fill="#000000" font-family="sans-serif" font-size="11" lengthAdjust="spacingAndGlyphs" textLength="119" x="648.5" y="165.8198">ErrorView(Error error)</text><polygon fill="#FFFF44" points="639.5,170.4141,643.5,174.4141,639.5,178.4141,635.5,174.4141" style="stroke:#B38D22;stroke-width:1.0;"/><text fill="#000000" font-family="sans-serif" font-size="11" font-style="italic" lengthAdjust="spacingAndGlyphs" textLength="113" x="648.5" y="178.6245">colorInitials(): String</text><!--MD5=[694a802c67fd6ffa81f3d338cafa51c2]
class usantatecla.mastermind.views.Message--><rect codeLine="28" fill="#FEFECE" filter="url(#f1rrnq4yv3sjo5)" height="188.8516" id="usantatecla.mastermind.views.Message" style="stroke:#A80036;stroke-width:1.5;" width="173" x="32.5" y="41"/><ellipse cx="87.25" cy="57" fill="#EB937F" rx="11" ry="11" style="stroke:#A80036;stroke-width:1.0;"/><path d="M86.0469,57.875 L87.5,57.875 L87.5,57.9844 C87.5,58.3906 87.5313,58.5469 87.6094,58.7031 C87.7656,58.9531 88.0469,59.1094 88.3438,59.1094 C88.5938,59.1094 88.8594,58.9688 89.0156,58.75 C89.1406,58.5938 89.1719,58.4375 89.1719,57.9844 L89.1719,56.0625 C89.1719,55.9063 89.1719,55.8594 89.1563,55.7031 C89.0938,55.2344 88.7813,54.9219 88.3281,54.9219 C88.0781,54.9219 87.8125,55.0625 87.6406,55.2813 C87.5313,55.4531 87.5,55.6094 87.5,56.0625 L87.5,56.1875 L86.0469,56.1875 L86.0469,53.7813 L90.0313,53.7813 L90.0313,54.6406 C90.0313,55.0469 90.0625,55.2188 90.1406,55.375 C90.3125,55.625 90.5938,55.7813 90.875,55.7813 C91.1406,55.7813 91.4063,55.6406 91.5781,55.4219 C91.6875,55.25 91.7188,55.1094 91.7188,54.6406 L91.7188,52.0938 L84.0938,52.0938 C83.6563,52.0938 83.5313,52.1094 83.375,52.2031 C83.125,52.3594 82.9688,52.6563 82.9688,52.9375 C82.9688,53.2188 83.1094,53.4688 83.3281,53.6406 C83.4844,53.75 83.6719,53.7813 84.0938,53.7813 L84.3438,53.7813 L84.3438,60.2969 L84.0938,60.2969 C83.6875,60.2969 83.5313,60.3125 83.375,60.4219 C83.125,60.5938 82.9688,60.8594 82.9688,61.1563 C82.9688,61.4219 83.1094,61.6719 83.3281,61.8281 C83.4688,61.9531 83.7031,62 84.0938,62 L92.0938,62 L92.0938,59.4219 C92.0938,58.9844 92.0625,58.8438 91.9844,58.6875 C91.8125,58.4375 91.5313,58.2813 91.25,58.2813 C90.9844,58.2813 90.7188,58.3906 90.5469,58.6406 C90.4375,58.7969 90.4063,58.9375 90.4063,59.4219 L90.4063,60.2969 L86.0469,60.2969 L86.0469,57.875 Z " fill="#000000"/><text fill="#000000" font-family="sans-serif" font-size="12" lengthAdjust="spacingAndGlyphs" textLength="55" x="107.75" y="61.1543">Message</text><line style="stroke:#A80036;stroke-width:1.5;" x1="33.5" x2="204.5" y1="73" y2="73"/><ellipse cx="43.5" cy="84" fill="none" rx="3" ry="3" style="stroke:#038048;stroke-width:1.0;"/><text fill="#000000" font-family="sans-serif" font-size="11" lengthAdjust="spacingAndGlyphs" textLength="59" x="52.5" y="87.2104">ATTEMPTS</text><ellipse cx="43.5" cy="96.8047" fill="none" rx="3" ry="3" style="stroke:#038048;stroke-width:1.0;"/><text fill="#000000" font-family="sans-serif" font-size="11" lengthAdjust="spacingAndGlyphs" textLength="44" x="52.5" y="100.0151">SECRET</text><ellipse cx="43.5" cy="109.6094" fill="none" rx="3" ry="3" style="stroke:#038048;stroke-width:1.0;"/><text fill="#000000" font-family="sans-serif" font-size="11" lengthAdjust="spacingAndGlyphs" textLength="46" x="52.5" y="112.8198">RESUME</text><ellipse cx="43.5" cy="122.4141" fill="none" rx="3" ry="3" style="stroke:#038048;stroke-width:1.0;"/><text fill="#000000" font-family="sans-serif" font-size="11" lengthAdjust="spacingAndGlyphs" textLength="43" x="52.5" y="125.6245">RESULT</text><ellipse cx="43.5" cy="135.2188" fill="none" rx="3" ry="3" style="stroke:#038048;stroke-width:1.0;"/><text fill="#000000" font-family="sans-serif" font-size="11" lengthAdjust="spacingAndGlyphs" textLength="147" x="52.5" y="138.4292">PROPOSED_COMBINATION</text><ellipse cx="43.5" cy="148.0234" fill="none" rx="3" ry="3" style="stroke:#038048;stroke-width:1.0;"/><text fill="#000000" font-family="sans-serif" font-size="11" lengthAdjust="spacingAndGlyphs" textLength="30" x="52.5" y="151.2339">TITLE</text><ellipse cx="43.5" cy="160.8281" fill="none" rx="3" ry="3" style="stroke:#038048;stroke-width:1.0;"/><text fill="#000000" font-family="sans-serif" font-size="11" lengthAdjust="spacingAndGlyphs" textLength="44" x="52.5" y="164.0386">WINNER</text><ellipse cx="43.5" cy="173.6328" fill="none" rx="3" ry="3" style="stroke:#038048;stroke-width:1.0;"/><text fill="#000000" font-family="sans-serif" font-size="11" lengthAdjust="spacingAndGlyphs" textLength="46" x="52.5" y="176.8433">LOOSER</text><rect fill="none" height="6" style="stroke:#C82930;stroke-width:1.0;" width="6" x="40.5" y="183.4375"/><text fill="#000000" font-family="sans-serif" font-size="11" lengthAdjust="spacingAndGlyphs" textLength="93" x="52.5" y="189.6479">message: String</text><line style="stroke:#A80036;stroke-width:1.5;" x1="33.5" x2="204.5" y1="196.2422" y2="196.2422"/><rect fill="#F24D5C" height="6" style="stroke:#C82930;stroke-width:1.0;" width="6" x="40.5" y="204.2422"/><text fill="#000000" font-family="sans-serif" font-size="11" lengthAdjust="spacingAndGlyphs" textLength="92" x="52.5" y="210.4526">Message(String)</text><ellipse cx="43.5" cy="220.0469" fill="#84BE84" rx="3" ry="3" style="stroke:#038048;stroke-width:1.0;"/><text fill="#000000" font-family="sans-serif" font-size="11" lengthAdjust="spacingAndGlyphs" textLength="118" x="52.5" y="223.2573">getMessage(): String</text><!--MD5=[f5534db0476bcf0d5af6a596dc954aba]
class usantatecla.mastermind.views.View--><rect codeLine="42" fill="#FEFECE" filter="url(#f1rrnq4yv3sjo5)" height="112.0234" id="usantatecla.mastermind.views.View" style="stroke:#A80036;stroke-width:1.5;" width="154" x="177" y="290"/><ellipse cx="235.75" cy="306" fill="#A9DCDF" rx="11" ry="11" style="stroke:#A80036;stroke-width:1.0;"/><path d="M237.8281,307.8125 L238.2188,308.7969 L237.8281,308.7969 C237.375,308.7969 237.2656,308.8125 237.1094,308.9219 C236.8594,309.0781 236.7031,309.3594 236.7031,309.6563 C236.7031,309.9219 236.8438,310.1719 237.0625,310.3281 C237.2031,310.4531 237.4063,310.5 237.8281,310.5 L240.1875,310.5 C240.5469,310.5 240.7656,310.4688 240.9063,310.375 C241.1563,310.2344 241.3125,309.9375 241.3125,309.6563 C241.3125,309.375 241.1719,309.125 240.9531,308.9688 C240.7813,308.8281 240.625,308.7969 240.1563,308.7969 L236.7656,300.5938 L233.0938,300.5938 C232.6406,300.5938 232.5156,300.6094 232.3594,300.7031 C232.1094,300.875 231.9531,301.1563 231.9531,301.4375 C231.9531,301.7188 232.0938,301.9688 232.3125,302.1406 C232.4844,302.25 232.6563,302.2813 233.0938,302.2813 L234.1719,302.2813 L231.5313,308.7969 C231.1094,308.7969 230.9531,308.8125 230.7969,308.9219 C230.5469,309.0781 230.3906,309.3594 230.3906,309.6563 C230.3906,310.2188 230.7656,310.5 231.5156,310.5 L233.7813,310.5 C234.1406,310.5 234.3594,310.4688 234.4844,310.375 C234.75,310.2344 234.8906,309.9375 234.8906,309.6563 C234.8906,309.375 234.7656,309.125 234.5469,308.9531 C234.375,308.8281 234.2344,308.7969 233.7813,308.7969 L233.3906,308.7969 L233.7813,307.8125 L237.8281,307.8125 Z M237.125,306.1094 L234.4531,306.1094 L235.7969,302.8438 L237.125,306.1094 Z " fill="#000000"/><text fill="#000000" font-family="sans-serif" font-size="12" font-style="italic" lengthAdjust="spacingAndGlyphs" textLength="28" x="256.25" y="310.1543">View</text><line style="stroke:#A80036;stroke-width:1.5;" x1="178" x2="330" y1="322" y2="322"/><line style="stroke:#A80036;stroke-width:1.5;" x1="178" x2="330" y1="330" y2="330"/><ellipse cx="188" cy="341" fill="#84BE84" rx="3" ry="3" style="stroke:#038048;stroke-width:1.0;"/><text fill="#000000" font-family="sans-serif" font-size="11" lengthAdjust="spacingAndGlyphs" textLength="71" x="197" y="344.2104">View(Game)</text><ellipse cx="188" cy="353.8047" fill="#84BE84" rx="3" ry="3" style="stroke:#038048;stroke-width:1.0;"/><text fill="#000000" font-family="sans-serif" font-size="11" lengthAdjust="spacingAndGlyphs" textLength="51" x="197" y="357.0151">interact()</text><polygon fill="#FFFF44" points="188,361.6094,192,365.6094,188,369.6094,184,365.6094" style="stroke:#B38D22;stroke-width:1.0;"/><text fill="#000000" font-family="sans-serif" font-size="11" font-style="italic" lengthAdjust="spacingAndGlyphs" textLength="34" x="197" y="369.8198">start()</text><polygon fill="#FFFF44" points="188,374.4141,192,378.4141,188,382.4141,184,378.4141" style="stroke:#B38D22;stroke-width:1.0;"/><text fill="#000000" font-family="sans-serif" font-size="11" font-style="italic" lengthAdjust="spacingAndGlyphs" textLength="107" x="197" y="382.6245">propose(): boolean</text><polygon fill="#FFFF44" points="188,387.2188,192,391.2188,188,395.2188,184,391.2188" style="stroke:#B38D22;stroke-width:1.0;"/><text fill="#000000" font-family="sans-serif" font-size="11" font-style="italic" lengthAdjust="spacingAndGlyphs" textLength="128" x="197" y="395.4292">isNewGame(): boolean</text><!--MD5=[b8cfd8c4119a3b0a7a46bfc5fc780f85]
class Error--><rect codeLine="1" fill="#FEFECE" filter="url(#f1rrnq4yv3sjo5)" height="53.9375" id="Error" style="stroke:#A80036;stroke-width:1.5;" width="225" x="1066.5" y="319"/><ellipse cx="1081.5" cy="337.9688" fill="#ADD1B2" rx="11" ry="11" style="stroke:#A80036;stroke-width:1.0;"/><path d="M1083.8438,333.6406 C1082.9063,333.2031 1082.3125,333.0625 1081.4375,333.0625 C1078.8125,333.0625 1076.8125,335.1406 1076.8125,337.8594 L1076.8125,338.9844 C1076.8125,341.5625 1078.9219,343.4531 1081.8125,343.4531 C1083.0313,343.4531 1084.1875,343.1563 1084.9375,342.6094 C1085.5156,342.2031 1085.8438,341.75 1085.8438,341.3594 C1085.8438,340.9063 1085.4531,340.5156 1084.9844,340.5156 C1084.7656,340.5156 1084.5625,340.5938 1084.375,340.7813 C1083.9219,341.2656 1083.9219,341.2656 1083.7344,341.3594 C1083.3125,341.625 1082.625,341.75 1081.8594,341.75 C1079.8125,341.75 1078.5156,340.6563 1078.5156,338.9531 L1078.5156,337.8594 C1078.5156,336.0781 1079.7656,334.7656 1081.5,334.7656 C1082.0781,334.7656 1082.6875,334.9219 1083.1563,335.1719 C1083.6406,335.4531 1083.8125,335.6719 1083.9063,336.0781 C1083.9688,336.4844 1084,336.6094 1084.1406,336.7344 C1084.2813,336.875 1084.5156,336.9844 1084.7344,336.9844 C1085,336.9844 1085.2656,336.8438 1085.4375,336.625 C1085.5469,336.4688 1085.5781,336.2813 1085.5781,335.8594 L1085.5781,334.4375 C1085.5781,334 1085.5625,333.875 1085.4688,333.7188 C1085.3125,333.4531 1085.0313,333.3125 1084.7344,333.3125 C1084.4375,333.3125 1084.2344,333.4063 1084.0156,333.7188 L1083.8438,333.6406 Z " fill="#000000"/><text fill="#000000" font-family="sans-serif" font-size="12" lengthAdjust="spacingAndGlyphs" textLength="193" x="1095.5" y="335.1387">usantatecla.mastermind.models.</text><text fill="#000000" font-family="sans-serif" font-size="12" lengthAdjust="spacingAndGlyphs" textLength="30" x="1177" y="349.1074">Error</text><line style="stroke:#A80036;stroke-width:1.5;" x1="1067.5" x2="1290.5" y1="356.9375" y2="356.9375"/><line style="stroke:#A80036;stroke-width:1.5;" x1="1067.5" x2="1290.5" y1="364.9375" y2="364.9375"/><!--MD5=[18eee71c88ab61f27581b8cbdd3ef5ee]
class Color--><rect codeLine="2" fill="#FEFECE" filter="url(#f1rrnq4yv3sjo5)" height="53.9375" id="Color" style="stroke:#A80036;stroke-width:1.5;" width="225" x="806.5" y="319"/><ellipse cx="821.5" cy="337.9688" fill="#ADD1B2" rx="11" ry="11" style="stroke:#A80036;stroke-width:1.0;"/><path d="M823.8438,333.6406 C822.9063,333.2031 822.3125,333.0625 821.4375,333.0625 C818.8125,333.0625 816.8125,335.1406 816.8125,337.8594 L816.8125,338.9844 C816.8125,341.5625 818.9219,343.4531 821.8125,343.4531 C823.0313,343.4531 824.1875,343.1563 824.9375,342.6094 C825.5156,342.2031 825.8438,341.75 825.8438,341.3594 C825.8438,340.9063 825.4531,340.5156 824.9844,340.5156 C824.7656,340.5156 824.5625,340.5938 824.375,340.7813 C823.9219,341.2656 823.9219,341.2656 823.7344,341.3594 C823.3125,341.625 822.625,341.75 821.8594,341.75 C819.8125,341.75 818.5156,340.6563 818.5156,338.9531 L818.5156,337.8594 C818.5156,336.0781 819.7656,334.7656 821.5,334.7656 C822.0781,334.7656 822.6875,334.9219 823.1563,335.1719 C823.6406,335.4531 823.8125,335.6719 823.9063,336.0781 C823.9688,336.4844 824,336.6094 824.1406,336.7344 C824.2813,336.875 824.5156,336.9844 824.7344,336.9844 C825,336.9844 825.2656,336.8438 825.4375,336.625 C825.5469,336.4688 825.5781,336.2813 825.5781,335.8594 L825.5781,334.4375 C825.5781,334 825.5625,333.875 825.4688,333.7188 C825.3125,333.4531 825.0313,333.3125 824.7344,333.3125 C824.4375,333.3125 824.2344,333.4063 824.0156,333.7188 L823.8438,333.6406 Z " fill="#000000"/><text fill="#000000" font-family="sans-serif" font-size="12" lengthAdjust="spacingAndGlyphs" textLength="193" x="835.5" y="335.1387">usantatecla.mastermind.models.</text><text fill="#000000" font-family="sans-serif" font-size="12" lengthAdjust="spacingAndGlyphs" textLength="32" x="916" y="349.1074">Color</text><line style="stroke:#A80036;stroke-width:1.5;" x1="807.5" x2="1030.5" y1="356.9375" y2="356.9375"/><line style="stroke:#A80036;stroke-width:1.5;" x1="807.5" x2="1030.5" y1="364.9375" y2="364.9375"/><!--MD5=[b6dcce5e5ef3c84b0b048d11301373dd]
class Game--><rect codeLine="3" fill="#FEFECE" filter="url(#f1rrnq4yv3sjo5)" height="53.9375" id="Game" style="stroke:#A80036;stroke-width:1.5;" width="225" x="206.5" y="462"/><ellipse cx="221.5" cy="480.9688" fill="#ADD1B2" rx="11" ry="11" style="stroke:#A80036;stroke-width:1.0;"/><path d="M223.8438,476.6406 C222.9063,476.2031 222.3125,476.0625 221.4375,476.0625 C218.8125,476.0625 216.8125,478.1406 216.8125,480.8594 L216.8125,481.9844 C216.8125,484.5625 218.9219,486.4531 221.8125,486.4531 C223.0313,486.4531 224.1875,486.1563 224.9375,485.6094 C225.5156,485.2031 225.8438,484.75 225.8438,484.3594 C225.8438,483.9063 225.4531,483.5156 224.9844,483.5156 C224.7656,483.5156 224.5625,483.5938 224.375,483.7813 C223.9219,484.2656 223.9219,484.2656 223.7344,484.3594 C223.3125,484.625 222.625,484.75 221.8594,484.75 C219.8125,484.75 218.5156,483.6563 218.5156,481.9531 L218.5156,480.8594 C218.5156,479.0781 219.7656,477.7656 221.5,477.7656 C222.0781,477.7656 222.6875,477.9219 223.1563,478.1719 C223.6406,478.4531 223.8125,478.6719 223.9063,479.0781 C223.9688,479.4844 224,479.6094 224.1406,479.7344 C224.2813,479.875 224.5156,479.9844 224.7344,479.9844 C225,479.9844 225.2656,479.8438 225.4375,479.625 C225.5469,479.4688 225.5781,479.2813 225.5781,478.8594 L225.5781,477.4375 C225.5781,477 225.5625,476.875 225.4688,476.7188 C225.3125,476.4531 225.0313,476.3125 224.7344,476.3125 C224.4375,476.3125 224.2344,476.4063 224.0156,476.7188 L223.8438,476.6406 Z " fill="#000000"/><text fill="#000000" font-family="sans-serif" font-size="12" lengthAdjust="spacingAndGlyphs" textLength="193" x="235.5" y="478.1387">usantatecla.mastermind.models.</text><text fill="#000000" font-family="sans-serif" font-size="12" lengthAdjust="spacingAndGlyphs" textLength="35" x="314.5" y="492.1074">Game</text><line style="stroke:#A80036;stroke-width:1.5;" x1="207.5" x2="430.5" y1="499.9375" y2="499.9375"/><line style="stroke:#A80036;stroke-width:1.5;" x1="207.5" x2="430.5" y1="507.9375" y2="507.9375"/><!--MD5=[0bf127410d3ebb87d99d69831c7b9d2a]
link usantatecla.mastermind.views.WithGameView to Game--><path codeLine="8" d="M331.2093,177.6201 C331.2093,177.6201 367.231,339.496 348,426 C346.227,433.9732 343.316,442.1344 340.005,449.8078 " fill="none" id="usantatecla.mastermind.views.WithGameView-Game" style="stroke:#A80036;stroke-width:1.0;"/><polygon fill="#A80036" points="334.386,461.751,341.8371,455.3104,336.5147,457.2268,334.5984,451.9044,334.386,461.751" style="stroke:#A80036;stroke-width:1.0;"/><line style="stroke:#A80036;stroke-width:1.0;" x1="336.5147" x2="339.921" y1="457.2268" y2="449.9879"/><polygon fill="#A80036" points="328.059,166.041,325.7744,172.8806,331.2093,177.6201,333.4938,170.7805,328.059,166.041" style="stroke:#A80036;stroke-width:1.0;"/><!--MD5=[037b2a79b64666ba83d382cd2f7d163f]
link usantatecla.mastermind.views.ColorView to Color--><path codeLine="18" d="M578.3845,206.0986 C578.3845,206.0986 600.05,223.397 611,230 C682.852,273.331 711.568,260.189 790,290 C809.135,297.273 829.617,305.702 848.496,313.742 " fill="none" id="usantatecla.mastermind.views.ColorView-Color" style="stroke:#A80036;stroke-width:1.0;"/><polygon fill="#A80036" points="860.641,318.954,853.9479,311.7289,856.0462,316.9821,850.793,319.0805,860.641,318.954" style="stroke:#A80036;stroke-width:1.0;"/><line style="stroke:#A80036;stroke-width:1.0;" x1="856.0462" x2="848.6945" y1="316.9821" y2="313.8275"/><polygon fill="#A80036" points="569.369,198.179,571.2369,205.144,578.3845,206.0986,576.5166,199.1336,569.369,198.179" style="stroke:#A80036;stroke-width:1.0;"/><!--MD5=[41b24afec43bb3213296ed92b425fcbe]
link usantatecla.mastermind.views.ErrorView to Error--><path codeLine="26" d="M784.5973,172.9644 C784.5973,172.9644 1021.25,276.191 1107.34,313.741 " fill="none" id="usantatecla.mastermind.views.ErrorView-Error" style="stroke:#A80036;stroke-width:1.0;"/><polygon fill="#A80036" points="1119.34,318.979,1112.6911,311.7131,1114.7574,316.9791,1109.4914,319.0454,1119.34,318.979" style="stroke:#A80036;stroke-width:1.0;"/><line style="stroke:#A80036;stroke-width:1.0;" x1="1114.7574" x2="1107.43" y1="316.9791" y2="313.7815"/><polygon fill="#A80036" points="773.598,168.167,777.4985,174.2322,784.5973,172.9644,780.6968,166.8993,773.598,168.167" style="stroke:#A80036;stroke-width:1.0;"/><!--MD5=[f858913465ba10eacb562247fe79b91a]
reverse link usantatecla.mastermind.views.WithGameView to usantatecla.mastermind.views.View--><path codeLine="49" d="M303.62,185.836 C293.891,217.042 281.298,257.437 271.233,289.722 " fill="none" id="usantatecla.mastermind.views.WithGameView-backto-usantatecla.mastermind.views.View" style="stroke:#A80036;stroke-width:1.0;"/><polygon fill="none" points="297.052,183.383,309.687,166.373,310.417,187.55,297.052,183.383" style="stroke:#A80036;stroke-width:1.0;"/><!--MD5=[aa08d413cb14e320a155507437df65be]
link usantatecla.mastermind.views.View to Game--><path codeLine="50" d="M279.503,402.322 C288.077,420.9208 297.333,440.9987 304.728,457.0401 " fill="none" id="usantatecla.mastermind.views.View-to-Game" style="stroke:#A80036;stroke-width:1.0;stroke-dasharray:7.0,7.0;"/><polygon fill="#A80036" points="306.96,461.8828,306.8241,452.0349,304.8664,457.3422,299.5591,455.3846,306.96,461.8828" style="stroke:#A80036;stroke-width:1.0;"/><!--MD5=[55e08abec25d965cbc57db346ad1568d]
@startuml
class Error as "usantatecla.mastermind.models.\nError"{}
class Color as "usantatecla.mastermind.models.\nColor"{}
class Game as "usantatecla.mastermind.models.\nGame"{}

abstract class usantatecla.mastermind.views.WithGameView {
    + WithGameView(Game)
}
usantatecla.mastermind.views.WithGameView *-down-> Game

abstract class usantatecla.mastermind.views.ColorView{
    + {static} INITIALS: char []
    # ColorView()
    # ColorView(Color)
    + allInitials(): String
    # {abstract} resultInitials(int): String
    + {static} getInstance(char): Color
}
usantatecla.mastermind.views.ColorView *-down-> Color

abstract class usantatecla.mastermind.views.ErrorView{
    + MESSAGES: String []
    # ErrorView()
    + ErrorView(Error error)
    # {abstract} colorInitials(): String
}
usantatecla.mastermind.views.ErrorView *-down-> Error

enum usantatecla.mastermind.views.Message{
    + ATTEMPTS
    + SECRET
    + RESUME
    + RESULT
    + PROPOSED_COMBINATION
    + TITLE
    + WINNER
    + LOOSER
    - message: String
    - Message(String)
    + getMessage(): String
}

abstract class usantatecla.mastermind.views.View {
    + View(Game)
    + interact()
    # {abstract} start()
    # {abstract} propose(): boolean
    # {abstract} isNewGame(): boolean
}
usantatecla.mastermind.views.View -up-|> usantatecla.mastermind.views.WithGameView
usantatecla.mastermind.views.View .down.> Game
@enduml

PlantUML version 1.2020.22beta3(Unknown compile time)
(GPL source distribution)
Java Runtime: Java(TM) SE Runtime Environment
JVM: Java HotSpot(TM) 64-Bit Server VM
Default Encoding: UTF-8
Language: en
Country: US
--></g></svg>