<?xml version="1.0" encoding="UTF-8" standalone="no"?><svg xmlns="http://www.w3.org/2000/svg" xmlns:xlink="http://www.w3.org/1999/xlink" contentScriptType="application/ecmascript" contentStyleType="text/css" height="402px" preserveAspectRatio="none" style="width:883px;height:402px;" version="1.1" viewBox="0 0 883 402" width="883px" zoomAndPan="magnify"><defs><filter height="300%" id="fempc9zwhnt8a" width="300%" x="-1" y="-1"><feGaussianBlur result="blurOut" stdDeviation="2.0"/><feColorMatrix in="blurOut" result="blurOut2" type="matrix" values="0 0 0 0 0 0 0 0 0 0 0 0 0 0 0 0 0 0 .4 0"/><feOffset dx="4.0" dy="4.0" in="blurOut2" result="blurOut3"/><feBlend in="SourceGraphic" in2="blurOut3" mode="normal"/></filter></defs><g><!--MD5=[9be0839337cfdab5d118a2e29cf0a8c4]
cluster usantatecla.mastermind--><polygon fill="#FFFFFF" filter="url(#fempc9zwhnt8a)" points="16,6,223,6,230,28.2969,517,28.2969,517,277,16,277,16,6" style="stroke:#000000;stroke-width:1.5;"/><line style="stroke:#000000;stroke-width:1.5;" x1="16" x2="230" y1="28.2969" y2="28.2969"/><text fill="#000000" font-family="sans-serif" font-size="14" font-weight="bold" lengthAdjust="spacingAndGlyphs" textLength="201" x="20" y="20.9951">usantatecla.mastermind</text><!--MD5=[904099970a9cea29a476bd38c8d887ee]
class usantatecla.mastermind.Mastermind--><rect codeLine="6" fill="#FEFECE" filter="url(#fempc9zwhnt8a)" height="86.4141" id="usantatecla.mastermind.Mastermind" style="stroke:#A80036;stroke-width:1.5;" width="166" x="322" y="41"/><ellipse cx="365.35" cy="57" fill="#A9DCDF" rx="11" ry="11" style="stroke:#A80036;stroke-width:1.0;"/><path d="M367.4281,58.8125 L367.8188,59.7969 L367.4281,59.7969 C366.975,59.7969 366.8656,59.8125 366.7094,59.9219 C366.4594,60.0781 366.3031,60.3594 366.3031,60.6563 C366.3031,60.9219 366.4438,61.1719 366.6625,61.3281 C366.8031,61.4531 367.0063,61.5 367.4281,61.5 L369.7875,61.5 C370.1469,61.5 370.3656,61.4688 370.5063,61.375 C370.7563,61.2344 370.9125,60.9375 370.9125,60.6563 C370.9125,60.375 370.7719,60.125 370.5531,59.9688 C370.3813,59.8281 370.225,59.7969 369.7563,59.7969 L366.3656,51.5938 L362.6938,51.5938 C362.2406,51.5938 362.1156,51.6094 361.9594,51.7031 C361.7094,51.875 361.5531,52.1563 361.5531,52.4375 C361.5531,52.7188 361.6938,52.9688 361.9125,53.1406 C362.0844,53.25 362.2563,53.2813 362.6938,53.2813 L363.7719,53.2813 L361.1313,59.7969 C360.7094,59.7969 360.5531,59.8125 360.3969,59.9219 C360.1469,60.0781 359.9906,60.3594 359.9906,60.6563 C359.9906,61.2188 360.3656,61.5 361.1156,61.5 L363.3813,61.5 C363.7406,61.5 363.9594,61.4688 364.0844,61.375 C364.35,61.2344 364.4906,60.9375 364.4906,60.6563 C364.4906,60.375 364.3656,60.125 364.1469,59.9531 C363.975,59.8281 363.8344,59.7969 363.3813,59.7969 L362.9906,59.7969 L363.3813,58.8125 L367.4281,58.8125 Z M366.725,57.1094 L364.0531,57.1094 L365.3969,53.8438 L366.725,57.1094 Z " fill="#000000"/><text fill="#000000" font-family="sans-serif" font-size="12" font-style="italic" lengthAdjust="spacingAndGlyphs" textLength="71" x="385.65" y="61.1543">Mastermind</text><line style="stroke:#A80036;stroke-width:1.5;" x1="323" x2="487" y1="73" y2="73"/><line style="stroke:#A80036;stroke-width:1.5;" x1="323" x2="487" y1="81" y2="81"/><polygon fill="#FFFF44" points="333,87,337,91,333,95,329,91" style="stroke:#B38D22;stroke-width:1.0;"/><text fill="#000000" font-family="sans-serif" font-size="11" lengthAdjust="spacingAndGlyphs" textLength="74" x="342" y="95.2104">Mastermind()</text><polygon fill="#FFFF44" points="333,99.8047,337,103.8047,333,107.8047,329,103.8047" style="stroke:#B38D22;stroke-width:1.0;"/><text fill="#000000" font-family="sans-serif" font-size="11" font-style="italic" lengthAdjust="spacingAndGlyphs" textLength="140" x="342" y="108.0151">createView(Game): View</text><polygon fill="#FFFF44" points="333,112.6094,337,116.6094,333,120.6094,329,116.6094" style="stroke:#B38D22;stroke-width:1.0;"/><text fill="#000000" font-family="sans-serif" font-size="11" lengthAdjust="spacingAndGlyphs" textLength="32" x="342" y="120.8198">play()</text><!--MD5=[315b8ca9da34f9ebf61c511bec4164b0]
class usantatecla.mastermind.ConsoleMastermind--><rect codeLine="14" fill="#FEFECE" filter="url(#fempc9zwhnt8a)" height="73.6094" id="usantatecla.mastermind.ConsoleMastermind" style="stroke:#A80036;stroke-width:1.5;" width="215" x="32.5" y="187"/><ellipse cx="76.3" cy="203" fill="#ADD1B2" rx="11" ry="11" style="stroke:#A80036;stroke-width:1.0;"/><path d="M78.6438,198.6719 C77.7063,198.2344 77.1125,198.0938 76.2375,198.0938 C73.6125,198.0938 71.6125,200.1719 71.6125,202.8906 L71.6125,204.0156 C71.6125,206.5938 73.7219,208.4844 76.6125,208.4844 C77.8313,208.4844 78.9875,208.1875 79.7375,207.6406 C80.3156,207.2344 80.6438,206.7813 80.6438,206.3906 C80.6438,205.9375 80.2531,205.5469 79.7844,205.5469 C79.5656,205.5469 79.3625,205.625 79.175,205.8125 C78.7219,206.2969 78.7219,206.2969 78.5344,206.3906 C78.1125,206.6563 77.425,206.7813 76.6594,206.7813 C74.6125,206.7813 73.3156,205.6875 73.3156,203.9844 L73.3156,202.8906 C73.3156,201.1094 74.5656,199.7969 76.3,199.7969 C76.8781,199.7969 77.4875,199.9531 77.9563,200.2031 C78.4406,200.4844 78.6125,200.7031 78.7063,201.1094 C78.7688,201.5156 78.8,201.6406 78.9406,201.7656 C79.0813,201.9063 79.3156,202.0156 79.5344,202.0156 C79.8,202.0156 80.0656,201.875 80.2375,201.6563 C80.3469,201.5 80.3781,201.3125 80.3781,200.8906 L80.3781,199.4688 C80.3781,199.0313 80.3625,198.9063 80.2688,198.75 C80.1125,198.4844 79.8313,198.3438 79.5344,198.3438 C79.2375,198.3438 79.0344,198.4375 78.8156,198.75 L78.6438,198.6719 Z " fill="#000000"/><text fill="#000000" font-family="sans-serif" font-size="12" lengthAdjust="spacingAndGlyphs" textLength="119" x="96.7" y="207.1543">ConsoleMastermind</text><line style="stroke:#A80036;stroke-width:1.5;" x1="33.5" x2="246.5" y1="219" y2="219"/><line style="stroke:#A80036;stroke-width:1.5;" x1="33.5" x2="246.5" y1="227" y2="227"/><polygon fill="#FFFF44" points="43.5,233,47.5,237,43.5,241,39.5,237" style="stroke:#B38D22;stroke-width:1.0;"/><text fill="#000000" font-family="sans-serif" font-size="11" lengthAdjust="spacingAndGlyphs" textLength="189" x="52.5" y="241.2104">createView(Game): ConsoleView</text><ellipse cx="43.5" cy="250.8047" fill="#84BE84" rx="3" ry="3" style="stroke:#038048;stroke-width:1.0;"/><text fill="#000000" font-family="sans-serif" font-size="11" lengthAdjust="spacingAndGlyphs" text-decoration="underline" textLength="77" x="52.5" y="254.0151">main(String[])</text><!--MD5=[e3ccb0142e457ddb33bd230b9167ec6f]
class usantatecla.mastermind.GraphicsMastermind--><rect codeLine="21" fill="#FEFECE" filter="url(#fempc9zwhnt8a)" height="73.6094" id="usantatecla.mastermind.GraphicsMastermind" style="stroke:#A80036;stroke-width:1.5;" width="218" x="283" y="187"/><ellipse cx="326.35" cy="203" fill="#ADD1B2" rx="11" ry="11" style="stroke:#A80036;stroke-width:1.0;"/><path d="M328.6938,198.6719 C327.7563,198.2344 327.1625,198.0938 326.2875,198.0938 C323.6625,198.0938 321.6625,200.1719 321.6625,202.8906 L321.6625,204.0156 C321.6625,206.5938 323.7719,208.4844 326.6625,208.4844 C327.8813,208.4844 329.0375,208.1875 329.7875,207.6406 C330.3656,207.2344 330.6938,206.7813 330.6938,206.3906 C330.6938,205.9375 330.3031,205.5469 329.8344,205.5469 C329.6156,205.5469 329.4125,205.625 329.225,205.8125 C328.7719,206.2969 328.7719,206.2969 328.5844,206.3906 C328.1625,206.6563 327.475,206.7813 326.7094,206.7813 C324.6625,206.7813 323.3656,205.6875 323.3656,203.9844 L323.3656,202.8906 C323.3656,201.1094 324.6156,199.7969 326.35,199.7969 C326.9281,199.7969 327.5375,199.9531 328.0063,200.2031 C328.4906,200.4844 328.6625,200.7031 328.7563,201.1094 C328.8188,201.5156 328.85,201.6406 328.9906,201.7656 C329.1313,201.9063 329.3656,202.0156 329.5844,202.0156 C329.85,202.0156 330.1156,201.875 330.2875,201.6563 C330.3969,201.5 330.4281,201.3125 330.4281,200.8906 L330.4281,199.4688 C330.4281,199.0313 330.4125,198.9063 330.3188,198.75 C330.1625,198.4844 329.8813,198.3438 329.5844,198.3438 C329.2875,198.3438 329.0844,198.4375 328.8656,198.75 L328.6938,198.6719 Z " fill="#000000"/><text fill="#000000" font-family="sans-serif" font-size="12" lengthAdjust="spacingAndGlyphs" textLength="123" x="346.65" y="207.1543">GraphicsMastermind</text><line style="stroke:#A80036;stroke-width:1.5;" x1="284" x2="500" y1="219" y2="219"/><line style="stroke:#A80036;stroke-width:1.5;" x1="284" x2="500" y1="227" y2="227"/><polygon fill="#FFFF44" points="294,233,298,237,294,241,290,237" style="stroke:#B38D22;stroke-width:1.0;"/><text fill="#000000" font-family="sans-serif" font-size="11" lengthAdjust="spacingAndGlyphs" textLength="192" x="303" y="241.2104">createView(Game): GraphicsView</text><ellipse cx="294" cy="250.8047" fill="#84BE84" rx="3" ry="3" style="stroke:#038048;stroke-width:1.0;"/><text fill="#000000" font-family="sans-serif" font-size="11" lengthAdjust="spacingAndGlyphs" text-decoration="underline" textLength="77" x="303" y="254.0151">main(String[])</text><!--MD5=[c045e12321b83266d36d22b9096c24ea]
class View--><rect codeLine="1" fill="#FEFECE" filter="url(#fempc9zwhnt8a)" height="67.9063" id="View" style="stroke:#A80036;stroke-width:1.5;" width="144" x="536" y="190"/><ellipse cx="551" cy="215.9531" fill="#ADD1B2" rx="11" ry="11" style="stroke:#A80036;stroke-width:1.0;"/><path d="M553.3438,211.625 C552.4063,211.1875 551.8125,211.0469 550.9375,211.0469 C548.3125,211.0469 546.3125,213.125 546.3125,215.8438 L546.3125,216.9688 C546.3125,219.5469 548.4219,221.4375 551.3125,221.4375 C552.5313,221.4375 553.6875,221.1406 554.4375,220.5938 C555.0156,220.1875 555.3438,219.7344 555.3438,219.3438 C555.3438,218.8906 554.9531,218.5 554.4844,218.5 C554.2656,218.5 554.0625,218.5781 553.875,218.7656 C553.4219,219.25 553.4219,219.25 553.2344,219.3438 C552.8125,219.6094 552.125,219.7344 551.3594,219.7344 C549.3125,219.7344 548.0156,218.6406 548.0156,216.9375 L548.0156,215.8438 C548.0156,214.0625 549.2656,212.75 551,212.75 C551.5781,212.75 552.1875,212.9063 552.6563,213.1563 C553.1406,213.4375 553.3125,213.6563 553.4063,214.0625 C553.4688,214.4688 553.5,214.5938 553.6406,214.7188 C553.7813,214.8594 554.0156,214.9688 554.2344,214.9688 C554.5,214.9688 554.7656,214.8281 554.9375,214.6094 C555.0469,214.4531 555.0781,214.2656 555.0781,213.8438 L555.0781,212.4219 C555.0781,211.9844 555.0625,211.8594 554.9688,211.7031 C554.8125,211.4375 554.5313,211.2969 554.2344,211.2969 C553.9375,211.2969 553.7344,211.3906 553.5156,211.7031 L553.3438,211.625 Z " fill="#000000"/><text fill="#000000" font-family="sans-serif" font-size="12" lengthAdjust="spacingAndGlyphs" textLength="71" x="585.5" y="206.1387">usantatecla.</text><text fill="#000000" font-family="sans-serif" font-size="12" lengthAdjust="spacingAndGlyphs" textLength="112" x="565" y="220.1074">mastermind.views.</text><text fill="#000000" font-family="sans-serif" font-size="12" lengthAdjust="spacingAndGlyphs" textLength="29" x="606.5" y="234.0762">View</text><line style="stroke:#A80036;stroke-width:1.5;" x1="537" x2="679" y1="241.9063" y2="241.9063"/><line style="stroke:#A80036;stroke-width:1.5;" x1="537" x2="679" y1="249.9063" y2="249.9063"/><!--MD5=[b6dcce5e5ef3c84b0b048d11301373dd]
class Game--><rect codeLine="2" fill="#FEFECE" filter="url(#fempc9zwhnt8a)" height="67.9063" id="Game" style="stroke:#A80036;stroke-width:1.5;" width="154" x="715" y="190"/><ellipse cx="730" cy="215.9531" fill="#ADD1B2" rx="11" ry="11" style="stroke:#A80036;stroke-width:1.0;"/><path d="M732.3438,211.625 C731.4063,211.1875 730.8125,211.0469 729.9375,211.0469 C727.3125,211.0469 725.3125,213.125 725.3125,215.8438 L725.3125,216.9688 C725.3125,219.5469 727.4219,221.4375 730.3125,221.4375 C731.5313,221.4375 732.6875,221.1406 733.4375,220.5938 C734.0156,220.1875 734.3438,219.7344 734.3438,219.3438 C734.3438,218.8906 733.9531,218.5 733.4844,218.5 C733.2656,218.5 733.0625,218.5781 732.875,218.7656 C732.4219,219.25 732.4219,219.25 732.2344,219.3438 C731.8125,219.6094 731.125,219.7344 730.3594,219.7344 C728.3125,219.7344 727.0156,218.6406 727.0156,216.9375 L727.0156,215.8438 C727.0156,214.0625 728.2656,212.75 730,212.75 C730.5781,212.75 731.1875,212.9063 731.6563,213.1563 C732.1406,213.4375 732.3125,213.6563 732.4063,214.0625 C732.4688,214.4688 732.5,214.5938 732.6406,214.7188 C732.7813,214.8594 733.0156,214.9688 733.2344,214.9688 C733.5,214.9688 733.7656,214.8281 733.9375,214.6094 C734.0469,214.4531 734.0781,214.2656 734.0781,213.8438 L734.0781,212.4219 C734.0781,211.9844 734.0625,211.8594 733.9688,211.7031 C733.8125,211.4375 733.5313,211.2969 733.2344,211.2969 C732.9375,211.2969 732.7344,211.3906 732.5156,211.7031 L732.3438,211.625 Z " fill="#000000"/><text fill="#000000" font-family="sans-serif" font-size="12" lengthAdjust="spacingAndGlyphs" textLength="71" x="769.5" y="206.1387">usantatecla.</text><text fill="#000000" font-family="sans-serif" font-size="12" lengthAdjust="spacingAndGlyphs" textLength="122" x="744" y="220.1074">mastermind.models.</text><text fill="#000000" font-family="sans-serif" font-size="12" lengthAdjust="spacingAndGlyphs" textLength="35" x="787.5" y="234.0762">Game</text><line style="stroke:#A80036;stroke-width:1.5;" x1="716" x2="868" y1="241.9063" y2="241.9063"/><line style="stroke:#A80036;stroke-width:1.5;" x1="716" x2="868" y1="249.9063" y2="249.9063"/><!--MD5=[51d729737bd84a4c43136dd336c2eea1]
class ConsoleView--><rect codeLine="3" fill="#FEFECE" filter="url(#fempc9zwhnt8a)" height="67.9063" id="ConsoleView" style="stroke:#A80036;stroke-width:1.5;" width="161" x="59.5" y="321"/><ellipse cx="74.5" cy="346.9531" fill="#ADD1B2" rx="11" ry="11" style="stroke:#A80036;stroke-width:1.0;"/><path d="M76.8438,342.625 C75.9063,342.1875 75.3125,342.0469 74.4375,342.0469 C71.8125,342.0469 69.8125,344.125 69.8125,346.8438 L69.8125,347.9688 C69.8125,350.5469 71.9219,352.4375 74.8125,352.4375 C76.0313,352.4375 77.1875,352.1406 77.9375,351.5938 C78.5156,351.1875 78.8438,350.7344 78.8438,350.3438 C78.8438,349.8906 78.4531,349.5 77.9844,349.5 C77.7656,349.5 77.5625,349.5781 77.375,349.7656 C76.9219,350.25 76.9219,350.25 76.7344,350.3438 C76.3125,350.6094 75.625,350.7344 74.8594,350.7344 C72.8125,350.7344 71.5156,349.6406 71.5156,347.9375 L71.5156,346.8438 C71.5156,345.0625 72.7656,343.75 74.5,343.75 C75.0781,343.75 75.6875,343.9063 76.1563,344.1563 C76.6406,344.4375 76.8125,344.6563 76.9063,345.0625 C76.9688,345.4688 77,345.5938 77.1406,345.7188 C77.2813,345.8594 77.5156,345.9688 77.7344,345.9688 C78,345.9688 78.2656,345.8281 78.4375,345.6094 C78.5469,345.4531 78.5781,345.2656 78.5781,344.8438 L78.5781,343.4219 C78.5781,342.9844 78.5625,342.8594 78.4688,342.7031 C78.3125,342.4375 78.0313,342.2969 77.7344,342.2969 C77.4375,342.2969 77.2344,342.3906 77.0156,342.7031 L76.8438,342.625 Z " fill="#000000"/><text fill="#000000" font-family="sans-serif" font-size="12" lengthAdjust="spacingAndGlyphs" textLength="71" x="117.5" y="337.1387">usantatecla.</text><text fill="#000000" font-family="sans-serif" font-size="12" lengthAdjust="spacingAndGlyphs" textLength="112" x="97" y="351.1074">mastermind.views.</text><text fill="#000000" font-family="sans-serif" font-size="12" lengthAdjust="spacingAndGlyphs" textLength="129" x="88.5" y="365.0762">console.ConsoleView</text><line style="stroke:#A80036;stroke-width:1.5;" x1="60.5" x2="219.5" y1="372.9063" y2="372.9063"/><line style="stroke:#A80036;stroke-width:1.5;" x1="60.5" x2="219.5" y1="380.9063" y2="380.9063"/><!--MD5=[10250df365dc999637be629d910c1f35]
class GraphicsView--><rect codeLine="4" fill="#FEFECE" filter="url(#fempc9zwhnt8a)" height="67.9063" id="GraphicsView" style="stroke:#A80036;stroke-width:1.5;" width="165" x="309.5" y="321"/><ellipse cx="324.5" cy="346.9531" fill="#ADD1B2" rx="11" ry="11" style="stroke:#A80036;stroke-width:1.0;"/><path d="M326.8438,342.625 C325.9063,342.1875 325.3125,342.0469 324.4375,342.0469 C321.8125,342.0469 319.8125,344.125 319.8125,346.8438 L319.8125,347.9688 C319.8125,350.5469 321.9219,352.4375 324.8125,352.4375 C326.0313,352.4375 327.1875,352.1406 327.9375,351.5938 C328.5156,351.1875 328.8438,350.7344 328.8438,350.3438 C328.8438,349.8906 328.4531,349.5 327.9844,349.5 C327.7656,349.5 327.5625,349.5781 327.375,349.7656 C326.9219,350.25 326.9219,350.25 326.7344,350.3438 C326.3125,350.6094 325.625,350.7344 324.8594,350.7344 C322.8125,350.7344 321.5156,349.6406 321.5156,347.9375 L321.5156,346.8438 C321.5156,345.0625 322.7656,343.75 324.5,343.75 C325.0781,343.75 325.6875,343.9063 326.1563,344.1563 C326.6406,344.4375 326.8125,344.6563 326.9063,345.0625 C326.9688,345.4688 327,345.5938 327.1406,345.7188 C327.2813,345.8594 327.5156,345.9688 327.7344,345.9688 C328,345.9688 328.2656,345.8281 328.4375,345.6094 C328.5469,345.4531 328.5781,345.2656 328.5781,344.8438 L328.5781,343.4219 C328.5781,342.9844 328.5625,342.8594 328.4688,342.7031 C328.3125,342.4375 328.0313,342.2969 327.7344,342.2969 C327.4375,342.2969 327.2344,342.3906 327.0156,342.7031 L326.8438,342.625 Z " fill="#000000"/><text fill="#000000" font-family="sans-serif" font-size="12" lengthAdjust="spacingAndGlyphs" textLength="71" x="369.5" y="337.1387">usantatecla.</text><text fill="#000000" font-family="sans-serif" font-size="12" lengthAdjust="spacingAndGlyphs" textLength="112" x="349" y="351.1074">mastermind.views.</text><text fill="#000000" font-family="sans-serif" font-size="12" lengthAdjust="spacingAndGlyphs" textLength="133" x="338.5" y="365.0762">console.GraphicsView</text><line style="stroke:#A80036;stroke-width:1.5;" x1="310.5" x2="473.5" y1="372.9063" y2="372.9063"/><line style="stroke:#A80036;stroke-width:1.5;" x1="310.5" x2="473.5" y1="380.9063" y2="380.9063"/><!--MD5=[a5f8ce13268a0ab6e1eb93d1cfb2a7ef]
link usantatecla.mastermind.Mastermind to View--><path codeLine="11" d="M476.9341,133.9002 C476.9341,133.9002 526.318,167.472 548.364,182.46 " fill="none" id="usantatecla.mastermind.Mastermind-View" style="stroke:#A80036;stroke-width:1.0;"/><polygon fill="#A80036" points="559.239,189.852,554.0446,181.4843,555.1039,187.0411,549.5472,188.1004,559.239,189.852" style="stroke:#A80036;stroke-width:1.0;"/><line style="stroke:#A80036;stroke-width:1.0;" x1="555.1039" x2="548.488" y1="187.0411" y2="182.544"/><polygon fill="#A80036" points="467.01,127.154,469.7233,133.8352,476.9341,133.9002,474.2208,127.2191,467.01,127.154" style="stroke:#A80036;stroke-width:1.0;"/><!--MD5=[c98fbe24533c431fdf254f685bb4ac7c]
link usantatecla.mastermind.Mastermind to Game--><path codeLine="12" d="M488.28,113.23 C547.053,133.339 627.554,161.255 698,187 C701.952,188.444 705.992,189.935 710.069,191.452 " fill="none" id="usantatecla.mastermind.Mastermind-to-Game" style="stroke:#A80036;stroke-width:1.0;stroke-dasharray:7.0,7.0;"/><polygon fill="#A80036" points="714.869,193.242,707.8361,186.3471,710.1847,191.4934,705.0384,193.842,714.869,193.242" style="stroke:#A80036;stroke-width:1.0;"/><!--MD5=[f77977e4d8b9d032efd72e44c024e507]
reverse link usantatecla.mastermind.Mastermind to usantatecla.mastermind.ConsoleMastermind--><path codeLine="18" d="M306.003,136.553 C273.817,153.314 238.808,171.545 209.274,186.925 " fill="none" id="usantatecla.mastermind.Mastermind-backto-usantatecla.mastermind.ConsoleMastermind" style="stroke:#A80036;stroke-width:1.0;"/><polygon fill="none" points="303.079,130.183,324.051,127.154,309.546,142.601,303.079,130.183" style="stroke:#A80036;stroke-width:1.0;"/><!--MD5=[86660d01f18f2f4aaa6ae1176c50cf28]
link usantatecla.mastermind.ConsoleMastermind to ConsoleView--><path codeLine="19" d="M140,261.277 C140,278.161 140,298.2584 140,315.4195 " fill="none" id="usantatecla.mastermind.ConsoleMastermind-to-ConsoleView" style="stroke:#A80036;stroke-width:1.0;stroke-dasharray:7.0,7.0;"/><polygon fill="#A80036" points="140,320.6443,144,311.6443,140,315.6443,136,311.6443,140,320.6443" style="stroke:#A80036;stroke-width:1.0;"/><!--MD5=[75be7b6274e25c7c9339f824ef8f543e]
reverse link usantatecla.mastermind.Mastermind to usantatecla.mastermind.GraphicsMastermind--><path codeLine="25" d="M399.146,147.145 C397.871,160.677 396.563,174.564 395.42,186.697 " fill="none" id="usantatecla.mastermind.Mastermind-backto-usantatecla.mastermind.GraphicsMastermind" style="stroke:#A80036;stroke-width:1.0;"/><polygon fill="none" points="392.184,146.41,401.029,127.154,406.122,147.723,392.184,146.41" style="stroke:#A80036;stroke-width:1.0;"/><!--MD5=[0a501c15156d4559f00f932bd01623b3]
link usantatecla.mastermind.GraphicsMastermind to GraphicsView--><path codeLine="26" d="M392,261.277 C392,278.161 392,298.2584 392,315.4195 " fill="none" id="usantatecla.mastermind.GraphicsMastermind-to-GraphicsView" style="stroke:#A80036;stroke-width:1.0;stroke-dasharray:7.0,7.0;"/><polygon fill="#A80036" points="392,320.6443,396,311.6443,392,315.6443,388,311.6443,392,320.6443" style="stroke:#A80036;stroke-width:1.0;"/><!--MD5=[6f5335cec2af35c0466ed10bebea05e2]
@startuml
class View as "usantatecla.\nmastermind.views.\nView" 
Class Game as "usantatecla.\nmastermind.models.\nGame" 
class ConsoleView as "usantatecla.\nmastermind.views.\nconsole.ConsoleView" 
class GraphicsView as "usantatecla.\nmastermind.views.\nconsole.GraphicsView" 

abstract class  usantatecla.mastermind.Mastermind{
    # Mastermind()
    # {abstract} createView(Game): View
    # play() 
}
usantatecla.mastermind.Mastermind *-down-> View
usantatecla.mastermind.Mastermind .down.> Game

class  usantatecla.mastermind.ConsoleMastermind{
    # createView(Game): ConsoleView
    + {static} main(String[]) 
}
usantatecla.mastermind.ConsoleMastermind -up-|> usantatecla.mastermind.Mastermind
usantatecla.mastermind.ConsoleMastermind ..> ConsoleView

class  usantatecla.mastermind.GraphicsMastermind{
# createView(Game): GraphicsView
+ {static} main(String[]) 
}
usantatecla.mastermind.GraphicsMastermind -up-|> usantatecla.mastermind.Mastermind
usantatecla.mastermind.GraphicsMastermind ..> GraphicsView
@enduml

PlantUML version 1.2020.23beta3(Unknown compile time)
(GPL source distribution)
Java Runtime: Java(TM) SE Runtime Environment
JVM: Java HotSpot(TM) 64-Bit Server VM
Default Encoding: UTF-8
Language: en
Country: US
--></g></svg>