<?xml version="1.0" encoding="UTF-8" standalone="no"?>
<svg xmlns="http://www.w3.org/2000/svg" contentScriptType="application/ecmascript" contentStyleType="text/css"
     height="159px" preserveAspectRatio="none" style="width:1683px;height:159px;" version="1.1" viewBox="0 0 1683 159"
     width="1683px" zoomAndPan="magnify"><defs><filter height="300%" id="f71lyr0hlpszx" width="300%" x="-1" y="-1"><feGaussianBlur result="blurOut" stdDeviation="2.0"/><feColorMatrix in="blurOut" result="blurOut2" type="matrix" values="0 0 0 0 0 0 0 0 0 0 0 0 0 0 0 0 0 0 .4 0"/><feOffset dx="4.0" dy="4.0" in="blurOut2" result="blurOut3"/><feBlend in="SourceGraphic" in2="blurOut3" mode="normal"/></filter></defs><g><!--MD5=[6a8eef24a865597df0dc119d71c20fa1]
entity usantatecla.mastermind--><polygon fill="#FFFFFF" filter="url(#f71lyr0hlpszx)" points="16,113,223,113,230,135.2969,247,135.2969,247,152.2969,16,152.2969,16,113" style="stroke:#000000;stroke-width:1.5;"/><line style="stroke:#000000;stroke-width:1.5;" x1="16" x2="230" y1="135.2969" y2="135.2969"/><text fill="#000000" font-family="sans-serif" font-size="14" font-weight="bold" lengthAdjust="spacingAndGlyphs" textLength="201" x="20" y="128.9951">usantatecla.mastermind</text><!--MD5=[a18a8a1618c58d11a8fd222203fd8af2]
entity usantatecla.mastermind.models--><polygon fill="#FFFFFF" filter="url(#f71lyr0hlpszx)" points="282.5,113,552.5,113,559.5,135.2969,576.5,135.2969,576.5,152.2969,282.5,152.2969,282.5,113" style="stroke:#000000;stroke-width:1.5;"/><line style="stroke:#000000;stroke-width:1.5;" x1="282.5" x2="559.5" y1="135.2969" y2="135.2969"/><text fill="#000000" font-family="sans-serif" font-size="14" font-weight="bold" lengthAdjust="spacingAndGlyphs" textLength="264" x="286.5" y="128.9951">usantatecla.mastermind.models</text><!--MD5=[a2f5bc19a32728c49bfc87935a3608a8]
entity usantatecla.mastermind.types--><polygon fill="#FFFFFF" filter="url(#f71lyr0hlpszx)" points="612,113,869,113,876,135.2969,893,135.2969,893,152.2969,612,152.2969,612,113" style="stroke:#000000;stroke-width:1.5;"/><line style="stroke:#000000;stroke-width:1.5;" x1="612" x2="876" y1="135.2969" y2="135.2969"/><text fill="#000000" font-family="sans-serif" font-size="14" font-weight="bold" lengthAdjust="spacingAndGlyphs" textLength="251" x="616" y="128.9951">usantatecla.mastermind.types</text><!--MD5=[d9d3a2b7fd30791a054c299cd80fb2ef]
entity usantatecla.mastermind.views--><polygon fill="#FFFFFF" filter="url(#f71lyr0hlpszx)" points="928,113,1185,113,1192,135.2969,1209,135.2969,1209,152.2969,928,152.2969,928,113" style="stroke:#000000;stroke-width:1.5;"/><line style="stroke:#000000;stroke-width:1.5;" x1="928" x2="1192" y1="135.2969" y2="135.2969"/><text fill="#000000" font-family="sans-serif" font-size="14" font-weight="bold" lengthAdjust="spacingAndGlyphs" textLength="251" x="932" y="128.9951">usantatecla.mastermind.views</text><!--MD5=[612a536d1c85efa17c7d118cc1e7b020]
entity usantatecla.utils--><polygon fill="#FFFFFF" filter="url(#f71lyr0hlpszx)" points="1244.5,113,1390.5,113,1397.5,135.2969,1414.5,135.2969,1414.5,152.2969,1244.5,152.2969,1244.5,113" style="stroke:#000000;stroke-width:1.5;"/><line style="stroke:#000000;stroke-width:1.5;" x1="1244.5" x2="1397.5" y1="135.2969" y2="135.2969"/><text fill="#000000" font-family="sans-serif" font-size="14" font-weight="bold" lengthAdjust="spacingAndGlyphs" textLength="140" x="1248.5" y="128.9951">usantatecla.utils</text><!--MD5=[48fa9072fd51d9920e6db8484beec696]
entity java.io--><polygon fill="#FFFFFF" filter="url(#f71lyr0hlpszx)" points="1449.5,113,1509.5,113,1516.5,135.2969,1533.5,135.2969,1533.5,152.2969,1449.5,152.2969,1449.5,113" style="stroke:#000000;stroke-width:1.5;"/><line style="stroke:#000000;stroke-width:1.5;" x1="1449.5" x2="1516.5" y1="135.2969" y2="135.2969"/><text fill="#000000" font-family="sans-serif" font-size="14" font-weight="bold" lengthAdjust="spacingAndGlyphs" textLength="54" x="1453.5" y="128.9951">java.io</text><!--MD5=[034f0f7ed136bf78fc117f7e41f76e93]
entity java.util--><polygon fill="#FFFFFF" filter="url(#f71lyr0hlpszx)" points="1569,113,1642,113,1649,135.2969,1666,135.2969,1666,152.2969,1569,152.2969,1569,113" style="stroke:#000000;stroke-width:1.5;"/><line style="stroke:#000000;stroke-width:1.5;" x1="1569" x2="1649" y1="135.2969" y2="135.2969"/><text fill="#000000" font-family="sans-serif" font-size="14" font-weight="bold" lengthAdjust="spacingAndGlyphs" textLength="67" x="1573" y="128.9951">java.util</text><!--MD5=[c2796faf4134bd8b5f3bc71f44d02e74]
entity jar--><rect fill="#FEFECE" filter="url(#f71lyr0hlpszx)" height="46.2969" style="stroke:#A80036;stroke-width:1.5;" width="150" x="993.5" y="7"/><rect fill="#FEFECE" height="10" style="stroke:#A80036;stroke-width:1.5;" width="15" x="1123.5" y="12"/><rect fill="#FEFECE" height="2" style="stroke:#A80036;stroke-width:1.5;" width="4" x="1121.5" y="14"/><rect fill="#FEFECE" height="2" style="stroke:#A80036;stroke-width:1.5;" width="4" x="1121.5" y="18"/><text fill="#000000" font-family="sans-serif" font-size="14" lengthAdjust="spacingAndGlyphs" textLength="110" x="1008.5" y="39.9951">mastermind.jar</text><!--MD5=[33871d850b885cae0f32fcf5f82e5a8f]
link jar to usantatecla.mastermind--><path d="M981.3508,38.8359 C981.3508,38.8359 524.289,81.6947 264.5,113 C263.082,113.1708 261.656,113.3441 260.223,113.5195 " fill="none" id="jar-usantatecla.mastermind" style="stroke:#A80036;stroke-width:1.0;"/><polygon fill="#A80036" points="247.167,115.1523,256.5937,118.0048,252.1284,114.532,255.6012,110.0666,247.167,115.1523" style="stroke:#A80036;stroke-width:1.0;"/><line style="stroke:#A80036;stroke-width:1.0;" x1="252.1284" x2="260.0665" y1="114.532" y2="113.539"/><polygon fill="#A80036" points="993.301,37.744,986.9619,34.3065,981.3508,38.8359,987.6899,42.2734,993.301,37.744" style="stroke:#A80036;stroke-width:1.0;"/><!--MD5=[2390947b1b119a53a88c2001f23d7e65]
link jar to usantatecla.mastermind.models--><path d="M981.4657,44.6885 C981.4657,44.6885 685.68,91.2087 560.267,110.9333 " fill="none" id="jar-usantatecla.mastermind.models" style="stroke:#A80036;stroke-width:1.0;"/><polygon fill="#A80036" points="547.186,112.9907,556.6982,115.5437,552.1253,112.2138,555.4552,107.6408,547.186,112.9907" style="stroke:#A80036;stroke-width:1.0;"/><line style="stroke:#A80036;stroke-width:1.0;" x1="552.1253" x2="560.028" y1="112.2138" y2="110.9709"/><polygon fill="#A80036" points="993.32,42.824,986.7714,39.8048,981.4657,44.6885,988.0144,47.7077,993.32,42.824" style="stroke:#A80036;stroke-width:1.0;"/><!--MD5=[3b50c1040abfe22fa16b3ebf3d2adaac]
link jar to usantatecla.mastermind.types--><path d="M987.7164,56.6922 C987.7164,56.6922 871.782,93.5638 823.397,108.952 " fill="none" id="jar-usantatecla.mastermind.types" style="stroke:#A80036;stroke-width:1.0;"/><polygon fill="#A80036" points="810.827,112.9499,820.616,114.0341,815.5918,111.4345,818.1914,106.4103,810.827,112.9499" style="stroke:#A80036;stroke-width:1.0;"/><line style="stroke:#A80036;stroke-width:1.0;" x1="815.5918" x2="823.215" y1="111.4345" y2="109.0098"/><polygon fill="#A80036" points="999.152,53.0552,992.2219,51.0618,987.7164,56.6922,994.6465,58.6855,999.152,53.0552" style="stroke:#A80036;stroke-width:1.0;"/><!--MD5=[9b931e9ad5c3902361053e698395b79d]
link jar to usantatecla.mastermind.views--><path d="M1068.5,65.3042 C1068.5,65.3042 1068.5,89.2598 1068.5,99.9085 " fill="none" id="jar-usantatecla.mastermind.views" style="stroke:#A80036;stroke-width:1.0;"/><polygon fill="#A80036" points="1068.5,112.9606,1072.5,103.9606,1068.5,107.9606,1064.5,103.9606,1068.5,112.9606" style="stroke:#A80036;stroke-width:1.0;"/><line style="stroke:#A80036;stroke-width:1.0;" x1="1068.5" x2="1068.5" y1="107.9606" y2="99.9607"/><polygon fill="#A80036" points="1068.5,53.3042,1064.5,59.3042,1068.5,65.3042,1072.5,59.3042,1068.5,53.3042" style="stroke:#A80036;stroke-width:1.0;"/><!--MD5=[8059cd5737844cbfa7541e4ee98eb909]
link jar to usantatecla.utils--><path d="M1136.9785,57.3673 C1136.9785,57.3673 1229.8,93.1105 1268.87,108.1547 " fill="none" id="jar-usantatecla.utils" style="stroke:#A80036;stroke-width:1.0;"/><polygon fill="#A80036" points="1281.11,112.868,1274.1485,105.9011,1276.444,111.0713,1271.2738,113.3668,1281.11,112.868" style="stroke:#A80036;stroke-width:1.0;"/><line style="stroke:#A80036;stroke-width:1.0;" x1="1276.444" x2="1268.985" y1="111.0713" y2="108.1966"/><polygon fill="#A80036" points="1125.78,53.0552,1129.9419,58.9441,1136.9785,57.3673,1132.8166,51.4784,1125.78,53.0552" style="stroke:#A80036;stroke-width:1.0;"/><!--MD5=[f17a38c250a1605cd3da9b9fac2ef94b]
link jar to java.io--><path d="M1155.2794,48.4594 C1155.2794,48.4594 1338.97,87.8459 1432.5,113 C1433.87,113.3694 1435.26,113.7501 1436.66,114.14 " fill="none" id="jar-java.io" style="stroke:#A80036;stroke-width:1.0;"/><polygon fill="#A80036" points="1449.4,117.8378,1441.874,111.4849,1444.5987,116.4424,1439.6413,119.1671,1449.4,117.8378" style="stroke:#A80036;stroke-width:1.0;"/><line style="stroke:#A80036;stroke-width:1.0;" x1="1444.5987" x2="1436.92" y1="116.4424" y2="114.2142"/><polygon fill="#A80036" points="1143.53,46.02,1148.5916,51.1562,1155.2794,48.4594,1150.2179,43.3232,1143.53,46.02" style="stroke:#A80036;stroke-width:1.0;"/><!--MD5=[a929e6d2b54380e4c3e4c2b17ce7cd9b]
link jar to java.util--><path d="M1155.7388,42.9881 C1155.7388,42.9881 1414.83,82.3335 1551.5,113 C1553.1,113.3591 1554.72,113.7331 1556.35,114.1194 " fill="none" id="jar-java.util" style="stroke:#A80036;stroke-width:1.0;"/><polygon fill="#A80036" points="1568.99,117.278,1561.2307,111.2122,1564.1397,116.0638,1559.2881,118.9728,1568.99,117.278" style="stroke:#A80036;stroke-width:1.0;"/><line style="stroke:#A80036;stroke-width:1.0;" x1="1564.1397" x2="1556.375" y1="116.0638" y2="114.1257"/><polygon fill="#A80036" points="1143.86,41.287,1149.2324,46.0972,1155.7388,42.9881,1150.3664,38.178,1143.86,41.287" style="stroke:#A80036;stroke-width:1.0;"/><!--MD5=[6f5eaa555c92a63d9e57ca654e0b9ea3]
@startuml
package "  "  as usantatecla.mastermind {
}
package "  "  as usantatecla.mastermind.models {
}
package "  "  as usantatecla.mastermind.types {
}
package "  "  as usantatecla.mastermind.views {
}
package "  "  as usantatecla.utils {
}
package "  "  as java.io {
}
package "  "  as java.util {
}

[mastermind.jar] as jar

jar *- -> usantatecla.mastermind
jar *- -> usantatecla.mastermind.models
jar *- -> usantatecla.mastermind.types
jar *- -> usantatecla.mastermind.views
jar *- -> usantatecla.utils
jar *- -> java.io
jar *- -> java.util
@enduml

PlantUML version 1.2020.22beta2(Unknown compile time)
(GPL source distribution)
Java Runtime: Java(TM) SE Runtime Environment
JVM: Java HotSpot(TM) 64-Bit Server VM
Default Encoding: UTF-8
Language: en
Country: US
--></g></svg>