<?xml version="1.0" encoding="UTF-8" standalone="no"?>
<svg xmlns="http://www.w3.org/2000/svg" contentScriptType="application/ecmascript" contentStyleType="text/css"
     height="227px" preserveAspectRatio="none" style="width:374px;height:227px;" version="1.1" viewBox="0 0 374 227"
     width="374px" zoomAndPan="magnify"><defs><filter height="300%" id="f11g2amf0rx5sl" width="300%" x="-1" y="-1"><feGaussianBlur result="blurOut" stdDeviation="2.0"/><feColorMatrix in="blurOut" result="blurOut2" type="matrix" values="0 0 0 0 0 0 0 0 0 0 0 0 0 0 0 0 0 0 .4 0"/><feOffset dx="4.0" dy="4.0" in="blurOut2" result="blurOut3"/><feBlend in="SourceGraphic" in2="blurOut3" mode="normal"/></filter></defs><g><!--MD5=[8c0210f25e02723f65a0c6cf47cc6884]
cluster usantatecla.mastermind.types--><polygon fill="#FFFFFF" filter="url(#f11g2amf0rx5sl)" points="16,6,273,6,280,28.2969,357,28.2969,357,220,16,220,16,6" style="stroke:#000000;stroke-width:1.5;"/><line style="stroke:#000000;stroke-width:1.5;" x1="16" x2="280" y1="28.2969" y2="28.2969"/><text fill="#000000" font-family="sans-serif" font-size="14" font-weight="bold" lengthAdjust="spacingAndGlyphs" textLength="251" x="20" y="20.9951">usantatecla.mastermind.types</text><!--MD5=[9ba97027f3433c7bc0635c95b0f40e9e]
class usantatecla.mastermind.types.Color--><rect codeLine="1" fill="#FEFECE" filter="url(#f11g2amf0rx5sl)" height="163.2422" id="usantatecla.mastermind.types.Color" style="stroke:#A80036;stroke-width:1.5;" width="121" x="219.5" y="41"/><ellipse cx="260.15" cy="57" fill="#EB937F" rx="11" ry="11" style="stroke:#A80036;stroke-width:1.0;"/><path d="M258.9469,57.875 L260.4,57.875 L260.4,57.9844 C260.4,58.3906 260.4313,58.5469 260.5094,58.7031 C260.6656,58.9531 260.9469,59.1094 261.2438,59.1094 C261.4938,59.1094 261.7594,58.9688 261.9156,58.75 C262.0406,58.5938 262.0719,58.4375 262.0719,57.9844 L262.0719,56.0625 C262.0719,55.9063 262.0719,55.8594 262.0563,55.7031 C261.9938,55.2344 261.6813,54.9219 261.2281,54.9219 C260.9781,54.9219 260.7125,55.0625 260.5406,55.2813 C260.4313,55.4531 260.4,55.6094 260.4,56.0625 L260.4,56.1875 L258.9469,56.1875 L258.9469,53.7813 L262.9313,53.7813 L262.9313,54.6406 C262.9313,55.0469 262.9625,55.2188 263.0406,55.375 C263.2125,55.625 263.4938,55.7813 263.775,55.7813 C264.0406,55.7813 264.3063,55.6406 264.4781,55.4219 C264.5875,55.25 264.6188,55.1094 264.6188,54.6406 L264.6188,52.0938 L256.9938,52.0938 C256.5563,52.0938 256.4313,52.1094 256.275,52.2031 C256.025,52.3594 255.8687,52.6563 255.8687,52.9375 C255.8687,53.2188 256.0094,53.4688 256.2281,53.6406 C256.3844,53.75 256.5719,53.7813 256.9938,53.7813 L257.2438,53.7813 L257.2438,60.2969 L256.9938,60.2969 C256.5875,60.2969 256.4313,60.3125 256.275,60.4219 C256.025,60.5938 255.8687,60.8594 255.8687,61.1563 C255.8687,61.4219 256.0094,61.6719 256.2281,61.8281 C256.3688,61.9531 256.6031,62 256.9938,62 L264.9938,62 L264.9938,59.4219 C264.9938,58.9844 264.9625,58.8438 264.8844,58.6875 C264.7125,58.4375 264.4313,58.2813 264.15,58.2813 C263.8844,58.2813 263.6188,58.3906 263.4469,58.6406 C263.3375,58.7969 263.3063,58.9375 263.3063,59.4219 L263.3063,60.2969 L258.9469,60.2969 L258.9469,57.875 Z " fill="#000000"/><text fill="#000000" font-family="sans-serif" font-size="12" lengthAdjust="spacingAndGlyphs" textLength="32" x="279.85" y="61.1543">Color</text><line style="stroke:#A80036;stroke-width:1.5;" x1="220.5" x2="339.5" y1="73" y2="73"/><ellipse cx="230.5" cy="84" fill="none" rx="3" ry="3" style="stroke:#038048;stroke-width:1.0;"/><text fill="#000000" font-family="sans-serif" font-size="11" lengthAdjust="spacingAndGlyphs" textLength="23" x="239.5" y="87.2104">RED</text><ellipse cx="230.5" cy="96.8047" fill="none" rx="3" ry="3" style="stroke:#038048;stroke-width:1.0;"/><text fill="#000000" font-family="sans-serif" font-size="11" lengthAdjust="spacingAndGlyphs" textLength="29" x="239.5" y="100.0151">BLUE</text><ellipse cx="230.5" cy="109.6094" fill="none" rx="3" ry="3" style="stroke:#038048;stroke-width:1.0;"/><text fill="#000000" font-family="sans-serif" font-size="11" lengthAdjust="spacingAndGlyphs" textLength="46" x="239.5" y="112.8198">YELLOW</text><ellipse cx="230.5" cy="122.4141" fill="none" rx="3" ry="3" style="stroke:#038048;stroke-width:1.0;"/><text fill="#000000" font-family="sans-serif" font-size="11" lengthAdjust="spacingAndGlyphs" textLength="38" x="239.5" y="125.6245">GREEN</text><ellipse cx="230.5" cy="135.2188" fill="none" rx="3" ry="3" style="stroke:#038048;stroke-width:1.0;"/><text fill="#000000" font-family="sans-serif" font-size="11" lengthAdjust="spacingAndGlyphs" textLength="48" x="239.5" y="138.4292">ORANGE</text><ellipse cx="230.5" cy="148.0234" fill="none" rx="3" ry="3" style="stroke:#038048;stroke-width:1.0;"/><text fill="#000000" font-family="sans-serif" font-size="11" lengthAdjust="spacingAndGlyphs" textLength="40" x="239.5" y="151.2339">PURPLE</text><ellipse cx="230.5" cy="160.8281" fill="none" rx="3" ry="3" style="stroke:#038048;stroke-width:1.0;"/><text fill="#000000" font-family="sans-serif" font-size="11" lengthAdjust="spacingAndGlyphs" textLength="28" x="239.5" y="164.0386">NULL</text><line style="stroke:#A80036;stroke-width:1.5;" x1="220.5" x2="339.5" y1="170.6328" y2="170.6328"/><ellipse cx="230.5" cy="181.6328" fill="#84BE84" rx="3" ry="3" style="stroke:#038048;stroke-width:1.0;"/><text fill="#000000" font-family="sans-serif" font-size="11" lengthAdjust="spacingAndGlyphs" text-decoration="underline" textLength="65" x="239.5" y="184.8433">length(): int</text><ellipse cx="230.5" cy="194.4375" fill="#84BE84" rx="3" ry="3" style="stroke:#038048;stroke-width:1.0;"/><text fill="#000000" font-family="sans-serif" font-size="11" lengthAdjust="spacingAndGlyphs" textLength="95" x="239.5" y="197.6479">isNull() : boolean</text><!--MD5=[361325273302787e4c8f3934acbb17be]
class usantatecla.mastermind.types.Error--><rect codeLine="13" fill="#FEFECE" filter="url(#f11g2amf0rx5sl)" height="112.0234" id="usantatecla.mastermind.types.Error" style="stroke:#A80036;stroke-width:1.5;" width="152" x="32" y="66.5"/><ellipse cx="88.75" cy="82.5" fill="#EB937F" rx="11" ry="11" style="stroke:#A80036;stroke-width:1.0;"/><path d="M87.5469,83.375 L89,83.375 L89,83.4844 C89,83.8906 89.0313,84.0469 89.1094,84.2031 C89.2656,84.4531 89.5469,84.6094 89.8438,84.6094 C90.0938,84.6094 90.3594,84.4688 90.5156,84.25 C90.6406,84.0938 90.6719,83.9375 90.6719,83.4844 L90.6719,81.5625 C90.6719,81.4063 90.6719,81.3594 90.6563,81.2031 C90.5938,80.7344 90.2813,80.4219 89.8281,80.4219 C89.5781,80.4219 89.3125,80.5625 89.1406,80.7813 C89.0313,80.9531 89,81.1094 89,81.5625 L89,81.6875 L87.5469,81.6875 L87.5469,79.2813 L91.5313,79.2813 L91.5313,80.1406 C91.5313,80.5469 91.5625,80.7188 91.6406,80.875 C91.8125,81.125 92.0938,81.2813 92.375,81.2813 C92.6406,81.2813 92.9063,81.1406 93.0781,80.9219 C93.1875,80.75 93.2188,80.6094 93.2188,80.1406 L93.2188,77.5938 L85.5938,77.5938 C85.1563,77.5938 85.0313,77.6094 84.875,77.7031 C84.625,77.8594 84.4688,78.1563 84.4688,78.4375 C84.4688,78.7188 84.6094,78.9688 84.8281,79.1406 C84.9844,79.25 85.1719,79.2813 85.5938,79.2813 L85.8438,79.2813 L85.8438,85.7969 L85.5938,85.7969 C85.1875,85.7969 85.0313,85.8125 84.875,85.9219 C84.625,86.0938 84.4688,86.3594 84.4688,86.6563 C84.4688,86.9219 84.6094,87.1719 84.8281,87.3281 C84.9688,87.4531 85.2031,87.5 85.5938,87.5 L93.5938,87.5 L93.5938,84.9219 C93.5938,84.4844 93.5625,84.3438 93.4844,84.1875 C93.3125,83.9375 93.0313,83.7813 92.75,83.7813 C92.4844,83.7813 92.2188,83.8906 92.0469,84.1406 C91.9375,84.2969 91.9063,84.4375 91.9063,84.9219 L91.9063,85.7969 L87.5469,85.7969 L87.5469,83.375 Z " fill="#000000"/><text fill="#000000" font-family="sans-serif" font-size="12" lengthAdjust="spacingAndGlyphs" textLength="30" x="109.25" y="86.6543">Error</text><line style="stroke:#A80036;stroke-width:1.5;" x1="33" x2="183" y1="98.5" y2="98.5"/><ellipse cx="43" cy="109.5" fill="none" rx="3" ry="3" style="stroke:#038048;stroke-width:1.0;"/><text fill="#000000" font-family="sans-serif" font-size="11" lengthAdjust="spacingAndGlyphs" textLength="71" x="52" y="112.7104">DUPLICATED</text><ellipse cx="43" cy="122.3047" fill="none" rx="3" ry="3" style="stroke:#038048;stroke-width:1.0;"/><text fill="#000000" font-family="sans-serif" font-size="11" lengthAdjust="spacingAndGlyphs" textLength="126" x="52" y="125.5151">WRONG_CHARACTERS</text><ellipse cx="43" cy="135.1094" fill="none" rx="3" ry="3" style="stroke:#038048;stroke-width:1.0;"/><text fill="#000000" font-family="sans-serif" font-size="11" lengthAdjust="spacingAndGlyphs" textLength="95" x="52" y="138.3198">WRONG_LENGTH</text><ellipse cx="43" cy="147.9141" fill="none" rx="3" ry="3" style="stroke:#038048;stroke-width:1.0;"/><text fill="#000000" font-family="sans-serif" font-size="11" lengthAdjust="spacingAndGlyphs" textLength="28" x="52" y="151.1245">NULL</text><line style="stroke:#A80036;stroke-width:1.5;" x1="33" x2="183" y1="157.7188" y2="157.7188"/><ellipse cx="43" cy="168.7188" fill="#84BE84" rx="3" ry="3" style="stroke:#038048;stroke-width:1.0;"/><text fill="#000000" font-family="sans-serif" font-size="11" lengthAdjust="spacingAndGlyphs" textLength="95" x="52" y="171.9292">isNull() : boolean</text><!--MD5=[a4bb64d0fb6eb293590f6eeb648dca49]
@startuml
enum usantatecla.mastermind.types.Color {
    + RED
    + BLUE
    + YELLOW
    + GREEN
    + ORANGE
    + PURPLE
    + NULL
    + {static} length(): int
    + isNull() : boolean
}

enum usantatecla.mastermind.types.Error {
    + DUPLICATED
    + WRONG_CHARACTERS
    + WRONG_LENGTH
    + NULL
    + isNull() : boolean
}
@enduml

PlantUML version 1.2020.22beta2(Unknown compile time)
(GPL source distribution)
Java Runtime: Java(TM) SE Runtime Environment
JVM: Java HotSpot(TM) 64-Bit Server VM
Default Encoding: UTF-8
Language: en
Country: US
--></g></svg>