<?xml version="1.0" encoding="UTF-8" standalone="no"?>
<svg xmlns="http://www.w3.org/2000/svg" contentScriptType="application/ecmascript" contentStyleType="text/css"
     height="1097px" preserveAspectRatio="none" style="width:2002px;height:1097px;" version="1.1"
     viewBox="0 0 2002 1097" width="2002px" zoomAndPan="magnify"><defs><filter height="300%" id="ftngdygonx8ao" width="300%" x="-1" y="-1"><feGaussianBlur result="blurOut" stdDeviation="2.0"/><feColorMatrix in="blurOut" result="blurOut2" type="matrix" values="0 0 0 0 0 0 0 0 0 0 0 0 0 0 0 0 0 0 .4 0"/><feOffset dx="4.0" dy="4.0" in="blurOut2" result="blurOut3"/><feBlend in="SourceGraphic" in2="blurOut3" mode="normal"/></filter></defs><g><!--MD5=[29d5d00c8f272934fcfbf235a28c504f]
cluster usantatecla.mastermind.views--><polygon fill="#FFFFFF" filter="url(#ftngdygonx8ao)" points="780.005,6,1037.005,6,1044.005,28.2969,1790.007,28.2969,1790.007,844,780.005,844,780.005,6" style="stroke:#000000;stroke-width:1.5;"/><line style="stroke:#000000;stroke-width:1.5;" x1="780.005" x2="1044.005" y1="28.2969" y2="28.2969"/><text fill="#000000" font-family="sans-serif" font-size="14" font-weight="bold" lengthAdjust="spacingAndGlyphs" textLength="251" x="784.005" y="20.9951">usantatecla.mastermind.views</text><!--MD5=[ba33fe1da85dc20f705667e89649af02]
class usantatecla.mastermind.views.WithGameView--><rect codeLine="11" fill="#FEFECE" filter="url(#ftngdygonx8ao)" height="60.8047" id="usantatecla.mastermind.views.WithBoardView" style="stroke:#A80036;stroke-width:1.5;" width="157" x="1420.507" y="47.5"/><ellipse cx="1450.807" cy="63.5" fill="#A9DCDF" rx="11" ry="11" style="stroke:#A80036;stroke-width:1.0;"/><path d="M1452.8851,65.3125 L1453.2757,66.2969 L1452.8851,66.2969 C1452.432,66.2969 1452.3226,66.3125 1452.1664,66.4219 C1451.9164,66.5781 1451.7601,66.8594 1451.7601,67.1563 C1451.7601,67.4219 1451.9007,67.6719 1452.1195,67.8281 C1452.2601,67.9531 1452.4632,68 1452.8851,68 L1455.2445,68 C1455.6039,68 1455.8226,67.9688 1455.9632,67.875 C1456.2132,67.7344 1456.3695,67.4375 1456.3695,67.1563 C1456.3695,66.875 1456.2289,66.625 1456.0101,66.4688 C1455.8382,66.3281 1455.682,66.2969 1455.2132,66.2969 L1451.8226,58.0938 L1448.1507,58.0938 C1447.6976,58.0938 1447.5726,58.1094 1447.4164,58.2031 C1447.1664,58.375 1447.0101,58.6563 1447.0101,58.9375 C1447.0101,59.2188 1447.1507,59.4688 1447.3695,59.6406 C1447.5414,59.75 1447.7132,59.7813 1448.1507,59.7813 L1449.2289,59.7813 L1446.5882,66.2969 C1446.1664,66.2969 1446.0101,66.3125 1445.8539,66.4219 C1445.6039,66.5781 1445.4476,66.8594 1445.4476,67.1563 C1445.4476,67.7188 1445.8226,68 1446.5726,68 L1448.8382,68 C1449.1976,68 1449.4164,67.9688 1449.5414,67.875 C1449.807,67.7344 1449.9476,67.4375 1449.9476,67.1563 C1449.9476,66.875 1449.8226,66.625 1449.6039,66.4531 C1449.432,66.3281 1449.2914,66.2969 1448.8382,66.2969 L1448.4476,66.2969 L1448.8382,65.3125 L1452.8851,65.3125 Z M1452.182,63.6094 L1449.5101,63.6094 L1450.8539,60.3438 L1452.182,63.6094 Z " fill="#000000"/><text fill="#000000" font-family="sans-serif" font-size="12" font-style="italic" lengthAdjust="spacingAndGlyphs" textLength="91" x="1468.207" y="67.6543">WithGameView</text><line style="stroke:#A80036;stroke-width:1.5;" x1="1421.507" x2="1576.507" y1="79.5" y2="79.5"/><line style="stroke:#A80036;stroke-width:1.5;" x1="1421.507" x2="1576.507" y1="87.5" y2="87.5"/><ellipse cx="1431.507" cy="98.5" fill="#84BE84" rx="3" ry="3" style="stroke:#038048;stroke-width:1.0;"/><text fill="#000000" font-family="sans-serif" font-size="11" lengthAdjust="spacingAndGlyphs" textLength="131" x="1440.507" y="101.7104">WithGameView(Game)</text><!--MD5=[dab5b8162ddba5d4d249ad537ad64188]
class usantatecla.mastermind.views.ColorView--><rect codeLine="16" fill="#FEFECE" filter="url(#ftngdygonx8ao)" height="112.0234" id="usantatecla.mastermind.views.ColorView" style="stroke:#A80036;stroke-width:1.5;" width="161" x="1116.507" y="658.5"/><ellipse cx="1162.257" cy="674.5" fill="#ADD1B2" rx="11" ry="11" style="stroke:#A80036;stroke-width:1.0;"/><path d="M1164.6007,670.1719 C1163.6632,669.7344 1163.0695,669.5938 1162.1945,669.5938 C1159.5695,669.5938 1157.5695,671.6719 1157.5695,674.3906 L1157.5695,675.5156 C1157.5695,678.0938 1159.6789,679.9844 1162.5695,679.9844 C1163.7882,679.9844 1164.9445,679.6875 1165.6945,679.1406 C1166.2726,678.7344 1166.6007,678.2813 1166.6007,677.8906 C1166.6007,677.4375 1166.2101,677.0469 1165.7414,677.0469 C1165.5226,677.0469 1165.3195,677.125 1165.132,677.3125 C1164.6789,677.7969 1164.6789,677.7969 1164.4914,677.8906 C1164.0695,678.1563 1163.382,678.2813 1162.6164,678.2813 C1160.5695,678.2813 1159.2726,677.1875 1159.2726,675.4844 L1159.2726,674.3906 C1159.2726,672.6094 1160.5226,671.2969 1162.257,671.2969 C1162.8351,671.2969 1163.4445,671.4531 1163.9132,671.7031 C1164.3976,671.9844 1164.5695,672.2031 1164.6632,672.6094 C1164.7257,673.0156 1164.757,673.1406 1164.8976,673.2656 C1165.0382,673.4063 1165.2726,673.5156 1165.4914,673.5156 C1165.757,673.5156 1166.0226,673.375 1166.1945,673.1563 C1166.3039,673 1166.3351,672.8125 1166.3351,672.3906 L1166.3351,670.9688 C1166.3351,670.5313 1166.3195,670.4063 1166.2257,670.25 C1166.0695,669.9844 1165.7882,669.8438 1165.4914,669.8438 C1165.1945,669.8438 1164.9914,669.9375 1164.7726,670.25 L1164.6007,670.1719 Z " fill="#000000"/><text fill="#000000" font-family="sans-serif" font-size="12" lengthAdjust="spacingAndGlyphs" textLength="61" x="1182.757" y="678.6543">ColorView</text><line style="stroke:#A80036;stroke-width:1.5;" x1="1117.507" x2="1276.507" y1="690.5" y2="690.5"/><rect fill="none" height="6" style="stroke:#C82930;stroke-width:1.0;" width="6" x="1124.507" y="698.5"/><text fill="#000000" font-family="sans-serif" font-size="11" lengthAdjust="spacingAndGlyphs" text-decoration="underline" textLength="89" x="1136.507" y="704.7104">INITIALS: char []</text><line style="stroke:#A80036;stroke-width:1.5;" x1="1117.507" x2="1276.507" y1="711.3047" y2="711.3047"/><polygon fill="#4177AF" points="1127.507,718.3047,1123.507,724.3047,1131.507,724.3047" style="stroke:#1963A0;stroke-width:1.0;"/><text fill="#000000" font-family="sans-serif" font-size="11" lengthAdjust="spacingAndGlyphs" textLength="94" x="1136.507" y="725.5151">ColorView(Color)</text><polygon fill="#4177AF" points="1127.507,731.1094,1123.507,737.1094,1131.507,737.1094" style="stroke:#1963A0;stroke-width:1.0;"/><text fill="#000000" font-family="sans-serif" font-size="11" lengthAdjust="spacingAndGlyphs" text-decoration="underline" textLength="97" x="1136.507" y="738.3198">allInitials(): String</text><polygon fill="#4177AF" points="1127.507,743.9141,1123.507,749.9141,1131.507,749.9141" style="stroke:#1963A0;stroke-width:1.0;"/><text fill="#000000" font-family="sans-serif" font-size="11" lengthAdjust="spacingAndGlyphs" text-decoration="underline" textLength="135" x="1136.507" y="751.1245">getInstance(char): Color</text><polygon fill="#4177AF" points="1127.507,756.7188,1123.507,762.7188,1131.507,762.7188" style="stroke:#1963A0;stroke-width:1.0;"/><text fill="#000000" font-family="sans-serif" font-size="11" lengthAdjust="spacingAndGlyphs" textLength="36" x="1136.507" y="763.9292">write()</text><!--MD5=[bd953d99961dd365a3924fc1e98cf727]
class usantatecla.mastermind.views.ErrorView--><rect codeLine="26" fill="#FEFECE" filter="url(#ftngdygonx8ao)" height="86.4141" id="usantatecla.mastermind.views.ErrorView" style="stroke:#A80036;stroke-width:1.5;" width="145" x="796.505" y="455"/><ellipse cx="835.805" cy="471" fill="#ADD1B2" rx="11" ry="11" style="stroke:#A80036;stroke-width:1.0;"/><path d="M838.1488,466.6719 C837.2113,466.2344 836.6175,466.0938 835.7425,466.0938 C833.1175,466.0938 831.1175,468.1719 831.1175,470.8906 L831.1175,472.0156 C831.1175,474.5938 833.2269,476.4844 836.1175,476.4844 C837.3363,476.4844 838.4925,476.1875 839.2425,475.6406 C839.8206,475.2344 840.1488,474.7813 840.1488,474.3906 C840.1488,473.9375 839.7581,473.5469 839.2894,473.5469 C839.0706,473.5469 838.8675,473.625 838.68,473.8125 C838.2269,474.2969 838.2269,474.2969 838.0394,474.3906 C837.6175,474.6563 836.93,474.7813 836.1644,474.7813 C834.1175,474.7813 832.8206,473.6875 832.8206,471.9844 L832.8206,470.8906 C832.8206,469.1094 834.0706,467.7969 835.805,467.7969 C836.3831,467.7969 836.9925,467.9531 837.4613,468.2031 C837.9456,468.4844 838.1175,468.7031 838.2113,469.1094 C838.2738,469.5156 838.305,469.6406 838.4456,469.7656 C838.5863,469.9063 838.8206,470.0156 839.0394,470.0156 C839.305,470.0156 839.5706,469.875 839.7425,469.6563 C839.8519,469.5 839.8831,469.3125 839.8831,468.8906 L839.8831,467.4688 C839.8831,467.0313 839.8675,466.9063 839.7738,466.75 C839.6175,466.4844 839.3363,466.3438 839.0394,466.3438 C838.7425,466.3438 838.5394,466.4375 838.3206,466.75 L838.1488,466.6719 Z " fill="#000000"/><text fill="#000000" font-family="sans-serif" font-size="12" lengthAdjust="spacingAndGlyphs" textLength="59" x="855.205" y="475.1543">ErrorView</text><line style="stroke:#A80036;stroke-width:1.5;" x1="797.505" x2="940.505" y1="487" y2="487"/><rect fill="none" height="6" style="stroke:#C82930;stroke-width:1.0;" width="6" x="804.505" y="495"/><text fill="#000000" font-family="sans-serif" font-size="11" lengthAdjust="spacingAndGlyphs" text-decoration="underline" textLength="116" x="816.505" y="501.2104">MESSAGES: String []</text><line style="stroke:#A80036;stroke-width:1.5;" x1="797.505" x2="940.505" y1="507.8047" y2="507.8047"/><polygon fill="#4177AF" points="807.505,514.8047,803.505,520.8047,811.505,520.8047" style="stroke:#1963A0;stroke-width:1.0;"/><text fill="#000000" font-family="sans-serif" font-size="11" lengthAdjust="spacingAndGlyphs" textLength="119" x="816.505" y="522.0151">ErrorView(Error error)</text><polygon fill="#4177AF" points="807.505,527.6094,803.505,533.6094,811.505,533.6094" style="stroke:#1963A0;stroke-width:1.0;"/><text fill="#000000" font-family="sans-serif" font-size="11" lengthAdjust="spacingAndGlyphs" textLength="46" x="816.505" y="534.8198">writeln()</text><!--MD5=[212a0e60755c6b1108194c65ec19a74b]
class usantatecla.mastermind.views.GameView--><rect codeLine="35" fill="#FEFECE" filter="url(#ftngdygonx8ao)" height="86.4141" id="usantatecla.mastermind.views.GameView" style="stroke:#A80036;stroke-width:1.5;" width="191" x="1258.507" y="309"/><ellipse cx="1317.757" cy="325" fill="#ADD1B2" rx="11" ry="11" style="stroke:#A80036;stroke-width:1.0;"/><path d="M1320.1007,320.6719 C1319.1632,320.2344 1318.5695,320.0938 1317.6945,320.0938 C1315.0695,320.0938 1313.0695,322.1719 1313.0695,324.8906 L1313.0695,326.0156 C1313.0695,328.5938 1315.1789,330.4844 1318.0695,330.4844 C1319.2882,330.4844 1320.4445,330.1875 1321.1945,329.6406 C1321.7726,329.2344 1322.1007,328.7813 1322.1007,328.3906 C1322.1007,327.9375 1321.7101,327.5469 1321.2414,327.5469 C1321.0226,327.5469 1320.8195,327.625 1320.632,327.8125 C1320.1789,328.2969 1320.1789,328.2969 1319.9914,328.3906 C1319.5695,328.6563 1318.882,328.7813 1318.1164,328.7813 C1316.0695,328.7813 1314.7726,327.6875 1314.7726,325.9844 L1314.7726,324.8906 C1314.7726,323.1094 1316.0226,321.7969 1317.757,321.7969 C1318.3351,321.7969 1318.9445,321.9531 1319.4132,322.2031 C1319.8976,322.4844 1320.0695,322.7031 1320.1632,323.1094 C1320.2257,323.5156 1320.257,323.6406 1320.3976,323.7656 C1320.5382,323.9063 1320.7726,324.0156 1320.9914,324.0156 C1321.257,324.0156 1321.5226,323.875 1321.6945,323.6563 C1321.8039,323.5 1321.8351,323.3125 1321.8351,322.8906 L1321.8351,321.4688 C1321.8351,321.0313 1321.8195,320.9063 1321.7257,320.75 C1321.5695,320.4844 1321.2882,320.3438 1320.9914,320.3438 C1320.6945,320.3438 1320.4914,320.4375 1320.2726,320.75 L1320.1007,320.6719 Z " fill="#000000"/><text fill="#000000" font-family="sans-serif" font-size="12" lengthAdjust="spacingAndGlyphs" textLength="64" x="1338.257" y="329.1543">GameView</text><line style="stroke:#A80036;stroke-width:1.5;" x1="1259.507" x2="1448.507" y1="341" y2="341"/><line style="stroke:#A80036;stroke-width:1.5;" x1="1259.507" x2="1448.507" y1="349" y2="349"/><polygon fill="#4177AF" points="1269.507,356,1265.507,362,1273.507,362" style="stroke:#1963A0;stroke-width:1.0;"/><text fill="#000000" font-family="sans-serif" font-size="11" lengthAdjust="spacingAndGlyphs" textLength="106" x="1278.507" y="363.2104">GameView(Game)</text><polygon fill="#4177AF" points="1269.507,368.8047,1265.507,374.8047,1273.507,374.8047" style="stroke:#1963A0;stroke-width:1.0;"/><text fill="#000000" font-family="sans-serif" font-size="11" lengthAdjust="spacingAndGlyphs" textLength="36" x="1278.507" y="376.0151">write()</text><polygon fill="#4177AF" points="1269.507,381.6094,1265.507,387.6094,1273.507,387.6094" style="stroke:#1963A0;stroke-width:1.0;"/><text fill="#000000" font-family="sans-serif" font-size="11" lengthAdjust="spacingAndGlyphs" textLength="165" x="1278.507" y="388.8198">isWinnerOrLooser() : boolean</text><!--MD5=[826ffe1d7ae0fc27ec50d9c84508f1a7]
class usantatecla.mastermind.views.SecretCombinationView--><rect codeLine="102" fill="#FEFECE" filter="url(#ftngdygonx8ao)" height="73.6094" id="usantatecla.mastermind.views.SecretCombinationView" style="stroke:#A80036;stroke-width:1.5;" width="175" x="1487.507" y="461"/><ellipse cx="1502.507" cy="477" fill="#ADD1B2" rx="11" ry="11" style="stroke:#A80036;stroke-width:1.0;"/><path d="M1504.8507,472.6719 C1503.9132,472.2344 1503.3195,472.0938 1502.4445,472.0938 C1499.8195,472.0938 1497.8195,474.1719 1497.8195,476.8906 L1497.8195,478.0156 C1497.8195,480.5938 1499.9289,482.4844 1502.8195,482.4844 C1504.0382,482.4844 1505.1945,482.1875 1505.9445,481.6406 C1506.5226,481.2344 1506.8507,480.7813 1506.8507,480.3906 C1506.8507,479.9375 1506.4601,479.5469 1505.9914,479.5469 C1505.7726,479.5469 1505.5695,479.625 1505.382,479.8125 C1504.9289,480.2969 1504.9289,480.2969 1504.7414,480.3906 C1504.3195,480.6563 1503.632,480.7813 1502.8664,480.7813 C1500.8195,480.7813 1499.5226,479.6875 1499.5226,477.9844 L1499.5226,476.8906 C1499.5226,475.1094 1500.7726,473.7969 1502.507,473.7969 C1503.0851,473.7969 1503.6945,473.9531 1504.1632,474.2031 C1504.6476,474.4844 1504.8195,474.7031 1504.9132,475.1094 C1504.9757,475.5156 1505.007,475.6406 1505.1476,475.7656 C1505.2882,475.9063 1505.5226,476.0156 1505.7414,476.0156 C1506.007,476.0156 1506.2726,475.875 1506.4445,475.6563 C1506.5539,475.5 1506.5851,475.3125 1506.5851,474.8906 L1506.5851,473.4688 C1506.5851,473.0313 1506.5695,472.9063 1506.4757,472.75 C1506.3195,472.4844 1506.0382,472.3438 1505.7414,472.3438 C1505.4445,472.3438 1505.2414,472.4375 1505.0226,472.75 L1504.8507,472.6719 Z " fill="#000000"/><text fill="#000000" font-family="sans-serif" font-size="12" lengthAdjust="spacingAndGlyphs" textLength="143" x="1516.507" y="481.1543">SecretCombinationView</text><line style="stroke:#A80036;stroke-width:1.5;" x1="1488.507" x2="1661.507" y1="493" y2="493"/><line style="stroke:#A80036;stroke-width:1.5;" x1="1488.507" x2="1661.507" y1="501" y2="501"/><polygon fill="#4177AF" points="1498.507,508,1494.507,514,1502.507,514" style="stroke:#1963A0;stroke-width:1.0;"/><text fill="#000000" font-family="sans-serif" font-size="11" lengthAdjust="spacingAndGlyphs" textLength="145" x="1507.507" y="515.2104">SecretCombinationView()</text><polygon fill="#4177AF" points="1498.507,520.8047,1494.507,526.8047,1502.507,526.8047" style="stroke:#1963A0;stroke-width:1.0;"/><text fill="#000000" font-family="sans-serif" font-size="11" lengthAdjust="spacingAndGlyphs" textLength="46" x="1507.507" y="528.0151">writeln()</text><!--MD5=[694a802c67fd6ffa81f3d338cafa51c2]
class usantatecla.mastermind.views.Message--><rect codeLine="47" fill="#FEFECE" filter="url(#ftngdygonx8ao)" height="227.2656" id="usantatecla.mastermind.views.Message" style="stroke:#A80036;stroke-width:1.5;" width="173" x="1312.507" y="601"/><ellipse cx="1367.257" cy="617" fill="#EB937F" rx="11" ry="11" style="stroke:#A80036;stroke-width:1.0;"/><path d="M1366.0539,617.875 L1367.507,617.875 L1367.507,617.9844 C1367.507,618.3906 1367.5382,618.5469 1367.6164,618.7031 C1367.7726,618.9531 1368.0539,619.1094 1368.3507,619.1094 C1368.6007,619.1094 1368.8664,618.9688 1369.0226,618.75 C1369.1476,618.5938 1369.1789,618.4375 1369.1789,617.9844 L1369.1789,616.0625 C1369.1789,615.9063 1369.1789,615.8594 1369.1632,615.7031 C1369.1007,615.2344 1368.7882,614.9219 1368.3351,614.9219 C1368.0851,614.9219 1367.8195,615.0625 1367.6476,615.2813 C1367.5382,615.4531 1367.507,615.6094 1367.507,616.0625 L1367.507,616.1875 L1366.0539,616.1875 L1366.0539,613.7813 L1370.0382,613.7813 L1370.0382,614.6406 C1370.0382,615.0469 1370.0695,615.2188 1370.1476,615.375 C1370.3195,615.625 1370.6007,615.7813 1370.882,615.7813 C1371.1476,615.7813 1371.4132,615.6406 1371.5851,615.4219 C1371.6945,615.25 1371.7257,615.1094 1371.7257,614.6406 L1371.7257,612.0938 L1364.1007,612.0938 C1363.6632,612.0938 1363.5382,612.1094 1363.382,612.2031 C1363.132,612.3594 1362.9757,612.6563 1362.9757,612.9375 C1362.9757,613.2188 1363.1164,613.4688 1363.3351,613.6406 C1363.4914,613.75 1363.6789,613.7813 1364.1007,613.7813 L1364.3507,613.7813 L1364.3507,620.2969 L1364.1007,620.2969 C1363.6945,620.2969 1363.5382,620.3125 1363.382,620.4219 C1363.132,620.5938 1362.9757,620.8594 1362.9757,621.1563 C1362.9757,621.4219 1363.1164,621.6719 1363.3351,621.8281 C1363.4757,621.9531 1363.7101,622 1364.1007,622 L1372.1007,622 L1372.1007,619.4219 C1372.1007,618.9844 1372.0695,618.8438 1371.9914,618.6875 C1371.8195,618.4375 1371.5382,618.2813 1371.257,618.2813 C1370.9914,618.2813 1370.7257,618.3906 1370.5539,618.6406 C1370.4445,618.7969 1370.4132,618.9375 1370.4132,619.4219 L1370.4132,620.2969 L1366.0539,620.2969 L1366.0539,617.875 Z " fill="#000000"/><text fill="#000000" font-family="sans-serif" font-size="12" lengthAdjust="spacingAndGlyphs" textLength="55" x="1387.757" y="621.1543">Message</text><line style="stroke:#A80036;stroke-width:1.5;" x1="1313.507" x2="1484.507" y1="633" y2="633"/><ellipse cx="1323.507" cy="644" fill="none" rx="3" ry="3" style="stroke:#038048;stroke-width:1.0;"/><text fill="#000000" font-family="sans-serif" font-size="11" lengthAdjust="spacingAndGlyphs" textLength="59" x="1332.507" y="647.2104">ATTEMPTS</text><ellipse cx="1323.507" cy="656.8047" fill="none" rx="3" ry="3" style="stroke:#038048;stroke-width:1.0;"/><text fill="#000000" font-family="sans-serif" font-size="11" lengthAdjust="spacingAndGlyphs" textLength="130" x="1332.507" y="660.0151">SECRET_COMBINATION</text><ellipse cx="1323.507" cy="669.6094" fill="none" rx="3" ry="3" style="stroke:#038048;stroke-width:1.0;"/><text fill="#000000" font-family="sans-serif" font-size="11" lengthAdjust="spacingAndGlyphs" textLength="46" x="1332.507" y="672.8198">RESUME</text><ellipse cx="1323.507" cy="682.4141" fill="none" rx="3" ry="3" style="stroke:#038048;stroke-width:1.0;"/><text fill="#000000" font-family="sans-serif" font-size="11" lengthAdjust="spacingAndGlyphs" textLength="43" x="1332.507" y="685.6245">RESULT</text><ellipse cx="1323.507" cy="695.2188" fill="none" rx="3" ry="3" style="stroke:#038048;stroke-width:1.0;"/><text fill="#000000" font-family="sans-serif" font-size="11" lengthAdjust="spacingAndGlyphs" textLength="147" x="1332.507" y="698.4292">PROPOSED_COMBINATION</text><ellipse cx="1323.507" cy="708.0234" fill="none" rx="3" ry="3" style="stroke:#038048;stroke-width:1.0;"/><text fill="#000000" font-family="sans-serif" font-size="11" lengthAdjust="spacingAndGlyphs" textLength="30" x="1332.507" y="711.2339">TITLE</text><ellipse cx="1323.507" cy="720.8281" fill="none" rx="3" ry="3" style="stroke:#038048;stroke-width:1.0;"/><text fill="#000000" font-family="sans-serif" font-size="11" lengthAdjust="spacingAndGlyphs" textLength="44" x="1332.507" y="724.0386">WINNER</text><ellipse cx="1323.507" cy="733.6328" fill="none" rx="3" ry="3" style="stroke:#038048;stroke-width:1.0;"/><text fill="#000000" font-family="sans-serif" font-size="11" lengthAdjust="spacingAndGlyphs" textLength="46" x="1332.507" y="736.8433">LOOSER</text><rect fill="none" height="6" style="stroke:#C82930;stroke-width:1.0;" width="6" x="1320.507" y="743.4375"/><text fill="#000000" font-family="sans-serif" font-size="11" lengthAdjust="spacingAndGlyphs" textLength="93" x="1332.507" y="749.6479">message: String</text><line style="stroke:#A80036;stroke-width:1.5;" x1="1313.507" x2="1484.507" y1="756.2422" y2="756.2422"/><polygon fill="#4177AF" points="1323.507,763.2422,1319.507,769.2422,1327.507,769.2422" style="stroke:#1963A0;stroke-width:1.0;"/><text fill="#000000" font-family="sans-serif" font-size="11" lengthAdjust="spacingAndGlyphs" textLength="120" x="1332.507" y="770.4526">MessageView(String)</text><polygon fill="#4177AF" points="1323.507,776.0469,1319.507,782.0469,1327.507,782.0469" style="stroke:#1963A0;stroke-width:1.0;"/><text fill="#000000" font-family="sans-serif" font-size="11" lengthAdjust="spacingAndGlyphs" textLength="36" x="1332.507" y="783.2573">write()</text><polygon fill="#4177AF" points="1323.507,788.8516,1319.507,794.8516,1327.507,794.8516" style="stroke:#1963A0;stroke-width:1.0;"/><text fill="#000000" font-family="sans-serif" font-size="11" lengthAdjust="spacingAndGlyphs" textLength="46" x="1332.507" y="796.062">writeln()</text><polygon fill="#4177AF" points="1323.507,801.6563,1319.507,807.6563,1327.507,807.6563" style="stroke:#1963A0;stroke-width:1.0;"/><text fill="#000000" font-family="sans-serif" font-size="11" lengthAdjust="spacingAndGlyphs" textLength="60" x="1332.507" y="808.8667">writeln(int)</text><polygon fill="#4177AF" points="1323.507,814.4609,1319.507,820.4609,1327.507,820.4609" style="stroke:#1963A0;stroke-width:1.0;"/><text fill="#000000" font-family="sans-serif" font-size="11" lengthAdjust="spacingAndGlyphs" textLength="81" x="1332.507" y="821.6714">writeln(int, int)</text><!--MD5=[9baa3c67970b674f09e45f119e307b36]
class usantatecla.mastermind.views.ProposedCombinationView--><rect codeLine="74" fill="#FEFECE" filter="url(#ftngdygonx8ao)" height="86.4141" id="usantatecla.mastermind.views.ProposedCombinationView" style="stroke:#A80036;stroke-width:1.5;" width="308" x="1144.007" y="455"/><ellipse cx="1213.257" cy="471" fill="#ADD1B2" rx="11" ry="11" style="stroke:#A80036;stroke-width:1.0;"/><path d="M1215.6007,466.6719 C1214.6632,466.2344 1214.0695,466.0938 1213.1945,466.0938 C1210.5695,466.0938 1208.5695,468.1719 1208.5695,470.8906 L1208.5695,472.0156 C1208.5695,474.5938 1210.6789,476.4844 1213.5695,476.4844 C1214.7882,476.4844 1215.9445,476.1875 1216.6945,475.6406 C1217.2726,475.2344 1217.6007,474.7813 1217.6007,474.3906 C1217.6007,473.9375 1217.2101,473.5469 1216.7414,473.5469 C1216.5226,473.5469 1216.3195,473.625 1216.132,473.8125 C1215.6789,474.2969 1215.6789,474.2969 1215.4914,474.3906 C1215.0695,474.6563 1214.382,474.7813 1213.6164,474.7813 C1211.5695,474.7813 1210.2726,473.6875 1210.2726,471.9844 L1210.2726,470.8906 C1210.2726,469.1094 1211.5226,467.7969 1213.257,467.7969 C1213.8351,467.7969 1214.4445,467.9531 1214.9132,468.2031 C1215.3976,468.4844 1215.5695,468.7031 1215.6632,469.1094 C1215.7257,469.5156 1215.757,469.6406 1215.8976,469.7656 C1216.0382,469.9063 1216.2726,470.0156 1216.4914,470.0156 C1216.757,470.0156 1217.0226,469.875 1217.1945,469.6563 C1217.3039,469.5 1217.3351,469.3125 1217.3351,468.8906 L1217.3351,467.4688 C1217.3351,467.0313 1217.3195,466.9063 1217.2257,466.75 C1217.0695,466.4844 1216.7882,466.3438 1216.4914,466.3438 C1216.1945,466.3438 1215.9914,466.4375 1215.7726,466.75 L1215.6007,466.6719 Z " fill="#000000"/><text fill="#000000" font-family="sans-serif" font-size="12" lengthAdjust="spacingAndGlyphs" textLength="161" x="1233.757" y="475.1543">ProposedCombinationView</text><line style="stroke:#A80036;stroke-width:1.5;" x1="1145.007" x2="1451.007" y1="487" y2="487"/><line style="stroke:#A80036;stroke-width:1.5;" x1="1145.007" x2="1451.007" y1="495" y2="495"/><polygon fill="#4177AF" points="1155.007,502,1151.007,508,1159.007,508" style="stroke:#1963A0;stroke-width:1.0;"/><text fill="#000000" font-family="sans-serif" font-size="11" lengthAdjust="spacingAndGlyphs" textLength="282" x="1164.007" y="509.2104">ProposedCombinationView(ProposedCombination)</text><polygon fill="#4177AF" points="1155.007,514.8047,1151.007,520.8047,1159.007,520.8047" style="stroke:#1963A0;stroke-width:1.0;"/><text fill="#000000" font-family="sans-serif" font-size="11" lengthAdjust="spacingAndGlyphs" textLength="36" x="1164.007" y="522.0151">write()</text><polygon fill="#4177AF" points="1155.007,527.6094,1151.007,533.6094,1159.007,533.6094" style="stroke:#1963A0;stroke-width:1.0;"/><text fill="#000000" font-family="sans-serif" font-size="11" lengthAdjust="spacingAndGlyphs" textLength="34" x="1164.007" y="534.8198">read()</text><!--MD5=[417e2fbd6195c1b6c8b5b41eb42f33ec]
class usantatecla.mastermind.views.ResultView--><rect codeLine="87" fill="#FEFECE" filter="url(#ftngdygonx8ao)" height="73.6094" id="usantatecla.mastermind.views.ResultView" style="stroke:#A80036;stroke-width:1.5;" width="132" x="977.005" y="461"/><ellipse cx="1007.755" cy="477" fill="#ADD1B2" rx="11" ry="11" style="stroke:#A80036;stroke-width:1.0;"/><path d="M1010.0988,472.6719 C1009.1613,472.2344 1008.5675,472.0938 1007.6925,472.0938 C1005.0675,472.0938 1003.0675,474.1719 1003.0675,476.8906 L1003.0675,478.0156 C1003.0675,480.5938 1005.1769,482.4844 1008.0675,482.4844 C1009.2863,482.4844 1010.4425,482.1875 1011.1925,481.6406 C1011.7706,481.2344 1012.0988,480.7813 1012.0988,480.3906 C1012.0988,479.9375 1011.7081,479.5469 1011.2394,479.5469 C1011.0206,479.5469 1010.8175,479.625 1010.63,479.8125 C1010.1769,480.2969 1010.1769,480.2969 1009.9894,480.3906 C1009.5675,480.6563 1008.88,480.7813 1008.1144,480.7813 C1006.0675,480.7813 1004.7706,479.6875 1004.7706,477.9844 L1004.7706,476.8906 C1004.7706,475.1094 1006.0206,473.7969 1007.755,473.7969 C1008.3331,473.7969 1008.9425,473.9531 1009.4113,474.2031 C1009.8956,474.4844 1010.0675,474.7031 1010.1613,475.1094 C1010.2238,475.5156 1010.255,475.6406 1010.3956,475.7656 C1010.5363,475.9063 1010.7706,476.0156 1010.9894,476.0156 C1011.255,476.0156 1011.5206,475.875 1011.6925,475.6563 C1011.8019,475.5 1011.8331,475.3125 1011.8331,474.8906 L1011.8331,473.4688 C1011.8331,473.0313 1011.8175,472.9063 1011.7238,472.75 C1011.5675,472.4844 1011.2863,472.3438 1010.9894,472.3438 C1010.6925,472.3438 1010.4894,472.4375 1010.2706,472.75 L1010.0988,472.6719 Z " fill="#000000"/><text fill="#000000" font-family="sans-serif" font-size="12" lengthAdjust="spacingAndGlyphs" textLength="65" x="1025.255" y="481.1543">ResultView</text><line style="stroke:#A80036;stroke-width:1.5;" x1="978.005" x2="1108.005" y1="493" y2="493"/><line style="stroke:#A80036;stroke-width:1.5;" x1="978.005" x2="1108.005" y1="501" y2="501"/><polygon fill="#4177AF" points="988.005,508,984.005,514,992.005,514" style="stroke:#1963A0;stroke-width:1.0;"/><text fill="#000000" font-family="sans-serif" font-size="11" lengthAdjust="spacingAndGlyphs" textLength="106" x="997.005" y="515.2104">ResultView(Result)</text><polygon fill="#4177AF" points="988.005,520.8047,984.005,526.8047,992.005,526.8047" style="stroke:#1963A0;stroke-width:1.0;"/><text fill="#000000" font-family="sans-serif" font-size="11" lengthAdjust="spacingAndGlyphs" textLength="46" x="997.005" y="528.0151">writeln()</text><!--MD5=[319c5dc11669ced95ee1d652131436b7]
class usantatecla.mastermind.views.ProposalView--><rect codeLine="65" fill="#FEFECE" filter="url(#ftngdygonx8ao)" height="73.6094" id="usantatecla.mastermind.views.ProposalView" style="stroke:#A80036;stroke-width:1.5;" width="144" x="1414.007" y="175"/><ellipse cx="1442.957" cy="191" fill="#ADD1B2" rx="11" ry="11" style="stroke:#A80036;stroke-width:1.0;"/><path d="M1445.3007,186.6719 C1444.3632,186.2344 1443.7695,186.0938 1442.8945,186.0938 C1440.2695,186.0938 1438.2695,188.1719 1438.2695,190.8906 L1438.2695,192.0156 C1438.2695,194.5938 1440.3789,196.4844 1443.2695,196.4844 C1444.4882,196.4844 1445.6445,196.1875 1446.3945,195.6406 C1446.9726,195.2344 1447.3007,194.7813 1447.3007,194.3906 C1447.3007,193.9375 1446.9101,193.5469 1446.4414,193.5469 C1446.2226,193.5469 1446.0195,193.625 1445.832,193.8125 C1445.3789,194.2969 1445.3789,194.2969 1445.1914,194.3906 C1444.7695,194.6563 1444.082,194.7813 1443.3164,194.7813 C1441.2695,194.7813 1439.9726,193.6875 1439.9726,191.9844 L1439.9726,190.8906 C1439.9726,189.1094 1441.2226,187.7969 1442.957,187.7969 C1443.5351,187.7969 1444.1445,187.9531 1444.6132,188.2031 C1445.0976,188.4844 1445.2695,188.7031 1445.3632,189.1094 C1445.4257,189.5156 1445.457,189.6406 1445.5976,189.7656 C1445.7382,189.9063 1445.9726,190.0156 1446.1914,190.0156 C1446.457,190.0156 1446.7226,189.875 1446.8945,189.6563 C1447.0039,189.5 1447.0351,189.3125 1447.0351,188.8906 L1447.0351,187.4688 C1447.0351,187.0313 1447.0195,186.9063 1446.9257,186.75 C1446.7695,186.4844 1446.4882,186.3438 1446.1914,186.3438 C1445.8945,186.3438 1445.6914,186.4375 1445.4726,186.75 L1445.3007,186.6719 Z " fill="#000000"/><text fill="#000000" font-family="sans-serif" font-size="12" lengthAdjust="spacingAndGlyphs" textLength="81" x="1460.057" y="195.1543">ProposalView</text><line style="stroke:#A80036;stroke-width:1.5;" x1="1415.007" x2="1557.007" y1="207" y2="207"/><line style="stroke:#A80036;stroke-width:1.5;" x1="1415.007" x2="1557.007" y1="215" y2="215"/><polygon fill="#4177AF" points="1425.007,222,1421.007,228,1429.007,228" style="stroke:#1963A0;stroke-width:1.0;"/><text fill="#000000" font-family="sans-serif" font-size="11" lengthAdjust="spacingAndGlyphs" textLength="118" x="1434.007" y="229.2104">ProposalView(Game)</text><polygon fill="#4177AF" points="1425.007,234.8047,1421.007,240.8047,1429.007,240.8047" style="stroke:#1963A0;stroke-width:1.0;"/><text fill="#000000" font-family="sans-serif" font-size="11" lengthAdjust="spacingAndGlyphs" textLength="104" x="1434.007" y="242.0151">interact(): boolean</text><!--MD5=[f2328b4c97b842ac1a4522e7c76a3a7f]
class usantatecla.mastermind.views.ResumeView--><rect codeLine="94" fill="#FEFECE" filter="url(#ftngdygonx8ao)" height="73.6094" id="usantatecla.mastermind.views.ResumeView" style="stroke:#A80036;stroke-width:1.5;" width="144" x="1630.007" y="175"/><ellipse cx="1660.757" cy="191" fill="#ADD1B2" rx="11" ry="11" style="stroke:#A80036;stroke-width:1.0;"/><path d="M1663.1007,186.6719 C1662.1632,186.2344 1661.5695,186.0938 1660.6945,186.0938 C1658.0695,186.0938 1656.0695,188.1719 1656.0695,190.8906 L1656.0695,192.0156 C1656.0695,194.5938 1658.1789,196.4844 1661.0695,196.4844 C1662.2882,196.4844 1663.4445,196.1875 1664.1945,195.6406 C1664.7726,195.2344 1665.1007,194.7813 1665.1007,194.3906 C1665.1007,193.9375 1664.7101,193.5469 1664.2414,193.5469 C1664.0226,193.5469 1663.8195,193.625 1663.632,193.8125 C1663.1789,194.2969 1663.1789,194.2969 1662.9914,194.3906 C1662.5695,194.6563 1661.882,194.7813 1661.1164,194.7813 C1659.0695,194.7813 1657.7726,193.6875 1657.7726,191.9844 L1657.7726,190.8906 C1657.7726,189.1094 1659.0226,187.7969 1660.757,187.7969 C1661.3351,187.7969 1661.9445,187.9531 1662.4132,188.2031 C1662.8976,188.4844 1663.0695,188.7031 1663.1632,189.1094 C1663.2257,189.5156 1663.257,189.6406 1663.3976,189.7656 C1663.5382,189.9063 1663.7726,190.0156 1663.9914,190.0156 C1664.257,190.0156 1664.5226,189.875 1664.6945,189.6563 C1664.8039,189.5 1664.8351,189.3125 1664.8351,188.8906 L1664.8351,187.4688 C1664.8351,187.0313 1664.8195,186.9063 1664.7257,186.75 C1664.5695,186.4844 1664.2882,186.3438 1663.9914,186.3438 C1663.6945,186.3438 1663.4914,186.4375 1663.2726,186.75 L1663.1007,186.6719 Z " fill="#000000"/><text fill="#000000" font-family="sans-serif" font-size="12" lengthAdjust="spacingAndGlyphs" textLength="77" x="1678.257" y="195.1543">ResumeView</text><line style="stroke:#A80036;stroke-width:1.5;" x1="1631.007" x2="1773.007" y1="207" y2="207"/><line style="stroke:#A80036;stroke-width:1.5;" x1="1631.007" x2="1773.007" y1="215" y2="215"/><polygon fill="#4177AF" points="1641.007,222,1637.007,228,1645.007,228" style="stroke:#1963A0;stroke-width:1.0;"/><text fill="#000000" font-family="sans-serif" font-size="11" lengthAdjust="spacingAndGlyphs" textLength="118" x="1650.007" y="229.2104">ResumeView(Game)</text><polygon fill="#4177AF" points="1641.007,234.8047,1637.007,240.8047,1645.007,240.8047" style="stroke:#1963A0;stroke-width:1.0;"/><text fill="#000000" font-family="sans-serif" font-size="11" lengthAdjust="spacingAndGlyphs" textLength="104" x="1650.007" y="242.0151">interact(): boolean</text><!--MD5=[ee0b5fdabe0a489c3962ab40c84a426b]
class usantatecla.mastermind.views.StartView--><rect codeLine="109" fill="#FEFECE" filter="url(#ftngdygonx8ao)" height="60.8047" id="usantatecla.mastermind.views.StartView" style="stroke:#A80036;stroke-width:1.5;" width="89" x="1549.507" y="321.5"/><ellipse cx="1564.507" cy="337.5" fill="#ADD1B2" rx="11" ry="11" style="stroke:#A80036;stroke-width:1.0;"/><path d="M1566.8507,333.1719 C1565.9132,332.7344 1565.3195,332.5938 1564.4445,332.5938 C1561.8195,332.5938 1559.8195,334.6719 1559.8195,337.3906 L1559.8195,338.5156 C1559.8195,341.0938 1561.9289,342.9844 1564.8195,342.9844 C1566.0382,342.9844 1567.1945,342.6875 1567.9445,342.1406 C1568.5226,341.7344 1568.8507,341.2813 1568.8507,340.8906 C1568.8507,340.4375 1568.4601,340.0469 1567.9914,340.0469 C1567.7726,340.0469 1567.5695,340.125 1567.382,340.3125 C1566.9289,340.7969 1566.9289,340.7969 1566.7414,340.8906 C1566.3195,341.1563 1565.632,341.2813 1564.8664,341.2813 C1562.8195,341.2813 1561.5226,340.1875 1561.5226,338.4844 L1561.5226,337.3906 C1561.5226,335.6094 1562.7726,334.2969 1564.507,334.2969 C1565.0851,334.2969 1565.6945,334.4531 1566.1632,334.7031 C1566.6476,334.9844 1566.8195,335.2031 1566.9132,335.6094 C1566.9757,336.0156 1567.007,336.1406 1567.1476,336.2656 C1567.2882,336.4063 1567.5226,336.5156 1567.7414,336.5156 C1568.007,336.5156 1568.2726,336.375 1568.4445,336.1563 C1568.5539,336 1568.5851,335.8125 1568.5851,335.3906 L1568.5851,333.9688 C1568.5851,333.5313 1568.5695,333.4063 1568.4757,333.25 C1568.3195,332.9844 1568.0382,332.8438 1567.7414,332.8438 C1567.4445,332.8438 1567.2414,332.9375 1567.0226,333.25 L1566.8507,333.1719 Z " fill="#000000"/><text fill="#000000" font-family="sans-serif" font-size="12" lengthAdjust="spacingAndGlyphs" textLength="57" x="1578.507" y="341.6543">StartView</text><line style="stroke:#A80036;stroke-width:1.5;" x1="1550.507" x2="1637.507" y1="353.5" y2="353.5"/><line style="stroke:#A80036;stroke-width:1.5;" x1="1550.507" x2="1637.507" y1="361.5" y2="361.5"/><polygon fill="#4177AF" points="1560.507,368.5,1556.507,374.5,1564.507,374.5" style="stroke:#1963A0;stroke-width:1.0;"/><text fill="#000000" font-family="sans-serif" font-size="11" lengthAdjust="spacingAndGlyphs" textLength="51" x="1569.507" y="375.7104">interact()</text><!--MD5=[f5534db0476bcf0d5af6a596dc954aba]
class usantatecla.mastermind.views.View--><rect codeLine="115" fill="#FEFECE" filter="url(#ftngdygonx8ao)" height="73.6094" id="usantatecla.mastermind.views.View" style="stroke:#A80036;stroke-width:1.5;" width="97" x="1639.507" y="41"/><ellipse cx="1670.707" cy="57" fill="#ADD1B2" rx="11" ry="11" style="stroke:#A80036;stroke-width:1.0;"/><path d="M1673.0507,52.6719 C1672.1132,52.2344 1671.5195,52.0938 1670.6445,52.0938 C1668.0195,52.0938 1666.0195,54.1719 1666.0195,56.8906 L1666.0195,58.0156 C1666.0195,60.5938 1668.1289,62.4844 1671.0195,62.4844 C1672.2382,62.4844 1673.3945,62.1875 1674.1445,61.6406 C1674.7226,61.2344 1675.0507,60.7813 1675.0507,60.3906 C1675.0507,59.9375 1674.6601,59.5469 1674.1914,59.5469 C1673.9726,59.5469 1673.7695,59.625 1673.582,59.8125 C1673.1289,60.2969 1673.1289,60.2969 1672.9414,60.3906 C1672.5195,60.6563 1671.832,60.7813 1671.0664,60.7813 C1669.0195,60.7813 1667.7226,59.6875 1667.7226,57.9844 L1667.7226,56.8906 C1667.7226,55.1094 1668.9726,53.7969 1670.707,53.7969 C1671.2851,53.7969 1671.8945,53.9531 1672.3632,54.2031 C1672.8476,54.4844 1673.0195,54.7031 1673.1132,55.1094 C1673.1757,55.5156 1673.207,55.6406 1673.3476,55.7656 C1673.4882,55.9063 1673.7226,56.0156 1673.9414,56.0156 C1674.207,56.0156 1674.4726,55.875 1674.6445,55.6563 C1674.7539,55.5 1674.7851,55.3125 1674.7851,54.8906 L1674.7851,53.4688 C1674.7851,53.0313 1674.7695,52.9063 1674.6757,52.75 C1674.5195,52.4844 1674.2382,52.3438 1673.9414,52.3438 C1673.6445,52.3438 1673.4414,52.4375 1673.2226,52.75 L1673.0507,52.6719 Z " fill="#000000"/><text fill="#000000" font-family="sans-serif" font-size="12" lengthAdjust="spacingAndGlyphs" textLength="29" x="1688.307" y="61.1543">View</text><line style="stroke:#A80036;stroke-width:1.5;" x1="1640.507" x2="1735.507" y1="73" y2="73"/><line style="stroke:#A80036;stroke-width:1.5;" x1="1640.507" x2="1735.507" y1="81" y2="81"/><ellipse cx="1650.507" cy="92" fill="#84BE84" rx="3" ry="3" style="stroke:#038048;stroke-width:1.0;"/><text fill="#000000" font-family="sans-serif" font-size="11" lengthAdjust="spacingAndGlyphs" textLength="71" x="1659.507" y="95.2104">View(Game)</text><ellipse cx="1650.507" cy="104.8047" fill="#84BE84" rx="3" ry="3" style="stroke:#038048;stroke-width:1.0;"/><text fill="#000000" font-family="sans-serif" font-size="11" lengthAdjust="spacingAndGlyphs" textLength="51" x="1659.507" y="108.0151">interact()</text><!--MD5=[ce3aceb15685c4a66d1e1b8ea7e2c984]
class ColorCode--><rect codeLine="1" fill="#FEFECE" filter="url(#ftngdygonx8ao)" height="67.9063" id="ColorCode" style="stroke:#A80036;stroke-width:1.5;" width="133" x="1130.507" y="1016"/><ellipse cx="1145.507" cy="1041.9531" fill="#ADD1B2" rx="11" ry="11" style="stroke:#A80036;stroke-width:1.0;"/><path d="M1147.8507,1037.625 C1146.9132,1037.1875 1146.3195,1037.0469 1145.4445,1037.0469 C1142.8195,1037.0469 1140.8195,1039.125 1140.8195,1041.8438 L1140.8195,1042.9688 C1140.8195,1045.5469 1142.9289,1047.4375 1145.8195,1047.4375 C1147.0382,1047.4375 1148.1945,1047.1406 1148.9445,1046.5938 C1149.5226,1046.1875 1149.8507,1045.7344 1149.8507,1045.3438 C1149.8507,1044.8906 1149.4601,1044.5 1148.9914,1044.5 C1148.7726,1044.5 1148.5695,1044.5781 1148.382,1044.7656 C1147.9289,1045.25 1147.9289,1045.25 1147.7414,1045.3438 C1147.3195,1045.6094 1146.632,1045.7344 1145.8664,1045.7344 C1143.8195,1045.7344 1142.5226,1044.6406 1142.5226,1042.9375 L1142.5226,1041.8438 C1142.5226,1040.0625 1143.7726,1038.75 1145.507,1038.75 C1146.0851,1038.75 1146.6945,1038.9063 1147.1632,1039.1563 C1147.6476,1039.4375 1147.8195,1039.6563 1147.9132,1040.0625 C1147.9757,1040.4688 1148.007,1040.5938 1148.1476,1040.7188 C1148.2882,1040.8594 1148.5226,1040.9688 1148.7414,1040.9688 C1149.007,1040.9688 1149.2726,1040.8281 1149.4445,1040.6094 C1149.5539,1040.4531 1149.5851,1040.2656 1149.5851,1039.8438 L1149.5851,1038.4219 C1149.5851,1037.9844 1149.5695,1037.8594 1149.4757,1037.7031 C1149.3195,1037.4375 1149.0382,1037.2969 1148.7414,1037.2969 C1148.4445,1037.2969 1148.2414,1037.3906 1148.0226,1037.7031 L1147.8507,1037.625 Z " fill="#000000"/><text fill="#000000" font-family="sans-serif" font-size="12" lengthAdjust="spacingAndGlyphs" textLength="71" x="1174.507" y="1032.1387">usantatecla.</text><text fill="#000000" font-family="sans-serif" font-size="12" lengthAdjust="spacingAndGlyphs" textLength="101" x="1159.507" y="1046.1074">mastermind.utils.</text><text fill="#000000" font-family="sans-serif" font-size="12" lengthAdjust="spacingAndGlyphs" textLength="64" x="1178.007" y="1060.0762">ColorCode</text><line style="stroke:#A80036;stroke-width:1.5;" x1="1131.507" x2="1262.507" y1="1067.9063" y2="1067.9063"/><line style="stroke:#A80036;stroke-width:1.5;" x1="1131.507" x2="1262.507" y1="1075.9063" y2="1075.9063"/><!--MD5=[b8cfd8c4119a3b0a7a46bfc5fc780f85]
class Error--><rect codeLine="2" fill="#FEFECE" filter="url(#ftngdygonx8ao)" height="67.9063" id="Error" style="stroke:#A80036;stroke-width:1.5;" width="154" x="348.005" y="680.5"/><ellipse cx="363.005" cy="706.4531" fill="#ADD1B2" rx="11" ry="11" style="stroke:#A80036;stroke-width:1.0;"/><path d="M365.3488,702.125 C364.4113,701.6875 363.8175,701.5469 362.9425,701.5469 C360.3175,701.5469 358.3175,703.625 358.3175,706.3438 L358.3175,707.4688 C358.3175,710.0469 360.4269,711.9375 363.3175,711.9375 C364.5363,711.9375 365.6925,711.6406 366.4425,711.0938 C367.0206,710.6875 367.3488,710.2344 367.3488,709.8438 C367.3488,709.3906 366.9581,709 366.4894,709 C366.2706,709 366.0675,709.0781 365.88,709.2656 C365.4269,709.75 365.4269,709.75 365.2394,709.8438 C364.8175,710.1094 364.13,710.2344 363.3644,710.2344 C361.3175,710.2344 360.0206,709.1406 360.0206,707.4375 L360.0206,706.3438 C360.0206,704.5625 361.2706,703.25 363.005,703.25 C363.5831,703.25 364.1925,703.4063 364.6613,703.6563 C365.1456,703.9375 365.3175,704.1563 365.4113,704.5625 C365.4738,704.9688 365.505,705.0938 365.6456,705.2188 C365.7863,705.3594 366.0206,705.4688 366.2394,705.4688 C366.505,705.4688 366.7706,705.3281 366.9425,705.1094 C367.0519,704.9531 367.0831,704.7656 367.0831,704.3438 L367.0831,702.9219 C367.0831,702.4844 367.0675,702.3594 366.9738,702.2031 C366.8175,701.9375 366.5363,701.7969 366.2394,701.7969 C365.9425,701.7969 365.7394,701.8906 365.5206,702.2031 L365.3488,702.125 Z " fill="#000000"/><text fill="#000000" font-family="sans-serif" font-size="12" lengthAdjust="spacingAndGlyphs" textLength="71" x="402.505" y="696.6387">usantatecla.</text><text fill="#000000" font-family="sans-serif" font-size="12" lengthAdjust="spacingAndGlyphs" textLength="122" x="377.005" y="710.6074">mastermind.models.</text><text fill="#000000" font-family="sans-serif" font-size="12" lengthAdjust="spacingAndGlyphs" textLength="30" x="423.005" y="724.5762">Error</text><line style="stroke:#A80036;stroke-width:1.5;" x1="349.005" x2="501.005" y1="732.4063" y2="732.4063"/><line style="stroke:#A80036;stroke-width:1.5;" x1="349.005" x2="501.005" y1="740.4063" y2="740.4063"/><!--MD5=[18eee71c88ab61f27581b8cbdd3ef5ee]
class Color--><rect codeLine="3" fill="#FEFECE" filter="url(#ftngdygonx8ao)" height="67.9063" id="Color" style="stroke:#A80036;stroke-width:1.5;" width="154" x="1356.007" y="888"/><ellipse cx="1371.007" cy="913.9531" fill="#ADD1B2" rx="11" ry="11" style="stroke:#A80036;stroke-width:1.0;"/><path d="M1373.3507,909.625 C1372.4132,909.1875 1371.8195,909.0469 1370.9445,909.0469 C1368.3195,909.0469 1366.3195,911.125 1366.3195,913.8438 L1366.3195,914.9688 C1366.3195,917.5469 1368.4289,919.4375 1371.3195,919.4375 C1372.5382,919.4375 1373.6945,919.1406 1374.4445,918.5938 C1375.0226,918.1875 1375.3507,917.7344 1375.3507,917.3438 C1375.3507,916.8906 1374.9601,916.5 1374.4914,916.5 C1374.2726,916.5 1374.0695,916.5781 1373.882,916.7656 C1373.4289,917.25 1373.4289,917.25 1373.2414,917.3438 C1372.8195,917.6094 1372.132,917.7344 1371.3664,917.7344 C1369.3195,917.7344 1368.0226,916.6406 1368.0226,914.9375 L1368.0226,913.8438 C1368.0226,912.0625 1369.2726,910.75 1371.007,910.75 C1371.5851,910.75 1372.1945,910.9063 1372.6632,911.1563 C1373.1476,911.4375 1373.3195,911.6563 1373.4132,912.0625 C1373.4757,912.4688 1373.507,912.5938 1373.6476,912.7188 C1373.7882,912.8594 1374.0226,912.9688 1374.2414,912.9688 C1374.507,912.9688 1374.7726,912.8281 1374.9445,912.6094 C1375.0539,912.4531 1375.0851,912.2656 1375.0851,911.8438 L1375.0851,910.4219 C1375.0851,909.9844 1375.0695,909.8594 1374.9757,909.7031 C1374.8195,909.4375 1374.5382,909.2969 1374.2414,909.2969 C1373.9445,909.2969 1373.7414,909.3906 1373.5226,909.7031 L1373.3507,909.625 Z " fill="#000000"/><text fill="#000000" font-family="sans-serif" font-size="12" lengthAdjust="spacingAndGlyphs" textLength="71" x="1410.507" y="904.1387">usantatecla.</text><text fill="#000000" font-family="sans-serif" font-size="12" lengthAdjust="spacingAndGlyphs" textLength="122" x="1385.007" y="918.1074">mastermind.models.</text><text fill="#000000" font-family="sans-serif" font-size="12" lengthAdjust="spacingAndGlyphs" textLength="32" x="1430.007" y="932.0762">Color</text><line style="stroke:#A80036;stroke-width:1.5;" x1="1357.007" x2="1509.007" y1="939.9063" y2="939.9063"/><line style="stroke:#A80036;stroke-width:1.5;" x1="1357.007" x2="1509.007" y1="947.9063" y2="947.9063"/><!--MD5=[28491d17d5ee38c9c116625a5ffc259a]
class Combination--><rect codeLine="4" fill="#FEFECE" filter="url(#ftngdygonx8ao)" height="67.9063" id="Combination" style="stroke:#A80036;stroke-width:1.5;" width="156" x="608.005" y="680.5"/><ellipse cx="623.005" cy="706.4531" fill="#A9DCDF" rx="11" ry="11" style="stroke:#A80036;stroke-width:1.0;"/><path d="M625.0831,708.2656 L625.4738,709.25 L625.0831,709.25 C624.63,709.25 624.5206,709.2656 624.3644,709.375 C624.1144,709.5313 623.9581,709.8125 623.9581,710.1094 C623.9581,710.375 624.0988,710.625 624.3175,710.7813 C624.4581,710.9063 624.6613,710.9531 625.0831,710.9531 L627.4425,710.9531 C627.8019,710.9531 628.0206,710.9219 628.1613,710.8281 C628.4113,710.6875 628.5675,710.3906 628.5675,710.1094 C628.5675,709.8281 628.4269,709.5781 628.2081,709.4219 C628.0363,709.2813 627.88,709.25 627.4113,709.25 L624.0206,701.0469 L620.3488,701.0469 C619.8956,701.0469 619.7706,701.0625 619.6144,701.1563 C619.3644,701.3281 619.2081,701.6094 619.2081,701.8906 C619.2081,702.1719 619.3488,702.4219 619.5675,702.5938 C619.7394,702.7031 619.9113,702.7344 620.3488,702.7344 L621.4269,702.7344 L618.7863,709.25 C618.3644,709.25 618.2081,709.2656 618.0519,709.375 C617.8019,709.5313 617.6456,709.8125 617.6456,710.1094 C617.6456,710.6719 618.0206,710.9531 618.7706,710.9531 L621.0363,710.9531 C621.3956,710.9531 621.6144,710.9219 621.7394,710.8281 C622.005,710.6875 622.1456,710.3906 622.1456,710.1094 C622.1456,709.8281 622.0206,709.5781 621.8019,709.4063 C621.63,709.2813 621.4894,709.25 621.0363,709.25 L620.6456,709.25 L621.0363,708.2656 L625.0831,708.2656 Z M624.38,706.5625 L621.7081,706.5625 L623.0519,703.2969 L624.38,706.5625 Z " fill="#000000"/><text fill="#000000" font-family="sans-serif" font-size="12" font-style="italic" lengthAdjust="spacingAndGlyphs" textLength="74" x="662.005" y="696.6387">usantatecla.</text><text fill="#000000" font-family="sans-serif" font-size="12" font-style="italic" lengthAdjust="spacingAndGlyphs" textLength="124" x="637.005" y="710.6074">mastermind.models.</text><text fill="#000000" font-family="sans-serif" font-size="12" font-style="italic" lengthAdjust="spacingAndGlyphs" textLength="76" x="661.005" y="724.5762">Combination</text><line style="stroke:#A80036;stroke-width:1.5;" x1="609.005" x2="763.005" y1="732.4063" y2="732.4063"/><line style="stroke:#A80036;stroke-width:1.5;" x1="609.005" x2="763.005" y1="740.4063" y2="740.4063"/><!--MD5=[cf489b19c51ee25e76ddca093e62e620]
class ProposedCombination--><rect codeLine="5" fill="#FEFECE" filter="url(#ftngdygonx8ao)" height="67.9063" id="ProposedCombination" style="stroke:#A80036;stroke-width:1.5;" width="164" x="1806.007" y="680.5"/><ellipse cx="1821.007" cy="706.4531" fill="#ADD1B2" rx="11" ry="11" style="stroke:#A80036;stroke-width:1.0;"/><path d="M1823.3507,702.125 C1822.4132,701.6875 1821.8195,701.5469 1820.9445,701.5469 C1818.3195,701.5469 1816.3195,703.625 1816.3195,706.3438 L1816.3195,707.4688 C1816.3195,710.0469 1818.4289,711.9375 1821.3195,711.9375 C1822.5382,711.9375 1823.6945,711.6406 1824.4445,711.0938 C1825.0226,710.6875 1825.3507,710.2344 1825.3507,709.8438 C1825.3507,709.3906 1824.9601,709 1824.4914,709 C1824.2726,709 1824.0695,709.0781 1823.882,709.2656 C1823.4289,709.75 1823.4289,709.75 1823.2414,709.8438 C1822.8195,710.1094 1822.132,710.2344 1821.3664,710.2344 C1819.3195,710.2344 1818.0226,709.1406 1818.0226,707.4375 L1818.0226,706.3438 C1818.0226,704.5625 1819.2726,703.25 1821.007,703.25 C1821.5851,703.25 1822.1945,703.4063 1822.6632,703.6563 C1823.1476,703.9375 1823.3195,704.1563 1823.4132,704.5625 C1823.4757,704.9688 1823.507,705.0938 1823.6476,705.2188 C1823.7882,705.3594 1824.0226,705.4688 1824.2414,705.4688 C1824.507,705.4688 1824.7726,705.3281 1824.9445,705.1094 C1825.0539,704.9531 1825.0851,704.7656 1825.0851,704.3438 L1825.0851,702.9219 C1825.0851,702.4844 1825.0695,702.3594 1824.9757,702.2031 C1824.8195,701.9375 1824.5382,701.7969 1824.2414,701.7969 C1823.9445,701.7969 1823.7414,701.8906 1823.5226,702.2031 L1823.3507,702.125 Z " fill="#000000"/><text fill="#000000" font-family="sans-serif" font-size="12" lengthAdjust="spacingAndGlyphs" textLength="71" x="1865.507" y="696.6387">usantatecla.</text><text fill="#000000" font-family="sans-serif" font-size="12" lengthAdjust="spacingAndGlyphs" textLength="122" x="1840.007" y="710.6074">mastermind.models.</text><text fill="#000000" font-family="sans-serif" font-size="12" lengthAdjust="spacingAndGlyphs" textLength="132" x="1835.007" y="724.5762">ProposedCombination</text><line style="stroke:#A80036;stroke-width:1.5;" x1="1807.007" x2="1969.007" y1="732.4063" y2="732.4063"/><line style="stroke:#A80036;stroke-width:1.5;" x1="1807.007" x2="1969.007" y1="740.4063" y2="740.4063"/><!--MD5=[2741598bdf59a7d7e0d5c97658fd3022]
class Result--><rect codeLine="6" fill="#FEFECE" filter="url(#ftngdygonx8ao)" height="67.9063" id="Result" style="stroke:#A80036;stroke-width:1.5;" width="154" x="159.005" y="680.5"/><ellipse cx="174.005" cy="706.4531" fill="#ADD1B2" rx="11" ry="11" style="stroke:#A80036;stroke-width:1.0;"/><path d="M176.3488,702.125 C175.4113,701.6875 174.8175,701.5469 173.9425,701.5469 C171.3175,701.5469 169.3175,703.625 169.3175,706.3438 L169.3175,707.4688 C169.3175,710.0469 171.4269,711.9375 174.3175,711.9375 C175.5363,711.9375 176.6925,711.6406 177.4425,711.0938 C178.0206,710.6875 178.3488,710.2344 178.3488,709.8438 C178.3488,709.3906 177.9581,709 177.4894,709 C177.2706,709 177.0675,709.0781 176.88,709.2656 C176.4269,709.75 176.4269,709.75 176.2394,709.8438 C175.8175,710.1094 175.13,710.2344 174.3644,710.2344 C172.3175,710.2344 171.0206,709.1406 171.0206,707.4375 L171.0206,706.3438 C171.0206,704.5625 172.2706,703.25 174.005,703.25 C174.5831,703.25 175.1925,703.4063 175.6613,703.6563 C176.1456,703.9375 176.3175,704.1563 176.4113,704.5625 C176.4738,704.9688 176.505,705.0938 176.6456,705.2188 C176.7863,705.3594 177.0206,705.4688 177.2394,705.4688 C177.505,705.4688 177.7706,705.3281 177.9425,705.1094 C178.0519,704.9531 178.0831,704.7656 178.0831,704.3438 L178.0831,702.9219 C178.0831,702.4844 178.0675,702.3594 177.9738,702.2031 C177.8175,701.9375 177.5363,701.7969 177.2394,701.7969 C176.9425,701.7969 176.7394,701.8906 176.5206,702.2031 L176.3488,702.125 Z " fill="#000000"/><text fill="#000000" font-family="sans-serif" font-size="12" lengthAdjust="spacingAndGlyphs" textLength="71" x="213.505" y="696.6387">usantatecla.</text><text fill="#000000" font-family="sans-serif" font-size="12" lengthAdjust="spacingAndGlyphs" textLength="122" x="188.005" y="710.6074">mastermind.models.</text><text fill="#000000" font-family="sans-serif" font-size="12" lengthAdjust="spacingAndGlyphs" textLength="36" x="231.005" y="724.5762">Result</text><line style="stroke:#A80036;stroke-width:1.5;" x1="160.005" x2="312.005" y1="732.4063" y2="732.4063"/><line style="stroke:#A80036;stroke-width:1.5;" x1="160.005" x2="312.005" y1="740.4063" y2="740.4063"/><!--MD5=[b6dcce5e5ef3c84b0b048d11301373dd]
class Game--><rect codeLine="7" fill="#FEFECE" filter="url(#ftngdygonx8ao)" height="67.9063" id="Game" style="stroke:#A80036;stroke-width:1.5;" width="154" x="1809.007" y="178"/><ellipse cx="1824.007" cy="203.9531" fill="#ADD1B2" rx="11" ry="11" style="stroke:#A80036;stroke-width:1.0;"/><path d="M1826.3507,199.625 C1825.4132,199.1875 1824.8195,199.0469 1823.9445,199.0469 C1821.3195,199.0469 1819.3195,201.125 1819.3195,203.8438 L1819.3195,204.9688 C1819.3195,207.5469 1821.4289,209.4375 1824.3195,209.4375 C1825.5382,209.4375 1826.6945,209.1406 1827.4445,208.5938 C1828.0226,208.1875 1828.3507,207.7344 1828.3507,207.3438 C1828.3507,206.8906 1827.9601,206.5 1827.4914,206.5 C1827.2726,206.5 1827.0695,206.5781 1826.882,206.7656 C1826.4289,207.25 1826.4289,207.25 1826.2414,207.3438 C1825.8195,207.6094 1825.132,207.7344 1824.3664,207.7344 C1822.3195,207.7344 1821.0226,206.6406 1821.0226,204.9375 L1821.0226,203.8438 C1821.0226,202.0625 1822.2726,200.75 1824.007,200.75 C1824.5851,200.75 1825.1945,200.9063 1825.6632,201.1563 C1826.1476,201.4375 1826.3195,201.6563 1826.4132,202.0625 C1826.4757,202.4688 1826.507,202.5938 1826.6476,202.7188 C1826.7882,202.8594 1827.0226,202.9688 1827.2414,202.9688 C1827.507,202.9688 1827.7726,202.8281 1827.9445,202.6094 C1828.0539,202.4531 1828.0851,202.2656 1828.0851,201.8438 L1828.0851,200.4219 C1828.0851,199.9844 1828.0695,199.8594 1827.9757,199.7031 C1827.8195,199.4375 1827.5382,199.2969 1827.2414,199.2969 C1826.9445,199.2969 1826.7414,199.3906 1826.5226,199.7031 L1826.3507,199.625 Z " fill="#000000"/><text fill="#000000" font-family="sans-serif" font-size="12" lengthAdjust="spacingAndGlyphs" textLength="71" x="1863.507" y="194.1387">usantatecla.</text><text fill="#000000" font-family="sans-serif" font-size="12" lengthAdjust="spacingAndGlyphs" textLength="122" x="1838.007" y="208.1074">mastermind.models.</text><text fill="#000000" font-family="sans-serif" font-size="12" lengthAdjust="spacingAndGlyphs" textLength="35" x="1881.507" y="222.0762">Game</text><line style="stroke:#A80036;stroke-width:1.5;" x1="1810.007" x2="1962.007" y1="229.9063" y2="229.9063"/><line style="stroke:#A80036;stroke-width:1.5;" x1="1810.007" x2="1962.007" y1="237.9063" y2="237.9063"/><!--MD5=[d93cf99d2b92276f27fe8dbf15140505]
class YesNoDialog--><rect codeLine="8" fill="#FEFECE" filter="url(#ftngdygonx8ao)" height="67.9063" id="YesNoDialog" style="stroke:#A80036;stroke-width:1.5;" width="108" x="1880.007" y="464"/><ellipse cx="1895.007" cy="489.9531" fill="#ADD1B2" rx="11" ry="11" style="stroke:#A80036;stroke-width:1.0;"/><path d="M1897.3507,485.625 C1896.4132,485.1875 1895.8195,485.0469 1894.9445,485.0469 C1892.3195,485.0469 1890.3195,487.125 1890.3195,489.8438 L1890.3195,490.9688 C1890.3195,493.5469 1892.4289,495.4375 1895.3195,495.4375 C1896.5382,495.4375 1897.6945,495.1406 1898.4445,494.5938 C1899.0226,494.1875 1899.3507,493.7344 1899.3507,493.3438 C1899.3507,492.8906 1898.9601,492.5 1898.4914,492.5 C1898.2726,492.5 1898.0695,492.5781 1897.882,492.7656 C1897.4289,493.25 1897.4289,493.25 1897.2414,493.3438 C1896.8195,493.6094 1896.132,493.7344 1895.3664,493.7344 C1893.3195,493.7344 1892.0226,492.6406 1892.0226,490.9375 L1892.0226,489.8438 C1892.0226,488.0625 1893.2726,486.75 1895.007,486.75 C1895.5851,486.75 1896.1945,486.9063 1896.6632,487.1563 C1897.1476,487.4375 1897.3195,487.6563 1897.4132,488.0625 C1897.4757,488.4688 1897.507,488.5938 1897.6476,488.7188 C1897.7882,488.8594 1898.0226,488.9688 1898.2414,488.9688 C1898.507,488.9688 1898.7726,488.8281 1898.9445,488.6094 C1899.0539,488.4531 1899.0851,488.2656 1899.0851,487.8438 L1899.0851,486.4219 C1899.0851,485.9844 1899.0695,485.8594 1898.9757,485.7031 C1898.8195,485.4375 1898.5382,485.2969 1898.2414,485.2969 C1897.9445,485.2969 1897.7414,485.3906 1897.5226,485.7031 L1897.3507,485.625 Z " fill="#000000"/><text fill="#000000" font-family="sans-serif" font-size="12" lengthAdjust="spacingAndGlyphs" textLength="71" x="1911.507" y="480.1387">usantatecla.</text><text fill="#000000" font-family="sans-serif" font-size="12" lengthAdjust="spacingAndGlyphs" textLength="27" x="1933.507" y="494.1074">utils.</text><text fill="#000000" font-family="sans-serif" font-size="12" lengthAdjust="spacingAndGlyphs" textLength="76" x="1909.007" y="508.0762">YesNoDialog</text><line style="stroke:#A80036;stroke-width:1.5;" x1="1881.007" x2="1987.007" y1="515.9063" y2="515.9063"/><line style="stroke:#A80036;stroke-width:1.5;" x1="1881.007" x2="1987.007" y1="523.9063" y2="523.9063"/><!--MD5=[315b61b427ec618d6861d47eee00cca3]
class Console--><rect codeLine="9" fill="#FEFECE" filter="url(#ftngdygonx8ao)" height="67.9063" id="Console" style="stroke:#A80036;stroke-width:1.5;" width="103" x="503.505" y="888"/><ellipse cx="518.505" cy="913.9531" fill="#ADD1B2" rx="11" ry="11" style="stroke:#A80036;stroke-width:1.0;"/><path d="M520.8488,909.625 C519.9113,909.1875 519.3175,909.0469 518.4425,909.0469 C515.8175,909.0469 513.8175,911.125 513.8175,913.8438 L513.8175,914.9688 C513.8175,917.5469 515.9269,919.4375 518.8175,919.4375 C520.0363,919.4375 521.1925,919.1406 521.9425,918.5938 C522.5206,918.1875 522.8488,917.7344 522.8488,917.3438 C522.8488,916.8906 522.4581,916.5 521.9894,916.5 C521.7706,916.5 521.5675,916.5781 521.38,916.7656 C520.9269,917.25 520.9269,917.25 520.7394,917.3438 C520.3175,917.6094 519.63,917.7344 518.8644,917.7344 C516.8175,917.7344 515.5206,916.6406 515.5206,914.9375 L515.5206,913.8438 C515.5206,912.0625 516.7706,910.75 518.505,910.75 C519.0831,910.75 519.6925,910.9063 520.1613,911.1563 C520.6456,911.4375 520.8175,911.6563 520.9113,912.0625 C520.9738,912.4688 521.005,912.5938 521.1456,912.7188 C521.2863,912.8594 521.5206,912.9688 521.7394,912.9688 C522.005,912.9688 522.2706,912.8281 522.4425,912.6094 C522.5519,912.4531 522.5831,912.2656 522.5831,911.8438 L522.5831,910.4219 C522.5831,909.9844 522.5675,909.8594 522.4738,909.7031 C522.3175,909.4375 522.0363,909.2969 521.7394,909.2969 C521.4425,909.2969 521.2394,909.3906 521.0206,909.7031 L520.8488,909.625 Z " fill="#000000"/><text fill="#000000" font-family="sans-serif" font-size="12" lengthAdjust="spacingAndGlyphs" textLength="71" x="532.505" y="904.1387">usantatecla.</text><text fill="#000000" font-family="sans-serif" font-size="12" lengthAdjust="spacingAndGlyphs" textLength="27" x="554.505" y="918.1074">utils.</text><text fill="#000000" font-family="sans-serif" font-size="12" lengthAdjust="spacingAndGlyphs" textLength="49" x="543.505" y="932.0762">Console</text><line style="stroke:#A80036;stroke-width:1.5;" x1="504.505" x2="605.505" y1="939.9063" y2="939.9063"/><line style="stroke:#A80036;stroke-width:1.5;" x1="504.505" x2="605.505" y1="947.9063" y2="947.9063"/><!--MD5=[0bf127410d3ebb87d99d69831c7b9d2a]
link usantatecla.mastermind.views.WithGameView to Game--><path codeLine="14" d="M1589.149,107.7044 C1589.149,107.7044 1723.527,151.582 1790.007,175 C1792.107,175.742 1794.237,176.498 1796.387,177.264 " fill="none" id="usantatecla.mastermind.views.WithGameView-Game" style="stroke:#A80036;stroke-width:1.0;"/><polygon fill="#A80036" points="1808.817,181.748,1801.7096,174.9301,1804.114,180.0505,1798.9935,182.4549,1808.817,181.748" style="stroke:#A80036;stroke-width:1.0;"/><line style="stroke:#A80036;stroke-width:1.0;" x1="1804.114" x2="1796.592" y1="180.0505" y2="177.3365"/><polygon fill="#A80036" points="1577.727,104.025,1582.2115,109.672,1589.149,107.7044,1584.6645,102.0574,1577.727,104.025" style="stroke:#A80036;stroke-width:1.0;"/><!--MD5=[08383a8f6fc9f9ff7dbf35b6e8de8180]
link usantatecla.mastermind.views.ColorView to ColorCode--><path codeLine="23" d="M1197.007,770.571 C1197.007,838.275 1197.007,951.438 1197.007,1010.4875 " fill="none" id="usantatecla.mastermind.views.ColorView-to-ColorCode" style="stroke:#A80036;stroke-width:1.0;stroke-dasharray:7.0,7.0;"/><polygon fill="#A80036" points="1197.007,1015.6834,1201.007,1006.6834,1197.007,1010.6834,1193.007,1006.6834,1197.007,1015.6834" style="stroke:#A80036;stroke-width:1.0;"/><!--MD5=[037b2a79b64666ba83d382cd2f7d163f]
link usantatecla.mastermind.views.ColorView to Color--><path codeLine="24" d="M1234.362,780.633 C1234.362,780.633 1271.807,832.224 1295.007,852 C1309.577,864.424 1326.777,875.291 1343.997,884.501 " fill="none" id="usantatecla.mastermind.views.ColorView-Color" style="stroke:#A80036;stroke-width:1.0;"/><polygon fill="#A80036" points="1355.887,890.611,1349.7108,882.9393,1351.44,888.3254,1346.0539,890.0545,1355.887,890.611" style="stroke:#A80036;stroke-width:1.0;"/><line style="stroke:#A80036;stroke-width:1.0;" x1="1351.44" x2="1344.327" y1="888.3254" y2="884.67"/><polygon fill="#A80036" points="1227.817,770.575,1227.7368,777.7857,1234.362,780.633,1234.4421,773.4224,1227.817,770.575" style="stroke:#A80036;stroke-width:1.0;"/><!--MD5=[41b24afec43bb3213296ed92b425fcbe]
link usantatecla.mastermind.views.ErrorView to Error--><path codeLine="31" d="M784.5708,511.4648 C784.5708,511.4648 607.624,551.923 529.005,601 C500.438,618.833 474.689,646.543 455.959,670 " fill="none" id="usantatecla.mastermind.views.ErrorView-Error" style="stroke:#A80036;stroke-width:1.0;"/><polygon fill="#A80036" points="447.862,680.427,456.541,675.7713,450.9284,676.4777,450.222,670.8651,447.862,680.427" style="stroke:#A80036;stroke-width:1.0;"/><line style="stroke:#A80036;stroke-width:1.0;" x1="450.9284" x2="455.835" y1="676.4777" y2="670.1595"/><polygon fill="#A80036" points="796.375,509.306,789.7533,506.4507,784.5708,511.4648,791.1925,514.3201,796.375,509.306" style="stroke:#A80036;stroke-width:1.0;"/><!--MD5=[23fe9cc800f1edc669d74feefb61dc25]
link usantatecla.mastermind.views.ErrorView to usantatecla.mastermind.views.ColorView--><path codeLine="32" d="M933.416,541.122 C984.51,574.536 1056.357,621.523 1112.147,658.003 " fill="none" id="usantatecla.mastermind.views.ErrorView-to-usantatecla.mastermind.views.ColorView" style="stroke:#A80036;stroke-width:1.0;stroke-dasharray:7.0,7.0;"/><polygon fill="#A80036" points="1116.467,660.833,1111.1316,652.5545,1112.2849,658.0925,1106.7469,659.2458,1116.467,660.833" style="stroke:#A80036;stroke-width:1.0;"/><!--MD5=[2ab14ef0c676d1e092523411315054a4]
link usantatecla.mastermind.views.ErrorView to Console--><path codeLine="33" d="M796.383,503.837 C620.643,516.277 183.717,551.887 141.005,601 C67.7998,685.177 68.8979,766.881 141.005,852 C186.106,905.24 395.43,917.439 498.021,920.206 " fill="none" id="usantatecla.mastermind.views.ErrorView-to-Console" style="stroke:#A80036;stroke-width:1.0;stroke-dasharray:7.0,7.0;"/><polygon fill="#A80036" points="503.124,920.338,494.231,916.1054,498.1257,920.208,494.023,924.1027,503.124,920.338" style="stroke:#A80036;stroke-width:1.0;"/><!--MD5=[582d0a332c8ebd5a6b6977b4d30c2e10]
reverse link usantatecla.mastermind.views.WithGameView to usantatecla.mastermind.views.GameView--><path codeLine="40" d="M1441.657,121.554 C1424.727,136.712 1407.637,155.027 1396.007,175 C1371.737,216.667 1361.467,271.644 1357.137,308.988 " fill="none" id="usantatecla.mastermind.views.WithGameView-backto-usantatecla.mastermind.views.GameView" style="stroke:#A80036;stroke-width:1.0;"/><polygon fill="none" points="1437.217,116.146,1456.997,108.565,1446.257,126.831,1437.217,116.146" style="stroke:#A80036;stroke-width:1.0;"/><!--MD5=[d21d0405a173f87ae1b9534fb23491c5]
link usantatecla.mastermind.views.GameView to usantatecla.mastermind.views.SecretCombinationView--><path codeLine="41" d="M1428.5696,401.5912 C1428.5696,401.5912 1483.467,437.356 1508.277,453.519 " fill="none" id="usantatecla.mastermind.views.GameView-usantatecla.mastermind.views.SecretCombinationView" style="stroke:#A80036;stroke-width:1.0;"/><polygon fill="#A80036" points="1519.397,460.769,1514.0414,452.5035,1515.2082,458.0388,1509.673,459.2056,1519.397,460.769" style="stroke:#A80036;stroke-width:1.0;"/><line style="stroke:#A80036;stroke-width:1.0;" x1="1515.2082" x2="1508.512" y1="458.0388" y2="453.6725"/><polygon fill="#A80036" points="1418.517,395.038,1421.3589,401.6655,1428.5696,401.5912,1425.7277,394.9637,1418.517,395.038" style="stroke:#A80036;stroke-width:1.0;"/><!--MD5=[6ee3ed8472d3c28df88fd9e28bf34bf9]
link usantatecla.mastermind.views.GameView to usantatecla.mastermind.views.Message--><path codeLine="42" d="M1449.527,376.768 C1540.577,400.382 1665.867,435.766 1680.007,455 C1747.787,547.237 1596.267,632.658 1490.467,678.49 " fill="none" id="usantatecla.mastermind.views.GameView-to-usantatecla.mastermind.views.Message" style="stroke:#A80036;stroke-width:1.0;stroke-dasharray:7.0,7.0;"/><polygon fill="#A80036" points="1485.777,680.507,1495.6251,680.6328,1490.3716,678.5348,1492.4696,673.2814,1485.777,680.507" style="stroke:#A80036;stroke-width:1.0;"/><!--MD5=[d35345d9c0915df373a5969884055f0f]
link usantatecla.mastermind.views.GameView to usantatecla.mastermind.views.ProposedCombinationView--><path codeLine="43" d="M1337.657,395.038 C1330.987,412.187 1323.247,432.096 1316.377,449.746 " fill="none" id="usantatecla.mastermind.views.GameView-to-usantatecla.mastermind.views.ProposedCombinationView" style="stroke:#A80036;stroke-width:1.0;stroke-dasharray:7.0,7.0;"/><polygon fill="#A80036" points="1314.467,454.661,1321.4521,447.7178,1316.2759,449.9997,1313.994,444.8235,1314.467,454.661" style="stroke:#A80036;stroke-width:1.0;"/><!--MD5=[c014ac327ca3a38d25898a1aa8388ae4]
link usantatecla.mastermind.views.GameView to usantatecla.mastermind.views.ResultView--><path codeLine="44" d="M1258.417,394.547 C1217.437,412.67 1169.167,434.439 1126.007,455 C1121.937,456.938 1117.767,458.953 1113.567,461.004 " fill="none" id="usantatecla.mastermind.views.GameView-to-usantatecla.mastermind.views.ResultView" style="stroke:#A80036;stroke-width:1.0;stroke-dasharray:7.0,7.0;"/><polygon fill="#A80036" points="1109.007,463.243,1118.849,462.875,1113.497,461.043,1115.329,455.691,1109.007,463.243" style="stroke:#A80036;stroke-width:1.0;"/><!--MD5=[02db24aa4557775c2c6707ce511d9174]
link usantatecla.mastermind.views.GameView to Console--><path codeLine="45" d="M1258.317,356.411 C987.924,368.267 228.098,417.602 79.0046,601 C8.6352,687.561 6,767.65 79.0046,852 C132.648,913.98 383.978,921.476 498.224,921.603 " fill="none" id="usantatecla.mastermind.views.GameView-to-Console" style="stroke:#A80036;stroke-width:1.0;stroke-dasharray:7.0,7.0;"/><polygon fill="#A80036" points="503.227,921.604,494.227,917.604,498.227,921.604,494.227,925.604,503.227,921.604" style="stroke:#A80036;stroke-width:1.0;"/><!--MD5=[2e5b6ef387c9b8070454cffc524bddc6]
link usantatecla.mastermind.views.Message to Console--><path codeLine="63" d="M1326.747,828.209 C1317.067,837.438 1306.467,845.642 1295.007,852 C1177.907,916.936 764.32,921.934 611.93,921.499 " fill="none" id="usantatecla.mastermind.views.Message-to-Console" style="stroke:#A80036;stroke-width:1.0;stroke-dasharray:7.0,7.0;"/><polygon fill="#A80036" points="606.62,921.482,615.6062,925.5128,611.62,921.4991,615.6337,917.5129,606.62,921.482" style="stroke:#A80036;stroke-width:1.0;"/><!--MD5=[8dc5dedae9a0f4fe09edf81a7fe6e0f3]
reverse link usantatecla.mastermind.views.WithGameView to usantatecla.mastermind.views.ProposalView--><path codeLine="69" d="M1494.107,128.753 C1492.597,144.084 1490.967,160.663 1489.557,174.891 " fill="none" id="usantatecla.mastermind.views.WithGameView-backto-usantatecla.mastermind.views.ProposalView" style="stroke:#A80036;stroke-width:1.0;"/><polygon fill="none" points="1487.157,127.841,1496.087,108.623,1501.097,129.213,1487.157,127.841" style="stroke:#A80036;stroke-width:1.0;"/><!--MD5=[589169685814c50dcf07056edbdea2f2]
link usantatecla.mastermind.views.ProposalView to usantatecla.mastermind.views.GameView--><path codeLine="70" d="M1443.035,257.9323 C1443.035,257.9323 1416.207,285.974 1403.567,299.189 " fill="none" id="usantatecla.mastermind.views.ProposalView-usantatecla.mastermind.views.GameView" style="stroke:#A80036;stroke-width:1.0;"/><polygon fill="#A80036" points="1394.537,308.622,1403.6474,304.8803,1397.992,305.0077,1397.8646,299.3523,1394.537,308.622" style="stroke:#A80036;stroke-width:1.0;"/><line style="stroke:#A80036;stroke-width:1.0;" x1="1397.992" x2="1403.527" y1="305.0077" y2="299.228"/><polygon fill="#A80036" points="1451.327,249.258,1444.2896,250.8311,1443.035,257.9323,1450.0724,256.3591,1451.327,249.258" style="stroke:#A80036;stroke-width:1.0;"/><!--MD5=[c078b19fca140f06bb1462ff06f2f96a]
link usantatecla.mastermind.views.ProposalView to ProposedCombination--><path codeLine="71" d="M1558.317,243.078 C1590.917,259.175 1628.227,281.411 1656.007,309 C1768.407,420.655 1844.537,597.99 1874.167,675.333 " fill="none" id="usantatecla.mastermind.views.ProposalView-to-ProposedCombination" style="stroke:#A80036;stroke-width:1.0;stroke-dasharray:7.0,7.0;"/><polygon fill="#A80036" points="1876.047,680.281,1876.5802,670.4466,1874.2667,675.6087,1869.1046,673.2951,1876.047,680.281" style="stroke:#A80036;stroke-width:1.0;"/><!--MD5=[4f7bde776b1e2d017ca28122a33b562e]
link usantatecla.mastermind.views.ProposalView to usantatecla.mastermind.views.ProposedCombinationView--><path codeLine="72" d="M1491.197,249.225 C1494.877,288.317 1495.027,350.887 1467.007,395 C1452.037,418.556 1429.497,437.447 1405.707,452.257 " fill="none" id="usantatecla.mastermind.views.ProposalView-to-usantatecla.mastermind.views.ProposedCombinationView" style="stroke:#A80036;stroke-width:1.0;stroke-dasharray:7.0,7.0;"/><polygon fill="#A80036" points="1401.257,454.975,1411.0242,453.7094,1405.5272,452.374,1406.8626,446.877,1401.257,454.975" style="stroke:#A80036;stroke-width:1.0;"/><!--MD5=[30c32eefd07a434877c34ca9bbcb31d9]
link usantatecla.mastermind.views.ProposedCombinationView to ProposedCombination--><path codeLine="79" d="M1463.8725,539.6676 C1463.8725,539.6676 1468.357,540.645 1470.007,541 C1611.457,571.507 1664.417,529.131 1790.007,601 C1818.857,617.512 1843.417,645.743 1860.727,669.794 " fill="none" id="usantatecla.mastermind.views.ProposedCombinationView-ProposedCombination" style="stroke:#A80036;stroke-width:1.0;"/><polygon fill="#A80036" points="1868.157,680.493,1866.3041,670.82,1865.303,676.3876,1859.7354,675.3864,1868.157,680.493" style="stroke:#A80036;stroke-width:1.0;"/><line style="stroke:#A80036;stroke-width:1.0;" x1="1865.303" x2="1860.742" y1="676.3876" y2="669.8175"/><polygon fill="#A80036" points="1452.157,537.07,1457.1489,542.274,1463.8725,539.6676,1458.8806,534.4636,1452.157,537.07" style="stroke:#A80036;stroke-width:1.0;"/><!--MD5=[cf1aaaa32c04b62f9c2032ccf656ebfe]
link usantatecla.mastermind.views.ProposedCombinationView to usantatecla.mastermind.views.Message--><path codeLine="80" d="M1317.837,541.122 C1325.357,557.094 1334.337,576.167 1343.547,595.711 " fill="none" id="usantatecla.mastermind.views.ProposedCombinationView-to-usantatecla.mastermind.views.Message" style="stroke:#A80036;stroke-width:1.0;stroke-dasharray:7.0,7.0;"/><polygon fill="#A80036" points="1345.887,600.689,1345.6641,590.8427,1343.7534,596.1671,1338.429,594.2564,1345.887,600.689" style="stroke:#A80036;stroke-width:1.0;"/><!--MD5=[2ab50d729eb054776fe940bcdac8856e]
link usantatecla.mastermind.views.ProposedCombinationView to usantatecla.mastermind.views.ColorView--><path codeLine="81" d="M1278.167,541.122 C1263.047,573.233 1242.027,617.879 1225.167,653.688 " fill="none" id="usantatecla.mastermind.views.ProposedCombinationView-to-usantatecla.mastermind.views.ColorView" style="stroke:#A80036;stroke-width:1.0;stroke-dasharray:7.0,7.0;"/><polygon fill="#A80036" points="1222.927,658.456,1230.3772,652.0143,1225.0551,653.9315,1223.138,648.6094,1222.927,658.456" style="stroke:#A80036;stroke-width:1.0;"/><!--MD5=[5d92d9b18a5089c82fdb31aadc95e332]
link usantatecla.mastermind.views.ProposedCombinationView to Combination--><path codeLine="82" d="M1143.867,537.173 C1137.847,538.495 1131.877,539.776 1126.007,541 C973.219,572.863 915.197,523.014 780.005,601 C749.16,618.793 723.954,650.738 707.436,676.053 " fill="none" id="usantatecla.mastermind.views.ProposedCombinationView-to-Combination" style="stroke:#A80036;stroke-width:1.0;stroke-dasharray:7.0,7.0;"/><polygon fill="#A80036" points="704.657,680.376,712.8891,674.9693,707.3612,676.1704,706.1601,670.6425,704.657,680.376" style="stroke:#A80036;stroke-width:1.0;"/><!--MD5=[e60a2df0fed20911b64094c7775ce731]
link usantatecla.mastermind.views.ProposedCombinationView to Error--><path codeLine="83" d="M1143.977,537.712 C1137.917,538.884 1131.917,539.987 1126.007,541 C863.171,586.072 767.67,482.039 529.005,601 C495.223,617.838 466.937,650.578 448.433,676.415 " fill="none" id="usantatecla.mastermind.views.ProposedCombinationView-to-Error" style="stroke:#A80036;stroke-width:1.0;stroke-dasharray:7.0,7.0;"/><polygon fill="#A80036" points="445.548,680.499,454.0071,675.4548,448.4323,676.4148,447.4723,670.84,445.548,680.499" style="stroke:#A80036;stroke-width:1.0;"/><!--MD5=[249db334c5b556894bf9316e2debba62]
link usantatecla.mastermind.views.ProposedCombinationView to Color--><path codeLine="84" d="M1435.667,541.131 C1462.407,555.764 1487.047,575.231 1503.007,601 C1561.747,695.838 1546.067,749.09 1503.007,852 C1498.107,863.708 1490.147,874.437 1481.317,883.768 " fill="none" id="usantatecla.mastermind.views.ProposedCombinationView-to-Color" style="stroke:#A80036;stroke-width:1.0;stroke-dasharray:7.0,7.0;"/><polygon fill="#A80036" points="1477.487,887.68,1486.6352,884.0317,1480.9788,884.1012,1480.9092,878.4448,1477.487,887.68" style="stroke:#A80036;stroke-width:1.0;"/><!--MD5=[55951ac0bb525a41c4301bdcf95ea348]
link usantatecla.mastermind.views.ProposedCombinationView to Console--><path codeLine="85" d="M1143.957,537.627 C1137.907,538.823 1131.907,539.954 1126.007,541 C1007.99,561.925 674.648,516.142 590.005,601 C515.189,676.006 531.981,815.389 545.736,882.684 " fill="none" id="usantatecla.mastermind.views.ProposedCombinationView-to-Console" style="stroke:#A80036;stroke-width:1.0;stroke-dasharray:7.0,7.0;"/><polygon fill="#A80036" points="546.803,887.794,548.88,878.1666,545.7815,882.8995,541.0487,879.801,546.803,887.794" style="stroke:#A80036;stroke-width:1.0;"/><!--MD5=[9898b494071eafd9f5c981c57aeef0ce]
link usantatecla.mastermind.views.ResultView to Result--><path codeLine="91" d="M965.688,538.887 C965.688,538.887 960.866,540.466 959.005,541 C689.068,618.439 578.453,470.096 330.005,601 C300.943,616.312 277.293,644.778 260.984,669.244 " fill="none" id="usantatecla.mastermind.views.ResultView-Result" style="stroke:#A80036;stroke-width:1.0;"/><polygon fill="#A80036" points="253.796,680.498,262.0115,675.066,256.4873,676.2841,255.2692,670.76,253.796,680.498" style="stroke:#A80036;stroke-width:1.0;"/><line style="stroke:#A80036;stroke-width:1.0;" x1="256.4873" x2="260.7935" y1="676.2841" y2="669.542"/><polygon fill="#A80036" points="976.964,534.782,969.9576,533.0758,965.688,538.887,972.6943,540.5932,976.964,534.782" style="stroke:#A80036;stroke-width:1.0;"/><!--MD5=[cf883f993c930dc7c792fcd8ea3f9270]
link usantatecla.mastermind.views.ResultView to usantatecla.mastermind.views.Message--><path codeLine="92" d="M1109.247,533.455 C1114.877,536.096 1120.517,538.647 1126.007,541 C1199.267,572.391 1228.457,557.127 1295.007,601 C1299.507,603.97 1303.957,607.177 1308.317,610.563 " fill="none" id="usantatecla.mastermind.views.ResultView-to-usantatecla.mastermind.views.Message" style="stroke:#A80036;stroke-width:1.0;stroke-dasharray:7.0,7.0;"/><polygon fill="#A80036" points="1312.307,613.721,1307.7499,604.9898,1308.3927,610.6101,1302.7724,611.2528,1312.307,613.721" style="stroke:#A80036;stroke-width:1.0;"/><!--MD5=[3ee0580c5de84afe50e723b0df8411e5]
reverse link usantatecla.mastermind.views.WithGameView to usantatecla.mastermind.views.ResumeView--><path codeLine="98" d="M1561.647,119.733 C1588.757,137.359 1620.217,157.817 1646.477,174.891 " fill="none" id="usantatecla.mastermind.views.WithGameView-backto-usantatecla.mastermind.views.ResumeView" style="stroke:#A80036;stroke-width:1.0;"/><polygon fill="none" points="1557.517,125.395,1544.557,108.623,1565.147,113.658,1557.517,125.395" style="stroke:#A80036;stroke-width:1.0;"/><!--MD5=[7ae48b70e9aa4a0d63c6512d9e8167b2]
link usantatecla.mastermind.views.ResumeView to YesNoDialog--><path codeLine="99" d="M1774.007,246.993 C1801.527,262.777 1831.447,283.699 1853.007,309 C1890.877,353.452 1913.507,418.296 1924.857,459.039 " fill="none" id="usantatecla.mastermind.views.ResumeView-to-YesNoDialog" style="stroke:#A80036;stroke-width:1.0;stroke-dasharray:7.0,7.0;"/><polygon fill="#A80036" points="1926.177,463.885,1927.6595,454.1484,1924.8572,459.0623,1919.9432,456.2601,1926.177,463.885" style="stroke:#A80036;stroke-width:1.0;"/><!--MD5=[5c2eadb3229706410cfe0e1f7995f911]
link usantatecla.mastermind.views.ResumeView to usantatecla.mastermind.views.Message--><path codeLine="100" d="M1715.157,249.094 C1736.027,313.009 1769.047,448.101 1714.007,541 C1666.107,621.833 1565.457,667.274 1490.747,690.98 " fill="none" id="usantatecla.mastermind.views.ResumeView-to-usantatecla.mastermind.views.Message" style="stroke:#A80036;stroke-width:1.0;stroke-dasharray:7.0,7.0;"/><polygon fill="#A80036" points="1485.867,692.511,1495.6493,693.6545,1490.6409,691.0245,1493.2709,686.0162,1485.867,692.511" style="stroke:#A80036;stroke-width:1.0;"/><!--MD5=[887316293bd78773a90a9d54570fb169]
link usantatecla.mastermind.views.SecretCombinationView to usantatecla.mastermind.views.Message--><path codeLine="106" d="M1545.147,535.387 C1529.417,554.561 1509.197,579.205 1488.847,604.009 " fill="none" id="usantatecla.mastermind.views.SecretCombinationView-to-usantatecla.mastermind.views.Message" style="stroke:#A80036;stroke-width:1.0;stroke-dasharray:7.0,7.0;"/><polygon fill="#A80036" points="1485.577,607.99,1494.3827,603.5786,1488.7525,604.1279,1488.2032,598.4977,1485.577,607.99" style="stroke:#A80036;stroke-width:1.0;"/><!--MD5=[f813e6f14017a463ae44ada5fbb1ae93]
link usantatecla.mastermind.views.SecretCombinationView to Console--><path codeLine="107" d="M1488.467,535.037 C1481.937,537.217 1475.397,539.238 1469.007,541 C1308.407,585.276 1251.487,533.912 1099.007,601 C934.195,673.51 940.525,768.495 781.005,852 C726.825,880.362 659.113,899.089 611.999,909.786 " fill="none" id="usantatecla.mastermind.views.SecretCombinationView-to-Console" style="stroke:#A80036;stroke-width:1.0;stroke-dasharray:7.0,7.0;"/><polygon fill="#A80036" points="606.932,910.924,616.5898,912.8545,611.8105,909.8283,614.8367,905.049,606.932,910.924" style="stroke:#A80036;stroke-width:1.0;"/><!--MD5=[e3ef45d7f626fa636c9d98d14af9a1f6]
link usantatecla.mastermind.views.StartView to usantatecla.mastermind.views.Message--><path codeLine="112" d="M1637.947,382.68 C1660.487,400.651 1685.717,425.736 1698.007,455 C1712.807,490.241 1717.117,507.902 1698.007,541 C1653.807,617.525 1561.317,663.126 1490.837,688.037 " fill="none" id="usantatecla.mastermind.views.StartView-to-usantatecla.mastermind.views.Message" style="stroke:#A80036;stroke-width:1.0;stroke-dasharray:7.0,7.0;"/><polygon fill="#A80036" points="1485.797,689.795,1495.6117,690.6142,1490.5191,688.1514,1492.982,683.0588,1485.797,689.795" style="stroke:#A80036;stroke-width:1.0;"/><!--MD5=[3407484fcf72abbae8816931e8b31818]
link usantatecla.mastermind.views.StartView to usantatecla.mastermind.views.SecretCombinationView--><path codeLine="113" d="M1590.067,382.837 C1587.287,403.898 1583.527,432.392 1580.457,455.644 " fill="none" id="usantatecla.mastermind.views.StartView-to-usantatecla.mastermind.views.SecretCombinationView" style="stroke:#A80036;stroke-width:1.0;stroke-dasharray:7.0,7.0;"/><polygon fill="#A80036" points="1579.777,460.824,1584.9203,452.4248,1580.4313,455.867,1576.9891,451.378,1579.777,460.824" style="stroke:#A80036;stroke-width:1.0;"/><!--MD5=[aa08d413cb14e320a155507437df65be]
link usantatecla.mastermind.views.View to Game--><path codeLine="119" d="M1736.697,111.46 C1765.617,130.741 1802.337,155.223 1832.127,175.082 " fill="none" id="usantatecla.mastermind.views.View-to-Game" style="stroke:#A80036;stroke-width:1.0;stroke-dasharray:7.0,7.0;"/><polygon fill="#A80036" points="1836.467,177.977,1831.1947,169.6582,1832.3059,175.2048,1826.7592,176.316,1836.467,177.977" style="stroke:#A80036;stroke-width:1.0;"/><!--MD5=[11fad62bc1e111ff3373acd70b4e0a0f]
link usantatecla.mastermind.views.View to usantatecla.mastermind.views.ProposalView--><path codeLine="120" d="M1629.3167,117.3418 C1629.3167,117.3418 1576.857,151.632 1552.367,167.634 " fill="none" id="usantatecla.mastermind.views.View-usantatecla.mastermind.views.ProposalView" style="stroke:#A80036;stroke-width:1.0;"/><polygon fill="#A80036" points="1541.357,174.828,1551.0789,173.2515,1545.5421,172.0921,1546.7015,166.5554,1541.357,174.828" style="stroke:#A80036;stroke-width:1.0;"/><line style="stroke:#A80036;stroke-width:1.0;" x1="1545.5421" x2="1552.237" y1="172.0921" y2="167.717"/><polygon fill="#A80036" points="1639.367,110.785,1632.1563,110.7133,1629.3167,117.3418,1636.5275,117.4135,1639.367,110.785" style="stroke:#A80036;stroke-width:1.0;"/><!--MD5=[a7d4c56091e8f703d8c94744d971f949]
link usantatecla.mastermind.views.View to usantatecla.mastermind.views.StartView--><path codeLine="121" d="M1643.6724,124.1813 C1643.6724,124.1813 1619.217,157.25 1612.007,175 C1594.527,218.024 1591.417,271.614 1591.797,308.285 " fill="none" id="usantatecla.mastermind.views.View-usantatecla.mastermind.views.StartView" style="stroke:#A80036;stroke-width:1.0;"/><polygon fill="#A80036" points="1592.097,321.454,1595.8951,312.3669,1591.9854,316.4552,1587.8971,312.5456,1592.097,321.454" style="stroke:#A80036;stroke-width:1.0;"/><line style="stroke:#A80036;stroke-width:1.0;" x1="1591.9854" x2="1591.802" y1="316.4552" y2="308.4575"/><polygon fill="#A80036" points="1651.417,115.015,1644.4893,117.0166,1643.6724,124.1813,1650.6002,122.1797,1651.417,115.015" style="stroke:#A80036;stroke-width:1.0;"/><!--MD5=[1fcb8ce60ea5c9d952c165bd8b13c9ee]
link usantatecla.mastermind.views.View to usantatecla.mastermind.views.ResumeView--><path codeLine="122" d="M1693.0928,127.0031 C1693.0928,127.0031 1695.637,150.961 1696.807,161.97 " fill="none" id="usantatecla.mastermind.views.View-usantatecla.mastermind.views.ResumeView" style="stroke:#A80036;stroke-width:1.0;"/><polygon fill="#A80036" points="1698.187,174.974,1701.2163,165.6026,1697.6601,170.0018,1693.2609,166.4456,1698.187,174.974" style="stroke:#A80036;stroke-width:1.0;"/><line style="stroke:#A80036;stroke-width:1.0;" x1="1697.6601" x2="1696.812" y1="170.0018" y2="162.0465"/><polygon fill="#A80036" points="1691.827,115.07,1688.4822,121.4585,1693.0928,127.0031,1696.4376,120.6146,1691.827,115.07" style="stroke:#A80036;stroke-width:1.0;"/><!--MD5=[1615dc2d70336649fb87c5a358d0c67f]
@startuml
class ColorCode as "usantatecla.\nmastermind.utils.\nColorCode"
class Error as "usantatecla.\nmastermind.models.\nError"
class Color as "usantatecla.\nmastermind.models.\nColor"
abstract class Combination as "usantatecla.\nmastermind.models.\nCombination"
class ProposedCombination as "usantatecla.\nmastermind.models.\nProposedCombination"
class Result as "usantatecla.\nmastermind.models.\nResult"
class Game as "usantatecla.\nmastermind.models.\nGame"
class YesNoDialog as "usantatecla.\nutils.\nYesNoDialog"
class Console as "usantatecla.\nutils.\nConsole"

abstract class usantatecla.mastermind.views.WithGameView {
    + WithGameView(Game)
}
usantatecla.mastermind.views.WithGameView *-down-> Game

class usantatecla.mastermind.views.ColorView{
    - {static} INITIALS: char []
    ~ ColorView(Color)
    ~ {static} allInitials(): String
    ~ {static} getInstance(char): Color
    ~ write()
}
usantatecla.mastermind.views.ColorView -down..> ColorCode
usantatecla.mastermind.views.ColorView *-down-> Color

class usantatecla.mastermind.views.ErrorView{
    - {static} MESSAGES: String []
    ~ ErrorView(Error error)
    ~ writeln()
}
usantatecla.mastermind.views.ErrorView *-down-> Error
usantatecla.mastermind.views.ErrorView ..> usantatecla.mastermind.views.ColorView
usantatecla.mastermind.views.ErrorView ..> Console

class usantatecla.mastermind.views.GameView {
    ~ GameView(Game)
    ~ write()
    ~ isWinnerOrLooser() : boolean
}
usantatecla.mastermind.views.GameView -up-|> usantatecla.mastermind.views.WithGameView
usantatecla.mastermind.views.GameView *-down-> usantatecla.mastermind.views.SecretCombinationView
usantatecla.mastermind.views.GameView ..> usantatecla.mastermind.views.Message
usantatecla.mastermind.views.GameView ..> usantatecla.mastermind.views.ProposedCombinationView
usantatecla.mastermind.views.GameView ..> usantatecla.mastermind.views.ResultView
usantatecla.mastermind.views.GameView ..> Console

enum usantatecla.mastermind.views.Message{
    + ATTEMPTS
    + SECRET_COMBINATION
    + RESUME
    + RESULT
    + PROPOSED_COMBINATION
    + TITLE
    + WINNER
    + LOOSER
    - message: String
    ~ MessageView(String)
    ~ write()
    ~ writeln()
    ~ writeln(int)
    ~ writeln(int, int)
}
usantatecla.mastermind.views.Message ..> Console

class usantatecla.mastermind.views.ProposalView {
    ~ ProposalView(Game)
    ~ interact(): boolean
}
usantatecla.mastermind.views.ProposalView -up-|> usantatecla.mastermind.views.WithGameView
usantatecla.mastermind.views.ProposalView *-down-> usantatecla.mastermind.views.GameView
usantatecla.mastermind.views.ProposalView -down..> ProposedCombination
usantatecla.mastermind.views.ProposalView ..> usantatecla.mastermind.views.ProposedCombinationView

class usantatecla.mastermind.views.ProposedCombinationView {
    ~ ProposedCombinationView(ProposedCombination)
    ~ write()
    ~ read()
}
usantatecla.mastermind.views.ProposedCombinationView *-down-> ProposedCombination
usantatecla.mastermind.views.ProposedCombinationView ..> usantatecla.mastermind.views.Message
usantatecla.mastermind.views.ProposedCombinationView ..> usantatecla.mastermind.views.ColorView
usantatecla.mastermind.views.ProposedCombinationView ..> Combination
usantatecla.mastermind.views.ProposedCombinationView ..> Error
usantatecla.mastermind.views.ProposedCombinationView ..> Color
usantatecla.mastermind.views.ProposedCombinationView ..> Console

class usantatecla.mastermind.views.ResultView {
    ~ ResultView(Result)
    ~ writeln()
}
usantatecla.mastermind.views.ResultView *-down-> Result
usantatecla.mastermind.views.ResultView ..> usantatecla.mastermind.views.Message

class usantatecla.mastermind.views.ResumeView {
    ~ ResumeView(Game)
    ~ interact(): boolean
}
usantatecla.mastermind.views.ResumeView -up-|> usantatecla.mastermind.views.WithGameView
usantatecla.mastermind.views.ResumeView -down..> YesNoDialog
usantatecla.mastermind.views.ResumeView ..> usantatecla.mastermind.views.Message

class usantatecla.mastermind.views.SecretCombinationView {
    ~ SecretCombinationView()
    ~ writeln()
}
usantatecla.mastermind.views.SecretCombinationView ..> usantatecla.mastermind.views.Message
usantatecla.mastermind.views.SecretCombinationView ..> Console

class usantatecla.mastermind.views.StartView {
    ~ interact()
}
usantatecla.mastermind.views.StartView..> usantatecla.mastermind.views.Message
usantatecla.mastermind.views.StartView..> usantatecla.mastermind.views.SecretCombinationView

class usantatecla.mastermind.views.View {
    + View(Game)
    + interact()
}
usantatecla.mastermind.views.View .down.> Game
usantatecla.mastermind.views.View *-down-> usantatecla.mastermind.views.ProposalView
usantatecla.mastermind.views.View *-down-> usantatecla.mastermind.views.StartView
usantatecla.mastermind.views.View *-down-> usantatecla.mastermind.views.ResumeView
@enduml

PlantUML version 1.2020.23beta3(Unknown compile time)
(GPL source distribution)
Java Runtime: Java(TM) SE Runtime Environment
JVM: Java HotSpot(TM) 64-Bit Server VM
Default Encoding: UTF-8
Language: en
Country: US
--></g></svg>