<?xml version="1.0" encoding="UTF-8" standalone="no"?>
<svg xmlns="http://www.w3.org/2000/svg" contentScriptType="application/ecmascript" contentStyleType="text/css"
     height="626px" preserveAspectRatio="none" style="width:463px;height:626px;" version="1.1" viewBox="0 0 463 626"
     width="463px" zoomAndPan="magnify"><defs><filter height="300%" id="f1frlahvw2wymd" width="300%" x="-1" y="-1"><feGaussianBlur result="blurOut" stdDeviation="2.0"/><feColorMatrix in="blurOut" result="blurOut2" type="matrix" values="0 0 0 0 0 0 0 0 0 0 0 0 0 0 0 0 0 0 .4 0"/><feOffset dx="4.0" dy="4.0" in="blurOut2" result="blurOut3"/><feBlend in="SourceGraphic" in2="blurOut3" mode="normal"/></filter></defs><g><!--MD5=[908cbfa8709a8ec6ee3beb0409fea32c]
cluster usantatecla.utils--><polygon fill="#FFFFFF" filter="url(#f1frlahvw2wymd)" points="16,6,162,6,169,28.2969,446,28.2969,446,520,16,520,16,6" style="stroke:#000000;stroke-width:1.5;"/><line style="stroke:#000000;stroke-width:1.5;" x1="16" x2="169" y1="28.2969" y2="28.2969"/><text fill="#000000" font-family="sans-serif" font-size="14" font-weight="bold" lengthAdjust="spacingAndGlyphs" textLength="140" x="20" y="20.9951">usantatecla.utils</text><!--MD5=[5f6eaca964039dd95284677bcb120bda]
class usantatecla.utils.views.ColorCode--><rect codeLine="3" fill="#FEFECE" filter="url(#f1frlahvw2wymd)" height="188.8516" id="usantatecla.utils.views.ColorCode" style="stroke:#A80036;stroke-width:1.5;" width="183" x="246.5" y="41"/><ellipse cx="301.75" cy="57" fill="#EB937F" rx="11" ry="11" style="stroke:#A80036;stroke-width:1.0;"/><path d="M300.5469,57.875 L302,57.875 L302,57.9844 C302,58.3906 302.0313,58.5469 302.1094,58.7031 C302.2656,58.9531 302.5469,59.1094 302.8438,59.1094 C303.0938,59.1094 303.3594,58.9688 303.5156,58.75 C303.6406,58.5938 303.6719,58.4375 303.6719,57.9844 L303.6719,56.0625 C303.6719,55.9063 303.6719,55.8594 303.6563,55.7031 C303.5938,55.2344 303.2813,54.9219 302.8281,54.9219 C302.5781,54.9219 302.3125,55.0625 302.1406,55.2813 C302.0313,55.4531 302,55.6094 302,56.0625 L302,56.1875 L300.5469,56.1875 L300.5469,53.7813 L304.5313,53.7813 L304.5313,54.6406 C304.5313,55.0469 304.5625,55.2188 304.6406,55.375 C304.8125,55.625 305.0938,55.7813 305.375,55.7813 C305.6406,55.7813 305.9063,55.6406 306.0781,55.4219 C306.1875,55.25 306.2188,55.1094 306.2188,54.6406 L306.2188,52.0938 L298.5938,52.0938 C298.1563,52.0938 298.0313,52.1094 297.875,52.2031 C297.625,52.3594 297.4688,52.6563 297.4688,52.9375 C297.4688,53.2188 297.6094,53.4688 297.8281,53.6406 C297.9844,53.75 298.1719,53.7813 298.5938,53.7813 L298.8438,53.7813 L298.8438,60.2969 L298.5938,60.2969 C298.1875,60.2969 298.0313,60.3125 297.875,60.4219 C297.625,60.5938 297.4688,60.8594 297.4688,61.1563 C297.4688,61.4219 297.6094,61.6719 297.8281,61.8281 C297.9688,61.9531 298.2031,62 298.5938,62 L306.5938,62 L306.5938,59.4219 C306.5938,58.9844 306.5625,58.8438 306.4844,58.6875 C306.3125,58.4375 306.0313,58.2813 305.75,58.2813 C305.4844,58.2813 305.2188,58.3906 305.0469,58.6406 C304.9375,58.7969 304.9063,58.9375 304.9063,59.4219 L304.9063,60.2969 L300.5469,60.2969 L300.5469,57.875 Z " fill="#000000"/><text fill="#000000" font-family="sans-serif" font-size="12" lengthAdjust="spacingAndGlyphs" textLength="64" x="322.25" y="61.1543">ColorCode</text><line style="stroke:#A80036;stroke-width:1.5;" x1="247.5" x2="428.5" y1="73" y2="73"/><ellipse cx="257.5" cy="84" fill="none" rx="3" ry="3" style="stroke:#038048;stroke-width:1.0;"/><text fill="#000000" font-family="sans-serif" font-size="11" lengthAdjust="spacingAndGlyphs" textLength="23" x="266.5" y="87.2104">RED</text><ellipse cx="257.5" cy="96.8047" fill="none" rx="3" ry="3" style="stroke:#038048;stroke-width:1.0;"/><text fill="#000000" font-family="sans-serif" font-size="11" lengthAdjust="spacingAndGlyphs" textLength="29" x="266.5" y="100.0151">BLUE</text><ellipse cx="257.5" cy="109.6094" fill="none" rx="3" ry="3" style="stroke:#038048;stroke-width:1.0;"/><text fill="#000000" font-family="sans-serif" font-size="11" lengthAdjust="spacingAndGlyphs" textLength="46" x="266.5" y="112.8198">YELLOW</text><ellipse cx="257.5" cy="122.4141" fill="none" rx="3" ry="3" style="stroke:#038048;stroke-width:1.0;"/><text fill="#000000" font-family="sans-serif" font-size="11" lengthAdjust="spacingAndGlyphs" textLength="38" x="266.5" y="125.6245">GREEN</text><ellipse cx="257.5" cy="135.2188" fill="none" rx="3" ry="3" style="stroke:#038048;stroke-width:1.0;"/><text fill="#000000" font-family="sans-serif" font-size="11" lengthAdjust="spacingAndGlyphs" textLength="48" x="266.5" y="138.4292">ORANGE</text><ellipse cx="257.5" cy="148.0234" fill="none" rx="3" ry="3" style="stroke:#038048;stroke-width:1.0;"/><text fill="#000000" font-family="sans-serif" font-size="11" lengthAdjust="spacingAndGlyphs" textLength="40" x="266.5" y="151.2339">PURPLE</text><ellipse cx="257.5" cy="160.8281" fill="none" rx="3" ry="3" style="stroke:#038048;stroke-width:1.0;"/><text fill="#000000" font-family="sans-serif" font-size="11" lengthAdjust="spacingAndGlyphs" textLength="81" x="266.5" y="164.0386">RESET_COLOR</text><rect fill="none" height="6" style="stroke:#C82930;stroke-width:1.0;" width="6" x="254.5" y="170.6328"/><text fill="#000000" font-family="sans-serif" font-size="11" lengthAdjust="spacingAndGlyphs" textLength="67" x="266.5" y="176.8433">color: String</text><line style="stroke:#A80036;stroke-width:1.5;" x1="247.5" x2="428.5" y1="183.4375" y2="183.4375"/><polygon fill="#4177AF" points="257.5,190.4375,253.5,196.4375,261.5,196.4375" style="stroke:#1963A0;stroke-width:1.0;"/><text fill="#000000" font-family="sans-serif" font-size="11" lengthAdjust="spacingAndGlyphs" textLength="100" x="266.5" y="197.6479">ColorCode(String)</text><ellipse cx="257.5" cy="207.2422" fill="#84BE84" rx="3" ry="3" style="stroke:#038048;stroke-width:1.0;"/><text fill="#000000" font-family="sans-serif" font-size="11" lengthAdjust="spacingAndGlyphs" textLength="96" x="266.5" y="210.4526">getColor(): String</text><ellipse cx="257.5" cy="220.0469" fill="#84BE84" rx="3" ry="3" style="stroke:#038048;stroke-width:1.0;"/><text fill="#000000" font-family="sans-serif" font-size="11" lengthAdjust="spacingAndGlyphs" text-decoration="underline" textLength="157" x="266.5" y="223.2573">getColorByIndex(int): String</text><!--MD5=[5a5a2ad444bc00c1498d76ebf80a1dc4]
class usantatecla.utils.views.Console--><rect codeLine="17" fill="#FEFECE" filter="url(#f1frlahvw2wymd)" height="214.4609" id="usantatecla.utils.views.Console" style="stroke:#A80036;stroke-width:1.5;" width="166" x="39" y="290"/><ellipse cx="93.25" cy="306" fill="#ADD1B2" rx="11" ry="11" style="stroke:#A80036;stroke-width:1.0;"/><path d="M95.5938,301.6719 C94.6563,301.2344 94.0625,301.0938 93.1875,301.0938 C90.5625,301.0938 88.5625,303.1719 88.5625,305.8906 L88.5625,307.0156 C88.5625,309.5938 90.6719,311.4844 93.5625,311.4844 C94.7813,311.4844 95.9375,311.1875 96.6875,310.6406 C97.2656,310.2344 97.5938,309.7813 97.5938,309.3906 C97.5938,308.9375 97.2031,308.5469 96.7344,308.5469 C96.5156,308.5469 96.3125,308.625 96.125,308.8125 C95.6719,309.2969 95.6719,309.2969 95.4844,309.3906 C95.0625,309.6563 94.375,309.7813 93.6094,309.7813 C91.5625,309.7813 90.2656,308.6875 90.2656,306.9844 L90.2656,305.8906 C90.2656,304.1094 91.5156,302.7969 93.25,302.7969 C93.8281,302.7969 94.4375,302.9531 94.9063,303.2031 C95.3906,303.4844 95.5625,303.7031 95.6563,304.1094 C95.7188,304.5156 95.75,304.6406 95.8906,304.7656 C96.0313,304.9063 96.2656,305.0156 96.4844,305.0156 C96.75,305.0156 97.0156,304.875 97.1875,304.6563 C97.2969,304.5 97.3281,304.3125 97.3281,303.8906 L97.3281,302.4688 C97.3281,302.0313 97.3125,301.9063 97.2188,301.75 C97.0625,301.4844 96.7813,301.3438 96.4844,301.3438 C96.1875,301.3438 95.9844,301.4375 95.7656,301.75 L95.5938,301.6719 Z " fill="#000000"/><text fill="#000000" font-family="sans-serif" font-size="12" lengthAdjust="spacingAndGlyphs" textLength="49" x="113.75" y="310.1543">Console</text><line style="stroke:#A80036;stroke-width:1.5;" x1="40" x2="204" y1="322" y2="322"/><ellipse cx="50" cy="333" fill="none" rx="3" ry="3" style="stroke:#038048;stroke-width:1.0;"/><text fill="#000000" font-family="sans-serif" font-size="11" lengthAdjust="spacingAndGlyphs" text-decoration="underline" textLength="97" x="59" y="336.2104">console: Console</text><line style="stroke:#A80036;stroke-width:1.5;" x1="40" x2="204" y1="342.8047" y2="342.8047"/><ellipse cx="50" cy="353.8047" fill="#84BE84" rx="3" ry="3" style="stroke:#038048;stroke-width:1.0;"/><text fill="#000000" font-family="sans-serif" font-size="11" lengthAdjust="spacingAndGlyphs" text-decoration="underline" textLength="128" x="59" y="357.0151">getInstance(): Console</text><ellipse cx="50" cy="366.6094" fill="#84BE84" rx="3" ry="3" style="stroke:#038048;stroke-width:1.0;"/><text fill="#000000" font-family="sans-serif" font-size="11" lengthAdjust="spacingAndGlyphs" textLength="140" x="59" y="369.8198">readString(String): String</text><ellipse cx="50" cy="379.4141" fill="#84BE84" rx="3" ry="3" style="stroke:#038048;stroke-width:1.0;"/><text fill="#000000" font-family="sans-serif" font-size="11" lengthAdjust="spacingAndGlyphs" textLength="107" x="59" y="382.6245">readString(): String</text><ellipse cx="50" cy="392.2188" fill="#84BE84" rx="3" ry="3" style="stroke:#038048;stroke-width:1.0;"/><text fill="#000000" font-family="sans-serif" font-size="11" lengthAdjust="spacingAndGlyphs" textLength="102" x="59" y="395.4292">readInt(String): int</text><ellipse cx="50" cy="405.0234" fill="#84BE84" rx="3" ry="3" style="stroke:#038048;stroke-width:1.0;"/><text fill="#000000" font-family="sans-serif" font-size="11" lengthAdjust="spacingAndGlyphs" textLength="124" x="59" y="408.2339">readChar(String): char</text><ellipse cx="50" cy="417.8281" fill="#84BE84" rx="3" ry="3" style="stroke:#038048;stroke-width:1.0;"/><text fill="#000000" font-family="sans-serif" font-size="11" lengthAdjust="spacingAndGlyphs" textLength="46" x="59" y="421.0386">writeln()</text><ellipse cx="50" cy="430.6328" fill="#84BE84" rx="3" ry="3" style="stroke:#038048;stroke-width:1.0;"/><text fill="#000000" font-family="sans-serif" font-size="11" lengthAdjust="spacingAndGlyphs" textLength="69" x="59" y="433.8433">write(String)</text><ellipse cx="50" cy="443.4375" fill="#84BE84" rx="3" ry="3" style="stroke:#038048;stroke-width:1.0;"/><text fill="#000000" font-family="sans-serif" font-size="11" lengthAdjust="spacingAndGlyphs" textLength="50" x="59" y="446.6479">write(int)</text><ellipse cx="50" cy="456.2422" fill="#84BE84" rx="3" ry="3" style="stroke:#038048;stroke-width:1.0;"/><text fill="#000000" font-family="sans-serif" font-size="11" lengthAdjust="spacingAndGlyphs" textLength="79" x="59" y="459.4526">writeln(String)</text><ellipse cx="50" cy="469.0469" fill="#84BE84" rx="3" ry="3" style="stroke:#038048;stroke-width:1.0;"/><text fill="#000000" font-family="sans-serif" font-size="11" lengthAdjust="spacingAndGlyphs" textLength="60" x="59" y="472.2573">writeln(int)</text><ellipse cx="50" cy="481.8516" fill="#84BE84" rx="3" ry="3" style="stroke:#038048;stroke-width:1.0;"/><text fill="#000000" font-family="sans-serif" font-size="11" lengthAdjust="spacingAndGlyphs" textLength="60" x="59" y="485.062">write(char)</text><rect fill="#F24D5C" height="6" style="stroke:#C82930;stroke-width:1.0;" width="6" x="47" y="491.6563"/><text fill="#000000" font-family="sans-serif" font-size="11" lengthAdjust="spacingAndGlyphs" textLength="95" x="59" y="497.8667">writeError(String)</text><!--MD5=[115031fed92a4467bd358dd9ee6729dd]
class usantatecla.utils.views.YesNoDialog--><rect codeLine="34" fill="#FEFECE" filter="url(#f1frlahvw2wymd)" height="150.4375" id="usantatecla.utils.views.YesNoDialog" style="stroke:#A80036;stroke-width:1.5;" width="179" x="32.5" y="60.5"/><ellipse cx="79.75" cy="76.5" fill="#ADD1B2" rx="11" ry="11" style="stroke:#A80036;stroke-width:1.0;"/><path d="M82.0938,72.1719 C81.1563,71.7344 80.5625,71.5938 79.6875,71.5938 C77.0625,71.5938 75.0625,73.6719 75.0625,76.3906 L75.0625,77.5156 C75.0625,80.0938 77.1719,81.9844 80.0625,81.9844 C81.2813,81.9844 82.4375,81.6875 83.1875,81.1406 C83.7656,80.7344 84.0938,80.2813 84.0938,79.8906 C84.0938,79.4375 83.7031,79.0469 83.2344,79.0469 C83.0156,79.0469 82.8125,79.125 82.625,79.3125 C82.1719,79.7969 82.1719,79.7969 81.9844,79.8906 C81.5625,80.1563 80.875,80.2813 80.1094,80.2813 C78.0625,80.2813 76.7656,79.1875 76.7656,77.4844 L76.7656,76.3906 C76.7656,74.6094 78.0156,73.2969 79.75,73.2969 C80.3281,73.2969 80.9375,73.4531 81.4063,73.7031 C81.8906,73.9844 82.0625,74.2031 82.1563,74.6094 C82.2188,75.0156 82.25,75.1406 82.3906,75.2656 C82.5313,75.4063 82.7656,75.5156 82.9844,75.5156 C83.25,75.5156 83.5156,75.375 83.6875,75.1563 C83.7969,75 83.8281,74.8125 83.8281,74.3906 L83.8281,72.9688 C83.8281,72.5313 83.8125,72.4063 83.7188,72.25 C83.5625,71.9844 83.2813,71.8438 82.9844,71.8438 C82.6875,71.8438 82.4844,71.9375 82.2656,72.25 L82.0938,72.1719 Z " fill="#000000"/><text fill="#000000" font-family="sans-serif" font-size="12" lengthAdjust="spacingAndGlyphs" textLength="76" x="100.25" y="80.6543">YesNoDialog</text><line style="stroke:#A80036;stroke-width:1.5;" x1="33.5" x2="210.5" y1="92.5" y2="92.5"/><rect fill="none" height="6" style="stroke:#C82930;stroke-width:1.0;" width="6" x="40.5" y="100.5"/><text fill="#000000" font-family="sans-serif" font-size="11" lengthAdjust="spacingAndGlyphs" text-decoration="underline" textLength="97" x="52.5" y="106.7104">AFIRMATIVE: char</text><rect fill="none" height="6" style="stroke:#C82930;stroke-width:1.0;" width="6" x="40.5" y="113.3047"/><text fill="#000000" font-family="sans-serif" font-size="11" lengthAdjust="spacingAndGlyphs" text-decoration="underline" textLength="88" x="52.5" y="119.5151">NEGATIVE: char</text><rect fill="none" height="6" style="stroke:#C82930;stroke-width:1.0;" width="6" x="40.5" y="126.1094"/><text fill="#000000" font-family="sans-serif" font-size="11" lengthAdjust="spacingAndGlyphs" text-decoration="underline" textLength="99" x="52.5" y="132.3198">QUESTION: String</text><rect fill="none" height="6" style="stroke:#C82930;stroke-width:1.0;" width="6" x="40.5" y="138.9141"/><text fill="#000000" font-family="sans-serif" font-size="11" lengthAdjust="spacingAndGlyphs" text-decoration="underline" textLength="96" x="52.5" y="145.1245">MESSAGE: String</text><line style="stroke:#A80036;stroke-width:1.5;" x1="33.5" x2="210.5" y1="151.7188" y2="151.7188"/><ellipse cx="43.5" cy="162.7188" fill="#84BE84" rx="3" ry="3" style="stroke:#038048;stroke-width:1.0;"/><text fill="#000000" font-family="sans-serif" font-size="11" lengthAdjust="spacingAndGlyphs" textLength="120" x="52.5" y="165.9292">read(String): boolean</text><ellipse cx="43.5" cy="175.5234" fill="#84BE84" rx="3" ry="3" style="stroke:#038048;stroke-width:1.0;"/><text fill="#000000" font-family="sans-serif" font-size="11" lengthAdjust="spacingAndGlyphs" textLength="87" x="52.5" y="178.7339">read(): boolean</text><rect fill="#F24D5C" height="6" style="stroke:#C82930;stroke-width:1.0;" width="6" x="40.5" y="185.3281"/><text fill="#000000" font-family="sans-serif" font-size="11" lengthAdjust="spacingAndGlyphs" text-decoration="underline" textLength="153" x="52.5" y="191.5386">isAfirmative(char): boolean</text><rect fill="#F24D5C" height="6" style="stroke:#C82930;stroke-width:1.0;" width="6" x="40.5" y="198.1328"/><text fill="#000000" font-family="sans-serif" font-size="11" lengthAdjust="spacingAndGlyphs" text-decoration="underline" textLength="146" x="52.5" y="204.3433">isNegative(char): boolean</text><!--MD5=[ee4f8f5c2b5eaa5df2ba8c0614cd4e83]
class BufferedReader--><rect codeLine="1" fill="#FEFECE" filter="url(#f1frlahvw2wymd)" height="48" id="BufferedReader" style="stroke:#A80036;stroke-width:1.5;" width="168" x="38" y="564"/><ellipse cx="53" cy="580" fill="#ADD1B2" rx="11" ry="11" style="stroke:#A80036;stroke-width:1.0;"/><path d="M55.3438,575.6719 C54.4063,575.2344 53.8125,575.0938 52.9375,575.0938 C50.3125,575.0938 48.3125,577.1719 48.3125,579.8906 L48.3125,581.0156 C48.3125,583.5938 50.4219,585.4844 53.3125,585.4844 C54.5313,585.4844 55.6875,585.1875 56.4375,584.6406 C57.0156,584.2344 57.3438,583.7813 57.3438,583.3906 C57.3438,582.9375 56.9531,582.5469 56.4844,582.5469 C56.2656,582.5469 56.0625,582.625 55.875,582.8125 C55.4219,583.2969 55.4219,583.2969 55.2344,583.3906 C54.8125,583.6563 54.125,583.7813 53.3594,583.7813 C51.3125,583.7813 50.0156,582.6875 50.0156,580.9844 L50.0156,579.8906 C50.0156,578.1094 51.2656,576.7969 53,576.7969 C53.5781,576.7969 54.1875,576.9531 54.6563,577.2031 C55.1406,577.4844 55.3125,577.7031 55.4063,578.1094 C55.4688,578.5156 55.5,578.6406 55.6406,578.7656 C55.7813,578.9063 56.0156,579.0156 56.2344,579.0156 C56.5,579.0156 56.7656,578.875 56.9375,578.6563 C57.0469,578.5 57.0781,578.3125 57.0781,577.8906 L57.0781,576.4688 C57.0781,576.0313 57.0625,575.9063 56.9688,575.75 C56.8125,575.4844 56.5313,575.3438 56.2344,575.3438 C55.9375,575.3438 55.7344,575.4375 55.5156,575.75 L55.3438,575.6719 Z " fill="#000000"/><text fill="#000000" font-family="sans-serif" font-size="12" lengthAdjust="spacingAndGlyphs" textLength="136" x="67" y="584.1543">java.io.BufferedReader</text><line style="stroke:#A80036;stroke-width:1.5;" x1="39" x2="205" y1="596" y2="596"/><line style="stroke:#A80036;stroke-width:1.5;" x1="39" x2="205" y1="604" y2="604"/><!--MD5=[14426ff67e875e6661b88179367ed759]
link usantatecla.utils.views.Console to BufferedReader--><path codeLine="32" d="M122,516.102 C122,516.102 122,540.6664 122,550.6942 " fill="none" id="usantatecla.utils.Console-BufferedReader" style="stroke:#A80036;stroke-width:1.0;"/><polygon fill="#A80036" points="122,563.8278,126,554.8278,122,558.8278,118,554.8278,122,563.8278" style="stroke:#A80036;stroke-width:1.0;"/><line style="stroke:#A80036;stroke-width:1.0;" x1="122" x2="122" y1="558.8278" y2="550.8279"/><polygon fill="#A80036" points="122,504.102,118,510.102,122,516.102,126,510.102,122,504.102" style="stroke:#A80036;stroke-width:1.0;"/><!--MD5=[bef9209ee563bd0cab945b38e8120dbd]
link usantatecla.utils.views.YesNoDialog to usantatecla.utils.views.Console--><path codeLine="44" d="M122,210.515 C122,233.688 122,259.79 122,284.935 " fill="none" id="usantatecla.utils.YesNoDialog-to-usantatecla.utils.views.Console" style="stroke:#A80036;stroke-width:1.0;stroke-dasharray:7.0,7.0;"/><polygon fill="#A80036" points="122,289.951,126,280.951,122,284.951,118,280.951,122,289.951" style="stroke:#A80036;stroke-width:1.0;"/><!--MD5=[d8e370f95b5310bff65d2ad765755982]
@startuml
class BufferedReader as "java.io.BufferedReader"

enum usantatecla.utils.views.ColorCode {
    + RED
    + BLUE
    + YELLOW
    + GREEN
    + ORANGE
    + PURPLE
    + RESET_COLOR
    - color: String
    ~ ColorCode(String)
    + getColor(): String
    + {static} getColorByIndex(int): String
}

class usantatecla.utils.views.Console {
    + {static} console: Console
    + {static} getInstance(): Console
    + readString(String): String
    + readString(): String
    + readInt(String): int
    + readChar(String): char
    + writeln()
    + write(String)
    + write(int)
    + writeln(String)
    + writeln(int)
    + write(char)
    - writeError(String)
}
usantatecla.utils.views.Console *-down-> BufferedReader

class usantatecla.utils.views.YesNoDialog {
    - {static} AFIRMATIVE: char
    - {static} NEGATIVE: char
    - {static} QUESTION: String
    - {static} MESSAGE: String
    + read(String): boolean
    + read(): boolean
    - {static} isAfirmative(char): boolean
    - {static} isNegative(char): boolean
}
usantatecla.utils.views.YesNoDialog ..> usantatecla.utils.views.Console
@enduml

PlantUML version 1.2020.22beta2(Unknown compile time)
(GPL source distribution)
Java Runtime: Java(TM) SE Runtime Environment
JVM: Java HotSpot(TM) 64-Bit Server VM
Default Encoding: UTF-8
Language: en
Country: US
--></g></svg>