<?xml version="1.0" encoding="UTF-8" standalone="no"?><svg xmlns="http://www.w3.org/2000/svg" xmlns:xlink="http://www.w3.org/1999/xlink" contentScriptType="application/ecmascript" contentStyleType="text/css" height="159px" preserveAspectRatio="none" style="width:2501px;height:159px;" version="1.1" viewBox="0 0 2501 159" width="2501px" zoomAndPan="magnify"><defs><filter height="300%" id="f1ogl9h0syymvj" width="300%" x="-1" y="-1"><feGaussianBlur result="blurOut" stdDeviation="2.0"/><feColorMatrix in="blurOut" result="blurOut2" type="matrix" values="0 0 0 0 0 0 0 0 0 0 0 0 0 0 0 0 0 0 .4 0"/><feOffset dx="4.0" dy="4.0" in="blurOut2" result="blurOut3"/><feBlend in="SourceGraphic" in2="blurOut3" mode="normal"/></filter></defs><g><!--MD5=[6a8eef24a865597df0dc119d71c20fa1]
entity usantatecla.mastermind--><polygon fill="#FFFFFF" filter="url(#f1ogl9h0syymvj)" points="16,113,223,113,230,135.2969,247,135.2969,247,152.2969,16,152.2969,16,113" style="stroke:#000000;stroke-width:1.5;"/><line style="stroke:#000000;stroke-width:1.5;" x1="16" x2="230" y1="135.2969" y2="135.2969"/><text fill="#000000" font-family="sans-serif" font-size="14" font-weight="bold" lengthAdjust="spacingAndGlyphs" textLength="201" x="20" y="128.9951">usantatecla.mastermind</text><!--MD5=[d4e593d76a1ee4330d2b2843b37cc7bc]
entity usantatecla.mastermind.controllers--><polygon fill="#FFFFFF" filter="url(#f1ogl9h0syymvj)" points="282,113,583,113,590,135.2969,607,135.2969,607,152.2969,282,152.2969,282,113" style="stroke:#000000;stroke-width:1.5;"/><line style="stroke:#000000;stroke-width:1.5;" x1="282" x2="590" y1="135.2969" y2="135.2969"/><text fill="#000000" font-family="sans-serif" font-size="14" font-weight="bold" lengthAdjust="spacingAndGlyphs" textLength="295" x="286" y="128.9951">usantatecla.mastermind.controllers</text><!--MD5=[a18a8a1618c58d11a8fd222203fd8af2]
entity usantatecla.mastermind.models--><polygon fill="#FFFFFF" filter="url(#f1ogl9h0syymvj)" points="642.5,113,912.5,113,919.5,135.2969,936.5,135.2969,936.5,152.2969,642.5,152.2969,642.5,113" style="stroke:#000000;stroke-width:1.5;"/><line style="stroke:#000000;stroke-width:1.5;" x1="642.5" x2="919.5" y1="135.2969" y2="135.2969"/><text fill="#000000" font-family="sans-serif" font-size="14" font-weight="bold" lengthAdjust="spacingAndGlyphs" textLength="264" x="646.5" y="128.9951">usantatecla.mastermind.models</text><!--MD5=[d9d3a2b7fd30791a054c299cd80fb2ef]
entity usantatecla.mastermind.views--><polygon fill="#FFFFFF" filter="url(#f1ogl9h0syymvj)" points="972,113,1229,113,1236,135.2969,1253,135.2969,1253,152.2969,972,152.2969,972,113" style="stroke:#000000;stroke-width:1.5;"/><line style="stroke:#000000;stroke-width:1.5;" x1="972" x2="1236" y1="135.2969" y2="135.2969"/><text fill="#000000" font-family="sans-serif" font-size="14" font-weight="bold" lengthAdjust="spacingAndGlyphs" textLength="251" x="976" y="128.9951">usantatecla.mastermind.views</text><!--MD5=[4f1fdb516a2d9f9a754f02a50bc85008]
entity usantatecla.mastermind.views.console--><polygon fill="#FFFFFF" filter="url(#f1ogl9h0syymvj)" points="1288.5,113,1612.5,113,1619.5,135.2969,1636.5,135.2969,1636.5,152.2969,1288.5,152.2969,1288.5,113" style="stroke:#000000;stroke-width:1.5;"/><line style="stroke:#000000;stroke-width:1.5;" x1="1288.5" x2="1619.5" y1="135.2969" y2="135.2969"/><text fill="#000000" font-family="sans-serif" font-size="14" font-weight="bold" lengthAdjust="spacingAndGlyphs" textLength="318" x="1292.5" y="128.9951">usantatecla.mastermind.views.console</text><!--MD5=[78a8e49b09f83bc73057eebba2fb097f]
entity usantatecla.mastermind.views.graphics--><polygon fill="#FFFFFF" filter="url(#f1ogl9h0syymvj)" points="1671.5,113,2003.5,113,2010.5,135.2969,2027.5,135.2969,2027.5,152.2969,1671.5,152.2969,1671.5,113" style="stroke:#000000;stroke-width:1.5;"/><line style="stroke:#000000;stroke-width:1.5;" x1="1671.5" x2="2010.5" y1="135.2969" y2="135.2969"/><text fill="#000000" font-family="sans-serif" font-size="14" font-weight="bold" lengthAdjust="spacingAndGlyphs" textLength="326" x="1675.5" y="128.9951">usantatecla.mastermind.views.graphics</text><!--MD5=[612a536d1c85efa17c7d118cc1e7b020]
entity usantatecla.utils--><polygon fill="#FFFFFF" filter="url(#f1ogl9h0syymvj)" points="2062.5,113,2208.5,113,2215.5,135.2969,2232.5,135.2969,2232.5,152.2969,2062.5,152.2969,2062.5,113" style="stroke:#000000;stroke-width:1.5;"/><line style="stroke:#000000;stroke-width:1.5;" x1="2062.5" x2="2215.5" y1="135.2969" y2="135.2969"/><text fill="#000000" font-family="sans-serif" font-size="14" font-weight="bold" lengthAdjust="spacingAndGlyphs" textLength="140" x="2066.5" y="128.9951">usantatecla.utils</text><!--MD5=[48fa9072fd51d9920e6db8484beec696]
entity java.io--><polygon fill="#FFFFFF" filter="url(#f1ogl9h0syymvj)" points="2267.5,113,2327.5,113,2334.5,135.2969,2351.5,135.2969,2351.5,152.2969,2267.5,152.2969,2267.5,113" style="stroke:#000000;stroke-width:1.5;"/><line style="stroke:#000000;stroke-width:1.5;" x1="2267.5" x2="2334.5" y1="135.2969" y2="135.2969"/><text fill="#000000" font-family="sans-serif" font-size="14" font-weight="bold" lengthAdjust="spacingAndGlyphs" textLength="54" x="2271.5" y="128.9951">java.io</text><!--MD5=[034f0f7ed136bf78fc117f7e41f76e93]
entity java.util--><polygon fill="#FFFFFF" filter="url(#f1ogl9h0syymvj)" points="2387,113,2460,113,2467,135.2969,2484,135.2969,2484,152.2969,2387,152.2969,2387,113" style="stroke:#000000;stroke-width:1.5;"/><line style="stroke:#000000;stroke-width:1.5;" x1="2387" x2="2467" y1="135.2969" y2="135.2969"/><text fill="#000000" font-family="sans-serif" font-size="14" font-weight="bold" lengthAdjust="spacingAndGlyphs" textLength="67" x="2391" y="128.9951">java.util</text><!--MD5=[c2796faf4134bd8b5f3bc71f44d02e74]
entity jar--><rect fill="#FEFECE" filter="url(#f1ogl9h0syymvj)" height="46.2969" style="stroke:#A80036;stroke-width:1.5;" width="150" x="1387.5" y="7"/><rect fill="#FEFECE" height="10" style="stroke:#A80036;stroke-width:1.5;" width="15" x="1517.5" y="12"/><rect fill="#FEFECE" height="2" style="stroke:#A80036;stroke-width:1.5;" width="4" x="1515.5" y="14"/><rect fill="#FEFECE" height="2" style="stroke:#A80036;stroke-width:1.5;" width="4" x="1515.5" y="18"/><text fill="#000000" font-family="sans-serif" font-size="14" lengthAdjust="spacingAndGlyphs" textLength="110" x="1402.5" y="39.9951">mastermind.jar</text><!--MD5=[33871d850b885cae0f32fcf5f82e5a8f]
link jar to usantatecla.mastermind--><path d="M1375.3628,34.8699 C1375.3628,34.8699 678.524,70.0887 264.5,113 C263.08,113.1472 261.651,113.298 260.216,113.452 " fill="none" id="jar-usantatecla.mastermind" style="stroke:#A80036;stroke-width:1.0;"/><polygon fill="#A80036" points="247.141,114.9204,256.5313,117.8906,252.1097,114.3622,255.6381,109.9406,247.141,114.9204" style="stroke:#A80036;stroke-width:1.0;"/><line style="stroke:#A80036;stroke-width:1.0;" x1="252.1097" x2="260.06" y1="114.3622" y2="113.4694"/><polygon fill="#A80036" points="1387.35,34.316,1381.1718,30.5972,1375.3628,34.8699,1381.541,38.5887,1387.35,34.316" style="stroke:#A80036;stroke-width:1.0;"/><!--MD5=[f1af4d068a3921898a2ee622d8d8541e]
link jar to usantatecla.mastermind.controllers--><path d="M1375.4262,39.3884 C1375.4262,39.3884 897.702,85.5939 624.5,113 C623.181,113.1323 621.857,113.2652 620.528,113.3988 " fill="none" id="jar-usantatecla.mastermind.controllers" style="stroke:#A80036;stroke-width:1.0;"/><polygon fill="#A80036" points="607.366,114.725,616.7216,117.8029,612.3408,114.2239,615.9198,109.8432,607.366,114.725" style="stroke:#A80036;stroke-width:1.0;"/><line style="stroke:#A80036;stroke-width:1.0;" x1="612.3408" x2="620.301" y1="114.2239" y2="113.4216"/><polygon fill="#A80036" points="1387.37,38.228,1381.0113,34.8269,1375.4262,39.3884,1381.7849,42.7894,1387.37,38.228" style="stroke:#A80036;stroke-width:1.0;"/><!--MD5=[2390947b1b119a53a88c2001f23d7e65]
link jar to usantatecla.mastermind.models--><path d="M1375.3908,44.0032 C1375.3908,44.0032 1060.47,91.0352 926.677,111.0151 " fill="none" id="jar-usantatecla.mastermind.models" style="stroke:#A80036;stroke-width:1.0;"/><polygon fill="#A80036" points="913.535,112.9776,923.0271,115.6045,918.4802,112.2391,921.8455,107.6922,913.535,112.9776" style="stroke:#A80036;stroke-width:1.0;"/><line style="stroke:#A80036;stroke-width:1.0;" x1="918.4802" x2="926.393" y1="112.2391" y2="111.0575"/><polygon fill="#A80036" points="1387.26,42.236,1380.7364,39.1632,1375.3908,44.0032,1381.9145,47.076,1387.26,42.236" style="stroke:#A80036;stroke-width:1.0;"/><!--MD5=[9b931e9ad5c3902361053e698395b79d]
link jar to usantatecla.mastermind.views--><path d="M1375.8855,55.8697 C1375.8855,55.8697 1244.55,93.5814 1189.93,109.2659 " fill="none" id="jar-usantatecla.mastermind.views" style="stroke:#A80036;stroke-width:1.0;"/><polygon fill="#A80036" points="1177.17,112.9297,1186.9242,114.292,1181.976,111.5505,1184.7175,106.6023,1177.17,112.9297" style="stroke:#A80036;stroke-width:1.0;"/><line style="stroke:#A80036;stroke-width:1.0;" x1="1181.976" x2="1189.665" y1="111.5505" y2="109.3418"/><polygon fill="#A80036" points="1387.42,52.5598,1380.5495,50.3699,1375.8855,55.8697,1382.756,58.0596,1387.42,52.5598" style="stroke:#A80036;stroke-width:1.0;"/><!--MD5=[dc33a4fde77d4230156989d15f1199a0]
link jar to usantatecla.mastermind.views.console--><path d="M1462.5,65.3042 C1462.5,65.3042 1462.5,89.2598 1462.5,99.9085 " fill="none" id="jar-usantatecla.mastermind.views.console" style="stroke:#A80036;stroke-width:1.0;"/><polygon fill="#A80036" points="1462.5,112.9606,1466.5,103.9606,1462.5,107.9606,1458.5,103.9606,1462.5,112.9606" style="stroke:#A80036;stroke-width:1.0;"/><line style="stroke:#A80036;stroke-width:1.0;" x1="1462.5" x2="1462.5" y1="107.9606" y2="99.9607"/><polygon fill="#A80036" points="1462.5,53.3042,1458.5,59.3042,1462.5,65.3042,1466.5,59.3042,1462.5,53.3042" style="stroke:#A80036;stroke-width:1.0;"/><!--MD5=[478778a62fbb913535b45914106db0eb]
link jar to usantatecla.mastermind.views.graphics--><path d="M1549.1971,53.5041 C1549.1971,53.5041 1701.95,93.1831 1765.45,109.6731 " fill="none" id="jar-usantatecla.mastermind.views.graphics" style="stroke:#A80036;stroke-width:1.0;"/><polygon fill="#A80036" points="1778.23,112.9907,1770.5261,106.8547,1773.3909,111.7326,1768.5131,114.5973,1778.23,112.9907" style="stroke:#A80036;stroke-width:1.0;"/><line style="stroke:#A80036;stroke-width:1.0;" x1="1773.3909" x2="1765.645" y1="111.7326" y2="109.7231"/><polygon fill="#A80036" points="1537.58,50.497,1542.3862,55.8729,1549.1971,53.5041,1544.3909,48.1282,1537.58,50.497" style="stroke:#A80036;stroke-width:1.0;"/><!--MD5=[8059cd5737844cbfa7541e4ee98eb909]
link jar to usantatecla.utils--><path d="M1549.5487,42.1559 C1549.5487,42.1559 1870.53,84.8394 2045.5,113 C2046.79,113.2078 2048.09,113.4187 2049.4,113.6323 " fill="none" id="jar-usantatecla.utils" style="stroke:#A80036;stroke-width:1.0;"/><polygon fill="#A80036" points="2062.39,115.8026,2054.1724,110.3738,2057.4584,114.9784,2052.8538,118.2644,2062.39,115.8026" style="stroke:#A80036;stroke-width:1.0;"/><line style="stroke:#A80036;stroke-width:1.0;" x1="2057.4584" x2="2049.57" y1="114.9784" y2="113.6606"/><polygon fill="#A80036" points="1537.65,40.6,1543.0807,45.3442,1549.5487,42.1559,1544.118,37.4117,1537.65,40.6" style="stroke:#A80036;stroke-width:1.0;"/><!--MD5=[f17a38c250a1605cd3da9b9fac2ef94b]
link jar to java.io--><path d="M1549.6672,34.3709 C1549.6672,34.3709 2000.03,61.2447 2250.5,113 C2251.87,113.2824 2253.25,113.5838 2254.64,113.9016 " fill="none" id="jar-java.io" style="stroke:#A80036;stroke-width:1.0;"/><polygon fill="#A80036" points="2267.23,117.1317,2259.5054,111.0218,2262.3867,115.8899,2257.5186,118.7711,2267.23,117.1317" style="stroke:#A80036;stroke-width:1.0;"/><line style="stroke:#A80036;stroke-width:1.0;" x1="2262.3867" x2="2254.64" y1="115.8899" y2="113.9017"/><polygon fill="#A80036" points="1537.68,33.817,1543.489,38.0897,1549.6672,34.3709,1543.8582,30.0982,1537.68,33.817" style="stroke:#A80036;stroke-width:1.0;"/><!--MD5=[a929e6d2b54380e4c3e4c2b17ce7cd9b]
link jar to java.util--><path d="M1549.7826,33.573 C1549.7826,33.573 2072.67,58.4561 2369.5,113 C2370.99,113.2742 2372.5,113.567 2374.02,113.8758 " fill="none" id="jar-java.util" style="stroke:#A80036;stroke-width:1.0;"/><polygon fill="#A80036" points="2386.72,116.7517,2378.8258,110.8626,2381.8435,115.6473,2377.0588,118.665,2386.72,116.7517" style="stroke:#A80036;stroke-width:1.0;"/><line style="stroke:#A80036;stroke-width:1.0;" x1="2381.8435" x2="2374.035" y1="115.6473" y2="113.8806"/><polygon fill="#A80036" points="1537.79,33.151,1543.6456,37.3595,1549.7826,33.573,1543.927,29.3645,1537.79,33.151" style="stroke:#A80036;stroke-width:1.0;"/><!--MD5=[0c27cc8e8ffcad6ae7caa2464ec48093]
@startuml
package "  "  as usantatecla.mastermind {
}
package "  "  as usantatecla.mastermind.controllers {
}
package "  "  as usantatecla.mastermind.models {
}
package "  "  as usantatecla.mastermind.views {
}
package "  "  as usantatecla.mastermind.views.console {
}
package "  "  as usantatecla.mastermind.views.graphics {
}
package "  "  as usantatecla.utils {
}
package "  "  as java.io {
}
package "  "  as java.util {
}

[mastermind.jar] as jar

jar *- -> usantatecla.mastermind
jar *- -> usantatecla.mastermind.controllers
jar *- -> usantatecla.mastermind.models
jar *- -> usantatecla.mastermind.views
jar *- -> usantatecla.mastermind.views.console
jar *- -> usantatecla.mastermind.views.graphics
jar *- -> usantatecla.utils
jar *- -> java.io
jar *- -> java.util
@enduml

PlantUML version 1.2020.22(Sun Dec 06 09:36:27 UTC 2020)
(GPL source distribution)
Java Runtime: Java(TM) SE Runtime Environment
JVM: Java HotSpot(TM) 64-Bit Server VM
Default Encoding: UTF-8
Language: en
Country: US
--></g></svg>